<?xml version="1.0" encoding="UTF-8" standalone="no"?>
<!DOCTYPE svg PUBLIC "-//W3C//DTD SVG 1.1//EN"
 "http://www.w3.org/Graphics/SVG/1.1/DTD/svg11.dtd">
<!-- Generated by graphviz version 2.43.0 (0)
 -->
<!-- Title: bfp.h Pages: 1 -->
<svg width="374pt" height="252pt"
 viewBox="0.00 0.00 373.94 252.00" xmlns="http://www.w3.org/2000/svg" xmlns:xlink="http://www.w3.org/1999/xlink">
<g id="graph0" class="graph" transform="scale(1 1) rotate(0) translate(4 248)">
<title>bfp.h</title>
<!-- Node1 -->
<g id="node1" class="node">
<title>Node1</title>
<g id="a_node1"><a xlink:title=" ">
<polygon fill="#bfbfbf" stroke="black" points="187,-224.5 187,-243.5 228,-243.5 228,-224.5 187,-224.5"/>
<text text-anchor="middle" x="207.5" y="-231.5" font-family="Helvetica,sans-Serif" font-size="10.00">bfp.h</text>
</a>
</g>
</g>
<!-- Node2 -->
<g id="node2" class="node">
<title>Node2</title>
<g id="a_node2"><a xlink:title=" ">
<polygon fill="none" stroke="#bfbfbf" points="0,-168.5 0,-187.5 47,-187.5 47,-168.5 0,-168.5"/>
<text text-anchor="middle" x="23.5" y="-175.5" font-family="Helvetica,sans-Serif" font-size="10.00">vector</text>
</a>
</g>
</g>
<!-- Node1&#45;&gt;Node2 -->
<g id="edge1" class="edge">
<title>Node1&#45;&gt;Node2</title>
<path fill="none" stroke="midnightblue" d="M186.75,-226.91C155.22,-217.66 94.93,-199.96 57.1,-188.86"/>
<polygon fill="midnightblue" stroke="midnightblue" points="57.65,-185.37 47.06,-185.92 55.67,-192.09 57.65,-185.37"/>
</g>
<!-- Node3 -->
<g id="node3" class="node">
<title>Node3</title>
<g id="a_node3"><a xlink:title=" ">
<polygon fill="none" stroke="#bfbfbf" points="65,-168.5 65,-187.5 158,-187.5 158,-168.5 65,-168.5"/>
<text text-anchor="middle" x="111.5" y="-175.5" font-family="Helvetica,sans-Serif" font-size="10.00">unordered_map</text>
</a>
</g>
</g>
<!-- Node1&#45;&gt;Node3 -->
<g id="edge2" class="edge">
<title>Node1&#45;&gt;Node3</title>
<path fill="none" stroke="midnightblue" d="M192.08,-224.32C176.96,-215.82 153.68,-202.73 136.03,-192.8"/>
<polygon fill="midnightblue" stroke="midnightblue" points="137.32,-189.51 126.89,-187.65 133.89,-195.61 137.32,-189.51"/>
</g>
<!-- Node4 -->
<g id="node4" class="node">
<title>Node4</title>
<g id="a_node4"><a xlink:title=" ">
<polygon fill="none" stroke="#bfbfbf" points="166.5,-0.5 166.5,-19.5 210.5,-19.5 210.5,-0.5 166.5,-0.5"/>
<text text-anchor="middle" x="188.5" y="-7.5" font-family="Helvetica,sans-Serif" font-size="10.00">string</text>
</a>
</g>
</g>
<!-- Node1&#45;&gt;Node4 -->
<g id="edge3" class="edge">
<title>Node1&#45;&gt;Node4</title>
<path fill="none" stroke="midnightblue" d="M228.09,-228.23C250.87,-222.1 287.64,-209.58 312.5,-188 358.42,-148.13 385.22,-104.47 348.5,-56 333.12,-35.7 262.86,-22 220.73,-15.45"/>
<polygon fill="midnightblue" stroke="midnightblue" points="221.08,-11.96 210.68,-13.94 220.04,-18.88 221.08,-11.96"/>
</g>
<!-- Node5 -->
<g id="node5" class="node">
<title>Node5</title>
<g id="a_node5"><a xlink:href="register_8h.html" target="_top" xlink:title=" ">
<polygon fill="none" stroke="black" points="176.5,-168.5 176.5,-187.5 238.5,-187.5 238.5,-168.5 176.5,-168.5"/>
<text text-anchor="middle" x="207.5" y="-175.5" font-family="Helvetica,sans-Serif" font-size="10.00">register.h</text>
</a>
</g>
</g>
<!-- Node1&#45;&gt;Node5 -->
<g id="edge4" class="edge">
<title>Node1&#45;&gt;Node5</title>
<path fill="none" stroke="midnightblue" d="M207.5,-224.08C207.5,-217.01 207.5,-206.86 207.5,-197.99"/>
<polygon fill="midnightblue" stroke="midnightblue" points="211,-197.75 207.5,-187.75 204,-197.75 211,-197.75"/>
</g>
<!-- Node10 -->
<g id="node10" class="node">
<title>Node10</title>
<g id="a_node10"><a xlink:href="dma_8h.html" target="_top" xlink:title=" ">
<polygon fill="none" stroke="black" points="257,-168.5 257,-187.5 304,-187.5 304,-168.5 257,-168.5"/>
<text text-anchor="middle" x="280.5" y="-175.5" font-family="Helvetica,sans-Serif" font-size="10.00">dma.h</text>
</a>
</g>
</g>
<!-- Node1&#45;&gt;Node10 -->
<g id="edge12" class="edge">
<title>Node1&#45;&gt;Node10</title>
<path fill="none" stroke="midnightblue" d="M219.23,-224.32C230.34,-216.11 247.24,-203.6 260.48,-193.81"/>
<polygon fill="midnightblue" stroke="midnightblue" points="262.6,-196.59 268.56,-187.83 258.44,-190.97 262.6,-196.59"/>
</g>
<!-- Node5&#45;&gt;Node4 -->
<g id="edge5" class="edge">
<title>Node5&#45;&gt;Node4</title>
<path fill="none" stroke="midnightblue" d="M189.73,-168.47C175.8,-160.85 157.06,-148.36 146.5,-132 132.7,-110.61 137.18,-101.31 134.5,-76 133.56,-67.16 130.73,-64.05 134.5,-56 140.54,-43.09 152.31,-32.6 163.32,-25"/>
<polygon fill="midnightblue" stroke="midnightblue" points="165.33,-27.87 171.87,-19.54 161.56,-21.97 165.33,-27.87"/>
</g>
<!-- Node6 -->
<g id="node6" class="node">
<title>Node6</title>
<g id="a_node6"><a xlink:href="resource_8h.html" target="_top" xlink:title=" ">
<polygon fill="none" stroke="black" points="155.5,-112.5 155.5,-131.5 223.5,-131.5 223.5,-112.5 155.5,-112.5"/>
<text text-anchor="middle" x="189.5" y="-119.5" font-family="Helvetica,sans-Serif" font-size="10.00">resource.h</text>
</a>
</g>
</g>
<!-- Node5&#45;&gt;Node6 -->
<g id="edge6" class="edge">
<title>Node5&#45;&gt;Node6</title>
<path fill="none" stroke="midnightblue" d="M204.53,-168.08C202.12,-160.85 198.64,-150.41 195.63,-141.4"/>
<polygon fill="midnightblue" stroke="midnightblue" points="198.9,-140.13 192.42,-131.75 192.26,-142.34 198.9,-140.13"/>
</g>
<!-- Node9 -->
<g id="node9" class="node">
<title>Node9</title>
<g id="a_node9"><a xlink:title=" ">
<polygon fill="none" stroke="#bfbfbf" points="242,-112.5 242,-131.5 319,-131.5 319,-112.5 242,-112.5"/>
<text text-anchor="middle" x="280.5" y="-119.5" font-family="Helvetica,sans-Serif" font-size="10.00">pugixml.hpp</text>
</a>
</g>
</g>
<!-- Node5&#45;&gt;Node9 -->
<g id="edge11" class="edge">
<title>Node5&#45;&gt;Node9</title>
<path fill="none" stroke="midnightblue" d="M219.23,-168.32C230.34,-160.11 247.24,-147.6 260.48,-137.81"/>
<polygon fill="midnightblue" stroke="midnightblue" points="262.6,-140.59 268.56,-131.83 258.44,-134.97 262.6,-140.59"/>
</g>
<!-- Node6&#45;&gt;Node4 -->
<g id="edge7" class="edge">
<title>Node6&#45;&gt;Node4</title>
<path fill="none" stroke="midnightblue" d="M174.84,-112.4C163.09,-104.58 147.47,-91.86 140.5,-76 132.09,-56.86 149.74,-37.98 165.95,-25.54"/>
<polygon fill="midnightblue" stroke="midnightblue" points="168.07,-28.33 174.16,-19.65 163.99,-22.64 168.07,-28.33"/>
</g>
<!-- Node7 -->
<g id="node7" class="node">
<title>Node7</title>
<g id="a_node7"><a xlink:href="fpgatypes_8h.html" target="_top" xlink:title=" ">
<polygon fill="none" stroke="black" points="245.5,-56.5 245.5,-75.5 319.5,-75.5 319.5,-56.5 245.5,-56.5"/>
<text text-anchor="middle" x="282.5" y="-63.5" font-family="Helvetica,sans-Serif" font-size="10.00">fpgatypes.h</text>
</a>
</g>
</g>
<!-- Node6&#45;&gt;Node7 -->
<g id="edge8" class="edge">
<title>Node6&#45;&gt;Node7</title>
<path fill="none" stroke="midnightblue" d="M204.44,-112.32C219.09,-103.82 241.63,-90.73 258.74,-80.8"/>
<polygon fill="midnightblue" stroke="midnightblue" points="260.7,-83.7 267.6,-75.65 257.19,-77.65 260.7,-83.7"/>
</g>
<!-- Node8 -->
<g id="node8" class="node">
<title>Node8</title>
<g id="a_node8"><a xlink:href="elemtypes_8h.html" target="_top" xlink:title=" ">
<polygon fill="none" stroke="black" points="150,-56.5 150,-75.5 227,-75.5 227,-56.5 150,-56.5"/>
<text text-anchor="middle" x="188.5" y="-63.5" font-family="Helvetica,sans-Serif" font-size="10.00">elemtypes.h</text>
</a>
</g>
</g>
<!-- Node6&#45;&gt;Node8 -->
<g id="edge9" class="edge">
<title>Node6&#45;&gt;Node8</title>
<path fill="none" stroke="midnightblue" d="M189.33,-112.08C189.2,-105.01 189.02,-94.86 188.85,-85.99"/>
<polygon fill="midnightblue" stroke="midnightblue" points="192.35,-85.68 188.66,-75.75 185.35,-85.81 192.35,-85.68"/>
</g>
<!-- Node8&#45;&gt;Node4 -->
<g id="edge10" class="edge">
<title>Node8&#45;&gt;Node4</title>
<path fill="none" stroke="midnightblue" d="M188.5,-56.08C188.5,-49.01 188.5,-38.86 188.5,-29.99"/>
<polygon fill="midnightblue" stroke="midnightblue" points="192,-29.75 188.5,-19.75 185,-29.75 192,-29.75"/>
</g>
<!-- Node10&#45;&gt;Node4 -->
<g id="edge13" class="edge">
<title>Node10&#45;&gt;Node4</title>
<path fill="none" stroke="midnightblue" d="M294.51,-168.23C305.74,-160.31 320.71,-147.52 327.5,-132 341.04,-101.05 348.4,-83.3 328.5,-56 304.01,-22.4 254.01,-13.34 220.88,-11.19"/>
<polygon fill="midnightblue" stroke="midnightblue" points="220.92,-7.69 210.77,-10.72 220.59,-14.68 220.92,-7.69"/>
</g>
<!-- Node10&#45;&gt;Node6 -->
<g id="edge15" class="edge">
<title>Node10&#45;&gt;Node6</title>
<path fill="none" stroke="midnightblue" d="M265.88,-168.32C251.55,-159.82 229.49,-146.73 212.75,-136.8"/>
<polygon fill="midnightblue" stroke="midnightblue" points="214.47,-133.75 204.08,-131.65 210.9,-139.77 214.47,-133.75"/>
</g>
<!-- Node10&#45;&gt;Node9 -->
<g id="edge14" class="edge">
<title>Node10&#45;&gt;Node9</title>
<path fill="none" stroke="midnightblue" d="M280.5,-168.08C280.5,-161.01 280.5,-150.86 280.5,-141.99"/>
<polygon fill="midnightblue" stroke="midnightblue" points="284,-141.75 280.5,-131.75 277,-141.75 284,-141.75"/>
</g>
</g>
</svg>
