<?xml version="1.0" encoding="UTF-8" standalone="no"?>
<!DOCTYPE svg PUBLIC "-//W3C//DTD SVG 1.1//EN"
 "http://www.w3.org/Graphics/SVG/1.1/DTD/svg11.dtd">
<!-- Generated by graphviz version 2.43.0 (0)
 -->
<!-- Title: irio::ProfileBase Pages: 1 -->
<!--zoomable 287 -->
<svg id="main" version="1.1" xmlns="http://www.w3.org/2000/svg" xmlns:xlink="http://www.w3.org/1999/xlink" xml:space="preserve" onload="init(evt)">
<style type="text/css"><![CDATA[
.edge:hover path { stroke: red; }
.edge:hover polygon { stroke: red; fill: red; }
]]></style>
<script type="text/javascript"><![CDATA[
var edges = document.getElementsByTagName('g');
if (edges && edges.length) {
  for (var i=0;i<edges.length;i++) {
    if (edges[i].id.substr(0,4)=='edge') {
      edges[i].setAttribute('class','edge');
    }
  }
}
]]></script>
        <defs>
                <circle id="rim" cx="0" cy="0" r="7"/>
                <circle id="rim2" cx="0" cy="0" r="3.5"/>
                <g id="zoomPlus">
                        <use xlink:href="#rim" fill="#404040">
                                <set attributeName="fill" to="#808080" begin="zoomplus.mouseover" end="zoomplus.mouseout"/>
                        </use>
                        <path d="M-4,0h8M0,-4v8" fill="none" stroke="white" stroke-width="1.5" pointer-events="none"/>
                </g>
                <g id="zoomMin">
                        <use xlink:href="#rim" fill="#404040">
                                <set attributeName="fill" to="#808080" begin="zoomminus.mouseover" end="zoomminus.mouseout"/>
                        </use>
                        <path d="M-4,0h8" fill="none" stroke="white" stroke-width="1.5" pointer-events="none"/>
                </g>
                <g id="dirArrow">
                        <path fill="none" stroke="white" stroke-width="1.5" d="M0,-3.0v7 M-2.5,-0.5L0,-3.0L2.5,-0.5"/>
                </g>
               <g id="resetDef">
                       <use xlink:href="#rim2" fill="#404040">
                               <set attributeName="fill" to="#808080" begin="reset.mouseover" end="reset.mouseout"/>
                       </use>
               </g>
        </defs>

<script type="text/javascript">
var viewWidth = 768;
var viewHeight = 287;
var sectionId = 'dynsection-0';
</script>
<script xlink:href="svgpan.js"/>
<svg id="graph" class="graph">
<g id="viewport">
<title>irio::ProfileBase</title>
<!-- Node1 -->
<g id="node1" class="node">
<title>Node1</title>
<g id="a_node1"><a xlink:title="Base profile class.">
<polygon fill="#bfbfbf" stroke="black" points="509,-188.5 509,-278.5 616,-278.5 616,-188.5 509,-188.5"/>
<text text-anchor="middle" x="562.5" y="-266.5" font-family="Helvetica,sans-Serif" font-size="10.00">irio::ProfileBase</text>
<polyline fill="none" stroke="black" points="509,-259.5 616,-259.5 "/>
<text text-anchor="start" x="517" y="-247.5" font-family="Helvetica,sans-Serif" font-size="10.00">+ profileID</text>
<text text-anchor="start" x="517" y="-236.5" font-family="Helvetica,sans-Serif" font-size="10.00">&#45; m_mapTerminals</text>
<polyline fill="none" stroke="black" points="509,-229.5 616,-229.5 "/>
<text text-anchor="start" x="517" y="-217.5" font-family="Helvetica,sans-Serif" font-size="10.00">+ ProfileBase()</text>
<text text-anchor="start" x="517" y="-206.5" font-family="Helvetica,sans-Serif" font-size="10.00">+ getTerminal()</text>
<text text-anchor="start" x="517" y="-195.5" font-family="Helvetica,sans-Serif" font-size="10.00"># addTerminal()</text>
</a>
</g>
</g>
<!-- Node2 -->
<g id="node2" class="node">
<title>Node2</title>
<g id="a_node2"><a xlink:href="classirio_1_1ProfileCPUDAQ.html" target="_top" xlink:title="Profile with the terminals specific to data acquisition functionality.">
<polygon fill="none" stroke="black" points="266,-94.5 266,-151.5 377,-151.5 377,-94.5 266,-94.5"/>
<text text-anchor="middle" x="321.5" y="-139.5" font-family="Helvetica,sans-Serif" font-size="10.00">irio::ProfileCPUDAQ</text>
<polyline fill="none" stroke="black" points="266,-132.5 377,-132.5 "/>
<text text-anchor="middle" x="321.5" y="-120.5" font-family="Helvetica,sans-Serif" font-size="10.00"> </text>
<polyline fill="none" stroke="black" points="266,-113.5 377,-113.5 "/>
<text text-anchor="start" x="274" y="-101.5" font-family="Helvetica,sans-Serif" font-size="10.00">+ ProfileCPUDAQ()</text>
</a>
</g>
</g>
<!-- Node1&#45;&gt;Node2 -->
<g id="edge1" class="edge">
<title>Node1&#45;&gt;Node2</title>
<path fill="none" stroke="midnightblue" d="M499.31,-204.05C461.42,-186.99 413.68,-165.5 377.21,-149.08"/>
<polygon fill="none" stroke="midnightblue" points="498.16,-207.37 508.71,-208.29 501.03,-200.99 498.16,-207.37"/>
</g>
<!-- Node6 -->
<g id="node6" class="node">
<title>Node6</title>
<g id="a_node6"><a xlink:href="classirio_1_1ProfileCPUIMAQ.html" target="_top" xlink:title="Profile with the terminals specific to image acquisition functionality.">
<polygon fill="none" stroke="black" points="504.5,-94.5 504.5,-151.5 620.5,-151.5 620.5,-94.5 504.5,-94.5"/>
<text text-anchor="middle" x="562.5" y="-139.5" font-family="Helvetica,sans-Serif" font-size="10.00">irio::ProfileCPUIMAQ</text>
<polyline fill="none" stroke="black" points="504.5,-132.5 620.5,-132.5 "/>
<text text-anchor="middle" x="562.5" y="-120.5" font-family="Helvetica,sans-Serif" font-size="10.00"> </text>
<polyline fill="none" stroke="black" points="504.5,-113.5 620.5,-113.5 "/>
<text text-anchor="start" x="512.5" y="-101.5" font-family="Helvetica,sans-Serif" font-size="10.00">+ ProfileCPUIMAQ()</text>
</a>
</g>
</g>
<!-- Node1&#45;&gt;Node6 -->
<g id="edge5" class="edge">
<title>Node1&#45;&gt;Node6</title>
<path fill="none" stroke="midnightblue" d="M562.5,-178.35C562.5,-169.07 562.5,-159.79 562.5,-151.59"/>
<polygon fill="none" stroke="midnightblue" points="559,-178.37 562.5,-188.37 566,-178.37 559,-178.37"/>
</g>
<!-- Node8 -->
<g id="node8" class="node">
<title>Node8</title>
<g id="a_node8"><a xlink:href="classirio_1_1ProfileIO.html" target="_top" xlink:title="Profile with the terminals specific to IO functionality.">
<polygon fill="none" stroke="black" points="653.5,-94.5 653.5,-151.5 733.5,-151.5 733.5,-94.5 653.5,-94.5"/>
<text text-anchor="middle" x="693.5" y="-139.5" font-family="Helvetica,sans-Serif" font-size="10.00">irio::ProfileIO</text>
<polyline fill="none" stroke="black" points="653.5,-132.5 733.5,-132.5 "/>
<text text-anchor="middle" x="693.5" y="-120.5" font-family="Helvetica,sans-Serif" font-size="10.00"> </text>
<polyline fill="none" stroke="black" points="653.5,-113.5 733.5,-113.5 "/>
<text text-anchor="start" x="661.5" y="-101.5" font-family="Helvetica,sans-Serif" font-size="10.00">+ ProfileIO()</text>
</a>
</g>
</g>
<!-- Node1&#45;&gt;Node8 -->
<g id="edge7" class="edge">
<title>Node1&#45;&gt;Node8</title>
<path fill="none" stroke="midnightblue" d="M623.59,-181.9C636.2,-171.46 649.02,-160.84 660.19,-151.59"/>
<polygon fill="none" stroke="midnightblue" points="621.25,-179.29 615.78,-188.37 625.72,-184.69 621.25,-179.29"/>
</g>
<!-- Node3 -->
<g id="node3" class="node">
<title>Node3</title>
<g id="a_node3"><a xlink:href="classirio_1_1ProfileCPUDAQFlexRIO.html" target="_top" xlink:title="Profile with the terminals specific to data acquisition functionality and the ones specific to FlexRI...">
<polygon fill="none" stroke="black" points="0,-0.5 0,-57.5 149,-57.5 149,-0.5 0,-0.5"/>
<text text-anchor="middle" x="74.5" y="-45.5" font-family="Helvetica,sans-Serif" font-size="10.00">irio::ProfileCPUDAQFlexRIO</text>
<polyline fill="none" stroke="black" points="0,-38.5 149,-38.5 "/>
<text text-anchor="middle" x="74.5" y="-26.5" font-family="Helvetica,sans-Serif" font-size="10.00"> </text>
<polyline fill="none" stroke="black" points="0,-19.5 149,-19.5 "/>
<text text-anchor="start" x="8" y="-7.5" font-family="Helvetica,sans-Serif" font-size="10.00">+ ProfileCPUDAQFlexRIO()</text>
</a>
</g>
</g>
<!-- Node2&#45;&gt;Node3 -->
<g id="edge2" class="edge">
<title>Node2&#45;&gt;Node3</title>
<path fill="none" stroke="midnightblue" d="M256.21,-97.68C223.19,-85.38 182.97,-70.4 148.78,-57.67"/>
<polygon fill="none" stroke="midnightblue" points="255.17,-101.03 265.76,-101.24 257.61,-94.47 255.17,-101.03"/>
</g>
<!-- Node4 -->
<g id="node4" class="node">
<title>Node4</title>
<g id="a_node4"><a xlink:href="classirio_1_1ProfileCPUDAQRSeries.html" target="_top" xlink:title="Profile with the terminals specific to data acquisition functionality and to R Series boards.">
<polygon fill="none" stroke="black" points="167.5,-0.5 167.5,-57.5 315.5,-57.5 315.5,-0.5 167.5,-0.5"/>
<text text-anchor="middle" x="241.5" y="-45.5" font-family="Helvetica,sans-Serif" font-size="10.00">irio::ProfileCPUDAQRSeries</text>
<polyline fill="none" stroke="black" points="167.5,-38.5 315.5,-38.5 "/>
<text text-anchor="middle" x="241.5" y="-26.5" font-family="Helvetica,sans-Serif" font-size="10.00"> </text>
<polyline fill="none" stroke="black" points="167.5,-19.5 315.5,-19.5 "/>
<text text-anchor="start" x="175.5" y="-7.5" font-family="Helvetica,sans-Serif" font-size="10.00">+ ProfileCPUDAQRSeries()</text>
</a>
</g>
</g>
<!-- Node2&#45;&gt;Node4 -->
<g id="edge3" class="edge">
<title>Node2&#45;&gt;Node4</title>
<path fill="none" stroke="midnightblue" d="M290.9,-86.81C282.48,-77.13 273.47,-66.77 265.49,-57.58"/>
<polygon fill="none" stroke="midnightblue" points="288.29,-89.15 297.5,-94.4 293.58,-84.55 288.29,-89.15"/>
</g>
<!-- Node5 -->
<g id="node5" class="node">
<title>Node5</title>
<g id="a_node5"><a xlink:href="classirio_1_1ProfileCPUDAQcRIO.html" target="_top" xlink:title="Profile with the terminals specific to data acquisition functionality and the ones specific to cRIO d...">
<polygon fill="none" stroke="black" points="333.5,-0.5 333.5,-57.5 467.5,-57.5 467.5,-0.5 333.5,-0.5"/>
<text text-anchor="middle" x="400.5" y="-45.5" font-family="Helvetica,sans-Serif" font-size="10.00">irio::ProfileCPUDAQcRIO</text>
<polyline fill="none" stroke="black" points="333.5,-38.5 467.5,-38.5 "/>
<text text-anchor="middle" x="400.5" y="-26.5" font-family="Helvetica,sans-Serif" font-size="10.00"> </text>
<polyline fill="none" stroke="black" points="333.5,-19.5 467.5,-19.5 "/>
<text text-anchor="start" x="341.5" y="-7.5" font-family="Helvetica,sans-Serif" font-size="10.00">+ ProfileCPUDAQcRIO()</text>
</a>
</g>
</g>
<!-- Node2&#45;&gt;Node5 -->
<g id="edge4" class="edge">
<title>Node2&#45;&gt;Node5</title>
<path fill="none" stroke="midnightblue" d="M351.96,-86.52C360.21,-76.92 369,-66.68 376.81,-57.58"/>
<polygon fill="none" stroke="midnightblue" points="349.06,-84.53 345.2,-94.4 354.37,-89.09 349.06,-84.53"/>
</g>
<!-- Node7 -->
<g id="node7" class="node">
<title>Node7</title>
<g id="a_node7"><a xlink:href="classirio_1_1ProfileCPUIMAQFlexRIO.html" target="_top" xlink:title="Profile with the terminals specific to data acquisition functionality and the ones specific to FlexRI...">
<polygon fill="none" stroke="black" points="485.5,-0.5 485.5,-57.5 639.5,-57.5 639.5,-0.5 485.5,-0.5"/>
<text text-anchor="middle" x="562.5" y="-45.5" font-family="Helvetica,sans-Serif" font-size="10.00">irio::ProfileCPUIMAQFlexRIO</text>
<polyline fill="none" stroke="black" points="485.5,-38.5 639.5,-38.5 "/>
<text text-anchor="middle" x="562.5" y="-26.5" font-family="Helvetica,sans-Serif" font-size="10.00"> </text>
<polyline fill="none" stroke="black" points="485.5,-19.5 639.5,-19.5 "/>
<text text-anchor="start" x="493.5" y="-7.5" font-family="Helvetica,sans-Serif" font-size="10.00">+ ProfileCPUIMAQFlexRIO()</text>
</a>
</g>
</g>
<!-- Node6&#45;&gt;Node7 -->
<g id="edge6" class="edge">
<title>Node6&#45;&gt;Node7</title>
<path fill="none" stroke="midnightblue" d="M562.5,-84.21C562.5,-75.29 562.5,-65.95 562.5,-57.58"/>
<polygon fill="none" stroke="midnightblue" points="559,-84.4 562.5,-94.4 566,-84.4 559,-84.4"/>
</g>
<!-- Node9 -->
<g id="node9" class="node">
<title>Node9</title>
<g id="a_node9"><a xlink:href="classirio_1_1ProfileIOcRIO.html" target="_top" xlink:title="Profile with the terminals specific to cRIO IO functionality.">
<polygon fill="none" stroke="black" points="657.5,-0.5 657.5,-57.5 759.5,-57.5 759.5,-0.5 657.5,-0.5"/>
<text text-anchor="middle" x="708.5" y="-45.5" font-family="Helvetica,sans-Serif" font-size="10.00">irio::ProfileIOcRIO</text>
<polyline fill="none" stroke="black" points="657.5,-38.5 759.5,-38.5 "/>
<text text-anchor="middle" x="708.5" y="-26.5" font-family="Helvetica,sans-Serif" font-size="10.00"> </text>
<polyline fill="none" stroke="black" points="657.5,-19.5 759.5,-19.5 "/>
<text text-anchor="start" x="665.5" y="-7.5" font-family="Helvetica,sans-Serif" font-size="10.00">+ ProfileIOcRIO()</text>
</a>
</g>
</g>
<!-- Node8&#45;&gt;Node9 -->
<g id="edge8" class="edge">
<title>Node8&#45;&gt;Node9</title>
<path fill="none" stroke="midnightblue" d="M699.61,-84.5C701.08,-75.5 702.62,-66.04 704,-57.58"/>
<polygon fill="none" stroke="midnightblue" points="696.16,-83.96 698,-94.4 703.06,-85.09 696.16,-83.96"/>
</g>
</g>
</svg>
        <g id="navigator" transform="translate(0 0)" fill="#404254">
                <rect fill="#f2f5e9" fill-opacity="0.5" stroke="#606060" stroke-width=".5" x="0" y="0" width="60" height="60"/>
                <use id="zoomplus" xlink:href="#zoomPlus" x="17" y="9" onmousedown="handleZoom(evt,'in')"/>
                <use id="zoomminus" xlink:href="#zoomMin" x="42" y="9" onmousedown="handleZoom(evt,'out')"/>
                <use id="reset" xlink:href="#resetDef" x="30" y="36" onmousedown="handleReset()"/>
                <g id="arrowUp" xlink:href="#dirArrow" transform="translate(30 24)" onmousedown="handlePan(0,-1)">
                  <use xlink:href="#rim" fill="#404040">
                        <set attributeName="fill" to="#808080" begin="arrowUp.mouseover" end="arrowUp.mouseout"/>
                  </use>
                  <path fill="none" stroke="white" stroke-width="1.5" d="M0,-3.0v7 M-2.5,-0.5L0,-3.0L2.5,-0.5"/>
                </g>
                <g id="arrowRight" xlink:href="#dirArrow" transform="rotate(90) translate(36 -43)" onmousedown="handlePan(1,0)">
                  <use xlink:href="#rim" fill="#404040">
                        <set attributeName="fill" to="#808080" begin="arrowRight.mouseover" end="arrowRight.mouseout"/>
                  </use>
                  <path fill="none" stroke="white" stroke-width="1.5" d="M0,-3.0v7 M-2.5,-0.5L0,-3.0L2.5,-0.5"/>
                </g>
                <g id="arrowDown" xlink:href="#dirArrow" transform="rotate(180) translate(-30 -48)" onmousedown="handlePan(0,1)">
                  <use xlink:href="#rim" fill="#404040">
                        <set attributeName="fill" to="#808080" begin="arrowDown.mouseover" end="arrowDown.mouseout"/>
                  </use>
                  <path fill="none" stroke="white" stroke-width="1.5" d="M0,-3.0v7 M-2.5,-0.5L0,-3.0L2.5,-0.5"/>
                </g>
                <g id="arrowLeft" xlink:href="#dirArrow" transform="rotate(270) translate(-36 17)" onmousedown="handlePan(-1,0)">
                  <use xlink:href="#rim" fill="#404040">
                        <set attributeName="fill" to="#808080" begin="arrowLeft.mouseover" end="arrowLeft.mouseout"/>
                  </use>
                  <path fill="none" stroke="white" stroke-width="1.5" d="M0,-3.0v7 M-2.5,-0.5L0,-3.0L2.5,-0.5"/>
                </g>
        </g>
        <svg viewBox="0 0 15 15" width="100%" height="30px" preserveAspectRatio="xMaxYMin meet">
         <g id="arrow_out" transform="scale(0.3 0.3)">
          <a xlink:href="classirio_1_1ProfileBase__inherit__graph_org.svg" target="_base">
           <rect id="button" ry="5" rx="5" y="6" x="6" height="38" width="38"
                fill="#f2f5e9" fill-opacity="0.5" stroke="#606060" stroke-width="1.0"/>
           <path id="arrow"
             d="M 11.500037,31.436501 C 11.940474,20.09759 22.043105,11.32322 32.158766,21.979434 L 37.068811,17.246167 C 37.068811,17.246167 37.088388,32 37.088388,32 L 22.160133,31.978069 C 22.160133,31.978069 26.997745,27.140456 26.997745,27.140456 C 18.528582,18.264221 13.291696,25.230495 11.500037,31.436501 z"
             style="fill:#404040;"/>
          </a>
         </g>
        </svg>
</svg>
