<?xml version="1.0" encoding="UTF-8" standalone="no"?>
<!DOCTYPE svg PUBLIC "-//W3C//DTD SVG 1.1//EN"
 "http://www.w3.org/Graphics/SVG/1.1/DTD/svg11.dtd">
<!-- Generated by graphviz version 2.43.0 (0)
 -->
<!-- Title: irio::ProfileFlexRIO Pages: 1 -->
<svg width="330pt" height="298pt"
 viewBox="0.00 0.00 329.50 298.00" xmlns="http://www.w3.org/2000/svg" xmlns:xlink="http://www.w3.org/1999/xlink">
<g id="graph0" class="graph" transform="scale(1 1) rotate(0) translate(4 294)">
<title>irio::ProfileFlexRIO</title>
<!-- Node1 -->
<g id="node1" class="node">
<title>Node1</title>
<g id="a_node1"><a xlink:title="Profile with the terminals specific to FlexRIO devices.">
<polygon fill="#bfbfbf" stroke="black" points="106,-94.5 106,-151.5 213,-151.5 213,-94.5 106,-94.5"/>
<text text-anchor="middle" x="159.5" y="-139.5" font-family="Helvetica,sans-Serif" font-size="10.00">irio::ProfileFlexRIO</text>
<polyline fill="none" stroke="black" points="106,-132.5 213,-132.5 "/>
<text text-anchor="middle" x="159.5" y="-120.5" font-family="Helvetica,sans-Serif" font-size="10.00"> </text>
<polyline fill="none" stroke="black" points="106,-113.5 213,-113.5 "/>
<text text-anchor="start" x="114" y="-101.5" font-family="Helvetica,sans-Serif" font-size="10.00">+ ProfileFlexRIO()</text>
</a>
</g>
</g>
<!-- Node3 -->
<g id="node3" class="node">
<title>Node3</title>
<g id="a_node3"><a xlink:href="classirio_1_1ProfileCPUDAQFlexRIO.html" target="_top" xlink:title="Profile with the terminals specific to data acquisition functionality and the ones specific to FlexRI...">
<polygon fill="none" stroke="black" points="0,-0.5 0,-57.5 149,-57.5 149,-0.5 0,-0.5"/>
<text text-anchor="middle" x="74.5" y="-45.5" font-family="Helvetica,sans-Serif" font-size="10.00">irio::ProfileCPUDAQFlexRIO</text>
<polyline fill="none" stroke="black" points="0,-38.5 149,-38.5 "/>
<text text-anchor="middle" x="74.5" y="-26.5" font-family="Helvetica,sans-Serif" font-size="10.00"> </text>
<polyline fill="none" stroke="black" points="0,-19.5 149,-19.5 "/>
<text text-anchor="start" x="8" y="-7.5" font-family="Helvetica,sans-Serif" font-size="10.00">+ ProfileCPUDAQFlexRIO()</text>
</a>
</g>
</g>
<!-- Node1&#45;&gt;Node3 -->
<g id="edge2" class="edge">
<title>Node1&#45;&gt;Node3</title>
<path fill="none" stroke="midnightblue" d="M126.99,-86.81C118.04,-77.13 108.47,-66.77 99.98,-57.58"/>
<polygon fill="none" stroke="midnightblue" points="124.64,-89.43 134,-94.4 129.78,-84.68 124.64,-89.43"/>
</g>
<!-- Node4 -->
<g id="node4" class="node">
<title>Node4</title>
<g id="a_node4"><a xlink:href="classirio_1_1ProfileCPUIMAQFlexRIO.html" target="_top" xlink:title=" ">
<polygon fill="none" stroke="black" points="167.5,-0.5 167.5,-57.5 321.5,-57.5 321.5,-0.5 167.5,-0.5"/>
<text text-anchor="middle" x="244.5" y="-45.5" font-family="Helvetica,sans-Serif" font-size="10.00">irio::ProfileCPUIMAQFlexRIO</text>
<polyline fill="none" stroke="black" points="167.5,-38.5 321.5,-38.5 "/>
<text text-anchor="middle" x="244.5" y="-26.5" font-family="Helvetica,sans-Serif" font-size="10.00"> </text>
<polyline fill="none" stroke="black" points="167.5,-19.5 321.5,-19.5 "/>
<text text-anchor="start" x="175.5" y="-7.5" font-family="Helvetica,sans-Serif" font-size="10.00">+ ProfileCPUIMAQFlexRIO()</text>
</a>
</g>
</g>
<!-- Node1&#45;&gt;Node4 -->
<g id="edge3" class="edge">
<title>Node1&#45;&gt;Node4</title>
<path fill="none" stroke="midnightblue" d="M192.01,-86.81C200.96,-77.13 210.53,-66.77 219.02,-57.58"/>
<polygon fill="none" stroke="midnightblue" points="189.22,-84.68 185,-94.4 194.36,-89.43 189.22,-84.68"/>
</g>
<!-- Node2 -->
<g id="node2" class="node">
<title>Node2</title>
<g id="a_node2"><a xlink:href="classirio_1_1ProfileBase.html" target="_top" xlink:title="Base profile class.">
<polygon fill="none" stroke="black" points="106,-188.5 106,-289.5 213,-289.5 213,-188.5 106,-188.5"/>
<text text-anchor="middle" x="159.5" y="-277.5" font-family="Helvetica,sans-Serif" font-size="10.00">irio::ProfileBase</text>
<polyline fill="none" stroke="black" points="106,-270.5 213,-270.5 "/>
<text text-anchor="start" x="114" y="-258.5" font-family="Helvetica,sans-Serif" font-size="10.00">+ profileID</text>
<text text-anchor="start" x="114" y="-247.5" font-family="Helvetica,sans-Serif" font-size="10.00">&#45; m_mapTerminals</text>
<polyline fill="none" stroke="black" points="106,-240.5 213,-240.5 "/>
<text text-anchor="start" x="114" y="-228.5" font-family="Helvetica,sans-Serif" font-size="10.00">+ ProfileBase()</text>
<text text-anchor="start" x="114" y="-217.5" font-family="Helvetica,sans-Serif" font-size="10.00">+ ~ProfileBase()</text>
<text text-anchor="start" x="114" y="-206.5" font-family="Helvetica,sans-Serif" font-size="10.00">+ getTerminal()</text>
<text text-anchor="start" x="114" y="-195.5" font-family="Helvetica,sans-Serif" font-size="10.00"># addTerminal()</text>
</a>
</g>
</g>
<!-- Node2&#45;&gt;Node1 -->
<g id="edge1" class="edge">
<title>Node2&#45;&gt;Node1</title>
<path fill="none" stroke="midnightblue" d="M159.5,-178.23C159.5,-168.92 159.5,-159.71 159.5,-151.59"/>
<polygon fill="none" stroke="midnightblue" points="156,-178.33 159.5,-188.33 163,-178.33 156,-178.33"/>
</g>
</g>
</svg>
