<?xml version="1.0" encoding="UTF-8" standalone="no"?>
<!DOCTYPE svg PUBLIC "-//W3C//DTD SVG 1.1//EN"
 "http://www.w3.org/Graphics/SVG/1.1/DTD/svg11.dtd">
<!-- Generated by graphviz version 2.43.0 (0)
 -->
<!-- Title: irio::ProfileCPUDAQcRIO Pages: 1 -->
<svg width="230pt" height="298pt"
 viewBox="0.00 0.00 230.00 298.00" xmlns="http://www.w3.org/2000/svg" xmlns:xlink="http://www.w3.org/1999/xlink">
<g id="graph0" class="graph" transform="scale(1 1) rotate(0) translate(4 294)">
<title>irio::ProfileCPUDAQcRIO</title>
<!-- Node1 -->
<g id="node1" class="node">
<title>Node1</title>
<g id="a_node1"><a xlink:title="Profile with the terminals specific to data acquisition functionality and the ones specific to cRIO d...">
<polygon fill="#bfbfbf" stroke="black" points="48.5,-0.5 48.5,-57.5 182.5,-57.5 182.5,-0.5 48.5,-0.5"/>
<text text-anchor="middle" x="115.5" y="-45.5" font-family="Helvetica,sans-Serif" font-size="10.00">irio::ProfileCPUDAQcRIO</text>
<polyline fill="none" stroke="black" points="48.5,-38.5 182.5,-38.5 "/>
<text text-anchor="middle" x="115.5" y="-26.5" font-family="Helvetica,sans-Serif" font-size="10.00"> </text>
<polyline fill="none" stroke="black" points="48.5,-19.5 182.5,-19.5 "/>
<text text-anchor="start" x="56.5" y="-7.5" font-family="Helvetica,sans-Serif" font-size="10.00">+ ProfileCPUDAQcRIO()</text>
</a>
</g>
</g>
<!-- Node2 -->
<g id="node2" class="node">
<title>Node2</title>
<g id="a_node2"><a xlink:href="classirio_1_1ProfileCPUDAQ.html" target="_top" xlink:title="Profile with the terminals specific to data acquisition functionality.">
<polygon fill="none" stroke="black" points="0,-94.5 0,-151.5 111,-151.5 111,-94.5 0,-94.5"/>
<text text-anchor="middle" x="55.5" y="-139.5" font-family="Helvetica,sans-Serif" font-size="10.00">irio::ProfileCPUDAQ</text>
<polyline fill="none" stroke="black" points="0,-132.5 111,-132.5 "/>
<text text-anchor="middle" x="55.5" y="-120.5" font-family="Helvetica,sans-Serif" font-size="10.00"> </text>
<polyline fill="none" stroke="black" points="0,-113.5 111,-113.5 "/>
<text text-anchor="start" x="8" y="-101.5" font-family="Helvetica,sans-Serif" font-size="10.00">+ ProfileCPUDAQ()</text>
</a>
</g>
</g>
<!-- Node2&#45;&gt;Node1 -->
<g id="edge1" class="edge">
<title>Node2&#45;&gt;Node1</title>
<path fill="none" stroke="midnightblue" d="M79.01,-85.95C85.16,-76.52 91.7,-66.5 97.51,-57.58"/>
<polygon fill="none" stroke="midnightblue" points="76.03,-84.11 73.5,-94.4 81.9,-87.93 76.03,-84.11"/>
</g>
<!-- Node3 -->
<g id="node3" class="node">
<title>Node3</title>
<g id="a_node3"><a xlink:href="classirio_1_1ProfileBase.html" target="_top" xlink:title="Base profile class.">
<polygon fill="none" stroke="black" points="62,-188.5 62,-289.5 169,-289.5 169,-188.5 62,-188.5"/>
<text text-anchor="middle" x="115.5" y="-277.5" font-family="Helvetica,sans-Serif" font-size="10.00">irio::ProfileBase</text>
<polyline fill="none" stroke="black" points="62,-270.5 169,-270.5 "/>
<text text-anchor="start" x="70" y="-258.5" font-family="Helvetica,sans-Serif" font-size="10.00">+ profileID</text>
<text text-anchor="start" x="70" y="-247.5" font-family="Helvetica,sans-Serif" font-size="10.00">&#45; m_mapTerminals</text>
<polyline fill="none" stroke="black" points="62,-240.5 169,-240.5 "/>
<text text-anchor="start" x="70" y="-228.5" font-family="Helvetica,sans-Serif" font-size="10.00">+ ProfileBase()</text>
<text text-anchor="start" x="70" y="-217.5" font-family="Helvetica,sans-Serif" font-size="10.00">+ ~ProfileBase()</text>
<text text-anchor="start" x="70" y="-206.5" font-family="Helvetica,sans-Serif" font-size="10.00">+ getTerminal()</text>
<text text-anchor="start" x="70" y="-195.5" font-family="Helvetica,sans-Serif" font-size="10.00"># addTerminal()</text>
</a>
</g>
</g>
<!-- Node3&#45;&gt;Node2 -->
<g id="edge2" class="edge">
<title>Node3&#45;&gt;Node2</title>
<path fill="none" stroke="midnightblue" d="M84.67,-179.42C79.56,-169.71 74.47,-160.05 70.02,-151.59"/>
<polygon fill="none" stroke="midnightblue" points="81.6,-181.11 89.36,-188.33 87.8,-177.85 81.6,-181.11"/>
</g>
<!-- Node4 -->
<g id="node4" class="node">
<title>Node4</title>
<g id="a_node4"><a xlink:href="classirio_1_1ProfileCRIO.html" target="_top" xlink:title="Profile with the terminals specific to cRIO devices.">
<polygon fill="none" stroke="black" points="129,-94.5 129,-151.5 222,-151.5 222,-94.5 129,-94.5"/>
<text text-anchor="middle" x="175.5" y="-139.5" font-family="Helvetica,sans-Serif" font-size="10.00">irio::ProfileCRIO</text>
<polyline fill="none" stroke="black" points="129,-132.5 222,-132.5 "/>
<text text-anchor="middle" x="175.5" y="-120.5" font-family="Helvetica,sans-Serif" font-size="10.00"> </text>
<polyline fill="none" stroke="black" points="129,-113.5 222,-113.5 "/>
<text text-anchor="start" x="137" y="-101.5" font-family="Helvetica,sans-Serif" font-size="10.00">+ ProfileCRIO()</text>
</a>
</g>
</g>
<!-- Node3&#45;&gt;Node4 -->
<g id="edge4" class="edge">
<title>Node3&#45;&gt;Node4</title>
<path fill="none" stroke="midnightblue" d="M146.33,-179.42C151.44,-169.71 156.53,-160.05 160.98,-151.59"/>
<polygon fill="none" stroke="midnightblue" points="143.2,-177.85 141.64,-188.33 149.4,-181.11 143.2,-177.85"/>
</g>
<!-- Node4&#45;&gt;Node1 -->
<g id="edge3" class="edge">
<title>Node4&#45;&gt;Node1</title>
<path fill="none" stroke="midnightblue" d="M151.99,-85.95C145.84,-76.52 139.3,-66.5 133.49,-57.58"/>
<polygon fill="none" stroke="midnightblue" points="149.1,-87.93 157.5,-94.4 154.97,-84.11 149.1,-87.93"/>
</g>
</g>
</svg>
