<?xml version="1.0" encoding="UTF-8" standalone="no"?>
<!DOCTYPE svg PUBLIC "-//W3C//DTD SVG 1.1//EN"
 "http://www.w3.org/Graphics/SVG/1.1/DTD/svg11.dtd">
<!-- Generated by graphviz version 2.43.0 (0)
 -->
<!-- Title: irio::TerminalsIO Pages: 1 -->
<svg width="184pt" height="193pt"
 viewBox="0.00 0.00 184.00 193.00" xmlns="http://www.w3.org/2000/svg" xmlns:xlink="http://www.w3.org/1999/xlink">
<g id="graph0" class="graph" transform="scale(1 1) rotate(0) translate(4 189)">
<title>irio::TerminalsIO</title>
<!-- Node1 -->
<g id="node1" class="node">
<title>Node1</title>
<g id="a_node1"><a xlink:title="Class managing all terminals related to the cRIO IO functionality.">
<polygon fill="#bfbfbf" stroke="black" points="0,-0.5 0,-90.5 176,-90.5 176,-0.5 0,-0.5"/>
<text text-anchor="middle" x="88" y="-78.5" font-family="Helvetica,sans-Serif" font-size="10.00">irio::TerminalsIO</text>
<polyline fill="none" stroke="black" points="0,-71.5 176,-71.5 "/>
<text text-anchor="middle" x="88" y="-59.5" font-family="Helvetica,sans-Serif" font-size="10.00"> </text>
<polyline fill="none" stroke="black" points="0,-52.5 176,-52.5 "/>
<text text-anchor="start" x="8" y="-40.5" font-family="Helvetica,sans-Serif" font-size="10.00">+ TerminalsIO()</text>
<text text-anchor="start" x="8" y="-29.5" font-family="Helvetica,sans-Serif" font-size="10.00">+ setSamplingRateDecimation()</text>
<text text-anchor="start" x="8" y="-18.5" font-family="Helvetica,sans-Serif" font-size="10.00">+ getSamplingRateDecimation()</text>
<text text-anchor="start" x="8" y="-7.5" font-family="Helvetica,sans-Serif" font-size="10.00">+ getNumIOSamplingRate()</text>
</a>
</g>
</g>
<!-- Node2 -->
<g id="node2" class="node">
<title>Node2</title>
<g id="a_node2"><a xlink:href="classirio_1_1TerminalsBase.html" target="_top" xlink:title="Base class for all terminals.">
<polygon fill="none" stroke="black" points="33,-127.5 33,-184.5 143,-184.5 143,-127.5 33,-127.5"/>
<text text-anchor="middle" x="88" y="-172.5" font-family="Helvetica,sans-Serif" font-size="10.00">irio::TerminalsBase</text>
<polyline fill="none" stroke="black" points="33,-165.5 143,-165.5 "/>
<text text-anchor="start" x="41" y="-153.5" font-family="Helvetica,sans-Serif" font-size="10.00"># m_impl</text>
<polyline fill="none" stroke="black" points="33,-146.5 143,-146.5 "/>
<text text-anchor="start" x="41" y="-134.5" font-family="Helvetica,sans-Serif" font-size="10.00">+ TerminalsBase()</text>
</a>
</g>
</g>
<!-- Node2&#45;&gt;Node1 -->
<g id="edge1" class="edge">
<title>Node2&#45;&gt;Node1</title>
<path fill="none" stroke="midnightblue" d="M88,-117.21C88,-108.61 88,-99.39 88,-90.55"/>
<polygon fill="none" stroke="midnightblue" points="84.5,-117.34 88,-127.34 91.5,-117.34 84.5,-117.34"/>
</g>
</g>
</svg>
