<?xml version="1.0" encoding="UTF-8" standalone="no"?>
<!DOCTYPE svg PUBLIC "-//W3C//DTD SVG 1.1//EN"
 "http://www.w3.org/Graphics/SVG/1.1/DTD/svg11.dtd">
<!-- Generated by graphviz version 2.43.0 (0)
 -->
<!-- Title: irio::ProfileBase Pages: 1 -->
<svg width="503pt" height="298pt"
 viewBox="0.00 0.00 502.50 298.00" xmlns="http://www.w3.org/2000/svg" xmlns:xlink="http://www.w3.org/1999/xlink">
<g id="graph0" class="graph" transform="scale(1 1) rotate(0) translate(4 294)">
<title>irio::ProfileBase</title>
<!-- Node1 -->
<g id="node1" class="node">
<title>Node1</title>
<g id="a_node1"><a xlink:title="Base profile class.">
<polygon fill="#bfbfbf" stroke="black" points="176,-188.5 176,-289.5 283,-289.5 283,-188.5 176,-188.5"/>
<text text-anchor="middle" x="229.5" y="-277.5" font-family="Helvetica,sans-Serif" font-size="10.00">irio::ProfileBase</text>
<polyline fill="none" stroke="black" points="176,-270.5 283,-270.5 "/>
<text text-anchor="start" x="184" y="-258.5" font-family="Helvetica,sans-Serif" font-size="10.00">+ profileID</text>
<text text-anchor="start" x="184" y="-247.5" font-family="Helvetica,sans-Serif" font-size="10.00">&#45; m_mapTerminals</text>
<polyline fill="none" stroke="black" points="176,-240.5 283,-240.5 "/>
<text text-anchor="start" x="184" y="-228.5" font-family="Helvetica,sans-Serif" font-size="10.00">+ ProfileBase()</text>
<text text-anchor="start" x="184" y="-217.5" font-family="Helvetica,sans-Serif" font-size="10.00">+ ~ProfileBase()</text>
<text text-anchor="start" x="184" y="-206.5" font-family="Helvetica,sans-Serif" font-size="10.00">+ getTerminal()</text>
<text text-anchor="start" x="184" y="-195.5" font-family="Helvetica,sans-Serif" font-size="10.00"># addTerminal()</text>
</a>
</g>
</g>
<!-- Node2 -->
<g id="node2" class="node">
<title>Node2</title>
<g id="a_node2"><a xlink:href="classirio_1_1ProfileCPUDAQ.html" target="_top" xlink:title="Profile with the terminals specific to data acquisition functionality.">
<polygon fill="none" stroke="black" points="111,-94.5 111,-151.5 222,-151.5 222,-94.5 111,-94.5"/>
<text text-anchor="middle" x="166.5" y="-139.5" font-family="Helvetica,sans-Serif" font-size="10.00">irio::ProfileCPUDAQ</text>
<polyline fill="none" stroke="black" points="111,-132.5 222,-132.5 "/>
<text text-anchor="middle" x="166.5" y="-120.5" font-family="Helvetica,sans-Serif" font-size="10.00"> </text>
<polyline fill="none" stroke="black" points="111,-113.5 222,-113.5 "/>
<text text-anchor="start" x="119" y="-101.5" font-family="Helvetica,sans-Serif" font-size="10.00">+ ProfileCPUDAQ()</text>
</a>
</g>
</g>
<!-- Node1&#45;&gt;Node2 -->
<g id="edge1" class="edge">
<title>Node1&#45;&gt;Node2</title>
<path fill="none" stroke="midnightblue" d="M197.13,-179.42C191.76,-169.71 186.42,-160.05 181.75,-151.59"/>
<polygon fill="none" stroke="midnightblue" points="194.15,-181.27 202.05,-188.33 200.28,-177.88 194.15,-181.27"/>
</g>
<!-- Node5 -->
<g id="node5" class="node">
<title>Node5</title>
<g id="a_node5"><a xlink:href="classirio_1_1ProfileCPUIMAQ.html" target="_top" xlink:title=" ">
<polygon fill="none" stroke="black" points="365.5,-94.5 365.5,-151.5 481.5,-151.5 481.5,-94.5 365.5,-94.5"/>
<text text-anchor="middle" x="423.5" y="-139.5" font-family="Helvetica,sans-Serif" font-size="10.00">irio::ProfileCPUIMAQ</text>
<polyline fill="none" stroke="black" points="365.5,-132.5 481.5,-132.5 "/>
<text text-anchor="middle" x="423.5" y="-120.5" font-family="Helvetica,sans-Serif" font-size="10.00"> </text>
<polyline fill="none" stroke="black" points="365.5,-113.5 481.5,-113.5 "/>
<text text-anchor="start" x="373.5" y="-101.5" font-family="Helvetica,sans-Serif" font-size="10.00">+ ProfileCPUIMAQ()</text>
</a>
</g>
</g>
<!-- Node1&#45;&gt;Node5 -->
<g id="edge4" class="edge">
<title>Node1&#45;&gt;Node5</title>
<path fill="none" stroke="midnightblue" d="M291.78,-201.4C319.24,-185.27 350.98,-166.61 376.42,-151.66"/>
<polygon fill="none" stroke="midnightblue" points="289.87,-198.46 283.02,-206.55 293.42,-204.5 289.87,-198.46"/>
</g>
<!-- Node7 -->
<g id="node7" class="node">
<title>Node7</title>
<g id="a_node7"><a xlink:href="classirio_1_1ProfileCRIO.html" target="_top" xlink:title="Profile with the terminals specific to cRIO devices.">
<polygon fill="none" stroke="black" points="0,-94.5 0,-151.5 93,-151.5 93,-94.5 0,-94.5"/>
<text text-anchor="middle" x="46.5" y="-139.5" font-family="Helvetica,sans-Serif" font-size="10.00">irio::ProfileCRIO</text>
<polyline fill="none" stroke="black" points="0,-132.5 93,-132.5 "/>
<text text-anchor="middle" x="46.5" y="-120.5" font-family="Helvetica,sans-Serif" font-size="10.00"> </text>
<polyline fill="none" stroke="black" points="0,-113.5 93,-113.5 "/>
<text text-anchor="start" x="8" y="-101.5" font-family="Helvetica,sans-Serif" font-size="10.00">+ ProfileCRIO()</text>
</a>
</g>
</g>
<!-- Node1&#45;&gt;Node7 -->
<g id="edge6" class="edge">
<title>Node1&#45;&gt;Node7</title>
<path fill="none" stroke="midnightblue" d="M166.88,-198.99C141.86,-183.41 113.63,-165.82 90.8,-151.6"/>
<polygon fill="none" stroke="midnightblue" points="165.25,-202.1 175.58,-204.41 168.95,-196.15 165.25,-202.1"/>
</g>
<!-- Node8 -->
<g id="node8" class="node">
<title>Node8</title>
<g id="a_node8"><a xlink:href="classirio_1_1ProfileFlexRIO.html" target="_top" xlink:title="Profile with the terminals specific to FlexRIO devices.">
<polygon fill="none" stroke="black" points="240,-94.5 240,-151.5 347,-151.5 347,-94.5 240,-94.5"/>
<text text-anchor="middle" x="293.5" y="-139.5" font-family="Helvetica,sans-Serif" font-size="10.00">irio::ProfileFlexRIO</text>
<polyline fill="none" stroke="black" points="240,-132.5 347,-132.5 "/>
<text text-anchor="middle" x="293.5" y="-120.5" font-family="Helvetica,sans-Serif" font-size="10.00"> </text>
<polyline fill="none" stroke="black" points="240,-113.5 347,-113.5 "/>
<text text-anchor="start" x="248" y="-101.5" font-family="Helvetica,sans-Serif" font-size="10.00">+ ProfileFlexRIO()</text>
</a>
</g>
</g>
<!-- Node1&#45;&gt;Node8 -->
<g id="edge8" class="edge">
<title>Node1&#45;&gt;Node8</title>
<path fill="none" stroke="midnightblue" d="M262.39,-179.42C267.84,-169.71 273.26,-160.05 278.01,-151.59"/>
<polygon fill="none" stroke="midnightblue" points="259.23,-177.9 257.39,-188.33 265.33,-181.32 259.23,-177.9"/>
</g>
<!-- Node3 -->
<g id="node3" class="node">
<title>Node3</title>
<g id="a_node3"><a xlink:href="classirio_1_1ProfileCPUDAQFlexRIO.html" target="_top" xlink:title="Profile with the terminals specific to data acquisition functionality and the ones specific to FlexRI...">
<polygon fill="none" stroke="black" points="167,-0.5 167,-57.5 316,-57.5 316,-0.5 167,-0.5"/>
<text text-anchor="middle" x="241.5" y="-45.5" font-family="Helvetica,sans-Serif" font-size="10.00">irio::ProfileCPUDAQFlexRIO</text>
<polyline fill="none" stroke="black" points="167,-38.5 316,-38.5 "/>
<text text-anchor="middle" x="241.5" y="-26.5" font-family="Helvetica,sans-Serif" font-size="10.00"> </text>
<polyline fill="none" stroke="black" points="167,-19.5 316,-19.5 "/>
<text text-anchor="start" x="175" y="-7.5" font-family="Helvetica,sans-Serif" font-size="10.00">+ ProfileCPUDAQFlexRIO()</text>
</a>
</g>
</g>
<!-- Node2&#45;&gt;Node3 -->
<g id="edge2" class="edge">
<title>Node2&#45;&gt;Node3</title>
<path fill="none" stroke="midnightblue" d="M195.42,-86.52C203.25,-76.92 211.6,-66.68 219.01,-57.58"/>
<polygon fill="none" stroke="midnightblue" points="192.61,-84.43 189,-94.4 198.03,-88.86 192.61,-84.43"/>
</g>
<!-- Node4 -->
<g id="node4" class="node">
<title>Node4</title>
<g id="a_node4"><a xlink:href="classirio_1_1ProfileCPUDAQcRIO.html" target="_top" xlink:title="Profile with the terminals specific to data acquisition functionality and the ones specific to cRIO d...">
<polygon fill="none" stroke="black" points="2.5,-0.5 2.5,-57.5 136.5,-57.5 136.5,-0.5 2.5,-0.5"/>
<text text-anchor="middle" x="69.5" y="-45.5" font-family="Helvetica,sans-Serif" font-size="10.00">irio::ProfileCPUDAQcRIO</text>
<polyline fill="none" stroke="black" points="2.5,-38.5 136.5,-38.5 "/>
<text text-anchor="middle" x="69.5" y="-26.5" font-family="Helvetica,sans-Serif" font-size="10.00"> </text>
<polyline fill="none" stroke="black" points="2.5,-19.5 136.5,-19.5 "/>
<text text-anchor="start" x="10.5" y="-7.5" font-family="Helvetica,sans-Serif" font-size="10.00">+ ProfileCPUDAQcRIO()</text>
</a>
</g>
</g>
<!-- Node2&#45;&gt;Node4 -->
<g id="edge3" class="edge">
<title>Node2&#45;&gt;Node4</title>
<path fill="none" stroke="midnightblue" d="M130.01,-87.39C119.62,-77.54 108.46,-66.95 98.58,-57.58"/>
<polygon fill="none" stroke="midnightblue" points="127.73,-90.05 137.4,-94.4 132.55,-84.98 127.73,-90.05"/>
</g>
<!-- Node6 -->
<g id="node6" class="node">
<title>Node6</title>
<g id="a_node6"><a xlink:href="classirio_1_1ProfileCPUIMAQFlexRIO.html" target="_top" xlink:title=" ">
<polygon fill="none" stroke="black" points="340.5,-0.5 340.5,-57.5 494.5,-57.5 494.5,-0.5 340.5,-0.5"/>
<text text-anchor="middle" x="417.5" y="-45.5" font-family="Helvetica,sans-Serif" font-size="10.00">irio::ProfileCPUIMAQFlexRIO</text>
<polyline fill="none" stroke="black" points="340.5,-38.5 494.5,-38.5 "/>
<text text-anchor="middle" x="417.5" y="-26.5" font-family="Helvetica,sans-Serif" font-size="10.00"> </text>
<polyline fill="none" stroke="black" points="340.5,-19.5 494.5,-19.5 "/>
<text text-anchor="start" x="348.5" y="-7.5" font-family="Helvetica,sans-Serif" font-size="10.00">+ ProfileCPUIMAQFlexRIO()</text>
</a>
</g>
</g>
<!-- Node5&#45;&gt;Node6 -->
<g id="edge5" class="edge">
<title>Node5&#45;&gt;Node6</title>
<path fill="none" stroke="midnightblue" d="M421.04,-84.21C420.45,-75.29 419.84,-65.95 419.3,-57.58"/>
<polygon fill="none" stroke="midnightblue" points="417.56,-84.65 421.7,-94.4 424.54,-84.19 417.56,-84.65"/>
</g>
<!-- Node7&#45;&gt;Node4 -->
<g id="edge7" class="edge">
<title>Node7&#45;&gt;Node4</title>
<path fill="none" stroke="midnightblue" d="M55.88,-84.5C58.13,-75.5 60.49,-66.04 62.6,-57.58"/>
<polygon fill="none" stroke="midnightblue" points="52.43,-83.85 53.4,-94.4 59.22,-85.54 52.43,-83.85"/>
</g>
<!-- Node8&#45;&gt;Node3 -->
<g id="edge9" class="edge">
<title>Node8&#45;&gt;Node3</title>
<path fill="none" stroke="midnightblue" d="M272.96,-85.66C267.68,-76.31 262.08,-66.41 257.09,-57.58"/>
<polygon fill="none" stroke="midnightblue" points="269.93,-87.41 277.9,-94.4 276.02,-83.97 269.93,-87.41"/>
</g>
<!-- Node8&#45;&gt;Node6 -->
<g id="edge10" class="edge">
<title>Node8&#45;&gt;Node6</title>
<path fill="none" stroke="midnightblue" d="M339,-88.25C352.59,-78.16 367.33,-67.22 380.32,-57.58"/>
<polygon fill="none" stroke="midnightblue" points="336.65,-85.63 330.7,-94.4 340.82,-91.25 336.65,-85.63"/>
</g>
</g>
</svg>
