<?xml version="1.0" encoding="UTF-8" standalone="no"?>
<!DOCTYPE svg PUBLIC "-//W3C//DTD SVG 1.1//EN"
 "http://www.w3.org/Graphics/SVG/1.1/DTD/svg11.dtd">
<!-- Generated by graphviz version 2.43.0 (0)
 -->
<!-- Title: irio::ModuleNI5781 Pages: 1 -->
<svg width="129pt" height="270pt"
 viewBox="0.00 0.00 129.00 270.00" xmlns="http://www.w3.org/2000/svg" xmlns:xlink="http://www.w3.org/1999/xlink">
<g id="graph0" class="graph" transform="scale(1 1) rotate(0) translate(4 266)">
<title>irio::ModuleNI5781</title>
<!-- Node1 -->
<g id="node1" class="node">
<title>Node1</title>
<g id="a_node1"><a xlink:title="Conversion parameters for FlexRIO Module NI5781.">
<polygon fill="#bfbfbf" stroke="black" points="6,-0.5 6,-57.5 115,-57.5 115,-0.5 6,-0.5"/>
<text text-anchor="middle" x="60.5" y="-45.5" font-family="Helvetica,sans-Serif" font-size="10.00">irio::ModuleNI5781</text>
<polyline fill="none" stroke="black" points="6,-38.5 115,-38.5 "/>
<text text-anchor="start" x="14" y="-26.5" font-family="Helvetica,sans-Serif" font-size="10.00">&#45; m_configDC</text>
<polyline fill="none" stroke="black" points="6,-19.5 115,-19.5 "/>
<text text-anchor="start" x="14" y="-7.5" font-family="Helvetica,sans-Serif" font-size="10.00">+ ModuleNI5781()</text>
</a>
</g>
</g>
<!-- Node2 -->
<g id="node2" class="node">
<title>Node2</title>
<g id="a_node2"><a xlink:href="classirio_1_1Module.html" target="_top" xlink:title="Manage conversion information for the ADC/DAC of a module.">
<polygon fill="none" stroke="black" points="0,-94.5 0,-261.5 121,-261.5 121,-94.5 0,-94.5"/>
<text text-anchor="middle" x="60.5" y="-249.5" font-family="Helvetica,sans-Serif" font-size="10.00">irio::Module</text>
<polyline fill="none" stroke="black" points="0,-242.5 121,-242.5 "/>
<text text-anchor="start" x="8" y="-230.5" font-family="Helvetica,sans-Serif" font-size="10.00">+ moduleID</text>
<text text-anchor="start" x="8" y="-219.5" font-family="Helvetica,sans-Serif" font-size="10.00">&#45; m_availableConfigs</text>
<text text-anchor="start" x="8" y="-208.5" font-family="Helvetica,sans-Serif" font-size="10.00">&#45; m_couplingMode</text>
<text text-anchor="start" x="8" y="-197.5" font-family="Helvetica,sans-Serif" font-size="10.00">&#45; m_currentConfig</text>
<polyline fill="none" stroke="black" points="0,-190.5 121,-190.5 "/>
<text text-anchor="start" x="8" y="-178.5" font-family="Helvetica,sans-Serif" font-size="10.00">+ Module()</text>
<text text-anchor="start" x="8" y="-167.5" font-family="Helvetica,sans-Serif" font-size="10.00">+ setCouplingMode()</text>
<text text-anchor="start" x="8" y="-156.5" font-family="Helvetica,sans-Serif" font-size="10.00">+ getCouplingMode()</text>
<text text-anchor="start" x="8" y="-145.5" font-family="Helvetica,sans-Serif" font-size="10.00">+ getCVADC()</text>
<text text-anchor="start" x="8" y="-134.5" font-family="Helvetica,sans-Serif" font-size="10.00">+ getCVDAC()</text>
<text text-anchor="start" x="8" y="-123.5" font-family="Helvetica,sans-Serif" font-size="10.00">+ getMaxValAO()</text>
<text text-anchor="start" x="8" y="-112.5" font-family="Helvetica,sans-Serif" font-size="10.00">+ getMinValAO()</text>
<text text-anchor="start" x="8" y="-101.5" font-family="Helvetica,sans-Serif" font-size="10.00"># addConfig()</text>
</a>
</g>
</g>
<!-- Node2&#45;&gt;Node1 -->
<g id="edge1" class="edge">
<title>Node2&#45;&gt;Node1</title>
<path fill="none" stroke="midnightblue" d="M60.5,-84.36C60.5,-74.79 60.5,-65.68 60.5,-57.75"/>
<polygon fill="none" stroke="midnightblue" points="57,-84.48 60.5,-94.48 64,-84.48 57,-84.48"/>
</g>
</g>
</svg>
