<?xml version="1.0" encoding="UTF-8" standalone="no"?>
<!DOCTYPE svg PUBLIC "-//W3C//DTD SVG 1.1//EN"
 "http://www.w3.org/Graphics/SVG/1.1/DTD/svg11.dtd">
<!-- Generated by graphviz version 2.43.0 (0)
 -->
<!-- Title: irio::TerminalsAuxDigital Pages: 1 -->
<svg width="145pt" height="215pt"
 viewBox="0.00 0.00 145.00 215.00" xmlns="http://www.w3.org/2000/svg" xmlns:xlink="http://www.w3.org/1999/xlink">
<g id="graph0" class="graph" transform="scale(1 1) rotate(0) translate(4 211)">
<title>irio::TerminalsAuxDigital</title>
<!-- Node1 -->
<g id="node1" class="node">
<title>Node1</title>
<g id="a_node1"><a xlink:title="Class managing all terminals related to the auxiliary digital functionality of the RIO device.">
<polygon fill="#bfbfbf" stroke="black" points="0,-0.5 0,-112.5 137,-112.5 137,-0.5 0,-0.5"/>
<text text-anchor="middle" x="68.5" y="-100.5" font-family="Helvetica,sans-Serif" font-size="10.00">irio::TerminalsAuxDigital</text>
<polyline fill="none" stroke="black" points="0,-93.5 137,-93.5 "/>
<text text-anchor="middle" x="68.5" y="-81.5" font-family="Helvetica,sans-Serif" font-size="10.00"> </text>
<polyline fill="none" stroke="black" points="0,-74.5 137,-74.5 "/>
<text text-anchor="start" x="8" y="-62.5" font-family="Helvetica,sans-Serif" font-size="10.00">+ TerminalsAuxDigital()</text>
<text text-anchor="start" x="8" y="-51.5" font-family="Helvetica,sans-Serif" font-size="10.00">+ getAuxDI()</text>
<text text-anchor="start" x="8" y="-40.5" font-family="Helvetica,sans-Serif" font-size="10.00">+ getAuxDO()</text>
<text text-anchor="start" x="8" y="-29.5" font-family="Helvetica,sans-Serif" font-size="10.00">+ getNumAuxDI()</text>
<text text-anchor="start" x="8" y="-18.5" font-family="Helvetica,sans-Serif" font-size="10.00">+ getNumAuxDO()</text>
<text text-anchor="start" x="8" y="-7.5" font-family="Helvetica,sans-Serif" font-size="10.00">+ setAuxDO()</text>
</a>
</g>
</g>
<!-- Node2 -->
<g id="node2" class="node">
<title>Node2</title>
<g id="a_node2"><a xlink:href="classirio_1_1TerminalsBase.html" target="_top" xlink:title="Base class for all terminals.">
<polygon fill="none" stroke="black" points="13.5,-149.5 13.5,-206.5 123.5,-206.5 123.5,-149.5 13.5,-149.5"/>
<text text-anchor="middle" x="68.5" y="-194.5" font-family="Helvetica,sans-Serif" font-size="10.00">irio::TerminalsBase</text>
<polyline fill="none" stroke="black" points="13.5,-187.5 123.5,-187.5 "/>
<text text-anchor="start" x="21.5" y="-175.5" font-family="Helvetica,sans-Serif" font-size="10.00"># m_impl</text>
<polyline fill="none" stroke="black" points="13.5,-168.5 123.5,-168.5 "/>
<text text-anchor="start" x="21.5" y="-156.5" font-family="Helvetica,sans-Serif" font-size="10.00">+ TerminalsBase()</text>
</a>
</g>
</g>
<!-- Node2&#45;&gt;Node1 -->
<g id="edge1" class="edge">
<title>Node2&#45;&gt;Node1</title>
<path fill="none" stroke="midnightblue" d="M68.5,-139.11C68.5,-130.75 68.5,-121.73 68.5,-112.83"/>
<polygon fill="none" stroke="midnightblue" points="65,-139.28 68.5,-149.28 72,-139.28 65,-139.28"/>
</g>
</g>
</svg>
