<?xml version="1.0" encoding="UTF-8" standalone="no"?>
<!DOCTYPE svg PUBLIC "-//W3C//DTD SVG 1.1//EN"
 "http://www.w3.org/Graphics/SVG/1.1/DTD/svg11.dtd">
<!-- Generated by graphviz version 2.43.0 (0)
 -->
<!-- Title: irio::ProfileCPUIMAQFlexRIO Pages: 1 -->
<svg width="250pt" height="298pt"
 viewBox="0.00 0.00 249.50 298.00" xmlns="http://www.w3.org/2000/svg" xmlns:xlink="http://www.w3.org/1999/xlink">
<g id="graph0" class="graph" transform="scale(1 1) rotate(0) translate(4 294)">
<title>irio::ProfileCPUIMAQFlexRIO</title>
<!-- Node1 -->
<g id="node1" class="node">
<title>Node1</title>
<g id="a_node1"><a xlink:title=" ">
<polygon fill="#bfbfbf" stroke="black" points="46,-0.5 46,-57.5 200,-57.5 200,-0.5 46,-0.5"/>
<text text-anchor="middle" x="123" y="-45.5" font-family="Helvetica,sans-Serif" font-size="10.00">irio::ProfileCPUIMAQFlexRIO</text>
<polyline fill="none" stroke="black" points="46,-38.5 200,-38.5 "/>
<text text-anchor="middle" x="123" y="-26.5" font-family="Helvetica,sans-Serif" font-size="10.00"> </text>
<polyline fill="none" stroke="black" points="46,-19.5 200,-19.5 "/>
<text text-anchor="start" x="54" y="-7.5" font-family="Helvetica,sans-Serif" font-size="10.00">+ ProfileCPUIMAQFlexRIO()</text>
</a>
</g>
</g>
<!-- Node2 -->
<g id="node2" class="node">
<title>Node2</title>
<g id="a_node2"><a xlink:href="classirio_1_1ProfileCPUIMAQ.html" target="_top" xlink:title=" ">
<polygon fill="none" stroke="black" points="0,-94.5 0,-151.5 116,-151.5 116,-94.5 0,-94.5"/>
<text text-anchor="middle" x="58" y="-139.5" font-family="Helvetica,sans-Serif" font-size="10.00">irio::ProfileCPUIMAQ</text>
<polyline fill="none" stroke="black" points="0,-132.5 116,-132.5 "/>
<text text-anchor="middle" x="58" y="-120.5" font-family="Helvetica,sans-Serif" font-size="10.00"> </text>
<polyline fill="none" stroke="black" points="0,-113.5 116,-113.5 "/>
<text text-anchor="start" x="8" y="-101.5" font-family="Helvetica,sans-Serif" font-size="10.00">+ ProfileCPUIMAQ()</text>
</a>
</g>
</g>
<!-- Node2&#45;&gt;Node1 -->
<g id="edge1" class="edge">
<title>Node2&#45;&gt;Node1</title>
<path fill="none" stroke="midnightblue" d="M83.47,-85.95C90.14,-76.52 97.21,-66.5 103.51,-57.58"/>
<polygon fill="none" stroke="midnightblue" points="80.41,-84.21 77.5,-94.4 86.13,-88.25 80.41,-84.21"/>
</g>
<!-- Node3 -->
<g id="node3" class="node">
<title>Node3</title>
<g id="a_node3"><a xlink:href="classirio_1_1ProfileBase.html" target="_top" xlink:title="Base profile class.">
<polygon fill="none" stroke="black" points="69.5,-188.5 69.5,-289.5 176.5,-289.5 176.5,-188.5 69.5,-188.5"/>
<text text-anchor="middle" x="123" y="-277.5" font-family="Helvetica,sans-Serif" font-size="10.00">irio::ProfileBase</text>
<polyline fill="none" stroke="black" points="69.5,-270.5 176.5,-270.5 "/>
<text text-anchor="start" x="77.5" y="-258.5" font-family="Helvetica,sans-Serif" font-size="10.00">+ profileID</text>
<text text-anchor="start" x="77.5" y="-247.5" font-family="Helvetica,sans-Serif" font-size="10.00">&#45; m_mapTerminals</text>
<polyline fill="none" stroke="black" points="69.5,-240.5 176.5,-240.5 "/>
<text text-anchor="start" x="77.5" y="-228.5" font-family="Helvetica,sans-Serif" font-size="10.00">+ ProfileBase()</text>
<text text-anchor="start" x="77.5" y="-217.5" font-family="Helvetica,sans-Serif" font-size="10.00">+ ~ProfileBase()</text>
<text text-anchor="start" x="77.5" y="-206.5" font-family="Helvetica,sans-Serif" font-size="10.00">+ getTerminal()</text>
<text text-anchor="start" x="77.5" y="-195.5" font-family="Helvetica,sans-Serif" font-size="10.00"># addTerminal()</text>
</a>
</g>
</g>
<!-- Node3&#45;&gt;Node2 -->
<g id="edge2" class="edge">
<title>Node3&#45;&gt;Node2</title>
<path fill="none" stroke="midnightblue" d="M89.6,-179.42C84.06,-169.71 78.56,-160.05 73.73,-151.59"/>
<polygon fill="none" stroke="midnightblue" points="86.69,-181.38 94.68,-188.33 92.77,-177.91 86.69,-181.38"/>
</g>
<!-- Node4 -->
<g id="node4" class="node">
<title>Node4</title>
<g id="a_node4"><a xlink:href="classirio_1_1ProfileFlexRIO.html" target="_top" xlink:title="Profile with the terminals specific to FlexRIO devices.">
<polygon fill="none" stroke="black" points="134.5,-94.5 134.5,-151.5 241.5,-151.5 241.5,-94.5 134.5,-94.5"/>
<text text-anchor="middle" x="188" y="-139.5" font-family="Helvetica,sans-Serif" font-size="10.00">irio::ProfileFlexRIO</text>
<polyline fill="none" stroke="black" points="134.5,-132.5 241.5,-132.5 "/>
<text text-anchor="middle" x="188" y="-120.5" font-family="Helvetica,sans-Serif" font-size="10.00"> </text>
<polyline fill="none" stroke="black" points="134.5,-113.5 241.5,-113.5 "/>
<text text-anchor="start" x="142.5" y="-101.5" font-family="Helvetica,sans-Serif" font-size="10.00">+ ProfileFlexRIO()</text>
</a>
</g>
</g>
<!-- Node3&#45;&gt;Node4 -->
<g id="edge4" class="edge">
<title>Node3&#45;&gt;Node4</title>
<path fill="none" stroke="midnightblue" d="M156.4,-179.42C161.94,-169.71 167.44,-160.05 172.27,-151.59"/>
<polygon fill="none" stroke="midnightblue" points="153.23,-177.91 151.32,-188.33 159.31,-181.38 153.23,-177.91"/>
</g>
<!-- Node4&#45;&gt;Node1 -->
<g id="edge3" class="edge">
<title>Node4&#45;&gt;Node1</title>
<path fill="none" stroke="midnightblue" d="M162.53,-85.95C155.86,-76.52 148.79,-66.5 142.49,-57.58"/>
<polygon fill="none" stroke="midnightblue" points="159.87,-88.25 168.5,-94.4 165.59,-84.21 159.87,-88.25"/>
</g>
</g>
</svg>
