<?xml version="1.0" encoding="UTF-8" standalone="no"?>
<!DOCTYPE svg PUBLIC "-//W3C//DTD SVG 1.1//EN"
 "http://www.w3.org/Graphics/SVG/1.1/DTD/svg11.dtd">
<!-- Generated by graphviz version 2.43.0 (0)
 -->
<!-- Title: irio::TerminalsBase Pages: 1 -->
<!--zoomable 623 -->
<svg id="main" version="1.1" xmlns="http://www.w3.org/2000/svg" xmlns:xlink="http://www.w3.org/1999/xlink" xml:space="preserve" onload="init(evt)">
<style type="text/css"><![CDATA[
.edge:hover path { stroke: red; }
.edge:hover polygon { stroke: red; fill: red; }
]]></style>
<script type="text/javascript"><![CDATA[
var edges = document.getElementsByTagName('g');
if (edges && edges.length) {
  for (var i=0;i<edges.length;i++) {
    if (edges[i].id.substr(0,4)=='edge') {
      edges[i].setAttribute('class','edge');
    }
  }
}
]]></script>
        <defs>
                <circle id="rim" cx="0" cy="0" r="7"/>
                <circle id="rim2" cx="0" cy="0" r="3.5"/>
                <g id="zoomPlus">
                        <use xlink:href="#rim" fill="#404040">
                                <set attributeName="fill" to="#808080" begin="zoomplus.mouseover" end="zoomplus.mouseout"/>
                        </use>
                        <path d="M-4,0h8M0,-4v8" fill="none" stroke="white" stroke-width="1.5" pointer-events="none"/>
                </g>
                <g id="zoomMin">
                        <use xlink:href="#rim" fill="#404040">
                                <set attributeName="fill" to="#808080" begin="zoomminus.mouseover" end="zoomminus.mouseout"/>
                        </use>
                        <path d="M-4,0h8" fill="none" stroke="white" stroke-width="1.5" pointer-events="none"/>
                </g>
                <g id="dirArrow">
                        <path fill="none" stroke="white" stroke-width="1.5" d="M0,-3.0v7 M-2.5,-0.5L0,-3.0L2.5,-0.5"/>
                </g>
               <g id="resetDef">
                       <use xlink:href="#rim2" fill="#404040">
                               <set attributeName="fill" to="#808080" begin="reset.mouseover" end="reset.mouseout"/>
                       </use>
               </g>
        </defs>

<script type="text/javascript">
var viewWidth = 1653;
var viewHeight = 623;
var sectionId = 'dynsection-0';
</script>
<script xlink:href="svgpan.js"/>
<svg id="graph" class="graph">
<g id="viewport">
<title>irio::TerminalsBase</title>
<!-- Node1 -->
<g id="node1" class="node">
<title>Node1</title>
<g id="a_node1"><a xlink:title="Base class for all terminals.">
<polygon fill="#bfbfbf" stroke="black" points="726.5,-557.5 726.5,-614.5 836.5,-614.5 836.5,-557.5 726.5,-557.5"/>
<text text-anchor="middle" x="781.5" y="-602.5" font-family="Helvetica,sans-Serif" font-size="10.00">irio::TerminalsBase</text>
<polyline fill="none" stroke="black" points="726.5,-595.5 836.5,-595.5 "/>
<text text-anchor="start" x="734.5" y="-583.5" font-family="Helvetica,sans-Serif" font-size="10.00"># m_impl</text>
<polyline fill="none" stroke="black" points="726.5,-576.5 836.5,-576.5 "/>
<text text-anchor="start" x="734.5" y="-564.5" font-family="Helvetica,sans-Serif" font-size="10.00">+ TerminalsBase()</text>
</a>
</g>
</g>
<!-- Node2 -->
<g id="node2" class="node">
<title>Node2</title>
<g id="a_node2"><a xlink:href="classirio_1_1TerminalsAnalog.html" target="_top" xlink:title="Class managing all terminals related to the analog functionality of the RIO device.">
<polygon fill="none" stroke="black" points="0,-309.5 0,-520.5 139,-520.5 139,-309.5 0,-309.5"/>
<text text-anchor="middle" x="69.5" y="-508.5" font-family="Helvetica,sans-Serif" font-size="10.00">irio::TerminalsAnalog</text>
<polyline fill="none" stroke="black" points="0,-501.5 139,-501.5 "/>
<text text-anchor="middle" x="69.5" y="-489.5" font-family="Helvetica,sans-Serif" font-size="10.00"> </text>
<polyline fill="none" stroke="black" points="0,-482.5 139,-482.5 "/>
<text text-anchor="start" x="8" y="-470.5" font-family="Helvetica,sans-Serif" font-size="10.00">+ TerminalsAnalog()</text>
<text text-anchor="start" x="8" y="-459.5" font-family="Helvetica,sans-Serif" font-size="10.00">+ getAI()</text>
<text text-anchor="start" x="8" y="-448.5" font-family="Helvetica,sans-Serif" font-size="10.00">+ getAO()</text>
<text text-anchor="start" x="8" y="-437.5" font-family="Helvetica,sans-Serif" font-size="10.00">+ getAOEnable()</text>
<text text-anchor="start" x="8" y="-426.5" font-family="Helvetica,sans-Serif" font-size="10.00">+ getNumAI()</text>
<text text-anchor="start" x="8" y="-415.5" font-family="Helvetica,sans-Serif" font-size="10.00">+ getNumAO()</text>
<text text-anchor="start" x="8" y="-404.5" font-family="Helvetica,sans-Serif" font-size="10.00">+ setAO()</text>
<text text-anchor="start" x="8" y="-393.5" font-family="Helvetica,sans-Serif" font-size="10.00">+ setAOEnable()</text>
<text text-anchor="start" x="8" y="-382.5" font-family="Helvetica,sans-Serif" font-size="10.00">+ getModuleConnected()</text>
<text text-anchor="start" x="8" y="-371.5" font-family="Helvetica,sans-Serif" font-size="10.00">+ getCVADC()</text>
<text text-anchor="start" x="8" y="-360.5" font-family="Helvetica,sans-Serif" font-size="10.00">+ getCVDAC()</text>
<text text-anchor="start" x="8" y="-349.5" font-family="Helvetica,sans-Serif" font-size="10.00">+ getMaxValAO()</text>
<text text-anchor="start" x="8" y="-338.5" font-family="Helvetica,sans-Serif" font-size="10.00">+ getMinValAO()</text>
<text text-anchor="start" x="8" y="-327.5" font-family="Helvetica,sans-Serif" font-size="10.00">+ getAICouplingMode()</text>
<text text-anchor="start" x="8" y="-316.5" font-family="Helvetica,sans-Serif" font-size="10.00">+ setAICouplingMode()</text>
</a>
</g>
</g>
<!-- Node1&#45;&gt;Node2 -->
<g id="edge1" class="edge">
<title>Node1&#45;&gt;Node2</title>
<path fill="none" stroke="midnightblue" d="M716.13,-584.93C574.51,-583.73 244.37,-575.04 148.5,-521 145.32,-519.21 142.23,-517.23 139.23,-515.1"/>
<polygon fill="none" stroke="midnightblue" points="716.38,-588.43 726.4,-585 716.43,-581.43 716.38,-588.43"/>
</g>
<!-- Node3 -->
<g id="node3" class="node">
<title>Node3</title>
<g id="a_node3"><a xlink:href="classirio_1_1TerminalsAuxAnalog.html" target="_top" xlink:title="Class managing all terminals related to the auxiliary analog functionality of the RIO device.">
<polygon fill="none" stroke="black" points="157.5,-331.5 157.5,-498.5 295.5,-498.5 295.5,-331.5 157.5,-331.5"/>
<text text-anchor="middle" x="226.5" y="-486.5" font-family="Helvetica,sans-Serif" font-size="10.00">irio::TerminalsAuxAnalog</text>
<polyline fill="none" stroke="black" points="157.5,-479.5 295.5,-479.5 "/>
<text text-anchor="middle" x="226.5" y="-467.5" font-family="Helvetica,sans-Serif" font-size="10.00"> </text>
<polyline fill="none" stroke="black" points="157.5,-460.5 295.5,-460.5 "/>
<text text-anchor="start" x="165.5" y="-448.5" font-family="Helvetica,sans-Serif" font-size="10.00">+ TerminalsAuxAnalog()</text>
<text text-anchor="start" x="165.5" y="-437.5" font-family="Helvetica,sans-Serif" font-size="10.00">+ getAuxAI()</text>
<text text-anchor="start" x="165.5" y="-426.5" font-family="Helvetica,sans-Serif" font-size="10.00">+ getAuxAO()</text>
<text text-anchor="start" x="165.5" y="-415.5" font-family="Helvetica,sans-Serif" font-size="10.00">+ getNumAuxAI()</text>
<text text-anchor="start" x="165.5" y="-404.5" font-family="Helvetica,sans-Serif" font-size="10.00">+ getNumAuxAO()</text>
<text text-anchor="start" x="165.5" y="-393.5" font-family="Helvetica,sans-Serif" font-size="10.00">+ setAuxAO()</text>
<text text-anchor="start" x="165.5" y="-382.5" font-family="Helvetica,sans-Serif" font-size="10.00">+ getAuxAI64()</text>
<text text-anchor="start" x="165.5" y="-371.5" font-family="Helvetica,sans-Serif" font-size="10.00">+ getAuxAO64()</text>
<text text-anchor="start" x="165.5" y="-360.5" font-family="Helvetica,sans-Serif" font-size="10.00">+ getNumAuxAI64()</text>
<text text-anchor="start" x="165.5" y="-349.5" font-family="Helvetica,sans-Serif" font-size="10.00">+ getNumAuxAO64()</text>
<text text-anchor="start" x="165.5" y="-338.5" font-family="Helvetica,sans-Serif" font-size="10.00">+ setAuxAO64()</text>
</a>
</g>
</g>
<!-- Node1&#45;&gt;Node3 -->
<g id="edge2" class="edge">
<title>Node1&#45;&gt;Node3</title>
<path fill="none" stroke="midnightblue" d="M716.05,-582.45C602.09,-577.01 372.82,-561.27 304.5,-521 294.43,-515.06 285.25,-507.26 277.01,-498.59"/>
<polygon fill="none" stroke="midnightblue" points="716.23,-585.97 726.38,-582.93 716.55,-578.97 716.23,-585.97"/>
</g>
<!-- Node4 -->
<g id="node4" class="node">
<title>Node4</title>
<g id="a_node4"><a xlink:href="classirio_1_1TerminalsAuxDigital.html" target="_top" xlink:title="Class managing all terminals related to the auxiliary digital functionality of the RIO device.">
<polygon fill="none" stroke="black" points="314,-359 314,-471 451,-471 451,-359 314,-359"/>
<text text-anchor="middle" x="382.5" y="-459" font-family="Helvetica,sans-Serif" font-size="10.00">irio::TerminalsAuxDigital</text>
<polyline fill="none" stroke="black" points="314,-452 451,-452 "/>
<text text-anchor="middle" x="382.5" y="-440" font-family="Helvetica,sans-Serif" font-size="10.00"> </text>
<polyline fill="none" stroke="black" points="314,-433 451,-433 "/>
<text text-anchor="start" x="322" y="-421" font-family="Helvetica,sans-Serif" font-size="10.00">+ TerminalsAuxDigital()</text>
<text text-anchor="start" x="322" y="-410" font-family="Helvetica,sans-Serif" font-size="10.00">+ getAuxDI()</text>
<text text-anchor="start" x="322" y="-399" font-family="Helvetica,sans-Serif" font-size="10.00">+ getAuxDO()</text>
<text text-anchor="start" x="322" y="-388" font-family="Helvetica,sans-Serif" font-size="10.00">+ getNumAuxDI()</text>
<text text-anchor="start" x="322" y="-377" font-family="Helvetica,sans-Serif" font-size="10.00">+ getNumAuxDO()</text>
<text text-anchor="start" x="322" y="-366" font-family="Helvetica,sans-Serif" font-size="10.00">+ setAuxDO()</text>
</a>
</g>
</g>
<!-- Node1&#45;&gt;Node4 -->
<g id="edge3" class="edge">
<title>Node1&#45;&gt;Node4</title>
<path fill="none" stroke="midnightblue" d="M716.03,-585.41C647.35,-582.92 538.71,-570.51 460.5,-521 441.02,-508.67 424.73,-489.61 412.16,-471.1"/>
<polygon fill="none" stroke="midnightblue" points="716.19,-588.91 726.29,-585.71 716.4,-581.92 716.19,-588.91"/>
</g>
<!-- Node5 -->
<g id="node5" class="node">
<title>Node5</title>
<g id="a_node5"><a xlink:href="classirio_1_1TerminalsCommon.html" target="_top" xlink:title="Class managing terminals common to all profiles.">
<polygon fill="none" stroke="black" points="469.5,-315 469.5,-515 609.5,-515 609.5,-315 469.5,-315"/>
<text text-anchor="middle" x="539.5" y="-503" font-family="Helvetica,sans-Serif" font-size="10.00">irio::TerminalsCommon</text>
<polyline fill="none" stroke="black" points="469.5,-496 609.5,-496 "/>
<text text-anchor="middle" x="539.5" y="-484" font-family="Helvetica,sans-Serif" font-size="10.00"> </text>
<polyline fill="none" stroke="black" points="469.5,-477 609.5,-477 "/>
<text text-anchor="start" x="477.5" y="-465" font-family="Helvetica,sans-Serif" font-size="10.00">+ TerminalsCommon()</text>
<text text-anchor="start" x="477.5" y="-454" font-family="Helvetica,sans-Serif" font-size="10.00">+ getFPGAVIversion()</text>
<text text-anchor="start" x="477.5" y="-443" font-family="Helvetica,sans-Serif" font-size="10.00">+ getFref()</text>
<text text-anchor="start" x="477.5" y="-432" font-family="Helvetica,sans-Serif" font-size="10.00">+ getInitDone()</text>
<text text-anchor="start" x="477.5" y="-421" font-family="Helvetica,sans-Serif" font-size="10.00">+ getDevQualityStatus()</text>
<text text-anchor="start" x="477.5" y="-410" font-family="Helvetica,sans-Serif" font-size="10.00">+ getDevTemp()</text>
<text text-anchor="start" x="477.5" y="-399" font-family="Helvetica,sans-Serif" font-size="10.00">+ getDAQStartStop()</text>
<text text-anchor="start" x="477.5" y="-388" font-family="Helvetica,sans-Serif" font-size="10.00">+ getDebugMode()</text>
<text text-anchor="start" x="477.5" y="-377" font-family="Helvetica,sans-Serif" font-size="10.00">+ setDAQStart()</text>
<text text-anchor="start" x="477.5" y="-366" font-family="Helvetica,sans-Serif" font-size="10.00">+ setDAQStop()</text>
<text text-anchor="start" x="477.5" y="-355" font-family="Helvetica,sans-Serif" font-size="10.00">+ setDAQStartStop()</text>
<text text-anchor="start" x="477.5" y="-344" font-family="Helvetica,sans-Serif" font-size="10.00">+ setDebugMode()</text>
<text text-anchor="start" x="477.5" y="-333" font-family="Helvetica,sans-Serif" font-size="10.00">+ getMinSamplingRate()</text>
<text text-anchor="start" x="477.5" y="-322" font-family="Helvetica,sans-Serif" font-size="10.00">+ getMaxSamplingRate()</text>
</a>
</g>
</g>
<!-- Node1&#45;&gt;Node5 -->
<g id="edge4" class="edge">
<title>Node1&#45;&gt;Node5</title>
<path fill="none" stroke="midnightblue" d="M716.66,-568.6C684.94,-558.42 647.45,-543.01 618.5,-521 615.5,-518.72 612.56,-516.3 609.69,-513.77"/>
<polygon fill="none" stroke="midnightblue" points="715.72,-571.97 726.31,-571.59 717.79,-565.29 715.72,-571.97"/>
</g>
<!-- Node6 -->
<g id="node6" class="node">
<title>Node6</title>
<g id="a_node6"><a xlink:href="classirio_1_1TerminalsDMACommon.html" target="_top" xlink:title="Class managing the terminals common to all other terminals that use DMAs in the RIO device.">
<polygon fill="none" stroke="black" points="628,-331.5 628,-498.5 781,-498.5 781,-331.5 628,-331.5"/>
<text text-anchor="middle" x="704.5" y="-486.5" font-family="Helvetica,sans-Serif" font-size="10.00">irio::TerminalsDMACommon</text>
<polyline fill="none" stroke="black" points="628,-479.5 781,-479.5 "/>
<text text-anchor="middle" x="704.5" y="-467.5" font-family="Helvetica,sans-Serif" font-size="10.00"> </text>
<polyline fill="none" stroke="black" points="628,-460.5 781,-460.5 "/>
<text text-anchor="start" x="636" y="-448.5" font-family="Helvetica,sans-Serif" font-size="10.00">+ TerminalsDMACommon()</text>
<text text-anchor="start" x="636" y="-437.5" font-family="Helvetica,sans-Serif" font-size="10.00">+ getNCh()</text>
<text text-anchor="start" x="636" y="-426.5" font-family="Helvetica,sans-Serif" font-size="10.00">+ getDMAOverflow()</text>
<text text-anchor="start" x="636" y="-415.5" font-family="Helvetica,sans-Serif" font-size="10.00">+ getAllDMAOverflows()</text>
<text text-anchor="start" x="636" y="-404.5" font-family="Helvetica,sans-Serif" font-size="10.00">+ getFrameType()</text>
<text text-anchor="start" x="636" y="-393.5" font-family="Helvetica,sans-Serif" font-size="10.00">+ getAllFrameType()</text>
<text text-anchor="start" x="636" y="-382.5" font-family="Helvetica,sans-Serif" font-size="10.00">+ getSampleSize()</text>
<text text-anchor="start" x="636" y="-371.5" font-family="Helvetica,sans-Serif" font-size="10.00">+ getAllSampleSizes()</text>
<text text-anchor="start" x="636" y="-360.5" font-family="Helvetica,sans-Serif" font-size="10.00">+ startDMA()</text>
<text text-anchor="start" x="636" y="-349.5" font-family="Helvetica,sans-Serif" font-size="10.00">+ startAllDMAs()</text>
<text text-anchor="start" x="636" y="-338.5" font-family="Helvetica,sans-Serif" font-size="10.00">and 12 more...</text>
</a>
</g>
</g>
<!-- Node1&#45;&gt;Node6 -->
<g id="edge5" class="edge">
<title>Node1&#45;&gt;Node6</title>
<path fill="none" stroke="midnightblue" d="M764.77,-548.27C758.08,-533.61 750.1,-516.08 742.16,-498.65"/>
<polygon fill="none" stroke="midnightblue" points="761.63,-549.82 768.96,-557.47 768,-546.92 761.63,-549.82"/>
</g>
<!-- Node11 -->
<g id="node11" class="node">
<title>Node11</title>
<g id="a_node11"><a xlink:href="classirio_1_1TerminalsDigital.html" target="_top" xlink:title="Class managing all terminals related to the digital functionality of the RIO device.">
<polygon fill="none" stroke="black" points="799.5,-359 799.5,-471 917.5,-471 917.5,-359 799.5,-359"/>
<text text-anchor="middle" x="858.5" y="-459" font-family="Helvetica,sans-Serif" font-size="10.00">irio::TerminalsDigital</text>
<polyline fill="none" stroke="black" points="799.5,-452 917.5,-452 "/>
<text text-anchor="middle" x="858.5" y="-440" font-family="Helvetica,sans-Serif" font-size="10.00"> </text>
<polyline fill="none" stroke="black" points="799.5,-433 917.5,-433 "/>
<text text-anchor="start" x="807.5" y="-421" font-family="Helvetica,sans-Serif" font-size="10.00">+ TerminalsDigital()</text>
<text text-anchor="start" x="807.5" y="-410" font-family="Helvetica,sans-Serif" font-size="10.00">+ getDI()</text>
<text text-anchor="start" x="807.5" y="-399" font-family="Helvetica,sans-Serif" font-size="10.00">+ getDO()</text>
<text text-anchor="start" x="807.5" y="-388" font-family="Helvetica,sans-Serif" font-size="10.00">+ getNumDI()</text>
<text text-anchor="start" x="807.5" y="-377" font-family="Helvetica,sans-Serif" font-size="10.00">+ getNumDO()</text>
<text text-anchor="start" x="807.5" y="-366" font-family="Helvetica,sans-Serif" font-size="10.00">+ setDO()</text>
</a>
</g>
</g>
<!-- Node1&#45;&gt;Node11 -->
<g id="edge10" class="edge">
<title>Node1&#45;&gt;Node11</title>
<path fill="none" stroke="midnightblue" d="M798.24,-548.26C808.5,-525.74 821.83,-496.47 833.35,-471.2"/>
<polygon fill="none" stroke="midnightblue" points="795,-546.92 794.04,-557.47 801.37,-549.82 795,-546.92"/>
</g>
<!-- Node12 -->
<g id="node12" class="node">
<title>Node12</title>
<g id="a_node12"><a xlink:href="classirio_1_1TerminalsFlexRIO.html" target="_top" xlink:title="Class managing all terminals specific to FlexRIO devices.">
<polygon fill="none" stroke="black" points="935.5,-375.5 935.5,-454.5 1083.5,-454.5 1083.5,-375.5 935.5,-375.5"/>
<text text-anchor="middle" x="1009.5" y="-442.5" font-family="Helvetica,sans-Serif" font-size="10.00">irio::TerminalsFlexRIO</text>
<polyline fill="none" stroke="black" points="935.5,-435.5 1083.5,-435.5 "/>
<text text-anchor="middle" x="1009.5" y="-423.5" font-family="Helvetica,sans-Serif" font-size="10.00"> </text>
<polyline fill="none" stroke="black" points="935.5,-416.5 1083.5,-416.5 "/>
<text text-anchor="start" x="943.5" y="-404.5" font-family="Helvetica,sans-Serif" font-size="10.00">+ TerminalsFlexRIO()</text>
<text text-anchor="start" x="943.5" y="-393.5" font-family="Helvetica,sans-Serif" font-size="10.00">+ getRIOAdapterCorrect()</text>
<text text-anchor="start" x="943.5" y="-382.5" font-family="Helvetica,sans-Serif" font-size="10.00">+ getInsertedIOModuleID()</text>
</a>
</g>
</g>
<!-- Node1&#45;&gt;Node12 -->
<g id="edge11" class="edge">
<title>Node1&#45;&gt;Node12</title>
<path fill="none" stroke="midnightblue" d="M846.17,-564.25C872.68,-553.83 902.66,-539.45 926.5,-521 950.11,-502.72 970.93,-476.34 985.81,-454.59"/>
<polygon fill="none" stroke="midnightblue" points="844.67,-561.07 836.57,-567.9 847.17,-567.61 844.67,-561.07"/>
</g>
<!-- Node13 -->
<g id="node13" class="node">
<title>Node13</title>
<g id="a_node13"><a xlink:href="classirio_1_1TerminalsIO.html" target="_top" xlink:title="Class managing all terminals related to the cRIO IO functionality.">
<polygon fill="none" stroke="black" points="1101.5,-370 1101.5,-460 1277.5,-460 1277.5,-370 1101.5,-370"/>
<text text-anchor="middle" x="1189.5" y="-448" font-family="Helvetica,sans-Serif" font-size="10.00">irio::TerminalsIO</text>
<polyline fill="none" stroke="black" points="1101.5,-441 1277.5,-441 "/>
<text text-anchor="middle" x="1189.5" y="-429" font-family="Helvetica,sans-Serif" font-size="10.00"> </text>
<polyline fill="none" stroke="black" points="1101.5,-422 1277.5,-422 "/>
<text text-anchor="start" x="1109.5" y="-410" font-family="Helvetica,sans-Serif" font-size="10.00">+ TerminalsIO()</text>
<text text-anchor="start" x="1109.5" y="-399" font-family="Helvetica,sans-Serif" font-size="10.00">+ setSamplingRateDecimation()</text>
<text text-anchor="start" x="1109.5" y="-388" font-family="Helvetica,sans-Serif" font-size="10.00">+ getSamplingRateDecimation()</text>
<text text-anchor="start" x="1109.5" y="-377" font-family="Helvetica,sans-Serif" font-size="10.00">+ getNumIOSamplingRate()</text>
</a>
</g>
</g>
<!-- Node1&#45;&gt;Node13 -->
<g id="edge12" class="edge">
<title>Node1&#45;&gt;Node13</title>
<path fill="none" stroke="midnightblue" d="M846.98,-583.08C912.88,-578.6 1015.5,-564.48 1092.5,-521 1118.76,-506.18 1141.94,-481.77 1159.05,-460.22"/>
<polygon fill="none" stroke="midnightblue" points="846.5,-579.6 836.73,-583.72 846.93,-586.59 846.5,-579.6"/>
</g>
<!-- Node14 -->
<g id="node14" class="node">
<title>Node14</title>
<g id="a_node14"><a xlink:href="classirio_1_1TerminalsSignalGeneration.html" target="_top" xlink:title="Class managing all terminals related to the signal generation functionality of the RIO device.">
<polygon fill="none" stroke="black" points="1295.5,-315 1295.5,-515 1473.5,-515 1473.5,-315 1295.5,-315"/>
<text text-anchor="middle" x="1384.5" y="-503" font-family="Helvetica,sans-Serif" font-size="10.00">irio::TerminalsSignalGeneration</text>
<polyline fill="none" stroke="black" points="1295.5,-496 1473.5,-496 "/>
<text text-anchor="middle" x="1384.5" y="-484" font-family="Helvetica,sans-Serif" font-size="10.00"> </text>
<polyline fill="none" stroke="black" points="1295.5,-477 1473.5,-477 "/>
<text text-anchor="start" x="1303.5" y="-465" font-family="Helvetica,sans-Serif" font-size="10.00">+ TerminalsSignalGeneration()</text>
<text text-anchor="start" x="1303.5" y="-454" font-family="Helvetica,sans-Serif" font-size="10.00">+ getSGNo()</text>
<text text-anchor="start" x="1303.5" y="-443" font-family="Helvetica,sans-Serif" font-size="10.00">+ getSGFref()</text>
<text text-anchor="start" x="1303.5" y="-432" font-family="Helvetica,sans-Serif" font-size="10.00">+ getVectorSGFrefs()</text>
<text text-anchor="start" x="1303.5" y="-421" font-family="Helvetica,sans-Serif" font-size="10.00">+ getSGSignalType()</text>
<text text-anchor="start" x="1303.5" y="-410" font-family="Helvetica,sans-Serif" font-size="10.00">+ getSGAmp()</text>
<text text-anchor="start" x="1303.5" y="-399" font-family="Helvetica,sans-Serif" font-size="10.00">+ getSGFreq()</text>
<text text-anchor="start" x="1303.5" y="-388" font-family="Helvetica,sans-Serif" font-size="10.00">+ getSGPhase()</text>
<text text-anchor="start" x="1303.5" y="-377" font-family="Helvetica,sans-Serif" font-size="10.00">+ getSGUpdateRate()</text>
<text text-anchor="start" x="1303.5" y="-366" font-family="Helvetica,sans-Serif" font-size="10.00">+ setSGSignalType()</text>
<text text-anchor="start" x="1303.5" y="-355" font-family="Helvetica,sans-Serif" font-size="10.00">+ setSGAmp()</text>
<text text-anchor="start" x="1303.5" y="-344" font-family="Helvetica,sans-Serif" font-size="10.00">+ setSGFreqDecimation()</text>
<text text-anchor="start" x="1303.5" y="-333" font-family="Helvetica,sans-Serif" font-size="10.00">+ setSGPhase()</text>
<text text-anchor="start" x="1303.5" y="-322" font-family="Helvetica,sans-Serif" font-size="10.00">+ setSGUpdateRateDecimation()</text>
</a>
</g>
</g>
<!-- Node1&#45;&gt;Node14 -->
<g id="edge13" class="edge">
<title>Node1&#45;&gt;Node14</title>
<path fill="none" stroke="midnightblue" d="M846.87,-582.22C965.54,-576.26 1211.11,-559.58 1286.5,-521 1290.05,-519.18 1293.54,-517.18 1296.97,-515.03"/>
<polygon fill="none" stroke="midnightblue" points="846.64,-578.72 836.82,-582.71 846.98,-585.71 846.64,-578.72"/>
</g>
<!-- Node15 -->
<g id="node15" class="node">
<title>Node15</title>
<g id="a_node15"><a xlink:href="classirio_1_1TerminalscRIO.html" target="_top" xlink:title="Class managing all terminals specific to cRIO devices.">
<polygon fill="none" stroke="black" points="1492,-375.5 1492,-454.5 1645,-454.5 1645,-375.5 1492,-375.5"/>
<text text-anchor="middle" x="1568.5" y="-442.5" font-family="Helvetica,sans-Serif" font-size="10.00">irio::TerminalscRIO</text>
<polyline fill="none" stroke="black" points="1492,-435.5 1645,-435.5 "/>
<text text-anchor="middle" x="1568.5" y="-423.5" font-family="Helvetica,sans-Serif" font-size="10.00"> </text>
<polyline fill="none" stroke="black" points="1492,-416.5 1645,-416.5 "/>
<text text-anchor="start" x="1500" y="-404.5" font-family="Helvetica,sans-Serif" font-size="10.00">+ TerminalscRIO()</text>
<text text-anchor="start" x="1500" y="-393.5" font-family="Helvetica,sans-Serif" font-size="10.00">+ getcRIOModulesOk()</text>
<text text-anchor="start" x="1500" y="-382.5" font-family="Helvetica,sans-Serif" font-size="10.00">+ getInsertedIOModulesID()</text>
</a>
</g>
</g>
<!-- Node1&#45;&gt;Node15 -->
<g id="edge14" class="edge">
<title>Node1&#45;&gt;Node15</title>
<path fill="none" stroke="midnightblue" d="M846.84,-585.38C999.2,-585.27 1373.34,-578.91 1482.5,-521 1510.39,-506.2 1532.65,-478.13 1547.53,-454.73"/>
<polygon fill="none" stroke="midnightblue" points="846.7,-581.88 836.7,-585.38 846.7,-588.88 846.7,-581.88"/>
</g>
<!-- Node7 -->
<g id="node7" class="node">
<title>Node7</title>
<g id="a_node7"><a xlink:href="classirio_1_1TerminalsDMADAQ.html" target="_top" xlink:title="Class managing the terminals used for DMA DAQ operations.">
<polygon fill="none" stroke="black" points="526.5,-138.5 526.5,-228.5 702.5,-228.5 702.5,-138.5 526.5,-138.5"/>
<text text-anchor="middle" x="614.5" y="-216.5" font-family="Helvetica,sans-Serif" font-size="10.00">irio::TerminalsDMADAQ</text>
<polyline fill="none" stroke="black" points="526.5,-209.5 702.5,-209.5 "/>
<text text-anchor="middle" x="614.5" y="-197.5" font-family="Helvetica,sans-Serif" font-size="10.00"> </text>
<polyline fill="none" stroke="black" points="526.5,-190.5 702.5,-190.5 "/>
<text text-anchor="start" x="534.5" y="-178.5" font-family="Helvetica,sans-Serif" font-size="10.00">+ TerminalsDMADAQ()</text>
<text text-anchor="start" x="534.5" y="-167.5" font-family="Helvetica,sans-Serif" font-size="10.00">+ getLengthBlock()</text>
<text text-anchor="start" x="534.5" y="-156.5" font-family="Helvetica,sans-Serif" font-size="10.00">+ getSamplingRateDecimation()</text>
<text text-anchor="start" x="534.5" y="-145.5" font-family="Helvetica,sans-Serif" font-size="10.00">+ setSamplingRateDecimation()</text>
</a>
</g>
</g>
<!-- Node6&#45;&gt;Node7 -->
<g id="edge6" class="edge">
<title>Node6&#45;&gt;Node7</title>
<path fill="none" stroke="midnightblue" d="M668.43,-322.02C655.81,-289.85 642.22,-255.19 631.84,-228.71"/>
<polygon fill="none" stroke="midnightblue" points="665.23,-323.44 672.14,-331.47 671.74,-320.88 665.23,-323.44"/>
</g>
<!-- Node9 -->
<g id="node9" class="node">
<title>Node9</title>
<g id="a_node9"><a xlink:href="classirio_1_1TerminalsDMAIMAQ.html" target="_top" xlink:title="Class managing the resources used for IMAQ DAQ operations.">
<polygon fill="none" stroke="black" points="720,-94.5 720,-272.5 869,-272.5 869,-94.5 720,-94.5"/>
<text text-anchor="middle" x="794.5" y="-260.5" font-family="Helvetica,sans-Serif" font-size="10.00">irio::TerminalsDMAIMAQ</text>
<polyline fill="none" stroke="black" points="720,-253.5 869,-253.5 "/>
<text text-anchor="middle" x="794.5" y="-241.5" font-family="Helvetica,sans-Serif" font-size="10.00"> </text>
<polyline fill="none" stroke="black" points="720,-234.5 869,-234.5 "/>
<text text-anchor="start" x="728" y="-222.5" font-family="Helvetica,sans-Serif" font-size="10.00">+ TerminalsDMAIMAQ()</text>
<text text-anchor="start" x="728" y="-211.5" font-family="Helvetica,sans-Serif" font-size="10.00">+ configCameraLink()</text>
<text text-anchor="start" x="728" y="-200.5" font-family="Helvetica,sans-Serif" font-size="10.00">+ readImageNonBlocking()</text>
<text text-anchor="start" x="728" y="-189.5" font-family="Helvetica,sans-Serif" font-size="10.00">+ readImageBlocking()</text>
<text text-anchor="start" x="728" y="-178.5" font-family="Helvetica,sans-Serif" font-size="10.00">+ readImage()</text>
<text text-anchor="start" x="728" y="-167.5" font-family="Helvetica,sans-Serif" font-size="10.00">+ sendUARTMsg()</text>
<text text-anchor="start" x="728" y="-156.5" font-family="Helvetica,sans-Serif" font-size="10.00">+ recvUARTMsg()</text>
<text text-anchor="start" x="728" y="-145.5" font-family="Helvetica,sans-Serif" font-size="10.00">+ setUARTBaudRate()</text>
<text text-anchor="start" x="728" y="-134.5" font-family="Helvetica,sans-Serif" font-size="10.00">+ getUARTBaudRate()</text>
<text text-anchor="start" x="728" y="-123.5" font-family="Helvetica,sans-Serif" font-size="10.00">+ getUARTBreakIndicator()</text>
<text text-anchor="start" x="728" y="-112.5" font-family="Helvetica,sans-Serif" font-size="10.00">+ getUARTFramingError()</text>
<text text-anchor="start" x="728" y="-101.5" font-family="Helvetica,sans-Serif" font-size="10.00">+ getUARTOverrunError()</text>
</a>
</g>
</g>
<!-- Node6&#45;&gt;Node9 -->
<g id="edge8" class="edge">
<title>Node6&#45;&gt;Node9</title>
<path fill="none" stroke="midnightblue" d="M740.57,-322.02C746.92,-305.82 753.52,-288.99 759.84,-272.89"/>
<polygon fill="none" stroke="midnightblue" points="737.26,-320.88 736.86,-331.47 743.77,-323.44 737.26,-320.88"/>
</g>
<!-- Node8 -->
<g id="node8" class="node">
<title>Node8</title>
<g id="a_node8"><a xlink:href="classirio_1_1TerminalsDMADAQCPU.html" target="_top" xlink:title="Class managing the terminals used for DMA CPU DAQ operations.">
<polygon fill="none" stroke="black" points="539,-0.5 539,-57.5 690,-57.5 690,-0.5 539,-0.5"/>
<text text-anchor="middle" x="614.5" y="-45.5" font-family="Helvetica,sans-Serif" font-size="10.00">irio::TerminalsDMADAQCPU</text>
<polyline fill="none" stroke="black" points="539,-38.5 690,-38.5 "/>
<text text-anchor="middle" x="614.5" y="-26.5" font-family="Helvetica,sans-Serif" font-size="10.00"> </text>
<polyline fill="none" stroke="black" points="539,-19.5 690,-19.5 "/>
<text text-anchor="start" x="547" y="-7.5" font-family="Helvetica,sans-Serif" font-size="10.00">+ TerminalsDMADAQCPU()</text>
</a>
</g>
</g>
<!-- Node7&#45;&gt;Node8 -->
<g id="edge7" class="edge">
<title>Node7&#45;&gt;Node8</title>
<path fill="none" stroke="midnightblue" d="M614.5,-128.37C614.5,-104.46 614.5,-77.38 614.5,-57.69"/>
<polygon fill="none" stroke="midnightblue" points="611,-128.39 614.5,-138.39 618,-128.39 611,-128.39"/>
</g>
<!-- Node10 -->
<g id="node10" class="node">
<title>Node10</title>
<g id="a_node10"><a xlink:href="classirio_1_1TerminalsDMAIMAQCPU.html" target="_top" xlink:title="Class managing the resources used for DMA CPU IMAQ operations.">
<polygon fill="none" stroke="black" points="717,-0.5 717,-57.5 872,-57.5 872,-0.5 717,-0.5"/>
<text text-anchor="middle" x="794.5" y="-45.5" font-family="Helvetica,sans-Serif" font-size="10.00">irio::TerminalsDMAIMAQCPU</text>
<polyline fill="none" stroke="black" points="717,-38.5 872,-38.5 "/>
<text text-anchor="middle" x="794.5" y="-26.5" font-family="Helvetica,sans-Serif" font-size="10.00"> </text>
<polyline fill="none" stroke="black" points="717,-19.5 872,-19.5 "/>
<text text-anchor="start" x="725" y="-7.5" font-family="Helvetica,sans-Serif" font-size="10.00">+ TerminalsDMAIMAQCPU()</text>
</a>
</g>
</g>
<!-- Node9&#45;&gt;Node10 -->
<g id="edge9" class="edge">
<title>Node9&#45;&gt;Node10</title>
<path fill="none" stroke="midnightblue" d="M794.5,-84.17C794.5,-74.66 794.5,-65.65 794.5,-57.81"/>
<polygon fill="none" stroke="midnightblue" points="791,-84.23 794.5,-94.23 798,-84.23 791,-84.23"/>
</g>
</g>
</svg>
        <g id="navigator" transform="translate(0 0)" fill="#404254">
                <rect fill="#f2f5e9" fill-opacity="0.5" stroke="#606060" stroke-width=".5" x="0" y="0" width="60" height="60"/>
                <use id="zoomplus" xlink:href="#zoomPlus" x="17" y="9" onmousedown="handleZoom(evt,'in')"/>
                <use id="zoomminus" xlink:href="#zoomMin" x="42" y="9" onmousedown="handleZoom(evt,'out')"/>
                <use id="reset" xlink:href="#resetDef" x="30" y="36" onmousedown="handleReset()"/>
                <g id="arrowUp" xlink:href="#dirArrow" transform="translate(30 24)" onmousedown="handlePan(0,-1)">
                  <use xlink:href="#rim" fill="#404040">
                        <set attributeName="fill" to="#808080" begin="arrowUp.mouseover" end="arrowUp.mouseout"/>
                  </use>
                  <path fill="none" stroke="white" stroke-width="1.5" d="M0,-3.0v7 M-2.5,-0.5L0,-3.0L2.5,-0.5"/>
                </g>
                <g id="arrowRight" xlink:href="#dirArrow" transform="rotate(90) translate(36 -43)" onmousedown="handlePan(1,0)">
                  <use xlink:href="#rim" fill="#404040">
                        <set attributeName="fill" to="#808080" begin="arrowRight.mouseover" end="arrowRight.mouseout"/>
                  </use>
                  <path fill="none" stroke="white" stroke-width="1.5" d="M0,-3.0v7 M-2.5,-0.5L0,-3.0L2.5,-0.5"/>
                </g>
                <g id="arrowDown" xlink:href="#dirArrow" transform="rotate(180) translate(-30 -48)" onmousedown="handlePan(0,1)">
                  <use xlink:href="#rim" fill="#404040">
                        <set attributeName="fill" to="#808080" begin="arrowDown.mouseover" end="arrowDown.mouseout"/>
                  </use>
                  <path fill="none" stroke="white" stroke-width="1.5" d="M0,-3.0v7 M-2.5,-0.5L0,-3.0L2.5,-0.5"/>
                </g>
                <g id="arrowLeft" xlink:href="#dirArrow" transform="rotate(270) translate(-36 17)" onmousedown="handlePan(-1,0)">
                  <use xlink:href="#rim" fill="#404040">
                        <set attributeName="fill" to="#808080" begin="arrowLeft.mouseover" end="arrowLeft.mouseout"/>
                  </use>
                  <path fill="none" stroke="white" stroke-width="1.5" d="M0,-3.0v7 M-2.5,-0.5L0,-3.0L2.5,-0.5"/>
                </g>
        </g>
        <svg viewBox="0 0 15 15" width="100%" height="30px" preserveAspectRatio="xMaxYMin meet">
         <g id="arrow_out" transform="scale(0.3 0.3)">
          <a xlink:href="classirio_1_1TerminalsBase__inherit__graph_org.svg" target="_base">
           <rect id="button" ry="5" rx="5" y="6" x="6" height="38" width="38"
                fill="#f2f5e9" fill-opacity="0.5" stroke="#606060" stroke-width="1.0"/>
           <path id="arrow"
             d="M 11.500037,31.436501 C 11.940474,20.09759 22.043105,11.32322 32.158766,21.979434 L 37.068811,17.246167 C 37.068811,17.246167 37.088388,32 37.088388,32 L 22.160133,31.978069 C 22.160133,31.978069 26.997745,27.140456 26.997745,27.140456 C 18.528582,18.264221 13.291696,25.230495 11.500037,31.436501 z"
             style="fill:#404040;"/>
          </a>
         </g>
        </svg>
</svg>
