<?xml version="1.0" encoding="UTF-8" standalone="no"?>
<!DOCTYPE svg PUBLIC "-//W3C//DTD SVG 1.1//EN"
 "http://www.w3.org/Graphics/SVG/1.1/DTD/svg11.dtd">
<!-- Generated by graphviz version 2.43.0 (0)
 -->
<!-- Title: irio::errors::TerminalNotImplementedError Pages: 1 -->
<svg width="191pt" height="265pt"
 viewBox="0.00 0.00 191.00 265.00" xmlns="http://www.w3.org/2000/svg" xmlns:xlink="http://www.w3.org/1999/xlink">
<g id="graph0" class="graph" transform="scale(1 1) rotate(0) translate(4 261)">
<title>irio::errors::TerminalNotImplementedError</title>
<!-- Node1 -->
<g id="node1" class="node">
<title>Node1</title>
<g id="a_node1"><a xlink:title="Exception when terminal has not been implemented in the profile.">
<polygon fill="#bfbfbf" stroke="black" points="0,-0.5 0,-68.5 183,-68.5 183,-0.5 0,-0.5"/>
<text text-anchor="start" x="8" y="-56.5" font-family="Helvetica,sans-Serif" font-size="10.00">irio::errors::TerminalNot</text>
<text text-anchor="middle" x="91.5" y="-45.5" font-family="Helvetica,sans-Serif" font-size="10.00">ImplementedError</text>
<polyline fill="none" stroke="black" points="0,-38.5 183,-38.5 "/>
<text text-anchor="middle" x="91.5" y="-26.5" font-family="Helvetica,sans-Serif" font-size="10.00"> </text>
<polyline fill="none" stroke="black" points="0,-19.5 183,-19.5 "/>
<text text-anchor="start" x="8" y="-7.5" font-family="Helvetica,sans-Serif" font-size="10.00">+ TerminalNotImplementedError()</text>
</a>
</g>
</g>
<!-- Node2 -->
<g id="node2" class="node">
<title>Node2</title>
<g id="a_node2"><a xlink:href="classirio_1_1errors_1_1IrioError.html" target="_top" xlink:title="Base IRIO error.">
<polygon fill="none" stroke="black" points="35.5,-105.5 35.5,-162.5 147.5,-162.5 147.5,-105.5 35.5,-105.5"/>
<text text-anchor="middle" x="91.5" y="-150.5" font-family="Helvetica,sans-Serif" font-size="10.00">irio::errors::IrioError</text>
<polyline fill="none" stroke="black" points="35.5,-143.5 147.5,-143.5 "/>
<text text-anchor="middle" x="91.5" y="-131.5" font-family="Helvetica,sans-Serif" font-size="10.00"> </text>
<polyline fill="none" stroke="black" points="35.5,-124.5 147.5,-124.5 "/>
<text text-anchor="middle" x="91.5" y="-112.5" font-family="Helvetica,sans-Serif" font-size="10.00"> </text>
</a>
</g>
</g>
<!-- Node2&#45;&gt;Node1 -->
<g id="edge1" class="edge">
<title>Node2&#45;&gt;Node1</title>
<path fill="none" stroke="midnightblue" d="M91.5,-95.06C91.5,-86.39 91.5,-77.24 91.5,-68.79"/>
<polygon fill="none" stroke="midnightblue" points="88,-95.32 91.5,-105.32 95,-95.32 88,-95.32"/>
</g>
<!-- Node3 -->
<g id="node3" class="node">
<title>Node3</title>
<g id="a_node3"><a xlink:title=" ">
<polygon fill="none" stroke="#bfbfbf" points="39.5,-199.5 39.5,-256.5 143.5,-256.5 143.5,-199.5 39.5,-199.5"/>
<text text-anchor="middle" x="91.5" y="-244.5" font-family="Helvetica,sans-Serif" font-size="10.00">std::runtime_error</text>
<polyline fill="none" stroke="#bfbfbf" points="39.5,-237.5 143.5,-237.5 "/>
<text text-anchor="middle" x="91.5" y="-225.5" font-family="Helvetica,sans-Serif" font-size="10.00"> </text>
<polyline fill="none" stroke="#bfbfbf" points="39.5,-218.5 143.5,-218.5 "/>
<text text-anchor="middle" x="91.5" y="-206.5" font-family="Helvetica,sans-Serif" font-size="10.00"> </text>
</a>
</g>
</g>
<!-- Node3&#45;&gt;Node2 -->
<g id="edge2" class="edge">
<title>Node3&#45;&gt;Node2</title>
<path fill="none" stroke="midnightblue" d="M91.5,-189.21C91.5,-180.29 91.5,-170.95 91.5,-162.58"/>
<polygon fill="none" stroke="midnightblue" points="88,-189.4 91.5,-199.4 95,-189.4 88,-189.4"/>
</g>
</g>
</svg>
