<?xml version="1.0" encoding="UTF-8" standalone="no"?>
<!DOCTYPE svg PUBLIC "-//W3C//DTD SVG 1.1//EN"
 "http://www.w3.org/Graphics/SVG/1.1/DTD/svg11.dtd">
<!-- Generated by graphviz version 2.43.0 (0)
 -->
<!-- Title: irio::errors::IrioError Pages: 1 -->
<svg width="2788pt" height="381pt"
 viewBox="0.00 0.00 2787.50 381.00" xmlns="http://www.w3.org/2000/svg" xmlns:xlink="http://www.w3.org/1999/xlink">
<g id="graph0" class="graph" transform="scale(1 1) rotate(0) translate(4 377)">
<title>irio::errors::IrioError</title>
<!-- Node1 -->
<g id="node1" class="node">
<title>Node1</title>
<g id="a_node1"><a xlink:title="Base IRIO error.">
<polygon fill="#bfbfbf" stroke="black" points="1304,-221.5 1304,-278.5 1416,-278.5 1416,-221.5 1304,-221.5"/>
<text text-anchor="middle" x="1360" y="-266.5" font-family="Helvetica,sans-Serif" font-size="10.00">irio::errors::IrioError</text>
<polyline fill="none" stroke="black" points="1304,-259.5 1416,-259.5 "/>
<text text-anchor="middle" x="1360" y="-247.5" font-family="Helvetica,sans-Serif" font-size="10.00"> </text>
<polyline fill="none" stroke="black" points="1304,-240.5 1416,-240.5 "/>
<text text-anchor="middle" x="1360" y="-228.5" font-family="Helvetica,sans-Serif" font-size="10.00"> </text>
</a>
</g>
</g>
<!-- Node3 -->
<g id="node3" class="node">
<title>Node3</title>
<g id="a_node3"><a xlink:href="classirio_1_1errors_1_1BFPParseBitfileError.html" target="_top" xlink:title="Exception when an error occurs while parsing the bitfile.">
<polygon fill="none" stroke="black" points="0,-105.5 0,-184.5 146,-184.5 146,-105.5 0,-105.5"/>
<text text-anchor="start" x="8" y="-172.5" font-family="Helvetica,sans-Serif" font-size="10.00">irio::errors::BFPParseBitfile</text>
<text text-anchor="middle" x="73" y="-161.5" font-family="Helvetica,sans-Serif" font-size="10.00">Error</text>
<polyline fill="none" stroke="black" points="0,-154.5 146,-154.5 "/>
<text text-anchor="middle" x="73" y="-142.5" font-family="Helvetica,sans-Serif" font-size="10.00"> </text>
<polyline fill="none" stroke="black" points="0,-135.5 146,-135.5 "/>
<text text-anchor="start" x="8" y="-123.5" font-family="Helvetica,sans-Serif" font-size="10.00">+ BFPParseBitfileError()</text>
<text text-anchor="start" x="8" y="-112.5" font-family="Helvetica,sans-Serif" font-size="10.00">+ BFPParseBitfileError()</text>
</a>
</g>
</g>
<!-- Node1&#45;&gt;Node3 -->
<g id="edge2" class="edge">
<title>Node1&#45;&gt;Node3</title>
<path fill="none" stroke="midnightblue" d="M1293.86,-248.86C1074.61,-247.88 373.25,-240.38 155,-185 152.1,-184.26 149.17,-183.42 146.25,-182.49"/>
<polygon fill="none" stroke="midnightblue" points="1293.92,-252.36 1303.93,-248.9 1293.95,-245.36 1293.92,-252.36"/>
</g>
<!-- Node4 -->
<g id="node4" class="node">
<title>Node4</title>
<g id="a_node4"><a xlink:href="classirio_1_1errors_1_1CLUARTInvalidBaudRate.html" target="_top" xlink:title="Exception when the baud rate read is not a valid value.">
<polygon fill="none" stroke="black" points="164,-111 164,-179 318,-179 318,-111 164,-111"/>
<text text-anchor="start" x="172" y="-167" font-family="Helvetica,sans-Serif" font-size="10.00">irio::errors::CLUARTInvalid</text>
<text text-anchor="middle" x="241" y="-156" font-family="Helvetica,sans-Serif" font-size="10.00">BaudRate</text>
<polyline fill="none" stroke="black" points="164,-149 318,-149 "/>
<text text-anchor="middle" x="241" y="-137" font-family="Helvetica,sans-Serif" font-size="10.00"> </text>
<polyline fill="none" stroke="black" points="164,-130 318,-130 "/>
<text text-anchor="start" x="172" y="-118" font-family="Helvetica,sans-Serif" font-size="10.00">+ CLUARTInvalidBaudRate()</text>
</a>
</g>
</g>
<!-- Node1&#45;&gt;Node4 -->
<g id="edge3" class="edge">
<title>Node1&#45;&gt;Node4</title>
<path fill="none" stroke="midnightblue" d="M1293.49,-248.02C1095.33,-244.61 511.26,-230.84 327,-185 320.64,-183.42 314.16,-181.38 307.77,-179.06"/>
<polygon fill="none" stroke="midnightblue" points="1293.69,-251.53 1303.75,-248.19 1293.81,-244.53 1293.69,-251.53"/>
</g>
<!-- Node5 -->
<g id="node5" class="node">
<title>Node5</title>
<g id="a_node5"><a xlink:href="classirio_1_1errors_1_1CLUARTTimeout.html" target="_top" xlink:title="Exception when a timeout occurs in a CL UART operation.">
<polygon fill="none" stroke="black" points="336,-116.5 336,-173.5 488,-173.5 488,-116.5 336,-116.5"/>
<text text-anchor="middle" x="412" y="-161.5" font-family="Helvetica,sans-Serif" font-size="10.00">irio::errors::CLUARTTimeout</text>
<polyline fill="none" stroke="black" points="336,-154.5 488,-154.5 "/>
<text text-anchor="middle" x="412" y="-142.5" font-family="Helvetica,sans-Serif" font-size="10.00"> </text>
<polyline fill="none" stroke="black" points="336,-135.5 488,-135.5 "/>
<text text-anchor="start" x="344" y="-123.5" font-family="Helvetica,sans-Serif" font-size="10.00">+ CLUARTTimeout()</text>
</a>
</g>
</g>
<!-- Node1&#45;&gt;Node5 -->
<g id="edge4" class="edge">
<title>Node1&#45;&gt;Node5</title>
<path fill="none" stroke="midnightblue" d="M1293.81,-247.13C1118.9,-241.69 647.58,-223.79 497,-185 486.15,-182.21 474.98,-178.08 464.44,-173.55"/>
<polygon fill="none" stroke="midnightblue" points="1293.8,-250.63 1303.9,-247.44 1294.01,-243.63 1293.8,-250.63"/>
</g>
<!-- Node6 -->
<g id="node6" class="node">
<title>Node6</title>
<g id="a_node6"><a xlink:href="classirio_1_1errors_1_1DMAReadTimeout.html" target="_top" xlink:title="Exception when a timeout expires while trying to read a DMA.">
<polygon fill="none" stroke="black" points="506.5,-116.5 506.5,-173.5 667.5,-173.5 667.5,-116.5 506.5,-116.5"/>
<text text-anchor="middle" x="587" y="-161.5" font-family="Helvetica,sans-Serif" font-size="10.00">irio::errors::DMAReadTimeout</text>
<polyline fill="none" stroke="black" points="506.5,-154.5 667.5,-154.5 "/>
<text text-anchor="middle" x="587" y="-142.5" font-family="Helvetica,sans-Serif" font-size="10.00"> </text>
<polyline fill="none" stroke="black" points="506.5,-135.5 667.5,-135.5 "/>
<text text-anchor="start" x="514.5" y="-123.5" font-family="Helvetica,sans-Serif" font-size="10.00">+ DMAReadTimeout()</text>
</a>
</g>
</g>
<!-- Node1&#45;&gt;Node6 -->
<g id="edge5" class="edge">
<title>Node1&#45;&gt;Node6</title>
<path fill="none" stroke="midnightblue" d="M1293.6,-249.65C1170.14,-249.37 897.76,-241.65 677,-185 665.78,-182.12 654.18,-178.02 643.18,-173.55"/>
<polygon fill="none" stroke="midnightblue" points="1293.65,-253.15 1303.65,-249.66 1293.65,-246.15 1293.65,-253.15"/>
</g>
<!-- Node7 -->
<g id="node7" class="node">
<title>Node7</title>
<g id="a_node7"><a xlink:href="classirio_1_1errors_1_1FPGAVIVersionMismatchError.html" target="_top" xlink:title="Exception when FPGAVIVersion is not the one expected.">
<polygon fill="none" stroke="black" points="686,-105.5 686,-184.5 864,-184.5 864,-105.5 686,-105.5"/>
<text text-anchor="start" x="694" y="-172.5" font-family="Helvetica,sans-Serif" font-size="10.00">irio::errors::FPGAVIVersion</text>
<text text-anchor="middle" x="775" y="-161.5" font-family="Helvetica,sans-Serif" font-size="10.00">MismatchError</text>
<polyline fill="none" stroke="black" points="686,-154.5 864,-154.5 "/>
<text text-anchor="middle" x="775" y="-142.5" font-family="Helvetica,sans-Serif" font-size="10.00"> </text>
<polyline fill="none" stroke="black" points="686,-135.5 864,-135.5 "/>
<text text-anchor="start" x="694" y="-123.5" font-family="Helvetica,sans-Serif" font-size="10.00">+ FPGAVIVersionMismatchError()</text>
<text text-anchor="start" x="694" y="-112.5" font-family="Helvetica,sans-Serif" font-size="10.00">+ FPGAVIVersionMismatchError()</text>
</a>
</g>
</g>
<!-- Node1&#45;&gt;Node7 -->
<g id="edge6" class="edge">
<title>Node1&#45;&gt;Node7</title>
<path fill="none" stroke="midnightblue" d="M1294,-245.52C1199.43,-239.38 1020.5,-223.4 873,-185 870.08,-184.24 867.12,-183.41 864.15,-182.54"/>
<polygon fill="none" stroke="midnightblue" points="1293.8,-249.02 1304,-246.16 1294.24,-242.03 1293.8,-249.02"/>
</g>
<!-- Node8 -->
<g id="node8" class="node">
<title>Node8</title>
<g id="a_node8"><a xlink:href="classirio_1_1errors_1_1InitializationTimeoutError.html" target="_top" xlink:title="Exception when InitDone is not ready within a specified timeout.">
<polygon fill="none" stroke="black" points="882,-111 882,-179 1042,-179 1042,-111 882,-111"/>
<text text-anchor="start" x="890" y="-167" font-family="Helvetica,sans-Serif" font-size="10.00">irio::errors::Initialization</text>
<text text-anchor="middle" x="962" y="-156" font-family="Helvetica,sans-Serif" font-size="10.00">TimeoutError</text>
<polyline fill="none" stroke="black" points="882,-149 1042,-149 "/>
<text text-anchor="middle" x="962" y="-137" font-family="Helvetica,sans-Serif" font-size="10.00"> </text>
<polyline fill="none" stroke="black" points="882,-130 1042,-130 "/>
<text text-anchor="start" x="890" y="-118" font-family="Helvetica,sans-Serif" font-size="10.00">+ InitializationTimeoutError()</text>
</a>
</g>
</g>
<!-- Node1&#45;&gt;Node8 -->
<g id="edge7" class="edge">
<title>Node1&#45;&gt;Node8</title>
<path fill="none" stroke="midnightblue" d="M1293.6,-239.37C1230.32,-229.22 1132.83,-211.09 1051,-185 1045.37,-183.21 1039.62,-181.17 1033.89,-179"/>
<polygon fill="none" stroke="midnightblue" points="1293.42,-242.88 1303.84,-240.99 1294.51,-235.97 1293.42,-242.88"/>
</g>
<!-- Node9 -->
<g id="node9" class="node">
<title>Node9</title>
<g id="a_node9"><a xlink:href="classirio_1_1errors_1_1ModulesNotOKError.html" target="_top" xlink:title="Exception when the modules installed in the platform are not the ones expected or the FPGA inform tha...">
<polygon fill="none" stroke="black" points="1060.5,-111 1060.5,-179 1191.5,-179 1191.5,-111 1060.5,-111"/>
<text text-anchor="start" x="1068.5" y="-167" font-family="Helvetica,sans-Serif" font-size="10.00">irio::errors::ModulesNot</text>
<text text-anchor="middle" x="1126" y="-156" font-family="Helvetica,sans-Serif" font-size="10.00">OKError</text>
<polyline fill="none" stroke="black" points="1060.5,-149 1191.5,-149 "/>
<text text-anchor="middle" x="1126" y="-137" font-family="Helvetica,sans-Serif" font-size="10.00"> </text>
<polyline fill="none" stroke="black" points="1060.5,-130 1191.5,-130 "/>
<text text-anchor="middle" x="1126" y="-118" font-family="Helvetica,sans-Serif" font-size="10.00"> </text>
</a>
</g>
</g>
<!-- Node1&#45;&gt;Node9 -->
<g id="edge8" class="edge">
<title>Node1&#45;&gt;Node9</title>
<path fill="none" stroke="midnightblue" d="M1294.19,-224.46C1265.03,-213.14 1230.5,-199.09 1200,-185 1195.91,-183.11 1191.73,-181.11 1187.54,-179.05"/>
<polygon fill="none" stroke="midnightblue" points="1293.27,-227.86 1303.86,-228.2 1295.79,-221.33 1293.27,-227.86"/>
</g>
<!-- Node10 -->
<g id="node10" class="node">
<title>Node10</title>
<g id="a_node10"><a xlink:href="classirio_1_1errors_1_1NiFpgaError.html" target="_top" xlink:title="Exception when an error returns from a NiFpga_* function.">
<polygon fill="none" stroke="black" points="1209.5,-116.5 1209.5,-173.5 1340.5,-173.5 1340.5,-116.5 1209.5,-116.5"/>
<text text-anchor="middle" x="1275" y="-161.5" font-family="Helvetica,sans-Serif" font-size="10.00">irio::errors::NiFpgaError</text>
<polyline fill="none" stroke="black" points="1209.5,-154.5 1340.5,-154.5 "/>
<text text-anchor="middle" x="1275" y="-142.5" font-family="Helvetica,sans-Serif" font-size="10.00"> </text>
<polyline fill="none" stroke="black" points="1209.5,-135.5 1340.5,-135.5 "/>
<text text-anchor="middle" x="1275" y="-123.5" font-family="Helvetica,sans-Serif" font-size="10.00"> </text>
</a>
</g>
</g>
<!-- Node1&#45;&gt;Node10 -->
<g id="edge9" class="edge">
<title>Node1&#45;&gt;Node10</title>
<path fill="none" stroke="midnightblue" d="M1330.71,-213.51C1319.96,-200.48 1307.95,-185.93 1297.84,-173.68"/>
<polygon fill="none" stroke="midnightblue" points="1328.16,-215.91 1337.22,-221.4 1333.56,-211.46 1328.16,-215.91"/>
</g>
<!-- Node13 -->
<g id="node13" class="node">
<title>Node13</title>
<g id="a_node13"><a xlink:href="classirio_1_1errors_1_1ProfileNotImplementedError.html" target="_top" xlink:title="Exception when a profiel is a valid one, but has not been implemented yet.">
<polygon fill="none" stroke="black" points="1359,-111 1359,-179 1531,-179 1531,-111 1359,-111"/>
<text text-anchor="start" x="1367" y="-167" font-family="Helvetica,sans-Serif" font-size="10.00">irio::errors::ProfileNot</text>
<text text-anchor="middle" x="1445" y="-156" font-family="Helvetica,sans-Serif" font-size="10.00">ImplementedError</text>
<polyline fill="none" stroke="black" points="1359,-149 1531,-149 "/>
<text text-anchor="middle" x="1445" y="-137" font-family="Helvetica,sans-Serif" font-size="10.00"> </text>
<polyline fill="none" stroke="black" points="1359,-130 1531,-130 "/>
<text text-anchor="start" x="1367" y="-118" font-family="Helvetica,sans-Serif" font-size="10.00">+ ProfileNotImplementedError()</text>
</a>
</g>
</g>
<!-- Node1&#45;&gt;Node13 -->
<g id="edge12" class="edge">
<title>Node1&#45;&gt;Node13</title>
<path fill="none" stroke="midnightblue" d="M1389.28,-213.52C1398.46,-202.39 1408.57,-190.15 1417.62,-179.18"/>
<polygon fill="none" stroke="midnightblue" points="1386.44,-211.46 1382.78,-221.4 1391.84,-215.91 1386.44,-211.46"/>
</g>
<!-- Node14 -->
<g id="node14" class="node">
<title>Node14</title>
<g id="a_node14"><a xlink:href="classirio_1_1errors_1_1RIODeviceNotFoundError.html" target="_top" xlink:title="Exception when the specified RIO Device is not found.">
<polygon fill="none" stroke="black" points="1549,-105.5 1549,-184.5 1705,-184.5 1705,-105.5 1549,-105.5"/>
<text text-anchor="start" x="1557" y="-172.5" font-family="Helvetica,sans-Serif" font-size="10.00">irio::errors::RIODeviceNot</text>
<text text-anchor="middle" x="1627" y="-161.5" font-family="Helvetica,sans-Serif" font-size="10.00">FoundError</text>
<polyline fill="none" stroke="black" points="1549,-154.5 1705,-154.5 "/>
<text text-anchor="middle" x="1627" y="-142.5" font-family="Helvetica,sans-Serif" font-size="10.00"> </text>
<polyline fill="none" stroke="black" points="1549,-135.5 1705,-135.5 "/>
<text text-anchor="start" x="1557" y="-123.5" font-family="Helvetica,sans-Serif" font-size="10.00">+ RIODeviceNotFoundError()</text>
<text text-anchor="start" x="1557" y="-112.5" font-family="Helvetica,sans-Serif" font-size="10.00">+ RIODeviceNotFoundError()</text>
</a>
</g>
</g>
<!-- Node1&#45;&gt;Node14 -->
<g id="edge13" class="edge">
<title>Node1&#45;&gt;Node14</title>
<path fill="none" stroke="midnightblue" d="M1426.26,-226.86C1460.47,-215.07 1502.74,-199.95 1540,-185 1542.92,-183.83 1545.88,-182.62 1548.87,-181.38"/>
<polygon fill="none" stroke="midnightblue" points="1424.7,-223.69 1416.38,-230.25 1426.97,-230.31 1424.7,-223.69"/>
</g>
<!-- Node15 -->
<g id="node15" class="node">
<title>Node15</title>
<g id="a_node15"><a xlink:href="classirio_1_1errors_1_1RIODiscoveryError.html" target="_top" xlink:title="Exception when an error occurs while searching for the RIO Device.">
<polygon fill="none" stroke="black" points="1723.5,-111 1723.5,-179 1862.5,-179 1862.5,-111 1723.5,-111"/>
<text text-anchor="start" x="1731.5" y="-167" font-family="Helvetica,sans-Serif" font-size="10.00">irio::errors::RIODiscovery</text>
<text text-anchor="middle" x="1793" y="-156" font-family="Helvetica,sans-Serif" font-size="10.00">Error</text>
<polyline fill="none" stroke="black" points="1723.5,-149 1862.5,-149 "/>
<text text-anchor="middle" x="1793" y="-137" font-family="Helvetica,sans-Serif" font-size="10.00"> </text>
<polyline fill="none" stroke="black" points="1723.5,-130 1862.5,-130 "/>
<text text-anchor="middle" x="1793" y="-118" font-family="Helvetica,sans-Serif" font-size="10.00"> </text>
</a>
</g>
</g>
<!-- Node1&#45;&gt;Node15 -->
<g id="edge14" class="edge">
<title>Node1&#45;&gt;Node15</title>
<path fill="none" stroke="midnightblue" d="M1426.38,-242.61C1498.55,-234.37 1616.63,-217.13 1714,-185 1719.23,-183.27 1724.55,-181.26 1729.83,-179.08"/>
<polygon fill="none" stroke="midnightblue" points="1425.62,-239.17 1416.07,-243.76 1426.4,-246.13 1425.62,-239.17"/>
</g>
<!-- Node16 -->
<g id="node16" class="node">
<title>Node16</title>
<g id="a_node16"><a xlink:href="classirio_1_1errors_1_1ResourceNotFoundError.html" target="_top" xlink:title="Exception when a resource (Register/DMA) is not found.">
<polygon fill="none" stroke="black" points="1881,-105.5 1881,-184.5 2031,-184.5 2031,-105.5 1881,-105.5"/>
<text text-anchor="start" x="1889" y="-172.5" font-family="Helvetica,sans-Serif" font-size="10.00">irio::errors::ResourceNot</text>
<text text-anchor="middle" x="1956" y="-161.5" font-family="Helvetica,sans-Serif" font-size="10.00">FoundError</text>
<polyline fill="none" stroke="black" points="1881,-154.5 2031,-154.5 "/>
<text text-anchor="middle" x="1956" y="-142.5" font-family="Helvetica,sans-Serif" font-size="10.00"> </text>
<polyline fill="none" stroke="black" points="1881,-135.5 2031,-135.5 "/>
<text text-anchor="start" x="1889" y="-123.5" font-family="Helvetica,sans-Serif" font-size="10.00">+ ResourceNotFoundError()</text>
<text text-anchor="start" x="1889" y="-112.5" font-family="Helvetica,sans-Serif" font-size="10.00">+ ResourceNotFoundError()</text>
</a>
</g>
</g>
<!-- Node1&#45;&gt;Node16 -->
<g id="edge15" class="edge">
<title>Node1&#45;&gt;Node16</title>
<path fill="none" stroke="midnightblue" d="M1426.44,-247.12C1525.18,-242.9 1715.69,-229.22 1871,-185 1874.28,-184.07 1877.59,-183.02 1880.91,-181.9"/>
<polygon fill="none" stroke="midnightblue" points="1426.16,-243.63 1416.31,-247.54 1426.45,-250.63 1426.16,-243.63"/>
</g>
<!-- Node17 -->
<g id="node17" class="node">
<title>Node17</title>
<g id="a_node17"><a xlink:href="classirio_1_1errors_1_1TerminalNotImplementedError.html" target="_top" xlink:title="Exception when terminal has not been implemented in the profile.">
<polygon fill="none" stroke="black" points="2049.5,-111 2049.5,-179 2232.5,-179 2232.5,-111 2049.5,-111"/>
<text text-anchor="start" x="2057.5" y="-167" font-family="Helvetica,sans-Serif" font-size="10.00">irio::errors::TerminalNot</text>
<text text-anchor="middle" x="2141" y="-156" font-family="Helvetica,sans-Serif" font-size="10.00">ImplementedError</text>
<polyline fill="none" stroke="black" points="2049.5,-149 2232.5,-149 "/>
<text text-anchor="middle" x="2141" y="-137" font-family="Helvetica,sans-Serif" font-size="10.00"> </text>
<polyline fill="none" stroke="black" points="2049.5,-130 2232.5,-130 "/>
<text text-anchor="start" x="2057.5" y="-118" font-family="Helvetica,sans-Serif" font-size="10.00">+ TerminalNotImplementedError()</text>
</a>
</g>
</g>
<!-- Node1&#45;&gt;Node17 -->
<g id="edge16" class="edge">
<title>Node1&#45;&gt;Node17</title>
<path fill="none" stroke="midnightblue" d="M1426.37,-248.76C1549.16,-246.99 1819.4,-236.93 2040,-185 2047.04,-183.34 2054.25,-181.3 2061.42,-179.03"/>
<polygon fill="none" stroke="midnightblue" points="1426.32,-245.26 1416.37,-248.89 1426.41,-252.26 1426.32,-245.26"/>
</g>
<!-- Node18 -->
<g id="node18" class="node">
<title>Node18</title>
<g id="a_node18"><a xlink:href="classirio_1_1errors_1_1UnsupportedAICouplingForModule.html" target="_top" xlink:title="Exception when trying to set an invalid AI coupling mode for a module.">
<polygon fill="none" stroke="black" points="2251,-105.5 2251,-184.5 2409,-184.5 2409,-105.5 2251,-105.5"/>
<text text-anchor="start" x="2259" y="-172.5" font-family="Helvetica,sans-Serif" font-size="10.00">irio::errors::Unsupported</text>
<text text-anchor="middle" x="2330" y="-161.5" font-family="Helvetica,sans-Serif" font-size="10.00">AICouplingForModule</text>
<polyline fill="none" stroke="black" points="2251,-154.5 2409,-154.5 "/>
<text text-anchor="middle" x="2330" y="-142.5" font-family="Helvetica,sans-Serif" font-size="10.00"> </text>
<polyline fill="none" stroke="black" points="2251,-135.5 2409,-135.5 "/>
<text text-anchor="start" x="2259" y="-123.5" font-family="Helvetica,sans-Serif" font-size="10.00">+ UnsupportedAICouplingFor</text>
<text text-anchor="start" x="2259" y="-112.5" font-family="Helvetica,sans-Serif" font-size="10.00">Module()</text>
</a>
</g>
</g>
<!-- Node1&#45;&gt;Node18 -->
<g id="edge17" class="edge">
<title>Node1&#45;&gt;Node18</title>
<path fill="none" stroke="midnightblue" d="M1426.27,-247.1C1603.72,-241.54 2086.57,-223.24 2241,-185 2244.28,-184.19 2247.58,-183.27 2250.89,-182.26"/>
<polygon fill="none" stroke="midnightblue" points="1425.93,-243.61 1416.04,-247.41 1426.14,-250.6 1425.93,-243.61"/>
</g>
<!-- Node19 -->
<g id="node19" class="node">
<title>Node19</title>
<g id="a_node19"><a xlink:href="classirio_1_1errors_1_1UnsupportedDevProfileError.html" target="_top" xlink:title="Exception when the DevProfile read from the FPGA does not matches any of the supported ones or if the...">
<polygon fill="none" stroke="black" points="2427.5,-105.5 2427.5,-184.5 2598.5,-184.5 2598.5,-105.5 2427.5,-105.5"/>
<text text-anchor="start" x="2435.5" y="-172.5" font-family="Helvetica,sans-Serif" font-size="10.00">irio::errors::Unsupported</text>
<text text-anchor="middle" x="2513" y="-161.5" font-family="Helvetica,sans-Serif" font-size="10.00">DevProfileError</text>
<polyline fill="none" stroke="black" points="2427.5,-154.5 2598.5,-154.5 "/>
<text text-anchor="middle" x="2513" y="-142.5" font-family="Helvetica,sans-Serif" font-size="10.00"> </text>
<polyline fill="none" stroke="black" points="2427.5,-135.5 2598.5,-135.5 "/>
<text text-anchor="start" x="2435.5" y="-123.5" font-family="Helvetica,sans-Serif" font-size="10.00">+ UnsupportedDevProfileError()</text>
<text text-anchor="start" x="2435.5" y="-112.5" font-family="Helvetica,sans-Serif" font-size="10.00">+ UnsupportedDevProfileError()</text>
</a>
</g>
</g>
<!-- Node1&#45;&gt;Node19 -->
<g id="edge18" class="edge">
<title>Node1&#45;&gt;Node19</title>
<path fill="none" stroke="midnightblue" d="M1426.34,-247.83C1627.41,-243.84 2227.91,-228.5 2418,-185 2421.13,-184.28 2424.29,-183.48 2427.45,-182.59"/>
<polygon fill="none" stroke="midnightblue" points="1426.15,-244.33 1416.22,-248.03 1426.28,-251.33 1426.15,-244.33"/>
</g>
<!-- Node20 -->
<g id="node20" class="node">
<title>Node20</title>
<g id="a_node20"><a xlink:href="classirio_1_1errors_1_1UnsupportedPlatformError.html" target="_top" xlink:title="Exception when the platform read from the FPGA does not match any of the supported ones (See platform...">
<polygon fill="none" stroke="black" points="2616.5,-105.5 2616.5,-184.5 2779.5,-184.5 2779.5,-105.5 2616.5,-105.5"/>
<text text-anchor="start" x="2624.5" y="-172.5" font-family="Helvetica,sans-Serif" font-size="10.00">irio::errors::Unsupported</text>
<text text-anchor="middle" x="2698" y="-161.5" font-family="Helvetica,sans-Serif" font-size="10.00">PlatformError</text>
<polyline fill="none" stroke="black" points="2616.5,-154.5 2779.5,-154.5 "/>
<text text-anchor="middle" x="2698" y="-142.5" font-family="Helvetica,sans-Serif" font-size="10.00"> </text>
<polyline fill="none" stroke="black" points="2616.5,-135.5 2779.5,-135.5 "/>
<text text-anchor="start" x="2624.5" y="-123.5" font-family="Helvetica,sans-Serif" font-size="10.00">+ UnsupportedPlatformError()</text>
<text text-anchor="start" x="2624.5" y="-112.5" font-family="Helvetica,sans-Serif" font-size="10.00">+ UnsupportedPlatformError()</text>
</a>
</g>
</g>
<!-- Node1&#45;&gt;Node20 -->
<g id="edge19" class="edge">
<title>Node1&#45;&gt;Node20</title>
<path fill="none" stroke="midnightblue" d="M1426.49,-248.71C1651.1,-247.23 2380.31,-238.33 2608,-185 2610.74,-184.36 2613.49,-183.64 2616.26,-182.85"/>
<polygon fill="none" stroke="midnightblue" points="1426.16,-245.21 1416.18,-248.77 1426.2,-252.21 1426.16,-245.21"/>
</g>
<!-- Node2 -->
<g id="node2" class="node">
<title>Node2</title>
<g id="a_node2"><a xlink:title=" ">
<polygon fill="none" stroke="#bfbfbf" points="1308,-315.5 1308,-372.5 1412,-372.5 1412,-315.5 1308,-315.5"/>
<text text-anchor="middle" x="1360" y="-360.5" font-family="Helvetica,sans-Serif" font-size="10.00">std::runtime_error</text>
<polyline fill="none" stroke="#bfbfbf" points="1308,-353.5 1412,-353.5 "/>
<text text-anchor="middle" x="1360" y="-341.5" font-family="Helvetica,sans-Serif" font-size="10.00"> </text>
<polyline fill="none" stroke="#bfbfbf" points="1308,-334.5 1412,-334.5 "/>
<text text-anchor="middle" x="1360" y="-322.5" font-family="Helvetica,sans-Serif" font-size="10.00"> </text>
</a>
</g>
</g>
<!-- Node2&#45;&gt;Node1 -->
<g id="edge1" class="edge">
<title>Node2&#45;&gt;Node1</title>
<path fill="none" stroke="midnightblue" d="M1360,-305.21C1360,-296.29 1360,-286.95 1360,-278.58"/>
<polygon fill="none" stroke="midnightblue" points="1356.5,-305.4 1360,-315.4 1363.5,-305.4 1356.5,-305.4"/>
</g>
<!-- Node11 -->
<g id="node11" class="node">
<title>Node11</title>
<g id="a_node11"><a xlink:href="classirio_1_1errors_1_1NiFpgaErrorDownloadingBitfile.html" target="_top" xlink:title="Specific error when an error occurs while downloading the bitfile into the FPGA.">
<polygon fill="none" stroke="black" points="1125.5,-0.5 1125.5,-68.5 1256.5,-68.5 1256.5,-0.5 1125.5,-0.5"/>
<text text-anchor="start" x="1133.5" y="-56.5" font-family="Helvetica,sans-Serif" font-size="10.00">irio::errors::NiFpgaError</text>
<text text-anchor="middle" x="1191" y="-45.5" font-family="Helvetica,sans-Serif" font-size="10.00">DownloadingBitfile</text>
<polyline fill="none" stroke="black" points="1125.5,-38.5 1256.5,-38.5 "/>
<text text-anchor="middle" x="1191" y="-26.5" font-family="Helvetica,sans-Serif" font-size="10.00"> </text>
<polyline fill="none" stroke="black" points="1125.5,-19.5 1256.5,-19.5 "/>
<text text-anchor="middle" x="1191" y="-7.5" font-family="Helvetica,sans-Serif" font-size="10.00"> </text>
</a>
</g>
</g>
<!-- Node10&#45;&gt;Node11 -->
<g id="edge10" class="edge">
<title>Node10&#45;&gt;Node11</title>
<path fill="none" stroke="midnightblue" d="M1247.28,-108.19C1237.38,-95.4 1226.27,-81.06 1216.56,-68.52"/>
<polygon fill="none" stroke="midnightblue" points="1244.7,-110.58 1253.59,-116.34 1250.23,-106.29 1244.7,-110.58"/>
</g>
<!-- Node12 -->
<g id="node12" class="node">
<title>Node12</title>
<g id="a_node12"><a xlink:href="classirio_1_1errors_1_1NiFpgaFPGAAlreadyRunning.html" target="_top" xlink:title="Specific error when NiFpga_Run return that the FPGA VI is already running.">
<polygon fill="none" stroke="black" points="1274.5,-0.5 1274.5,-68.5 1445.5,-68.5 1445.5,-0.5 1274.5,-0.5"/>
<text text-anchor="start" x="1282.5" y="-56.5" font-family="Helvetica,sans-Serif" font-size="10.00">irio::errors::NiFpgaFPGAAlready</text>
<text text-anchor="middle" x="1360" y="-45.5" font-family="Helvetica,sans-Serif" font-size="10.00">Running</text>
<polyline fill="none" stroke="black" points="1274.5,-38.5 1445.5,-38.5 "/>
<text text-anchor="middle" x="1360" y="-26.5" font-family="Helvetica,sans-Serif" font-size="10.00"> </text>
<polyline fill="none" stroke="black" points="1274.5,-19.5 1445.5,-19.5 "/>
<text text-anchor="middle" x="1360" y="-7.5" font-family="Helvetica,sans-Serif" font-size="10.00"> </text>
</a>
</g>
</g>
<!-- Node10&#45;&gt;Node12 -->
<g id="edge11" class="edge">
<title>Node10&#45;&gt;Node12</title>
<path fill="none" stroke="midnightblue" d="M1303.05,-108.19C1313.07,-95.4 1324.31,-81.06 1334.13,-68.52"/>
<polygon fill="none" stroke="midnightblue" points="1300.08,-106.31 1296.67,-116.34 1305.59,-110.63 1300.08,-106.31"/>
</g>
</g>
</svg>
