<?xml version="1.0" encoding="UTF-8" standalone="no"?>
<!DOCTYPE svg PUBLIC "-//W3C//DTD SVG 1.1//EN"
 "http://www.w3.org/Graphics/SVG/1.1/DTD/svg11.dtd">
<!-- Generated by graphviz version 2.43.0 (0)
 -->
<!-- Title: irio::TerminalsDMAIMAQ Pages: 1 -->
<svg width="163pt" height="579pt"
 viewBox="0.00 0.00 163.00 579.00" xmlns="http://www.w3.org/2000/svg" xmlns:xlink="http://www.w3.org/1999/xlink">
<g id="graph0" class="graph" transform="scale(1 1) rotate(0) translate(4 575)">
<title>irio::TerminalsDMAIMAQ</title>
<!-- Node1 -->
<g id="node1" class="node">
<title>Node1</title>
<g id="a_node1"><a xlink:title="Class managing the resources used for IMAQ DAQ operations.">
<polygon fill="#bfbfbf" stroke="black" points="3,-94.5 3,-272.5 152,-272.5 152,-94.5 3,-94.5"/>
<text text-anchor="middle" x="77.5" y="-260.5" font-family="Helvetica,sans-Serif" font-size="10.00">irio::TerminalsDMAIMAQ</text>
<polyline fill="none" stroke="black" points="3,-253.5 152,-253.5 "/>
<text text-anchor="middle" x="77.5" y="-241.5" font-family="Helvetica,sans-Serif" font-size="10.00"> </text>
<polyline fill="none" stroke="black" points="3,-234.5 152,-234.5 "/>
<text text-anchor="start" x="11" y="-222.5" font-family="Helvetica,sans-Serif" font-size="10.00">+ TerminalsDMAIMAQ()</text>
<text text-anchor="start" x="11" y="-211.5" font-family="Helvetica,sans-Serif" font-size="10.00">+ configCameraLink()</text>
<text text-anchor="start" x="11" y="-200.5" font-family="Helvetica,sans-Serif" font-size="10.00">+ readImageNonBlocking()</text>
<text text-anchor="start" x="11" y="-189.5" font-family="Helvetica,sans-Serif" font-size="10.00">+ readImageBlocking()</text>
<text text-anchor="start" x="11" y="-178.5" font-family="Helvetica,sans-Serif" font-size="10.00">+ readImage()</text>
<text text-anchor="start" x="11" y="-167.5" font-family="Helvetica,sans-Serif" font-size="10.00">+ sendUARTMsg()</text>
<text text-anchor="start" x="11" y="-156.5" font-family="Helvetica,sans-Serif" font-size="10.00">+ recvUARTMsg()</text>
<text text-anchor="start" x="11" y="-145.5" font-family="Helvetica,sans-Serif" font-size="10.00">+ setUARTBaudRate()</text>
<text text-anchor="start" x="11" y="-134.5" font-family="Helvetica,sans-Serif" font-size="10.00">+ getUARTBaudRate()</text>
<text text-anchor="start" x="11" y="-123.5" font-family="Helvetica,sans-Serif" font-size="10.00">+ getUARTBreakIndicator()</text>
<text text-anchor="start" x="11" y="-112.5" font-family="Helvetica,sans-Serif" font-size="10.00">+ getUARTFramingError()</text>
<text text-anchor="start" x="11" y="-101.5" font-family="Helvetica,sans-Serif" font-size="10.00">+ getUARTOverrunError()</text>
</a>
</g>
</g>
<!-- Node4 -->
<g id="node4" class="node">
<title>Node4</title>
<g id="a_node4"><a xlink:href="classirio_1_1TerminalsDMAIMAQCPU.html" target="_top" xlink:title="Class managing the resources used for DMA CPU IMAQ operations.">
<polygon fill="none" stroke="black" points="0,-0.5 0,-57.5 155,-57.5 155,-0.5 0,-0.5"/>
<text text-anchor="middle" x="77.5" y="-45.5" font-family="Helvetica,sans-Serif" font-size="10.00">irio::TerminalsDMAIMAQCPU</text>
<polyline fill="none" stroke="black" points="0,-38.5 155,-38.5 "/>
<text text-anchor="middle" x="77.5" y="-26.5" font-family="Helvetica,sans-Serif" font-size="10.00"> </text>
<polyline fill="none" stroke="black" points="0,-19.5 155,-19.5 "/>
<text text-anchor="start" x="8" y="-7.5" font-family="Helvetica,sans-Serif" font-size="10.00">+ TerminalsDMAIMAQCPU()</text>
</a>
</g>
</g>
<!-- Node1&#45;&gt;Node4 -->
<g id="edge3" class="edge">
<title>Node1&#45;&gt;Node4</title>
<path fill="none" stroke="midnightblue" d="M77.5,-84.17C77.5,-74.66 77.5,-65.65 77.5,-57.81"/>
<polygon fill="none" stroke="midnightblue" points="74,-84.23 77.5,-94.23 81,-84.23 74,-84.23"/>
</g>
<!-- Node2 -->
<g id="node2" class="node">
<title>Node2</title>
<g id="a_node2"><a xlink:href="classirio_1_1TerminalsDMACommon.html" target="_top" xlink:title="Class managing the terminals common to all other terminals that use DMAs in the RIO device.">
<polygon fill="none" stroke="black" points="1,-309.5 1,-476.5 154,-476.5 154,-309.5 1,-309.5"/>
<text text-anchor="middle" x="77.5" y="-464.5" font-family="Helvetica,sans-Serif" font-size="10.00">irio::TerminalsDMACommon</text>
<polyline fill="none" stroke="black" points="1,-457.5 154,-457.5 "/>
<text text-anchor="middle" x="77.5" y="-445.5" font-family="Helvetica,sans-Serif" font-size="10.00"> </text>
<polyline fill="none" stroke="black" points="1,-438.5 154,-438.5 "/>
<text text-anchor="start" x="9" y="-426.5" font-family="Helvetica,sans-Serif" font-size="10.00">+ TerminalsDMACommon()</text>
<text text-anchor="start" x="9" y="-415.5" font-family="Helvetica,sans-Serif" font-size="10.00">+ getNCh()</text>
<text text-anchor="start" x="9" y="-404.5" font-family="Helvetica,sans-Serif" font-size="10.00">+ getDMAOverflow()</text>
<text text-anchor="start" x="9" y="-393.5" font-family="Helvetica,sans-Serif" font-size="10.00">+ getAllDMAOverflows()</text>
<text text-anchor="start" x="9" y="-382.5" font-family="Helvetica,sans-Serif" font-size="10.00">+ getFrameType()</text>
<text text-anchor="start" x="9" y="-371.5" font-family="Helvetica,sans-Serif" font-size="10.00">+ getAllFrameType()</text>
<text text-anchor="start" x="9" y="-360.5" font-family="Helvetica,sans-Serif" font-size="10.00">+ getSampleSize()</text>
<text text-anchor="start" x="9" y="-349.5" font-family="Helvetica,sans-Serif" font-size="10.00">+ getAllSampleSizes()</text>
<text text-anchor="start" x="9" y="-338.5" font-family="Helvetica,sans-Serif" font-size="10.00">+ startDMA()</text>
<text text-anchor="start" x="9" y="-327.5" font-family="Helvetica,sans-Serif" font-size="10.00">+ startAllDMAs()</text>
<text text-anchor="start" x="9" y="-316.5" font-family="Helvetica,sans-Serif" font-size="10.00">and 12 more...</text>
</a>
</g>
</g>
<!-- Node2&#45;&gt;Node1 -->
<g id="edge1" class="edge">
<title>Node2&#45;&gt;Node1</title>
<path fill="none" stroke="midnightblue" d="M77.5,-299.11C77.5,-290.3 77.5,-281.38 77.5,-272.61"/>
<polygon fill="none" stroke="midnightblue" points="74,-299.39 77.5,-309.39 81,-299.39 74,-299.39"/>
</g>
<!-- Node3 -->
<g id="node3" class="node">
<title>Node3</title>
<g id="a_node3"><a xlink:href="classirio_1_1TerminalsBase.html" target="_top" xlink:title="Base class for all terminals.">
<polygon fill="none" stroke="black" points="22.5,-513.5 22.5,-570.5 132.5,-570.5 132.5,-513.5 22.5,-513.5"/>
<text text-anchor="middle" x="77.5" y="-558.5" font-family="Helvetica,sans-Serif" font-size="10.00">irio::TerminalsBase</text>
<polyline fill="none" stroke="black" points="22.5,-551.5 132.5,-551.5 "/>
<text text-anchor="start" x="30.5" y="-539.5" font-family="Helvetica,sans-Serif" font-size="10.00"># m_impl</text>
<polyline fill="none" stroke="black" points="22.5,-532.5 132.5,-532.5 "/>
<text text-anchor="start" x="30.5" y="-520.5" font-family="Helvetica,sans-Serif" font-size="10.00">+ TerminalsBase()</text>
</a>
</g>
</g>
<!-- Node3&#45;&gt;Node2 -->
<g id="edge2" class="edge">
<title>Node3&#45;&gt;Node2</title>
<path fill="none" stroke="midnightblue" d="M77.5,-503.35C77.5,-495.08 77.5,-486.01 77.5,-476.74"/>
<polygon fill="none" stroke="midnightblue" points="74,-503.35 77.5,-513.35 81,-503.35 74,-503.35"/>
</g>
</g>
</svg>
