<?xml version="1.0" encoding="UTF-8" standalone="no"?>
<!DOCTYPE svg PUBLIC "-//W3C//DTD SVG 1.1//EN"
 "http://www.w3.org/Graphics/SVG/1.1/DTD/svg11.dtd">
<!-- Generated by graphviz version 2.43.0 (0)
 -->
<!-- Title: irio::TerminalsDigital Pages: 1 -->
<svg width="126pt" height="215pt"
 viewBox="0.00 0.00 126.00 215.00" xmlns="http://www.w3.org/2000/svg" xmlns:xlink="http://www.w3.org/1999/xlink">
<g id="graph0" class="graph" transform="scale(1 1) rotate(0) translate(4 211)">
<title>irio::TerminalsDigital</title>
<!-- Node1 -->
<g id="node1" class="node">
<title>Node1</title>
<g id="a_node1"><a xlink:title="Class managing all terminals related to the digital functionality of the RIO device.">
<polygon fill="#bfbfbf" stroke="black" points="0,-0.5 0,-112.5 118,-112.5 118,-0.5 0,-0.5"/>
<text text-anchor="middle" x="59" y="-100.5" font-family="Helvetica,sans-Serif" font-size="10.00">irio::TerminalsDigital</text>
<polyline fill="none" stroke="black" points="0,-93.5 118,-93.5 "/>
<text text-anchor="middle" x="59" y="-81.5" font-family="Helvetica,sans-Serif" font-size="10.00"> </text>
<polyline fill="none" stroke="black" points="0,-74.5 118,-74.5 "/>
<text text-anchor="start" x="8" y="-62.5" font-family="Helvetica,sans-Serif" font-size="10.00">+ TerminalsDigital()</text>
<text text-anchor="start" x="8" y="-51.5" font-family="Helvetica,sans-Serif" font-size="10.00">+ getDI()</text>
<text text-anchor="start" x="8" y="-40.5" font-family="Helvetica,sans-Serif" font-size="10.00">+ getDO()</text>
<text text-anchor="start" x="8" y="-29.5" font-family="Helvetica,sans-Serif" font-size="10.00">+ getNumDI()</text>
<text text-anchor="start" x="8" y="-18.5" font-family="Helvetica,sans-Serif" font-size="10.00">+ getNumDO()</text>
<text text-anchor="start" x="8" y="-7.5" font-family="Helvetica,sans-Serif" font-size="10.00">+ setDO()</text>
</a>
</g>
</g>
<!-- Node2 -->
<g id="node2" class="node">
<title>Node2</title>
<g id="a_node2"><a xlink:href="classirio_1_1TerminalsBase.html" target="_top" xlink:title="Base class for all terminals.">
<polygon fill="none" stroke="black" points="4,-149.5 4,-206.5 114,-206.5 114,-149.5 4,-149.5"/>
<text text-anchor="middle" x="59" y="-194.5" font-family="Helvetica,sans-Serif" font-size="10.00">irio::TerminalsBase</text>
<polyline fill="none" stroke="black" points="4,-187.5 114,-187.5 "/>
<text text-anchor="start" x="12" y="-175.5" font-family="Helvetica,sans-Serif" font-size="10.00"># m_impl</text>
<polyline fill="none" stroke="black" points="4,-168.5 114,-168.5 "/>
<text text-anchor="start" x="12" y="-156.5" font-family="Helvetica,sans-Serif" font-size="10.00">+ TerminalsBase()</text>
</a>
</g>
</g>
<!-- Node2&#45;&gt;Node1 -->
<g id="edge1" class="edge">
<title>Node2&#45;&gt;Node1</title>
<path fill="none" stroke="midnightblue" d="M59,-139.11C59,-130.75 59,-121.73 59,-112.83"/>
<polygon fill="none" stroke="midnightblue" points="55.5,-139.28 59,-149.28 62.5,-139.28 55.5,-139.28"/>
</g>
</g>
</svg>
