<?xml version="1.0" encoding="UTF-8" standalone="no"?>
<!DOCTYPE svg PUBLIC "-//W3C//DTD SVG 1.1//EN"
 "http://www.w3.org/Graphics/SVG/1.1/DTD/svg11.dtd">
<!-- Generated by graphviz version 2.43.0 (0)
 -->
<!-- Title: irio::Module Pages: 1 -->
<!--zoomable 281 -->
<svg id="main" version="1.1" xmlns="http://www.w3.org/2000/svg" xmlns:xlink="http://www.w3.org/1999/xlink" xml:space="preserve" onload="init(evt)">
<style type="text/css"><![CDATA[
.edge:hover path { stroke: red; }
.edge:hover polygon { stroke: red; fill: red; }
]]></style>
<script type="text/javascript"><![CDATA[
var edges = document.getElementsByTagName('g');
if (edges && edges.length) {
  for (var i=0;i<edges.length;i++) {
    if (edges[i].id.substr(0,4)=='edge') {
      edges[i].setAttribute('class','edge');
    }
  }
}
]]></script>
        <defs>
                <circle id="rim" cx="0" cy="0" r="7"/>
                <circle id="rim2" cx="0" cy="0" r="3.5"/>
                <g id="zoomPlus">
                        <use xlink:href="#rim" fill="#404040">
                                <set attributeName="fill" to="#808080" begin="zoomplus.mouseover" end="zoomplus.mouseout"/>
                        </use>
                        <path d="M-4,0h8M0,-4v8" fill="none" stroke="white" stroke-width="1.5" pointer-events="none"/>
                </g>
                <g id="zoomMin">
                        <use xlink:href="#rim" fill="#404040">
                                <set attributeName="fill" to="#808080" begin="zoomminus.mouseover" end="zoomminus.mouseout"/>
                        </use>
                        <path d="M-4,0h8" fill="none" stroke="white" stroke-width="1.5" pointer-events="none"/>
                </g>
                <g id="dirArrow">
                        <path fill="none" stroke="white" stroke-width="1.5" d="M0,-3.0v7 M-2.5,-0.5L0,-3.0L2.5,-0.5"/>
                </g>
               <g id="resetDef">
                       <use xlink:href="#rim2" fill="#404040">
                               <set attributeName="fill" to="#808080" begin="reset.mouseover" end="reset.mouseout"/>
                       </use>
               </g>
        </defs>

<script type="text/javascript">
var viewWidth = 625;
var viewHeight = 281;
var sectionId = 'dynsection-0';
</script>
<script xlink:href="svgpan.js"/>
<svg id="graph" class="graph">
<g id="viewport">
<title>irio::Module</title>
<!-- Node1 -->
<g id="node1" class="node">
<title>Node1</title>
<g id="a_node1"><a xlink:title="Manage conversion information for the ADC/DAC of a module.">
<polygon fill="#bfbfbf" stroke="black" points="248,-105.5 248,-272.5 369,-272.5 369,-105.5 248,-105.5"/>
<text text-anchor="middle" x="308.5" y="-260.5" font-family="Helvetica,sans-Serif" font-size="10.00">irio::Module</text>
<polyline fill="none" stroke="black" points="248,-253.5 369,-253.5 "/>
<text text-anchor="start" x="256" y="-241.5" font-family="Helvetica,sans-Serif" font-size="10.00">+ moduleID</text>
<text text-anchor="start" x="256" y="-230.5" font-family="Helvetica,sans-Serif" font-size="10.00">&#45; m_availableConfigs</text>
<text text-anchor="start" x="256" y="-219.5" font-family="Helvetica,sans-Serif" font-size="10.00">&#45; m_couplingMode</text>
<text text-anchor="start" x="256" y="-208.5" font-family="Helvetica,sans-Serif" font-size="10.00">&#45; m_currentConfig</text>
<polyline fill="none" stroke="black" points="248,-201.5 369,-201.5 "/>
<text text-anchor="start" x="256" y="-189.5" font-family="Helvetica,sans-Serif" font-size="10.00">+ Module()</text>
<text text-anchor="start" x="256" y="-178.5" font-family="Helvetica,sans-Serif" font-size="10.00">+ setCouplingMode()</text>
<text text-anchor="start" x="256" y="-167.5" font-family="Helvetica,sans-Serif" font-size="10.00">+ getCouplingMode()</text>
<text text-anchor="start" x="256" y="-156.5" font-family="Helvetica,sans-Serif" font-size="10.00">+ getCVADC()</text>
<text text-anchor="start" x="256" y="-145.5" font-family="Helvetica,sans-Serif" font-size="10.00">+ getCVDAC()</text>
<text text-anchor="start" x="256" y="-134.5" font-family="Helvetica,sans-Serif" font-size="10.00">+ getMaxValAO()</text>
<text text-anchor="start" x="256" y="-123.5" font-family="Helvetica,sans-Serif" font-size="10.00">+ getMinValAO()</text>
<text text-anchor="start" x="256" y="-112.5" font-family="Helvetica,sans-Serif" font-size="10.00"># addConfig()</text>
</a>
</g>
</g>
<!-- Node2 -->
<g id="node2" class="node">
<title>Node2</title>
<g id="a_node2"><a xlink:href="classirio_1_1ModuleNI5734.html" target="_top" xlink:title="Conversion parameters for FlexRIO Module NI5734.">
<polygon fill="none" stroke="black" points="0,-6 0,-63 109,-63 109,-6 0,-6"/>
<text text-anchor="middle" x="54.5" y="-51" font-family="Helvetica,sans-Serif" font-size="10.00">irio::ModuleNI5734</text>
<polyline fill="none" stroke="black" points="0,-44 109,-44 "/>
<text text-anchor="start" x="8" y="-32" font-family="Helvetica,sans-Serif" font-size="10.00">&#45; m_configNone</text>
<polyline fill="none" stroke="black" points="0,-25 109,-25 "/>
<text text-anchor="start" x="8" y="-13" font-family="Helvetica,sans-Serif" font-size="10.00">+ ModuleNI5734()</text>
</a>
</g>
</g>
<!-- Node1&#45;&gt;Node2 -->
<g id="edge1" class="edge">
<title>Node1&#45;&gt;Node2</title>
<path fill="none" stroke="midnightblue" d="M239.33,-146.47C195.26,-120.01 139.37,-86.46 100.65,-63.21"/>
<polygon fill="none" stroke="midnightblue" points="237.61,-149.52 247.98,-151.67 241.21,-143.52 237.61,-149.52"/>
</g>
<!-- Node3 -->
<g id="node3" class="node">
<title>Node3</title>
<g id="a_node3"><a xlink:href="classirio_1_1ModuleNI5761.html" target="_top" xlink:title="Conversion parameters for FlexRIO Module NI5761.">
<polygon fill="none" stroke="black" points="127,-0.5 127,-68.5 236,-68.5 236,-0.5 127,-0.5"/>
<text text-anchor="middle" x="181.5" y="-56.5" font-family="Helvetica,sans-Serif" font-size="10.00">irio::ModuleNI5761</text>
<polyline fill="none" stroke="black" points="127,-49.5 236,-49.5 "/>
<text text-anchor="start" x="135" y="-37.5" font-family="Helvetica,sans-Serif" font-size="10.00">&#45; m_configAC</text>
<text text-anchor="start" x="135" y="-26.5" font-family="Helvetica,sans-Serif" font-size="10.00">&#45; m_configDC</text>
<polyline fill="none" stroke="black" points="127,-19.5 236,-19.5 "/>
<text text-anchor="start" x="135" y="-7.5" font-family="Helvetica,sans-Serif" font-size="10.00">+ ModuleNI5761()</text>
</a>
</g>
</g>
<!-- Node1&#45;&gt;Node3 -->
<g id="edge2" class="edge">
<title>Node1&#45;&gt;Node3</title>
<path fill="none" stroke="midnightblue" d="M241.31,-107.31C229.99,-93.73 218.83,-80.33 209.27,-68.85"/>
<polygon fill="none" stroke="midnightblue" points="238.89,-109.88 247.98,-115.32 244.27,-105.4 238.89,-109.88"/>
</g>
<!-- Node4 -->
<g id="node4" class="node">
<title>Node4</title>
<g id="a_node4"><a xlink:href="classirio_1_1ModuleNI5781.html" target="_top" xlink:title="Conversion parameters for FlexRIO Module NI5781.">
<polygon fill="none" stroke="black" points="254,-6 254,-63 363,-63 363,-6 254,-6"/>
<text text-anchor="middle" x="308.5" y="-51" font-family="Helvetica,sans-Serif" font-size="10.00">irio::ModuleNI5781</text>
<polyline fill="none" stroke="black" points="254,-44 363,-44 "/>
<text text-anchor="start" x="262" y="-32" font-family="Helvetica,sans-Serif" font-size="10.00">&#45; m_configDC</text>
<polyline fill="none" stroke="black" points="254,-25 363,-25 "/>
<text text-anchor="start" x="262" y="-13" font-family="Helvetica,sans-Serif" font-size="10.00">+ ModuleNI5781()</text>
</a>
</g>
</g>
<!-- Node1&#45;&gt;Node4 -->
<g id="edge3" class="edge">
<title>Node1&#45;&gt;Node4</title>
<path fill="none" stroke="midnightblue" d="M308.5,-94.88C308.5,-83.43 308.5,-72.51 308.5,-63.23"/>
<polygon fill="none" stroke="midnightblue" points="305,-95.06 308.5,-105.06 312,-95.06 305,-95.06"/>
</g>
<!-- Node5 -->
<g id="node5" class="node">
<title>Node5</title>
<g id="a_node5"><a xlink:href="classirio_1_1ModuleNI6581.html" target="_top" xlink:title="Conversion parameters for FlexRIO Module NI6581.">
<polygon fill="none" stroke="black" points="381,-6 381,-63 490,-63 490,-6 381,-6"/>
<text text-anchor="middle" x="435.5" y="-51" font-family="Helvetica,sans-Serif" font-size="10.00">irio::ModuleNI6581</text>
<polyline fill="none" stroke="black" points="381,-44 490,-44 "/>
<text text-anchor="start" x="389" y="-32" font-family="Helvetica,sans-Serif" font-size="10.00">&#45; m_configNone</text>
<polyline fill="none" stroke="black" points="381,-25 490,-25 "/>
<text text-anchor="start" x="389" y="-13" font-family="Helvetica,sans-Serif" font-size="10.00">+ ModuleNI6581()</text>
</a>
</g>
</g>
<!-- Node1&#45;&gt;Node5 -->
<g id="edge4" class="edge">
<title>Node1&#45;&gt;Node5</title>
<path fill="none" stroke="midnightblue" d="M375.55,-107.49C388.83,-91.54 401.9,-75.84 412.44,-63.19"/>
<polygon fill="none" stroke="midnightblue" points="372.73,-105.4 369.02,-115.32 378.11,-109.88 372.73,-105.4"/>
</g>
<!-- Node6 -->
<g id="node6" class="node">
<title>Node6</title>
<g id="a_node6"><a xlink:href="classirio_1_1ModuleNI92xx.html" target="_top" xlink:title="Conversion parameters for cRIO Module 9205/9264.">
<polygon fill="none" stroke="black" points="508,-6 508,-63 617,-63 617,-6 508,-6"/>
<text text-anchor="middle" x="562.5" y="-51" font-family="Helvetica,sans-Serif" font-size="10.00">irio::ModuleNI92xx</text>
<polyline fill="none" stroke="black" points="508,-44 617,-44 "/>
<text text-anchor="start" x="516" y="-32" font-family="Helvetica,sans-Serif" font-size="10.00">&#45; m_configDC</text>
<polyline fill="none" stroke="black" points="508,-25 617,-25 "/>
<text text-anchor="start" x="516" y="-13" font-family="Helvetica,sans-Serif" font-size="10.00">+ ModuleNI92xx()</text>
</a>
</g>
</g>
<!-- Node1&#45;&gt;Node6 -->
<g id="edge5" class="edge">
<title>Node1&#45;&gt;Node6</title>
<path fill="none" stroke="midnightblue" d="M377.67,-146.47C421.74,-120.01 477.63,-86.46 516.35,-63.21"/>
<polygon fill="none" stroke="midnightblue" points="375.79,-143.52 369.02,-151.67 379.39,-149.52 375.79,-143.52"/>
</g>
</g>
</svg>
        <g id="navigator" transform="translate(0 0)" fill="#404254">
                <rect fill="#f2f5e9" fill-opacity="0.5" stroke="#606060" stroke-width=".5" x="0" y="0" width="60" height="60"/>
                <use id="zoomplus" xlink:href="#zoomPlus" x="17" y="9" onmousedown="handleZoom(evt,'in')"/>
                <use id="zoomminus" xlink:href="#zoomMin" x="42" y="9" onmousedown="handleZoom(evt,'out')"/>
                <use id="reset" xlink:href="#resetDef" x="30" y="36" onmousedown="handleReset()"/>
                <g id="arrowUp" xlink:href="#dirArrow" transform="translate(30 24)" onmousedown="handlePan(0,-1)">
                  <use xlink:href="#rim" fill="#404040">
                        <set attributeName="fill" to="#808080" begin="arrowUp.mouseover" end="arrowUp.mouseout"/>
                  </use>
                  <path fill="none" stroke="white" stroke-width="1.5" d="M0,-3.0v7 M-2.5,-0.5L0,-3.0L2.5,-0.5"/>
                </g>
                <g id="arrowRight" xlink:href="#dirArrow" transform="rotate(90) translate(36 -43)" onmousedown="handlePan(1,0)">
                  <use xlink:href="#rim" fill="#404040">
                        <set attributeName="fill" to="#808080" begin="arrowRight.mouseover" end="arrowRight.mouseout"/>
                  </use>
                  <path fill="none" stroke="white" stroke-width="1.5" d="M0,-3.0v7 M-2.5,-0.5L0,-3.0L2.5,-0.5"/>
                </g>
                <g id="arrowDown" xlink:href="#dirArrow" transform="rotate(180) translate(-30 -48)" onmousedown="handlePan(0,1)">
                  <use xlink:href="#rim" fill="#404040">
                        <set attributeName="fill" to="#808080" begin="arrowDown.mouseover" end="arrowDown.mouseout"/>
                  </use>
                  <path fill="none" stroke="white" stroke-width="1.5" d="M0,-3.0v7 M-2.5,-0.5L0,-3.0L2.5,-0.5"/>
                </g>
                <g id="arrowLeft" xlink:href="#dirArrow" transform="rotate(270) translate(-36 17)" onmousedown="handlePan(-1,0)">
                  <use xlink:href="#rim" fill="#404040">
                        <set attributeName="fill" to="#808080" begin="arrowLeft.mouseover" end="arrowLeft.mouseout"/>
                  </use>
                  <path fill="none" stroke="white" stroke-width="1.5" d="M0,-3.0v7 M-2.5,-0.5L0,-3.0L2.5,-0.5"/>
                </g>
        </g>
        <svg viewBox="0 0 15 15" width="100%" height="30px" preserveAspectRatio="xMaxYMin meet">
         <g id="arrow_out" transform="scale(0.3 0.3)">
          <a xlink:href="classirio_1_1Module__inherit__graph_org.svg" target="_base">
           <rect id="button" ry="5" rx="5" y="6" x="6" height="38" width="38"
                fill="#f2f5e9" fill-opacity="0.5" stroke="#606060" stroke-width="1.0"/>
           <path id="arrow"
             d="M 11.500037,31.436501 C 11.940474,20.09759 22.043105,11.32322 32.158766,21.979434 L 37.068811,17.246167 C 37.068811,17.246167 37.088388,32 37.088388,32 L 22.160133,31.978069 C 22.160133,31.978069 26.997745,27.140456 26.997745,27.140456 C 18.528582,18.264221 13.291696,25.230495 11.500037,31.436501 z"
             style="fill:#404040;"/>
          </a>
         </g>
        </svg>
</svg>
