<?xml version="1.0" encoding="UTF-8" standalone="no"?>
<!DOCTYPE svg PUBLIC "-//W3C//DTD SVG 1.1//EN"
 "http://www.w3.org/Graphics/SVG/1.1/DTD/svg11.dtd">
<!-- Generated by graphviz version 2.43.0 (0)
 -->
<!-- Title: irio::errors::ModulesNotOKError Pages: 1 -->
<svg width="139pt" height="265pt"
 viewBox="0.00 0.00 139.00 265.00" xmlns="http://www.w3.org/2000/svg" xmlns:xlink="http://www.w3.org/1999/xlink">
<g id="graph0" class="graph" transform="scale(1 1) rotate(0) translate(4 261)">
<title>irio::errors::ModulesNotOKError</title>
<!-- Node1 -->
<g id="node1" class="node">
<title>Node1</title>
<g id="a_node1"><a xlink:title="Exception when the modules installed in the platform are not the ones expected or the FPGA inform tha...">
<polygon fill="#bfbfbf" stroke="black" points="0,-0.5 0,-68.5 131,-68.5 131,-0.5 0,-0.5"/>
<text text-anchor="start" x="8" y="-56.5" font-family="Helvetica,sans-Serif" font-size="10.00">irio::errors::ModulesNot</text>
<text text-anchor="middle" x="65.5" y="-45.5" font-family="Helvetica,sans-Serif" font-size="10.00">OKError</text>
<polyline fill="none" stroke="black" points="0,-38.5 131,-38.5 "/>
<text text-anchor="middle" x="65.5" y="-26.5" font-family="Helvetica,sans-Serif" font-size="10.00"> </text>
<polyline fill="none" stroke="black" points="0,-19.5 131,-19.5 "/>
<text text-anchor="middle" x="65.5" y="-7.5" font-family="Helvetica,sans-Serif" font-size="10.00"> </text>
</a>
</g>
</g>
<!-- Node2 -->
<g id="node2" class="node">
<title>Node2</title>
<g id="a_node2"><a xlink:href="classirio_1_1errors_1_1IrioError.html" target="_top" xlink:title="Base IRIO error.">
<polygon fill="none" stroke="black" points="9.5,-105.5 9.5,-162.5 121.5,-162.5 121.5,-105.5 9.5,-105.5"/>
<text text-anchor="middle" x="65.5" y="-150.5" font-family="Helvetica,sans-Serif" font-size="10.00">irio::errors::IrioError</text>
<polyline fill="none" stroke="black" points="9.5,-143.5 121.5,-143.5 "/>
<text text-anchor="middle" x="65.5" y="-131.5" font-family="Helvetica,sans-Serif" font-size="10.00"> </text>
<polyline fill="none" stroke="black" points="9.5,-124.5 121.5,-124.5 "/>
<text text-anchor="middle" x="65.5" y="-112.5" font-family="Helvetica,sans-Serif" font-size="10.00"> </text>
</a>
</g>
</g>
<!-- Node2&#45;&gt;Node1 -->
<g id="edge1" class="edge">
<title>Node2&#45;&gt;Node1</title>
<path fill="none" stroke="midnightblue" d="M65.5,-95.06C65.5,-86.39 65.5,-77.24 65.5,-68.79"/>
<polygon fill="none" stroke="midnightblue" points="62,-95.32 65.5,-105.32 69,-95.32 62,-95.32"/>
</g>
<!-- Node3 -->
<g id="node3" class="node">
<title>Node3</title>
<g id="a_node3"><a xlink:title=" ">
<polygon fill="none" stroke="#bfbfbf" points="13.5,-199.5 13.5,-256.5 117.5,-256.5 117.5,-199.5 13.5,-199.5"/>
<text text-anchor="middle" x="65.5" y="-244.5" font-family="Helvetica,sans-Serif" font-size="10.00">std::runtime_error</text>
<polyline fill="none" stroke="#bfbfbf" points="13.5,-237.5 117.5,-237.5 "/>
<text text-anchor="middle" x="65.5" y="-225.5" font-family="Helvetica,sans-Serif" font-size="10.00"> </text>
<polyline fill="none" stroke="#bfbfbf" points="13.5,-218.5 117.5,-218.5 "/>
<text text-anchor="middle" x="65.5" y="-206.5" font-family="Helvetica,sans-Serif" font-size="10.00"> </text>
</a>
</g>
</g>
<!-- Node3&#45;&gt;Node2 -->
<g id="edge2" class="edge">
<title>Node3&#45;&gt;Node2</title>
<path fill="none" stroke="midnightblue" d="M65.5,-189.21C65.5,-180.29 65.5,-170.95 65.5,-162.58"/>
<polygon fill="none" stroke="midnightblue" points="62,-189.4 65.5,-199.4 69,-189.4 62,-189.4"/>
</g>
</g>
</svg>
