<?xml version="1.0" encoding="UTF-8" standalone="no"?>
<!DOCTYPE svg PUBLIC "-//W3C//DTD SVG 1.1//EN"
 "http://www.w3.org/Graphics/SVG/1.1/DTD/svg11.dtd">
<!-- Generated by graphviz version 2.43.0 (0)
 -->
<!-- Title: irio::bfp::Resource Pages: 1 -->
<svg width="252pt" height="336pt"
 viewBox="0.00 0.00 252.00 336.00" xmlns="http://www.w3.org/2000/svg" xmlns:xlink="http://www.w3.org/1999/xlink">
<g id="graph0" class="graph" transform="scale(1 1) rotate(0) translate(4 332)">
<title>irio::bfp::Resource</title>
<!-- Node1 -->
<g id="node1" class="node">
<title>Node1</title>
<g id="a_node1"><a xlink:title="Class holding information about one resource (Register or DMA)">
<polygon fill="#bfbfbf" stroke="black" points="69,-160.5 69,-327.5 174,-327.5 174,-160.5 69,-160.5"/>
<text text-anchor="middle" x="121.5" y="-315.5" font-family="Helvetica,sans-Serif" font-size="10.00">irio::bfp::Resource</text>
<polyline fill="none" stroke="black" points="69,-308.5 174,-308.5 "/>
<text text-anchor="start" x="77" y="-296.5" font-family="Helvetica,sans-Serif" font-size="10.00">&#45; name</text>
<text text-anchor="start" x="77" y="-285.5" font-family="Helvetica,sans-Serif" font-size="10.00">&#45; fpgaType</text>
<text text-anchor="start" x="77" y="-274.5" font-family="Helvetica,sans-Serif" font-size="10.00">&#45; elemType</text>
<text text-anchor="start" x="77" y="-263.5" font-family="Helvetica,sans-Serif" font-size="10.00">&#45; address</text>
<text text-anchor="start" x="77" y="-252.5" font-family="Helvetica,sans-Serif" font-size="10.00">&#45; numElem</text>
<polyline fill="none" stroke="black" points="69,-245.5 174,-245.5 "/>
<text text-anchor="start" x="77" y="-233.5" font-family="Helvetica,sans-Serif" font-size="10.00">+ Resource()</text>
<text text-anchor="start" x="77" y="-222.5" font-family="Helvetica,sans-Serif" font-size="10.00">+ Resource()</text>
<text text-anchor="start" x="77" y="-211.5" font-family="Helvetica,sans-Serif" font-size="10.00">+ getAddress()</text>
<text text-anchor="start" x="77" y="-200.5" font-family="Helvetica,sans-Serif" font-size="10.00">+ getElemType()</text>
<text text-anchor="start" x="77" y="-189.5" font-family="Helvetica,sans-Serif" font-size="10.00">+ getFpgaType()</text>
<text text-anchor="start" x="77" y="-178.5" font-family="Helvetica,sans-Serif" font-size="10.00">+ getName()</text>
<text text-anchor="start" x="77" y="-167.5" font-family="Helvetica,sans-Serif" font-size="10.00">+ getNumElem()</text>
</a>
</g>
</g>
<!-- Node2 -->
<g id="node2" class="node">
<title>Node2</title>
<g id="a_node2"><a xlink:href="classirio_1_1bfp_1_1DMA.html" target="_top" xlink:title="Class holding information about one DMA.">
<polygon fill="none" stroke="black" points="0,-6 0,-118 113,-118 113,-6 0,-6"/>
<text text-anchor="middle" x="56.5" y="-106" font-family="Helvetica,sans-Serif" font-size="10.00">irio::bfp::DMA</text>
<polyline fill="none" stroke="black" points="0,-99 113,-99 "/>
<text text-anchor="start" x="8" y="-87" font-family="Helvetica,sans-Serif" font-size="10.00">&#45; m_isTargetToHost</text>
<polyline fill="none" stroke="black" points="0,-80 113,-80 "/>
<text text-anchor="start" x="8" y="-68" font-family="Helvetica,sans-Serif" font-size="10.00">+ DMA()</text>
<text text-anchor="start" x="8" y="-57" font-family="Helvetica,sans-Serif" font-size="10.00">+ DMA()</text>
<text text-anchor="start" x="8" y="-46" font-family="Helvetica,sans-Serif" font-size="10.00">+ getDMANumber()</text>
<text text-anchor="start" x="8" y="-35" font-family="Helvetica,sans-Serif" font-size="10.00">+ isTargetToHost()</text>
<text text-anchor="start" x="8" y="-24" font-family="Helvetica,sans-Serif" font-size="10.00">+ isHostToTarget()</text>
<text text-anchor="start" x="8" y="-13" font-family="Helvetica,sans-Serif" font-size="10.00">+ processDMA()</text>
</a>
</g>
</g>
<!-- Node1&#45;&gt;Node2 -->
<g id="edge1" class="edge">
<title>Node1&#45;&gt;Node2</title>
<path fill="none" stroke="midnightblue" d="M88.26,-150.95C84.21,-139.73 80.17,-128.55 76.4,-118.11"/>
<polygon fill="none" stroke="midnightblue" points="84.97,-152.16 91.66,-160.38 91.56,-149.78 84.97,-152.16"/>
</g>
<!-- Node3 -->
<g id="node3" class="node">
<title>Node3</title>
<g id="a_node3"><a xlink:href="classirio_1_1bfp_1_1Register.html" target="_top" xlink:title="Class holding information about one Register.">
<polygon fill="none" stroke="black" points="131,-0.5 131,-123.5 244,-123.5 244,-0.5 131,-0.5"/>
<text text-anchor="middle" x="187.5" y="-111.5" font-family="Helvetica,sans-Serif" font-size="10.00">irio::bfp::Register</text>
<polyline fill="none" stroke="black" points="131,-104.5 244,-104.5 "/>
<text text-anchor="start" x="139" y="-92.5" font-family="Helvetica,sans-Serif" font-size="10.00">&#45; m_isControl</text>
<text text-anchor="start" x="139" y="-81.5" font-family="Helvetica,sans-Serif" font-size="10.00">&#45; m_isArray</text>
<polyline fill="none" stroke="black" points="131,-74.5 244,-74.5 "/>
<text text-anchor="start" x="139" y="-62.5" font-family="Helvetica,sans-Serif" font-size="10.00">+ Register()</text>
<text text-anchor="start" x="139" y="-51.5" font-family="Helvetica,sans-Serif" font-size="10.00">+ Register()</text>
<text text-anchor="start" x="139" y="-40.5" font-family="Helvetica,sans-Serif" font-size="10.00">+ isControl()</text>
<text text-anchor="start" x="139" y="-29.5" font-family="Helvetica,sans-Serif" font-size="10.00">+ isIndicator()</text>
<text text-anchor="start" x="139" y="-18.5" font-family="Helvetica,sans-Serif" font-size="10.00">+ isArray()</text>
<text text-anchor="start" x="139" y="-7.5" font-family="Helvetica,sans-Serif" font-size="10.00">+ processRegister()</text>
</a>
</g>
</g>
<!-- Node1&#45;&gt;Node3 -->
<g id="edge2" class="edge">
<title>Node1&#45;&gt;Node3</title>
<path fill="none" stroke="midnightblue" d="M155.32,-150.78C158.69,-141.56 162.06,-132.37 165.28,-123.61"/>
<polygon fill="none" stroke="midnightblue" points="151.95,-149.78 151.8,-160.38 158.52,-152.19 151.95,-149.78"/>
</g>
</g>
</svg>
