<?xml version="1.0" encoding="UTF-8" standalone="no"?>
<!DOCTYPE svg PUBLIC "-//W3C//DTD SVG 1.1//EN"
 "http://www.w3.org/Graphics/SVG/1.1/DTD/svg11.dtd">
<!-- Generated by graphviz version 2.43.0 (0)
 -->
<!-- Title: irio::errors::FPGAVIVersionMismatchError Pages: 1 -->
<svg width="186pt" height="276pt"
 viewBox="0.00 0.00 186.00 276.00" xmlns="http://www.w3.org/2000/svg" xmlns:xlink="http://www.w3.org/1999/xlink">
<g id="graph0" class="graph" transform="scale(1 1) rotate(0) translate(4 272)">
<title>irio::errors::FPGAVIVersionMismatchError</title>
<!-- Node1 -->
<g id="node1" class="node">
<title>Node1</title>
<g id="a_node1"><a xlink:title="Exception when FPGAVIVersion is not the one expected.">
<polygon fill="#bfbfbf" stroke="black" points="0,-0.5 0,-79.5 178,-79.5 178,-0.5 0,-0.5"/>
<text text-anchor="start" x="8" y="-67.5" font-family="Helvetica,sans-Serif" font-size="10.00">irio::errors::FPGAVIVersion</text>
<text text-anchor="middle" x="89" y="-56.5" font-family="Helvetica,sans-Serif" font-size="10.00">MismatchError</text>
<polyline fill="none" stroke="black" points="0,-49.5 178,-49.5 "/>
<text text-anchor="middle" x="89" y="-37.5" font-family="Helvetica,sans-Serif" font-size="10.00"> </text>
<polyline fill="none" stroke="black" points="0,-30.5 178,-30.5 "/>
<text text-anchor="start" x="8" y="-18.5" font-family="Helvetica,sans-Serif" font-size="10.00">+ FPGAVIVersionMismatchError()</text>
<text text-anchor="start" x="8" y="-7.5" font-family="Helvetica,sans-Serif" font-size="10.00">+ FPGAVIVersionMismatchError()</text>
</a>
</g>
</g>
<!-- Node2 -->
<g id="node2" class="node">
<title>Node2</title>
<g id="a_node2"><a xlink:href="classirio_1_1errors_1_1IrioError.html" target="_top" xlink:title="Base IRIO error.">
<polygon fill="none" stroke="black" points="33,-116.5 33,-173.5 145,-173.5 145,-116.5 33,-116.5"/>
<text text-anchor="middle" x="89" y="-161.5" font-family="Helvetica,sans-Serif" font-size="10.00">irio::errors::IrioError</text>
<polyline fill="none" stroke="black" points="33,-154.5 145,-154.5 "/>
<text text-anchor="middle" x="89" y="-142.5" font-family="Helvetica,sans-Serif" font-size="10.00"> </text>
<polyline fill="none" stroke="black" points="33,-135.5 145,-135.5 "/>
<text text-anchor="middle" x="89" y="-123.5" font-family="Helvetica,sans-Serif" font-size="10.00"> </text>
</a>
</g>
</g>
<!-- Node2&#45;&gt;Node1 -->
<g id="edge1" class="edge">
<title>Node2&#45;&gt;Node1</title>
<path fill="none" stroke="midnightblue" d="M89,-106.16C89,-97.47 89,-88.23 89,-79.52"/>
<polygon fill="none" stroke="midnightblue" points="85.5,-106.4 89,-116.4 92.5,-106.4 85.5,-106.4"/>
</g>
<!-- Node3 -->
<g id="node3" class="node">
<title>Node3</title>
<g id="a_node3"><a xlink:title=" ">
<polygon fill="none" stroke="#bfbfbf" points="37,-210.5 37,-267.5 141,-267.5 141,-210.5 37,-210.5"/>
<text text-anchor="middle" x="89" y="-255.5" font-family="Helvetica,sans-Serif" font-size="10.00">std::runtime_error</text>
<polyline fill="none" stroke="#bfbfbf" points="37,-248.5 141,-248.5 "/>
<text text-anchor="middle" x="89" y="-236.5" font-family="Helvetica,sans-Serif" font-size="10.00"> </text>
<polyline fill="none" stroke="#bfbfbf" points="37,-229.5 141,-229.5 "/>
<text text-anchor="middle" x="89" y="-217.5" font-family="Helvetica,sans-Serif" font-size="10.00"> </text>
</a>
</g>
</g>
<!-- Node3&#45;&gt;Node2 -->
<g id="edge2" class="edge">
<title>Node3&#45;&gt;Node2</title>
<path fill="none" stroke="midnightblue" d="M89,-200.21C89,-191.29 89,-181.95 89,-173.58"/>
<polygon fill="none" stroke="midnightblue" points="85.5,-200.4 89,-210.4 92.5,-200.4 85.5,-200.4"/>
</g>
</g>
</svg>
