<?xml version="1.0" encoding="UTF-8" standalone="no"?>
<!DOCTYPE svg PUBLIC "-//W3C//DTD SVG 1.1//EN"
 "http://www.w3.org/Graphics/SVG/1.1/DTD/svg11.dtd">
<!-- Generated by graphviz version 2.43.0 (0)
 -->
<!-- Title: irio::errors::NiFpgaFPGAAlreadyRunning Pages: 1 -->
<svg width="179pt" height="359pt"
 viewBox="0.00 0.00 179.00 359.00" xmlns="http://www.w3.org/2000/svg" xmlns:xlink="http://www.w3.org/1999/xlink">
<g id="graph0" class="graph" transform="scale(1 1) rotate(0) translate(4 355)">
<title>irio::errors::NiFpgaFPGAAlreadyRunning</title>
<!-- Node1 -->
<g id="node1" class="node">
<title>Node1</title>
<g id="a_node1"><a xlink:title="Specific error when NiFpga_Run return that the FPGA VI is already running.">
<polygon fill="#bfbfbf" stroke="black" points="0,-0.5 0,-68.5 171,-68.5 171,-0.5 0,-0.5"/>
<text text-anchor="start" x="8" y="-56.5" font-family="Helvetica,sans-Serif" font-size="10.00">irio::errors::NiFpgaFPGAAlready</text>
<text text-anchor="middle" x="85.5" y="-45.5" font-family="Helvetica,sans-Serif" font-size="10.00">Running</text>
<polyline fill="none" stroke="black" points="0,-38.5 171,-38.5 "/>
<text text-anchor="middle" x="85.5" y="-26.5" font-family="Helvetica,sans-Serif" font-size="10.00"> </text>
<polyline fill="none" stroke="black" points="0,-19.5 171,-19.5 "/>
<text text-anchor="middle" x="85.5" y="-7.5" font-family="Helvetica,sans-Serif" font-size="10.00"> </text>
</a>
</g>
</g>
<!-- Node2 -->
<g id="node2" class="node">
<title>Node2</title>
<g id="a_node2"><a xlink:href="classirio_1_1errors_1_1NiFpgaError.html" target="_top" xlink:title="Exception when an error returns from a NiFpga_* function.">
<polygon fill="none" stroke="black" points="20,-105.5 20,-162.5 151,-162.5 151,-105.5 20,-105.5"/>
<text text-anchor="middle" x="85.5" y="-150.5" font-family="Helvetica,sans-Serif" font-size="10.00">irio::errors::NiFpgaError</text>
<polyline fill="none" stroke="black" points="20,-143.5 151,-143.5 "/>
<text text-anchor="middle" x="85.5" y="-131.5" font-family="Helvetica,sans-Serif" font-size="10.00"> </text>
<polyline fill="none" stroke="black" points="20,-124.5 151,-124.5 "/>
<text text-anchor="middle" x="85.5" y="-112.5" font-family="Helvetica,sans-Serif" font-size="10.00"> </text>
</a>
</g>
</g>
<!-- Node2&#45;&gt;Node1 -->
<g id="edge1" class="edge">
<title>Node2&#45;&gt;Node1</title>
<path fill="none" stroke="midnightblue" d="M85.5,-95.06C85.5,-86.39 85.5,-77.24 85.5,-68.79"/>
<polygon fill="none" stroke="midnightblue" points="82,-95.32 85.5,-105.32 89,-95.32 82,-95.32"/>
</g>
<!-- Node3 -->
<g id="node3" class="node">
<title>Node3</title>
<g id="a_node3"><a xlink:href="classirio_1_1errors_1_1IrioError.html" target="_top" xlink:title="Base IRIO error.">
<polygon fill="none" stroke="black" points="29.5,-199.5 29.5,-256.5 141.5,-256.5 141.5,-199.5 29.5,-199.5"/>
<text text-anchor="middle" x="85.5" y="-244.5" font-family="Helvetica,sans-Serif" font-size="10.00">irio::errors::IrioError</text>
<polyline fill="none" stroke="black" points="29.5,-237.5 141.5,-237.5 "/>
<text text-anchor="middle" x="85.5" y="-225.5" font-family="Helvetica,sans-Serif" font-size="10.00"> </text>
<polyline fill="none" stroke="black" points="29.5,-218.5 141.5,-218.5 "/>
<text text-anchor="middle" x="85.5" y="-206.5" font-family="Helvetica,sans-Serif" font-size="10.00"> </text>
</a>
</g>
</g>
<!-- Node3&#45;&gt;Node2 -->
<g id="edge2" class="edge">
<title>Node3&#45;&gt;Node2</title>
<path fill="none" stroke="midnightblue" d="M85.5,-189.21C85.5,-180.29 85.5,-170.95 85.5,-162.58"/>
<polygon fill="none" stroke="midnightblue" points="82,-189.4 85.5,-199.4 89,-189.4 82,-189.4"/>
</g>
<!-- Node4 -->
<g id="node4" class="node">
<title>Node4</title>
<g id="a_node4"><a xlink:title=" ">
<polygon fill="none" stroke="#bfbfbf" points="33.5,-293.5 33.5,-350.5 137.5,-350.5 137.5,-293.5 33.5,-293.5"/>
<text text-anchor="middle" x="85.5" y="-338.5" font-family="Helvetica,sans-Serif" font-size="10.00">std::runtime_error</text>
<polyline fill="none" stroke="#bfbfbf" points="33.5,-331.5 137.5,-331.5 "/>
<text text-anchor="middle" x="85.5" y="-319.5" font-family="Helvetica,sans-Serif" font-size="10.00"> </text>
<polyline fill="none" stroke="#bfbfbf" points="33.5,-312.5 137.5,-312.5 "/>
<text text-anchor="middle" x="85.5" y="-300.5" font-family="Helvetica,sans-Serif" font-size="10.00"> </text>
</a>
</g>
</g>
<!-- Node4&#45;&gt;Node3 -->
<g id="edge3" class="edge">
<title>Node4&#45;&gt;Node3</title>
<path fill="none" stroke="midnightblue" d="M85.5,-283.21C85.5,-274.29 85.5,-264.95 85.5,-256.58"/>
<polygon fill="none" stroke="midnightblue" points="82,-283.4 85.5,-293.4 89,-283.4 82,-283.4"/>
</g>
</g>
</svg>
