<?xml version="1.0" encoding="UTF-8" standalone="no"?>
<!DOCTYPE svg PUBLIC "-//W3C//DTD SVG 1.1//EN"
 "http://www.w3.org/Graphics/SVG/1.1/DTD/svg11.dtd">
<!-- Generated by graphviz version 2.43.0 (0)
 -->
<!-- Title: irio::ProfileIO Pages: 1 -->
<svg width="115pt" height="287pt"
 viewBox="0.00 0.00 115.00 287.00" xmlns="http://www.w3.org/2000/svg" xmlns:xlink="http://www.w3.org/1999/xlink">
<g id="graph0" class="graph" transform="scale(1 1) rotate(0) translate(4 283)">
<title>irio::ProfileIO</title>
<!-- Node1 -->
<g id="node1" class="node">
<title>Node1</title>
<g id="a_node1"><a xlink:title="Profile with the terminals specific to IO functionality.">
<polygon fill="#bfbfbf" stroke="black" points="13.5,-94.5 13.5,-151.5 93.5,-151.5 93.5,-94.5 13.5,-94.5"/>
<text text-anchor="middle" x="53.5" y="-139.5" font-family="Helvetica,sans-Serif" font-size="10.00">irio::ProfileIO</text>
<polyline fill="none" stroke="black" points="13.5,-132.5 93.5,-132.5 "/>
<text text-anchor="middle" x="53.5" y="-120.5" font-family="Helvetica,sans-Serif" font-size="10.00"> </text>
<polyline fill="none" stroke="black" points="13.5,-113.5 93.5,-113.5 "/>
<text text-anchor="start" x="21.5" y="-101.5" font-family="Helvetica,sans-Serif" font-size="10.00">+ ProfileIO()</text>
</a>
</g>
</g>
<!-- Node3 -->
<g id="node3" class="node">
<title>Node3</title>
<g id="a_node3"><a xlink:href="classirio_1_1ProfileIOcRIO.html" target="_top" xlink:title="Profile with the terminals specific to cRIO IO functionality.">
<polygon fill="none" stroke="black" points="2.5,-0.5 2.5,-57.5 104.5,-57.5 104.5,-0.5 2.5,-0.5"/>
<text text-anchor="middle" x="53.5" y="-45.5" font-family="Helvetica,sans-Serif" font-size="10.00">irio::ProfileIOcRIO</text>
<polyline fill="none" stroke="black" points="2.5,-38.5 104.5,-38.5 "/>
<text text-anchor="middle" x="53.5" y="-26.5" font-family="Helvetica,sans-Serif" font-size="10.00"> </text>
<polyline fill="none" stroke="black" points="2.5,-19.5 104.5,-19.5 "/>
<text text-anchor="start" x="10.5" y="-7.5" font-family="Helvetica,sans-Serif" font-size="10.00">+ ProfileIOcRIO()</text>
</a>
</g>
</g>
<!-- Node1&#45;&gt;Node3 -->
<g id="edge2" class="edge">
<title>Node1&#45;&gt;Node3</title>
<path fill="none" stroke="midnightblue" d="M53.5,-84.21C53.5,-75.29 53.5,-65.95 53.5,-57.58"/>
<polygon fill="none" stroke="midnightblue" points="50,-84.4 53.5,-94.4 57,-84.4 50,-84.4"/>
</g>
<!-- Node2 -->
<g id="node2" class="node">
<title>Node2</title>
<g id="a_node2"><a xlink:href="classirio_1_1ProfileBase.html" target="_top" xlink:title="Base profile class.">
<polygon fill="none" stroke="black" points="0,-188.5 0,-278.5 107,-278.5 107,-188.5 0,-188.5"/>
<text text-anchor="middle" x="53.5" y="-266.5" font-family="Helvetica,sans-Serif" font-size="10.00">irio::ProfileBase</text>
<polyline fill="none" stroke="black" points="0,-259.5 107,-259.5 "/>
<text text-anchor="start" x="8" y="-247.5" font-family="Helvetica,sans-Serif" font-size="10.00">+ profileID</text>
<text text-anchor="start" x="8" y="-236.5" font-family="Helvetica,sans-Serif" font-size="10.00">&#45; m_mapTerminals</text>
<polyline fill="none" stroke="black" points="0,-229.5 107,-229.5 "/>
<text text-anchor="start" x="8" y="-217.5" font-family="Helvetica,sans-Serif" font-size="10.00">+ ProfileBase()</text>
<text text-anchor="start" x="8" y="-206.5" font-family="Helvetica,sans-Serif" font-size="10.00">+ getTerminal()</text>
<text text-anchor="start" x="8" y="-195.5" font-family="Helvetica,sans-Serif" font-size="10.00"># addTerminal()</text>
</a>
</g>
</g>
<!-- Node2&#45;&gt;Node1 -->
<g id="edge1" class="edge">
<title>Node2&#45;&gt;Node1</title>
<path fill="none" stroke="midnightblue" d="M53.5,-178.35C53.5,-169.07 53.5,-159.79 53.5,-151.59"/>
<polygon fill="none" stroke="midnightblue" points="50,-178.37 53.5,-188.37 57,-178.37 50,-178.37"/>
</g>
</g>
</svg>
