<?xml version="1.0" encoding="UTF-8" standalone="no"?>
<!DOCTYPE svg PUBLIC "-//W3C//DTD SVG 1.1//EN"
 "http://www.w3.org/Graphics/SVG/1.1/DTD/svg11.dtd">
<!-- Generated by graphviz version 2.43.0 (0)
 -->
<!-- Title: irio::TerminalsBase Pages: 1 -->
<!--zoomable 623 -->
<svg id="main" version="1.1" xmlns="http://www.w3.org/2000/svg" xmlns:xlink="http://www.w3.org/1999/xlink" xml:space="preserve" onload="init(evt)">
<style type="text/css"><![CDATA[
.edge:hover path { stroke: red; }
.edge:hover polygon { stroke: red; fill: red; }
]]></style>
<script type="text/javascript"><![CDATA[
var edges = document.getElementsByTagName('g');
if (edges && edges.length) {
  for (var i=0;i<edges.length;i++) {
    if (edges[i].id.substr(0,4)=='edge') {
      edges[i].setAttribute('class','edge');
    }
  }
}
]]></script>
        <defs>
                <circle id="rim" cx="0" cy="0" r="7"/>
                <circle id="rim2" cx="0" cy="0" r="3.5"/>
                <g id="zoomPlus">
                        <use xlink:href="#rim" fill="#404040">
                                <set attributeName="fill" to="#808080" begin="zoomplus.mouseover" end="zoomplus.mouseout"/>
                        </use>
                        <path d="M-4,0h8M0,-4v8" fill="none" stroke="white" stroke-width="1.5" pointer-events="none"/>
                </g>
                <g id="zoomMin">
                        <use xlink:href="#rim" fill="#404040">
                                <set attributeName="fill" to="#808080" begin="zoomminus.mouseover" end="zoomminus.mouseout"/>
                        </use>
                        <path d="M-4,0h8" fill="none" stroke="white" stroke-width="1.5" pointer-events="none"/>
                </g>
                <g id="dirArrow">
                        <path fill="none" stroke="white" stroke-width="1.5" d="M0,-3.0v7 M-2.5,-0.5L0,-3.0L2.5,-0.5"/>
                </g>
               <g id="resetDef">
                       <use xlink:href="#rim2" fill="#404040">
                               <set attributeName="fill" to="#808080" begin="reset.mouseover" end="reset.mouseout"/>
                       </use>
               </g>
        </defs>

<script type="text/javascript">
var viewWidth = 1292;
var viewHeight = 623;
var sectionId = 'dynsection-0';
</script>
<script xlink:href="svgpan.js"/>
<svg id="graph" class="graph">
<g id="viewport">
<title>irio::TerminalsBase</title>
<!-- Node1 -->
<g id="node1" class="node">
<title>Node1</title>
<g id="a_node1"><a xlink:title="Base class for all terminals.">
<polygon fill="#bfbfbf" stroke="black" points="567.5,-557.5 567.5,-614.5 677.5,-614.5 677.5,-557.5 567.5,-557.5"/>
<text text-anchor="middle" x="622.5" y="-602.5" font-family="Helvetica,sans-Serif" font-size="10.00">irio::TerminalsBase</text>
<polyline fill="none" stroke="black" points="567.5,-595.5 677.5,-595.5 "/>
<text text-anchor="start" x="575.5" y="-583.5" font-family="Helvetica,sans-Serif" font-size="10.00"># m_impl</text>
<polyline fill="none" stroke="black" points="567.5,-576.5 677.5,-576.5 "/>
<text text-anchor="start" x="575.5" y="-564.5" font-family="Helvetica,sans-Serif" font-size="10.00">+ TerminalsBase()</text>
</a>
</g>
</g>
<!-- Node2 -->
<g id="node2" class="node">
<title>Node2</title>
<g id="a_node2"><a xlink:href="classirio_1_1TerminalsAnalog.html" target="_top" xlink:title="Class managing all terminals related to the analog functionality of the RIO device.">
<polygon fill="none" stroke="black" points="0,-309.5 0,-520.5 139,-520.5 139,-309.5 0,-309.5"/>
<text text-anchor="middle" x="69.5" y="-508.5" font-family="Helvetica,sans-Serif" font-size="10.00">irio::TerminalsAnalog</text>
<polyline fill="none" stroke="black" points="0,-501.5 139,-501.5 "/>
<text text-anchor="middle" x="69.5" y="-489.5" font-family="Helvetica,sans-Serif" font-size="10.00"> </text>
<polyline fill="none" stroke="black" points="0,-482.5 139,-482.5 "/>
<text text-anchor="start" x="8" y="-470.5" font-family="Helvetica,sans-Serif" font-size="10.00">+ TerminalsAnalog()</text>
<text text-anchor="start" x="8" y="-459.5" font-family="Helvetica,sans-Serif" font-size="10.00">+ getAI()</text>
<text text-anchor="start" x="8" y="-448.5" font-family="Helvetica,sans-Serif" font-size="10.00">+ getAO()</text>
<text text-anchor="start" x="8" y="-437.5" font-family="Helvetica,sans-Serif" font-size="10.00">+ getAOEnable()</text>
<text text-anchor="start" x="8" y="-426.5" font-family="Helvetica,sans-Serif" font-size="10.00">+ getNumAI()</text>
<text text-anchor="start" x="8" y="-415.5" font-family="Helvetica,sans-Serif" font-size="10.00">+ getNumAO()</text>
<text text-anchor="start" x="8" y="-404.5" font-family="Helvetica,sans-Serif" font-size="10.00">+ setAO()</text>
<text text-anchor="start" x="8" y="-393.5" font-family="Helvetica,sans-Serif" font-size="10.00">+ setAOEnable()</text>
<text text-anchor="start" x="8" y="-382.5" font-family="Helvetica,sans-Serif" font-size="10.00">+ getModuleConnected()</text>
<text text-anchor="start" x="8" y="-371.5" font-family="Helvetica,sans-Serif" font-size="10.00">+ getCVADC()</text>
<text text-anchor="start" x="8" y="-360.5" font-family="Helvetica,sans-Serif" font-size="10.00">+ getCVDAC()</text>
<text text-anchor="start" x="8" y="-349.5" font-family="Helvetica,sans-Serif" font-size="10.00">+ getMaxValAO()</text>
<text text-anchor="start" x="8" y="-338.5" font-family="Helvetica,sans-Serif" font-size="10.00">+ getMinValAO()</text>
<text text-anchor="start" x="8" y="-327.5" font-family="Helvetica,sans-Serif" font-size="10.00">+ getAICouplingMode()</text>
<text text-anchor="start" x="8" y="-316.5" font-family="Helvetica,sans-Serif" font-size="10.00">+ setAICouplingMode()</text>
</a>
</g>
</g>
<!-- Node1&#45;&gt;Node2 -->
<g id="edge1" class="edge">
<title>Node1&#45;&gt;Node2</title>
<path fill="none" stroke="midnightblue" d="M557.05,-582.35C443.69,-576.75 216.41,-560.79 148.5,-521 145.25,-519.1 142.1,-517 139.03,-514.75"/>
<polygon fill="none" stroke="midnightblue" points="557.17,-585.86 567.33,-582.84 557.51,-578.86 557.17,-585.86"/>
</g>
<!-- Node3 -->
<g id="node3" class="node">
<title>Node3</title>
<g id="a_node3"><a xlink:href="classirio_1_1TerminalsAuxAnalog.html" target="_top" xlink:title="Class managing all terminals related to the auxiliary analog functionality of the RIO device.">
<polygon fill="none" stroke="black" points="157.5,-331.5 157.5,-498.5 295.5,-498.5 295.5,-331.5 157.5,-331.5"/>
<text text-anchor="middle" x="226.5" y="-486.5" font-family="Helvetica,sans-Serif" font-size="10.00">irio::TerminalsAuxAnalog</text>
<polyline fill="none" stroke="black" points="157.5,-479.5 295.5,-479.5 "/>
<text text-anchor="middle" x="226.5" y="-467.5" font-family="Helvetica,sans-Serif" font-size="10.00"> </text>
<polyline fill="none" stroke="black" points="157.5,-460.5 295.5,-460.5 "/>
<text text-anchor="start" x="165.5" y="-448.5" font-family="Helvetica,sans-Serif" font-size="10.00">+ TerminalsAuxAnalog()</text>
<text text-anchor="start" x="165.5" y="-437.5" font-family="Helvetica,sans-Serif" font-size="10.00">+ getAuxAI()</text>
<text text-anchor="start" x="165.5" y="-426.5" font-family="Helvetica,sans-Serif" font-size="10.00">+ getAuxAO()</text>
<text text-anchor="start" x="165.5" y="-415.5" font-family="Helvetica,sans-Serif" font-size="10.00">+ getNumAuxAI()</text>
<text text-anchor="start" x="165.5" y="-404.5" font-family="Helvetica,sans-Serif" font-size="10.00">+ getNumAuxAO()</text>
<text text-anchor="start" x="165.5" y="-393.5" font-family="Helvetica,sans-Serif" font-size="10.00">+ setAuxAO()</text>
<text text-anchor="start" x="165.5" y="-382.5" font-family="Helvetica,sans-Serif" font-size="10.00">+ getAuxAI64()</text>
<text text-anchor="start" x="165.5" y="-371.5" font-family="Helvetica,sans-Serif" font-size="10.00">+ getAuxAO64()</text>
<text text-anchor="start" x="165.5" y="-360.5" font-family="Helvetica,sans-Serif" font-size="10.00">+ getNumAuxAI64()</text>
<text text-anchor="start" x="165.5" y="-349.5" font-family="Helvetica,sans-Serif" font-size="10.00">+ getNumAuxAO64()</text>
<text text-anchor="start" x="165.5" y="-338.5" font-family="Helvetica,sans-Serif" font-size="10.00">+ setAuxAO64()</text>
</a>
</g>
</g>
<!-- Node1&#45;&gt;Node3 -->
<g id="edge2" class="edge">
<title>Node1&#45;&gt;Node3</title>
<path fill="none" stroke="midnightblue" d="M557.04,-585.24C488.96,-582.58 381.74,-569.99 304.5,-521 294.91,-514.92 286.09,-507.21 278.11,-498.73"/>
<polygon fill="none" stroke="midnightblue" points="557.1,-588.74 567.21,-585.57 557.33,-581.74 557.1,-588.74"/>
</g>
<!-- Node4 -->
<g id="node4" class="node">
<title>Node4</title>
<g id="a_node4"><a xlink:href="classirio_1_1TerminalsAuxDigital.html" target="_top" xlink:title="Class managing all terminals related to the auxiliary digital functionality of the RIO device.">
<polygon fill="none" stroke="black" points="314,-359 314,-471 451,-471 451,-359 314,-359"/>
<text text-anchor="middle" x="382.5" y="-459" font-family="Helvetica,sans-Serif" font-size="10.00">irio::TerminalsAuxDigital</text>
<polyline fill="none" stroke="black" points="314,-452 451,-452 "/>
<text text-anchor="middle" x="382.5" y="-440" font-family="Helvetica,sans-Serif" font-size="10.00"> </text>
<polyline fill="none" stroke="black" points="314,-433 451,-433 "/>
<text text-anchor="start" x="322" y="-421" font-family="Helvetica,sans-Serif" font-size="10.00">+ TerminalsAuxDigital()</text>
<text text-anchor="start" x="322" y="-410" font-family="Helvetica,sans-Serif" font-size="10.00">+ getAuxDI()</text>
<text text-anchor="start" x="322" y="-399" font-family="Helvetica,sans-Serif" font-size="10.00">+ getAuxDO()</text>
<text text-anchor="start" x="322" y="-388" font-family="Helvetica,sans-Serif" font-size="10.00">+ getNumAuxDI()</text>
<text text-anchor="start" x="322" y="-377" font-family="Helvetica,sans-Serif" font-size="10.00">+ getNumAuxDO()</text>
<text text-anchor="start" x="322" y="-366" font-family="Helvetica,sans-Serif" font-size="10.00">+ setAuxDO()</text>
</a>
</g>
</g>
<!-- Node1&#45;&gt;Node4 -->
<g id="edge3" class="edge">
<title>Node1&#45;&gt;Node4</title>
<path fill="none" stroke="midnightblue" d="M557.55,-568.75C525.79,-558.61 488.32,-543.19 459.5,-521 441.95,-507.49 426.55,-488.93 414.23,-471.18"/>
<polygon fill="none" stroke="midnightblue" points="556.61,-572.13 567.2,-571.73 558.68,-565.44 556.61,-572.13"/>
</g>
<!-- Node5 -->
<g id="node5" class="node">
<title>Node5</title>
<g id="a_node5"><a xlink:href="classirio_1_1TerminalsDMACommon.html" target="_top" xlink:title="Class managing the terminals common to all other terminals that use DMAs in the RIO device.">
<polygon fill="none" stroke="black" points="469,-331.5 469,-498.5 622,-498.5 622,-331.5 469,-331.5"/>
<text text-anchor="middle" x="545.5" y="-486.5" font-family="Helvetica,sans-Serif" font-size="10.00">irio::TerminalsDMACommon</text>
<polyline fill="none" stroke="black" points="469,-479.5 622,-479.5 "/>
<text text-anchor="middle" x="545.5" y="-467.5" font-family="Helvetica,sans-Serif" font-size="10.00"> </text>
<polyline fill="none" stroke="black" points="469,-460.5 622,-460.5 "/>
<text text-anchor="start" x="477" y="-448.5" font-family="Helvetica,sans-Serif" font-size="10.00">+ TerminalsDMACommon()</text>
<text text-anchor="start" x="477" y="-437.5" font-family="Helvetica,sans-Serif" font-size="10.00">+ getNCh()</text>
<text text-anchor="start" x="477" y="-426.5" font-family="Helvetica,sans-Serif" font-size="10.00">+ getDMAOverflow()</text>
<text text-anchor="start" x="477" y="-415.5" font-family="Helvetica,sans-Serif" font-size="10.00">+ getAllDMAOverflows()</text>
<text text-anchor="start" x="477" y="-404.5" font-family="Helvetica,sans-Serif" font-size="10.00">+ getFrameType()</text>
<text text-anchor="start" x="477" y="-393.5" font-family="Helvetica,sans-Serif" font-size="10.00">+ getAllFrameType()</text>
<text text-anchor="start" x="477" y="-382.5" font-family="Helvetica,sans-Serif" font-size="10.00">+ getSampleSize()</text>
<text text-anchor="start" x="477" y="-371.5" font-family="Helvetica,sans-Serif" font-size="10.00">+ getAllSampleSizes()</text>
<text text-anchor="start" x="477" y="-360.5" font-family="Helvetica,sans-Serif" font-size="10.00">+ startDMA()</text>
<text text-anchor="start" x="477" y="-349.5" font-family="Helvetica,sans-Serif" font-size="10.00">+ startAllDMAs()</text>
<text text-anchor="start" x="477" y="-338.5" font-family="Helvetica,sans-Serif" font-size="10.00">and 12 more...</text>
</a>
</g>
</g>
<!-- Node1&#45;&gt;Node5 -->
<g id="edge4" class="edge">
<title>Node1&#45;&gt;Node5</title>
<path fill="none" stroke="midnightblue" d="M605.77,-548.27C599.08,-533.61 591.1,-516.08 583.16,-498.65"/>
<polygon fill="none" stroke="midnightblue" points="602.63,-549.82 609.96,-557.47 609,-546.92 602.63,-549.82"/>
</g>
<!-- Node10 -->
<g id="node10" class="node">
<title>Node10</title>
<g id="a_node10"><a xlink:href="classirio_1_1TerminalsDigital.html" target="_top" xlink:title="Class managing all terminals related to the digital functionality of the RIO device.">
<polygon fill="none" stroke="black" points="640.5,-359 640.5,-471 758.5,-471 758.5,-359 640.5,-359"/>
<text text-anchor="middle" x="699.5" y="-459" font-family="Helvetica,sans-Serif" font-size="10.00">irio::TerminalsDigital</text>
<polyline fill="none" stroke="black" points="640.5,-452 758.5,-452 "/>
<text text-anchor="middle" x="699.5" y="-440" font-family="Helvetica,sans-Serif" font-size="10.00"> </text>
<polyline fill="none" stroke="black" points="640.5,-433 758.5,-433 "/>
<text text-anchor="start" x="648.5" y="-421" font-family="Helvetica,sans-Serif" font-size="10.00">+ TerminalsDigital()</text>
<text text-anchor="start" x="648.5" y="-410" font-family="Helvetica,sans-Serif" font-size="10.00">+ getDI()</text>
<text text-anchor="start" x="648.5" y="-399" font-family="Helvetica,sans-Serif" font-size="10.00">+ getDO()</text>
<text text-anchor="start" x="648.5" y="-388" font-family="Helvetica,sans-Serif" font-size="10.00">+ getNumDI()</text>
<text text-anchor="start" x="648.5" y="-377" font-family="Helvetica,sans-Serif" font-size="10.00">+ getNumDO()</text>
<text text-anchor="start" x="648.5" y="-366" font-family="Helvetica,sans-Serif" font-size="10.00">+ setDO()</text>
</a>
</g>
</g>
<!-- Node1&#45;&gt;Node10 -->
<g id="edge9" class="edge">
<title>Node1&#45;&gt;Node10</title>
<path fill="none" stroke="midnightblue" d="M639.24,-548.26C649.5,-525.74 662.83,-496.47 674.35,-471.2"/>
<polygon fill="none" stroke="midnightblue" points="636,-546.92 635.04,-557.47 642.37,-549.82 636,-546.92"/>
</g>
<!-- Node11 -->
<g id="node11" class="node">
<title>Node11</title>
<g id="a_node11"><a xlink:href="classirio_1_1TerminalsFlexRIO.html" target="_top" xlink:title="Class managing all terminals specific to FlexRIO devices.">
<polygon fill="none" stroke="black" points="776.5,-375.5 776.5,-454.5 924.5,-454.5 924.5,-375.5 776.5,-375.5"/>
<text text-anchor="middle" x="850.5" y="-442.5" font-family="Helvetica,sans-Serif" font-size="10.00">irio::TerminalsFlexRIO</text>
<polyline fill="none" stroke="black" points="776.5,-435.5 924.5,-435.5 "/>
<text text-anchor="middle" x="850.5" y="-423.5" font-family="Helvetica,sans-Serif" font-size="10.00"> </text>
<polyline fill="none" stroke="black" points="776.5,-416.5 924.5,-416.5 "/>
<text text-anchor="start" x="784.5" y="-404.5" font-family="Helvetica,sans-Serif" font-size="10.00">+ TerminalsFlexRIO()</text>
<text text-anchor="start" x="784.5" y="-393.5" font-family="Helvetica,sans-Serif" font-size="10.00">+ getRIOAdapterCorrect()</text>
<text text-anchor="start" x="784.5" y="-382.5" font-family="Helvetica,sans-Serif" font-size="10.00">+ getInsertedIOModuleID()</text>
</a>
</g>
</g>
<!-- Node1&#45;&gt;Node11 -->
<g id="edge10" class="edge">
<title>Node1&#45;&gt;Node11</title>
<path fill="none" stroke="midnightblue" d="M687.17,-564.25C713.68,-553.83 743.66,-539.45 767.5,-521 791.11,-502.72 811.93,-476.34 826.81,-454.59"/>
<polygon fill="none" stroke="midnightblue" points="685.67,-561.07 677.57,-567.9 688.17,-567.61 685.67,-561.07"/>
</g>
<!-- Node12 -->
<g id="node12" class="node">
<title>Node12</title>
<g id="a_node12"><a xlink:href="classirio_1_1TerminalsSignalGeneration.html" target="_top" xlink:title="Class managing all terminals related to the signal generation functionality of the RIO device.">
<polygon fill="none" stroke="black" points="942.5,-315 942.5,-515 1112.5,-515 1112.5,-315 942.5,-315"/>
<text text-anchor="middle" x="1027.5" y="-503" font-family="Helvetica,sans-Serif" font-size="10.00">irio::TerminalsSignalGeneration</text>
<polyline fill="none" stroke="black" points="942.5,-496 1112.5,-496 "/>
<text text-anchor="middle" x="1027.5" y="-484" font-family="Helvetica,sans-Serif" font-size="10.00"> </text>
<polyline fill="none" stroke="black" points="942.5,-477 1112.5,-477 "/>
<text text-anchor="start" x="950.5" y="-465" font-family="Helvetica,sans-Serif" font-size="10.00">+ TerminalsSignalGeneration()</text>
<text text-anchor="start" x="950.5" y="-454" font-family="Helvetica,sans-Serif" font-size="10.00">+ getSGNo()</text>
<text text-anchor="start" x="950.5" y="-443" font-family="Helvetica,sans-Serif" font-size="10.00">+ getSGFref()</text>
<text text-anchor="start" x="950.5" y="-432" font-family="Helvetica,sans-Serif" font-size="10.00">+ getVectorSGFrefs()</text>
<text text-anchor="start" x="950.5" y="-421" font-family="Helvetica,sans-Serif" font-size="10.00">+ getSGSignalType()</text>
<text text-anchor="start" x="950.5" y="-410" font-family="Helvetica,sans-Serif" font-size="10.00">+ getSGAmp()</text>
<text text-anchor="start" x="950.5" y="-399" font-family="Helvetica,sans-Serif" font-size="10.00">+ getSGFreq()</text>
<text text-anchor="start" x="950.5" y="-388" font-family="Helvetica,sans-Serif" font-size="10.00">+ getSGPhase()</text>
<text text-anchor="start" x="950.5" y="-377" font-family="Helvetica,sans-Serif" font-size="10.00">+ getSGUpdateRate()</text>
<text text-anchor="start" x="950.5" y="-366" font-family="Helvetica,sans-Serif" font-size="10.00">+ setSGSignalType()</text>
<text text-anchor="start" x="950.5" y="-355" font-family="Helvetica,sans-Serif" font-size="10.00">+ setSGAmp()</text>
<text text-anchor="start" x="950.5" y="-344" font-family="Helvetica,sans-Serif" font-size="10.00">+ setSGFreq()</text>
<text text-anchor="start" x="950.5" y="-333" font-family="Helvetica,sans-Serif" font-size="10.00">+ setSGPhase()</text>
<text text-anchor="start" x="950.5" y="-322" font-family="Helvetica,sans-Serif" font-size="10.00">+ setSGUpdateRate()</text>
</a>
</g>
</g>
<!-- Node1&#45;&gt;Node12 -->
<g id="edge11" class="edge">
<title>Node1&#45;&gt;Node12</title>
<path fill="none" stroke="midnightblue" d="M687.84,-583.35C753.83,-579.09 856.72,-565.14 933.5,-521 936.68,-519.17 939.81,-517.2 942.89,-515.1"/>
<polygon fill="none" stroke="midnightblue" points="687.35,-579.87 677.57,-583.95 687.76,-586.86 687.35,-579.87"/>
</g>
<!-- Node13 -->
<g id="node13" class="node">
<title>Node13</title>
<g id="a_node13"><a xlink:href="classirio_1_1TerminalscRIO.html" target="_top" xlink:title="Class managing all terminals specific to cRIO devices.">
<polygon fill="none" stroke="black" points="1131,-375.5 1131,-454.5 1284,-454.5 1284,-375.5 1131,-375.5"/>
<text text-anchor="middle" x="1207.5" y="-442.5" font-family="Helvetica,sans-Serif" font-size="10.00">irio::TerminalscRIO</text>
<polyline fill="none" stroke="black" points="1131,-435.5 1284,-435.5 "/>
<text text-anchor="middle" x="1207.5" y="-423.5" font-family="Helvetica,sans-Serif" font-size="10.00"> </text>
<polyline fill="none" stroke="black" points="1131,-416.5 1284,-416.5 "/>
<text text-anchor="start" x="1139" y="-404.5" font-family="Helvetica,sans-Serif" font-size="10.00">+ TerminalscRIO()</text>
<text text-anchor="start" x="1139" y="-393.5" font-family="Helvetica,sans-Serif" font-size="10.00">+ getcRIOModulesOk()</text>
<text text-anchor="start" x="1139" y="-382.5" font-family="Helvetica,sans-Serif" font-size="10.00">+ getInsertedIOModulesID()</text>
</a>
</g>
</g>
<!-- Node1&#45;&gt;Node13 -->
<g id="edge12" class="edge">
<title>Node1&#45;&gt;Node13</title>
<path fill="none" stroke="midnightblue" d="M688.14,-582.56C806.1,-577.2 1048.46,-561.48 1121.5,-521 1149.01,-505.75 1171.22,-477.85 1186.17,-454.64"/>
<polygon fill="none" stroke="midnightblue" points="687.64,-579.07 677.81,-583.01 687.95,-586.07 687.64,-579.07"/>
</g>
<!-- Node6 -->
<g id="node6" class="node">
<title>Node6</title>
<g id="a_node6"><a xlink:href="classirio_1_1TerminalsDMADAQ.html" target="_top" xlink:title="Class managing the terminals used for DMA DAQ operations.">
<polygon fill="none" stroke="black" points="367.5,-138.5 367.5,-228.5 543.5,-228.5 543.5,-138.5 367.5,-138.5"/>
<text text-anchor="middle" x="455.5" y="-216.5" font-family="Helvetica,sans-Serif" font-size="10.00">irio::TerminalsDMADAQ</text>
<polyline fill="none" stroke="black" points="367.5,-209.5 543.5,-209.5 "/>
<text text-anchor="middle" x="455.5" y="-197.5" font-family="Helvetica,sans-Serif" font-size="10.00"> </text>
<polyline fill="none" stroke="black" points="367.5,-190.5 543.5,-190.5 "/>
<text text-anchor="start" x="375.5" y="-178.5" font-family="Helvetica,sans-Serif" font-size="10.00">+ TerminalsDMADAQ()</text>
<text text-anchor="start" x="375.5" y="-167.5" font-family="Helvetica,sans-Serif" font-size="10.00">+ getLengthBlock()</text>
<text text-anchor="start" x="375.5" y="-156.5" font-family="Helvetica,sans-Serif" font-size="10.00">+ getSamplingRateDecimation()</text>
<text text-anchor="start" x="375.5" y="-145.5" font-family="Helvetica,sans-Serif" font-size="10.00">+ setSamplingRateDecimation()</text>
</a>
</g>
</g>
<!-- Node5&#45;&gt;Node6 -->
<g id="edge5" class="edge">
<title>Node5&#45;&gt;Node6</title>
<path fill="none" stroke="midnightblue" d="M509.43,-322.02C496.81,-289.85 483.22,-255.19 472.84,-228.71"/>
<polygon fill="none" stroke="midnightblue" points="506.23,-323.44 513.14,-331.47 512.74,-320.88 506.23,-323.44"/>
</g>
<!-- Node8 -->
<g id="node8" class="node">
<title>Node8</title>
<g id="a_node8"><a xlink:href="classirio_1_1TerminalsDMAIMAQ.html" target="_top" xlink:title="Class managing the resources used for IMAQ DAQ operations.">
<polygon fill="none" stroke="black" points="561,-94.5 561,-272.5 710,-272.5 710,-94.5 561,-94.5"/>
<text text-anchor="middle" x="635.5" y="-260.5" font-family="Helvetica,sans-Serif" font-size="10.00">irio::TerminalsDMAIMAQ</text>
<polyline fill="none" stroke="black" points="561,-253.5 710,-253.5 "/>
<text text-anchor="middle" x="635.5" y="-241.5" font-family="Helvetica,sans-Serif" font-size="10.00"> </text>
<polyline fill="none" stroke="black" points="561,-234.5 710,-234.5 "/>
<text text-anchor="start" x="569" y="-222.5" font-family="Helvetica,sans-Serif" font-size="10.00">+ TerminalsDMAIMAQ()</text>
<text text-anchor="start" x="569" y="-211.5" font-family="Helvetica,sans-Serif" font-size="10.00">+ configCameraLink()</text>
<text text-anchor="start" x="569" y="-200.5" font-family="Helvetica,sans-Serif" font-size="10.00">+ readImageNonBlocking()</text>
<text text-anchor="start" x="569" y="-189.5" font-family="Helvetica,sans-Serif" font-size="10.00">+ readImageBlocking()</text>
<text text-anchor="start" x="569" y="-178.5" font-family="Helvetica,sans-Serif" font-size="10.00">+ readImage()</text>
<text text-anchor="start" x="569" y="-167.5" font-family="Helvetica,sans-Serif" font-size="10.00">+ sendUARTMsg()</text>
<text text-anchor="start" x="569" y="-156.5" font-family="Helvetica,sans-Serif" font-size="10.00">+ recvUARTMsg()</text>
<text text-anchor="start" x="569" y="-145.5" font-family="Helvetica,sans-Serif" font-size="10.00">+ setUARTBaudRate()</text>
<text text-anchor="start" x="569" y="-134.5" font-family="Helvetica,sans-Serif" font-size="10.00">+ getUARTBaudRate()</text>
<text text-anchor="start" x="569" y="-123.5" font-family="Helvetica,sans-Serif" font-size="10.00">+ getUARTBreakIndicator()</text>
<text text-anchor="start" x="569" y="-112.5" font-family="Helvetica,sans-Serif" font-size="10.00">+ getUARTFramingError()</text>
<text text-anchor="start" x="569" y="-101.5" font-family="Helvetica,sans-Serif" font-size="10.00">+ getUARTOverrunError()</text>
</a>
</g>
</g>
<!-- Node5&#45;&gt;Node8 -->
<g id="edge7" class="edge">
<title>Node5&#45;&gt;Node8</title>
<path fill="none" stroke="midnightblue" d="M581.57,-322.02C587.92,-305.82 594.52,-288.99 600.84,-272.89"/>
<polygon fill="none" stroke="midnightblue" points="578.26,-320.88 577.86,-331.47 584.77,-323.44 578.26,-320.88"/>
</g>
<!-- Node7 -->
<g id="node7" class="node">
<title>Node7</title>
<g id="a_node7"><a xlink:href="classirio_1_1TerminalsDMADAQCPU.html" target="_top" xlink:title="Class managing the terminals used for DMA CPU DAQ operations.">
<polygon fill="none" stroke="black" points="380,-0.5 380,-57.5 531,-57.5 531,-0.5 380,-0.5"/>
<text text-anchor="middle" x="455.5" y="-45.5" font-family="Helvetica,sans-Serif" font-size="10.00">irio::TerminalsDMADAQCPU</text>
<polyline fill="none" stroke="black" points="380,-38.5 531,-38.5 "/>
<text text-anchor="middle" x="455.5" y="-26.5" font-family="Helvetica,sans-Serif" font-size="10.00"> </text>
<polyline fill="none" stroke="black" points="380,-19.5 531,-19.5 "/>
<text text-anchor="start" x="388" y="-7.5" font-family="Helvetica,sans-Serif" font-size="10.00">+ TerminalsDMADAQCPU()</text>
</a>
</g>
</g>
<!-- Node6&#45;&gt;Node7 -->
<g id="edge6" class="edge">
<title>Node6&#45;&gt;Node7</title>
<path fill="none" stroke="midnightblue" d="M455.5,-128.37C455.5,-104.46 455.5,-77.38 455.5,-57.69"/>
<polygon fill="none" stroke="midnightblue" points="452,-128.39 455.5,-138.39 459,-128.39 452,-128.39"/>
</g>
<!-- Node9 -->
<g id="node9" class="node">
<title>Node9</title>
<g id="a_node9"><a xlink:href="classirio_1_1TerminalsDMAIMAQCPU.html" target="_top" xlink:title="Class managing the resources used for DMA CPU IMAQ operations.">
<polygon fill="none" stroke="black" points="558,-0.5 558,-57.5 713,-57.5 713,-0.5 558,-0.5"/>
<text text-anchor="middle" x="635.5" y="-45.5" font-family="Helvetica,sans-Serif" font-size="10.00">irio::TerminalsDMAIMAQCPU</text>
<polyline fill="none" stroke="black" points="558,-38.5 713,-38.5 "/>
<text text-anchor="middle" x="635.5" y="-26.5" font-family="Helvetica,sans-Serif" font-size="10.00"> </text>
<polyline fill="none" stroke="black" points="558,-19.5 713,-19.5 "/>
<text text-anchor="start" x="566" y="-7.5" font-family="Helvetica,sans-Serif" font-size="10.00">+ TerminalsDMAIMAQCPU()</text>
</a>
</g>
</g>
<!-- Node8&#45;&gt;Node9 -->
<g id="edge8" class="edge">
<title>Node8&#45;&gt;Node9</title>
<path fill="none" stroke="midnightblue" d="M635.5,-84.17C635.5,-74.66 635.5,-65.65 635.5,-57.81"/>
<polygon fill="none" stroke="midnightblue" points="632,-84.23 635.5,-94.23 639,-84.23 632,-84.23"/>
</g>
</g>
</svg>
        <g id="navigator" transform="translate(0 0)" fill="#404254">
                <rect fill="#f2f5e9" fill-opacity="0.5" stroke="#606060" stroke-width=".5" x="0" y="0" width="60" height="60"/>
                <use id="zoomplus" xlink:href="#zoomPlus" x="17" y="9" onmousedown="handleZoom(evt,'in')"/>
                <use id="zoomminus" xlink:href="#zoomMin" x="42" y="9" onmousedown="handleZoom(evt,'out')"/>
                <use id="reset" xlink:href="#resetDef" x="30" y="36" onmousedown="handleReset()"/>
                <g id="arrowUp" xlink:href="#dirArrow" transform="translate(30 24)" onmousedown="handlePan(0,-1)">
                  <use xlink:href="#rim" fill="#404040">
                        <set attributeName="fill" to="#808080" begin="arrowUp.mouseover" end="arrowUp.mouseout"/>
                  </use>
                  <path fill="none" stroke="white" stroke-width="1.5" d="M0,-3.0v7 M-2.5,-0.5L0,-3.0L2.5,-0.5"/>
                </g>
                <g id="arrowRight" xlink:href="#dirArrow" transform="rotate(90) translate(36 -43)" onmousedown="handlePan(1,0)">
                  <use xlink:href="#rim" fill="#404040">
                        <set attributeName="fill" to="#808080" begin="arrowRight.mouseover" end="arrowRight.mouseout"/>
                  </use>
                  <path fill="none" stroke="white" stroke-width="1.5" d="M0,-3.0v7 M-2.5,-0.5L0,-3.0L2.5,-0.5"/>
                </g>
                <g id="arrowDown" xlink:href="#dirArrow" transform="rotate(180) translate(-30 -48)" onmousedown="handlePan(0,1)">
                  <use xlink:href="#rim" fill="#404040">
                        <set attributeName="fill" to="#808080" begin="arrowDown.mouseover" end="arrowDown.mouseout"/>
                  </use>
                  <path fill="none" stroke="white" stroke-width="1.5" d="M0,-3.0v7 M-2.5,-0.5L0,-3.0L2.5,-0.5"/>
                </g>
                <g id="arrowLeft" xlink:href="#dirArrow" transform="rotate(270) translate(-36 17)" onmousedown="handlePan(-1,0)">
                  <use xlink:href="#rim" fill="#404040">
                        <set attributeName="fill" to="#808080" begin="arrowLeft.mouseover" end="arrowLeft.mouseout"/>
                  </use>
                  <path fill="none" stroke="white" stroke-width="1.5" d="M0,-3.0v7 M-2.5,-0.5L0,-3.0L2.5,-0.5"/>
                </g>
        </g>
        <svg viewBox="0 0 15 15" width="100%" height="30px" preserveAspectRatio="xMaxYMin meet">
         <g id="arrow_out" transform="scale(0.3 0.3)">
          <a xlink:href="classirio_1_1TerminalsBase__inherit__graph_org.svg" target="_base">
           <rect id="button" ry="5" rx="5" y="6" x="6" height="38" width="38"
                fill="#f2f5e9" fill-opacity="0.5" stroke="#606060" stroke-width="1.0"/>
           <path id="arrow"
             d="M 11.500037,31.436501 C 11.940474,20.09759 22.043105,11.32322 32.158766,21.979434 L 37.068811,17.246167 C 37.068811,17.246167 37.088388,32 37.088388,32 L 22.160133,31.978069 C 22.160133,31.978069 26.997745,27.140456 26.997745,27.140456 C 18.528582,18.264221 13.291696,25.230495 11.500037,31.436501 z"
             style="fill:#404040;"/>
          </a>
         </g>
        </svg>
</svg>
