<?xml version="1.0" encoding="UTF-8" standalone="no"?>
<!DOCTYPE svg PUBLIC "-//W3C//DTD SVG 1.1//EN"
 "http://www.w3.org/Graphics/SVG/1.1/DTD/svg11.dtd">
<!-- Generated by graphviz version 2.43.0 (0)
 -->
<!-- Title: irio::TerminalsDMACommon Pages: 1 -->
<!--zoomable 579 -->
<svg id="main" version="1.1" xmlns="http://www.w3.org/2000/svg" xmlns:xlink="http://www.w3.org/1999/xlink" xml:space="preserve" onload="init(evt)">
<style type="text/css"><![CDATA[
.edge:hover path { stroke: red; }
.edge:hover polygon { stroke: red; fill: red; }
]]></style>
<script type="text/javascript"><![CDATA[
var edges = document.getElementsByTagName('g');
if (edges && edges.length) {
  for (var i=0;i<edges.length;i++) {
    if (edges[i].id.substr(0,4)=='edge') {
      edges[i].setAttribute('class','edge');
    }
  }
}
]]></script>
        <defs>
                <circle id="rim" cx="0" cy="0" r="7"/>
                <circle id="rim2" cx="0" cy="0" r="3.5"/>
                <g id="zoomPlus">
                        <use xlink:href="#rim" fill="#404040">
                                <set attributeName="fill" to="#808080" begin="zoomplus.mouseover" end="zoomplus.mouseout"/>
                        </use>
                        <path d="M-4,0h8M0,-4v8" fill="none" stroke="white" stroke-width="1.5" pointer-events="none"/>
                </g>
                <g id="zoomMin">
                        <use xlink:href="#rim" fill="#404040">
                                <set attributeName="fill" to="#808080" begin="zoomminus.mouseover" end="zoomminus.mouseout"/>
                        </use>
                        <path d="M-4,0h8" fill="none" stroke="white" stroke-width="1.5" pointer-events="none"/>
                </g>
                <g id="dirArrow">
                        <path fill="none" stroke="white" stroke-width="1.5" d="M0,-3.0v7 M-2.5,-0.5L0,-3.0L2.5,-0.5"/>
                </g>
               <g id="resetDef">
                       <use xlink:href="#rim2" fill="#404040">
                               <set attributeName="fill" to="#808080" begin="reset.mouseover" end="reset.mouseout"/>
                       </use>
               </g>
        </defs>

<script type="text/javascript">
var viewWidth = 354;
var viewHeight = 579;
var sectionId = 'dynsection-0';
</script>
<script xlink:href="svgpan.js"/>
<svg id="graph" class="graph">
<g id="viewport">
<title>irio::TerminalsDMACommon</title>
<!-- Node1 -->
<g id="node1" class="node">
<title>Node1</title>
<g id="a_node1"><a xlink:title="Class managing the terminals common to all other terminals that use DMAs in the RIO device.">
<polygon fill="#bfbfbf" stroke="black" points="101.5,-309.5 101.5,-476.5 254.5,-476.5 254.5,-309.5 101.5,-309.5"/>
<text text-anchor="middle" x="178" y="-464.5" font-family="Helvetica,sans-Serif" font-size="10.00">irio::TerminalsDMACommon</text>
<polyline fill="none" stroke="black" points="101.5,-457.5 254.5,-457.5 "/>
<text text-anchor="middle" x="178" y="-445.5" font-family="Helvetica,sans-Serif" font-size="10.00"> </text>
<polyline fill="none" stroke="black" points="101.5,-438.5 254.5,-438.5 "/>
<text text-anchor="start" x="109.5" y="-426.5" font-family="Helvetica,sans-Serif" font-size="10.00">+ TerminalsDMACommon()</text>
<text text-anchor="start" x="109.5" y="-415.5" font-family="Helvetica,sans-Serif" font-size="10.00">+ getNCh()</text>
<text text-anchor="start" x="109.5" y="-404.5" font-family="Helvetica,sans-Serif" font-size="10.00">+ getDMAOverflow()</text>
<text text-anchor="start" x="109.5" y="-393.5" font-family="Helvetica,sans-Serif" font-size="10.00">+ getAllDMAOverflows()</text>
<text text-anchor="start" x="109.5" y="-382.5" font-family="Helvetica,sans-Serif" font-size="10.00">+ getFrameType()</text>
<text text-anchor="start" x="109.5" y="-371.5" font-family="Helvetica,sans-Serif" font-size="10.00">+ getAllFrameType()</text>
<text text-anchor="start" x="109.5" y="-360.5" font-family="Helvetica,sans-Serif" font-size="10.00">+ getSampleSize()</text>
<text text-anchor="start" x="109.5" y="-349.5" font-family="Helvetica,sans-Serif" font-size="10.00">+ getAllSampleSizes()</text>
<text text-anchor="start" x="109.5" y="-338.5" font-family="Helvetica,sans-Serif" font-size="10.00">+ startDMA()</text>
<text text-anchor="start" x="109.5" y="-327.5" font-family="Helvetica,sans-Serif" font-size="10.00">+ startAllDMAs()</text>
<text text-anchor="start" x="109.5" y="-316.5" font-family="Helvetica,sans-Serif" font-size="10.00">and 12 more...</text>
</a>
</g>
</g>
<!-- Node3 -->
<g id="node3" class="node">
<title>Node3</title>
<g id="a_node3"><a xlink:href="classirio_1_1TerminalsDMADAQ.html" target="_top" xlink:title="Class managing the terminals used for DMA DAQ operations.">
<polygon fill="none" stroke="black" points="0,-138.5 0,-228.5 176,-228.5 176,-138.5 0,-138.5"/>
<text text-anchor="middle" x="88" y="-216.5" font-family="Helvetica,sans-Serif" font-size="10.00">irio::TerminalsDMADAQ</text>
<polyline fill="none" stroke="black" points="0,-209.5 176,-209.5 "/>
<text text-anchor="middle" x="88" y="-197.5" font-family="Helvetica,sans-Serif" font-size="10.00"> </text>
<polyline fill="none" stroke="black" points="0,-190.5 176,-190.5 "/>
<text text-anchor="start" x="8" y="-178.5" font-family="Helvetica,sans-Serif" font-size="10.00">+ TerminalsDMADAQ()</text>
<text text-anchor="start" x="8" y="-167.5" font-family="Helvetica,sans-Serif" font-size="10.00">+ getLengthBlock()</text>
<text text-anchor="start" x="8" y="-156.5" font-family="Helvetica,sans-Serif" font-size="10.00">+ getSamplingRateDecimation()</text>
<text text-anchor="start" x="8" y="-145.5" font-family="Helvetica,sans-Serif" font-size="10.00">+ setSamplingRateDecimation()</text>
</a>
</g>
</g>
<!-- Node1&#45;&gt;Node3 -->
<g id="edge2" class="edge">
<title>Node1&#45;&gt;Node3</title>
<path fill="none" stroke="midnightblue" d="M138.08,-299.95C127.33,-275.18 116.19,-249.5 107.16,-228.67"/>
<polygon fill="none" stroke="midnightblue" points="134.98,-301.61 142.17,-309.39 141.4,-298.83 134.98,-301.61"/>
</g>
<!-- Node5 -->
<g id="node5" class="node">
<title>Node5</title>
<g id="a_node5"><a xlink:href="classirio_1_1TerminalsDMAIMAQ.html" target="_top" xlink:title="Class managing the resources used for IMAQ DAQ operations.">
<polygon fill="none" stroke="black" points="193.5,-94.5 193.5,-272.5 342.5,-272.5 342.5,-94.5 193.5,-94.5"/>
<text text-anchor="middle" x="268" y="-260.5" font-family="Helvetica,sans-Serif" font-size="10.00">irio::TerminalsDMAIMAQ</text>
<polyline fill="none" stroke="black" points="193.5,-253.5 342.5,-253.5 "/>
<text text-anchor="middle" x="268" y="-241.5" font-family="Helvetica,sans-Serif" font-size="10.00"> </text>
<polyline fill="none" stroke="black" points="193.5,-234.5 342.5,-234.5 "/>
<text text-anchor="start" x="201.5" y="-222.5" font-family="Helvetica,sans-Serif" font-size="10.00">+ TerminalsDMAIMAQ()</text>
<text text-anchor="start" x="201.5" y="-211.5" font-family="Helvetica,sans-Serif" font-size="10.00">+ configCameraLink()</text>
<text text-anchor="start" x="201.5" y="-200.5" font-family="Helvetica,sans-Serif" font-size="10.00">+ readImageNonBlocking()</text>
<text text-anchor="start" x="201.5" y="-189.5" font-family="Helvetica,sans-Serif" font-size="10.00">+ readImageBlocking()</text>
<text text-anchor="start" x="201.5" y="-178.5" font-family="Helvetica,sans-Serif" font-size="10.00">+ readImage()</text>
<text text-anchor="start" x="201.5" y="-167.5" font-family="Helvetica,sans-Serif" font-size="10.00">+ sendUARTMsg()</text>
<text text-anchor="start" x="201.5" y="-156.5" font-family="Helvetica,sans-Serif" font-size="10.00">+ recvUARTMsg()</text>
<text text-anchor="start" x="201.5" y="-145.5" font-family="Helvetica,sans-Serif" font-size="10.00">+ setUARTBaudRate()</text>
<text text-anchor="start" x="201.5" y="-134.5" font-family="Helvetica,sans-Serif" font-size="10.00">+ getUARTBaudRate()</text>
<text text-anchor="start" x="201.5" y="-123.5" font-family="Helvetica,sans-Serif" font-size="10.00">+ getUARTBreakIndicator()</text>
<text text-anchor="start" x="201.5" y="-112.5" font-family="Helvetica,sans-Serif" font-size="10.00">+ getUARTFramingError()</text>
<text text-anchor="start" x="201.5" y="-101.5" font-family="Helvetica,sans-Serif" font-size="10.00">+ getUARTOverrunError()</text>
</a>
</g>
</g>
<!-- Node1&#45;&gt;Node5 -->
<g id="edge4" class="edge">
<title>Node1&#45;&gt;Node5</title>
<path fill="none" stroke="midnightblue" d="M217.92,-299.97C221.86,-290.88 225.86,-281.66 229.78,-272.61"/>
<polygon fill="none" stroke="midnightblue" points="214.6,-298.83 213.83,-309.39 221.02,-301.61 214.6,-298.83"/>
</g>
<!-- Node2 -->
<g id="node2" class="node">
<title>Node2</title>
<g id="a_node2"><a xlink:href="classirio_1_1TerminalsBase.html" target="_top" xlink:title="Base class for all terminals.">
<polygon fill="none" stroke="black" points="123,-513.5 123,-570.5 233,-570.5 233,-513.5 123,-513.5"/>
<text text-anchor="middle" x="178" y="-558.5" font-family="Helvetica,sans-Serif" font-size="10.00">irio::TerminalsBase</text>
<polyline fill="none" stroke="black" points="123,-551.5 233,-551.5 "/>
<text text-anchor="start" x="131" y="-539.5" font-family="Helvetica,sans-Serif" font-size="10.00"># m_impl</text>
<polyline fill="none" stroke="black" points="123,-532.5 233,-532.5 "/>
<text text-anchor="start" x="131" y="-520.5" font-family="Helvetica,sans-Serif" font-size="10.00">+ TerminalsBase()</text>
</a>
</g>
</g>
<!-- Node2&#45;&gt;Node1 -->
<g id="edge1" class="edge">
<title>Node2&#45;&gt;Node1</title>
<path fill="none" stroke="midnightblue" d="M178,-503.35C178,-495.08 178,-486.01 178,-476.74"/>
<polygon fill="none" stroke="midnightblue" points="174.5,-503.35 178,-513.35 181.5,-503.35 174.5,-503.35"/>
</g>
<!-- Node4 -->
<g id="node4" class="node">
<title>Node4</title>
<g id="a_node4"><a xlink:href="classirio_1_1TerminalsDMADAQCPU.html" target="_top" xlink:title="Class managing the terminals used for DMA CPU DAQ operations.">
<polygon fill="none" stroke="black" points="12.5,-0.5 12.5,-57.5 163.5,-57.5 163.5,-0.5 12.5,-0.5"/>
<text text-anchor="middle" x="88" y="-45.5" font-family="Helvetica,sans-Serif" font-size="10.00">irio::TerminalsDMADAQCPU</text>
<polyline fill="none" stroke="black" points="12.5,-38.5 163.5,-38.5 "/>
<text text-anchor="middle" x="88" y="-26.5" font-family="Helvetica,sans-Serif" font-size="10.00"> </text>
<polyline fill="none" stroke="black" points="12.5,-19.5 163.5,-19.5 "/>
<text text-anchor="start" x="20.5" y="-7.5" font-family="Helvetica,sans-Serif" font-size="10.00">+ TerminalsDMADAQCPU()</text>
</a>
</g>
</g>
<!-- Node3&#45;&gt;Node4 -->
<g id="edge3" class="edge">
<title>Node3&#45;&gt;Node4</title>
<path fill="none" stroke="midnightblue" d="M88,-128.37C88,-104.46 88,-77.38 88,-57.69"/>
<polygon fill="none" stroke="midnightblue" points="84.5,-128.39 88,-138.39 91.5,-128.39 84.5,-128.39"/>
</g>
<!-- Node6 -->
<g id="node6" class="node">
<title>Node6</title>
<g id="a_node6"><a xlink:href="classirio_1_1TerminalsDMAIMAQCPU.html" target="_top" xlink:title="Class managing the resources used for DMA CPU IMAQ operations.">
<polygon fill="none" stroke="black" points="190.5,-0.5 190.5,-57.5 345.5,-57.5 345.5,-0.5 190.5,-0.5"/>
<text text-anchor="middle" x="268" y="-45.5" font-family="Helvetica,sans-Serif" font-size="10.00">irio::TerminalsDMAIMAQCPU</text>
<polyline fill="none" stroke="black" points="190.5,-38.5 345.5,-38.5 "/>
<text text-anchor="middle" x="268" y="-26.5" font-family="Helvetica,sans-Serif" font-size="10.00"> </text>
<polyline fill="none" stroke="black" points="190.5,-19.5 345.5,-19.5 "/>
<text text-anchor="start" x="198.5" y="-7.5" font-family="Helvetica,sans-Serif" font-size="10.00">+ TerminalsDMAIMAQCPU()</text>
</a>
</g>
</g>
<!-- Node5&#45;&gt;Node6 -->
<g id="edge5" class="edge">
<title>Node5&#45;&gt;Node6</title>
<path fill="none" stroke="midnightblue" d="M268,-84.17C268,-74.66 268,-65.65 268,-57.81"/>
<polygon fill="none" stroke="midnightblue" points="264.5,-84.23 268,-94.23 271.5,-84.23 264.5,-84.23"/>
</g>
</g>
</svg>
        <g id="navigator" transform="translate(0 0)" fill="#404254">
                <rect fill="#f2f5e9" fill-opacity="0.5" stroke="#606060" stroke-width=".5" x="0" y="0" width="60" height="60"/>
                <use id="zoomplus" xlink:href="#zoomPlus" x="17" y="9" onmousedown="handleZoom(evt,'in')"/>
                <use id="zoomminus" xlink:href="#zoomMin" x="42" y="9" onmousedown="handleZoom(evt,'out')"/>
                <use id="reset" xlink:href="#resetDef" x="30" y="36" onmousedown="handleReset()"/>
                <g id="arrowUp" xlink:href="#dirArrow" transform="translate(30 24)" onmousedown="handlePan(0,-1)">
                  <use xlink:href="#rim" fill="#404040">
                        <set attributeName="fill" to="#808080" begin="arrowUp.mouseover" end="arrowUp.mouseout"/>
                  </use>
                  <path fill="none" stroke="white" stroke-width="1.5" d="M0,-3.0v7 M-2.5,-0.5L0,-3.0L2.5,-0.5"/>
                </g>
                <g id="arrowRight" xlink:href="#dirArrow" transform="rotate(90) translate(36 -43)" onmousedown="handlePan(1,0)">
                  <use xlink:href="#rim" fill="#404040">
                        <set attributeName="fill" to="#808080" begin="arrowRight.mouseover" end="arrowRight.mouseout"/>
                  </use>
                  <path fill="none" stroke="white" stroke-width="1.5" d="M0,-3.0v7 M-2.5,-0.5L0,-3.0L2.5,-0.5"/>
                </g>
                <g id="arrowDown" xlink:href="#dirArrow" transform="rotate(180) translate(-30 -48)" onmousedown="handlePan(0,1)">
                  <use xlink:href="#rim" fill="#404040">
                        <set attributeName="fill" to="#808080" begin="arrowDown.mouseover" end="arrowDown.mouseout"/>
                  </use>
                  <path fill="none" stroke="white" stroke-width="1.5" d="M0,-3.0v7 M-2.5,-0.5L0,-3.0L2.5,-0.5"/>
                </g>
                <g id="arrowLeft" xlink:href="#dirArrow" transform="rotate(270) translate(-36 17)" onmousedown="handlePan(-1,0)">
                  <use xlink:href="#rim" fill="#404040">
                        <set attributeName="fill" to="#808080" begin="arrowLeft.mouseover" end="arrowLeft.mouseout"/>
                  </use>
                  <path fill="none" stroke="white" stroke-width="1.5" d="M0,-3.0v7 M-2.5,-0.5L0,-3.0L2.5,-0.5"/>
                </g>
        </g>
        <svg viewBox="0 0 15 15" width="100%" height="30px" preserveAspectRatio="xMaxYMin meet">
         <g id="arrow_out" transform="scale(0.3 0.3)">
          <a xlink:href="classirio_1_1TerminalsDMACommon__inherit__graph_org.svg" target="_base">
           <rect id="button" ry="5" rx="5" y="6" x="6" height="38" width="38"
                fill="#f2f5e9" fill-opacity="0.5" stroke="#606060" stroke-width="1.0"/>
           <path id="arrow"
             d="M 11.500037,31.436501 C 11.940474,20.09759 22.043105,11.32322 32.158766,21.979434 L 37.068811,17.246167 C 37.068811,17.246167 37.088388,32 37.088388,32 L 22.160133,31.978069 C 22.160133,31.978069 26.997745,27.140456 26.997745,27.140456 C 18.528582,18.264221 13.291696,25.230495 11.500037,31.436501 z"
             style="fill:#404040;"/>
          </a>
         </g>
        </svg>
</svg>
