<?xml version="1.0" encoding="UTF-8" standalone="no"?>
<!DOCTYPE svg PUBLIC "-//W3C//DTD SVG 1.1//EN"
 "http://www.w3.org/Graphics/SVG/1.1/DTD/svg11.dtd">
<!-- Generated by graphviz version 2.43.0 (0)
 -->
<!-- Title: irio::ProfileCPUDAQFlexRIO Pages: 1 -->
<svg width="244pt" height="298pt"
 viewBox="0.00 0.00 244.00 298.00" xmlns="http://www.w3.org/2000/svg" xmlns:xlink="http://www.w3.org/1999/xlink">
<g id="graph0" class="graph" transform="scale(1 1) rotate(0) translate(4 294)">
<title>irio::ProfileCPUDAQFlexRIO</title>
<!-- Node1 -->
<g id="node1" class="node">
<title>Node1</title>
<g id="a_node1"><a xlink:title="Profile with the terminals specific to data acquisition functionality and the ones specific to FlexRI...">
<polygon fill="#bfbfbf" stroke="black" points="44,-0.5 44,-57.5 193,-57.5 193,-0.5 44,-0.5"/>
<text text-anchor="middle" x="118.5" y="-45.5" font-family="Helvetica,sans-Serif" font-size="10.00">irio::ProfileCPUDAQFlexRIO</text>
<polyline fill="none" stroke="black" points="44,-38.5 193,-38.5 "/>
<text text-anchor="middle" x="118.5" y="-26.5" font-family="Helvetica,sans-Serif" font-size="10.00"> </text>
<polyline fill="none" stroke="black" points="44,-19.5 193,-19.5 "/>
<text text-anchor="start" x="52" y="-7.5" font-family="Helvetica,sans-Serif" font-size="10.00">+ ProfileCPUDAQFlexRIO()</text>
</a>
</g>
</g>
<!-- Node2 -->
<g id="node2" class="node">
<title>Node2</title>
<g id="a_node2"><a xlink:href="classirio_1_1ProfileCPUDAQ.html" target="_top" xlink:title="Profile with the terminals specific to data acquisition functionality.">
<polygon fill="none" stroke="black" points="0,-94.5 0,-151.5 111,-151.5 111,-94.5 0,-94.5"/>
<text text-anchor="middle" x="55.5" y="-139.5" font-family="Helvetica,sans-Serif" font-size="10.00">irio::ProfileCPUDAQ</text>
<polyline fill="none" stroke="black" points="0,-132.5 111,-132.5 "/>
<text text-anchor="middle" x="55.5" y="-120.5" font-family="Helvetica,sans-Serif" font-size="10.00"> </text>
<polyline fill="none" stroke="black" points="0,-113.5 111,-113.5 "/>
<text text-anchor="start" x="8" y="-101.5" font-family="Helvetica,sans-Serif" font-size="10.00">+ ProfileCPUDAQ()</text>
</a>
</g>
</g>
<!-- Node2&#45;&gt;Node1 -->
<g id="edge1" class="edge">
<title>Node2&#45;&gt;Node1</title>
<path fill="none" stroke="midnightblue" d="M80.19,-85.95C86.65,-76.52 93.51,-66.5 99.61,-57.58"/>
<polygon fill="none" stroke="midnightblue" points="77.16,-84.17 74.4,-94.4 82.94,-88.12 77.16,-84.17"/>
</g>
<!-- Node3 -->
<g id="node3" class="node">
<title>Node3</title>
<g id="a_node3"><a xlink:href="classirio_1_1ProfileBase.html" target="_top" xlink:title="Base profile class.">
<polygon fill="none" stroke="black" points="65,-188.5 65,-289.5 172,-289.5 172,-188.5 65,-188.5"/>
<text text-anchor="middle" x="118.5" y="-277.5" font-family="Helvetica,sans-Serif" font-size="10.00">irio::ProfileBase</text>
<polyline fill="none" stroke="black" points="65,-270.5 172,-270.5 "/>
<text text-anchor="start" x="73" y="-258.5" font-family="Helvetica,sans-Serif" font-size="10.00">+ profileID</text>
<text text-anchor="start" x="73" y="-247.5" font-family="Helvetica,sans-Serif" font-size="10.00">&#45; m_mapTerminals</text>
<polyline fill="none" stroke="black" points="65,-240.5 172,-240.5 "/>
<text text-anchor="start" x="73" y="-228.5" font-family="Helvetica,sans-Serif" font-size="10.00">+ ProfileBase()</text>
<text text-anchor="start" x="73" y="-217.5" font-family="Helvetica,sans-Serif" font-size="10.00">+ ~ProfileBase()</text>
<text text-anchor="start" x="73" y="-206.5" font-family="Helvetica,sans-Serif" font-size="10.00">+ getTerminal()</text>
<text text-anchor="start" x="73" y="-195.5" font-family="Helvetica,sans-Serif" font-size="10.00"># addTerminal()</text>
</a>
</g>
</g>
<!-- Node3&#45;&gt;Node2 -->
<g id="edge2" class="edge">
<title>Node3&#45;&gt;Node2</title>
<path fill="none" stroke="midnightblue" d="M86.13,-179.42C80.76,-169.71 75.42,-160.05 70.75,-151.59"/>
<polygon fill="none" stroke="midnightblue" points="83.15,-181.27 91.05,-188.33 89.28,-177.88 83.15,-181.27"/>
</g>
<!-- Node4 -->
<g id="node4" class="node">
<title>Node4</title>
<g id="a_node4"><a xlink:href="classirio_1_1ProfileFlexRIO.html" target="_top" xlink:title="Profile with the terminals specific to FlexRIO devices.">
<polygon fill="none" stroke="black" points="129,-94.5 129,-151.5 236,-151.5 236,-94.5 129,-94.5"/>
<text text-anchor="middle" x="182.5" y="-139.5" font-family="Helvetica,sans-Serif" font-size="10.00">irio::ProfileFlexRIO</text>
<polyline fill="none" stroke="black" points="129,-132.5 236,-132.5 "/>
<text text-anchor="middle" x="182.5" y="-120.5" font-family="Helvetica,sans-Serif" font-size="10.00"> </text>
<polyline fill="none" stroke="black" points="129,-113.5 236,-113.5 "/>
<text text-anchor="start" x="137" y="-101.5" font-family="Helvetica,sans-Serif" font-size="10.00">+ ProfileFlexRIO()</text>
</a>
</g>
</g>
<!-- Node3&#45;&gt;Node4 -->
<g id="edge4" class="edge">
<title>Node3&#45;&gt;Node4</title>
<path fill="none" stroke="midnightblue" d="M151.39,-179.42C156.84,-169.71 162.26,-160.05 167.01,-151.59"/>
<polygon fill="none" stroke="midnightblue" points="148.23,-177.9 146.39,-188.33 154.33,-181.32 148.23,-177.9"/>
</g>
<!-- Node4&#45;&gt;Node1 -->
<g id="edge3" class="edge">
<title>Node4&#45;&gt;Node1</title>
<path fill="none" stroke="midnightblue" d="M157.42,-85.95C150.86,-76.52 143.89,-66.5 137.69,-57.58"/>
<polygon fill="none" stroke="midnightblue" points="154.71,-88.19 163.3,-94.4 160.46,-84.19 154.71,-88.19"/>
</g>
</g>
</svg>
