<?xml version="1.0" encoding="UTF-8" standalone="no"?>
<!DOCTYPE svg PUBLIC "-//W3C//DTD SVG 1.1//EN"
 "http://www.w3.org/Graphics/SVG/1.1/DTD/svg11.dtd">
<!-- Generated by graphviz version 2.43.0 (0)
 -->
<!-- Title: irio::TerminalsDMADAQ Pages: 1 -->
<svg width="184pt" height="491pt"
 viewBox="0.00 0.00 184.00 491.00" xmlns="http://www.w3.org/2000/svg" xmlns:xlink="http://www.w3.org/1999/xlink">
<g id="graph0" class="graph" transform="scale(1 1) rotate(0) translate(4 487)">
<title>irio::TerminalsDMADAQ</title>
<!-- Node1 -->
<g id="node1" class="node">
<title>Node1</title>
<g id="a_node1"><a xlink:title="Class managing the terminals used for DMA DAQ operations.">
<polygon fill="#bfbfbf" stroke="black" points="0,-94.5 0,-184.5 176,-184.5 176,-94.5 0,-94.5"/>
<text text-anchor="middle" x="88" y="-172.5" font-family="Helvetica,sans-Serif" font-size="10.00">irio::TerminalsDMADAQ</text>
<polyline fill="none" stroke="black" points="0,-165.5 176,-165.5 "/>
<text text-anchor="middle" x="88" y="-153.5" font-family="Helvetica,sans-Serif" font-size="10.00"> </text>
<polyline fill="none" stroke="black" points="0,-146.5 176,-146.5 "/>
<text text-anchor="start" x="8" y="-134.5" font-family="Helvetica,sans-Serif" font-size="10.00">+ TerminalsDMADAQ()</text>
<text text-anchor="start" x="8" y="-123.5" font-family="Helvetica,sans-Serif" font-size="10.00">+ getLengthBlock()</text>
<text text-anchor="start" x="8" y="-112.5" font-family="Helvetica,sans-Serif" font-size="10.00">+ getSamplingRateDecimation()</text>
<text text-anchor="start" x="8" y="-101.5" font-family="Helvetica,sans-Serif" font-size="10.00">+ setSamplingRateDecimation()</text>
</a>
</g>
</g>
<!-- Node4 -->
<g id="node4" class="node">
<title>Node4</title>
<g id="a_node4"><a xlink:href="classirio_1_1TerminalsDMADAQCPU.html" target="_top" xlink:title="Class managing the terminals used for DMA CPU DAQ operations.">
<polygon fill="none" stroke="black" points="12.5,-0.5 12.5,-57.5 163.5,-57.5 163.5,-0.5 12.5,-0.5"/>
<text text-anchor="middle" x="88" y="-45.5" font-family="Helvetica,sans-Serif" font-size="10.00">irio::TerminalsDMADAQCPU</text>
<polyline fill="none" stroke="black" points="12.5,-38.5 163.5,-38.5 "/>
<text text-anchor="middle" x="88" y="-26.5" font-family="Helvetica,sans-Serif" font-size="10.00"> </text>
<polyline fill="none" stroke="black" points="12.5,-19.5 163.5,-19.5 "/>
<text text-anchor="start" x="20.5" y="-7.5" font-family="Helvetica,sans-Serif" font-size="10.00">+ TerminalsDMADAQCPU()</text>
</a>
</g>
</g>
<!-- Node1&#45;&gt;Node4 -->
<g id="edge3" class="edge">
<title>Node1&#45;&gt;Node4</title>
<path fill="none" stroke="midnightblue" d="M88,-84.35C88,-75.07 88,-65.79 88,-57.59"/>
<polygon fill="none" stroke="midnightblue" points="84.5,-84.37 88,-94.37 91.5,-84.37 84.5,-84.37"/>
</g>
<!-- Node2 -->
<g id="node2" class="node">
<title>Node2</title>
<g id="a_node2"><a xlink:href="classirio_1_1TerminalsDMACommon.html" target="_top" xlink:title="Class managing the terminals common to all other terminals that use DMAs in the RIO device.">
<polygon fill="none" stroke="black" points="11.5,-221.5 11.5,-388.5 164.5,-388.5 164.5,-221.5 11.5,-221.5"/>
<text text-anchor="middle" x="88" y="-376.5" font-family="Helvetica,sans-Serif" font-size="10.00">irio::TerminalsDMACommon</text>
<polyline fill="none" stroke="black" points="11.5,-369.5 164.5,-369.5 "/>
<text text-anchor="middle" x="88" y="-357.5" font-family="Helvetica,sans-Serif" font-size="10.00"> </text>
<polyline fill="none" stroke="black" points="11.5,-350.5 164.5,-350.5 "/>
<text text-anchor="start" x="19.5" y="-338.5" font-family="Helvetica,sans-Serif" font-size="10.00">+ TerminalsDMACommon()</text>
<text text-anchor="start" x="19.5" y="-327.5" font-family="Helvetica,sans-Serif" font-size="10.00">+ getNCh()</text>
<text text-anchor="start" x="19.5" y="-316.5" font-family="Helvetica,sans-Serif" font-size="10.00">+ getDMAOverflow()</text>
<text text-anchor="start" x="19.5" y="-305.5" font-family="Helvetica,sans-Serif" font-size="10.00">+ getAllDMAOverflows()</text>
<text text-anchor="start" x="19.5" y="-294.5" font-family="Helvetica,sans-Serif" font-size="10.00">+ getFrameType()</text>
<text text-anchor="start" x="19.5" y="-283.5" font-family="Helvetica,sans-Serif" font-size="10.00">+ getAllFrameType()</text>
<text text-anchor="start" x="19.5" y="-272.5" font-family="Helvetica,sans-Serif" font-size="10.00">+ getSampleSize()</text>
<text text-anchor="start" x="19.5" y="-261.5" font-family="Helvetica,sans-Serif" font-size="10.00">+ getAllSampleSizes()</text>
<text text-anchor="start" x="19.5" y="-250.5" font-family="Helvetica,sans-Serif" font-size="10.00">+ startDMA()</text>
<text text-anchor="start" x="19.5" y="-239.5" font-family="Helvetica,sans-Serif" font-size="10.00">+ startAllDMAs()</text>
<text text-anchor="start" x="19.5" y="-228.5" font-family="Helvetica,sans-Serif" font-size="10.00">and 12 more...</text>
</a>
</g>
</g>
<!-- Node2&#45;&gt;Node1 -->
<g id="edge1" class="edge">
<title>Node2&#45;&gt;Node1</title>
<path fill="none" stroke="midnightblue" d="M88,-211.22C88,-201.99 88,-192.95 88,-184.58"/>
<polygon fill="none" stroke="midnightblue" points="84.5,-211.29 88,-221.29 91.5,-211.29 84.5,-211.29"/>
</g>
<!-- Node3 -->
<g id="node3" class="node">
<title>Node3</title>
<g id="a_node3"><a xlink:href="classirio_1_1TerminalsBase.html" target="_top" xlink:title="Base class for all terminals.">
<polygon fill="none" stroke="black" points="33,-425.5 33,-482.5 143,-482.5 143,-425.5 33,-425.5"/>
<text text-anchor="middle" x="88" y="-470.5" font-family="Helvetica,sans-Serif" font-size="10.00">irio::TerminalsBase</text>
<polyline fill="none" stroke="black" points="33,-463.5 143,-463.5 "/>
<text text-anchor="start" x="41" y="-451.5" font-family="Helvetica,sans-Serif" font-size="10.00"># m_impl</text>
<polyline fill="none" stroke="black" points="33,-444.5 143,-444.5 "/>
<text text-anchor="start" x="41" y="-432.5" font-family="Helvetica,sans-Serif" font-size="10.00">+ TerminalsBase()</text>
</a>
</g>
</g>
<!-- Node3&#45;&gt;Node2 -->
<g id="edge2" class="edge">
<title>Node3&#45;&gt;Node2</title>
<path fill="none" stroke="midnightblue" d="M88,-415.35C88,-407.08 88,-398.01 88,-388.74"/>
<polygon fill="none" stroke="midnightblue" points="84.5,-415.35 88,-425.35 91.5,-415.35 84.5,-415.35"/>
</g>
</g>
</svg>
