<?xml version="1.0" encoding="UTF-8" standalone="no"?>
<!DOCTYPE svg PUBLIC "-//W3C//DTD SVG 1.1//EN"
 "http://www.w3.org/Graphics/SVG/1.1/DTD/svg11.dtd">
<!-- Generated by graphviz version 2.43.0 (0)
 -->
<!-- Title: irio::errors::IrioError Pages: 1 -->
<!--zoomable 381 -->
<svg id="main" version="1.1" xmlns="http://www.w3.org/2000/svg" xmlns:xlink="http://www.w3.org/1999/xlink" xml:space="preserve" onload="init(evt)">
<style type="text/css"><![CDATA[
.edge:hover path { stroke: red; }
.edge:hover polygon { stroke: red; fill: red; }
]]></style>
<script type="text/javascript"><![CDATA[
var edges = document.getElementsByTagName('g');
if (edges && edges.length) {
  for (var i=0;i<edges.length;i++) {
    if (edges[i].id.substr(0,4)=='edge') {
      edges[i].setAttribute('class','edge');
    }
  }
}
]]></script>
        <defs>
                <circle id="rim" cx="0" cy="0" r="7"/>
                <circle id="rim2" cx="0" cy="0" r="3.5"/>
                <g id="zoomPlus">
                        <use xlink:href="#rim" fill="#404040">
                                <set attributeName="fill" to="#808080" begin="zoomplus.mouseover" end="zoomplus.mouseout"/>
                        </use>
                        <path d="M-4,0h8M0,-4v8" fill="none" stroke="white" stroke-width="1.5" pointer-events="none"/>
                </g>
                <g id="zoomMin">
                        <use xlink:href="#rim" fill="#404040">
                                <set attributeName="fill" to="#808080" begin="zoomminus.mouseover" end="zoomminus.mouseout"/>
                        </use>
                        <path d="M-4,0h8" fill="none" stroke="white" stroke-width="1.5" pointer-events="none"/>
                </g>
                <g id="dirArrow">
                        <path fill="none" stroke="white" stroke-width="1.5" d="M0,-3.0v7 M-2.5,-0.5L0,-3.0L2.5,-0.5"/>
                </g>
               <g id="resetDef">
                       <use xlink:href="#rim2" fill="#404040">
                               <set attributeName="fill" to="#808080" begin="reset.mouseover" end="reset.mouseout"/>
                       </use>
               </g>
        </defs>

<script type="text/javascript">
var viewWidth = 2598;
var viewHeight = 381;
var sectionId = 'dynsection-0';
</script>
<script xlink:href="svgpan.js"/>
<svg id="graph" class="graph">
<g id="viewport">
<title>irio::errors::IrioError</title>
<!-- Node1 -->
<g id="node1" class="node">
<title>Node1</title>
<g id="a_node1"><a xlink:title="Base IRIO error.">
<polygon fill="#bfbfbf" stroke="black" points="1219,-221.5 1219,-278.5 1331,-278.5 1331,-221.5 1219,-221.5"/>
<text text-anchor="middle" x="1275" y="-266.5" font-family="Helvetica,sans-Serif" font-size="10.00">irio::errors::IrioError</text>
<polyline fill="none" stroke="black" points="1219,-259.5 1331,-259.5 "/>
<text text-anchor="middle" x="1275" y="-247.5" font-family="Helvetica,sans-Serif" font-size="10.00"> </text>
<polyline fill="none" stroke="black" points="1219,-240.5 1331,-240.5 "/>
<text text-anchor="middle" x="1275" y="-228.5" font-family="Helvetica,sans-Serif" font-size="10.00"> </text>
</a>
</g>
</g>
<!-- Node3 -->
<g id="node3" class="node">
<title>Node3</title>
<g id="a_node3"><a xlink:href="classirio_1_1errors_1_1BFPParseBitfileError.html" target="_top" xlink:title="Exception when an error occurs while parsing the bitfile.">
<polygon fill="none" stroke="black" points="0,-105.5 0,-184.5 146,-184.5 146,-105.5 0,-105.5"/>
<text text-anchor="start" x="8" y="-172.5" font-family="Helvetica,sans-Serif" font-size="10.00">irio::errors::BFPParseBitfile</text>
<text text-anchor="middle" x="73" y="-161.5" font-family="Helvetica,sans-Serif" font-size="10.00">Error</text>
<polyline fill="none" stroke="black" points="0,-154.5 146,-154.5 "/>
<text text-anchor="middle" x="73" y="-142.5" font-family="Helvetica,sans-Serif" font-size="10.00"> </text>
<polyline fill="none" stroke="black" points="0,-135.5 146,-135.5 "/>
<text text-anchor="start" x="8" y="-123.5" font-family="Helvetica,sans-Serif" font-size="10.00">+ BFPParseBitfileError()</text>
<text text-anchor="start" x="8" y="-112.5" font-family="Helvetica,sans-Serif" font-size="10.00">+ BFPParseBitfileError()</text>
</a>
</g>
</g>
<!-- Node1&#45;&gt;Node3 -->
<g id="edge2" class="edge">
<title>Node1&#45;&gt;Node3</title>
<path fill="none" stroke="midnightblue" d="M1208.64,-248.55C999.51,-246.61 356.21,-236.49 155,-185 152.1,-184.26 149.18,-183.41 146.25,-182.48"/>
<polygon fill="none" stroke="midnightblue" points="1208.82,-252.05 1218.85,-248.64 1208.88,-245.05 1208.82,-252.05"/>
</g>
<!-- Node4 -->
<g id="node4" class="node">
<title>Node4</title>
<g id="a_node4"><a xlink:href="classirio_1_1errors_1_1CLUARTInvalidBaudRate.html" target="_top" xlink:title="Exception when the baud rate read is not a valid value.">
<polygon fill="none" stroke="black" points="164,-111 164,-179 318,-179 318,-111 164,-111"/>
<text text-anchor="start" x="172" y="-167" font-family="Helvetica,sans-Serif" font-size="10.00">irio::errors::CLUARTInvalid</text>
<text text-anchor="middle" x="241" y="-156" font-family="Helvetica,sans-Serif" font-size="10.00">BaudRate</text>
<polyline fill="none" stroke="black" points="164,-149 318,-149 "/>
<text text-anchor="middle" x="241" y="-137" font-family="Helvetica,sans-Serif" font-size="10.00"> </text>
<polyline fill="none" stroke="black" points="164,-130 318,-130 "/>
<text text-anchor="start" x="172" y="-118" font-family="Helvetica,sans-Serif" font-size="10.00">+ CLUARTInvalidBaudRate()</text>
</a>
</g>
</g>
<!-- Node1&#45;&gt;Node4 -->
<g id="edge3" class="edge">
<title>Node1&#45;&gt;Node4</title>
<path fill="none" stroke="midnightblue" d="M1208.56,-247.59C1021.72,-243.15 494.4,-227.14 327,-185 320.64,-183.4 314.17,-181.35 307.78,-179.02"/>
<polygon fill="none" stroke="midnightblue" points="1208.71,-251.1 1218.79,-247.83 1208.87,-244.1 1208.71,-251.1"/>
</g>
<!-- Node5 -->
<g id="node5" class="node">
<title>Node5</title>
<g id="a_node5"><a xlink:href="classirio_1_1errors_1_1CLUARTTimeout.html" target="_top" xlink:title="Exception when a timeout occurs in a CL UART operation.">
<polygon fill="none" stroke="black" points="336,-116.5 336,-173.5 488,-173.5 488,-116.5 336,-116.5"/>
<text text-anchor="middle" x="412" y="-161.5" font-family="Helvetica,sans-Serif" font-size="10.00">irio::errors::CLUARTTimeout</text>
<polyline fill="none" stroke="black" points="336,-154.5 488,-154.5 "/>
<text text-anchor="middle" x="412" y="-142.5" font-family="Helvetica,sans-Serif" font-size="10.00"> </text>
<polyline fill="none" stroke="black" points="336,-135.5 488,-135.5 "/>
<text text-anchor="start" x="344" y="-123.5" font-family="Helvetica,sans-Serif" font-size="10.00">+ CLUARTTimeout()</text>
</a>
</g>
</g>
<!-- Node1&#45;&gt;Node5 -->
<g id="edge4" class="edge">
<title>Node1&#45;&gt;Node5</title>
<path fill="none" stroke="midnightblue" d="M1208.63,-246.5C1045.94,-239.9 630.82,-220.04 497,-185 486.32,-182.2 475.32,-178.14 464.91,-173.68"/>
<polygon fill="none" stroke="midnightblue" points="1208.85,-250.01 1218.98,-246.92 1209.13,-243.02 1208.85,-250.01"/>
</g>
<!-- Node6 -->
<g id="node6" class="node">
<title>Node6</title>
<g id="a_node6"><a xlink:href="classirio_1_1errors_1_1DMAReadTimeout.html" target="_top" xlink:title="Exception when a timeout expires while trying to read a DMA.">
<polygon fill="none" stroke="black" points="506.5,-116.5 506.5,-173.5 667.5,-173.5 667.5,-116.5 506.5,-116.5"/>
<text text-anchor="middle" x="587" y="-161.5" font-family="Helvetica,sans-Serif" font-size="10.00">irio::errors::DMAReadTimeout</text>
<polyline fill="none" stroke="black" points="506.5,-154.5 667.5,-154.5 "/>
<text text-anchor="middle" x="587" y="-142.5" font-family="Helvetica,sans-Serif" font-size="10.00"> </text>
<polyline fill="none" stroke="black" points="506.5,-135.5 667.5,-135.5 "/>
<text text-anchor="start" x="514.5" y="-123.5" font-family="Helvetica,sans-Serif" font-size="10.00">+ DMAReadTimeout()</text>
</a>
</g>
</g>
<!-- Node1&#45;&gt;Node6 -->
<g id="edge5" class="edge">
<title>Node1&#45;&gt;Node6</title>
<path fill="none" stroke="midnightblue" d="M1208.65,-248.39C1097.05,-245.94 865.47,-234.69 677,-185 665.97,-182.09 654.55,-178.03 643.69,-173.63"/>
<polygon fill="none" stroke="midnightblue" points="1208.68,-251.89 1218.75,-248.6 1208.82,-244.9 1208.68,-251.89"/>
</g>
<!-- Node7 -->
<g id="node7" class="node">
<title>Node7</title>
<g id="a_node7"><a xlink:href="classirio_1_1errors_1_1FPGAVIVersionMismatchError.html" target="_top" xlink:title="Exception when FPGAVIVersion is not the one expected.">
<polygon fill="none" stroke="black" points="686,-105.5 686,-184.5 864,-184.5 864,-105.5 686,-105.5"/>
<text text-anchor="start" x="694" y="-172.5" font-family="Helvetica,sans-Serif" font-size="10.00">irio::errors::FPGAVIVersion</text>
<text text-anchor="middle" x="775" y="-161.5" font-family="Helvetica,sans-Serif" font-size="10.00">MismatchError</text>
<polyline fill="none" stroke="black" points="686,-154.5 864,-154.5 "/>
<text text-anchor="middle" x="775" y="-142.5" font-family="Helvetica,sans-Serif" font-size="10.00"> </text>
<polyline fill="none" stroke="black" points="686,-135.5 864,-135.5 "/>
<text text-anchor="start" x="694" y="-123.5" font-family="Helvetica,sans-Serif" font-size="10.00">+ FPGAVIVersionMismatchError()</text>
<text text-anchor="start" x="694" y="-112.5" font-family="Helvetica,sans-Serif" font-size="10.00">+ FPGAVIVersionMismatchError()</text>
</a>
</g>
</g>
<!-- Node1&#45;&gt;Node7 -->
<g id="edge6" class="edge">
<title>Node1&#45;&gt;Node7</title>
<path fill="none" stroke="midnightblue" d="M1208.91,-243C1128.46,-234.67 988.99,-216.89 873,-185 870.09,-184.2 867.14,-183.34 864.18,-182.43"/>
<polygon fill="none" stroke="midnightblue" points="1208.6,-246.49 1218.9,-244.02 1209.31,-239.52 1208.6,-246.49"/>
</g>
<!-- Node8 -->
<g id="node8" class="node">
<title>Node8</title>
<g id="a_node8"><a xlink:href="classirio_1_1errors_1_1InitializationTimeoutError.html" target="_top" xlink:title="Exception when InitDone is not ready within a specified timeout.">
<polygon fill="none" stroke="black" points="882,-111 882,-179 1042,-179 1042,-111 882,-111"/>
<text text-anchor="start" x="890" y="-167" font-family="Helvetica,sans-Serif" font-size="10.00">irio::errors::Initialization</text>
<text text-anchor="middle" x="962" y="-156" font-family="Helvetica,sans-Serif" font-size="10.00">TimeoutError</text>
<polyline fill="none" stroke="black" points="882,-149 1042,-149 "/>
<text text-anchor="middle" x="962" y="-137" font-family="Helvetica,sans-Serif" font-size="10.00"> </text>
<polyline fill="none" stroke="black" points="882,-130 1042,-130 "/>
<text text-anchor="start" x="890" y="-118" font-family="Helvetica,sans-Serif" font-size="10.00">+ InitializationTimeoutError()</text>
</a>
</g>
</g>
<!-- Node1&#45;&gt;Node8 -->
<g id="edge7" class="edge">
<title>Node1&#45;&gt;Node8</title>
<path fill="none" stroke="midnightblue" d="M1208.71,-232.57C1163.73,-220.81 1103.18,-203.79 1051,-185 1045.92,-183.17 1040.72,-181.19 1035.51,-179.12"/>
<polygon fill="none" stroke="midnightblue" points="1208.08,-236.02 1218.64,-235.15 1209.84,-229.25 1208.08,-236.02"/>
</g>
<!-- Node9 -->
<g id="node9" class="node">
<title>Node9</title>
<g id="a_node9"><a xlink:href="classirio_1_1errors_1_1ModulesNotOKError.html" target="_top" xlink:title="Exception when the modules installed in the platform are not the ones expected or the FPGA inform tha...">
<polygon fill="none" stroke="black" points="1060.5,-111 1060.5,-179 1191.5,-179 1191.5,-111 1060.5,-111"/>
<text text-anchor="start" x="1068.5" y="-167" font-family="Helvetica,sans-Serif" font-size="10.00">irio::errors::ModulesNot</text>
<text text-anchor="middle" x="1126" y="-156" font-family="Helvetica,sans-Serif" font-size="10.00">OKError</text>
<polyline fill="none" stroke="black" points="1060.5,-149 1191.5,-149 "/>
<text text-anchor="middle" x="1126" y="-137" font-family="Helvetica,sans-Serif" font-size="10.00"> </text>
<polyline fill="none" stroke="black" points="1060.5,-130 1191.5,-130 "/>
<text text-anchor="middle" x="1126" y="-118" font-family="Helvetica,sans-Serif" font-size="10.00"> </text>
</a>
</g>
</g>
<!-- Node1&#45;&gt;Node9 -->
<g id="edge8" class="edge">
<title>Node1&#45;&gt;Node9</title>
<path fill="none" stroke="midnightblue" d="M1226.47,-215.46C1209.64,-203.82 1190.79,-190.79 1174,-179.18"/>
<polygon fill="none" stroke="midnightblue" points="1224.85,-218.59 1235.07,-221.4 1228.84,-212.83 1224.85,-218.59"/>
</g>
<!-- Node10 -->
<g id="node10" class="node">
<title>Node10</title>
<g id="a_node10"><a xlink:href="classirio_1_1errors_1_1NiFpgaError.html" target="_top" xlink:title="Exception when an error returns from a NiFpga_* function.">
<polygon fill="none" stroke="black" points="1209.5,-116.5 1209.5,-173.5 1340.5,-173.5 1340.5,-116.5 1209.5,-116.5"/>
<text text-anchor="middle" x="1275" y="-161.5" font-family="Helvetica,sans-Serif" font-size="10.00">irio::errors::NiFpgaError</text>
<polyline fill="none" stroke="black" points="1209.5,-154.5 1340.5,-154.5 "/>
<text text-anchor="middle" x="1275" y="-142.5" font-family="Helvetica,sans-Serif" font-size="10.00"> </text>
<polyline fill="none" stroke="black" points="1209.5,-135.5 1340.5,-135.5 "/>
<text text-anchor="middle" x="1275" y="-123.5" font-family="Helvetica,sans-Serif" font-size="10.00"> </text>
</a>
</g>
</g>
<!-- Node1&#45;&gt;Node10 -->
<g id="edge9" class="edge">
<title>Node1&#45;&gt;Node10</title>
<path fill="none" stroke="midnightblue" d="M1275,-211.29C1275,-198.84 1275,-185.23 1275,-173.68"/>
<polygon fill="none" stroke="midnightblue" points="1271.5,-211.4 1275,-221.4 1278.5,-211.4 1271.5,-211.4"/>
</g>
<!-- Node13 -->
<g id="node13" class="node">
<title>Node13</title>
<g id="a_node13"><a xlink:href="classirio_1_1errors_1_1RIODeviceNotFoundError.html" target="_top" xlink:title="Exception when the specified RIO Device is not found.">
<polygon fill="none" stroke="black" points="1359,-105.5 1359,-184.5 1515,-184.5 1515,-105.5 1359,-105.5"/>
<text text-anchor="start" x="1367" y="-172.5" font-family="Helvetica,sans-Serif" font-size="10.00">irio::errors::RIODeviceNot</text>
<text text-anchor="middle" x="1437" y="-161.5" font-family="Helvetica,sans-Serif" font-size="10.00">FoundError</text>
<polyline fill="none" stroke="black" points="1359,-154.5 1515,-154.5 "/>
<text text-anchor="middle" x="1437" y="-142.5" font-family="Helvetica,sans-Serif" font-size="10.00"> </text>
<polyline fill="none" stroke="black" points="1359,-135.5 1515,-135.5 "/>
<text text-anchor="start" x="1367" y="-123.5" font-family="Helvetica,sans-Serif" font-size="10.00">+ RIODeviceNotFoundError()</text>
<text text-anchor="start" x="1367" y="-112.5" font-family="Helvetica,sans-Serif" font-size="10.00">+ RIODeviceNotFoundError()</text>
</a>
</g>
</g>
<!-- Node1&#45;&gt;Node13 -->
<g id="edge12" class="edge">
<title>Node1&#45;&gt;Node13</title>
<path fill="none" stroke="midnightblue" d="M1326.97,-215.96C1342.72,-205.94 1360.15,-194.86 1376.41,-184.52"/>
<polygon fill="none" stroke="midnightblue" points="1324.97,-213.08 1318.41,-221.4 1328.73,-218.99 1324.97,-213.08"/>
</g>
<!-- Node14 -->
<g id="node14" class="node">
<title>Node14</title>
<g id="a_node14"><a xlink:href="classirio_1_1errors_1_1RIODiscoveryError.html" target="_top" xlink:title="Exception when an error occurs while searching for the RIO Device.">
<polygon fill="none" stroke="black" points="1533.5,-111 1533.5,-179 1672.5,-179 1672.5,-111 1533.5,-111"/>
<text text-anchor="start" x="1541.5" y="-167" font-family="Helvetica,sans-Serif" font-size="10.00">irio::errors::RIODiscovery</text>
<text text-anchor="middle" x="1603" y="-156" font-family="Helvetica,sans-Serif" font-size="10.00">Error</text>
<polyline fill="none" stroke="black" points="1533.5,-149 1672.5,-149 "/>
<text text-anchor="middle" x="1603" y="-137" font-family="Helvetica,sans-Serif" font-size="10.00"> </text>
<polyline fill="none" stroke="black" points="1533.5,-130 1672.5,-130 "/>
<text text-anchor="middle" x="1603" y="-118" font-family="Helvetica,sans-Serif" font-size="10.00"> </text>
</a>
</g>
</g>
<!-- Node1&#45;&gt;Node14 -->
<g id="edge13" class="edge">
<title>Node1&#45;&gt;Node14</title>
<path fill="none" stroke="midnightblue" d="M1341.28,-235.89C1392.11,-224.89 1463.58,-207.4 1524,-185 1528.88,-183.19 1533.85,-181.18 1538.81,-179.04"/>
<polygon fill="none" stroke="midnightblue" points="1340.44,-232.48 1331.39,-238 1341.9,-239.33 1340.44,-232.48"/>
</g>
<!-- Node15 -->
<g id="node15" class="node">
<title>Node15</title>
<g id="a_node15"><a xlink:href="classirio_1_1errors_1_1ResourceNotFoundError.html" target="_top" xlink:title="Exception when a resource (Register/DMA) is not found.">
<polygon fill="none" stroke="black" points="1691,-105.5 1691,-184.5 1841,-184.5 1841,-105.5 1691,-105.5"/>
<text text-anchor="start" x="1699" y="-172.5" font-family="Helvetica,sans-Serif" font-size="10.00">irio::errors::ResourceNot</text>
<text text-anchor="middle" x="1766" y="-161.5" font-family="Helvetica,sans-Serif" font-size="10.00">FoundError</text>
<polyline fill="none" stroke="black" points="1691,-154.5 1841,-154.5 "/>
<text text-anchor="middle" x="1766" y="-142.5" font-family="Helvetica,sans-Serif" font-size="10.00"> </text>
<polyline fill="none" stroke="black" points="1691,-135.5 1841,-135.5 "/>
<text text-anchor="start" x="1699" y="-123.5" font-family="Helvetica,sans-Serif" font-size="10.00">+ ResourceNotFoundError()</text>
<text text-anchor="start" x="1699" y="-112.5" font-family="Helvetica,sans-Serif" font-size="10.00">+ ResourceNotFoundError()</text>
</a>
</g>
</g>
<!-- Node1&#45;&gt;Node15 -->
<g id="edge14" class="edge">
<title>Node1&#45;&gt;Node15</title>
<path fill="none" stroke="midnightblue" d="M1341.35,-244.15C1422.78,-236.92 1564.4,-220.21 1681,-185 1684.26,-184.01 1687.56,-182.93 1690.87,-181.76"/>
<polygon fill="none" stroke="midnightblue" points="1340.9,-240.67 1331.24,-245.02 1341.51,-247.65 1340.9,-240.67"/>
</g>
<!-- Node16 -->
<g id="node16" class="node">
<title>Node16</title>
<g id="a_node16"><a xlink:href="classirio_1_1errors_1_1TerminalNotImplementedError.html" target="_top" xlink:title="Exception when terminal has not been implemented in the profile.">
<polygon fill="none" stroke="black" points="1859.5,-111 1859.5,-179 2042.5,-179 2042.5,-111 1859.5,-111"/>
<text text-anchor="start" x="1867.5" y="-167" font-family="Helvetica,sans-Serif" font-size="10.00">irio::errors::TerminalNot</text>
<text text-anchor="middle" x="1951" y="-156" font-family="Helvetica,sans-Serif" font-size="10.00">ImplementedError</text>
<polyline fill="none" stroke="black" points="1859.5,-149 2042.5,-149 "/>
<text text-anchor="middle" x="1951" y="-137" font-family="Helvetica,sans-Serif" font-size="10.00"> </text>
<polyline fill="none" stroke="black" points="1859.5,-130 2042.5,-130 "/>
<text text-anchor="start" x="1867.5" y="-118" font-family="Helvetica,sans-Serif" font-size="10.00">+ TerminalNotImplementedError()</text>
</a>
</g>
</g>
<!-- Node1&#45;&gt;Node16 -->
<g id="edge15" class="edge">
<title>Node1&#45;&gt;Node16</title>
<path fill="none" stroke="midnightblue" d="M1341.44,-247.14C1449.52,-242.9 1669.46,-229.12 1850,-185 1856.85,-183.33 1863.86,-181.31 1870.83,-179.08"/>
<polygon fill="none" stroke="midnightblue" points="1341.2,-243.65 1331.34,-247.53 1341.47,-250.64 1341.2,-243.65"/>
</g>
<!-- Node17 -->
<g id="node17" class="node">
<title>Node17</title>
<g id="a_node17"><a xlink:href="classirio_1_1errors_1_1UnsupportedAICouplingForModule.html" target="_top" xlink:title="Exception when trying to set an invalid AI coupling mode for a module.">
<polygon fill="none" stroke="black" points="2061,-105.5 2061,-184.5 2219,-184.5 2219,-105.5 2061,-105.5"/>
<text text-anchor="start" x="2069" y="-172.5" font-family="Helvetica,sans-Serif" font-size="10.00">irio::errors::Unsupported</text>
<text text-anchor="middle" x="2140" y="-161.5" font-family="Helvetica,sans-Serif" font-size="10.00">AICouplingForModule</text>
<polyline fill="none" stroke="black" points="2061,-154.5 2219,-154.5 "/>
<text text-anchor="middle" x="2140" y="-142.5" font-family="Helvetica,sans-Serif" font-size="10.00"> </text>
<polyline fill="none" stroke="black" points="2061,-135.5 2219,-135.5 "/>
<text text-anchor="start" x="2069" y="-123.5" font-family="Helvetica,sans-Serif" font-size="10.00">+ UnsupportedAICouplingFor</text>
<text text-anchor="start" x="2069" y="-112.5" font-family="Helvetica,sans-Serif" font-size="10.00">Module()</text>
</a>
</g>
</g>
<!-- Node1&#45;&gt;Node17 -->
<g id="edge16" class="edge">
<title>Node1&#45;&gt;Node17</title>
<path fill="none" stroke="midnightblue" d="M1341.45,-246.34C1503.84,-239.38 1917.31,-218.8 2051,-185 2054.27,-184.17 2057.57,-183.24 2060.88,-182.21"/>
<polygon fill="none" stroke="midnightblue" points="1340.96,-242.85 1331.12,-246.78 1341.26,-249.85 1340.96,-242.85"/>
</g>
<!-- Node18 -->
<g id="node18" class="node">
<title>Node18</title>
<g id="a_node18"><a xlink:href="classirio_1_1errors_1_1UnsupportedDevProfileError.html" target="_top" xlink:title="Exception when the DevProfile read from the FPGA does not matches any of the supported ones or if the...">
<polygon fill="none" stroke="black" points="2237.5,-105.5 2237.5,-184.5 2408.5,-184.5 2408.5,-105.5 2237.5,-105.5"/>
<text text-anchor="start" x="2245.5" y="-172.5" font-family="Helvetica,sans-Serif" font-size="10.00">irio::errors::Unsupported</text>
<text text-anchor="middle" x="2323" y="-161.5" font-family="Helvetica,sans-Serif" font-size="10.00">DevProfileError</text>
<polyline fill="none" stroke="black" points="2237.5,-154.5 2408.5,-154.5 "/>
<text text-anchor="middle" x="2323" y="-142.5" font-family="Helvetica,sans-Serif" font-size="10.00"> </text>
<polyline fill="none" stroke="black" points="2237.5,-135.5 2408.5,-135.5 "/>
<text text-anchor="start" x="2245.5" y="-123.5" font-family="Helvetica,sans-Serif" font-size="10.00">+ UnsupportedDevProfileError()</text>
<text text-anchor="start" x="2245.5" y="-112.5" font-family="Helvetica,sans-Serif" font-size="10.00">+ UnsupportedDevProfileError()</text>
</a>
</g>
</g>
<!-- Node1&#45;&gt;Node18 -->
<g id="edge17" class="edge">
<title>Node1&#45;&gt;Node18</title>
<path fill="none" stroke="midnightblue" d="M1341.38,-247.32C1528.73,-242.13 2058.87,-224.3 2228,-185 2231.13,-184.27 2234.28,-183.46 2237.45,-182.57"/>
<polygon fill="none" stroke="midnightblue" points="1341.03,-243.83 1331.13,-247.6 1341.22,-250.82 1341.03,-243.83"/>
</g>
<!-- Node19 -->
<g id="node19" class="node">
<title>Node19</title>
<g id="a_node19"><a xlink:href="classirio_1_1errors_1_1UnsupportedPlatformError.html" target="_top" xlink:title="Exception when the platform read from the FPGA does not match any of the supported ones (See platform...">
<polygon fill="none" stroke="black" points="2426.5,-105.5 2426.5,-184.5 2589.5,-184.5 2589.5,-105.5 2426.5,-105.5"/>
<text text-anchor="start" x="2434.5" y="-172.5" font-family="Helvetica,sans-Serif" font-size="10.00">irio::errors::Unsupported</text>
<text text-anchor="middle" x="2508" y="-161.5" font-family="Helvetica,sans-Serif" font-size="10.00">PlatformError</text>
<polyline fill="none" stroke="black" points="2426.5,-154.5 2589.5,-154.5 "/>
<text text-anchor="middle" x="2508" y="-142.5" font-family="Helvetica,sans-Serif" font-size="10.00"> </text>
<polyline fill="none" stroke="black" points="2426.5,-135.5 2589.5,-135.5 "/>
<text text-anchor="start" x="2434.5" y="-123.5" font-family="Helvetica,sans-Serif" font-size="10.00">+ UnsupportedPlatformError()</text>
<text text-anchor="start" x="2434.5" y="-112.5" font-family="Helvetica,sans-Serif" font-size="10.00">+ UnsupportedPlatformError()</text>
</a>
</g>
</g>
<!-- Node1&#45;&gt;Node19 -->
<g id="edge18" class="edge">
<title>Node1&#45;&gt;Node19</title>
<path fill="none" stroke="midnightblue" d="M1341.17,-248.31C1552.65,-245.62 2210.38,-233.47 2417,-185 2420.1,-184.27 2423.22,-183.45 2426.35,-182.54"/>
<polygon fill="none" stroke="midnightblue" points="1341.1,-244.81 1331.14,-248.43 1341.18,-251.81 1341.1,-244.81"/>
</g>
<!-- Node2 -->
<g id="node2" class="node">
<title>Node2</title>
<g id="a_node2"><a xlink:title=" ">
<polygon fill="none" stroke="#bfbfbf" points="1223,-315.5 1223,-372.5 1327,-372.5 1327,-315.5 1223,-315.5"/>
<text text-anchor="middle" x="1275" y="-360.5" font-family="Helvetica,sans-Serif" font-size="10.00">std::runtime_error</text>
<polyline fill="none" stroke="#bfbfbf" points="1223,-353.5 1327,-353.5 "/>
<text text-anchor="middle" x="1275" y="-341.5" font-family="Helvetica,sans-Serif" font-size="10.00"> </text>
<polyline fill="none" stroke="#bfbfbf" points="1223,-334.5 1327,-334.5 "/>
<text text-anchor="middle" x="1275" y="-322.5" font-family="Helvetica,sans-Serif" font-size="10.00"> </text>
</a>
</g>
</g>
<!-- Node2&#45;&gt;Node1 -->
<g id="edge1" class="edge">
<title>Node2&#45;&gt;Node1</title>
<path fill="none" stroke="midnightblue" d="M1275,-305.21C1275,-296.29 1275,-286.95 1275,-278.58"/>
<polygon fill="none" stroke="midnightblue" points="1271.5,-305.4 1275,-315.4 1278.5,-305.4 1271.5,-305.4"/>
</g>
<!-- Node11 -->
<g id="node11" class="node">
<title>Node11</title>
<g id="a_node11"><a xlink:href="classirio_1_1errors_1_1NiFpgaErrorDownloadingBitfile.html" target="_top" xlink:title="Specific error when an error occurs while downloading the bitfile into the FPGA.">
<polygon fill="none" stroke="black" points="1125.5,-0.5 1125.5,-68.5 1256.5,-68.5 1256.5,-0.5 1125.5,-0.5"/>
<text text-anchor="start" x="1133.5" y="-56.5" font-family="Helvetica,sans-Serif" font-size="10.00">irio::errors::NiFpgaError</text>
<text text-anchor="middle" x="1191" y="-45.5" font-family="Helvetica,sans-Serif" font-size="10.00">DownloadingBitfile</text>
<polyline fill="none" stroke="black" points="1125.5,-38.5 1256.5,-38.5 "/>
<text text-anchor="middle" x="1191" y="-26.5" font-family="Helvetica,sans-Serif" font-size="10.00"> </text>
<polyline fill="none" stroke="black" points="1125.5,-19.5 1256.5,-19.5 "/>
<text text-anchor="middle" x="1191" y="-7.5" font-family="Helvetica,sans-Serif" font-size="10.00"> </text>
</a>
</g>
</g>
<!-- Node10&#45;&gt;Node11 -->
<g id="edge10" class="edge">
<title>Node10&#45;&gt;Node11</title>
<path fill="none" stroke="midnightblue" d="M1247.28,-108.19C1237.38,-95.4 1226.27,-81.06 1216.56,-68.52"/>
<polygon fill="none" stroke="midnightblue" points="1244.7,-110.58 1253.59,-116.34 1250.23,-106.29 1244.7,-110.58"/>
</g>
<!-- Node12 -->
<g id="node12" class="node">
<title>Node12</title>
<g id="a_node12"><a xlink:href="classirio_1_1errors_1_1NiFpgaFPGAAlreadyRunning.html" target="_top" xlink:title="Specific error when NiFpga_Run return that the FPGA VI is already running.">
<polygon fill="none" stroke="black" points="1274.5,-0.5 1274.5,-68.5 1445.5,-68.5 1445.5,-0.5 1274.5,-0.5"/>
<text text-anchor="start" x="1282.5" y="-56.5" font-family="Helvetica,sans-Serif" font-size="10.00">irio::errors::NiFpgaFPGAAlready</text>
<text text-anchor="middle" x="1360" y="-45.5" font-family="Helvetica,sans-Serif" font-size="10.00">Running</text>
<polyline fill="none" stroke="black" points="1274.5,-38.5 1445.5,-38.5 "/>
<text text-anchor="middle" x="1360" y="-26.5" font-family="Helvetica,sans-Serif" font-size="10.00"> </text>
<polyline fill="none" stroke="black" points="1274.5,-19.5 1445.5,-19.5 "/>
<text text-anchor="middle" x="1360" y="-7.5" font-family="Helvetica,sans-Serif" font-size="10.00"> </text>
</a>
</g>
</g>
<!-- Node10&#45;&gt;Node12 -->
<g id="edge11" class="edge">
<title>Node10&#45;&gt;Node12</title>
<path fill="none" stroke="midnightblue" d="M1303.05,-108.19C1313.07,-95.4 1324.31,-81.06 1334.13,-68.52"/>
<polygon fill="none" stroke="midnightblue" points="1300.08,-106.31 1296.67,-116.34 1305.59,-110.63 1300.08,-106.31"/>
</g>
</g>
</svg>
        <g id="navigator" transform="translate(0 0)" fill="#404254">
                <rect fill="#f2f5e9" fill-opacity="0.5" stroke="#606060" stroke-width=".5" x="0" y="0" width="60" height="60"/>
                <use id="zoomplus" xlink:href="#zoomPlus" x="17" y="9" onmousedown="handleZoom(evt,'in')"/>
                <use id="zoomminus" xlink:href="#zoomMin" x="42" y="9" onmousedown="handleZoom(evt,'out')"/>
                <use id="reset" xlink:href="#resetDef" x="30" y="36" onmousedown="handleReset()"/>
                <g id="arrowUp" xlink:href="#dirArrow" transform="translate(30 24)" onmousedown="handlePan(0,-1)">
                  <use xlink:href="#rim" fill="#404040">
                        <set attributeName="fill" to="#808080" begin="arrowUp.mouseover" end="arrowUp.mouseout"/>
                  </use>
                  <path fill="none" stroke="white" stroke-width="1.5" d="M0,-3.0v7 M-2.5,-0.5L0,-3.0L2.5,-0.5"/>
                </g>
                <g id="arrowRight" xlink:href="#dirArrow" transform="rotate(90) translate(36 -43)" onmousedown="handlePan(1,0)">
                  <use xlink:href="#rim" fill="#404040">
                        <set attributeName="fill" to="#808080" begin="arrowRight.mouseover" end="arrowRight.mouseout"/>
                  </use>
                  <path fill="none" stroke="white" stroke-width="1.5" d="M0,-3.0v7 M-2.5,-0.5L0,-3.0L2.5,-0.5"/>
                </g>
                <g id="arrowDown" xlink:href="#dirArrow" transform="rotate(180) translate(-30 -48)" onmousedown="handlePan(0,1)">
                  <use xlink:href="#rim" fill="#404040">
                        <set attributeName="fill" to="#808080" begin="arrowDown.mouseover" end="arrowDown.mouseout"/>
                  </use>
                  <path fill="none" stroke="white" stroke-width="1.5" d="M0,-3.0v7 M-2.5,-0.5L0,-3.0L2.5,-0.5"/>
                </g>
                <g id="arrowLeft" xlink:href="#dirArrow" transform="rotate(270) translate(-36 17)" onmousedown="handlePan(-1,0)">
                  <use xlink:href="#rim" fill="#404040">
                        <set attributeName="fill" to="#808080" begin="arrowLeft.mouseover" end="arrowLeft.mouseout"/>
                  </use>
                  <path fill="none" stroke="white" stroke-width="1.5" d="M0,-3.0v7 M-2.5,-0.5L0,-3.0L2.5,-0.5"/>
                </g>
        </g>
        <svg viewBox="0 0 15 15" width="100%" height="30px" preserveAspectRatio="xMaxYMin meet">
         <g id="arrow_out" transform="scale(0.3 0.3)">
          <a xlink:href="classirio_1_1errors_1_1IrioError__inherit__graph_org.svg" target="_base">
           <rect id="button" ry="5" rx="5" y="6" x="6" height="38" width="38"
                fill="#f2f5e9" fill-opacity="0.5" stroke="#606060" stroke-width="1.0"/>
           <path id="arrow"
             d="M 11.500037,31.436501 C 11.940474,20.09759 22.043105,11.32322 32.158766,21.979434 L 37.068811,17.246167 C 37.068811,17.246167 37.088388,32 37.088388,32 L 22.160133,31.978069 C 22.160133,31.978069 26.997745,27.140456 26.997745,27.140456 C 18.528582,18.264221 13.291696,25.230495 11.500037,31.436501 z"
             style="fill:#404040;"/>
          </a>
         </g>
        </svg>
</svg>
