<?xml version="1.0" encoding="UTF-8" standalone="no"?>
<!DOCTYPE svg PUBLIC "-//W3C//DTD SVG 1.1//EN"
 "http://www.w3.org/Graphics/SVG/1.1/DTD/svg11.dtd">
<!-- Generated by graphviz version 2.43.0 (0)
 -->
<!-- Title: irio::errors::NiFpgaError Pages: 1 -->
<svg width="328pt" height="359pt"
 viewBox="0.00 0.00 328.00 359.00" xmlns="http://www.w3.org/2000/svg" xmlns:xlink="http://www.w3.org/1999/xlink">
<g id="graph0" class="graph" transform="scale(1 1) rotate(0) translate(4 355)">
<title>irio::errors::NiFpgaError</title>
<!-- Node1 -->
<g id="node1" class="node">
<title>Node1</title>
<g id="a_node1"><a xlink:title="Exception when an error returns from a NiFpga_* function.">
<polygon fill="#bfbfbf" stroke="black" points="84,-105.5 84,-162.5 215,-162.5 215,-105.5 84,-105.5"/>
<text text-anchor="middle" x="149.5" y="-150.5" font-family="Helvetica,sans-Serif" font-size="10.00">irio::errors::NiFpgaError</text>
<polyline fill="none" stroke="black" points="84,-143.5 215,-143.5 "/>
<text text-anchor="middle" x="149.5" y="-131.5" font-family="Helvetica,sans-Serif" font-size="10.00"> </text>
<polyline fill="none" stroke="black" points="84,-124.5 215,-124.5 "/>
<text text-anchor="middle" x="149.5" y="-112.5" font-family="Helvetica,sans-Serif" font-size="10.00"> </text>
</a>
</g>
</g>
<!-- Node4 -->
<g id="node4" class="node">
<title>Node4</title>
<g id="a_node4"><a xlink:href="classirio_1_1errors_1_1NiFpgaErrorDownloadingBitfile.html" target="_top" xlink:title="Specific error when an error occurs while downloading the bitfile into the FPGA.">
<polygon fill="none" stroke="black" points="0,-0.5 0,-68.5 131,-68.5 131,-0.5 0,-0.5"/>
<text text-anchor="start" x="8" y="-56.5" font-family="Helvetica,sans-Serif" font-size="10.00">irio::errors::NiFpgaError</text>
<text text-anchor="middle" x="65.5" y="-45.5" font-family="Helvetica,sans-Serif" font-size="10.00">DownloadingBitfile</text>
<polyline fill="none" stroke="black" points="0,-38.5 131,-38.5 "/>
<text text-anchor="middle" x="65.5" y="-26.5" font-family="Helvetica,sans-Serif" font-size="10.00"> </text>
<polyline fill="none" stroke="black" points="0,-19.5 131,-19.5 "/>
<text text-anchor="middle" x="65.5" y="-7.5" font-family="Helvetica,sans-Serif" font-size="10.00"> </text>
</a>
</g>
</g>
<!-- Node1&#45;&gt;Node4 -->
<g id="edge3" class="edge">
<title>Node1&#45;&gt;Node4</title>
<path fill="none" stroke="midnightblue" d="M119.02,-97.62C110.91,-88.21 102.18,-78.08 94.18,-68.79"/>
<polygon fill="none" stroke="midnightblue" points="116.47,-100.03 125.65,-105.32 121.78,-95.46 116.47,-100.03"/>
</g>
<!-- Node5 -->
<g id="node5" class="node">
<title>Node5</title>
<g id="a_node5"><a xlink:href="classirio_1_1errors_1_1NiFpgaFPGAAlreadyRunning.html" target="_top" xlink:title="Specific error when NiFpga_Run return that the FPGA VI is already running.">
<polygon fill="none" stroke="black" points="149,-0.5 149,-68.5 320,-68.5 320,-0.5 149,-0.5"/>
<text text-anchor="start" x="157" y="-56.5" font-family="Helvetica,sans-Serif" font-size="10.00">irio::errors::NiFpgaFPGAAlready</text>
<text text-anchor="middle" x="234.5" y="-45.5" font-family="Helvetica,sans-Serif" font-size="10.00">Running</text>
<polyline fill="none" stroke="black" points="149,-38.5 320,-38.5 "/>
<text text-anchor="middle" x="234.5" y="-26.5" font-family="Helvetica,sans-Serif" font-size="10.00"> </text>
<polyline fill="none" stroke="black" points="149,-19.5 320,-19.5 "/>
<text text-anchor="middle" x="234.5" y="-7.5" font-family="Helvetica,sans-Serif" font-size="10.00"> </text>
</a>
</g>
</g>
<!-- Node1&#45;&gt;Node5 -->
<g id="edge4" class="edge">
<title>Node1&#45;&gt;Node5</title>
<path fill="none" stroke="midnightblue" d="M180.34,-97.62C188.55,-88.21 197.38,-78.08 205.48,-68.79"/>
<polygon fill="none" stroke="midnightblue" points="177.56,-95.48 173.63,-105.32 182.84,-100.08 177.56,-95.48"/>
</g>
<!-- Node2 -->
<g id="node2" class="node">
<title>Node2</title>
<g id="a_node2"><a xlink:href="classirio_1_1errors_1_1IrioError.html" target="_top" xlink:title="Base IRIO error.">
<polygon fill="none" stroke="black" points="93.5,-199.5 93.5,-256.5 205.5,-256.5 205.5,-199.5 93.5,-199.5"/>
<text text-anchor="middle" x="149.5" y="-244.5" font-family="Helvetica,sans-Serif" font-size="10.00">irio::errors::IrioError</text>
<polyline fill="none" stroke="black" points="93.5,-237.5 205.5,-237.5 "/>
<text text-anchor="middle" x="149.5" y="-225.5" font-family="Helvetica,sans-Serif" font-size="10.00"> </text>
<polyline fill="none" stroke="black" points="93.5,-218.5 205.5,-218.5 "/>
<text text-anchor="middle" x="149.5" y="-206.5" font-family="Helvetica,sans-Serif" font-size="10.00"> </text>
</a>
</g>
</g>
<!-- Node2&#45;&gt;Node1 -->
<g id="edge1" class="edge">
<title>Node2&#45;&gt;Node1</title>
<path fill="none" stroke="midnightblue" d="M149.5,-189.21C149.5,-180.29 149.5,-170.95 149.5,-162.58"/>
<polygon fill="none" stroke="midnightblue" points="146,-189.4 149.5,-199.4 153,-189.4 146,-189.4"/>
</g>
<!-- Node3 -->
<g id="node3" class="node">
<title>Node3</title>
<g id="a_node3"><a xlink:title=" ">
<polygon fill="none" stroke="#bfbfbf" points="97.5,-293.5 97.5,-350.5 201.5,-350.5 201.5,-293.5 97.5,-293.5"/>
<text text-anchor="middle" x="149.5" y="-338.5" font-family="Helvetica,sans-Serif" font-size="10.00">std::runtime_error</text>
<polyline fill="none" stroke="#bfbfbf" points="97.5,-331.5 201.5,-331.5 "/>
<text text-anchor="middle" x="149.5" y="-319.5" font-family="Helvetica,sans-Serif" font-size="10.00"> </text>
<polyline fill="none" stroke="#bfbfbf" points="97.5,-312.5 201.5,-312.5 "/>
<text text-anchor="middle" x="149.5" y="-300.5" font-family="Helvetica,sans-Serif" font-size="10.00"> </text>
</a>
</g>
</g>
<!-- Node3&#45;&gt;Node2 -->
<g id="edge2" class="edge">
<title>Node3&#45;&gt;Node2</title>
<path fill="none" stroke="midnightblue" d="M149.5,-283.21C149.5,-274.29 149.5,-264.95 149.5,-256.58"/>
<polygon fill="none" stroke="midnightblue" points="146,-283.4 149.5,-293.4 153,-283.4 146,-283.4"/>
</g>
</g>
</svg>
