<?xml version="1.0" encoding="UTF-8" standalone="no"?>
<!DOCTYPE svg PUBLIC "-//W3C//DTD SVG 1.1//EN"
 "http://www.w3.org/Graphics/SVG/1.1/DTD/svg11.dtd">
<!-- Generated by graphviz version 2.43.0 (0)
 -->
<!-- Title: irio::errors::UnsupportedDevProfileError Pages: 1 -->
<svg width="179pt" height="276pt"
 viewBox="0.00 0.00 179.00 276.00" xmlns="http://www.w3.org/2000/svg" xmlns:xlink="http://www.w3.org/1999/xlink">
<g id="graph0" class="graph" transform="scale(1 1) rotate(0) translate(4 272)">
<title>irio::errors::UnsupportedDevProfileError</title>
<!-- Node1 -->
<g id="node1" class="node">
<title>Node1</title>
<g id="a_node1"><a xlink:title="Exception when the DevProfile read from the FPGA does not matches any of the supported ones or if the...">
<polygon fill="#bfbfbf" stroke="black" points="0,-0.5 0,-79.5 171,-79.5 171,-0.5 0,-0.5"/>
<text text-anchor="start" x="8" y="-67.5" font-family="Helvetica,sans-Serif" font-size="10.00">irio::errors::Unsupported</text>
<text text-anchor="middle" x="85.5" y="-56.5" font-family="Helvetica,sans-Serif" font-size="10.00">DevProfileError</text>
<polyline fill="none" stroke="black" points="0,-49.5 171,-49.5 "/>
<text text-anchor="middle" x="85.5" y="-37.5" font-family="Helvetica,sans-Serif" font-size="10.00"> </text>
<polyline fill="none" stroke="black" points="0,-30.5 171,-30.5 "/>
<text text-anchor="start" x="8" y="-18.5" font-family="Helvetica,sans-Serif" font-size="10.00">+ UnsupportedDevProfileError()</text>
<text text-anchor="start" x="8" y="-7.5" font-family="Helvetica,sans-Serif" font-size="10.00">+ UnsupportedDevProfileError()</text>
</a>
</g>
</g>
<!-- Node2 -->
<g id="node2" class="node">
<title>Node2</title>
<g id="a_node2"><a xlink:href="classirio_1_1errors_1_1IrioError.html" target="_top" xlink:title="Base IRIO error.">
<polygon fill="none" stroke="black" points="29.5,-116.5 29.5,-173.5 141.5,-173.5 141.5,-116.5 29.5,-116.5"/>
<text text-anchor="middle" x="85.5" y="-161.5" font-family="Helvetica,sans-Serif" font-size="10.00">irio::errors::IrioError</text>
<polyline fill="none" stroke="black" points="29.5,-154.5 141.5,-154.5 "/>
<text text-anchor="middle" x="85.5" y="-142.5" font-family="Helvetica,sans-Serif" font-size="10.00"> </text>
<polyline fill="none" stroke="black" points="29.5,-135.5 141.5,-135.5 "/>
<text text-anchor="middle" x="85.5" y="-123.5" font-family="Helvetica,sans-Serif" font-size="10.00"> </text>
</a>
</g>
</g>
<!-- Node2&#45;&gt;Node1 -->
<g id="edge1" class="edge">
<title>Node2&#45;&gt;Node1</title>
<path fill="none" stroke="midnightblue" d="M85.5,-106.16C85.5,-97.47 85.5,-88.23 85.5,-79.52"/>
<polygon fill="none" stroke="midnightblue" points="82,-106.4 85.5,-116.4 89,-106.4 82,-106.4"/>
</g>
<!-- Node3 -->
<g id="node3" class="node">
<title>Node3</title>
<g id="a_node3"><a xlink:title=" ">
<polygon fill="none" stroke="#bfbfbf" points="33.5,-210.5 33.5,-267.5 137.5,-267.5 137.5,-210.5 33.5,-210.5"/>
<text text-anchor="middle" x="85.5" y="-255.5" font-family="Helvetica,sans-Serif" font-size="10.00">std::runtime_error</text>
<polyline fill="none" stroke="#bfbfbf" points="33.5,-248.5 137.5,-248.5 "/>
<text text-anchor="middle" x="85.5" y="-236.5" font-family="Helvetica,sans-Serif" font-size="10.00"> </text>
<polyline fill="none" stroke="#bfbfbf" points="33.5,-229.5 137.5,-229.5 "/>
<text text-anchor="middle" x="85.5" y="-217.5" font-family="Helvetica,sans-Serif" font-size="10.00"> </text>
</a>
</g>
</g>
<!-- Node3&#45;&gt;Node2 -->
<g id="edge2" class="edge">
<title>Node3&#45;&gt;Node2</title>
<path fill="none" stroke="midnightblue" d="M85.5,-200.21C85.5,-191.29 85.5,-181.95 85.5,-173.58"/>
<polygon fill="none" stroke="midnightblue" points="82,-200.4 85.5,-210.4 89,-200.4 82,-200.4"/>
</g>
</g>
</svg>
