<?xml version="1.0" encoding="UTF-8" standalone="no"?>
<!DOCTYPE svg PUBLIC "-//W3C//DTD SVG 1.1//EN"
 "http://www.w3.org/Graphics/SVG/1.1/DTD/svg11.dtd">
<!-- Generated by graphviz version 2.43.0 (0)
 -->
<!-- Title: profiles Pages: 1 -->
<svg width="104pt" height="167pt"
 viewBox="0.00 0.00 104.00 167.00" xmlns="http://www.w3.org/2000/svg" xmlns:xlink="http://www.w3.org/1999/xlink">
<g id="graph0" class="graph" transform="scale(1 1) rotate(0) translate(4 163)">
<title>profiles</title>
<g id="clust1" class="cluster">
<title>clusterdir_cd034827b11836ebb3ad7ad6bdab8663</title>
<g id="a_clust1"><a xlink:href="dir_cd034827b11836ebb3ad7ad6bdab8663.html" target="_top" xlink:title="include">
<polygon fill="#ddddee" stroke="black" points="8,-8 8,-151 88,-151 88,-8 8,-8"/>
<text text-anchor="middle" x="48" y="-139" font-family="Helvetica,sans-Serif" font-size="10.00">include</text>
</a>
</g>
</g>
<!-- dir_3eac77aa5b44720c4e655a879deafd5b -->
<g id="node1" class="node">
<title>dir_3eac77aa5b44720c4e655a879deafd5b</title>
<g id="a_node1"><a xlink:href="dir_3eac77aa5b44720c4e655a879deafd5b.html" target="_top" xlink:title="terminals">
<polygon fill="none" stroke="red" points="79.5,-52 16.5,-52 16.5,-16 79.5,-16 79.5,-52"/>
<text text-anchor="middle" x="48" y="-31.5" font-family="Helvetica,sans-Serif" font-size="10.00">terminals</text>
</a>
</g>
</g>
<!-- dir_ffe975955b80131574d99e35a74413ff -->
<g id="node2" class="node">
<title>dir_ffe975955b80131574d99e35a74413ff</title>
<g id="a_node2"><a xlink:href="dir_ffe975955b80131574d99e35a74413ff.html" target="_top" xlink:title="profiles">
<polygon fill="#eeeeff" stroke="black" points="75,-124 21,-124 21,-88 75,-88 75,-124"/>
<text text-anchor="middle" x="48" y="-103.5" font-family="Helvetica,sans-Serif" font-size="10.00">profiles</text>
</a>
</g>
</g>
<!-- dir_ffe975955b80131574d99e35a74413ff&#45;&gt;dir_3eac77aa5b44720c4e655a879deafd5b -->
<g id="edge1" class="edge">
<title>dir_ffe975955b80131574d99e35a74413ff&#45;&gt;dir_3eac77aa5b44720c4e655a879deafd5b</title>
<path fill="none" stroke="black" d="M48,-87.7C48,-79.98 48,-70.71 48,-62.11"/>
<polygon fill="black" stroke="black" points="51.5,-62.1 48,-52.1 44.5,-62.1 51.5,-62.1"/>
<g id="a_edge1&#45;headlabel"><a xlink:href="dir_000006_000004.html" target="_top" xlink:title="1">
<text text-anchor="middle" x="54.34" y="-63.2" font-family="Helvetica,sans-Serif" font-size="10.00">1</text>
</a>
</g>
</g>
</g>
</svg>
