<?xml version="1.0" encoding="UTF-8" standalone="no"?>
<!DOCTYPE svg PUBLIC "-//W3C//DTD SVG 1.1//EN"
 "http://www.w3.org/Graphics/SVG/1.1/DTD/svg11.dtd">
<!-- Generated by graphviz version 2.43.0 (0)
 -->
<!-- Title: include Pages: 1 -->
<svg width="236pt" height="183pt"
 viewBox="0.00 0.00 236.00 183.00" xmlns="http://www.w3.org/2000/svg" xmlns:xlink="http://www.w3.org/1999/xlink">
<g id="graph0" class="graph" transform="scale(1 1) rotate(0) translate(4 179)">
<title>include</title>
<g id="clust1" class="cluster">
<title>clusterdir_a0b8bf564a7961ebe59b94c5105b13bd</title>
<g id="a_clust1"><a xlink:href="dir_a0b8bf564a7961ebe59b94c5105b13bd.html" target="_top" xlink:title="irioCoreCpp">
<polygon fill="#ddddee" stroke="black" points="8,-8 8,-167 166,-167 166,-8 8,-8"/>
<text text-anchor="middle" x="87" y="-155" font-family="Helvetica,sans-Serif" font-size="10.00">irioCoreCpp</text>
</a>
</g>
</g>
<g id="clust2" class="cluster">
<title>clusterdir_cd034827b11836ebb3ad7ad6bdab8663</title>
<g id="a_clust2"><a xlink:href="dir_cd034827b11836ebb3ad7ad6bdab8663.html" target="_top">
<polygon fill="#eeeeff" stroke="black" points="16,-16 16,-140 158,-140 158,-16 16,-16"/>
</a>
</g>
</g>
<!-- dir_cd034827b11836ebb3ad7ad6bdab8663 -->
<g id="node1" class="node">
<title>dir_cd034827b11836ebb3ad7ad6bdab8663</title>
<text text-anchor="middle" x="123" y="-111.5" font-family="Helvetica,sans-Serif" font-size="10.00">include</text>
</g>
<!-- dir_3eac77aa5b44720c4e655a879deafd5b -->
<g id="node3" class="node">
<title>dir_3eac77aa5b44720c4e655a879deafd5b</title>
<g id="a_node3"><a xlink:href="dir_3eac77aa5b44720c4e655a879deafd5b.html" target="_top" xlink:title="terminals">
<polygon fill="white" stroke="red" points="118.5,-60 55.5,-60 55.5,-24 118.5,-24 118.5,-60"/>
<text text-anchor="middle" x="87" y="-39.5" font-family="Helvetica,sans-Serif" font-size="10.00">terminals</text>
</a>
</g>
</g>
<!-- dir_cd034827b11836ebb3ad7ad6bdab8663&#45;&gt;dir_3eac77aa5b44720c4e655a879deafd5b -->
<g id="edge1" class="edge">
<title>dir_cd034827b11836ebb3ad7ad6bdab8663&#45;&gt;dir_3eac77aa5b44720c4e655a879deafd5b</title>
<path fill="none" stroke="black" d="M114.1,-95.7C110,-87.73 105.05,-78.1 100.51,-69.26"/>
<polygon fill="black" stroke="black" points="103.48,-67.4 95.8,-60.1 97.26,-70.6 103.48,-67.4"/>
<g id="a_edge1&#45;headlabel"><a xlink:href="dir_000003_000004.html" target="_top" xlink:title="2">
<text text-anchor="middle" x="107.65" y="-66.79" font-family="Helvetica,sans-Serif" font-size="10.00">2</text>
</a>
</g>
</g>
<!-- dir_e850c88a483edda50098ec4ab1429998 -->
<g id="node4" class="node">
<title>dir_e850c88a483edda50098ec4ab1429998</title>
<g id="a_node4"><a xlink:href="dir_e850c88a483edda50098ec4ab1429998.html" target="_top" xlink:title="bfp">
<polygon fill="none" stroke="red" points="228,-60 174,-60 174,-24 228,-24 228,-60"/>
<text text-anchor="middle" x="201" y="-39.5" font-family="Helvetica,sans-Serif" font-size="10.00">bfp</text>
</a>
</g>
</g>
<!-- dir_cd034827b11836ebb3ad7ad6bdab8663&#45;&gt;dir_e850c88a483edda50098ec4ab1429998 -->
<g id="edge2" class="edge">
<title>dir_cd034827b11836ebb3ad7ad6bdab8663&#45;&gt;dir_e850c88a483edda50098ec4ab1429998</title>
<path fill="none" stroke="black" d="M142.28,-95.7C151.92,-87.05 163.73,-76.45 174.23,-67.03"/>
<polygon fill="black" stroke="black" points="176.84,-69.39 181.94,-60.1 172.16,-64.18 176.84,-69.39"/>
<g id="a_edge2&#45;headlabel"><a xlink:href="dir_000003_000000.html" target="_top" xlink:title="2">
<text text-anchor="middle" x="176.06" y="-71.4" font-family="Helvetica,sans-Serif" font-size="10.00">2</text>
</a>
</g>
</g>
<!-- dir_ffe975955b80131574d99e35a74413ff -->
<g id="node2" class="node">
<title>dir_ffe975955b80131574d99e35a74413ff</title>
<g id="a_node2"><a xlink:href="dir_ffe975955b80131574d99e35a74413ff.html" target="_top" xlink:title="profiles">
<polygon fill="white" stroke="black" points="78,-132 24,-132 24,-96 78,-96 78,-132"/>
<text text-anchor="middle" x="51" y="-111.5" font-family="Helvetica,sans-Serif" font-size="10.00">profiles</text>
</a>
</g>
</g>
<!-- dir_ffe975955b80131574d99e35a74413ff&#45;&gt;dir_3eac77aa5b44720c4e655a879deafd5b -->
<g id="edge3" class="edge">
<title>dir_ffe975955b80131574d99e35a74413ff&#45;&gt;dir_3eac77aa5b44720c4e655a879deafd5b</title>
<path fill="none" stroke="black" d="M59.9,-95.7C64,-87.73 68.95,-78.1 73.49,-69.26"/>
<polygon fill="black" stroke="black" points="76.74,-70.6 78.2,-60.1 70.52,-67.4 76.74,-70.6"/>
<g id="a_edge3&#45;headlabel"><a xlink:href="dir_000006_000004.html" target="_top" xlink:title="1">
<text text-anchor="middle" x="77.62" y="-72.59" font-family="Helvetica,sans-Serif" font-size="10.00">1</text>
</a>
</g>
</g>
</g>
</svg>
