<?xml version="1.0" encoding="UTF-8" standalone="no"?>
<!DOCTYPE svg PUBLIC "-//W3C//DTD SVG 1.1//EN"
 "http://www.w3.org/Graphics/SVG/1.1/DTD/svg11.dtd">
<!-- Generated by graphviz version 2.43.0 (0)
 -->
<!-- Title: dma.h Pages: 1 -->
<svg width="256pt" height="196pt"
 viewBox="0.00 0.00 256.32 196.00" xmlns="http://www.w3.org/2000/svg" xmlns:xlink="http://www.w3.org/1999/xlink">
<g id="graph0" class="graph" transform="scale(1 1) rotate(0) translate(4 192)">
<title>dma.h</title>
<!-- Node1 -->
<g id="node1" class="node">
<title>Node1</title>
<g id="a_node1"><a xlink:title=" ">
<polygon fill="#bfbfbf" stroke="black" points="29.32,-168.5 29.32,-187.5 76.32,-187.5 76.32,-168.5 29.32,-168.5"/>
<text text-anchor="middle" x="52.82" y="-175.5" font-family="Helvetica,sans-Serif" font-size="10.00">dma.h</text>
</a>
</g>
</g>
<!-- Node2 -->
<g id="node2" class="node">
<title>Node2</title>
<g id="a_node2"><a xlink:title=" ">
<polygon fill="none" stroke="#bfbfbf" points="28.82,-0.5 28.82,-19.5 72.82,-19.5 72.82,-0.5 28.82,-0.5"/>
<text text-anchor="middle" x="50.82" y="-7.5" font-family="Helvetica,sans-Serif" font-size="10.00">string</text>
</a>
</g>
</g>
<!-- Node1&#45;&gt;Node2 -->
<g id="edge1" class="edge">
<title>Node1&#45;&gt;Node2</title>
<path fill="none" stroke="midnightblue" d="M38.45,-168.33C26.94,-160.47 11.63,-147.72 4.82,-132 -11.11,-95.25 17.44,-51.02 36.25,-27.54"/>
<polygon fill="midnightblue" stroke="midnightblue" points="39.15,-29.53 42.87,-19.62 33.78,-25.05 39.15,-29.53"/>
</g>
<!-- Node3 -->
<g id="node3" class="node">
<title>Node3</title>
<g id="a_node3"><a xlink:title=" ">
<polygon fill="none" stroke="#bfbfbf" points="14.32,-112.5 14.32,-131.5 91.32,-131.5 91.32,-112.5 14.32,-112.5"/>
<text text-anchor="middle" x="52.82" y="-119.5" font-family="Helvetica,sans-Serif" font-size="10.00">pugixml.hpp</text>
</a>
</g>
</g>
<!-- Node1&#45;&gt;Node3 -->
<g id="edge2" class="edge">
<title>Node1&#45;&gt;Node3</title>
<path fill="none" stroke="midnightblue" d="M52.82,-168.08C52.82,-161.01 52.82,-150.86 52.82,-141.99"/>
<polygon fill="midnightblue" stroke="midnightblue" points="56.32,-141.75 52.82,-131.75 49.32,-141.75 56.32,-141.75"/>
</g>
<!-- Node4 -->
<g id="node4" class="node">
<title>Node4</title>
<g id="a_node4"><a xlink:href="resource_8h.html" target="_top" xlink:title=" ">
<polygon fill="none" stroke="black" points="109.82,-112.5 109.82,-131.5 177.82,-131.5 177.82,-112.5 109.82,-112.5"/>
<text text-anchor="middle" x="143.82" y="-119.5" font-family="Helvetica,sans-Serif" font-size="10.00">resource.h</text>
</a>
</g>
</g>
<!-- Node1&#45;&gt;Node4 -->
<g id="edge3" class="edge">
<title>Node1&#45;&gt;Node4</title>
<path fill="none" stroke="midnightblue" d="M67.44,-168.32C81.77,-159.82 103.83,-146.73 120.57,-136.8"/>
<polygon fill="midnightblue" stroke="midnightblue" points="122.42,-139.77 129.23,-131.65 118.85,-133.75 122.42,-139.77"/>
</g>
<!-- Node4&#45;&gt;Node2 -->
<g id="edge4" class="edge">
<title>Node4&#45;&gt;Node2</title>
<path fill="none" stroke="midnightblue" d="M120.94,-112.41C104.46,-105.1 82.9,-93.06 69.82,-76 59.54,-62.6 54.81,-43.78 52.65,-29.84"/>
<polygon fill="midnightblue" stroke="midnightblue" points="56.12,-29.38 51.4,-19.9 49.17,-30.26 56.12,-29.38"/>
</g>
<!-- Node5 -->
<g id="node5" class="node">
<title>Node5</title>
<g id="a_node5"><a xlink:href="fpgatypes_8h.html" target="_top" xlink:title=" ">
<polygon fill="none" stroke="black" points="78.82,-56.5 78.82,-75.5 152.82,-75.5 152.82,-56.5 78.82,-56.5"/>
<text text-anchor="middle" x="115.82" y="-63.5" font-family="Helvetica,sans-Serif" font-size="10.00">fpgatypes.h</text>
</a>
</g>
</g>
<!-- Node4&#45;&gt;Node5 -->
<g id="edge5" class="edge">
<title>Node4&#45;&gt;Node5</title>
<path fill="none" stroke="midnightblue" d="M139.19,-112.08C135.36,-104.69 129.79,-93.95 125.05,-84.81"/>
<polygon fill="midnightblue" stroke="midnightblue" points="128.06,-83.02 120.35,-75.75 121.85,-86.24 128.06,-83.02"/>
</g>
<!-- Node6 -->
<g id="node6" class="node">
<title>Node6</title>
<g id="a_node6"><a xlink:href="elemtypes_8h.html" target="_top" xlink:title=" ">
<polygon fill="none" stroke="black" points="171.32,-56.5 171.32,-75.5 248.32,-75.5 248.32,-56.5 171.32,-56.5"/>
<text text-anchor="middle" x="209.82" y="-63.5" font-family="Helvetica,sans-Serif" font-size="10.00">elemtypes.h</text>
</a>
</g>
</g>
<!-- Node4&#45;&gt;Node6 -->
<g id="edge6" class="edge">
<title>Node4&#45;&gt;Node6</title>
<path fill="none" stroke="midnightblue" d="M154.42,-112.32C164.27,-104.26 179.17,-92.08 191.03,-82.37"/>
<polygon fill="midnightblue" stroke="midnightblue" points="193.5,-84.88 199.02,-75.83 189.06,-79.46 193.5,-84.88"/>
</g>
<!-- Node6&#45;&gt;Node2 -->
<g id="edge7" class="edge">
<title>Node6&#45;&gt;Node2</title>
<path fill="none" stroke="midnightblue" d="M184.62,-56.44C156.93,-47.04 112.4,-31.91 82.39,-21.72"/>
<polygon fill="midnightblue" stroke="midnightblue" points="83.42,-18.37 72.82,-18.47 81.16,-25 83.42,-18.37"/>
</g>
</g>
</svg>
