<?xml version="1.0" encoding="UTF-8" standalone="no"?>
<!DOCTYPE svg PUBLIC "-//W3C//DTD SVG 1.1//EN"
 "http://www.w3.org/Graphics/SVG/1.1/DTD/svg11.dtd">
<!-- Generated by graphviz version 2.43.0 (0)
 -->
<!-- Title: fpgatypes.h Pages: 1 -->
<svg width="172pt" height="252pt"
 viewBox="0.00 0.00 171.50 252.00" xmlns="http://www.w3.org/2000/svg" xmlns:xlink="http://www.w3.org/1999/xlink">
<g id="graph0" class="graph" transform="scale(1 1) rotate(0) translate(4 248)">
<title>fpgatypes.h</title>
<!-- Node1 -->
<g id="node1" class="node">
<title>Node1</title>
<g id="a_node1"><a xlink:title=" ">
<polygon fill="#bfbfbf" stroke="black" points="57,-224.5 57,-243.5 131,-243.5 131,-224.5 57,-224.5"/>
<text text-anchor="middle" x="94" y="-231.5" font-family="Helvetica,sans-Serif" font-size="10.00">fpgatypes.h</text>
</a>
</g>
</g>
<!-- Node2 -->
<g id="node2" class="node">
<title>Node2</title>
<g id="a_node2"><a xlink:href="resource_8h.html" target="_top" xlink:title=" ">
<polygon fill="none" stroke="black" points="60,-168.5 60,-187.5 128,-187.5 128,-168.5 60,-168.5"/>
<text text-anchor="middle" x="94" y="-175.5" font-family="Helvetica,sans-Serif" font-size="10.00">resource.h</text>
</a>
</g>
</g>
<!-- Node1&#45;&gt;Node2 -->
<g id="edge1" class="edge">
<title>Node1&#45;&gt;Node2</title>
<path fill="none" stroke="midnightblue" d="M94,-213.8C94,-204.91 94,-194.78 94,-187.75"/>
<polygon fill="midnightblue" stroke="midnightblue" points="90.5,-214.08 94,-224.08 97.5,-214.08 90.5,-214.08"/>
</g>
<!-- Node3 -->
<g id="node3" class="node">
<title>Node3</title>
<g id="a_node3"><a xlink:href="dma_8h.html" target="_top" xlink:title=" ">
<polygon fill="none" stroke="black" points="34.5,-112.5 34.5,-131.5 81.5,-131.5 81.5,-112.5 34.5,-112.5"/>
<text text-anchor="middle" x="58" y="-119.5" font-family="Helvetica,sans-Serif" font-size="10.00">dma.h</text>
</a>
</g>
</g>
<!-- Node2&#45;&gt;Node3 -->
<g id="edge2" class="edge">
<title>Node2&#45;&gt;Node3</title>
<path fill="none" stroke="midnightblue" d="M82.38,-159.57C76.18,-150.27 68.83,-139.25 63.83,-131.75"/>
<polygon fill="midnightblue" stroke="midnightblue" points="79.6,-161.7 88.06,-168.08 85.42,-157.82 79.6,-161.7"/>
</g>
<!-- Node7 -->
<g id="node7" class="node">
<title>Node7</title>
<g id="a_node7"><a xlink:href="register_8h.html" target="_top" xlink:title=" ">
<polygon fill="none" stroke="black" points="100,-112.5 100,-131.5 162,-131.5 162,-112.5 100,-112.5"/>
<text text-anchor="middle" x="131" y="-119.5" font-family="Helvetica,sans-Serif" font-size="10.00">register.h</text>
</a>
</g>
</g>
<!-- Node2&#45;&gt;Node7 -->
<g id="edge6" class="edge">
<title>Node2&#45;&gt;Node7</title>
<path fill="none" stroke="midnightblue" d="M105.95,-159.57C112.31,-150.27 119.87,-139.25 125,-131.75"/>
<polygon fill="midnightblue" stroke="midnightblue" points="102.87,-157.86 100.11,-168.08 108.65,-161.81 102.87,-157.86"/>
</g>
<!-- Node4 -->
<g id="node4" class="node">
<title>Node4</title>
<g id="a_node4"><a xlink:href="bfp_8h.html" target="_top" xlink:title=" ">
<polygon fill="none" stroke="black" points="73.5,-56.5 73.5,-75.5 114.5,-75.5 114.5,-56.5 73.5,-56.5"/>
<text text-anchor="middle" x="94" y="-63.5" font-family="Helvetica,sans-Serif" font-size="10.00">bfp.h</text>
</a>
</g>
</g>
<!-- Node3&#45;&gt;Node4 -->
<g id="edge3" class="edge">
<title>Node3&#45;&gt;Node4</title>
<path fill="none" stroke="midnightblue" d="M69.62,-103.57C75.82,-94.27 83.17,-83.25 88.17,-75.75"/>
<polygon fill="midnightblue" stroke="midnightblue" points="66.58,-101.82 63.94,-112.08 72.4,-105.7 66.58,-101.82"/>
</g>
<!-- Node5 -->
<g id="node5" class="node">
<title>Node5</title>
<g id="a_node5"><a xlink:href="parserManager_8h.html" target="_top" xlink:title=" ">
<polygon fill="none" stroke="black" points="0,-0.5 0,-19.5 98,-19.5 98,-0.5 0,-0.5"/>
<text text-anchor="middle" x="49" y="-7.5" font-family="Helvetica,sans-Serif" font-size="10.00">parserManager.h</text>
</a>
</g>
</g>
<!-- Node4&#45;&gt;Node5 -->
<g id="edge4" class="edge">
<title>Node4&#45;&gt;Node5</title>
<path fill="none" stroke="midnightblue" d="M79.95,-48.14C72.11,-38.74 62.67,-27.4 56.29,-19.75"/>
<polygon fill="midnightblue" stroke="midnightblue" points="77.48,-50.64 86.57,-56.08 82.86,-46.16 77.48,-50.64"/>
</g>
<!-- Node6 -->
<g id="node6" class="node">
<title>Node6</title>
<g id="a_node6"><a xlink:href="utils_8h.html" target="_top" xlink:title=" ">
<polygon fill="none" stroke="black" points="116.5,-0.5 116.5,-19.5 163.5,-19.5 163.5,-0.5 116.5,-0.5"/>
<text text-anchor="middle" x="140" y="-7.5" font-family="Helvetica,sans-Serif" font-size="10.00">utils.h</text>
</a>
</g>
</g>
<!-- Node4&#45;&gt;Node6 -->
<g id="edge5" class="edge">
<title>Node4&#45;&gt;Node6</title>
<path fill="none" stroke="midnightblue" d="M108.11,-48.43C116.18,-38.97 125.96,-27.48 132.55,-19.75"/>
<polygon fill="midnightblue" stroke="midnightblue" points="105.42,-46.2 101.6,-56.08 110.75,-50.74 105.42,-46.2"/>
</g>
<!-- Node7&#45;&gt;Node4 -->
<g id="edge7" class="edge">
<title>Node7&#45;&gt;Node4</title>
<path fill="none" stroke="midnightblue" d="M119.05,-103.57C112.69,-94.27 105.13,-83.25 100,-75.75"/>
<polygon fill="midnightblue" stroke="midnightblue" points="116.35,-105.81 124.89,-112.08 122.13,-101.86 116.35,-105.81"/>
</g>
</g>
</svg>
