<?xml version="1.0" encoding="UTF-8" standalone="no"?>
<!DOCTYPE svg PUBLIC "-//W3C//DTD SVG 1.1//EN"
 "http://www.w3.org/Graphics/SVG/1.1/DTD/svg11.dtd">
<!-- Generated by graphviz version 2.43.0 (0)
 -->
<!-- Title: frameTypes.h Pages: 1 -->
<svg width="443pt" height="476pt"
 viewBox="0.00 0.00 443.00 476.00" xmlns="http://www.w3.org/2000/svg" xmlns:xlink="http://www.w3.org/1999/xlink">
<g id="graph0" class="graph" transform="scale(1 1) rotate(0) translate(4 472)">
<title>frameTypes.h</title>
<!-- Node1 -->
<g id="node1" class="node">
<title>Node1</title>
<g id="a_node1"><a xlink:title=" ">
<polygon fill="#bfbfbf" stroke="black" points="116,-448.5 116,-467.5 199,-467.5 199,-448.5 116,-448.5"/>
<text text-anchor="middle" x="157.5" y="-455.5" font-family="Helvetica,sans-Serif" font-size="10.00">frameTypes.h</text>
</a>
</g>
</g>
<!-- Node2 -->
<g id="node2" class="node">
<title>Node2</title>
<g id="a_node2"><a xlink:href="terminalsDMACommon_8h.html" target="_top" xlink:title=" ">
<polygon fill="none" stroke="black" points="87.5,-392.5 87.5,-411.5 227.5,-411.5 227.5,-392.5 87.5,-392.5"/>
<text text-anchor="middle" x="157.5" y="-399.5" font-family="Helvetica,sans-Serif" font-size="10.00">terminalsDMACommon.h</text>
</a>
</g>
</g>
<!-- Node1&#45;&gt;Node2 -->
<g id="edge1" class="edge">
<title>Node1&#45;&gt;Node2</title>
<path fill="none" stroke="midnightblue" d="M157.5,-437.8C157.5,-428.91 157.5,-418.78 157.5,-411.75"/>
<polygon fill="midnightblue" stroke="midnightblue" points="154,-438.08 157.5,-448.08 161,-438.08 154,-438.08"/>
</g>
<!-- Node3 -->
<g id="node3" class="node">
<title>Node3</title>
<g id="a_node3"><a xlink:href="terminalsDMADAQ_8h.html" target="_top" xlink:title=" ">
<polygon fill="none" stroke="black" points="30,-336.5 30,-355.5 147,-355.5 147,-336.5 30,-336.5"/>
<text text-anchor="middle" x="88.5" y="-343.5" font-family="Helvetica,sans-Serif" font-size="10.00">terminalsDMADAQ.h</text>
</a>
</g>
</g>
<!-- Node2&#45;&gt;Node3 -->
<g id="edge2" class="edge">
<title>Node2&#45;&gt;Node3</title>
<path fill="none" stroke="midnightblue" d="M138.46,-386.1C126.04,-376.38 110.26,-364.03 99.79,-355.83"/>
<polygon fill="midnightblue" stroke="midnightblue" points="136.38,-388.92 146.41,-392.32 140.7,-383.4 136.38,-388.92"/>
</g>
<!-- Node16 -->
<g id="node16" class="node">
<title>Node16</title>
<g id="a_node16"><a xlink:href="terminalsDMAIMAQ_8h.html" target="_top" xlink:title=" ">
<polygon fill="none" stroke="black" points="170.5,-336.5 170.5,-355.5 292.5,-355.5 292.5,-336.5 170.5,-336.5"/>
<text text-anchor="middle" x="231.5" y="-343.5" font-family="Helvetica,sans-Serif" font-size="10.00">terminalsDMAIMAQ.h</text>
</a>
</g>
</g>
<!-- Node2&#45;&gt;Node16 -->
<g id="edge20" class="edge">
<title>Node2&#45;&gt;Node16</title>
<path fill="none" stroke="midnightblue" d="M177.53,-386.38C190.91,-376.62 208.06,-364.11 219.39,-355.83"/>
<polygon fill="midnightblue" stroke="midnightblue" points="175.4,-383.6 169.39,-392.32 179.53,-389.26 175.4,-383.6"/>
</g>
<!-- Node4 -->
<g id="node4" class="node">
<title>Node4</title>
<g id="a_node4"><a xlink:href="terminalsDMADAQCPU_8h.html" target="_top" xlink:title=" ">
<polygon fill="none" stroke="black" points="10,-280.5 10,-299.5 147,-299.5 147,-280.5 10,-280.5"/>
<text text-anchor="middle" x="78.5" y="-287.5" font-family="Helvetica,sans-Serif" font-size="10.00">terminalsDMADAQCPU.h</text>
</a>
</g>
</g>
<!-- Node3&#45;&gt;Node4 -->
<g id="edge3" class="edge">
<title>Node3&#45;&gt;Node4</title>
<path fill="none" stroke="midnightblue" d="M85,-326.1C83.34,-317.14 81.44,-306.86 80.12,-299.75"/>
<polygon fill="midnightblue" stroke="midnightblue" points="81.59,-326.89 86.85,-336.08 88.47,-325.61 81.59,-326.89"/>
</g>
<!-- Node5 -->
<g id="node5" class="node">
<title>Node5</title>
<g id="a_node5"><a xlink:href="terminals_8h.html" target="_top" xlink:title=" ">
<polygon fill="none" stroke="black" points="121.5,-224.5 121.5,-243.5 193.5,-243.5 193.5,-224.5 121.5,-224.5"/>
<text text-anchor="middle" x="157.5" y="-231.5" font-family="Helvetica,sans-Serif" font-size="10.00">terminals.h</text>
</a>
</g>
</g>
<!-- Node4&#45;&gt;Node5 -->
<g id="edge4" class="edge">
<title>Node4&#45;&gt;Node5</title>
<path fill="none" stroke="midnightblue" d="M99.53,-274.62C113.97,-264.76 132.64,-251.99 144.84,-243.65"/>
<polygon fill="midnightblue" stroke="midnightblue" points="97.47,-271.79 91.19,-280.32 101.42,-277.57 97.47,-271.79"/>
</g>
<!-- Node6 -->
<g id="node6" class="node">
<title>Node6</title>
<g id="a_node6"><a xlink:href="irioCoreCpp_8h.html" target="_top" xlink:title=" ">
<polygon fill="none" stroke="black" points="66,-168.5 66,-187.5 149,-187.5 149,-168.5 66,-168.5"/>
<text text-anchor="middle" x="107.5" y="-175.5" font-family="Helvetica,sans-Serif" font-size="10.00">irioCoreCpp.h</text>
</a>
</g>
</g>
<!-- Node5&#45;&gt;Node6 -->
<g id="edge5" class="edge">
<title>Node5&#45;&gt;Node6</title>
<path fill="none" stroke="midnightblue" d="M142.42,-216.72C133.61,-207.2 122.83,-195.56 115.6,-187.75"/>
<polygon fill="midnightblue" stroke="midnightblue" points="139.88,-219.12 149.24,-224.08 145.02,-214.37 139.88,-219.12"/>
</g>
<!-- Node7 -->
<g id="node7" class="node">
<title>Node7</title>
<g id="a_node7"><a xlink:href="profileBase_8h.html" target="_top" xlink:title=" ">
<polygon fill="none" stroke="black" points="167.5,-168.5 167.5,-187.5 247.5,-187.5 247.5,-168.5 167.5,-168.5"/>
<text text-anchor="middle" x="207.5" y="-175.5" font-family="Helvetica,sans-Serif" font-size="10.00">profileBase.h</text>
</a>
</g>
</g>
<!-- Node5&#45;&gt;Node7 -->
<g id="edge6" class="edge">
<title>Node5&#45;&gt;Node7</title>
<path fill="none" stroke="midnightblue" d="M172.58,-216.72C181.39,-207.2 192.17,-195.56 199.4,-187.75"/>
<polygon fill="midnightblue" stroke="midnightblue" points="169.98,-214.37 165.76,-224.08 175.12,-219.12 169.98,-214.37"/>
</g>
<!-- Node8 -->
<g id="node8" class="node">
<title>Node8</title>
<g id="a_node8"><a xlink:href="profileCPUDAQ_8h.html" target="_top" xlink:title=" ">
<polygon fill="none" stroke="black" points="101.5,-112.5 101.5,-131.5 199.5,-131.5 199.5,-112.5 101.5,-112.5"/>
<text text-anchor="middle" x="150.5" y="-119.5" font-family="Helvetica,sans-Serif" font-size="10.00">profileCPUDAQ.h</text>
</a>
</g>
</g>
<!-- Node7&#45;&gt;Node8 -->
<g id="edge7" class="edge">
<title>Node7&#45;&gt;Node8</title>
<path fill="none" stroke="midnightblue" d="M190.88,-161.25C180.77,-151.67 168.22,-139.79 159.82,-131.83"/>
<polygon fill="midnightblue" stroke="midnightblue" points="188.68,-163.99 198.34,-168.32 193.49,-158.91 188.68,-163.99"/>
</g>
<!-- Node12 -->
<g id="node12" class="node">
<title>Node12</title>
<g id="a_node12"><a xlink:href="profileCPUIMAQ_8h.html" target="_top" xlink:title=" ">
<polygon fill="none" stroke="black" points="331,-112.5 331,-131.5 434,-131.5 434,-112.5 331,-112.5"/>
<text text-anchor="middle" x="382.5" y="-119.5" font-family="Helvetica,sans-Serif" font-size="10.00">profileCPUIMAQ.h</text>
</a>
</g>
</g>
<!-- Node7&#45;&gt;Node12 -->
<g id="edge12" class="edge">
<title>Node7&#45;&gt;Node12</title>
<path fill="none" stroke="midnightblue" d="M244.97,-165.44C277.97,-155.26 325.26,-140.66 354.9,-131.52"/>
<polygon fill="midnightblue" stroke="midnightblue" points="243.75,-162.15 235.23,-168.44 245.82,-168.84 243.75,-162.15"/>
</g>
<!-- Node14 -->
<g id="node14" class="node">
<title>Node14</title>
<g id="a_node14"><a xlink:href="profileCRIO_8h.html" target="_top" xlink:title=" ">
<polygon fill="none" stroke="black" points="3.5,-112.5 3.5,-131.5 83.5,-131.5 83.5,-112.5 3.5,-112.5"/>
<text text-anchor="middle" x="43.5" y="-119.5" font-family="Helvetica,sans-Serif" font-size="10.00">profileCRIO.h</text>
</a>
</g>
</g>
<!-- Node7&#45;&gt;Node14 -->
<g id="edge15" class="edge">
<title>Node7&#45;&gt;Node14</title>
<path fill="none" stroke="midnightblue" d="M171.98,-165.3C141.08,-155.13 97.03,-140.62 69.36,-131.52"/>
<polygon fill="midnightblue" stroke="midnightblue" points="170.92,-168.64 181.51,-168.44 173.11,-161.99 170.92,-168.64"/>
</g>
<!-- Node15 -->
<g id="node15" class="node">
<title>Node15</title>
<g id="a_node15"><a xlink:href="profileFlexRIO_8h.html" target="_top" xlink:title=" ">
<polygon fill="none" stroke="black" points="218,-112.5 218,-131.5 313,-131.5 313,-112.5 218,-112.5"/>
<text text-anchor="middle" x="265.5" y="-119.5" font-family="Helvetica,sans-Serif" font-size="10.00">profileFlexRIO.h</text>
</a>
</g>
</g>
<!-- Node7&#45;&gt;Node15 -->
<g id="edge17" class="edge">
<title>Node7&#45;&gt;Node15</title>
<path fill="none" stroke="midnightblue" d="M224.41,-161.25C234.7,-151.67 247.47,-139.79 256.01,-131.83"/>
<polygon fill="midnightblue" stroke="midnightblue" points="221.75,-158.95 216.82,-168.32 226.52,-164.07 221.75,-158.95"/>
</g>
<!-- Node9 -->
<g id="node9" class="node">
<title>Node9</title>
<g id="a_node9"><a xlink:href="profileCPUDAQcRIO_8h.html" target="_top" xlink:title=" ">
<polygon fill="none" stroke="black" points="0,-56.5 0,-75.5 121,-75.5 121,-56.5 0,-56.5"/>
<text text-anchor="middle" x="60.5" y="-63.5" font-family="Helvetica,sans-Serif" font-size="10.00">profileCPUDAQcRIO.h</text>
</a>
</g>
</g>
<!-- Node8&#45;&gt;Node9 -->
<g id="edge8" class="edge">
<title>Node8&#45;&gt;Node9</title>
<path fill="none" stroke="midnightblue" d="M127.46,-107.18C110.9,-97.24 89.08,-84.15 74.92,-75.65"/>
<polygon fill="midnightblue" stroke="midnightblue" points="125.66,-110.18 136.04,-112.32 129.27,-104.18 125.66,-110.18"/>
</g>
<!-- Node11 -->
<g id="node11" class="node">
<title>Node11</title>
<g id="a_node11"><a xlink:href="profileCPUDAQFlexRIO_8h.html" target="_top" xlink:title=" ">
<polygon fill="none" stroke="black" points="139,-56.5 139,-75.5 276,-75.5 276,-56.5 139,-56.5"/>
<text text-anchor="middle" x="207.5" y="-63.5" font-family="Helvetica,sans-Serif" font-size="10.00">profileCPUDAQFlexRIO.h</text>
</a>
</g>
</g>
<!-- Node8&#45;&gt;Node11 -->
<g id="edge10" class="edge">
<title>Node8&#45;&gt;Node11</title>
<path fill="none" stroke="midnightblue" d="M167.12,-105.25C177.23,-95.67 189.78,-83.79 198.18,-75.83"/>
<polygon fill="midnightblue" stroke="midnightblue" points="164.51,-102.91 159.66,-112.32 169.32,-107.99 164.51,-102.91"/>
</g>
<!-- Node10 -->
<g id="node10" class="node">
<title>Node10</title>
<g id="a_node10"><a xlink:href="profiles_8h.html" target="_top" xlink:title=" ">
<polygon fill="none" stroke="black" points="176.5,-0.5 176.5,-19.5 238.5,-19.5 238.5,-0.5 176.5,-0.5"/>
<text text-anchor="middle" x="207.5" y="-7.5" font-family="Helvetica,sans-Serif" font-size="10.00">profiles.h</text>
</a>
</g>
</g>
<!-- Node9&#45;&gt;Node10 -->
<g id="edge9" class="edge">
<title>Node9&#45;&gt;Node10</title>
<path fill="none" stroke="midnightblue" d="M93.42,-52.91C121.06,-42.75 159.84,-28.51 184.32,-19.52"/>
<polygon fill="midnightblue" stroke="midnightblue" points="91.97,-49.71 83.79,-56.44 94.39,-56.28 91.97,-49.71"/>
</g>
<!-- Node11&#45;&gt;Node10 -->
<g id="edge11" class="edge">
<title>Node11&#45;&gt;Node10</title>
<path fill="none" stroke="midnightblue" d="M207.5,-45.8C207.5,-36.91 207.5,-26.78 207.5,-19.75"/>
<polygon fill="midnightblue" stroke="midnightblue" points="204,-46.08 207.5,-56.08 211,-46.08 204,-46.08"/>
</g>
<!-- Node13 -->
<g id="node13" class="node">
<title>Node13</title>
<g id="a_node13"><a xlink:href="profileCPUIMAQFlexRIO_8h.html" target="_top" xlink:title=" ">
<polygon fill="none" stroke="black" points="294,-56.5 294,-75.5 435,-75.5 435,-56.5 294,-56.5"/>
<text text-anchor="middle" x="364.5" y="-63.5" font-family="Helvetica,sans-Serif" font-size="10.00">profileCPUIMAQFlexRIO.h</text>
</a>
</g>
</g>
<!-- Node12&#45;&gt;Node13 -->
<g id="edge13" class="edge">
<title>Node12&#45;&gt;Node13</title>
<path fill="none" stroke="midnightblue" d="M376.3,-102.4C373.29,-93.36 369.81,-82.94 367.42,-75.75"/>
<polygon fill="midnightblue" stroke="midnightblue" points="373.04,-103.7 379.53,-112.08 379.69,-101.49 373.04,-103.7"/>
</g>
<!-- Node13&#45;&gt;Node10 -->
<g id="edge14" class="edge">
<title>Node13&#45;&gt;Node10</title>
<path fill="none" stroke="midnightblue" d="M330.11,-53.17C300.55,-43 258.63,-28.59 232.26,-19.52"/>
<polygon fill="midnightblue" stroke="midnightblue" points="329.03,-56.5 339.62,-56.44 331.3,-49.88 329.03,-56.5"/>
</g>
<!-- Node14&#45;&gt;Node9 -->
<g id="edge16" class="edge">
<title>Node14&#45;&gt;Node9</title>
<path fill="none" stroke="midnightblue" d="M49.36,-102.4C52.2,-93.36 55.48,-82.94 57.75,-75.75"/>
<polygon fill="midnightblue" stroke="midnightblue" points="45.97,-101.49 46.31,-112.08 52.65,-103.6 45.97,-101.49"/>
</g>
<!-- Node15&#45;&gt;Node11 -->
<g id="edge18" class="edge">
<title>Node15&#45;&gt;Node11</title>
<path fill="none" stroke="midnightblue" d="M248.59,-105.25C238.3,-95.67 225.53,-83.79 216.99,-75.83"/>
<polygon fill="midnightblue" stroke="midnightblue" points="246.48,-108.07 256.18,-112.32 251.25,-102.95 246.48,-108.07"/>
</g>
<!-- Node15&#45;&gt;Node13 -->
<g id="edge19" class="edge">
<title>Node15&#45;&gt;Node13</title>
<path fill="none" stroke="midnightblue" d="M290.34,-107.45C308.61,-97.48 332.92,-84.23 348.63,-75.65"/>
<polygon fill="midnightblue" stroke="midnightblue" points="288.51,-104.46 281.41,-112.32 291.86,-110.61 288.51,-104.46"/>
</g>
<!-- Node17 -->
<g id="node17" class="node">
<title>Node17</title>
<g id="a_node17"><a xlink:href="terminalsDMAIMAQCPU_8h.html" target="_top" xlink:title=" ">
<polygon fill="none" stroke="black" points="165.5,-280.5 165.5,-299.5 307.5,-299.5 307.5,-280.5 165.5,-280.5"/>
<text text-anchor="middle" x="236.5" y="-287.5" font-family="Helvetica,sans-Serif" font-size="10.00">terminalsDMAIMAQCPU.h</text>
</a>
</g>
</g>
<!-- Node16&#45;&gt;Node17 -->
<g id="edge21" class="edge">
<title>Node16&#45;&gt;Node17</title>
<path fill="none" stroke="midnightblue" d="M233.25,-326.1C234.08,-317.14 235.03,-306.86 235.69,-299.75"/>
<polygon fill="midnightblue" stroke="midnightblue" points="229.76,-325.8 232.33,-336.08 236.73,-326.45 229.76,-325.8"/>
</g>
<!-- Node17&#45;&gt;Node5 -->
<g id="edge22" class="edge">
<title>Node17&#45;&gt;Node5</title>
<path fill="none" stroke="midnightblue" d="M215.47,-274.62C201.03,-264.76 182.36,-251.99 170.16,-243.65"/>
<polygon fill="midnightblue" stroke="midnightblue" points="213.58,-277.57 223.81,-280.32 217.53,-271.79 213.58,-277.57"/>
</g>
</g>
</svg>
