<?xml version="1.0" encoding="UTF-8" standalone="no"?>
<!DOCTYPE svg PUBLIC "-//W3C//DTD SVG 1.1//EN"
 "http://www.w3.org/Graphics/SVG/1.1/DTD/svg11.dtd">
<!-- Generated by graphviz version 2.43.0 (0)
 -->
<!-- Title: IrioCoreCpp Pages: 1 -->
<svg width="223pt" height="175pt"
 viewBox="0.00 0.00 223.00 175.00" xmlns="http://www.w3.org/2000/svg" xmlns:xlink="http://www.w3.org/1999/xlink">
<g id="graph0" class="graph" transform="scale(1 1) rotate(0) translate(4 171)">
<title>IrioCoreCpp</title>
<!-- Node5 -->
<g id="node1" class="node">
<title>Node5</title>
<g id="a_node1"><a xlink:href="group__Modules.html" target="_top" xlink:title=" ">
<polygon fill="none" stroke="black" points="206.5,-167 118.5,-167 118.5,-148 206.5,-148 206.5,-167"/>
<text text-anchor="middle" x="162.5" y="-155" font-family="Helvetica,sans-Serif" font-size="10.00">Modules types</text>
</a>
</g>
</g>
<!-- Node4 -->
<g id="node2" class="node">
<title>Node4</title>
<g id="a_node2"><a xlink:href="group__Profiles.html" target="_top" xlink:title=" ">
<polygon fill="none" stroke="black" points="200.5,-130 124.5,-130 124.5,-111 200.5,-111 200.5,-130"/>
<text text-anchor="middle" x="162.5" y="-118" font-family="Helvetica,sans-Serif" font-size="10.00">IRIO Profiles</text>
</a>
</g>
</g>
<!-- Node1 -->
<g id="node3" class="node">
<title>Node1</title>
<g id="a_node3"><a xlink:title=" ">
<polygon fill="#bfbfbf" stroke="black" points="74,-93 0,-93 0,-74 74,-74 74,-93"/>
<text text-anchor="middle" x="37" y="-81" font-family="Helvetica,sans-Serif" font-size="10.00">IrioCoreCpp</text>
</a>
</g>
</g>
<!-- Node1&#45;&gt;Node5 -->
<g id="edge4" class="edge">
<title>Node1&#45;&gt;Node5</title>
<path fill="none" stroke="black" d="M55.76,-99.99C69.67,-112.22 89.96,-128.59 110,-139.5 115.91,-142.72 122.5,-145.53 128.94,-147.92"/>
<polygon fill="black" stroke="black" points="57.76,-97.08 47.98,-93 53.08,-102.29 57.76,-97.08"/>
</g>
<!-- Node1&#45;&gt;Node4 -->
<g id="edge3" class="edge">
<title>Node1&#45;&gt;Node4</title>
<path fill="none" stroke="black" d="M79.6,-95.96C95.85,-100.83 114.18,-106.32 129.37,-110.88"/>
<polygon fill="black" stroke="black" points="80.39,-92.55 69.8,-93.03 78.38,-99.25 80.39,-92.55"/>
</g>
<!-- Node6 -->
<g id="node4" class="node">
<title>Node6</title>
<g id="a_node4"><a xlink:href="group__Errors.html" target="_top" xlink:title=" ">
<polygon fill="none" stroke="black" points="215,-93 110,-93 110,-74 215,-74 215,-93"/>
<text text-anchor="middle" x="162.5" y="-81" font-family="Helvetica,sans-Serif" font-size="10.00">IrioCoreCpp Errors</text>
</a>
</g>
</g>
<!-- Node1&#45;&gt;Node6 -->
<g id="edge5" class="edge">
<title>Node1&#45;&gt;Node6</title>
<path fill="none" stroke="black" d="M84.25,-83.5C92.51,-83.5 101.17,-83.5 109.57,-83.5"/>
<polygon fill="black" stroke="black" points="84.05,-80 74.05,-83.5 84.05,-87 84.05,-80"/>
</g>
<!-- Node3 -->
<g id="node5" class="node">
<title>Node3</title>
<g id="a_node5"><a xlink:href="group__Terminals.html" target="_top" xlink:title=" ">
<polygon fill="none" stroke="black" points="206,-56 119,-56 119,-37 206,-37 206,-56"/>
<text text-anchor="middle" x="162.5" y="-44" font-family="Helvetica,sans-Serif" font-size="10.00">IRIO Terminals</text>
</a>
</g>
</g>
<!-- Node1&#45;&gt;Node3 -->
<g id="edge2" class="edge">
<title>Node1&#45;&gt;Node3</title>
<path fill="none" stroke="black" d="M79.6,-71.04C95.85,-66.17 114.18,-60.68 129.37,-56.12"/>
<polygon fill="black" stroke="black" points="78.38,-67.75 69.8,-73.97 80.39,-74.45 78.38,-67.75"/>
</g>
<!-- Node2 -->
<g id="node6" class="node">
<title>Node2</title>
<g id="a_node6"><a xlink:href="group__BFP.html" target="_top" xlink:title=" ">
<polygon fill="none" stroke="black" points="204,-19 121,-19 121,0 204,0 204,-19"/>
<text text-anchor="middle" x="162.5" y="-7" font-family="Helvetica,sans-Serif" font-size="10.00">Bitfile Parsing</text>
</a>
</g>
</g>
<!-- Node1&#45;&gt;Node2 -->
<g id="edge1" class="edge">
<title>Node1&#45;&gt;Node2</title>
<path fill="none" stroke="black" d="M56.35,-67.01C70.29,-55.11 90.37,-39.3 110,-28.5 116.51,-24.92 123.84,-21.75 130.88,-19.09"/>
<polygon fill="black" stroke="black" points="53.75,-64.62 48.51,-73.83 58.35,-69.9 53.75,-64.62"/>
</g>
</g>
</svg>
