<?xml version="1.0" encoding="UTF-8" standalone="no"?>
<!DOCTYPE svg PUBLIC "-//W3C//DTD SVG 1.1//EN"
 "http://www.w3.org/Graphics/SVG/1.1/DTD/svg11.dtd">
<!-- Generated by graphviz version 2.43.0 (0)
 -->
<!-- Title: FlexRIO Profiles Pages: 1 -->
<svg width="415pt" height="148pt"
 viewBox="0.00 0.00 415.00 147.50" xmlns="http://www.w3.org/2000/svg" xmlns:xlink="http://www.w3.org/1999/xlink">
<g id="graph0" class="graph" transform="scale(1 1) rotate(0) translate(4 143.5)">
<title>FlexRIO Profiles</title>
<!-- Node3 -->
<g id="node1" class="node">
<title>Node3</title>
<g id="a_node1"><a xlink:href="group__ProfilesDAQ.html" target="_top" xlink:title=" ">
<polygon fill="none" stroke="black" points="403,-139.5 267,-139.5 267,-120.5 403,-120.5 403,-139.5"/>
<text text-anchor="middle" x="335" y="-127.5" font-family="Helvetica,sans-Serif" font-size="10.00">Data Acquisition Profiles</text>
</a>
</g>
</g>
<!-- Node1 -->
<g id="node2" class="node">
<title>Node1</title>
<g id="a_node2"><a xlink:title=" ">
<polygon fill="#bfbfbf" stroke="black" points="94,-77.5 0,-77.5 0,-58.5 94,-58.5 94,-77.5"/>
<text text-anchor="middle" x="47" y="-65.5" font-family="Helvetica,sans-Serif" font-size="10.00">FlexRIO Profiles</text>
</a>
</g>
</g>
<!-- Node1&#45;&gt;Node3 -->
<g id="edge3" class="edge">
<title>Node1&#45;&gt;Node3</title>
<path fill="none" stroke="orange" stroke-dasharray="5,2" d="M66.29,-77.53C78.83,-83.68 96.04,-91.37 112,-96 162.93,-110.77 222.4,-119.44 266.97,-124.33"/>
<text text-anchor="middle" x="178.5" y="-124" font-family="Helvetica,sans-Serif" font-size="10.00">irio::ProfileCPUDAQFlexRIO</text>
</g>
<!-- Node2 -->
<g id="node3" class="node">
<title>Node2</title>
<g id="a_node3"><a xlink:href="group__Profiles.html" target="_top" xlink:title=" ">
<polygon fill="none" stroke="black" points="373,-81.5 297,-81.5 297,-62.5 373,-62.5 373,-81.5"/>
<text text-anchor="middle" x="335" y="-69.5" font-family="Helvetica,sans-Serif" font-size="10.00">IRIO Profiles</text>
</a>
</g>
</g>
<!-- Node1&#45;&gt;Node2 -->
<g id="edge2" class="edge">
<title>Node1&#45;&gt;Node2</title>
<path fill="none" stroke="orange" stroke-dasharray="5,2" d="M94.27,-68.65C150.71,-69.44 244.99,-70.76 296.91,-71.48"/>
<text text-anchor="middle" x="178.5" y="-84" font-family="Helvetica,sans-Serif" font-size="10.00">irio::ProfileCPUDAQFlexRIO</text>
<text text-anchor="middle" x="178.5" y="-73" font-family="Helvetica,sans-Serif" font-size="10.00">irio::ProfileFlexRIO</text>
</g>
<!-- Node4 -->
<g id="node4" class="node">
<title>Node4</title>
<g id="a_node4"><a xlink:href="group__FlexRIO.html" target="_top" xlink:title=" ">
<polygon fill="none" stroke="black" points="407,-30 263,-30 263,0 407,0 407,-30"/>
<text text-anchor="start" x="271" y="-18" font-family="Helvetica,sans-Serif" font-size="10.00">Specific Classes/Functions</text>
<text text-anchor="middle" x="335" y="-7" font-family="Helvetica,sans-Serif" font-size="10.00"> to FlexRIO</text>
</a>
</g>
</g>
<!-- Node1&#45;&gt;Node4 -->
<g id="edge4" class="edge">
<title>Node1&#45;&gt;Node4</title>
<path fill="none" stroke="orange" stroke-dasharray="5,2" d="M64.52,-58.37C77.1,-51.5 95.09,-42.69 112,-38 161.28,-24.32 218.77,-18.63 262.89,-16.33"/>
<text text-anchor="middle" x="178.5" y="-52" font-family="Helvetica,sans-Serif" font-size="10.00">irio::ProfileCPUDAQFlexRIO</text>
<text text-anchor="middle" x="178.5" y="-41" font-family="Helvetica,sans-Serif" font-size="10.00">irio::ProfileFlexRIO</text>
</g>
<!-- Node2&#45;&gt;Node1 -->
<g id="edge1" class="edge">
<title>Node2&#45;&gt;Node1</title>
<path fill="none" stroke="black" d="M286.76,-68.22C273.28,-67.3 258.57,-66.46 245,-66 185.92,-64.01 171.1,-65.08 112,-66 106.22,-66.09 100.15,-66.23 94.14,-66.39"/>
<polygon fill="black" stroke="black" points="286.57,-71.72 296.79,-68.93 287.06,-64.73 286.57,-71.72"/>
</g>
</g>
</svg>
