<?xml version="1.0" encoding="UTF-8" standalone="no"?>
<!DOCTYPE svg PUBLIC "-//W3C//DTD SVG 1.1//EN"
 "http://www.w3.org/Graphics/SVG/1.1/DTD/svg11.dtd">
<!-- Generated by graphviz version 2.43.0 (0)
 -->
<!-- Title: Modules types Pages: 1 -->
<svg width="341pt" height="64pt"
 viewBox="0.00 0.00 341.00 64.00" xmlns="http://www.w3.org/2000/svg" xmlns:xlink="http://www.w3.org/1999/xlink">
<g id="graph0" class="graph" transform="scale(1 1) rotate(0) translate(4 60)">
<title>Modules types</title>
<!-- Node4 -->
<g id="node1" class="node">
<title>Node4</title>
<g id="a_node1"><a xlink:href="group__ModulesCRIO.html" target="_top" xlink:title=" ">
<polygon fill="none" stroke="black" points="325,-56 242,-56 242,-37 325,-37 325,-56"/>
<text text-anchor="middle" x="283.5" y="-44" font-family="Helvetica,sans-Serif" font-size="10.00">cRIO Modules</text>
</a>
</g>
</g>
<!-- Node1 -->
<g id="node2" class="node">
<title>Node1</title>
<g id="a_node2"><a xlink:title=" ">
<polygon fill="#bfbfbf" stroke="black" points="198,-37 110,-37 110,-18 198,-18 198,-37"/>
<text text-anchor="middle" x="154" y="-25" font-family="Helvetica,sans-Serif" font-size="10.00">Modules types</text>
</a>
</g>
</g>
<!-- Node1&#45;&gt;Node4 -->
<g id="edge3" class="edge">
<title>Node1&#45;&gt;Node4</title>
<path fill="none" stroke="black" d="M208.33,-35.45C219.58,-37.12 231.27,-38.87 241.96,-40.46"/>
<polygon fill="black" stroke="black" points="208.57,-31.94 198.17,-33.93 207.54,-38.87 208.57,-31.94"/>
</g>
<!-- Node3 -->
<g id="node4" class="node">
<title>Node3</title>
<g id="a_node4"><a xlink:href="group__ModulesFlexRIO.html" target="_top" xlink:title=" ">
<polygon fill="none" stroke="black" points="333,-19 234,-19 234,0 333,0 333,-19"/>
<text text-anchor="middle" x="283.5" y="-7" font-family="Helvetica,sans-Serif" font-size="10.00">FlexRIO Modules</text>
</a>
</g>
</g>
<!-- Node1&#45;&gt;Node3 -->
<g id="edge2" class="edge">
<title>Node1&#45;&gt;Node3</title>
<path fill="none" stroke="black" d="M208.27,-19.98C216.69,-18.79 225.36,-17.57 233.67,-16.39"/>
<polygon fill="black" stroke="black" points="207.58,-16.54 198.17,-21.41 208.56,-23.47 207.58,-16.54"/>
</g>
<!-- Node2 -->
<g id="node3" class="node">
<title>Node2</title>
<g id="a_node3"><a xlink:href="group__IrioCoreCpp.html" target="_top" xlink:title=" ">
<polygon fill="none" stroke="black" points="74,-37 0,-37 0,-18 74,-18 74,-37"/>
<text text-anchor="middle" x="37" y="-25" font-family="Helvetica,sans-Serif" font-size="10.00">IrioCoreCpp</text>
</a>
</g>
</g>
<!-- Node2&#45;&gt;Node1 -->
<g id="edge1" class="edge">
<title>Node2&#45;&gt;Node1</title>
<path fill="none" stroke="black" d="M84.17,-27.5C92.63,-27.5 101.43,-27.5 109.8,-27.5"/>
<polygon fill="black" stroke="black" points="84.07,-24 74.07,-27.5 84.07,-31 84.07,-24"/>
</g>
</g>
</svg>
