<?xml version="1.0" encoding="UTF-8" standalone="no"?>
<!DOCTYPE svg PUBLIC "-//W3C//DTD SVG 1.1//EN"
 "http://www.w3.org/Graphics/SVG/1.1/DTD/svg11.dtd">
<!-- Generated by graphviz version 2.43.0 (0)
 -->
<!-- Title: DMA Terminals Pages: 1 -->
<svg width="371pt" height="101pt"
 viewBox="0.00 0.00 371.00 101.00" xmlns="http://www.w3.org/2000/svg" xmlns:xlink="http://www.w3.org/1999/xlink">
<g id="graph0" class="graph" transform="scale(1 1) rotate(0) translate(4 97)">
<title>DMA Terminals</title>
<!-- Node5 -->
<g id="node1" class="node">
<title>Node5</title>
<g id="a_node1"><a xlink:href="group__IMAQTerminals.html" target="_top" xlink:title=" ">
<polygon fill="none" stroke="black" points="352.5,-93 259.5,-93 259.5,-74 352.5,-74 352.5,-93"/>
<text text-anchor="middle" x="306" y="-81" font-family="Helvetica,sans-Serif" font-size="10.00">IMAQ Terminals</text>
</a>
</g>
</g>
<!-- Node1 -->
<g id="node2" class="node">
<title>Node1</title>
<g id="a_node2"><a xlink:title=" ">
<polygon fill="#bfbfbf" stroke="black" points="213,-56 123,-56 123,-37 213,-37 213,-56"/>
<text text-anchor="middle" x="168" y="-44" font-family="Helvetica,sans-Serif" font-size="10.00">DMA Terminals</text>
</a>
</g>
</g>
<!-- Node1&#45;&gt;Node5 -->
<g id="edge4" class="edge">
<title>Node1&#45;&gt;Node5</title>
<path fill="none" stroke="black" d="M213.8,-58.69C231.94,-63.62 252.57,-69.24 269.62,-73.88"/>
<polygon fill="black" stroke="black" points="214.59,-55.28 204.02,-56.03 212.75,-62.03 214.59,-55.28"/>
</g>
<!-- Node4 -->
<g id="node3" class="node">
<title>Node4</title>
<g id="a_node3"><a xlink:href="group__DMAGPUTerminals.html" target="_top" xlink:title=" ">
<polygon fill="none" stroke="black" points="363,-56 249,-56 249,-37 363,-37 363,-56"/>
<text text-anchor="middle" x="306" y="-44" font-family="Helvetica,sans-Serif" font-size="10.00">DMA GPU Terminals</text>
</a>
</g>
</g>
<!-- Node1&#45;&gt;Node4 -->
<g id="edge3" class="edge">
<title>Node1&#45;&gt;Node4</title>
<path fill="none" stroke="black" d="M223.19,-46.5C231.57,-46.5 240.24,-46.5 248.66,-46.5"/>
<polygon fill="black" stroke="black" points="223.16,-43 213.16,-46.5 223.16,-50 223.16,-43"/>
</g>
<!-- Node3 -->
<g id="node5" class="node">
<title>Node3</title>
<g id="a_node5"><a xlink:href="group__DMACPUTerminals.html" target="_top" xlink:title=" ">
<polygon fill="none" stroke="black" points="362.5,-19 249.5,-19 249.5,0 362.5,0 362.5,-19"/>
<text text-anchor="middle" x="306" y="-7" font-family="Helvetica,sans-Serif" font-size="10.00">DMA CPU Terminals</text>
</a>
</g>
</g>
<!-- Node1&#45;&gt;Node3 -->
<g id="edge2" class="edge">
<title>Node1&#45;&gt;Node3</title>
<path fill="none" stroke="black" d="M213.8,-34.31C231.94,-29.38 252.57,-23.76 269.62,-19.12"/>
<polygon fill="black" stroke="black" points="212.75,-30.97 204.02,-36.97 214.59,-37.72 212.75,-30.97"/>
</g>
<!-- Node2 -->
<g id="node4" class="node">
<title>Node2</title>
<g id="a_node4"><a xlink:href="group__Terminals.html" target="_top" xlink:title=" ">
<polygon fill="none" stroke="black" points="87,-56 0,-56 0,-37 87,-37 87,-56"/>
<text text-anchor="middle" x="43.5" y="-44" font-family="Helvetica,sans-Serif" font-size="10.00">IRIO Terminals</text>
</a>
</g>
</g>
<!-- Node2&#45;&gt;Node1 -->
<g id="edge1" class="edge">
<title>Node2&#45;&gt;Node1</title>
<path fill="none" stroke="black" d="M97.27,-46.5C105.82,-46.5 114.59,-46.5 122.91,-46.5"/>
<polygon fill="black" stroke="black" points="97,-43 87,-46.5 97,-50 97,-43"/>
</g>
</g>
</svg>
