<?xml version="1.0" encoding="UTF-8" standalone="no"?>
<!DOCTYPE svg PUBLIC "-//W3C//DTD SVG 1.1//EN"
 "http://www.w3.org/Graphics/SVG/1.1/DTD/svg11.dtd">
<!-- Generated by graphviz version 2.43.0 (0)
 -->
<!-- Title: Specific Classes/Functions to cRIO Pages: 1 -->
<svg width="516pt" height="191pt"
 viewBox="0.00 0.00 516.00 191.00" xmlns="http://www.w3.org/2000/svg" xmlns:xlink="http://www.w3.org/1999/xlink">
<g id="graph0" class="graph" transform="scale(1 1) rotate(0) translate(4 187)">
<title>Specific Classes/Functions to cRIO</title>
<!-- Node3 -->
<g id="node1" class="node">
<title>Node3</title>
<g id="a_node1"><a xlink:href="group__ModulesCRIO.html" target="_top" xlink:title=" ">
<polygon fill="none" stroke="black" points="508,-183 372,-183 372,-164 508,-164 508,-183"/>
<text text-anchor="middle" x="440" y="-171" font-family="Helvetica,sans-Serif" font-size="10.00">Modules specific to cRIO</text>
</a>
</g>
</g>
<!-- Node5 -->
<g id="node2" class="node">
<title>Node5</title>
<g id="a_node2"><a xlink:href="group__ProfilesDAQ.html" target="_top" xlink:title=" ">
<polygon fill="none" stroke="black" points="508,-146 372,-146 372,-127 508,-127 508,-146"/>
<text text-anchor="middle" x="440" y="-134" font-family="Helvetica,sans-Serif" font-size="10.00">Data Acquisition Profiles</text>
</a>
</g>
</g>
<!-- Node2 -->
<g id="node3" class="node">
<title>Node2</title>
<g id="a_node3"><a xlink:href="group__IRIO.html" target="_top" xlink:title=" ">
<polygon fill="none" stroke="black" points="37,-101 0,-101 0,-82 37,-82 37,-101"/>
<text text-anchor="middle" x="18.5" y="-89" font-family="Helvetica,sans-Serif" font-size="10.00">IRIO</text>
</a>
</g>
</g>
<!-- Node1 -->
<g id="node7" class="node">
<title>Node1</title>
<g id="a_node7"><a xlink:title=" ">
<polygon fill="#bfbfbf" stroke="black" points="218,-106.5 74,-106.5 74,-76.5 218,-76.5 218,-106.5"/>
<text text-anchor="start" x="82" y="-94.5" font-family="Helvetica,sans-Serif" font-size="10.00">Specific Classes/Functions</text>
<text text-anchor="middle" x="146" y="-83.5" font-family="Helvetica,sans-Serif" font-size="10.00"> to cRIO</text>
</a>
</g>
</g>
<!-- Node2&#45;&gt;Node1 -->
<g id="edge1" class="edge">
<title>Node2&#45;&gt;Node1</title>
<path fill="none" stroke="black" d="M47.38,-91.5C55.4,-91.5 64.53,-91.5 73.91,-91.5"/>
<polygon fill="black" stroke="black" points="47.21,-88 37.21,-91.5 47.21,-95 47.21,-88"/>
</g>
<!-- Node6 -->
<g id="node4" class="node">
<title>Node6</title>
<g id="a_node4"><a xlink:href="group__ProfilesCRIO.html" target="_top" xlink:title=" ">
<polygon fill="none" stroke="black" points="479,-101 401,-101 401,-82 479,-82 479,-101"/>
<text text-anchor="middle" x="440" y="-89" font-family="Helvetica,sans-Serif" font-size="10.00">cRIO Profiles</text>
</a>
</g>
</g>
<!-- Node4 -->
<g id="node5" class="node">
<title>Node4</title>
<g id="a_node5"><a xlink:href="group__Profiles.html" target="_top" xlink:title=" ">
<polygon fill="none" stroke="black" points="478,-56 402,-56 402,-37 478,-37 478,-56"/>
<text text-anchor="middle" x="440" y="-44" font-family="Helvetica,sans-Serif" font-size="10.00">IRIO Profiles</text>
</a>
</g>
</g>
<!-- Node7 -->
<g id="node6" class="node">
<title>Node7</title>
<g id="a_node6"><a xlink:href="group__Terminals.html" target="_top" xlink:title=" ">
<polygon fill="none" stroke="black" points="483.5,-19 396.5,-19 396.5,0 483.5,0 483.5,-19"/>
<text text-anchor="middle" x="440" y="-7" font-family="Helvetica,sans-Serif" font-size="10.00">IRIO Terminals</text>
</a>
</g>
</g>
<!-- Node1&#45;&gt;Node3 -->
<g id="edge2" class="edge">
<title>Node1&#45;&gt;Node3</title>
<path fill="none" stroke="black" d="M175.33,-112.32C192.14,-123.64 214.34,-136.85 236,-144.5 279.64,-159.91 331.31,-167.15 371.59,-170.54"/>
<polygon fill="black" stroke="black" points="177.28,-109.41 167.06,-106.61 173.3,-115.18 177.28,-109.41"/>
</g>
<!-- Node1&#45;&gt;Node5 -->
<g id="edge4" class="edge">
<title>Node1&#45;&gt;Node5</title>
<path fill="none" stroke="orange" stroke-dasharray="5,2" d="M199.9,-106.51C211.71,-109.49 224.23,-112.35 236,-114.5 280.99,-122.71 332.18,-128.23 371.9,-131.69"/>
<text text-anchor="middle" x="295" y="-132.5" font-family="Helvetica,sans-Serif" font-size="10.00">irio::ProfileCPUDAQcRIO</text>
</g>
<!-- Node1&#45;&gt;Node6 -->
<g id="edge5" class="edge">
<title>Node1&#45;&gt;Node6</title>
<path fill="none" stroke="orange" stroke-dasharray="5,2" d="M218.06,-91.5C275.62,-91.5 354.51,-91.5 400.79,-91.5"/>
<text text-anchor="middle" x="295" y="-105.5" font-family="Helvetica,sans-Serif" font-size="10.00">irio::ProfileCPUDAQcRIO</text>
<text text-anchor="middle" x="295" y="-94.5" font-family="Helvetica,sans-Serif" font-size="10.00">irio::ProfileCRIO</text>
</g>
<!-- Node1&#45;&gt;Node4 -->
<g id="edge3" class="edge">
<title>Node1&#45;&gt;Node4</title>
<path fill="none" stroke="orange" stroke-dasharray="5,2" d="M192.33,-76.45C206.21,-72.33 221.61,-68.25 236,-65.5 293.19,-54.57 360.7,-49.84 401.66,-47.86"/>
<text text-anchor="middle" x="295" y="-79.5" font-family="Helvetica,sans-Serif" font-size="10.00">irio::ProfileCPUDAQcRIO</text>
<text text-anchor="middle" x="295" y="-68.5" font-family="Helvetica,sans-Serif" font-size="10.00">irio::ProfileCRIO</text>
</g>
<!-- Node1&#45;&gt;Node7 -->
<g id="edge6" class="edge">
<title>Node1&#45;&gt;Node7</title>
<path fill="none" stroke="orange" stroke-dasharray="5,2" d="M165.92,-76.49C183.15,-63.66 209.83,-45.84 236,-36.5 289.07,-17.55 354.24,-11.72 396.19,-10.02"/>
<text text-anchor="middle" x="295" y="-39.5" font-family="Helvetica,sans-Serif" font-size="10.00">irio::TerminalscRIO</text>
</g>
</g>
</svg>
