<?xml version="1.0" encoding="UTF-8" standalone="no"?>
<!DOCTYPE svg PUBLIC "-//W3C//DTD SVG 1.1//EN"
 "http://www.w3.org/Graphics/SVG/1.1/DTD/svg11.dtd">
<!-- Generated by graphviz version 2.43.0 (0)
 -->
<!-- Title: IRIO Profiles Pages: 1 -->
<svg width="471pt" height="406pt"
 viewBox="0.00 0.00 471.00 406.16" xmlns="http://www.w3.org/2000/svg" xmlns:xlink="http://www.w3.org/1999/xlink">
<g id="graph0" class="graph" transform="scale(1 1) rotate(0) translate(4 402.16)">
<title>IRIO Profiles</title>
<!-- Node5 -->
<g id="node1" class="node">
<title>Node5</title>
<g id="a_node1"><a xlink:href="group__ProfilesGPU.html" target="_top" xlink:title=" ">
<polygon fill="none" stroke="black" points="457,-396.95 325,-396.95 325,-366.95 457,-366.95 457,-396.95"/>
<text text-anchor="start" x="333" y="-384.95" font-family="Helvetica,sans-Serif" font-size="10.00">GPU related Acquisition</text>
<text text-anchor="middle" x="391" y="-373.95" font-family="Helvetica,sans-Serif" font-size="10.00"> Profiles</text>
</a>
</g>
</g>
<!-- Node3 -->
<g id="node2" class="node">
<title>Node3</title>
<g id="a_node2"><a xlink:href="group__ProfilesDAQ.html" target="_top" xlink:title=" ">
<polygon fill="none" stroke="black" points="459,-335.45 323,-335.45 323,-316.45 459,-316.45 459,-335.45"/>
<text text-anchor="middle" x="391" y="-323.45" font-family="Helvetica,sans-Serif" font-size="10.00">Data Acquisition Profiles</text>
</a>
</g>
</g>
<!-- Node2 -->
<g id="node3" class="node">
<title>Node2</title>
<g id="a_node3"><a xlink:href="group__IRIO.html" target="_top" xlink:title=" ">
<polygon fill="none" stroke="black" points="37,-223.45 0,-223.45 0,-204.45 37,-204.45 37,-223.45"/>
<text text-anchor="middle" x="18.5" y="-211.45" font-family="Helvetica,sans-Serif" font-size="10.00">IRIO</text>
</a>
</g>
</g>
<!-- Node1 -->
<g id="node8" class="node">
<title>Node1</title>
<g id="a_node8"><a xlink:title=" ">
<polygon fill="#bfbfbf" stroke="black" points="150,-223.45 74,-223.45 74,-204.45 150,-204.45 150,-223.45"/>
<text text-anchor="middle" x="112" y="-211.45" font-family="Helvetica,sans-Serif" font-size="10.00">IRIO Profiles</text>
</a>
</g>
</g>
<!-- Node2&#45;&gt;Node1 -->
<g id="edge1" class="edge">
<title>Node2&#45;&gt;Node1</title>
<path fill="none" stroke="black" d="M47.4,-213.95C55.7,-213.95 64.92,-213.95 73.72,-213.95"/>
<polygon fill="black" stroke="black" points="47.14,-210.45 37.14,-213.95 47.14,-217.45 47.14,-210.45"/>
</g>
<!-- Node6 -->
<g id="node4" class="node">
<title>Node6</title>
<g id="a_node4"><a xlink:href="group__ProfilesIO.html" target="_top" xlink:title=" ">
<polygon fill="none" stroke="black" points="452.5,-285.45 329.5,-285.45 329.5,-266.45 452.5,-266.45 452.5,-285.45"/>
<text text-anchor="middle" x="391" y="-273.45" font-family="Helvetica,sans-Serif" font-size="10.00">Point by Point Profiles</text>
</a>
</g>
</g>
<!-- Node7 -->
<g id="node5" class="node">
<title>Node7</title>
<g id="a_node5"><a xlink:href="group__ProfilesFlexRIO.html" target="_top" xlink:title=" ">
<polygon fill="none" stroke="black" points="438,-238.45 344,-238.45 344,-219.45 438,-219.45 438,-238.45"/>
<text text-anchor="middle" x="391" y="-226.45" font-family="Helvetica,sans-Serif" font-size="10.00">FlexRIO Profiles</text>
</a>
</g>
</g>
<!-- Node4 -->
<g id="node6" class="node">
<title>Node4</title>
<g id="a_node6"><a xlink:href="group__ProfilesIMAQ.html" target="_top" xlink:title=" ">
<polygon fill="none" stroke="black" points="462.5,-190.45 319.5,-190.45 319.5,-171.45 462.5,-171.45 462.5,-190.45"/>
<text text-anchor="middle" x="391" y="-178.45" font-family="Helvetica,sans-Serif" font-size="10.00">Image Acquisition Profiles</text>
</a>
</g>
</g>
<!-- Node8 -->
<g id="node7" class="node">
<title>Node8</title>
<g id="a_node7"><a xlink:href="group__ProfilesCRIO.html" target="_top" xlink:title=" ">
<polygon fill="none" stroke="black" points="430,-141.45 352,-141.45 352,-122.45 430,-122.45 430,-141.45"/>
<text text-anchor="middle" x="391" y="-129.45" font-family="Helvetica,sans-Serif" font-size="10.00">cRIO Profiles</text>
</a>
</g>
</g>
<!-- Node1&#45;&gt;Node5 -->
<g id="edge4" class="edge">
<title>Node1&#45;&gt;Node5</title>
<path fill="none" stroke="black" d="M113.62,-233.91C115.85,-267.56 125.68,-335.01 168,-366.95 212.32,-400.41 276.87,-401.02 324.95,-395.12"/>
<polygon fill="black" stroke="black" points="117.1,-233.35 113.11,-223.54 110.11,-233.7 117.1,-233.35"/>
</g>
<!-- Node1&#45;&gt;Node3 -->
<g id="edge2" class="edge">
<title>Node1&#45;&gt;Node3</title>
<path fill="none" stroke="black" d="M114.82,-233.61C118.74,-263.23 130.9,-318.43 168,-342.95 230.89,-384.5 326.78,-352.89 368.9,-335.46"/>
<polygon fill="black" stroke="black" points="118.29,-233.17 113.69,-223.63 111.34,-233.96 118.29,-233.17"/>
</g>
<!-- Node1&#45;&gt;Node3 -->
<g id="edge8" class="edge">
<title>Node1&#45;&gt;Node3</title>
<path fill="none" stroke="orange" stroke-dasharray="5,2" d="M118.27,-223.84C126.7,-238.6 144.64,-266.12 168,-279.95 219.83,-310.64 242.06,-293.57 301,-305.95 316.65,-309.24 333.81,-313.05 348.84,-316.45"/>
<text text-anchor="middle" x="234.5" y="-330.95" font-family="Helvetica,sans-Serif" font-size="10.00">irio::ProfileCPUDAQ</text>
<text text-anchor="middle" x="234.5" y="-319.95" font-family="Helvetica,sans-Serif" font-size="10.00">irio::ProfileCPUDAQcRIO</text>
<text text-anchor="middle" x="234.5" y="-308.95" font-family="Helvetica,sans-Serif" font-size="10.00">irio::ProfileCPUDAQFlexRIO</text>
</g>
<!-- Node1&#45;&gt;Node6 -->
<g id="edge5" class="edge">
<title>Node1&#45;&gt;Node6</title>
<path fill="none" stroke="black" d="M130.17,-230.64C140.33,-239.45 153.93,-249.54 168,-254.95 219.85,-274.91 283.32,-279.09 329.1,-278.91"/>
<polygon fill="black" stroke="black" points="132.27,-227.82 122.52,-223.67 127.56,-232.99 132.27,-227.82"/>
</g>
<!-- Node1&#45;&gt;Node7 -->
<g id="edge6" class="edge">
<title>Node1&#45;&gt;Node7</title>
<path fill="none" stroke="black" d="M140.02,-227.75C148.72,-231.5 158.56,-235.06 168,-236.95 227.74,-248.94 298.31,-243.08 343.57,-236.84"/>
<polygon fill="black" stroke="black" points="141.31,-224.49 130.76,-223.5 138.39,-230.85 141.31,-224.49"/>
</g>
<!-- Node1&#45;&gt;Node7 -->
<g id="edge11" class="edge">
<title>Node1&#45;&gt;Node7</title>
<path fill="none" stroke="orange" stroke-dasharray="5,2" d="M150.27,-211.64C156.2,-211.35 162.26,-211.11 168,-210.95 227.09,-209.34 242.18,-205.06 301,-210.95 317.63,-212.61 335.74,-215.99 351.27,-219.37"/>
<text text-anchor="middle" x="234.5" y="-224.95" font-family="Helvetica,sans-Serif" font-size="10.00">irio::ProfileCPUDAQFlexRIO</text>
<text text-anchor="middle" x="234.5" y="-213.95" font-family="Helvetica,sans-Serif" font-size="10.00">irio::ProfileFlexRIO</text>
</g>
<!-- Node1&#45;&gt;Node4 -->
<g id="edge3" class="edge">
<title>Node1&#45;&gt;Node4</title>
<path fill="none" stroke="black" d="M160.29,-205.11C162.89,-204.7 165.48,-204.31 168,-203.95 218.44,-196.76 275.64,-190.89 319.34,-186.88"/>
<polygon fill="black" stroke="black" points="159.51,-201.69 150.21,-206.79 160.65,-208.6 159.51,-201.69"/>
</g>
<!-- Node1&#45;&gt;Node8 -->
<g id="edge7" class="edge">
<title>Node1&#45;&gt;Node8</title>
<path fill="none" stroke="black" d="M137.87,-199.14C147.1,-194.11 157.8,-188.79 168,-184.95 230.49,-161.44 306.9,-145.92 351.83,-138.05"/>
<polygon fill="black" stroke="black" points="135.86,-196.26 128.87,-204.22 139.3,-202.35 135.86,-196.26"/>
</g>
<!-- Node1&#45;&gt;Node8 -->
<g id="edge9" class="edge">
<title>Node1&#45;&gt;Node8</title>
<path fill="none" stroke="orange" stroke-dasharray="5,2" d="M115.45,-204.23C120.99,-184.63 136.49,-140.73 168,-122.95 230.49,-87.7 319.37,-108.42 363.3,-122.39"/>
<text text-anchor="middle" x="234.5" y="-136.95" font-family="Helvetica,sans-Serif" font-size="10.00">irio::ProfileCPUDAQcRIO</text>
<text text-anchor="middle" x="234.5" y="-125.95" font-family="Helvetica,sans-Serif" font-size="10.00">irio::ProfileCRIO</text>
</g>
<!-- Node10 -->
<g id="node9" class="node">
<title>Node10</title>
<g id="a_node9"><a xlink:href="group__FlexRIO.html" target="_top" xlink:title=" ">
<polygon fill="none" stroke="black" points="463,-88.95 319,-88.95 319,-58.95 463,-58.95 463,-88.95"/>
<text text-anchor="start" x="327" y="-76.95" font-family="Helvetica,sans-Serif" font-size="10.00">Specific Classes/Functions</text>
<text text-anchor="middle" x="391" y="-65.95" font-family="Helvetica,sans-Serif" font-size="10.00"> to FlexRIO</text>
</a>
</g>
</g>
<!-- Node1&#45;&gt;Node10 -->
<g id="edge12" class="edge">
<title>Node1&#45;&gt;Node10</title>
<path fill="none" stroke="orange" stroke-dasharray="5,2" d="M113.5,-204.19C115.41,-178.3 124.56,-107.82 168,-77.95 216.13,-44.87 285.04,-49.54 333.28,-58.87"/>
<text text-anchor="middle" x="234.5" y="-91.95" font-family="Helvetica,sans-Serif" font-size="10.00">irio::ProfileCPUDAQFlexRIO</text>
<text text-anchor="middle" x="234.5" y="-80.95" font-family="Helvetica,sans-Serif" font-size="10.00">irio::ProfileFlexRIO</text>
</g>
<!-- Node9 -->
<g id="node10" class="node">
<title>Node9</title>
<g id="a_node10"><a xlink:href="group__cRIO.html" target="_top" xlink:title=" ">
<polygon fill="none" stroke="black" points="463,-40.95 319,-40.95 319,-10.95 463,-10.95 463,-40.95"/>
<text text-anchor="start" x="327" y="-28.95" font-family="Helvetica,sans-Serif" font-size="10.00">Specific Classes/Functions</text>
<text text-anchor="middle" x="391" y="-17.95" font-family="Helvetica,sans-Serif" font-size="10.00"> to cRIO</text>
</a>
</g>
</g>
<!-- Node1&#45;&gt;Node9 -->
<g id="edge10" class="edge">
<title>Node1&#45;&gt;Node9</title>
<path fill="none" stroke="orange" stroke-dasharray="5,2" d="M114.33,-204.28C119.36,-169.14 138.52,-49.12 168,-26.95 217.6,10.34 292.62,1.12 341.47,-10.86"/>
<text text-anchor="middle" x="234.5" y="-40.95" font-family="Helvetica,sans-Serif" font-size="10.00">irio::ProfileCPUDAQcRIO</text>
<text text-anchor="middle" x="234.5" y="-29.95" font-family="Helvetica,sans-Serif" font-size="10.00">irio::ProfileCRIO</text>
</g>
</g>
</svg>
