<?xml version="1.0" encoding="UTF-8" standalone="no"?>
<!DOCTYPE svg PUBLIC "-//W3C//DTD SVG 1.1//EN"
 "http://www.w3.org/Graphics/SVG/1.1/DTD/svg11.dtd">
<!-- Generated by graphviz version 2.43.0 (0)
 -->
<!-- Title: IRIO Terminals Pages: 1 -->
<svg width="457pt" height="124pt"
 viewBox="0.00 0.00 457.00 124.00" xmlns="http://www.w3.org/2000/svg" xmlns:xlink="http://www.w3.org/1999/xlink">
<g id="graph0" class="graph" transform="scale(1 1) rotate(0) translate(4 120)">
<title>IRIO Terminals</title>
<!-- Node2 -->
<g id="node1" class="node">
<title>Node2</title>
<g id="a_node1"><a xlink:href="group__IRIO.html" target="_top" xlink:title=" ">
<polygon fill="none" stroke="black" points="37,-67.5 0,-67.5 0,-48.5 37,-48.5 37,-67.5"/>
<text text-anchor="middle" x="18.5" y="-55.5" font-family="Helvetica,sans-Serif" font-size="10.00">IRIO</text>
</a>
</g>
</g>
<!-- Node1 -->
<g id="node4" class="node">
<title>Node1</title>
<g id="a_node4"><a xlink:title=" ">
<polygon fill="#bfbfbf" stroke="black" points="161,-67.5 74,-67.5 74,-48.5 161,-48.5 161,-67.5"/>
<text text-anchor="middle" x="117.5" y="-55.5" font-family="Helvetica,sans-Serif" font-size="10.00">IRIO Terminals</text>
</a>
</g>
</g>
<!-- Node2&#45;&gt;Node1 -->
<g id="edge1" class="edge">
<title>Node2&#45;&gt;Node1</title>
<path fill="none" stroke="black" d="M47.46,-58C55.69,-58 64.9,-58 73.84,-58"/>
<polygon fill="black" stroke="black" points="47.29,-54.5 37.29,-58 47.29,-61.5 47.29,-54.5"/>
</g>
<!-- Node5 -->
<g id="node2" class="node">
<title>Node5</title>
<g id="a_node2"><a xlink:href="group__FlexRIO.html" target="_top" xlink:title=" ">
<polygon fill="none" stroke="black" points="449,-116 305,-116 305,-86 449,-86 449,-116"/>
<text text-anchor="start" x="313" y="-104" font-family="Helvetica,sans-Serif" font-size="10.00">Specific Classes/Functions</text>
<text text-anchor="middle" x="377" y="-93" font-family="Helvetica,sans-Serif" font-size="10.00"> to FlexRIO</text>
</a>
</g>
</g>
<!-- Node3 -->
<g id="node3" class="node">
<title>Node3</title>
<g id="a_node3"><a xlink:href="group__DMATerminals.html" target="_top" xlink:title=" ">
<polygon fill="none" stroke="black" points="422,-67.5 332,-67.5 332,-48.5 422,-48.5 422,-67.5"/>
<text text-anchor="middle" x="377" y="-55.5" font-family="Helvetica,sans-Serif" font-size="10.00">DMA Terminals</text>
</a>
</g>
</g>
<!-- Node1&#45;&gt;Node5 -->
<g id="edge4" class="edge">
<title>Node1&#45;&gt;Node5</title>
<path fill="none" stroke="orange" stroke-dasharray="5,2" d="M157.46,-67.5C164.6,-69.11 172.01,-70.68 179,-72 220.44,-79.83 267.13,-86.79 304.64,-91.92"/>
<text text-anchor="middle" x="233" y="-92" font-family="Helvetica,sans-Serif" font-size="10.00">irio::TerminalsFlexRIO</text>
</g>
<!-- Node1&#45;&gt;Node3 -->
<g id="edge2" class="edge">
<title>Node1&#45;&gt;Node3</title>
<path fill="none" stroke="black" d="M171.07,-58C218.38,-58 287.11,-58 331.69,-58"/>
<polygon fill="black" stroke="black" points="171.02,-54.5 161.02,-58 171.02,-61.5 171.02,-54.5"/>
</g>
<!-- Node4 -->
<g id="node5" class="node">
<title>Node4</title>
<g id="a_node5"><a xlink:href="group__cRIO.html" target="_top" xlink:title=" ">
<polygon fill="none" stroke="black" points="449,-30 305,-30 305,0 449,0 449,-30"/>
<text text-anchor="start" x="313" y="-18" font-family="Helvetica,sans-Serif" font-size="10.00">Specific Classes/Functions</text>
<text text-anchor="middle" x="377" y="-7" font-family="Helvetica,sans-Serif" font-size="10.00"> to cRIO</text>
</a>
</g>
</g>
<!-- Node1&#45;&gt;Node4 -->
<g id="edge3" class="edge">
<title>Node1&#45;&gt;Node4</title>
<path fill="none" stroke="orange" stroke-dasharray="5,2" d="M154.52,-48.43C162.54,-46.48 171.03,-44.55 179,-43 220.37,-34.95 267.05,-28.22 304.58,-23.37"/>
<text text-anchor="middle" x="233" y="-46" font-family="Helvetica,sans-Serif" font-size="10.00">irio::TerminalscRIO</text>
</g>
</g>
</svg>
