<?xml version="1.0" encoding="UTF-8" standalone="no"?>
<!DOCTYPE svg PUBLIC "-//W3C//DTD SVG 1.1//EN"
 "http://www.w3.org/Graphics/SVG/1.1/DTD/svg11.dtd">
<!-- Generated by graphviz version 2.43.0 (0)
 -->
<!-- Title: cRIO Profiles Pages: 1 -->
<svg width="316pt" height="40pt"
 viewBox="0.00 0.00 316.00 39.50" xmlns="http://www.w3.org/2000/svg" xmlns:xlink="http://www.w3.org/1999/xlink">
<g id="graph0" class="graph" transform="scale(1 1) rotate(0) translate(4 35.5)">
<title>cRIO Profiles</title>
<!-- Node1 -->
<g id="node1" class="node">
<title>Node1</title>
<g id="a_node1"><a xlink:title=" ">
<polygon fill="#bfbfbf" stroke="black" points="78,-19 0,-19 0,0 78,0 78,-19"/>
<text text-anchor="middle" x="39" y="-7" font-family="Helvetica,sans-Serif" font-size="10.00">cRIO Profiles</text>
</a>
</g>
</g>
<!-- Node2 -->
<g id="node2" class="node">
<title>Node2</title>
<g id="a_node2"><a xlink:href="group__Profiles.html" target="_top" xlink:title=" ">
<polygon fill="none" stroke="black" points="308,-19 232,-19 232,0 308,0 308,-19"/>
<text text-anchor="middle" x="270" y="-7" font-family="Helvetica,sans-Serif" font-size="10.00">IRIO Profiles</text>
</a>
</g>
</g>
<!-- Node1&#45;&gt;Node2 -->
<g id="edge2" class="edge">
<title>Node1&#45;&gt;Node2</title>
<path fill="none" stroke="orange" stroke-dasharray="5,2" d="M78.07,-9.5C120.8,-9.5 189.68,-9.5 231.98,-9.5"/>
<text text-anchor="middle" x="155" y="-23.5" font-family="Helvetica,sans-Serif" font-size="10.00">irio::ProfileCPUDAQcRIO</text>
<text text-anchor="middle" x="155" y="-12.5" font-family="Helvetica,sans-Serif" font-size="10.00">irio::ProfileIOcRIO</text>
</g>
<!-- Node2&#45;&gt;Node1 -->
<g id="edge1" class="edge">
<title>Node2&#45;&gt;Node1</title>
<path fill="none" stroke="black" d="M221.68,-7.67C219.08,-7.6 216.51,-7.55 214,-7.5 161.56,-6.55 148.44,-6.56 96,-7.5 90.26,-7.6 84.19,-7.76 78.25,-7.95"/>
<polygon fill="black" stroke="black" points="221.63,-11.17 231.73,-7.96 221.83,-4.17 221.63,-11.17"/>
</g>
</g>
</svg>
