<?xml version="1.0" encoding="UTF-8" standalone="no"?>
<!DOCTYPE svg PUBLIC "-//W3C//DTD SVG 1.1//EN"
 "http://www.w3.org/Graphics/SVG/1.1/DTD/svg11.dtd">
<!-- Generated by graphviz version 2.43.0 (0)
 -->
<!-- Title: IMAQ Terminals Pages: 1 -->
<svg width="380pt" height="64pt"
 viewBox="0.00 0.00 380.00 64.00" xmlns="http://www.w3.org/2000/svg" xmlns:xlink="http://www.w3.org/1999/xlink">
<g id="graph0" class="graph" transform="scale(1 1) rotate(0) translate(4 60)">
<title>IMAQ Terminals</title>
<!-- Node4 -->
<g id="node1" class="node">
<title>Node4</title>
<g id="a_node1"><a xlink:href="group__IMAQGPUTerminals.html" target="_top" xlink:title=" ">
<polygon fill="none" stroke="black" points="372,-56 255,-56 255,-37 372,-37 372,-56"/>
<text text-anchor="middle" x="313.5" y="-44" font-family="Helvetica,sans-Serif" font-size="10.00">IMAQ GPU Terminals</text>
</a>
</g>
</g>
<!-- Node3 -->
<g id="node2" class="node">
<title>Node3</title>
<g id="a_node2"><a xlink:href="group__IMAQCPUTerminals.html" target="_top" xlink:title=" ">
<polygon fill="none" stroke="black" points="371.5,-19 255.5,-19 255.5,0 371.5,0 371.5,-19"/>
<text text-anchor="middle" x="313.5" y="-7" font-family="Helvetica,sans-Serif" font-size="10.00">IMAQ CPU Terminals</text>
</a>
</g>
</g>
<!-- Node1 -->
<g id="node3" class="node">
<title>Node1</title>
<g id="a_node3"><a xlink:title=" ">
<polygon fill="#bfbfbf" stroke="black" points="219,-37 126,-37 126,-18 219,-18 219,-37"/>
<text text-anchor="middle" x="172.5" y="-25" font-family="Helvetica,sans-Serif" font-size="10.00">IMAQ Terminals</text>
</a>
</g>
</g>
<!-- Node1&#45;&gt;Node4 -->
<g id="edge3" class="edge">
<title>Node1&#45;&gt;Node4</title>
<path fill="none" stroke="black" d="M229.11,-35.1C237.53,-36.25 246.24,-37.44 254.71,-38.6"/>
<polygon fill="black" stroke="black" points="229.4,-31.61 219.01,-33.72 228.45,-38.54 229.4,-31.61"/>
</g>
<!-- Node1&#45;&gt;Node3 -->
<g id="edge2" class="edge">
<title>Node1&#45;&gt;Node3</title>
<path fill="none" stroke="black" d="M228.97,-20.32C237.6,-19.2 246.53,-18.04 255.2,-16.92"/>
<polygon fill="black" stroke="black" points="228.48,-16.85 219.01,-21.61 229.38,-23.79 228.48,-16.85"/>
</g>
<!-- Node2 -->
<g id="node4" class="node">
<title>Node2</title>
<g id="a_node4"><a xlink:href="group__DMATerminals.html" target="_top" xlink:title=" ">
<polygon fill="none" stroke="black" points="90,-37 0,-37 0,-18 90,-18 90,-37"/>
<text text-anchor="middle" x="45" y="-25" font-family="Helvetica,sans-Serif" font-size="10.00">DMA Terminals</text>
</a>
</g>
</g>
<!-- Node2&#45;&gt;Node1 -->
<g id="edge1" class="edge">
<title>Node2&#45;&gt;Node1</title>
<path fill="none" stroke="black" d="M100.47,-27.5C108.97,-27.5 117.68,-27.5 125.96,-27.5"/>
<polygon fill="black" stroke="black" points="100.25,-24 90.25,-27.5 100.25,-31 100.25,-24"/>
</g>
</g>
</svg>
