<?xml version="1.0" encoding="UTF-8" standalone="no"?>
<!DOCTYPE svg PUBLIC "-//W3C//DTD SVG 1.1//EN"
 "http://www.w3.org/Graphics/SVG/1.1/DTD/svg11.dtd">
<!-- Generated by graphviz version 2.43.0 (0)
 -->
<!-- Title: Modules specific to cRIO Pages: 1 -->
<svg width="324pt" height="76pt"
 viewBox="0.00 0.00 324.00 75.50" xmlns="http://www.w3.org/2000/svg" xmlns:xlink="http://www.w3.org/1999/xlink">
<g id="graph0" class="graph" transform="scale(1 1) rotate(0) translate(4 71.5)">
<title>Modules specific to cRIO</title>
<!-- Node1 -->
<g id="node1" class="node">
<title>Node1</title>
<g id="a_node1"><a xlink:title=" ">
<polygon fill="#bfbfbf" stroke="black" points="316,-45.5 180,-45.5 180,-26.5 316,-26.5 316,-45.5"/>
<text text-anchor="middle" x="248" y="-33.5" font-family="Helvetica,sans-Serif" font-size="10.00">Modules specific to cRIO</text>
</a>
</g>
</g>
<!-- Node2 -->
<g id="node2" class="node">
<title>Node2</title>
<g id="a_node2"><a xlink:href="group__Modules.html" target="_top" xlink:title=" ">
<polygon fill="none" stroke="black" points="116,-67.5 28,-67.5 28,-48.5 116,-48.5 116,-67.5"/>
<text text-anchor="middle" x="72" y="-55.5" font-family="Helvetica,sans-Serif" font-size="10.00">Modules types</text>
</a>
</g>
</g>
<!-- Node2&#45;&gt;Node1 -->
<g id="edge1" class="edge">
<title>Node2&#45;&gt;Node1</title>
<path fill="none" stroke="black" d="M126.24,-51.27C143.13,-49.13 162.02,-46.74 179.76,-44.5"/>
<polygon fill="black" stroke="black" points="125.49,-47.83 116.01,-52.56 126.37,-54.78 125.49,-47.83"/>
</g>
<!-- Node3 -->
<g id="node3" class="node">
<title>Node3</title>
<g id="a_node3"><a xlink:href="group__cRIO.html" target="_top" xlink:title=" ">
<polygon fill="none" stroke="black" points="144,-30 0,-30 0,0 144,0 144,-30"/>
<text text-anchor="start" x="8" y="-18" font-family="Helvetica,sans-Serif" font-size="10.00">Specific Classes/Functions</text>
<text text-anchor="middle" x="72" y="-7" font-family="Helvetica,sans-Serif" font-size="10.00"> to cRIO</text>
</a>
</g>
</g>
<!-- Node3&#45;&gt;Node1 -->
<g id="edge2" class="edge">
<title>Node3&#45;&gt;Node1</title>
<path fill="none" stroke="black" d="M154.09,-24.79C162.71,-25.83 171.41,-26.88 179.85,-27.9"/>
<polygon fill="black" stroke="black" points="154.37,-21.3 144.02,-23.57 153.53,-28.24 154.37,-21.3"/>
</g>
</g>
</svg>
