<?xml version="1.0" encoding="UTF-8" standalone="no"?>
<!DOCTYPE svg PUBLIC "-//W3C//DTD SVG 1.1//EN"
 "http://www.w3.org/Graphics/SVG/1.1/DTD/svg11.dtd">
<!-- Generated by graphviz version 2.43.0 (0)
 -->
<!-- Title: Data Acquisition Profiles Pages: 1 -->
<svg width="457pt" height="235pt"
 viewBox="0.00 0.00 457.00 235.00" xmlns="http://www.w3.org/2000/svg" xmlns:xlink="http://www.w3.org/1999/xlink">
<g id="graph0" class="graph" transform="scale(1 1) rotate(0) translate(4 231)">
<title>Data Acquisition Profiles</title>
<!-- Node1 -->
<g id="node1" class="node">
<title>Node1</title>
<g id="a_node1"><a xlink:title=" ">
<polygon fill="#bfbfbf" stroke="black" points="136,-114.5 0,-114.5 0,-95.5 136,-95.5 136,-114.5"/>
<text text-anchor="middle" x="68" y="-102.5" font-family="Helvetica,sans-Serif" font-size="10.00">Data Acquisition Profiles</text>
</a>
</g>
</g>
<!-- Node5 -->
<g id="node2" class="node">
<title>Node5</title>
<g id="a_node2"><a xlink:href="group__ProfilesFlexRIO.html" target="_top" xlink:title=" ">
<polygon fill="none" stroke="black" points="424,-224.5 330,-224.5 330,-205.5 424,-205.5 424,-224.5"/>
<text text-anchor="middle" x="377" y="-212.5" font-family="Helvetica,sans-Serif" font-size="10.00">FlexRIO Profiles</text>
</a>
</g>
</g>
<!-- Node1&#45;&gt;Node5 -->
<g id="edge5" class="edge">
<title>Node1&#45;&gt;Node5</title>
<path fill="none" stroke="orange" stroke-dasharray="5,2" d="M75.62,-114.63C88.43,-132.38 118.49,-170 154,-187 210.24,-213.92 283.22,-218.09 329.85,-217.46"/>
<text text-anchor="middle" x="220.5" y="-219" font-family="Helvetica,sans-Serif" font-size="10.00">irio::ProfileCPUDAQFlexRIO</text>
</g>
<!-- Node3 -->
<g id="node3" class="node">
<title>Node3</title>
<g id="a_node3"><a xlink:href="group__ProfilesCRIO.html" target="_top" xlink:title=" ">
<polygon fill="none" stroke="black" points="416,-187.5 338,-187.5 338,-168.5 416,-168.5 416,-187.5"/>
<text text-anchor="middle" x="377" y="-175.5" font-family="Helvetica,sans-Serif" font-size="10.00">cRIO Profiles</text>
</a>
</g>
</g>
<!-- Node1&#45;&gt;Node3 -->
<g id="edge3" class="edge">
<title>Node1&#45;&gt;Node3</title>
<path fill="none" stroke="orange" stroke-dasharray="5,2" d="M84.01,-114.55C100.5,-124.57 128.1,-139.95 154,-148 216.58,-167.45 292.96,-174.29 337.86,-176.7"/>
<text text-anchor="middle" x="220.5" y="-175" font-family="Helvetica,sans-Serif" font-size="10.00">irio::ProfileCPUDAQcRIO</text>
</g>
<!-- Node2 -->
<g id="node4" class="node">
<title>Node2</title>
<g id="a_node4"><a xlink:href="group__Profiles.html" target="_top" xlink:title=" ">
<polygon fill="none" stroke="black" points="415,-123.5 339,-123.5 339,-104.5 415,-104.5 415,-123.5"/>
<text text-anchor="middle" x="377" y="-111.5" font-family="Helvetica,sans-Serif" font-size="10.00">IRIO Profiles</text>
</a>
</g>
</g>
<!-- Node1&#45;&gt;Node2 -->
<g id="edge2" class="edge">
<title>Node1&#45;&gt;Node2</title>
<path fill="none" stroke="orange" stroke-dasharray="5,2" d="M136.37,-106.98C198.5,-108.8 288.46,-111.43 338.62,-112.9"/>
<text text-anchor="middle" x="220.5" y="-136" font-family="Helvetica,sans-Serif" font-size="10.00">irio::ProfileCPUDAQ</text>
<text text-anchor="middle" x="220.5" y="-125" font-family="Helvetica,sans-Serif" font-size="10.00">irio::ProfileCPUDAQcRIO</text>
<text text-anchor="middle" x="220.5" y="-114" font-family="Helvetica,sans-Serif" font-size="10.00">irio::ProfileCPUDAQFlexRIO</text>
</g>
<!-- Node6 -->
<g id="node5" class="node">
<title>Node6</title>
<g id="a_node5"><a xlink:href="group__FlexRIO.html" target="_top" xlink:title=" ">
<polygon fill="none" stroke="black" points="449,-78 305,-78 305,-48 449,-48 449,-78"/>
<text text-anchor="start" x="313" y="-66" font-family="Helvetica,sans-Serif" font-size="10.00">Specific Classes/Functions</text>
<text text-anchor="middle" x="377" y="-55" font-family="Helvetica,sans-Serif" font-size="10.00"> to FlexRIO</text>
</a>
</g>
</g>
<!-- Node1&#45;&gt;Node6 -->
<g id="edge6" class="edge">
<title>Node1&#45;&gt;Node6</title>
<path fill="none" stroke="orange" stroke-dasharray="5,2" d="M107.32,-95.44C121.87,-92.07 138.63,-88.51 154,-86 204.1,-77.83 261.06,-72 304.74,-68.26"/>
<text text-anchor="middle" x="220.5" y="-89" font-family="Helvetica,sans-Serif" font-size="10.00">irio::ProfileCPUDAQFlexRIO</text>
</g>
<!-- Node4 -->
<g id="node6" class="node">
<title>Node4</title>
<g id="a_node6"><a xlink:href="group__cRIO.html" target="_top" xlink:title=" ">
<polygon fill="none" stroke="black" points="449,-30 305,-30 305,0 449,0 449,-30"/>
<text text-anchor="start" x="313" y="-18" font-family="Helvetica,sans-Serif" font-size="10.00">Specific Classes/Functions</text>
<text text-anchor="middle" x="377" y="-7" font-family="Helvetica,sans-Serif" font-size="10.00"> to cRIO</text>
</a>
</g>
</g>
<!-- Node1&#45;&gt;Node4 -->
<g id="edge4" class="edge">
<title>Node1&#45;&gt;Node4</title>
<path fill="none" stroke="orange" stroke-dasharray="5,2" d="M81.49,-95.47C97.43,-83.81 126.27,-64.35 154,-54 202.58,-35.87 260.34,-26.06 304.77,-20.82"/>
<text text-anchor="middle" x="220.5" y="-57" font-family="Helvetica,sans-Serif" font-size="10.00">irio::ProfileCPUDAQcRIO</text>
</g>
<!-- Node2&#45;&gt;Node1 -->
<g id="edge1" class="edge">
<title>Node2&#45;&gt;Node1</title>
<path fill="none" stroke="black" d="M328.83,-107.07C315.35,-105.39 300.62,-103.84 287,-103 228,-99.37 213.11,-102.3 154,-103 148.24,-103.07 142.27,-103.16 136.27,-103.27"/>
<polygon fill="black" stroke="black" points="328.49,-110.56 338.85,-108.37 329.39,-103.62 328.49,-110.56"/>
</g>
</g>
</svg>
