<?xml version="1.0" encoding="UTF-8" standalone="no"?>
<!DOCTYPE svg PUBLIC "-//W3C//DTD SVG 1.1//EN"
 "http://www.w3.org/Graphics/SVG/1.1/DTD/svg11.dtd">
<!-- Generated by graphviz version 2.43.0 (0)
 -->
<!-- Title: IRIO Pages: 1 -->
<svg width="225pt" height="359pt"
 viewBox="0.00 0.00 225.00 359.00" xmlns="http://www.w3.org/2000/svg" xmlns:xlink="http://www.w3.org/1999/xlink">
<g id="graph0" class="graph" transform="scale(1 1) rotate(0) translate(4 355)">
<title>IRIO</title>
<!-- Node9 -->
<g id="node1" class="node">
<title>Node9</title>
<g id="a_node1"><a xlink:href="group__Modules.html" target="_top" xlink:title=" ">
<polygon fill="none" stroke="black" points="189,-351 101,-351 101,-332 189,-332 189,-351"/>
<text text-anchor="middle" x="145" y="-339" font-family="Helvetica,sans-Serif" font-size="10.00">Modules types</text>
</a>
</g>
</g>
<!-- Node1 -->
<g id="node2" class="node">
<title>Node1</title>
<g id="a_node2"><a xlink:title=" ">
<polygon fill="#bfbfbf" stroke="black" points="37,-191 0,-191 0,-172 37,-172 37,-191"/>
<text text-anchor="middle" x="18.5" y="-179" font-family="Helvetica,sans-Serif" font-size="10.00">IRIO</text>
</a>
</g>
</g>
<!-- Node1&#45;&gt;Node9 -->
<g id="edge8" class="edge">
<title>Node1&#45;&gt;Node9</title>
<path fill="none" stroke="black" d="M21.27,-201.44C25.09,-232.26 36.95,-291.28 73,-323.5 80.77,-330.45 90.85,-334.79 100.96,-337.49"/>
<polygon fill="black" stroke="black" points="24.71,-200.69 20.16,-191.12 17.75,-201.44 24.71,-200.69"/>
</g>
<!-- Node3 -->
<g id="node3" class="node">
<title>Node3</title>
<g id="a_node3"><a xlink:href="group__Platforms.html" target="_top" xlink:title=" ">
<polygon fill="none" stroke="black" points="177,-314 113,-314 113,-295 177,-295 177,-314"/>
<text text-anchor="middle" x="145" y="-302" font-family="Helvetica,sans-Serif" font-size="10.00">Platforms</text>
</a>
</g>
</g>
<!-- Node1&#45;&gt;Node3 -->
<g id="edge2" class="edge">
<title>Node1&#45;&gt;Node3</title>
<path fill="none" stroke="black" d="M24.14,-200.99C30.84,-224.79 45.54,-264.57 73,-286.5 84.23,-295.47 99.38,-300.03 112.8,-302.32"/>
<polygon fill="black" stroke="black" points="27.45,-199.81 21.54,-191.02 20.68,-201.58 27.45,-199.81"/>
</g>
<!-- Node8 -->
<g id="node4" class="node">
<title>Node8</title>
<g id="a_node4"><a xlink:href="group__Profiles.html" target="_top" xlink:title=" ">
<polygon fill="none" stroke="black" points="183,-277 107,-277 107,-258 183,-258 183,-277"/>
<text text-anchor="middle" x="145" y="-265" font-family="Helvetica,sans-Serif" font-size="10.00">IRIO Profiles</text>
</a>
</g>
</g>
<!-- Node1&#45;&gt;Node8 -->
<g id="edge7" class="edge">
<title>Node1&#45;&gt;Node8</title>
<path fill="none" stroke="black" d="M29.94,-200.38C39.3,-215.57 54.4,-236.34 73,-248.5 83.04,-255.07 95.28,-259.37 106.75,-262.19"/>
<polygon fill="black" stroke="black" points="32.72,-198.2 24.64,-191.34 26.68,-201.74 32.72,-198.2"/>
</g>
<!-- Node5 -->
<g id="node5" class="node">
<title>Node5</title>
<g id="a_node5"><a xlink:href="group__FlexRIO.html" target="_top" xlink:title=" ">
<polygon fill="none" stroke="black" points="217,-239.5 73,-239.5 73,-209.5 217,-209.5 217,-239.5"/>
<text text-anchor="start" x="81" y="-227.5" font-family="Helvetica,sans-Serif" font-size="10.00">Specific Classes/Functions</text>
<text text-anchor="middle" x="145" y="-216.5" font-family="Helvetica,sans-Serif" font-size="10.00"> to FlexRIO</text>
</a>
</g>
</g>
<!-- Node1&#45;&gt;Node5 -->
<g id="edge4" class="edge">
<title>Node1&#45;&gt;Node5</title>
<path fill="none" stroke="black" d="M46.96,-191.34C55.32,-194.31 64.53,-197.56 73,-200.5 81.48,-203.44 90.55,-206.54 99.27,-209.5"/>
<polygon fill="black" stroke="black" points="47.9,-187.96 37.31,-187.9 45.55,-194.56 47.9,-187.96"/>
</g>
<!-- Node10 -->
<g id="node6" class="node">
<title>Node10</title>
<g id="a_node6"><a xlink:href="group__Errors.html" target="_top" xlink:title=" ">
<polygon fill="none" stroke="black" points="198.5,-191 91.5,-191 91.5,-172 198.5,-172 198.5,-191"/>
<text text-anchor="middle" x="145" y="-179" font-family="Helvetica,sans-Serif" font-size="10.00">Error Management</text>
</a>
</g>
</g>
<!-- Node1&#45;&gt;Node10 -->
<g id="edge9" class="edge">
<title>Node1&#45;&gt;Node10</title>
<path fill="none" stroke="black" d="M47.21,-181.5C60.19,-181.5 76.1,-181.5 91.25,-181.5"/>
<polygon fill="black" stroke="black" points="47.07,-178 37.07,-181.5 47.07,-185 47.07,-178"/>
</g>
<!-- Node7 -->
<g id="node7" class="node">
<title>Node7</title>
<g id="a_node7"><a xlink:href="group__RSeries.html" target="_top" xlink:title=" ">
<polygon fill="none" stroke="black" points="217,-153.5 73,-153.5 73,-123.5 217,-123.5 217,-153.5"/>
<text text-anchor="start" x="81" y="-141.5" font-family="Helvetica,sans-Serif" font-size="10.00">Specific Classes/Functions</text>
<text text-anchor="middle" x="145" y="-130.5" font-family="Helvetica,sans-Serif" font-size="10.00"> to R Series</text>
</a>
</g>
</g>
<!-- Node1&#45;&gt;Node7 -->
<g id="edge6" class="edge">
<title>Node1&#45;&gt;Node7</title>
<path fill="none" stroke="black" d="M46.7,-172.1C62.44,-166.67 82.6,-159.71 100.49,-153.53"/>
<polygon fill="black" stroke="black" points="45.38,-168.86 37.07,-175.43 47.67,-175.47 45.38,-168.86"/>
</g>
<!-- Node4 -->
<g id="node8" class="node">
<title>Node4</title>
<g id="a_node8"><a xlink:href="group__Terminals.html" target="_top" xlink:title=" ">
<polygon fill="none" stroke="black" points="188.5,-105 101.5,-105 101.5,-86 188.5,-86 188.5,-105"/>
<text text-anchor="middle" x="145" y="-93" font-family="Helvetica,sans-Serif" font-size="10.00">IRIO Terminals</text>
</a>
</g>
</g>
<!-- Node1&#45;&gt;Node4 -->
<g id="edge3" class="edge">
<title>Node1&#45;&gt;Node4</title>
<path fill="none" stroke="black" d="M29.94,-162.62C39.3,-147.43 54.4,-126.66 73,-114.5 81.44,-108.98 91.43,-105.06 101.21,-102.28"/>
<polygon fill="black" stroke="black" points="26.68,-161.26 24.64,-171.66 32.72,-164.8 26.68,-161.26"/>
</g>
<!-- Node6 -->
<g id="node9" class="node">
<title>Node6</title>
<g id="a_node9"><a xlink:href="group__cRIO.html" target="_top" xlink:title=" ">
<polygon fill="none" stroke="black" points="217,-67.5 73,-67.5 73,-37.5 217,-37.5 217,-67.5"/>
<text text-anchor="start" x="81" y="-55.5" font-family="Helvetica,sans-Serif" font-size="10.00">Specific Classes/Functions</text>
<text text-anchor="middle" x="145" y="-44.5" font-family="Helvetica,sans-Serif" font-size="10.00"> to cRIO</text>
</a>
</g>
</g>
<!-- Node1&#45;&gt;Node6 -->
<g id="edge5" class="edge">
<title>Node1&#45;&gt;Node6</title>
<path fill="none" stroke="black" d="M24.63,-162.24C31.76,-139.02 46.84,-100.31 73,-77.5 77.43,-73.64 82.5,-70.36 87.84,-67.58"/>
<polygon fill="black" stroke="black" points="21.23,-161.39 21.83,-171.97 27.96,-163.33 21.23,-161.39"/>
</g>
<!-- Node2 -->
<g id="node10" class="node">
<title>Node2</title>
<g id="a_node10"><a xlink:href="group__BFP.html" target="_top" xlink:title=" ">
<polygon fill="none" stroke="black" points="186.5,-19 103.5,-19 103.5,0 186.5,0 186.5,-19"/>
<text text-anchor="middle" x="145" y="-7" font-family="Helvetica,sans-Serif" font-size="10.00">Bitfile Parsing</text>
</a>
</g>
</g>
<!-- Node1&#45;&gt;Node2 -->
<g id="edge1" class="edge">
<title>Node1&#45;&gt;Node2</title>
<path fill="none" stroke="black" d="M20.66,-161.92C23.66,-129.4 34.43,-64.28 73,-28.5 81.33,-20.78 92.44,-16.13 103.41,-13.35"/>
<polygon fill="black" stroke="black" points="17.16,-161.73 19.89,-171.97 24.14,-162.26 17.16,-161.73"/>
</g>
</g>
</svg>
