<?xml version="1.0" encoding="UTF-8" standalone="no"?>
<!DOCTYPE svg PUBLIC "-//W3C//DTD SVG 1.1//EN"
 "http://www.w3.org/Graphics/SVG/1.1/DTD/svg11.dtd">
<!-- Generated by graphviz version 2.43.0 (0)
 -->
<!-- Title: Modules types Pages: 1 -->
<svg width="341pt" height="76pt"
 viewBox="0.00 0.00 341.00 75.50" xmlns="http://www.w3.org/2000/svg" xmlns:xlink="http://www.w3.org/1999/xlink">
<g id="graph0" class="graph" transform="scale(1 1) rotate(0) translate(4 71.5)">
<title>Modules types</title>
<!-- Node4 -->
<g id="node1" class="node">
<title>Node4</title>
<g id="a_node1"><a xlink:href="group__ModulesCRIO.html" target="_top" xlink:title=" ">
<polygon fill="none" stroke="black" points="333,-67.5 197,-67.5 197,-48.5 333,-48.5 333,-67.5"/>
<text text-anchor="middle" x="265" y="-55.5" font-family="Helvetica,sans-Serif" font-size="10.00">Modules specific to cRIO</text>
</a>
</g>
</g>
<!-- Node1 -->
<g id="node2" class="node">
<title>Node1</title>
<g id="a_node2"><a xlink:title=" ">
<polygon fill="#bfbfbf" stroke="black" points="161,-45.5 73,-45.5 73,-26.5 161,-26.5 161,-45.5"/>
<text text-anchor="middle" x="117" y="-33.5" font-family="Helvetica,sans-Serif" font-size="10.00">Modules types</text>
</a>
</g>
</g>
<!-- Node1&#45;&gt;Node4 -->
<g id="edge3" class="edge">
<title>Node1&#45;&gt;Node4</title>
<path fill="none" stroke="black" d="M171.2,-44.02C180.79,-45.46 190.88,-46.98 200.73,-48.47"/>
<polygon fill="black" stroke="black" points="171.43,-40.51 161.02,-42.48 170.38,-47.43 171.43,-40.51"/>
</g>
<!-- Node3 -->
<g id="node4" class="node">
<title>Node3</title>
<g id="a_node4"><a xlink:href="group__ModulesFlexRIO.html" target="_top" xlink:title=" ">
<polygon fill="none" stroke="black" points="320,-30 210,-30 210,0 320,0 320,-30"/>
<text text-anchor="start" x="218" y="-18" font-family="Helvetica,sans-Serif" font-size="10.00">Modules specific to</text>
<text text-anchor="middle" x="265" y="-7" font-family="Helvetica,sans-Serif" font-size="10.00"> FlexRIO</text>
</a>
</g>
</g>
<!-- Node1&#45;&gt;Node3 -->
<g id="edge2" class="edge">
<title>Node1&#45;&gt;Node3</title>
<path fill="none" stroke="black" d="M170.95,-28.38C183.62,-26.56 197.16,-24.61 209.88,-22.78"/>
<polygon fill="black" stroke="black" points="170.41,-24.92 161.02,-29.81 171.41,-31.85 170.41,-24.92"/>
</g>
<!-- Node2 -->
<g id="node3" class="node">
<title>Node2</title>
<g id="a_node3"><a xlink:href="group__IRIO.html" target="_top" xlink:title=" ">
<polygon fill="none" stroke="black" points="37,-45.5 0,-45.5 0,-26.5 37,-26.5 37,-45.5"/>
<text text-anchor="middle" x="18.5" y="-33.5" font-family="Helvetica,sans-Serif" font-size="10.00">IRIO</text>
</a>
</g>
</g>
<!-- Node2&#45;&gt;Node1 -->
<g id="edge1" class="edge">
<title>Node2&#45;&gt;Node1</title>
<path fill="none" stroke="black" d="M47.35,-36C55.29,-36 64.12,-36 72.74,-36"/>
<polygon fill="black" stroke="black" points="47.2,-32.5 37.2,-36 47.2,-39.5 47.2,-32.5"/>
</g>
</g>
</svg>
