<?xml version="1.0" encoding="UTF-8" standalone="no"?>
<!DOCTYPE svg PUBLIC "-//W3C//DTD SVG 1.1//EN"
 "http://www.w3.org/Graphics/SVG/1.1/DTD/svg11.dtd">
<!-- Generated by graphviz version 2.43.0 (0)
 -->
<!-- Title: FlexRIO Profiles Pages: 1 -->
<svg width="352pt" height="40pt"
 viewBox="0.00 0.00 352.00 39.50" xmlns="http://www.w3.org/2000/svg" xmlns:xlink="http://www.w3.org/1999/xlink">
<g id="graph0" class="graph" transform="scale(1 1) rotate(0) translate(4 35.5)">
<title>FlexRIO Profiles</title>
<!-- Node1 -->
<g id="node1" class="node">
<title>Node1</title>
<g id="a_node1"><a xlink:title=" ">
<polygon fill="#bfbfbf" stroke="black" points="94,-19 0,-19 0,0 94,0 94,-19"/>
<text text-anchor="middle" x="47" y="-7" font-family="Helvetica,sans-Serif" font-size="10.00">FlexRIO Profiles</text>
</a>
</g>
</g>
<!-- Node2 -->
<g id="node2" class="node">
<title>Node2</title>
<g id="a_node2"><a xlink:href="group__Profiles.html" target="_top" xlink:title=" ">
<polygon fill="none" stroke="black" points="344,-19 268,-19 268,0 344,0 344,-19"/>
<text text-anchor="middle" x="306" y="-7" font-family="Helvetica,sans-Serif" font-size="10.00">IRIO Profiles</text>
</a>
</g>
</g>
<!-- Node1&#45;&gt;Node2 -->
<g id="edge2" class="edge">
<title>Node1&#45;&gt;Node2</title>
<path fill="none" stroke="orange" stroke-dasharray="5,2" d="M94.24,-9.5C143.96,-9.5 222.01,-9.5 267.87,-9.5"/>
<text text-anchor="middle" x="181" y="-23.5" font-family="Helvetica,sans-Serif" font-size="10.00">irio::ProfileCPUDAQFlexRIO</text>
<text text-anchor="middle" x="181" y="-12.5" font-family="Helvetica,sans-Serif" font-size="10.00">irio::ProfileCPUIMAQFlexRIO</text>
</g>
<!-- Node2&#45;&gt;Node1 -->
<g id="edge1" class="edge">
<title>Node2&#45;&gt;Node1</title>
<path fill="none" stroke="black" d="M257.68,-7.67C255.08,-7.6 252.51,-7.55 250,-7.5 188.68,-6.39 173.33,-6.54 112,-7.5 106.22,-7.59 100.15,-7.73 94.14,-7.89"/>
<polygon fill="black" stroke="black" points="257.63,-11.17 267.73,-7.96 257.83,-4.17 257.63,-11.17"/>
</g>
</g>
</svg>
