<?xml version="1.0" encoding="UTF-8" standalone="no"?>
<!DOCTYPE svg PUBLIC "-//W3C//DTD SVG 1.1//EN"
 "http://www.w3.org/Graphics/SVG/1.1/DTD/svg11.dtd">
<!-- Generated by graphviz version 2.43.0 (0)
 -->
<!-- Title: R Series Profiles Pages: 1 -->
<svg width="347pt" height="37pt"
 viewBox="0.00 0.00 347.00 36.71" xmlns="http://www.w3.org/2000/svg" xmlns:xlink="http://www.w3.org/1999/xlink">
<g id="graph0" class="graph" transform="scale(1 1) rotate(0) translate(4 32.71)">
<title>R Series Profiles</title>
<!-- Node2 -->
<g id="node1" class="node">
<title>Node2</title>
<g id="a_node1"><a xlink:href="group__Profiles.html" target="_top" xlink:title=" ">
<polygon fill="none" stroke="black" points="76,-28.71 0,-28.71 0,-9.71 76,-9.71 76,-28.71"/>
<text text-anchor="middle" x="38" y="-16.71" font-family="Helvetica,sans-Serif" font-size="10.00">IRIO Profiles</text>
</a>
</g>
</g>
<!-- Node1 -->
<g id="node2" class="node">
<title>Node1</title>
<g id="a_node2"><a xlink:title=" ">
<polygon fill="#bfbfbf" stroke="black" points="339,-28.71 244,-28.71 244,-9.71 339,-9.71 339,-28.71"/>
<text text-anchor="middle" x="291.5" y="-16.71" font-family="Helvetica,sans-Serif" font-size="10.00">R Series Profiles</text>
</a>
</g>
</g>
<!-- Node2&#45;&gt;Node1 -->
<g id="edge1" class="edge">
<title>Node2&#45;&gt;Node1</title>
<path fill="none" stroke="black" d="M86.22,-19.21C131.32,-19.21 198.89,-19.21 243.81,-19.21"/>
<polygon fill="black" stroke="black" points="86.11,-15.71 76.11,-19.21 86.11,-22.71 86.11,-15.71"/>
</g>
<!-- Node1&#45;&gt;Node2 -->
<g id="edge2" class="edge">
<title>Node1&#45;&gt;Node2</title>
<path fill="none" stroke="orange" stroke-dasharray="5,2" d="M253.2,-9.7C244.35,-7.84 234.89,-6.16 226,-5.21 167.67,1.05 152.21,2.08 94,-5.21 86.37,-6.17 78.29,-7.84 70.73,-9.7"/>
<text text-anchor="middle" x="160" y="-8.21" font-family="Helvetica,sans-Serif" font-size="10.00">irio::ProfileCPUDAQRSeries</text>
</g>
</g>
</svg>
