<?xml version="1.0" encoding="UTF-8" standalone="no"?>
<!DOCTYPE svg PUBLIC "-//W3C//DTD SVG 1.1//EN"
 "http://www.w3.org/Graphics/SVG/1.1/DTD/svg11.dtd">
<!-- Generated by graphviz version 2.43.0 (0)
 -->
<!-- Title: Modules specific to FlexRIO Pages: 1 -->
<svg width="298pt" height="76pt"
 viewBox="0.00 0.00 298.00 75.50" xmlns="http://www.w3.org/2000/svg" xmlns:xlink="http://www.w3.org/1999/xlink">
<g id="graph0" class="graph" transform="scale(1 1) rotate(0) translate(4 71.5)">
<title>Modules specific to FlexRIO</title>
<!-- Node2 -->
<g id="node1" class="node">
<title>Node2</title>
<g id="a_node1"><a xlink:href="group__Modules.html" target="_top" xlink:title=" ">
<polygon fill="none" stroke="black" points="116,-67.5 28,-67.5 28,-48.5 116,-48.5 116,-67.5"/>
<text text-anchor="middle" x="72" y="-55.5" font-family="Helvetica,sans-Serif" font-size="10.00">Modules types</text>
</a>
</g>
</g>
<!-- Node1 -->
<g id="node2" class="node">
<title>Node1</title>
<g id="a_node2"><a xlink:title=" ">
<polygon fill="#bfbfbf" stroke="black" points="290,-51 180,-51 180,-21 290,-21 290,-51"/>
<text text-anchor="start" x="188" y="-39" font-family="Helvetica,sans-Serif" font-size="10.00">Modules specific to</text>
<text text-anchor="middle" x="235" y="-28" font-family="Helvetica,sans-Serif" font-size="10.00"> FlexRIO</text>
</a>
</g>
</g>
<!-- Node2&#45;&gt;Node1 -->
<g id="edge1" class="edge">
<title>Node2&#45;&gt;Node1</title>
<path fill="none" stroke="black" d="M126.53,-50.68C143.65,-48.35 162.61,-45.76 179.78,-43.41"/>
<polygon fill="black" stroke="black" points="125.58,-47.28 116.15,-52.1 126.53,-54.22 125.58,-47.28"/>
</g>
<!-- Node3 -->
<g id="node3" class="node">
<title>Node3</title>
<g id="a_node3"><a xlink:href="group__FlexRIO.html" target="_top" xlink:title=" ">
<polygon fill="none" stroke="black" points="144,-30 0,-30 0,0 144,0 144,-30"/>
<text text-anchor="start" x="8" y="-18" font-family="Helvetica,sans-Serif" font-size="10.00">Specific Classes/Functions</text>
<text text-anchor="middle" x="72" y="-7" font-family="Helvetica,sans-Serif" font-size="10.00"> to FlexRIO</text>
</a>
</g>
</g>
<!-- Node3&#45;&gt;Node1 -->
<g id="edge2" class="edge">
<title>Node3&#45;&gt;Node1</title>
<path fill="none" stroke="black" d="M154.22,-25.59C162.87,-26.72 171.51,-27.85 179.74,-28.92"/>
<polygon fill="black" stroke="black" points="154.45,-22.09 144.09,-24.27 153.55,-29.04 154.45,-22.09"/>
</g>
</g>
</svg>
