<?xml version="1.0" encoding="UTF-8" standalone="no"?>
<!DOCTYPE svg PUBLIC "-//W3C//DTD SVG 1.1//EN"
 "http://www.w3.org/Graphics/SVG/1.1/DTD/svg11.dtd">
<!-- Generated by graphviz version 2.43.0 (0)
 -->
<!-- Title: Specific Classes/Functions to FlexRIO Pages: 1 -->
<!--zoomable 201 -->
<svg id="main" version="1.1" xmlns="http://www.w3.org/2000/svg" xmlns:xlink="http://www.w3.org/1999/xlink" xml:space="preserve" onload="init(evt)">
<style type="text/css"><![CDATA[
.edge:hover path { stroke: red; }
.edge:hover polygon { stroke: red; fill: red; }
]]></style>
<script type="text/javascript"><![CDATA[
var edges = document.getElementsByTagName('g');
if (edges && edges.length) {
  for (var i=0;i<edges.length;i++) {
    if (edges[i].id.substr(0,4)=='edge') {
      edges[i].setAttribute('class','edge');
    }
  }
}
]]></script>
        <defs>
                <circle id="rim" cx="0" cy="0" r="7"/>
                <circle id="rim2" cx="0" cy="0" r="3.5"/>
                <g id="zoomPlus">
                        <use xlink:href="#rim" fill="#404040">
                                <set attributeName="fill" to="#808080" begin="zoomplus.mouseover" end="zoomplus.mouseout"/>
                        </use>
                        <path d="M-4,0h8M0,-4v8" fill="none" stroke="white" stroke-width="1.5" pointer-events="none"/>
                </g>
                <g id="zoomMin">
                        <use xlink:href="#rim" fill="#404040">
                                <set attributeName="fill" to="#808080" begin="zoomminus.mouseover" end="zoomminus.mouseout"/>
                        </use>
                        <path d="M-4,0h8" fill="none" stroke="white" stroke-width="1.5" pointer-events="none"/>
                </g>
                <g id="dirArrow">
                        <path fill="none" stroke="white" stroke-width="1.5" d="M0,-3.0v7 M-2.5,-0.5L0,-3.0L2.5,-0.5"/>
                </g>
               <g id="resetDef">
                       <use xlink:href="#rim2" fill="#404040">
                               <set attributeName="fill" to="#808080" begin="reset.mouseover" end="reset.mouseout"/>
                       </use>
               </g>
        </defs>

<script type="text/javascript">
var viewWidth = 531;
var viewHeight = 201;
var sectionId = 'dynsection-0';
</script>
<script xlink:href="svgpan.js"/>
<svg id="graph" class="graph">
<g id="viewport">
<title>Specific Classes/Functions to FlexRIO</title>
<!-- Node5 -->
<g id="node1" class="node">
<title>Node5</title>
<g id="a_node1"><a xlink:href="group__ProfilesDAQ.html" target="_top" xlink:title=" ">
<polygon fill="none" stroke="black" points="523,-191 387,-191 387,-172 523,-172 523,-191"/>
<text text-anchor="middle" x="455" y="-179" font-family="Helvetica,sans-Serif" font-size="10.00">Data Acquisition Profiles</text>
</a>
</g>
</g>
<!-- Node2 -->
<g id="node2" class="node">
<title>Node2</title>
<g id="a_node2"><a xlink:href="group__IRIO.html" target="_top" xlink:title=" ">
<polygon fill="none" stroke="black" points="37,-101 0,-101 0,-82 37,-82 37,-101"/>
<text text-anchor="middle" x="18.5" y="-89" font-family="Helvetica,sans-Serif" font-size="10.00">IRIO</text>
</a>
</g>
</g>
<!-- Node1 -->
<g id="node6" class="node">
<title>Node1</title>
<g id="a_node6"><a xlink:title=" ">
<polygon fill="#bfbfbf" stroke="black" points="218,-106.5 74,-106.5 74,-76.5 218,-76.5 218,-106.5"/>
<text text-anchor="start" x="82" y="-94.5" font-family="Helvetica,sans-Serif" font-size="10.00">Specific Classes/Functions</text>
<text text-anchor="middle" x="146" y="-83.5" font-family="Helvetica,sans-Serif" font-size="10.00"> to FlexRIO</text>
</a>
</g>
</g>
<!-- Node2&#45;&gt;Node1 -->
<g id="edge1" class="edge">
<title>Node2&#45;&gt;Node1</title>
<path fill="none" stroke="black" d="M47.38,-91.5C55.4,-91.5 64.53,-91.5 73.91,-91.5"/>
<polygon fill="black" stroke="black" points="47.21,-88 37.21,-91.5 47.21,-95 47.21,-88"/>
</g>
<!-- Node6 -->
<g id="node3" class="node">
<title>Node6</title>
<g id="a_node3"><a xlink:href="group__ProfilesFlexRIO.html" target="_top" xlink:title=" ">
<polygon fill="none" stroke="black" points="502,-146 408,-146 408,-127 502,-127 502,-146"/>
<text text-anchor="middle" x="455" y="-134" font-family="Helvetica,sans-Serif" font-size="10.00">FlexRIO Profiles</text>
</a>
</g>
</g>
<!-- Node4 -->
<g id="node4" class="node">
<title>Node4</title>
<g id="a_node4"><a xlink:href="group__Profiles.html" target="_top" xlink:title=" ">
<polygon fill="none" stroke="black" points="493,-105 417,-105 417,-86 493,-86 493,-105"/>
<text text-anchor="middle" x="455" y="-93" font-family="Helvetica,sans-Serif" font-size="10.00">IRIO Profiles</text>
</a>
</g>
</g>
<!-- Node3 -->
<g id="node5" class="node">
<title>Node3</title>
<g id="a_node5"><a xlink:href="group__ModulesFlexRIO.html" target="_top" xlink:title=" ">
<polygon fill="none" stroke="black" points="510,-67.5 400,-67.5 400,-37.5 510,-37.5 510,-67.5"/>
<text text-anchor="start" x="408" y="-55.5" font-family="Helvetica,sans-Serif" font-size="10.00">Modules specific to</text>
<text text-anchor="middle" x="455" y="-44.5" font-family="Helvetica,sans-Serif" font-size="10.00"> FlexRIO</text>
</a>
</g>
</g>
<!-- Node1&#45;&gt;Node5 -->
<g id="edge4" class="edge">
<title>Node1&#45;&gt;Node5</title>
<path fill="none" stroke="orange" stroke-dasharray="5,2" d="M162.2,-106.51C178.81,-121.9 206.95,-145.15 236,-156.5 284.08,-175.29 342.34,-181.19 386.53,-182.58"/>
<text text-anchor="middle" x="302.5" y="-184.5" font-family="Helvetica,sans-Serif" font-size="10.00">irio::ProfileCPUDAQFlexRIO</text>
</g>
<!-- Node1&#45;&gt;Node6 -->
<g id="edge5" class="edge">
<title>Node1&#45;&gt;Node6</title>
<path fill="none" stroke="orange" stroke-dasharray="5,2" d="M199.89,-106.58C211.7,-109.55 224.22,-112.4 236,-114.5 294.79,-125 363.46,-130.9 407.79,-133.89"/>
<text text-anchor="middle" x="302.5" y="-144.5" font-family="Helvetica,sans-Serif" font-size="10.00">irio::ProfileCPUDAQFlexRIO</text>
<text text-anchor="middle" x="302.5" y="-133.5" font-family="Helvetica,sans-Serif" font-size="10.00">irio::ProfileFlexRIO</text>
</g>
<!-- Node1&#45;&gt;Node4 -->
<g id="edge3" class="edge">
<title>Node1&#45;&gt;Node4</title>
<path fill="none" stroke="orange" stroke-dasharray="5,2" d="M218.49,-91.26C262.01,-91.26 318.71,-91.5 369,-92.5 384.65,-92.81 401.91,-93.38 416.77,-93.94"/>
<text text-anchor="middle" x="302.5" y="-106.5" font-family="Helvetica,sans-Serif" font-size="10.00">irio::ProfileCPUDAQFlexRIO</text>
<text text-anchor="middle" x="302.5" y="-95.5" font-family="Helvetica,sans-Serif" font-size="10.00">irio::ProfileFlexRIO</text>
</g>
<!-- Node1&#45;&gt;Node3 -->
<g id="edge2" class="edge">
<title>Node1&#45;&gt;Node3</title>
<path fill="none" stroke="black" d="M228.15,-81.19C282.44,-74.29 352.38,-65.41 399.95,-59.37"/>
<polygon fill="black" stroke="black" points="227.68,-77.72 218.2,-82.45 228.56,-84.67 227.68,-77.72"/>
</g>
<!-- Node7 -->
<g id="node7" class="node">
<title>Node7</title>
<g id="a_node7"><a xlink:href="group__Terminals.html" target="_top" xlink:title=" ">
<polygon fill="none" stroke="black" points="498.5,-19 411.5,-19 411.5,0 498.5,0 498.5,-19"/>
<text text-anchor="middle" x="455" y="-7" font-family="Helvetica,sans-Serif" font-size="10.00">IRIO Terminals</text>
</a>
</g>
</g>
<!-- Node1&#45;&gt;Node7 -->
<g id="edge6" class="edge">
<title>Node1&#45;&gt;Node7</title>
<path fill="none" stroke="orange" stroke-dasharray="5,2" d="M174.3,-76.34C191.54,-67.36 214.53,-56.41 236,-49.5 295.34,-30.41 366.88,-19.46 411.41,-14"/>
<text text-anchor="middle" x="302.5" y="-52.5" font-family="Helvetica,sans-Serif" font-size="10.00">irio::TerminalsFlexRIO</text>
</g>
</g>
</svg>
        <g id="navigator" transform="translate(0 0)" fill="#404254">
                <rect fill="#f2f5e9" fill-opacity="0.5" stroke="#606060" stroke-width=".5" x="0" y="0" width="60" height="60"/>
                <use id="zoomplus" xlink:href="#zoomPlus" x="17" y="9" onmousedown="handleZoom(evt,'in')"/>
                <use id="zoomminus" xlink:href="#zoomMin" x="42" y="9" onmousedown="handleZoom(evt,'out')"/>
                <use id="reset" xlink:href="#resetDef" x="30" y="36" onmousedown="handleReset()"/>
                <g id="arrowUp" xlink:href="#dirArrow" transform="translate(30 24)" onmousedown="handlePan(0,-1)">
                  <use xlink:href="#rim" fill="#404040">
                        <set attributeName="fill" to="#808080" begin="arrowUp.mouseover" end="arrowUp.mouseout"/>
                  </use>
                  <path fill="none" stroke="white" stroke-width="1.5" d="M0,-3.0v7 M-2.5,-0.5L0,-3.0L2.5,-0.5"/>
                </g>
                <g id="arrowRight" xlink:href="#dirArrow" transform="rotate(90) translate(36 -43)" onmousedown="handlePan(1,0)">
                  <use xlink:href="#rim" fill="#404040">
                        <set attributeName="fill" to="#808080" begin="arrowRight.mouseover" end="arrowRight.mouseout"/>
                  </use>
                  <path fill="none" stroke="white" stroke-width="1.5" d="M0,-3.0v7 M-2.5,-0.5L0,-3.0L2.5,-0.5"/>
                </g>
                <g id="arrowDown" xlink:href="#dirArrow" transform="rotate(180) translate(-30 -48)" onmousedown="handlePan(0,1)">
                  <use xlink:href="#rim" fill="#404040">
                        <set attributeName="fill" to="#808080" begin="arrowDown.mouseover" end="arrowDown.mouseout"/>
                  </use>
                  <path fill="none" stroke="white" stroke-width="1.5" d="M0,-3.0v7 M-2.5,-0.5L0,-3.0L2.5,-0.5"/>
                </g>
                <g id="arrowLeft" xlink:href="#dirArrow" transform="rotate(270) translate(-36 17)" onmousedown="handlePan(-1,0)">
                  <use xlink:href="#rim" fill="#404040">
                        <set attributeName="fill" to="#808080" begin="arrowLeft.mouseover" end="arrowLeft.mouseout"/>
                  </use>
                  <path fill="none" stroke="white" stroke-width="1.5" d="M0,-3.0v7 M-2.5,-0.5L0,-3.0L2.5,-0.5"/>
                </g>
        </g>
        <svg viewBox="0 0 15 15" width="100%" height="30px" preserveAspectRatio="xMaxYMin meet">
         <g id="arrow_out" transform="scale(0.3 0.3)">
          <a xlink:href="group__FlexRIO_org.svg" target="_base">
           <rect id="button" ry="5" rx="5" y="6" x="6" height="38" width="38"
                fill="#f2f5e9" fill-opacity="0.5" stroke="#606060" stroke-width="1.0"/>
           <path id="arrow"
             d="M 11.500037,31.436501 C 11.940474,20.09759 22.043105,11.32322 32.158766,21.979434 L 37.068811,17.246167 C 37.068811,17.246167 37.088388,32 37.088388,32 L 22.160133,31.978069 C 22.160133,31.978069 26.997745,27.140456 26.997745,27.140456 C 18.528582,18.264221 13.291696,25.230495 11.500037,31.436501 z"
             style="fill:#404040;"/>
          </a>
         </g>
        </svg>
</svg>
