<?xml version="1.0" encoding="UTF-8" standalone="no"?>
<!DOCTYPE svg PUBLIC "-//W3C//DTD SVG 1.1//EN"
 "http://www.w3.org/Graphics/SVG/1.1/DTD/svg11.dtd">
<!-- Generated by graphviz version 2.43.0 (0)
 -->
<!-- Title: IRIO Profiles Pages: 1 -->
<svg width="464pt" height="190pt"
 viewBox="0.00 0.00 464.00 189.82" xmlns="http://www.w3.org/2000/svg" xmlns:xlink="http://www.w3.org/1999/xlink">
<g id="graph0" class="graph" transform="scale(1 1) rotate(0) translate(4 185.82)">
<title>IRIO Profiles</title>
<!-- Node4 -->
<g id="node1" class="node">
<title>Node4</title>
<g id="a_node1"><a xlink:href="group__ProfilesFlexRIO.html" target="_top" xlink:title=" ">
<polygon fill="none" stroke="black" points="455.5,-162.58 361.5,-162.58 361.5,-143.58 455.5,-143.58 455.5,-162.58"/>
<text text-anchor="middle" x="408.5" y="-150.58" font-family="Helvetica,sans-Serif" font-size="10.00">FlexRIO Profiles</text>
</a>
</g>
</g>
<!-- Node3 -->
<g id="node2" class="node">
<title>Node3</title>
<g id="a_node2"><a xlink:href="group__ProfilesCRIO.html" target="_top" xlink:title=" ">
<polygon fill="none" stroke="black" points="447.5,-109.58 369.5,-109.58 369.5,-90.58 447.5,-90.58 447.5,-109.58"/>
<text text-anchor="middle" x="408.5" y="-97.58" font-family="Helvetica,sans-Serif" font-size="10.00">cRIO Profiles</text>
</a>
</g>
</g>
<!-- Node1 -->
<g id="node3" class="node">
<title>Node1</title>
<g id="a_node3"><a xlink:title=" ">
<polygon fill="#bfbfbf" stroke="black" points="187,-100.58 111,-100.58 111,-81.58 187,-81.58 187,-100.58"/>
<text text-anchor="middle" x="149" y="-88.58" font-family="Helvetica,sans-Serif" font-size="10.00">IRIO Profiles</text>
</a>
</g>
</g>
<!-- Node1&#45;&gt;Node4 -->
<g id="edge3" class="edge">
<title>Node1&#45;&gt;Node4</title>
<path fill="none" stroke="black" d="M157.75,-110.03C166.32,-128.16 182.02,-154.43 205,-166.08 262.66,-195.3 341.71,-175.95 381.85,-162.64"/>
<polygon fill="black" stroke="black" points="160.87,-108.43 153.63,-100.69 154.47,-111.26 160.87,-108.43"/>
</g>
<!-- Node1&#45;&gt;Node4 -->
<g id="edge6" class="edge">
<title>Node1&#45;&gt;Node4</title>
<path fill="none" stroke="orange" stroke-dasharray="5,2" d="M173.85,-100.6C183.43,-104.2 194.64,-108.13 205,-111.08 212.53,-113.21 303.89,-131.95 361.29,-143.67"/>
<text text-anchor="middle" x="274" y="-153.08" font-family="Helvetica,sans-Serif" font-size="10.00">irio::ProfileCPUDAQFlexRIO</text>
<text text-anchor="middle" x="274" y="-142.08" font-family="Helvetica,sans-Serif" font-size="10.00">irio::ProfileCPUIMAQFlexRIO</text>
</g>
<!-- Node1&#45;&gt;Node3 -->
<g id="edge2" class="edge">
<title>Node1&#45;&gt;Node3</title>
<path fill="none" stroke="black" d="M197.31,-95.59C199.91,-95.77 202.49,-95.94 205,-96.08 262.23,-99.24 328.68,-99.99 369.4,-100.13"/>
<polygon fill="black" stroke="black" points="197.49,-92.1 187.25,-94.82 196.95,-99.08 197.49,-92.1"/>
</g>
<!-- Node1&#45;&gt;Node3 -->
<g id="edge5" class="edge">
<title>Node1&#45;&gt;Node3</title>
<path fill="none" stroke="orange" stroke-dasharray="5,2" d="M169.86,-81.48C180.1,-77.05 192.94,-72.3 205,-70.08 265.32,-58.95 283.11,-56.83 343,-70.08 360.73,-74 379.36,-83.31 392.02,-90.52"/>
<text text-anchor="middle" x="274" y="-84.08" font-family="Helvetica,sans-Serif" font-size="10.00">irio::ProfileCPUDAQcRIO</text>
<text text-anchor="middle" x="274" y="-73.08" font-family="Helvetica,sans-Serif" font-size="10.00">irio::ProfileIOcRIO</text>
</g>
<!-- Node5 -->
<g id="node5" class="node">
<title>Node5</title>
<g id="a_node5"><a xlink:href="group__ProfilesRSeries.html" target="_top" xlink:title=" ">
<polygon fill="none" stroke="black" points="456,-36.58 361,-36.58 361,-17.58 456,-17.58 456,-36.58"/>
<text text-anchor="middle" x="408.5" y="-24.58" font-family="Helvetica,sans-Serif" font-size="10.00">R Series Profiles</text>
</a>
</g>
</g>
<!-- Node1&#45;&gt;Node5 -->
<g id="edge4" class="edge">
<title>Node1&#45;&gt;Node5</title>
<path fill="none" stroke="black" d="M170.68,-75.5C180.58,-68.8 192.89,-61.5 205,-57.08 256.24,-38.35 318.84,-31.29 360.75,-28.65"/>
<polygon fill="black" stroke="black" points="168.49,-72.76 162.35,-81.39 172.53,-78.48 168.49,-72.76"/>
</g>
<!-- Node1&#45;&gt;Node5 -->
<g id="edge7" class="edge">
<title>Node1&#45;&gt;Node5</title>
<path fill="none" stroke="orange" stroke-dasharray="5,2" d="M153.63,-81.46C160.59,-64.54 177.63,-29.94 205,-16.08 262,12.81 339.97,-4.79 380.51,-17.48"/>
<text text-anchor="middle" x="274" y="-19.08" font-family="Helvetica,sans-Serif" font-size="10.00">irio::ProfileCPUDAQRSeries</text>
</g>
<!-- Node2 -->
<g id="node4" class="node">
<title>Node2</title>
<g id="a_node4"><a xlink:href="group__IrioCoreCpp.html" target="_top" xlink:title=" ">
<polygon fill="none" stroke="black" points="74,-100.58 0,-100.58 0,-81.58 74,-81.58 74,-100.58"/>
<text text-anchor="middle" x="37" y="-88.58" font-family="Helvetica,sans-Serif" font-size="10.00">IrioCoreCpp</text>
</a>
</g>
</g>
<!-- Node2&#45;&gt;Node1 -->
<g id="edge1" class="edge">
<title>Node2&#45;&gt;Node1</title>
<path fill="none" stroke="black" d="M84.21,-91.08C93.07,-91.08 102.24,-91.08 110.77,-91.08"/>
<polygon fill="black" stroke="black" points="84.02,-87.58 74.02,-91.08 84.02,-94.58 84.02,-87.58"/>
</g>
</g>
</svg>
