<?xml version="1.0" encoding="UTF-8" standalone="no"?>
<!DOCTYPE svg PUBLIC "-//W3C//DTD SVG 1.1//EN"
 "http://www.w3.org/Graphics/SVG/1.1/DTD/svg11.dtd">
<!-- Generated by graphviz version 2.43.0 (0)
 -->
<!-- Title: Graphical Class Hierarchy Pages: 1 -->
<svg width="664pt" height="694pt"
 viewBox="0.00 0.00 664.00 694.00" xmlns="http://www.w3.org/2000/svg" xmlns:xlink="http://www.w3.org/1999/xlink">
<g id="graph0" class="graph" transform="scale(1 1) rotate(0) translate(4 690)">
<title>Graphical Class Hierarchy</title>
<!-- Node30 -->
<g id="node1" class="node">
<title>Node30</title>
<g id="a_node1"><a xlink:title=" ">
<polygon fill="none" stroke="#bfbfbf" points="0,-344 0,-363 104,-363 104,-344 0,-344"/>
<text text-anchor="middle" x="52" y="-351" font-family="Helvetica,sans-Serif" font-size="10.00">std::runtime_error</text>
</a>
</g>
</g>
<!-- Node0 -->
<g id="node2" class="node">
<title>Node0</title>
<g id="a_node2"><a xlink:href="classirio_1_1errors_1_1IrioError.html" target="_top" xlink:title="Base IRIO error.">
<polygon fill="none" stroke="black" points="140,-344 140,-363 252,-363 252,-344 140,-344"/>
<text text-anchor="middle" x="196" y="-351" font-family="Helvetica,sans-Serif" font-size="10.00">irio::errors::IrioError</text>
</a>
</g>
</g>
<!-- Node30&#45;&gt;Node0 -->
<g id="edge1" class="edge">
<title>Node30&#45;&gt;Node0</title>
<path fill="none" stroke="midnightblue" d="M114.48,-353.5C122.96,-353.5 131.62,-353.5 139.97,-353.5"/>
<polygon fill="midnightblue" stroke="midnightblue" points="114.27,-350 104.27,-353.5 114.27,-357 114.27,-350"/>
</g>
<!-- Node1 -->
<g id="node3" class="node">
<title>Node1</title>
<g id="a_node3"><a xlink:href="classirio_1_1errors_1_1BFPParseBitfileError.html" target="_top" xlink:title="Exception when an error occurs while parsing the bitfile.">
<polygon fill="none" stroke="black" points="295.5,-655.5 295.5,-685.5 441.5,-685.5 441.5,-655.5 295.5,-655.5"/>
<text text-anchor="start" x="303.5" y="-673.5" font-family="Helvetica,sans-Serif" font-size="10.00">irio::errors::BFPParseBitfile</text>
<text text-anchor="middle" x="368.5" y="-662.5" font-family="Helvetica,sans-Serif" font-size="10.00">Error</text>
</a>
</g>
</g>
<!-- Node0&#45;&gt;Node1 -->
<g id="edge2" class="edge">
<title>Node0&#45;&gt;Node1</title>
<path fill="none" stroke="midnightblue" d="M197.14,-373.52C198.6,-426.05 209.96,-569.07 288,-646.5 291.48,-649.95 295.44,-652.91 299.69,-655.45"/>
<polygon fill="midnightblue" stroke="midnightblue" points="200.63,-373.16 196.95,-363.22 193.63,-373.29 200.63,-373.16"/>
</g>
<!-- Node2 -->
<g id="node4" class="node">
<title>Node2</title>
<g id="a_node4"><a xlink:href="classirio_1_1errors_1_1CLUARTInvalidBaudRate.html" target="_top" xlink:title="Exception when the baud rate read is not a valid value.">
<polygon fill="none" stroke="black" points="296.5,-606.5 296.5,-636.5 440.5,-636.5 440.5,-606.5 296.5,-606.5"/>
<text text-anchor="start" x="304.5" y="-624.5" font-family="Helvetica,sans-Serif" font-size="10.00">irio::errors::CLUARTInvalid</text>
<text text-anchor="middle" x="368.5" y="-613.5" font-family="Helvetica,sans-Serif" font-size="10.00">BaudRate</text>
</a>
</g>
</g>
<!-- Node0&#45;&gt;Node2 -->
<g id="edge3" class="edge">
<title>Node0&#45;&gt;Node2</title>
<path fill="none" stroke="midnightblue" d="M198.63,-373.09C203.5,-418.92 221.99,-533.94 288,-596.5 292.1,-600.38 296.79,-603.66 301.8,-606.43"/>
<polygon fill="midnightblue" stroke="midnightblue" points="202.1,-372.63 197.67,-363.01 195.13,-373.3 202.1,-372.63"/>
</g>
<!-- Node3 -->
<g id="node5" class="node">
<title>Node3</title>
<g id="a_node5"><a xlink:href="classirio_1_1errors_1_1CLUARTTimeout.html" target="_top" xlink:title="Exception when a timeout occurs in a CL UART operation.">
<polygon fill="none" stroke="black" points="292.5,-568 292.5,-587 444.5,-587 444.5,-568 292.5,-568"/>
<text text-anchor="middle" x="368.5" y="-575" font-family="Helvetica,sans-Serif" font-size="10.00">irio::errors::CLUARTTimeout</text>
</a>
</g>
</g>
<!-- Node0&#45;&gt;Node3 -->
<g id="edge4" class="edge">
<title>Node0&#45;&gt;Node3</title>
<path fill="none" stroke="midnightblue" d="M199.83,-373.06C206.83,-414.07 228.89,-509.34 288,-558.5 292.58,-562.31 297.8,-565.38 303.32,-567.86"/>
<polygon fill="midnightblue" stroke="midnightblue" points="203.26,-372.34 198.23,-363.01 196.34,-373.44 203.26,-372.34"/>
</g>
<!-- Node4 -->
<g id="node6" class="node">
<title>Node4</title>
<g id="a_node6"><a xlink:href="classirio_1_1errors_1_1DMAReadTimeout.html" target="_top" xlink:title="Exception when a timeout expires while trying to read a DMA.">
<polygon fill="none" stroke="black" points="288,-530 288,-549 449,-549 449,-530 288,-530"/>
<text text-anchor="middle" x="368.5" y="-537" font-family="Helvetica,sans-Serif" font-size="10.00">irio::errors::DMAReadTimeout</text>
</a>
</g>
</g>
<!-- Node0&#45;&gt;Node4 -->
<g id="edge5" class="edge">
<title>Node0&#45;&gt;Node4</title>
<path fill="none" stroke="midnightblue" d="M202.03,-373.25C212.08,-408.54 238.08,-482.29 288,-520.5 293.07,-524.38 298.82,-527.48 304.84,-529.96"/>
<polygon fill="midnightblue" stroke="midnightblue" points="205.31,-371.98 199.32,-363.24 198.55,-373.81 205.31,-371.98"/>
</g>
<!-- Node5 -->
<g id="node7" class="node">
<title>Node5</title>
<g id="a_node7"><a xlink:href="classirio_1_1errors_1_1FPGAVIVersionMismatchError.html" target="_top" xlink:title="Exception when FPGAVIVersion is not the one expected.">
<polygon fill="none" stroke="black" points="296.5,-480.5 296.5,-510.5 440.5,-510.5 440.5,-480.5 296.5,-480.5"/>
<text text-anchor="start" x="304.5" y="-498.5" font-family="Helvetica,sans-Serif" font-size="10.00">irio::errors::FPGAVIVersion</text>
<text text-anchor="middle" x="368.5" y="-487.5" font-family="Helvetica,sans-Serif" font-size="10.00">MismatchError</text>
</a>
</g>
</g>
<!-- Node0&#45;&gt;Node5 -->
<g id="edge6" class="edge">
<title>Node0&#45;&gt;Node5</title>
<path fill="none" stroke="midnightblue" d="M206.37,-371.92C220.54,-397.94 249.85,-445.2 288,-471.5 292.99,-474.94 298.48,-477.89 304.17,-480.43"/>
<polygon fill="midnightblue" stroke="midnightblue" points="209.46,-370.28 201.7,-363.08 203.27,-373.55 209.46,-370.28"/>
</g>
<!-- Node6 -->
<g id="node8" class="node">
<title>Node6</title>
<g id="a_node8"><a xlink:href="classirio_1_1errors_1_1InitializationTimeoutError.html" target="_top" xlink:title="Exception when InitDone is not ready within a specified timeout.">
<polygon fill="none" stroke="black" points="301.5,-431.5 301.5,-461.5 435.5,-461.5 435.5,-431.5 301.5,-431.5"/>
<text text-anchor="start" x="309.5" y="-449.5" font-family="Helvetica,sans-Serif" font-size="10.00">irio::errors::Initialization</text>
<text text-anchor="middle" x="368.5" y="-438.5" font-family="Helvetica,sans-Serif" font-size="10.00">TimeoutError</text>
</a>
</g>
</g>
<!-- Node0&#45;&gt;Node6 -->
<g id="edge7" class="edge">
<title>Node0&#45;&gt;Node6</title>
<path fill="none" stroke="midnightblue" d="M214.77,-370.06C232.22,-385.55 260.21,-408.35 288,-422.5 294.55,-425.84 301.65,-428.8 308.81,-431.4"/>
<polygon fill="midnightblue" stroke="midnightblue" points="216.86,-367.23 207.09,-363.12 212.16,-372.42 216.86,-367.23"/>
</g>
<!-- Node7 -->
<g id="node9" class="node">
<title>Node7</title>
<g id="a_node9"><a xlink:href="classirio_1_1errors_1_1ModulesNotOKError.html" target="_top" xlink:title="Exception when the modules installed in the platform are not the ones expected or the FPGA inform tha...">
<polygon fill="none" stroke="black" points="303,-382.5 303,-412.5 434,-412.5 434,-382.5 303,-382.5"/>
<text text-anchor="start" x="311" y="-400.5" font-family="Helvetica,sans-Serif" font-size="10.00">irio::errors::ModulesNot</text>
<text text-anchor="middle" x="368.5" y="-389.5" font-family="Helvetica,sans-Serif" font-size="10.00">OKError</text>
</a>
</g>
</g>
<!-- Node0&#45;&gt;Node7 -->
<g id="edge8" class="edge">
<title>Node0&#45;&gt;Node7</title>
<path fill="none" stroke="midnightblue" d="M243.88,-365.6C264.04,-370.8 287.83,-376.94 309.12,-382.43"/>
<polygon fill="midnightblue" stroke="midnightblue" points="244.55,-362.16 234,-363.05 242.8,-368.94 244.55,-362.16"/>
</g>
<!-- Node8 -->
<g id="node10" class="node">
<title>Node8</title>
<g id="a_node10"><a xlink:href="classirio_1_1errors_1_1NiFpgaError.html" target="_top" xlink:title="Exception when an error returns from a NiFpga_* function.">
<polygon fill="none" stroke="black" points="303,-344 303,-363 434,-363 434,-344 303,-344"/>
<text text-anchor="middle" x="368.5" y="-351" font-family="Helvetica,sans-Serif" font-size="10.00">irio::errors::NiFpgaError</text>
</a>
</g>
</g>
<!-- Node0&#45;&gt;Node8 -->
<g id="edge9" class="edge">
<title>Node0&#45;&gt;Node8</title>
<path fill="none" stroke="midnightblue" d="M262.37,-353.5C275.67,-353.5 289.66,-353.5 302.93,-353.5"/>
<polygon fill="midnightblue" stroke="midnightblue" points="262.36,-350 252.36,-353.5 262.36,-357 262.36,-350"/>
</g>
<!-- Node11 -->
<g id="node13" class="node">
<title>Node11</title>
<g id="a_node13"><a xlink:href="classirio_1_1errors_1_1RIODeviceNotFoundError.html" target="_top" xlink:title="Exception when the specified RIO Device is not found.">
<polygon fill="none" stroke="black" points="298,-294.5 298,-324.5 439,-324.5 439,-294.5 298,-294.5"/>
<text text-anchor="start" x="306" y="-312.5" font-family="Helvetica,sans-Serif" font-size="10.00">irio::errors::RIODeviceNot</text>
<text text-anchor="middle" x="368.5" y="-301.5" font-family="Helvetica,sans-Serif" font-size="10.00">FoundError</text>
</a>
</g>
</g>
<!-- Node0&#45;&gt;Node11 -->
<g id="edge12" class="edge">
<title>Node0&#45;&gt;Node11</title>
<path fill="none" stroke="midnightblue" d="M243.88,-341.4C264.04,-336.2 287.83,-330.06 309.12,-324.57"/>
<polygon fill="midnightblue" stroke="midnightblue" points="242.8,-338.06 234,-343.95 244.55,-344.84 242.8,-338.06"/>
</g>
<!-- Node12 -->
<g id="node14" class="node">
<title>Node12</title>
<g id="a_node14"><a xlink:href="classirio_1_1errors_1_1RIODiscoveryError.html" target="_top" xlink:title="Exception when an error occurs while searching for the RIO Device.">
<polygon fill="none" stroke="black" points="299,-245.5 299,-275.5 438,-275.5 438,-245.5 299,-245.5"/>
<text text-anchor="start" x="307" y="-263.5" font-family="Helvetica,sans-Serif" font-size="10.00">irio::errors::RIODiscovery</text>
<text text-anchor="middle" x="368.5" y="-252.5" font-family="Helvetica,sans-Serif" font-size="10.00">Error</text>
</a>
</g>
</g>
<!-- Node0&#45;&gt;Node12 -->
<g id="edge13" class="edge">
<title>Node0&#45;&gt;Node12</title>
<path fill="none" stroke="midnightblue" d="M214.77,-336.94C232.22,-321.45 260.21,-298.65 288,-284.5 294.55,-281.16 301.65,-278.2 308.81,-275.6"/>
<polygon fill="midnightblue" stroke="midnightblue" points="212.16,-334.58 207.09,-343.88 216.86,-339.77 212.16,-334.58"/>
</g>
<!-- Node13 -->
<g id="node15" class="node">
<title>Node13</title>
<g id="a_node15"><a xlink:href="classirio_1_1errors_1_1ResourceNotFoundError.html" target="_top" xlink:title="Exception when a resource (Register/DMA) is not found.">
<polygon fill="none" stroke="black" points="301,-196.5 301,-226.5 436,-226.5 436,-196.5 301,-196.5"/>
<text text-anchor="start" x="309" y="-214.5" font-family="Helvetica,sans-Serif" font-size="10.00">irio::errors::ResourceNot</text>
<text text-anchor="middle" x="368.5" y="-203.5" font-family="Helvetica,sans-Serif" font-size="10.00">FoundError</text>
</a>
</g>
</g>
<!-- Node0&#45;&gt;Node13 -->
<g id="edge14" class="edge">
<title>Node0&#45;&gt;Node13</title>
<path fill="none" stroke="midnightblue" d="M206.37,-335.08C220.54,-309.06 249.85,-261.8 288,-235.5 292.99,-232.06 298.48,-229.11 304.17,-226.57"/>
<polygon fill="midnightblue" stroke="midnightblue" points="203.27,-333.45 201.7,-343.92 209.46,-336.72 203.27,-333.45"/>
</g>
<!-- Node14 -->
<g id="node16" class="node">
<title>Node14</title>
<g id="a_node16"><a xlink:href="classirio_1_1errors_1_1TerminalNotImplementedError.html" target="_top" xlink:title="Exception when terminal has not been implemented in the profile.">
<polygon fill="none" stroke="black" points="302.5,-147.5 302.5,-177.5 434.5,-177.5 434.5,-147.5 302.5,-147.5"/>
<text text-anchor="start" x="310.5" y="-165.5" font-family="Helvetica,sans-Serif" font-size="10.00">irio::errors::TerminalNot</text>
<text text-anchor="middle" x="368.5" y="-154.5" font-family="Helvetica,sans-Serif" font-size="10.00">ImplementedError</text>
</a>
</g>
</g>
<!-- Node0&#45;&gt;Node14 -->
<g id="edge15" class="edge">
<title>Node0&#45;&gt;Node14</title>
<path fill="none" stroke="midnightblue" d="M202.25,-334.03C212.66,-299.2 239.22,-226.15 288,-186.5 292.36,-182.95 297.24,-179.93 302.38,-177.35"/>
<polygon fill="midnightblue" stroke="midnightblue" points="198.82,-333.33 199.44,-343.91 205.55,-335.25 198.82,-333.33"/>
</g>
<!-- Node15 -->
<g id="node17" class="node">
<title>Node15</title>
<g id="a_node17"><a xlink:href="classirio_1_1errors_1_1UnsupportedAICouplingForModule.html" target="_top" xlink:title="Exception when trying to set an invalid AI coupling mode for a module.">
<polygon fill="none" stroke="black" points="301,-98.5 301,-128.5 436,-128.5 436,-98.5 301,-98.5"/>
<text text-anchor="start" x="309" y="-116.5" font-family="Helvetica,sans-Serif" font-size="10.00">irio::errors::Unsupported</text>
<text text-anchor="middle" x="368.5" y="-105.5" font-family="Helvetica,sans-Serif" font-size="10.00">AICouplingForModule</text>
</a>
</g>
</g>
<!-- Node0&#45;&gt;Node15 -->
<g id="edge16" class="edge">
<title>Node0&#45;&gt;Node15</title>
<path fill="none" stroke="midnightblue" d="M199.69,-333.47C206.45,-290.99 228.14,-191.35 288,-137.5 291.86,-134.03 296.2,-131.06 300.82,-128.52"/>
<polygon fill="midnightblue" stroke="midnightblue" points="196.18,-333.23 198.18,-343.63 203.11,-334.25 196.18,-333.23"/>
</g>
<!-- Node16 -->
<g id="node18" class="node">
<title>Node16</title>
<g id="a_node18"><a xlink:href="classirio_1_1errors_1_1UnsupportedDevProfileError.html" target="_top" xlink:title="Exception when the DevProfile read from the FPGA does not matches any of the supported ones or if the...">
<polygon fill="none" stroke="black" points="301,-49.5 301,-79.5 436,-79.5 436,-49.5 301,-49.5"/>
<text text-anchor="start" x="309" y="-67.5" font-family="Helvetica,sans-Serif" font-size="10.00">irio::errors::Unsupported</text>
<text text-anchor="middle" x="368.5" y="-56.5" font-family="Helvetica,sans-Serif" font-size="10.00">DevProfileError</text>
</a>
</g>
</g>
<!-- Node0&#45;&gt;Node16 -->
<g id="edge17" class="edge">
<title>Node0&#45;&gt;Node16</title>
<path fill="none" stroke="midnightblue" d="M197.88,-333.76C201.16,-284.91 216.48,-157.38 288,-88.5 291.84,-84.8 296.23,-81.67 300.94,-79.02"/>
<polygon fill="midnightblue" stroke="midnightblue" points="194.38,-333.74 197.31,-343.92 201.37,-334.13 194.38,-333.74"/>
</g>
<!-- Node17 -->
<g id="node19" class="node">
<title>Node17</title>
<g id="a_node19"><a xlink:href="classirio_1_1errors_1_1UnsupportedPlatformError.html" target="_top" xlink:title="Exception when the platform read from the FPGA does not match any of the supported ones (See platform...">
<polygon fill="none" stroke="black" points="301,-0.5 301,-30.5 436,-30.5 436,-0.5 301,-0.5"/>
<text text-anchor="start" x="309" y="-18.5" font-family="Helvetica,sans-Serif" font-size="10.00">irio::errors::Unsupported</text>
<text text-anchor="middle" x="368.5" y="-7.5" font-family="Helvetica,sans-Serif" font-size="10.00">PlatformError</text>
</a>
</g>
</g>
<!-- Node0&#45;&gt;Node17 -->
<g id="edge18" class="edge">
<title>Node0&#45;&gt;Node17</title>
<path fill="none" stroke="midnightblue" d="M196.64,-333.9C196.75,-279.25 204.72,-123.71 288,-39.5 291.75,-35.71 296.08,-32.51 300.74,-29.81"/>
<polygon fill="midnightblue" stroke="midnightblue" points="193.14,-333.99 196.71,-343.96 200.14,-333.94 193.14,-333.99"/>
</g>
<!-- Node9 -->
<g id="node11" class="node">
<title>Node9</title>
<g id="a_node11"><a xlink:href="classirio_1_1errors_1_1NiFpgaErrorDownloadingBitfile.html" target="_top" xlink:title="Specific error when an error occurs while downloading the bitfile into the FPGA.">
<polygon fill="none" stroke="black" points="505,-362.5 505,-392.5 636,-392.5 636,-362.5 505,-362.5"/>
<text text-anchor="start" x="513" y="-380.5" font-family="Helvetica,sans-Serif" font-size="10.00">irio::errors::NiFpgaError</text>
<text text-anchor="middle" x="570.5" y="-369.5" font-family="Helvetica,sans-Serif" font-size="10.00">DownloadingBitfile</text>
</a>
</g>
</g>
<!-- Node8&#45;&gt;Node9 -->
<g id="edge10" class="edge">
<title>Node8&#45;&gt;Node9</title>
<path fill="none" stroke="midnightblue" d="M444.11,-362.45C464.03,-364.84 485.38,-367.41 504.72,-369.73"/>
<polygon fill="midnightblue" stroke="midnightblue" points="444.5,-358.98 434.16,-361.26 443.67,-365.93 444.5,-358.98"/>
</g>
<!-- Node10 -->
<g id="node12" class="node">
<title>Node10</title>
<g id="a_node12"><a xlink:href="classirio_1_1errors_1_1NiFpgaFPGAAlreadyRunning.html" target="_top" xlink:title="Specific error when NiFpga_Run return that the FPGA VI is already running.">
<polygon fill="none" stroke="black" points="485,-313.5 485,-343.5 656,-343.5 656,-313.5 485,-313.5"/>
<text text-anchor="start" x="493" y="-331.5" font-family="Helvetica,sans-Serif" font-size="10.00">irio::errors::NiFpgaFPGAAlready</text>
<text text-anchor="middle" x="570.5" y="-320.5" font-family="Helvetica,sans-Serif" font-size="10.00">Running</text>
</a>
</g>
</g>
<!-- Node8&#45;&gt;Node10 -->
<g id="edge11" class="edge">
<title>Node8&#45;&gt;Node10</title>
<path fill="none" stroke="midnightblue" d="M444.12,-344.17C457.33,-342.52 471.18,-340.79 484.65,-339.11"/>
<polygon fill="midnightblue" stroke="midnightblue" points="443.65,-340.7 434.16,-345.42 444.52,-347.65 443.65,-340.7"/>
</g>
</g>
</svg>
