<?xml version="1.0" encoding="UTF-8" standalone="no"?>
<!DOCTYPE svg PUBLIC "-//W3C//DTD SVG 1.1//EN"
 "http://www.w3.org/Graphics/SVG/1.1/DTD/svg11.dtd">
<!-- Generated by graphviz version 2.43.0 (0)
 -->
<!-- Title: Graphical Class Hierarchy Pages: 1 -->
<svg width="250pt" height="66pt"
 viewBox="0.00 0.00 250.00 66.00" xmlns="http://www.w3.org/2000/svg" xmlns:xlink="http://www.w3.org/1999/xlink">
<g id="graph0" class="graph" transform="scale(1 1) rotate(0) translate(4 62)">
<title>Graphical Class Hierarchy</title>
<!-- Node0 -->
<g id="node1" class="node">
<title>Node0</title>
<g id="a_node1"><a xlink:href="classirio_1_1bfp_1_1Resource.html" target="_top" xlink:title="Class holding information about one resource (Register or DMA)">
<polygon fill="none" stroke="black" points="0,-19.5 0,-38.5 105,-38.5 105,-19.5 0,-19.5"/>
<text text-anchor="middle" x="52.5" y="-26.5" font-family="Helvetica,sans-Serif" font-size="10.00">irio::bfp::Resource</text>
</a>
</g>
</g>
<!-- Node1 -->
<g id="node2" class="node">
<title>Node1</title>
<g id="a_node2"><a xlink:href="classirio_1_1bfp_1_1DMA.html" target="_top" xlink:title="Class holding information about one DMA.">
<polygon fill="none" stroke="black" points="150,-38.5 150,-57.5 233,-57.5 233,-38.5 150,-38.5"/>
<text text-anchor="middle" x="191.5" y="-45.5" font-family="Helvetica,sans-Serif" font-size="10.00">irio::bfp::DMA</text>
</a>
</g>
</g>
<!-- Node0&#45;&gt;Node1 -->
<g id="edge1" class="edge">
<title>Node0&#45;&gt;Node1</title>
<path fill="none" stroke="midnightblue" d="M115.42,-37.59C127.06,-39.2 138.95,-40.85 149.73,-42.35"/>
<polygon fill="midnightblue" stroke="midnightblue" points="115.68,-34.09 105.29,-36.18 114.72,-41.02 115.68,-34.09"/>
</g>
<!-- Node2 -->
<g id="node3" class="node">
<title>Node2</title>
<g id="a_node3"><a xlink:href="classirio_1_1bfp_1_1Register.html" target="_top" xlink:title="Class holding information about one Register.">
<polygon fill="none" stroke="black" points="141,-0.5 141,-19.5 242,-19.5 242,-0.5 141,-0.5"/>
<text text-anchor="middle" x="191.5" y="-7.5" font-family="Helvetica,sans-Serif" font-size="10.00">irio::bfp::Register</text>
</a>
</g>
</g>
<!-- Node0&#45;&gt;Node2 -->
<g id="edge2" class="edge">
<title>Node0&#45;&gt;Node2</title>
<path fill="none" stroke="midnightblue" d="M115.27,-20.43C123.85,-19.24 132.58,-18.03 140.9,-16.88"/>
<polygon fill="midnightblue" stroke="midnightblue" points="114.72,-16.98 105.29,-21.82 115.68,-23.91 114.72,-16.98"/>
</g>
</g>
</svg>
