<?xml version="1.0" encoding="UTF-8" standalone="no"?>
<!DOCTYPE svg PUBLIC "-//W3C//DTD SVG 1.1//EN"
 "http://www.w3.org/Graphics/SVG/1.1/DTD/svg11.dtd">
<!-- Generated by graphviz version 2.43.0 (0)
 -->
<!-- Title: Graphical Class Hierarchy Pages: 1 -->
<svg width="664pt" height="743pt"
 viewBox="0.00 0.00 664.00 743.00" xmlns="http://www.w3.org/2000/svg" xmlns:xlink="http://www.w3.org/1999/xlink">
<g id="graph0" class="graph" transform="scale(1 1) rotate(0) translate(4 739)">
<title>Graphical Class Hierarchy</title>
<!-- Node32 -->
<g id="node1" class="node">
<title>Node32</title>
<g id="a_node1"><a xlink:title=" ">
<polygon fill="none" stroke="#bfbfbf" points="0,-371 0,-390 104,-390 104,-371 0,-371"/>
<text text-anchor="middle" x="52" y="-378" font-family="Helvetica,sans-Serif" font-size="10.00">std::runtime_error</text>
</a>
</g>
</g>
<!-- Node0 -->
<g id="node2" class="node">
<title>Node0</title>
<g id="a_node2"><a xlink:href="classirio_1_1errors_1_1IrioError.html" target="_top" xlink:title="Base IRIO error.">
<polygon fill="none" stroke="black" points="140,-371 140,-390 252,-390 252,-371 140,-371"/>
<text text-anchor="middle" x="196" y="-378" font-family="Helvetica,sans-Serif" font-size="10.00">irio::errors::IrioError</text>
</a>
</g>
</g>
<!-- Node32&#45;&gt;Node0 -->
<g id="edge1" class="edge">
<title>Node32&#45;&gt;Node0</title>
<path fill="none" stroke="midnightblue" d="M114.48,-380.5C122.96,-380.5 131.62,-380.5 139.97,-380.5"/>
<polygon fill="midnightblue" stroke="midnightblue" points="114.27,-377 104.27,-380.5 114.27,-384 114.27,-377"/>
</g>
<!-- Node1 -->
<g id="node3" class="node">
<title>Node1</title>
<g id="a_node3"><a xlink:href="classirio_1_1errors_1_1BFPParseBitfileError.html" target="_top" xlink:title="Exception when an error occurs while parsing the bitfile.">
<polygon fill="none" stroke="black" points="295.5,-704.5 295.5,-734.5 441.5,-734.5 441.5,-704.5 295.5,-704.5"/>
<text text-anchor="start" x="303.5" y="-722.5" font-family="Helvetica,sans-Serif" font-size="10.00">irio::errors::BFPParseBitfile</text>
<text text-anchor="middle" x="368.5" y="-711.5" font-family="Helvetica,sans-Serif" font-size="10.00">Error</text>
</a>
</g>
</g>
<!-- Node0&#45;&gt;Node1 -->
<g id="edge2" class="edge">
<title>Node0&#45;&gt;Node1</title>
<path fill="none" stroke="midnightblue" d="M196.62,-400.17C196.67,-454.98 204.52,-611.01 288,-695.5 291.34,-698.88 295.15,-701.79 299.23,-704.3"/>
<polygon fill="midnightblue" stroke="midnightblue" points="200.12,-400.09 196.7,-390.07 193.12,-400.04 200.12,-400.09"/>
</g>
<!-- Node2 -->
<g id="node4" class="node">
<title>Node2</title>
<g id="a_node4"><a xlink:href="classirio_1_1errors_1_1CLUARTInvalidBaudRate.html" target="_top" xlink:title="Exception when the baud rate read is not a valid value.">
<polygon fill="none" stroke="black" points="296.5,-655.5 296.5,-685.5 440.5,-685.5 440.5,-655.5 296.5,-655.5"/>
<text text-anchor="start" x="304.5" y="-673.5" font-family="Helvetica,sans-Serif" font-size="10.00">irio::errors::CLUARTInvalid</text>
<text text-anchor="middle" x="368.5" y="-662.5" font-family="Helvetica,sans-Serif" font-size="10.00">BaudRate</text>
</a>
</g>
</g>
<!-- Node0&#45;&gt;Node2 -->
<g id="edge3" class="edge">
<title>Node0&#45;&gt;Node2</title>
<path fill="none" stroke="midnightblue" d="M197.93,-400.19C201.32,-448.92 216.87,-576.21 288,-645.5 291.94,-649.34 296.46,-652.59 301.3,-655.34"/>
<polygon fill="midnightblue" stroke="midnightblue" points="201.42,-399.83 197.33,-390.06 194.43,-400.25 201.42,-399.83"/>
</g>
<!-- Node3 -->
<g id="node5" class="node">
<title>Node3</title>
<g id="a_node5"><a xlink:href="classirio_1_1errors_1_1CLUARTTimeout.html" target="_top" xlink:title="Exception when a timeout occurs in a CL UART operation.">
<polygon fill="none" stroke="black" points="292.5,-617 292.5,-636 444.5,-636 444.5,-617 292.5,-617"/>
<text text-anchor="middle" x="368.5" y="-624" font-family="Helvetica,sans-Serif" font-size="10.00">irio::errors::CLUARTTimeout</text>
</a>
</g>
</g>
<!-- Node0&#45;&gt;Node3 -->
<g id="edge4" class="edge">
<title>Node0&#45;&gt;Node3</title>
<path fill="none" stroke="midnightblue" d="M198.89,-400.01C204.23,-444.09 223.54,-551.86 288,-607.5 292.4,-611.3 297.44,-614.37 302.78,-616.85"/>
<polygon fill="midnightblue" stroke="midnightblue" points="202.36,-399.58 197.79,-390.02 195.4,-400.35 202.36,-399.58"/>
</g>
<!-- Node4 -->
<g id="node6" class="node">
<title>Node4</title>
<g id="a_node6"><a xlink:href="classirio_1_1errors_1_1DMAReadTimeout.html" target="_top" xlink:title="Exception when a timeout expires while trying to read a DMA.">
<polygon fill="none" stroke="black" points="288,-579 288,-598 449,-598 449,-579 288,-579"/>
<text text-anchor="middle" x="368.5" y="-586" font-family="Helvetica,sans-Serif" font-size="10.00">irio::errors::DMAReadTimeout</text>
</a>
</g>
</g>
<!-- Node0&#45;&gt;Node4 -->
<g id="edge5" class="edge">
<title>Node0&#45;&gt;Node4</title>
<path fill="none" stroke="midnightblue" d="M200.65,-400.12C208.91,-438.8 232.77,-524.99 288,-569.5 292.75,-573.33 298.15,-576.41 303.84,-578.88"/>
<polygon fill="midnightblue" stroke="midnightblue" points="204.04,-399.26 198.64,-390.14 197.18,-400.64 204.04,-399.26"/>
</g>
<!-- Node5 -->
<g id="node7" class="node">
<title>Node5</title>
<g id="a_node7"><a xlink:href="classirio_1_1errors_1_1FPGAVIVersionMismatchError.html" target="_top" xlink:title="Exception when FPGAVIVersion is not the one expected.">
<polygon fill="none" stroke="black" points="296.5,-529.5 296.5,-559.5 440.5,-559.5 440.5,-529.5 296.5,-529.5"/>
<text text-anchor="start" x="304.5" y="-547.5" font-family="Helvetica,sans-Serif" font-size="10.00">irio::errors::FPGAVIVersion</text>
<text text-anchor="middle" x="368.5" y="-536.5" font-family="Helvetica,sans-Serif" font-size="10.00">MismatchError</text>
</a>
</g>
</g>
<!-- Node0&#45;&gt;Node5 -->
<g id="edge6" class="edge">
<title>Node0&#45;&gt;Node5</title>
<path fill="none" stroke="midnightblue" d="M204.37,-399.76C216.91,-429.99 245.27,-488.44 288,-520.5 292.61,-523.96 297.72,-526.93 303.07,-529.47"/>
<polygon fill="midnightblue" stroke="midnightblue" points="207.56,-398.32 200.59,-390.33 201.06,-400.92 207.56,-398.32"/>
</g>
<!-- Node6 -->
<g id="node8" class="node">
<title>Node6</title>
<g id="a_node8"><a xlink:href="classirio_1_1errors_1_1InitializationTimeoutError.html" target="_top" xlink:title="Exception when InitDone is not ready within a specified timeout.">
<polygon fill="none" stroke="black" points="301.5,-480.5 301.5,-510.5 435.5,-510.5 435.5,-480.5 301.5,-480.5"/>
<text text-anchor="start" x="309.5" y="-498.5" font-family="Helvetica,sans-Serif" font-size="10.00">irio::errors::Initialization</text>
<text text-anchor="middle" x="368.5" y="-487.5" font-family="Helvetica,sans-Serif" font-size="10.00">TimeoutError</text>
</a>
</g>
</g>
<!-- Node0&#45;&gt;Node6 -->
<g id="edge7" class="edge">
<title>Node0&#45;&gt;Node6</title>
<path fill="none" stroke="midnightblue" d="M210.16,-398.17C226.32,-418.67 255.6,-452.11 288,-471.5 293.69,-474.91 299.9,-477.86 306.27,-480.42"/>
<polygon fill="midnightblue" stroke="midnightblue" points="212.76,-395.8 203.88,-390.01 207.21,-400.07 212.76,-395.8"/>
</g>
<!-- Node7 -->
<g id="node9" class="node">
<title>Node7</title>
<g id="a_node9"><a xlink:href="classirio_1_1errors_1_1ModulesNotOKError.html" target="_top" xlink:title="Exception when the modules installed in the platform are not the ones expected or the FPGA inform tha...">
<polygon fill="none" stroke="black" points="303,-431.5 303,-461.5 434,-461.5 434,-431.5 303,-431.5"/>
<text text-anchor="start" x="311" y="-449.5" font-family="Helvetica,sans-Serif" font-size="10.00">irio::errors::ModulesNot</text>
<text text-anchor="middle" x="368.5" y="-438.5" font-family="Helvetica,sans-Serif" font-size="10.00">OKError</text>
</a>
</g>
</g>
<!-- Node0&#45;&gt;Node7 -->
<g id="edge8" class="edge">
<title>Node0&#45;&gt;Node7</title>
<path fill="none" stroke="midnightblue" d="M225.82,-394.54C243.53,-402.91 266.82,-413.43 288,-421.5 297.06,-424.95 306.82,-428.31 316.3,-431.38"/>
<polygon fill="midnightblue" stroke="midnightblue" points="227.13,-391.29 216.6,-390.14 224.12,-397.61 227.13,-391.29"/>
</g>
<!-- Node8 -->
<g id="node10" class="node">
<title>Node8</title>
<g id="a_node10"><a xlink:href="classirio_1_1errors_1_1NiFpgaError.html" target="_top" xlink:title="Exception when an error returns from a NiFpga_* function.">
<polygon fill="none" stroke="black" points="303,-393 303,-412 434,-412 434,-393 303,-393"/>
<text text-anchor="middle" x="368.5" y="-400" font-family="Helvetica,sans-Serif" font-size="10.00">irio::errors::NiFpgaError</text>
</a>
</g>
</g>
<!-- Node0&#45;&gt;Node8 -->
<g id="edge9" class="edge">
<title>Node0&#45;&gt;Node8</title>
<path fill="none" stroke="midnightblue" d="M262.37,-388.94C275.67,-390.65 289.66,-392.46 302.93,-394.17"/>
<polygon fill="midnightblue" stroke="midnightblue" points="262.72,-385.45 252.36,-387.64 261.83,-392.39 262.72,-385.45"/>
</g>
<!-- Node11 -->
<g id="node13" class="node">
<title>Node11</title>
<g id="a_node13"><a xlink:href="classirio_1_1errors_1_1ProfileNotImplementedError.html" target="_top" xlink:title="Exception when a profiel is a valid one, but has not been implemented yet.">
<polygon fill="none" stroke="black" points="308,-343.5 308,-373.5 429,-373.5 429,-343.5 308,-343.5"/>
<text text-anchor="start" x="316" y="-361.5" font-family="Helvetica,sans-Serif" font-size="10.00">irio::errors::ProfileNot</text>
<text text-anchor="middle" x="368.5" y="-350.5" font-family="Helvetica,sans-Serif" font-size="10.00">ImplementedError</text>
</a>
</g>
</g>
<!-- Node0&#45;&gt;Node11 -->
<g id="edge12" class="edge">
<title>Node0&#45;&gt;Node11</title>
<path fill="none" stroke="midnightblue" d="M262.49,-372.05C277.37,-370.13 293.09,-368.1 307.72,-366.21"/>
<polygon fill="midnightblue" stroke="midnightblue" points="261.83,-368.61 252.36,-373.36 262.72,-375.55 261.83,-368.61"/>
</g>
<!-- Node12 -->
<g id="node14" class="node">
<title>Node12</title>
<g id="a_node14"><a xlink:href="classirio_1_1errors_1_1RIODeviceNotFoundError.html" target="_top" xlink:title="Exception when the specified RIO Device is not found.">
<polygon fill="none" stroke="black" points="298,-294.5 298,-324.5 439,-324.5 439,-294.5 298,-294.5"/>
<text text-anchor="start" x="306" y="-312.5" font-family="Helvetica,sans-Serif" font-size="10.00">irio::errors::RIODeviceNot</text>
<text text-anchor="middle" x="368.5" y="-301.5" font-family="Helvetica,sans-Serif" font-size="10.00">FoundError</text>
</a>
</g>
</g>
<!-- Node0&#45;&gt;Node12 -->
<g id="edge13" class="edge">
<title>Node0&#45;&gt;Node12</title>
<path fill="none" stroke="midnightblue" d="M222.54,-365.7C240.46,-355.72 265.2,-342.74 288,-333.5 295.88,-330.31 304.36,-327.31 312.73,-324.59"/>
<polygon fill="midnightblue" stroke="midnightblue" points="220.33,-362.93 213.34,-370.9 223.77,-369.03 220.33,-362.93"/>
</g>
<!-- Node13 -->
<g id="node15" class="node">
<title>Node13</title>
<g id="a_node15"><a xlink:href="classirio_1_1errors_1_1RIODiscoveryError.html" target="_top" xlink:title="Exception when an error occurs while searching for the RIO Device.">
<polygon fill="none" stroke="black" points="299,-245.5 299,-275.5 438,-275.5 438,-245.5 299,-245.5"/>
<text text-anchor="start" x="307" y="-263.5" font-family="Helvetica,sans-Serif" font-size="10.00">irio::errors::RIODiscovery</text>
<text text-anchor="middle" x="368.5" y="-252.5" font-family="Helvetica,sans-Serif" font-size="10.00">Error</text>
</a>
</g>
</g>
<!-- Node0&#45;&gt;Node13 -->
<g id="edge14" class="edge">
<title>Node0&#45;&gt;Node13</title>
<path fill="none" stroke="midnightblue" d="M209.48,-362.45C225.33,-340.87 254.65,-305.07 288,-284.5 293.52,-281.09 299.56,-278.14 305.76,-275.59"/>
<polygon fill="midnightblue" stroke="midnightblue" points="206.52,-360.58 203.55,-370.75 212.21,-364.66 206.52,-360.58"/>
</g>
<!-- Node14 -->
<g id="node16" class="node">
<title>Node14</title>
<g id="a_node16"><a xlink:href="classirio_1_1errors_1_1ResourceNotFoundError.html" target="_top" xlink:title="Exception when a resource (Register/DMA) is not found.">
<polygon fill="none" stroke="black" points="301,-196.5 301,-226.5 436,-226.5 436,-196.5 301,-196.5"/>
<text text-anchor="start" x="309" y="-214.5" font-family="Helvetica,sans-Serif" font-size="10.00">irio::errors::ResourceNot</text>
<text text-anchor="middle" x="368.5" y="-203.5" font-family="Helvetica,sans-Serif" font-size="10.00">FoundError</text>
</a>
</g>
</g>
<!-- Node0&#45;&gt;Node14 -->
<g id="edge15" class="edge">
<title>Node0&#45;&gt;Node14</title>
<path fill="none" stroke="midnightblue" d="M204,-361.01C216.18,-329.83 244.25,-268.88 288,-235.5 292.47,-232.09 297.42,-229.16 302.61,-226.65"/>
<polygon fill="midnightblue" stroke="midnightblue" points="200.6,-360.11 200.35,-370.7 207.15,-362.57 200.6,-360.11"/>
</g>
<!-- Node15 -->
<g id="node17" class="node">
<title>Node15</title>
<g id="a_node17"><a xlink:href="classirio_1_1errors_1_1TerminalNotImplementedError.html" target="_top" xlink:title="Exception when terminal has not been implemented in the profile.">
<polygon fill="none" stroke="black" points="302.5,-147.5 302.5,-177.5 434.5,-177.5 434.5,-147.5 302.5,-147.5"/>
<text text-anchor="start" x="310.5" y="-165.5" font-family="Helvetica,sans-Serif" font-size="10.00">irio::errors::TerminalNot</text>
<text text-anchor="middle" x="368.5" y="-154.5" font-family="Helvetica,sans-Serif" font-size="10.00">ImplementedError</text>
</a>
</g>
</g>
<!-- Node0&#45;&gt;Node15 -->
<g id="edge16" class="edge">
<title>Node0&#45;&gt;Node15</title>
<path fill="none" stroke="midnightblue" d="M200.66,-360.9C209,-321.84 233.06,-233.98 288,-186.5 292.25,-182.82 297.06,-179.71 302.14,-177.07"/>
<polygon fill="midnightblue" stroke="midnightblue" points="197.22,-360.26 198.68,-370.75 204.09,-361.64 197.22,-360.26"/>
</g>
<!-- Node16 -->
<g id="node18" class="node">
<title>Node16</title>
<g id="a_node18"><a xlink:href="classirio_1_1errors_1_1UnsupportedAICouplingForModule.html" target="_top" xlink:title="Exception when trying to set an invalid AI coupling mode for a module.">
<polygon fill="none" stroke="black" points="301,-98.5 301,-128.5 436,-128.5 436,-98.5 301,-98.5"/>
<text text-anchor="start" x="309" y="-116.5" font-family="Helvetica,sans-Serif" font-size="10.00">irio::errors::Unsupported</text>
<text text-anchor="middle" x="368.5" y="-105.5" font-family="Helvetica,sans-Serif" font-size="10.00">AICouplingForModule</text>
</a>
</g>
</g>
<!-- Node0&#45;&gt;Node16 -->
<g id="edge17" class="edge">
<title>Node0&#45;&gt;Node16</title>
<path fill="none" stroke="midnightblue" d="M198.58,-360.86C203.35,-314.92 221.63,-199.68 288,-137.5 291.79,-133.95 296.08,-130.93 300.67,-128.35"/>
<polygon fill="midnightblue" stroke="midnightblue" points="195.08,-360.68 197.64,-370.97 202.05,-361.33 195.08,-360.68"/>
</g>
<!-- Node17 -->
<g id="node19" class="node">
<title>Node17</title>
<g id="a_node19"><a xlink:href="classirio_1_1errors_1_1UnsupportedDevProfileError.html" target="_top" xlink:title="Exception when the DevProfile read from the FPGA does not matches any of the supported ones or if the...">
<polygon fill="none" stroke="black" points="301,-49.5 301,-79.5 436,-79.5 436,-49.5 301,-49.5"/>
<text text-anchor="start" x="309" y="-67.5" font-family="Helvetica,sans-Serif" font-size="10.00">irio::errors::Unsupported</text>
<text text-anchor="middle" x="368.5" y="-56.5" font-family="Helvetica,sans-Serif" font-size="10.00">DevProfileError</text>
</a>
</g>
</g>
<!-- Node0&#45;&gt;Node17 -->
<g id="edge18" class="edge">
<title>Node0&#45;&gt;Node17</title>
<path fill="none" stroke="midnightblue" d="M197.16,-360.54C198.68,-308.19 210.16,-165.65 288,-88.5 291.79,-84.74 296.14,-81.57 300.82,-78.9"/>
<polygon fill="midnightblue" stroke="midnightblue" points="193.65,-360.74 196.96,-370.81 200.65,-360.88 193.65,-360.74"/>
</g>
<!-- Node18 -->
<g id="node20" class="node">
<title>Node18</title>
<g id="a_node20"><a xlink:href="classirio_1_1errors_1_1UnsupportedPlatformError.html" target="_top" xlink:title="Exception when the platform read from the FPGA does not match any of the supported ones (See platform...">
<polygon fill="none" stroke="black" points="301,-0.5 301,-30.5 436,-30.5 436,-0.5 301,-0.5"/>
<text text-anchor="start" x="309" y="-18.5" font-family="Helvetica,sans-Serif" font-size="10.00">irio::errors::Unsupported</text>
<text text-anchor="middle" x="368.5" y="-7.5" font-family="Helvetica,sans-Serif" font-size="10.00">PlatformError</text>
</a>
</g>
</g>
<!-- Node0&#45;&gt;Node18 -->
<g id="edge19" class="edge">
<title>Node0&#45;&gt;Node18</title>
<path fill="none" stroke="midnightblue" d="M199.72,-360.78C209.11,-295.35 242.17,-86.84 288,-39.5 291.71,-35.67 296.01,-32.44 300.65,-29.73"/>
<polygon fill="midnightblue" stroke="midnightblue" points="196.21,-360.56 198.28,-370.96 203.15,-361.54 196.21,-360.56"/>
</g>
<!-- Node9 -->
<g id="node11" class="node">
<title>Node9</title>
<g id="a_node11"><a xlink:href="classirio_1_1errors_1_1NiFpgaErrorDownloadingBitfile.html" target="_top" xlink:title="Specific error when an error occurs while downloading the bitfile into the FPGA.">
<polygon fill="none" stroke="black" points="505,-411.5 505,-441.5 636,-441.5 636,-411.5 505,-411.5"/>
<text text-anchor="start" x="513" y="-429.5" font-family="Helvetica,sans-Serif" font-size="10.00">irio::errors::NiFpgaError</text>
<text text-anchor="middle" x="570.5" y="-418.5" font-family="Helvetica,sans-Serif" font-size="10.00">DownloadingBitfile</text>
</a>
</g>
</g>
<!-- Node8&#45;&gt;Node9 -->
<g id="edge10" class="edge">
<title>Node8&#45;&gt;Node9</title>
<path fill="none" stroke="midnightblue" d="M444.11,-411.45C464.03,-413.84 485.38,-416.41 504.72,-418.73"/>
<polygon fill="midnightblue" stroke="midnightblue" points="444.5,-407.98 434.16,-410.26 443.67,-414.93 444.5,-407.98"/>
</g>
<!-- Node10 -->
<g id="node12" class="node">
<title>Node10</title>
<g id="a_node12"><a xlink:href="classirio_1_1errors_1_1NiFpgaFPGAAlreadyRunning.html" target="_top" xlink:title="Specific error when NiFpga_Run return that the FPGA VI is already running.">
<polygon fill="none" stroke="black" points="485,-362.5 485,-392.5 656,-392.5 656,-362.5 485,-362.5"/>
<text text-anchor="start" x="493" y="-380.5" font-family="Helvetica,sans-Serif" font-size="10.00">irio::errors::NiFpgaFPGAAlready</text>
<text text-anchor="middle" x="570.5" y="-369.5" font-family="Helvetica,sans-Serif" font-size="10.00">Running</text>
</a>
</g>
</g>
<!-- Node8&#45;&gt;Node10 -->
<g id="edge11" class="edge">
<title>Node8&#45;&gt;Node10</title>
<path fill="none" stroke="midnightblue" d="M444.12,-393.17C457.33,-391.52 471.18,-389.79 484.65,-388.11"/>
<polygon fill="midnightblue" stroke="midnightblue" points="443.65,-389.7 434.16,-394.42 444.52,-396.65 443.65,-389.7"/>
</g>
</g>
</svg>
