<?xml version="1.0" encoding="UTF-8" standalone="no"?>
<!DOCTYPE svg PUBLIC "-//W3C//DTD SVG 1.1//EN"
 "http://www.w3.org/Graphics/SVG/1.1/DTD/svg11.dtd">
<!-- Generated by graphviz version 2.43.0 (0)
 -->
<!-- Title: Graphical Class Hierarchy Pages: 1 -->
<svg width="443pt" height="180pt"
 viewBox="0.00 0.00 443.00 180.00" xmlns="http://www.w3.org/2000/svg" xmlns:xlink="http://www.w3.org/1999/xlink">
<g id="graph0" class="graph" transform="scale(1 1) rotate(0) translate(4 176)">
<title>Graphical Class Hierarchy</title>
<!-- Node0 -->
<g id="node1" class="node">
<title>Node0</title>
<g id="a_node1"><a xlink:href="classirio_1_1ProfileBase.html" target="_top" xlink:title="Base profile class.">
<polygon fill="none" stroke="black" points="0,-38.5 0,-57.5 93,-57.5 93,-38.5 0,-38.5"/>
<text text-anchor="middle" x="46.5" y="-45.5" font-family="Helvetica,sans-Serif" font-size="10.00">irio::ProfileBase</text>
</a>
</g>
</g>
<!-- Node1 -->
<g id="node2" class="node">
<title>Node1</title>
<g id="a_node2"><a xlink:href="classirio_1_1ProfileCPUDAQ.html" target="_top" xlink:title="Profile with the terminals specific to data acquisition functionality.">
<polygon fill="none" stroke="black" points="131.5,-95.5 131.5,-114.5 242.5,-114.5 242.5,-95.5 131.5,-95.5"/>
<text text-anchor="middle" x="187" y="-102.5" font-family="Helvetica,sans-Serif" font-size="10.00">irio::ProfileCPUDAQ</text>
</a>
</g>
</g>
<!-- Node0&#45;&gt;Node1 -->
<g id="edge1" class="edge">
<title>Node0&#45;&gt;Node1</title>
<path fill="none" stroke="midnightblue" d="M80.25,-61.48C105.62,-71.92 140.15,-86.13 162.74,-95.43"/>
<polygon fill="midnightblue" stroke="midnightblue" points="81.26,-58.11 70.68,-57.54 78.6,-64.58 81.26,-58.11"/>
</g>
<!-- Node5 -->
<g id="node6" class="node">
<title>Node5</title>
<g id="a_node6"><a xlink:href="classirio_1_1ProfileCPUIMAQ.html" target="_top" xlink:title="Profile with the terminals specific to image acquisition functionality.">
<polygon fill="none" stroke="black" points="129,-38.5 129,-57.5 245,-57.5 245,-38.5 129,-38.5"/>
<text text-anchor="middle" x="187" y="-45.5" font-family="Helvetica,sans-Serif" font-size="10.00">irio::ProfileCPUIMAQ</text>
</a>
</g>
</g>
<!-- Node0&#45;&gt;Node5 -->
<g id="edge5" class="edge">
<title>Node0&#45;&gt;Node5</title>
<path fill="none" stroke="midnightblue" d="M103.28,-48C111.65,-48 120.3,-48 128.7,-48"/>
<polygon fill="midnightblue" stroke="midnightblue" points="103.23,-44.5 93.23,-48 103.23,-51.5 103.23,-44.5"/>
</g>
<!-- Node7 -->
<g id="node8" class="node">
<title>Node7</title>
<g id="a_node8"><a xlink:href="classirio_1_1ProfileIO.html" target="_top" xlink:title="Profile with the terminals specific to IO functionality.">
<polygon fill="none" stroke="black" points="147,-0.5 147,-19.5 227,-19.5 227,-0.5 147,-0.5"/>
<text text-anchor="middle" x="187" y="-7.5" font-family="Helvetica,sans-Serif" font-size="10.00">irio::ProfileIO</text>
</a>
</g>
</g>
<!-- Node0&#45;&gt;Node7 -->
<g id="edge7" class="edge">
<title>Node0&#45;&gt;Node7</title>
<path fill="none" stroke="midnightblue" d="M92.13,-35.75C111.22,-30.52 133.18,-24.49 151.06,-19.59"/>
<polygon fill="midnightblue" stroke="midnightblue" points="91.17,-32.39 82.45,-38.41 93.02,-39.14 91.17,-32.39"/>
</g>
<!-- Node2 -->
<g id="node3" class="node">
<title>Node2</title>
<g id="a_node3"><a xlink:href="classirio_1_1ProfileCPUDAQFlexRIO.html" target="_top" xlink:title="Profile with the terminals specific to data acquisition functionality and the ones specific to FlexRI...">
<polygon fill="none" stroke="black" points="283.5,-152.5 283.5,-171.5 432.5,-171.5 432.5,-152.5 283.5,-152.5"/>
<text text-anchor="middle" x="358" y="-159.5" font-family="Helvetica,sans-Serif" font-size="10.00">irio::ProfileCPUDAQFlexRIO</text>
</a>
</g>
</g>
<!-- Node1&#45;&gt;Node2 -->
<g id="edge2" class="edge">
<title>Node1&#45;&gt;Node2</title>
<path fill="none" stroke="midnightblue" d="M218.48,-118.74C236.44,-126.52 259.74,-136.04 281,-143 291.6,-146.47 303.21,-149.67 314.09,-152.41"/>
<polygon fill="midnightblue" stroke="midnightblue" points="219.66,-115.44 209.1,-114.63 216.86,-121.85 219.66,-115.44"/>
</g>
<!-- Node3 -->
<g id="node4" class="node">
<title>Node3</title>
<g id="a_node4"><a xlink:href="classirio_1_1ProfileCPUDAQRSeries.html" target="_top" xlink:title="Profile with the terminals specific to data acquisition functionality and to R Series boards.">
<polygon fill="none" stroke="black" points="284,-114.5 284,-133.5 432,-133.5 432,-114.5 284,-114.5"/>
<text text-anchor="middle" x="358" y="-121.5" font-family="Helvetica,sans-Serif" font-size="10.00">irio::ProfileCPUDAQRSeries</text>
</a>
</g>
</g>
<!-- Node1&#45;&gt;Node3 -->
<g id="edge3" class="edge">
<title>Node1&#45;&gt;Node3</title>
<path fill="none" stroke="midnightblue" d="M252.88,-112.29C263.05,-113.44 273.62,-114.63 283.96,-115.79"/>
<polygon fill="midnightblue" stroke="midnightblue" points="253.2,-108.81 242.87,-111.17 252.42,-115.76 253.2,-108.81"/>
</g>
<!-- Node4 -->
<g id="node5" class="node">
<title>Node4</title>
<g id="a_node5"><a xlink:href="classirio_1_1ProfileCPUDAQcRIO.html" target="_top" xlink:title="Profile with the terminals specific to data acquisition functionality and the ones specific to cRIO d...">
<polygon fill="none" stroke="black" points="291,-76.5 291,-95.5 425,-95.5 425,-76.5 291,-76.5"/>
<text text-anchor="middle" x="358" y="-83.5" font-family="Helvetica,sans-Serif" font-size="10.00">irio::ProfileCPUDAQcRIO</text>
</a>
</g>
</g>
<!-- Node1&#45;&gt;Node4 -->
<g id="edge4" class="edge">
<title>Node1&#45;&gt;Node4</title>
<path fill="none" stroke="midnightblue" d="M253.11,-97.68C265.51,-96.29 278.49,-94.83 290.91,-93.43"/>
<polygon fill="midnightblue" stroke="midnightblue" points="252.42,-94.24 242.87,-98.83 253.2,-101.19 252.42,-94.24"/>
</g>
<!-- Node6 -->
<g id="node7" class="node">
<title>Node6</title>
<g id="a_node7"><a xlink:href="classirio_1_1ProfileCPUIMAQFlexRIO.html" target="_top" xlink:title="Profile with the terminals specific to data acquisition functionality and the ones specific to FlexRI...">
<polygon fill="none" stroke="black" points="281,-38.5 281,-57.5 435,-57.5 435,-38.5 281,-38.5"/>
<text text-anchor="middle" x="358" y="-45.5" font-family="Helvetica,sans-Serif" font-size="10.00">irio::ProfileCPUIMAQFlexRIO</text>
</a>
</g>
</g>
<!-- Node5&#45;&gt;Node6 -->
<g id="edge6" class="edge">
<title>Node5&#45;&gt;Node6</title>
<path fill="none" stroke="midnightblue" d="M255.35,-48C263.77,-48 272.42,-48 280.97,-48"/>
<polygon fill="midnightblue" stroke="midnightblue" points="255.22,-44.5 245.22,-48 255.22,-51.5 255.22,-44.5"/>
</g>
<!-- Node8 -->
<g id="node9" class="node">
<title>Node8</title>
<g id="a_node9"><a xlink:href="classirio_1_1ProfileIOcRIO.html" target="_top" xlink:title="Profile with the terminals specific to cRIO IO functionality.">
<polygon fill="none" stroke="black" points="307,-0.5 307,-19.5 409,-19.5 409,-0.5 307,-0.5"/>
<text text-anchor="middle" x="358" y="-7.5" font-family="Helvetica,sans-Serif" font-size="10.00">irio::ProfileIOcRIO</text>
</a>
</g>
</g>
<!-- Node7&#45;&gt;Node8 -->
<g id="edge8" class="edge">
<title>Node7&#45;&gt;Node8</title>
<path fill="none" stroke="midnightblue" d="M237.26,-10C259.12,-10 284.81,-10 306.78,-10"/>
<polygon fill="midnightblue" stroke="midnightblue" points="237.2,-6.5 227.2,-10 237.2,-13.5 237.2,-6.5"/>
</g>
</g>
</svg>
