<?xml version="1.0" encoding="UTF-8" standalone="no"?>
<!DOCTYPE svg PUBLIC "-//W3C//DTD SVG 1.1//EN"
 "http://www.w3.org/Graphics/SVG/1.1/DTD/svg11.dtd">
<!-- Generated by graphviz version 2.43.0 (0)
 -->
<!-- Title: Graphical Class Hierarchy Pages: 1 -->
<svg width="686pt" height="370pt"
 viewBox="0.00 0.00 686.00 370.00" xmlns="http://www.w3.org/2000/svg" xmlns:xlink="http://www.w3.org/1999/xlink">
<g id="graph0" class="graph" transform="scale(1 1) rotate(0) translate(4 366)">
<title>Graphical Class Hierarchy</title>
<!-- Node0 -->
<g id="node1" class="node">
<title>Node0</title>
<g id="a_node1"><a xlink:href="classirio_1_1TerminalsBase.html" target="_top" xlink:title="Base class for all terminals.">
<polygon fill="none" stroke="black" points="0,-171.5 0,-190.5 110,-190.5 110,-171.5 0,-171.5"/>
<text text-anchor="middle" x="55" y="-178.5" font-family="Helvetica,sans-Serif" font-size="10.00">irio::TerminalsBase</text>
</a>
</g>
</g>
<!-- Node1 -->
<g id="node2" class="node">
<title>Node1</title>
<g id="a_node2"><a xlink:href="classirio_1_1TerminalsAnalog.html" target="_top" xlink:title="Class managing all terminals related to the analog functionality of the RIO device.">
<polygon fill="none" stroke="black" points="171.5,-342.5 171.5,-361.5 290.5,-361.5 290.5,-342.5 171.5,-342.5"/>
<text text-anchor="middle" x="231" y="-349.5" font-family="Helvetica,sans-Serif" font-size="10.00">irio::TerminalsAnalog</text>
</a>
</g>
</g>
<!-- Node0&#45;&gt;Node1 -->
<g id="edge1" class="edge">
<title>Node0&#45;&gt;Node1</title>
<path fill="none" stroke="midnightblue" d="M61.85,-200.41C72.77,-233.16 99.45,-299.1 146,-333 153.49,-338.46 162.29,-342.38 171.31,-345.2"/>
<polygon fill="midnightblue" stroke="midnightblue" points="65.12,-199.14 58.75,-190.67 58.45,-201.26 65.12,-199.14"/>
</g>
<!-- Node2 -->
<g id="node3" class="node">
<title>Node2</title>
<g id="a_node3"><a xlink:href="classirio_1_1TerminalsAuxAnalog.html" target="_top" xlink:title="Class managing all terminals related to the auxiliary analog functionality of the RIO device.">
<polygon fill="none" stroke="black" points="162,-304.5 162,-323.5 300,-323.5 300,-304.5 162,-304.5"/>
<text text-anchor="middle" x="231" y="-311.5" font-family="Helvetica,sans-Serif" font-size="10.00">irio::TerminalsAuxAnalog</text>
</a>
</g>
</g>
<!-- Node0&#45;&gt;Node2 -->
<g id="edge2" class="edge">
<title>Node0&#45;&gt;Node2</title>
<path fill="none" stroke="midnightblue" d="M65.53,-199.87C79.53,-225.58 108.15,-271.14 146,-295 152.2,-298.91 159.1,-302.01 166.21,-304.49"/>
<polygon fill="midnightblue" stroke="midnightblue" points="68.5,-198 60.74,-190.78 62.3,-201.26 68.5,-198"/>
</g>
<!-- Node3 -->
<g id="node4" class="node">
<title>Node3</title>
<g id="a_node4"><a xlink:href="classirio_1_1TerminalsAuxDigital.html" target="_top" xlink:title="Class managing all terminals related to the auxiliary digital functionality of the RIO device.">
<polygon fill="none" stroke="black" points="162.5,-266.5 162.5,-285.5 299.5,-285.5 299.5,-266.5 162.5,-266.5"/>
<text text-anchor="middle" x="231" y="-273.5" font-family="Helvetica,sans-Serif" font-size="10.00">irio::TerminalsAuxDigital</text>
</a>
</g>
</g>
<!-- Node0&#45;&gt;Node3 -->
<g id="edge3" class="edge">
<title>Node0&#45;&gt;Node3</title>
<path fill="none" stroke="midnightblue" d="M71.63,-198.39C88.33,-215.87 116.42,-242.28 146,-257 153.76,-260.86 162.32,-263.95 170.91,-266.42"/>
<polygon fill="midnightblue" stroke="midnightblue" points="73.77,-195.54 64.39,-190.61 68.64,-200.32 73.77,-195.54"/>
</g>
<!-- Node4 -->
<g id="node5" class="node">
<title>Node4</title>
<g id="a_node5"><a xlink:href="classirio_1_1TerminalsCommon.html" target="_top" xlink:title="Class managing terminals common to all profiles.">
<polygon fill="none" stroke="black" points="166,-228.5 166,-247.5 296,-247.5 296,-228.5 166,-228.5"/>
<text text-anchor="middle" x="231" y="-235.5" font-family="Helvetica,sans-Serif" font-size="10.00">irio::TerminalsCommon</text>
</a>
</g>
</g>
<!-- Node0&#45;&gt;Node4 -->
<g id="edge4" class="edge">
<title>Node0&#45;&gt;Node4</title>
<path fill="none" stroke="midnightblue" d="M85.54,-195.04C102.87,-202.87 125.35,-212.36 146,-219 157.25,-222.61 169.55,-225.81 181.19,-228.49"/>
<polygon fill="midnightblue" stroke="midnightblue" points="86.53,-191.64 75.99,-190.65 83.61,-198 86.53,-191.64"/>
</g>
<!-- Node5 -->
<g id="node6" class="node">
<title>Node5</title>
<g id="a_node6"><a xlink:href="classirio_1_1TerminalsDMACommon.html" target="_top" xlink:title="Class managing the terminals common to all other terminals that use DMAs in the RIO device.">
<polygon fill="none" stroke="black" points="154.5,-190.5 154.5,-209.5 307.5,-209.5 307.5,-190.5 154.5,-190.5"/>
<text text-anchor="middle" x="231" y="-197.5" font-family="Helvetica,sans-Serif" font-size="10.00">irio::TerminalsDMACommon</text>
</a>
</g>
</g>
<!-- Node0&#45;&gt;Node5 -->
<g id="edge5" class="edge">
<title>Node0&#45;&gt;Node5</title>
<path fill="none" stroke="midnightblue" d="M120.12,-188C131.21,-189.21 142.84,-190.48 154.21,-191.72"/>
<polygon fill="midnightblue" stroke="midnightblue" points="120.42,-184.51 110.1,-186.91 119.66,-191.47 120.42,-184.51"/>
</g>
<!-- Node10 -->
<g id="node11" class="node">
<title>Node10</title>
<g id="a_node11"><a xlink:href="classirio_1_1TerminalsDigital.html" target="_top" xlink:title="Class managing all terminals related to the digital functionality of the RIO device.">
<polygon fill="none" stroke="black" points="172,-152.5 172,-171.5 290,-171.5 290,-152.5 172,-152.5"/>
<text text-anchor="middle" x="231" y="-159.5" font-family="Helvetica,sans-Serif" font-size="10.00">irio::TerminalsDigital</text>
</a>
</g>
</g>
<!-- Node0&#45;&gt;Node10 -->
<g id="edge10" class="edge">
<title>Node0&#45;&gt;Node10</title>
<path fill="none" stroke="midnightblue" d="M120.39,-173.97C137.2,-172.13 155.23,-170.16 171.71,-168.37"/>
<polygon fill="midnightblue" stroke="midnightblue" points="119.66,-170.53 110.1,-175.09 120.42,-177.49 119.66,-170.53"/>
</g>
<!-- Node11 -->
<g id="node12" class="node">
<title>Node11</title>
<g id="a_node12"><a xlink:href="classirio_1_1TerminalsFlexRIO.html" target="_top" xlink:title="Class managing all terminals specific to FlexRIO devices.">
<polygon fill="none" stroke="black" points="169,-114.5 169,-133.5 293,-133.5 293,-114.5 169,-114.5"/>
<text text-anchor="middle" x="231" y="-121.5" font-family="Helvetica,sans-Serif" font-size="10.00">irio::TerminalsFlexRIO</text>
</a>
</g>
</g>
<!-- Node0&#45;&gt;Node11 -->
<g id="edge11" class="edge">
<title>Node0&#45;&gt;Node11</title>
<path fill="none" stroke="midnightblue" d="M85.54,-166.96C102.87,-159.13 125.35,-149.64 146,-143 157.25,-139.39 169.55,-136.19 181.19,-133.51"/>
<polygon fill="midnightblue" stroke="midnightblue" points="83.61,-164 75.99,-171.35 86.53,-170.36 83.61,-164"/>
</g>
<!-- Node12 -->
<g id="node13" class="node">
<title>Node12</title>
<g id="a_node13"><a xlink:href="classirio_1_1TerminalsIO.html" target="_top" xlink:title="Class managing all terminals related to the cRIO IO functionality.">
<polygon fill="none" stroke="black" points="183,-76.5 183,-95.5 279,-95.5 279,-76.5 183,-76.5"/>
<text text-anchor="middle" x="231" y="-83.5" font-family="Helvetica,sans-Serif" font-size="10.00">irio::TerminalsIO</text>
</a>
</g>
</g>
<!-- Node0&#45;&gt;Node12 -->
<g id="edge12" class="edge">
<title>Node0&#45;&gt;Node12</title>
<path fill="none" stroke="midnightblue" d="M71.63,-163.61C88.33,-146.13 116.42,-119.72 146,-105 157.38,-99.34 170.46,-95.34 182.86,-92.53"/>
<polygon fill="midnightblue" stroke="midnightblue" points="68.64,-161.68 64.39,-171.39 73.77,-166.46 68.64,-161.68"/>
</g>
<!-- Node13 -->
<g id="node14" class="node">
<title>Node13</title>
<g id="a_node14"><a xlink:href="classirio_1_1TerminalsSignalGeneration.html" target="_top" xlink:title="Class managing all terminals related to the signal generation functionality of the RIO device.">
<polygon fill="none" stroke="black" points="146,-38.5 146,-57.5 316,-57.5 316,-38.5 146,-38.5"/>
<text text-anchor="middle" x="231" y="-45.5" font-family="Helvetica,sans-Serif" font-size="10.00">irio::TerminalsSignalGeneration</text>
</a>
</g>
</g>
<!-- Node0&#45;&gt;Node13 -->
<g id="edge13" class="edge">
<title>Node0&#45;&gt;Node13</title>
<path fill="none" stroke="midnightblue" d="M65.53,-162.13C79.53,-136.42 108.15,-90.86 146,-67 152.2,-63.09 159.1,-59.99 166.21,-57.51"/>
<polygon fill="midnightblue" stroke="midnightblue" points="62.3,-160.74 60.74,-171.22 68.5,-164 62.3,-160.74"/>
</g>
<!-- Node14 -->
<g id="node15" class="node">
<title>Node14</title>
<g id="a_node15"><a xlink:href="classirio_1_1TerminalscRIO.html" target="_top" xlink:title="Class managing all terminals specific to cRIO devices.">
<polygon fill="none" stroke="black" points="177,-0.5 177,-19.5 285,-19.5 285,-0.5 177,-0.5"/>
<text text-anchor="middle" x="231" y="-7.5" font-family="Helvetica,sans-Serif" font-size="10.00">irio::TerminalscRIO</text>
</a>
</g>
</g>
<!-- Node0&#45;&gt;Node14 -->
<g id="edge14" class="edge">
<title>Node0&#45;&gt;Node14</title>
<path fill="none" stroke="midnightblue" d="M61.85,-161.59C72.77,-128.84 99.45,-62.9 146,-29 154.94,-22.49 165.74,-18.15 176.56,-15.28"/>
<polygon fill="midnightblue" stroke="midnightblue" points="58.45,-160.74 58.75,-171.33 65.12,-162.86 58.45,-160.74"/>
</g>
<!-- Node6 -->
<g id="node7" class="node">
<title>Node6</title>
<g id="a_node7"><a xlink:href="classirio_1_1TerminalsDMADAQ.html" target="_top" xlink:title="Class managing the terminals used for DMA DAQ operations.">
<polygon fill="none" stroke="black" points="354,-209.5 354,-228.5 485,-228.5 485,-209.5 354,-209.5"/>
<text text-anchor="middle" x="419.5" y="-216.5" font-family="Helvetica,sans-Serif" font-size="10.00">irio::TerminalsDMADAQ</text>
</a>
</g>
</g>
<!-- Node5&#45;&gt;Node6 -->
<g id="edge6" class="edge">
<title>Node5&#45;&gt;Node6</title>
<path fill="none" stroke="midnightblue" d="M317.74,-208.73C329.89,-209.97 342.21,-211.23 353.87,-212.42"/>
<polygon fill="midnightblue" stroke="midnightblue" points="317.89,-205.23 307.59,-207.7 317.18,-212.2 317.89,-205.23"/>
</g>
<!-- Node8 -->
<g id="node9" class="node">
<title>Node8</title>
<g id="a_node9"><a xlink:href="classirio_1_1TerminalsDMAIMAQ.html" target="_top" xlink:title="Class managing the resources used for IMAQ DAQ operations.">
<polygon fill="none" stroke="black" points="352,-171.5 352,-190.5 487,-190.5 487,-171.5 352,-171.5"/>
<text text-anchor="middle" x="419.5" y="-178.5" font-family="Helvetica,sans-Serif" font-size="10.00">irio::TerminalsDMAIMAQ</text>
</a>
</g>
</g>
<!-- Node5&#45;&gt;Node8 -->
<g id="edge8" class="edge">
<title>Node5&#45;&gt;Node8</title>
<path fill="none" stroke="midnightblue" d="M317.61,-191.28C329.09,-190.11 340.72,-188.92 351.8,-187.79"/>
<polygon fill="midnightblue" stroke="midnightblue" points="317.18,-187.8 307.59,-192.3 317.89,-194.77 317.18,-187.8"/>
</g>
<!-- Node7 -->
<g id="node8" class="node">
<title>Node7</title>
<g id="a_node8"><a xlink:href="classirio_1_1TerminalsDMADAQCPU.html" target="_top" xlink:title="Class managing the terminals used for DMA CPU DAQ operations.">
<polygon fill="none" stroke="black" points="525,-209.5 525,-228.5 676,-228.5 676,-209.5 525,-209.5"/>
<text text-anchor="middle" x="600.5" y="-216.5" font-family="Helvetica,sans-Serif" font-size="10.00">irio::TerminalsDMADAQCPU</text>
</a>
</g>
</g>
<!-- Node6&#45;&gt;Node7 -->
<g id="edge7" class="edge">
<title>Node6&#45;&gt;Node7</title>
<path fill="none" stroke="midnightblue" d="M495.24,-219C505.06,-219 515.12,-219 524.93,-219"/>
<polygon fill="midnightblue" stroke="midnightblue" points="495.12,-215.5 485.12,-219 495.12,-222.5 495.12,-215.5"/>
</g>
<!-- Node9 -->
<g id="node10" class="node">
<title>Node9</title>
<g id="a_node10"><a xlink:href="classirio_1_1TerminalsDMAIMAQCPU.html" target="_top" xlink:title="Class managing the resources used for DMA CPU IMAQ operations.">
<polygon fill="none" stroke="black" points="523,-171.5 523,-190.5 678,-190.5 678,-171.5 523,-171.5"/>
<text text-anchor="middle" x="600.5" y="-178.5" font-family="Helvetica,sans-Serif" font-size="10.00">irio::TerminalsDMAIMAQCPU</text>
</a>
</g>
</g>
<!-- Node8&#45;&gt;Node9 -->
<g id="edge9" class="edge">
<title>Node8&#45;&gt;Node9</title>
<path fill="none" stroke="midnightblue" d="M497.36,-181C505.8,-181 514.4,-181 522.84,-181"/>
<polygon fill="midnightblue" stroke="midnightblue" points="497.15,-177.5 487.15,-181 497.15,-184.5 497.15,-177.5"/>
</g>
</g>
</svg>
