<?xml version="1.0" encoding="UTF-8" standalone="no"?>
<!DOCTYPE svg PUBLIC "-//W3C//DTD SVG 1.1//EN"
 "http://www.w3.org/Graphics/SVG/1.1/DTD/svg11.dtd">
<!-- Generated by graphviz version 2.43.0 (0)
 -->
<!-- Title: Graphical Class Hierarchy Pages: 1 -->
<svg width="686pt" height="294pt"
 viewBox="0.00 0.00 686.00 294.00" xmlns="http://www.w3.org/2000/svg" xmlns:xlink="http://www.w3.org/1999/xlink">
<g id="graph0" class="graph" transform="scale(1 1) rotate(0) translate(4 290)">
<title>Graphical Class Hierarchy</title>
<!-- Node0 -->
<g id="node1" class="node">
<title>Node0</title>
<g id="a_node1"><a xlink:href="classirio_1_1TerminalsBase.html" target="_top" xlink:title="Base class for all terminals.">
<polygon fill="none" stroke="black" points="0,-133.5 0,-152.5 110,-152.5 110,-133.5 0,-133.5"/>
<text text-anchor="middle" x="55" y="-140.5" font-family="Helvetica,sans-Serif" font-size="10.00">irio::TerminalsBase</text>
</a>
</g>
</g>
<!-- Node1 -->
<g id="node2" class="node">
<title>Node1</title>
<g id="a_node2"><a xlink:href="classirio_1_1TerminalsAnalog.html" target="_top" xlink:title="Class managing all terminals related to the analog functionality of the RIO device.">
<polygon fill="none" stroke="black" points="171.5,-266.5 171.5,-285.5 290.5,-285.5 290.5,-266.5 171.5,-266.5"/>
<text text-anchor="middle" x="231" y="-273.5" font-family="Helvetica,sans-Serif" font-size="10.00">irio::TerminalsAnalog</text>
</a>
</g>
</g>
<!-- Node0&#45;&gt;Node1 -->
<g id="edge1" class="edge">
<title>Node0&#45;&gt;Node1</title>
<path fill="none" stroke="midnightblue" d="M65.53,-161.87C79.53,-187.58 108.15,-233.14 146,-257 153.72,-261.86 162.52,-265.49 171.46,-268.19"/>
<polygon fill="midnightblue" stroke="midnightblue" points="68.5,-160 60.74,-152.78 62.3,-163.26 68.5,-160"/>
</g>
<!-- Node2 -->
<g id="node3" class="node">
<title>Node2</title>
<g id="a_node3"><a xlink:href="classirio_1_1TerminalsAuxAnalog.html" target="_top" xlink:title="Class managing all terminals related to the auxiliary analog functionality of the RIO device.">
<polygon fill="none" stroke="black" points="162,-228.5 162,-247.5 300,-247.5 300,-228.5 162,-228.5"/>
<text text-anchor="middle" x="231" y="-235.5" font-family="Helvetica,sans-Serif" font-size="10.00">irio::TerminalsAuxAnalog</text>
</a>
</g>
</g>
<!-- Node0&#45;&gt;Node2 -->
<g id="edge2" class="edge">
<title>Node0&#45;&gt;Node2</title>
<path fill="none" stroke="midnightblue" d="M71.63,-160.39C88.33,-177.87 116.42,-204.28 146,-219 153.76,-222.86 162.32,-225.95 170.91,-228.42"/>
<polygon fill="midnightblue" stroke="midnightblue" points="73.77,-157.54 64.39,-152.61 68.64,-162.32 73.77,-157.54"/>
</g>
<!-- Node3 -->
<g id="node4" class="node">
<title>Node3</title>
<g id="a_node4"><a xlink:href="classirio_1_1TerminalsAuxDigital.html" target="_top" xlink:title="Class managing all terminals related to the auxiliary digital functionality of the RIO device.">
<polygon fill="none" stroke="black" points="162.5,-190.5 162.5,-209.5 299.5,-209.5 299.5,-190.5 162.5,-190.5"/>
<text text-anchor="middle" x="231" y="-197.5" font-family="Helvetica,sans-Serif" font-size="10.00">irio::TerminalsAuxDigital</text>
</a>
</g>
</g>
<!-- Node0&#45;&gt;Node3 -->
<g id="edge3" class="edge">
<title>Node0&#45;&gt;Node3</title>
<path fill="none" stroke="midnightblue" d="M85.54,-157.04C102.87,-164.87 125.35,-174.36 146,-181 157.25,-184.61 169.55,-187.81 181.19,-190.49"/>
<polygon fill="midnightblue" stroke="midnightblue" points="86.53,-153.64 75.99,-152.65 83.61,-160 86.53,-153.64"/>
</g>
<!-- Node4 -->
<g id="node5" class="node">
<title>Node4</title>
<g id="a_node5"><a xlink:href="classirio_1_1TerminalsDMACommon.html" target="_top" xlink:title="Class managing the terminals common to all other terminals that use DMAs in the RIO device.">
<polygon fill="none" stroke="black" points="154.5,-152.5 154.5,-171.5 307.5,-171.5 307.5,-152.5 154.5,-152.5"/>
<text text-anchor="middle" x="231" y="-159.5" font-family="Helvetica,sans-Serif" font-size="10.00">irio::TerminalsDMACommon</text>
</a>
</g>
</g>
<!-- Node0&#45;&gt;Node4 -->
<g id="edge4" class="edge">
<title>Node0&#45;&gt;Node4</title>
<path fill="none" stroke="midnightblue" d="M120.12,-150C131.21,-151.21 142.84,-152.48 154.21,-153.72"/>
<polygon fill="midnightblue" stroke="midnightblue" points="120.42,-146.51 110.1,-148.91 119.66,-153.47 120.42,-146.51"/>
</g>
<!-- Node9 -->
<g id="node10" class="node">
<title>Node9</title>
<g id="a_node10"><a xlink:href="classirio_1_1TerminalsDigital.html" target="_top" xlink:title="Class managing all terminals related to the digital functionality of the RIO device.">
<polygon fill="none" stroke="black" points="172,-114.5 172,-133.5 290,-133.5 290,-114.5 172,-114.5"/>
<text text-anchor="middle" x="231" y="-121.5" font-family="Helvetica,sans-Serif" font-size="10.00">irio::TerminalsDigital</text>
</a>
</g>
</g>
<!-- Node0&#45;&gt;Node9 -->
<g id="edge9" class="edge">
<title>Node0&#45;&gt;Node9</title>
<path fill="none" stroke="midnightblue" d="M120.39,-135.97C137.2,-134.13 155.23,-132.16 171.71,-130.37"/>
<polygon fill="midnightblue" stroke="midnightblue" points="119.66,-132.53 110.1,-137.09 120.42,-139.49 119.66,-132.53"/>
</g>
<!-- Node10 -->
<g id="node11" class="node">
<title>Node10</title>
<g id="a_node11"><a xlink:href="classirio_1_1TerminalsFlexRIO.html" target="_top" xlink:title="Class managing all terminals specific to FlexRIO devices.">
<polygon fill="none" stroke="black" points="169,-76.5 169,-95.5 293,-95.5 293,-76.5 169,-76.5"/>
<text text-anchor="middle" x="231" y="-83.5" font-family="Helvetica,sans-Serif" font-size="10.00">irio::TerminalsFlexRIO</text>
</a>
</g>
</g>
<!-- Node0&#45;&gt;Node10 -->
<g id="edge10" class="edge">
<title>Node0&#45;&gt;Node10</title>
<path fill="none" stroke="midnightblue" d="M85.54,-128.96C102.87,-121.13 125.35,-111.64 146,-105 157.25,-101.39 169.55,-98.19 181.19,-95.51"/>
<polygon fill="midnightblue" stroke="midnightblue" points="83.61,-126 75.99,-133.35 86.53,-132.36 83.61,-126"/>
</g>
<!-- Node11 -->
<g id="node12" class="node">
<title>Node11</title>
<g id="a_node12"><a xlink:href="classirio_1_1TerminalsSignalGeneration.html" target="_top" xlink:title="Class managing all terminals related to the signal generation functionality of the RIO device.">
<polygon fill="none" stroke="black" points="146,-38.5 146,-57.5 316,-57.5 316,-38.5 146,-38.5"/>
<text text-anchor="middle" x="231" y="-45.5" font-family="Helvetica,sans-Serif" font-size="10.00">irio::TerminalsSignalGeneration</text>
</a>
</g>
</g>
<!-- Node0&#45;&gt;Node11 -->
<g id="edge11" class="edge">
<title>Node0&#45;&gt;Node11</title>
<path fill="none" stroke="midnightblue" d="M71.63,-125.61C88.33,-108.13 116.42,-81.72 146,-67 153.76,-63.14 162.32,-60.05 170.91,-57.58"/>
<polygon fill="midnightblue" stroke="midnightblue" points="68.64,-123.68 64.39,-133.39 73.77,-128.46 68.64,-123.68"/>
</g>
<!-- Node12 -->
<g id="node13" class="node">
<title>Node12</title>
<g id="a_node13"><a xlink:href="classirio_1_1TerminalscRIO.html" target="_top" xlink:title="Class managing all terminals specific to cRIO devices.">
<polygon fill="none" stroke="black" points="177,-0.5 177,-19.5 285,-19.5 285,-0.5 177,-0.5"/>
<text text-anchor="middle" x="231" y="-7.5" font-family="Helvetica,sans-Serif" font-size="10.00">irio::TerminalscRIO</text>
</a>
</g>
</g>
<!-- Node0&#45;&gt;Node12 -->
<g id="edge12" class="edge">
<title>Node0&#45;&gt;Node12</title>
<path fill="none" stroke="midnightblue" d="M65.53,-124.13C79.53,-98.42 108.15,-52.86 146,-29 155.23,-23.18 166.03,-19.13 176.75,-16.32"/>
<polygon fill="midnightblue" stroke="midnightblue" points="62.3,-122.74 60.74,-133.22 68.5,-126 62.3,-122.74"/>
</g>
<!-- Node5 -->
<g id="node6" class="node">
<title>Node5</title>
<g id="a_node6"><a xlink:href="classirio_1_1TerminalsDMADAQ.html" target="_top" xlink:title="Class managing the terminals used for DMA DAQ operations.">
<polygon fill="none" stroke="black" points="354,-171.5 354,-190.5 485,-190.5 485,-171.5 354,-171.5"/>
<text text-anchor="middle" x="419.5" y="-178.5" font-family="Helvetica,sans-Serif" font-size="10.00">irio::TerminalsDMADAQ</text>
</a>
</g>
</g>
<!-- Node4&#45;&gt;Node5 -->
<g id="edge5" class="edge">
<title>Node4&#45;&gt;Node5</title>
<path fill="none" stroke="midnightblue" d="M317.74,-170.73C329.89,-171.97 342.21,-173.23 353.87,-174.42"/>
<polygon fill="midnightblue" stroke="midnightblue" points="317.89,-167.23 307.59,-169.7 317.18,-174.2 317.89,-167.23"/>
</g>
<!-- Node7 -->
<g id="node8" class="node">
<title>Node7</title>
<g id="a_node8"><a xlink:href="classirio_1_1TerminalsDMAIMAQ.html" target="_top" xlink:title="Class managing the resources used for IMAQ DAQ operations.">
<polygon fill="none" stroke="black" points="352,-133.5 352,-152.5 487,-152.5 487,-133.5 352,-133.5"/>
<text text-anchor="middle" x="419.5" y="-140.5" font-family="Helvetica,sans-Serif" font-size="10.00">irio::TerminalsDMAIMAQ</text>
</a>
</g>
</g>
<!-- Node4&#45;&gt;Node7 -->
<g id="edge7" class="edge">
<title>Node4&#45;&gt;Node7</title>
<path fill="none" stroke="midnightblue" d="M317.61,-153.28C329.09,-152.11 340.72,-150.92 351.8,-149.79"/>
<polygon fill="midnightblue" stroke="midnightblue" points="317.18,-149.8 307.59,-154.3 317.89,-156.77 317.18,-149.8"/>
</g>
<!-- Node6 -->
<g id="node7" class="node">
<title>Node6</title>
<g id="a_node7"><a xlink:href="classirio_1_1TerminalsDMADAQCPU.html" target="_top" xlink:title="Class managing the terminals used for DMA CPU DAQ operations.">
<polygon fill="none" stroke="black" points="525,-171.5 525,-190.5 676,-190.5 676,-171.5 525,-171.5"/>
<text text-anchor="middle" x="600.5" y="-178.5" font-family="Helvetica,sans-Serif" font-size="10.00">irio::TerminalsDMADAQCPU</text>
</a>
</g>
</g>
<!-- Node5&#45;&gt;Node6 -->
<g id="edge6" class="edge">
<title>Node5&#45;&gt;Node6</title>
<path fill="none" stroke="midnightblue" d="M495.24,-181C505.06,-181 515.12,-181 524.93,-181"/>
<polygon fill="midnightblue" stroke="midnightblue" points="495.12,-177.5 485.12,-181 495.12,-184.5 495.12,-177.5"/>
</g>
<!-- Node8 -->
<g id="node9" class="node">
<title>Node8</title>
<g id="a_node9"><a xlink:href="classirio_1_1TerminalsDMAIMAQCPU.html" target="_top" xlink:title="Class managing the resources used for DMA CPU IMAQ operations.">
<polygon fill="none" stroke="black" points="523,-133.5 523,-152.5 678,-152.5 678,-133.5 523,-133.5"/>
<text text-anchor="middle" x="600.5" y="-140.5" font-family="Helvetica,sans-Serif" font-size="10.00">irio::TerminalsDMAIMAQCPU</text>
</a>
</g>
</g>
<!-- Node7&#45;&gt;Node8 -->
<g id="edge8" class="edge">
<title>Node7&#45;&gt;Node8</title>
<path fill="none" stroke="midnightblue" d="M497.36,-143C505.8,-143 514.4,-143 522.84,-143"/>
<polygon fill="midnightblue" stroke="midnightblue" points="497.15,-139.5 487.15,-143 497.15,-146.5 497.15,-139.5"/>
</g>
</g>
</svg>
