<?xml version="1.0" encoding="UTF-8" standalone="no"?>
<!DOCTYPE svg PUBLIC "-//W3C//DTD SVG 1.1//EN"
 "http://www.w3.org/Graphics/SVG/1.1/DTD/svg11.dtd">
<!-- Generated by graphviz version 2.43.0 (0)
 -->
<!-- Title: Graphical Class Hierarchy Pages: 1 -->
<svg width="243pt" height="104pt"
 viewBox="0.00 0.00 243.00 104.00" xmlns="http://www.w3.org/2000/svg" xmlns:xlink="http://www.w3.org/1999/xlink">
<g id="graph0" class="graph" transform="scale(1 1) rotate(0) translate(4 100)">
<title>Graphical Class Hierarchy</title>
<!-- Node0 -->
<g id="node1" class="node">
<title>Node0</title>
<g id="a_node1"><a xlink:href="classirio_1_1Platform.html" target="_top" xlink:title="Generic Platform class.">
<polygon fill="none" stroke="black" points="0,-38.5 0,-57.5 80,-57.5 80,-38.5 0,-38.5"/>
<text text-anchor="middle" x="40" y="-45.5" font-family="Helvetica,sans-Serif" font-size="10.00">irio::Platform</text>
</a>
</g>
</g>
<!-- Node1 -->
<g id="node2" class="node">
<title>Node1</title>
<g id="a_node2"><a xlink:href="classirio_1_1PlatformCRIO.html" target="_top" xlink:title="Specific implementation for the cRIO platform.">
<polygon fill="none" stroke="black" points="123.5,-76.5 123.5,-95.5 227.5,-95.5 227.5,-76.5 123.5,-76.5"/>
<text text-anchor="middle" x="175.5" y="-83.5" font-family="Helvetica,sans-Serif" font-size="10.00">irio::PlatformCRIO</text>
</a>
</g>
</g>
<!-- Node0&#45;&gt;Node1 -->
<g id="edge1" class="edge">
<title>Node0&#45;&gt;Node1</title>
<path fill="none" stroke="midnightblue" d="M84.53,-60.39C102.81,-65.59 123.75,-71.55 140.82,-76.41"/>
<polygon fill="midnightblue" stroke="midnightblue" points="85.26,-56.96 74.69,-57.59 83.35,-63.69 85.26,-56.96"/>
</g>
<!-- Node2 -->
<g id="node3" class="node">
<title>Node2</title>
<g id="a_node3"><a xlink:href="classirio_1_1PlatformFlexRIO.html" target="_top" xlink:title="Specific implementation for the FlexRIO platform.">
<polygon fill="none" stroke="black" points="116,-38.5 116,-57.5 235,-57.5 235,-38.5 116,-38.5"/>
<text text-anchor="middle" x="175.5" y="-45.5" font-family="Helvetica,sans-Serif" font-size="10.00">irio::PlatformFlexRIO</text>
</a>
</g>
</g>
<!-- Node0&#45;&gt;Node2 -->
<g id="edge2" class="edge">
<title>Node0&#45;&gt;Node2</title>
<path fill="none" stroke="midnightblue" d="M90.48,-48C98.68,-48 107.25,-48 115.65,-48"/>
<polygon fill="midnightblue" stroke="midnightblue" points="90.33,-44.5 80.33,-48 90.33,-51.5 90.33,-44.5"/>
</g>
<!-- Node3 -->
<g id="node4" class="node">
<title>Node3</title>
<g id="a_node4"><a xlink:href="classirio_1_1PlatformRSeries.html" target="_top" xlink:title="Specific implementation for the R Series platform.">
<polygon fill="none" stroke="black" points="117,-0.5 117,-19.5 234,-19.5 234,-0.5 117,-0.5"/>
<text text-anchor="middle" x="175.5" y="-7.5" font-family="Helvetica,sans-Serif" font-size="10.00">irio::PlatformRSeries</text>
</a>
</g>
</g>
<!-- Node0&#45;&gt;Node3 -->
<g id="edge3" class="edge">
<title>Node0&#45;&gt;Node3</title>
<path fill="none" stroke="midnightblue" d="M84.53,-35.61C102.81,-30.41 123.75,-24.45 140.82,-19.59"/>
<polygon fill="midnightblue" stroke="midnightblue" points="83.35,-32.31 74.69,-38.41 85.26,-39.04 83.35,-32.31"/>
</g>
</g>
</svg>
