<?xml version="1.0" encoding="UTF-8" standalone="no"?>
<!DOCTYPE svg PUBLIC "-//W3C//DTD SVG 1.1//EN"
 "http://www.w3.org/Graphics/SVG/1.1/DTD/svg11.dtd">
<!-- Generated by graphviz version 2.43.0 (0)
 -->
<!-- Title: Graphical Class Hierarchy Pages: 1 -->
<svg width="227pt" height="180pt"
 viewBox="0.00 0.00 227.00 180.00" xmlns="http://www.w3.org/2000/svg" xmlns:xlink="http://www.w3.org/1999/xlink">
<g id="graph0" class="graph" transform="scale(1 1) rotate(0) translate(4 176)">
<title>Graphical Class Hierarchy</title>
<!-- Node0 -->
<g id="node1" class="node">
<title>Node0</title>
<g id="a_node1"><a xlink:href="classirio_1_1Module.html" target="_top" xlink:title="Manage conversion information for the ADC/DAC of a module.">
<polygon fill="none" stroke="black" points="0,-76.5 0,-95.5 74,-95.5 74,-76.5 0,-76.5"/>
<text text-anchor="middle" x="37" y="-83.5" font-family="Helvetica,sans-Serif" font-size="10.00">irio::Module</text>
</a>
</g>
</g>
<!-- Node1 -->
<g id="node2" class="node">
<title>Node1</title>
<g id="a_node2"><a xlink:href="classirio_1_1ModuleNI5734.html" target="_top" xlink:title="Conversion parameters for FlexRIO Module NI5734.">
<polygon fill="none" stroke="black" points="110,-152.5 110,-171.5 219,-171.5 219,-152.5 110,-152.5"/>
<text text-anchor="middle" x="164.5" y="-159.5" font-family="Helvetica,sans-Serif" font-size="10.00">irio::ModuleNI5734</text>
</a>
</g>
</g>
<!-- Node0&#45;&gt;Node1 -->
<g id="edge1" class="edge">
<title>Node0&#45;&gt;Node1</title>
<path fill="none" stroke="midnightblue" d="M55.33,-102.43C69.23,-114.9 89.71,-131.77 110,-143 116.55,-146.63 123.93,-149.78 131.07,-152.41"/>
<polygon fill="midnightblue" stroke="midnightblue" points="57.69,-99.84 47.96,-95.66 52.96,-105 57.69,-99.84"/>
</g>
<!-- Node2 -->
<g id="node3" class="node">
<title>Node2</title>
<g id="a_node3"><a xlink:href="classirio_1_1ModuleNI5761.html" target="_top" xlink:title="Conversion parameters for FlexRIO Module NI5761.">
<polygon fill="none" stroke="black" points="110,-114.5 110,-133.5 219,-133.5 219,-114.5 110,-114.5"/>
<text text-anchor="middle" x="164.5" y="-121.5" font-family="Helvetica,sans-Serif" font-size="10.00">irio::ModuleNI5761</text>
</a>
</g>
</g>
<!-- Node0&#45;&gt;Node2 -->
<g id="edge2" class="edge">
<title>Node0&#45;&gt;Node2</title>
<path fill="none" stroke="midnightblue" d="M79.4,-98.54C96.47,-103.7 115.94,-109.6 131.84,-114.41"/>
<polygon fill="midnightblue" stroke="midnightblue" points="80.25,-95.14 69.67,-95.59 78.23,-101.84 80.25,-95.14"/>
</g>
<!-- Node3 -->
<g id="node4" class="node">
<title>Node3</title>
<g id="a_node4"><a xlink:href="classirio_1_1ModuleNI5781.html" target="_top" xlink:title="Conversion parameters for FlexRIO Module NI5781.">
<polygon fill="none" stroke="black" points="110,-76.5 110,-95.5 219,-95.5 219,-76.5 110,-76.5"/>
<text text-anchor="middle" x="164.5" y="-83.5" font-family="Helvetica,sans-Serif" font-size="10.00">irio::ModuleNI5781</text>
</a>
</g>
</g>
<!-- Node0&#45;&gt;Node3 -->
<g id="edge3" class="edge">
<title>Node0&#45;&gt;Node3</title>
<path fill="none" stroke="midnightblue" d="M84.41,-86C92.59,-86 101.17,-86 109.54,-86"/>
<polygon fill="midnightblue" stroke="midnightblue" points="84.3,-82.5 74.3,-86 84.3,-89.5 84.3,-82.5"/>
</g>
<!-- Node4 -->
<g id="node5" class="node">
<title>Node4</title>
<g id="a_node5"><a xlink:href="classirio_1_1ModuleNI6581.html" target="_top" xlink:title="Conversion parameters for FlexRIO Module NI6581.">
<polygon fill="none" stroke="black" points="110,-38.5 110,-57.5 219,-57.5 219,-38.5 110,-38.5"/>
<text text-anchor="middle" x="164.5" y="-45.5" font-family="Helvetica,sans-Serif" font-size="10.00">irio::ModuleNI6581</text>
</a>
</g>
</g>
<!-- Node0&#45;&gt;Node4 -->
<g id="edge4" class="edge">
<title>Node0&#45;&gt;Node4</title>
<path fill="none" stroke="midnightblue" d="M79.4,-73.46C96.47,-68.3 115.94,-62.4 131.84,-57.59"/>
<polygon fill="midnightblue" stroke="midnightblue" points="78.23,-70.16 69.67,-76.41 80.25,-76.86 78.23,-70.16"/>
</g>
<!-- Node5 -->
<g id="node6" class="node">
<title>Node5</title>
<g id="a_node6"><a xlink:href="classirio_1_1ModuleNI92xx.html" target="_top" xlink:title="Conversion parameters for cRIO Module 9205/9264.">
<polygon fill="none" stroke="black" points="110,-0.5 110,-19.5 219,-19.5 219,-0.5 110,-0.5"/>
<text text-anchor="middle" x="164.5" y="-7.5" font-family="Helvetica,sans-Serif" font-size="10.00">irio::ModuleNI92xx</text>
</a>
</g>
</g>
<!-- Node0&#45;&gt;Node5 -->
<g id="edge5" class="edge">
<title>Node0&#45;&gt;Node5</title>
<path fill="none" stroke="midnightblue" d="M55.33,-69.57C69.23,-57.1 89.71,-40.23 110,-29 116.55,-25.37 123.93,-22.22 131.07,-19.59"/>
<polygon fill="midnightblue" stroke="midnightblue" points="52.96,-67 47.96,-76.34 57.69,-72.16 52.96,-67"/>
</g>
</g>
</svg>
