<?xml version="1.0" encoding="UTF-8" standalone="no"?>
<!DOCTYPE svg PUBLIC "-//W3C//DTD SVG 1.1//EN"
 "http://www.w3.org/Graphics/SVG/1.1/DTD/svg11.dtd">
<!-- Generated by graphviz version 2.43.0 (0)
 -->
<!-- Title: Graphical Class Hierarchy Pages: 1 -->
<svg width="443pt" height="142pt"
 viewBox="0.00 0.00 443.00 142.00" xmlns="http://www.w3.org/2000/svg" xmlns:xlink="http://www.w3.org/1999/xlink">
<g id="graph0" class="graph" transform="scale(1 1) rotate(0) translate(4 138)">
<title>Graphical Class Hierarchy</title>
<!-- Node0 -->
<g id="node1" class="node">
<title>Node0</title>
<g id="a_node1"><a xlink:href="classirio_1_1ProfileBase.html" target="_top" xlink:title="Base profile class.">
<polygon fill="none" stroke="black" points="0,-57.5 0,-76.5 93,-76.5 93,-57.5 0,-57.5"/>
<text text-anchor="middle" x="46.5" y="-64.5" font-family="Helvetica,sans-Serif" font-size="10.00">irio::ProfileBase</text>
</a>
</g>
</g>
<!-- Node1 -->
<g id="node2" class="node">
<title>Node1</title>
<g id="a_node2"><a xlink:href="classirio_1_1ProfileCPUDAQ.html" target="_top" xlink:title="Profile with the terminals specific to data acquisition functionality.">
<polygon fill="none" stroke="black" points="131.5,-76.5 131.5,-95.5 242.5,-95.5 242.5,-76.5 131.5,-76.5"/>
<text text-anchor="middle" x="187" y="-83.5" font-family="Helvetica,sans-Serif" font-size="10.00">irio::ProfileCPUDAQ</text>
</a>
</g>
</g>
<!-- Node0&#45;&gt;Node1 -->
<g id="edge1" class="edge">
<title>Node0&#45;&gt;Node1</title>
<path fill="none" stroke="midnightblue" d="M103.4,-74.67C112.55,-75.92 122.03,-77.22 131.16,-78.48"/>
<polygon fill="midnightblue" stroke="midnightblue" points="103.62,-71.17 93.23,-73.27 102.67,-78.1 103.62,-71.17"/>
</g>
<!-- Node4 -->
<g id="node5" class="node">
<title>Node4</title>
<g id="a_node5"><a xlink:href="classirio_1_1ProfileCPUIMAQ.html" target="_top" xlink:title=" ">
<polygon fill="none" stroke="black" points="129,-0.5 129,-19.5 245,-19.5 245,-0.5 129,-0.5"/>
<text text-anchor="middle" x="187" y="-7.5" font-family="Helvetica,sans-Serif" font-size="10.00">irio::ProfileCPUIMAQ</text>
</a>
</g>
</g>
<!-- Node0&#45;&gt;Node4 -->
<g id="edge4" class="edge">
<title>Node0&#45;&gt;Node4</title>
<path fill="none" stroke="midnightblue" d="M75.42,-53.01C91,-45.46 110.86,-36.22 129,-29 137.43,-25.64 146.71,-22.37 155.3,-19.52"/>
<polygon fill="midnightblue" stroke="midnightblue" points="73.77,-49.92 66.33,-57.47 76.85,-56.21 73.77,-49.92"/>
</g>
<!-- Node6 -->
<g id="node7" class="node">
<title>Node6</title>
<g id="a_node7"><a xlink:href="classirio_1_1ProfileCRIO.html" target="_top" xlink:title="Profile with the terminals specific to cRIO devices.">
<polygon fill="none" stroke="black" points="140.5,-114.5 140.5,-133.5 233.5,-133.5 233.5,-114.5 140.5,-114.5"/>
<text text-anchor="middle" x="187" y="-121.5" font-family="Helvetica,sans-Serif" font-size="10.00">irio::ProfileCRIO</text>
</a>
</g>
</g>
<!-- Node0&#45;&gt;Node6 -->
<g id="edge6" class="edge">
<title>Node0&#45;&gt;Node6</title>
<path fill="none" stroke="midnightblue" d="M75.42,-80.99C91,-88.54 110.86,-97.78 129,-105 137.43,-108.36 146.71,-111.63 155.3,-114.48"/>
<polygon fill="midnightblue" stroke="midnightblue" points="76.85,-77.79 66.33,-76.53 73.77,-84.08 76.85,-77.79"/>
</g>
<!-- Node7 -->
<g id="node8" class="node">
<title>Node7</title>
<g id="a_node8"><a xlink:href="classirio_1_1ProfileFlexRIO.html" target="_top" xlink:title="Profile with the terminals specific to FlexRIO devices.">
<polygon fill="none" stroke="black" points="133.5,-38.5 133.5,-57.5 240.5,-57.5 240.5,-38.5 133.5,-38.5"/>
<text text-anchor="middle" x="187" y="-45.5" font-family="Helvetica,sans-Serif" font-size="10.00">irio::ProfileFlexRIO</text>
</a>
</g>
</g>
<!-- Node0&#45;&gt;Node7 -->
<g id="edge8" class="edge">
<title>Node0&#45;&gt;Node7</title>
<path fill="none" stroke="midnightblue" d="M103.31,-59.34C113.15,-57.99 123.36,-56.59 133.11,-55.26"/>
<polygon fill="midnightblue" stroke="midnightblue" points="102.67,-55.9 93.23,-60.73 103.62,-62.83 102.67,-55.9"/>
</g>
<!-- Node2 -->
<g id="node3" class="node">
<title>Node2</title>
<g id="a_node3"><a xlink:href="classirio_1_1ProfileCPUDAQFlexRIO.html" target="_top" xlink:title="Profile with the terminals specific to data acquisition functionality and the ones specific to FlexRI...">
<polygon fill="none" stroke="black" points="283.5,-52.5 283.5,-71.5 432.5,-71.5 432.5,-52.5 283.5,-52.5"/>
<text text-anchor="middle" x="358" y="-59.5" font-family="Helvetica,sans-Serif" font-size="10.00">irio::ProfileCPUDAQFlexRIO</text>
</a>
</g>
</g>
<!-- Node1&#45;&gt;Node2 -->
<g id="edge2" class="edge">
<title>Node1&#45;&gt;Node2</title>
<path fill="none" stroke="midnightblue" d="M252.92,-76.78C265.07,-75.06 277.79,-73.25 290.01,-71.51"/>
<polygon fill="midnightblue" stroke="midnightblue" points="252.28,-73.34 242.87,-78.21 253.26,-80.27 252.28,-73.34"/>
</g>
<!-- Node3 -->
<g id="node4" class="node">
<title>Node3</title>
<g id="a_node4"><a xlink:href="classirio_1_1ProfileCPUDAQcRIO.html" target="_top" xlink:title="Profile with the terminals specific to data acquisition functionality and the ones specific to cRIO d...">
<polygon fill="none" stroke="black" points="291,-109.5 291,-128.5 425,-128.5 425,-109.5 291,-109.5"/>
<text text-anchor="middle" x="358" y="-116.5" font-family="Helvetica,sans-Serif" font-size="10.00">irio::ProfileCPUDAQcRIO</text>
</a>
</g>
</g>
<!-- Node1&#45;&gt;Node3 -->
<g id="edge3" class="edge">
<title>Node1&#45;&gt;Node3</title>
<path fill="none" stroke="midnightblue" d="M246.84,-97.49C266.88,-101.4 289.06,-105.73 308.23,-109.48"/>
<polygon fill="midnightblue" stroke="midnightblue" points="247.37,-94.03 236.88,-95.54 246.03,-100.9 247.37,-94.03"/>
</g>
<!-- Node5 -->
<g id="node6" class="node">
<title>Node5</title>
<g id="a_node6"><a xlink:href="classirio_1_1ProfileCPUIMAQFlexRIO.html" target="_top" xlink:title=" ">
<polygon fill="none" stroke="black" points="281,-5.5 281,-24.5 435,-24.5 435,-5.5 281,-5.5"/>
<text text-anchor="middle" x="358" y="-12.5" font-family="Helvetica,sans-Serif" font-size="10.00">irio::ProfileCPUIMAQFlexRIO</text>
</a>
</g>
</g>
<!-- Node4&#45;&gt;Node5 -->
<g id="edge5" class="edge">
<title>Node4&#45;&gt;Node5</title>
<path fill="none" stroke="midnightblue" d="M255.35,-11.99C263.77,-12.24 272.42,-12.5 280.97,-12.75"/>
<polygon fill="midnightblue" stroke="midnightblue" points="255.31,-8.49 245.22,-11.69 255.11,-15.49 255.31,-8.49"/>
</g>
<!-- Node6&#45;&gt;Node3 -->
<g id="edge7" class="edge">
<title>Node6&#45;&gt;Node3</title>
<path fill="none" stroke="midnightblue" d="M243.91,-122.35C258.96,-121.9 275.38,-121.41 290.92,-120.95"/>
<polygon fill="midnightblue" stroke="midnightblue" points="243.63,-118.85 233.73,-122.65 243.83,-125.85 243.63,-118.85"/>
</g>
<!-- Node7&#45;&gt;Node2 -->
<g id="edge9" class="edge">
<title>Node7&#45;&gt;Node2</title>
<path fill="none" stroke="midnightblue" d="M250.6,-53.19C261.28,-54.07 272.46,-55 283.39,-55.9"/>
<polygon fill="midnightblue" stroke="midnightblue" points="250.8,-49.69 240.55,-52.35 250.22,-56.67 250.8,-49.69"/>
</g>
<!-- Node7&#45;&gt;Node5 -->
<g id="edge10" class="edge">
<title>Node7&#45;&gt;Node5</title>
<path fill="none" stroke="midnightblue" d="M246.84,-36.51C266.88,-32.6 289.06,-28.27 308.23,-24.52"/>
<polygon fill="midnightblue" stroke="midnightblue" points="246.03,-33.1 236.88,-38.46 247.37,-39.97 246.03,-33.1"/>
</g>
</g>
</svg>
