<?xml version="1.0" encoding="UTF-8" standalone="no"?>
<!DOCTYPE svg PUBLIC "-//W3C//DTD SVG 1.1//EN"
 "http://www.w3.org/Graphics/SVG/1.1/DTD/svg11.dtd">
<!-- Generated by graphviz version 2.43.0 (0)
 -->
<!-- Title: irioCoreCpp.h Pages: 1 -->
<!--zoomable 431 -->
<svg id="main" version="1.1" xmlns="http://www.w3.org/2000/svg" xmlns:xlink="http://www.w3.org/1999/xlink" xml:space="preserve" onload="init(evt)">
<style type="text/css"><![CDATA[
.edge:hover path { stroke: red; }
.edge:hover polygon { stroke: red; fill: red; }
]]></style>
<script type="text/javascript"><![CDATA[
var edges = document.getElementsByTagName('g');
if (edges && edges.length) {
  for (var i=0;i<edges.length;i++) {
    if (edges[i].id.substr(0,4)=='edge') {
      edges[i].setAttribute('class','edge');
    }
  }
}
]]></script>
        <defs>
                <circle id="rim" cx="0" cy="0" r="7"/>
                <circle id="rim2" cx="0" cy="0" r="3.5"/>
                <g id="zoomPlus">
                        <use xlink:href="#rim" fill="#404040">
                                <set attributeName="fill" to="#808080" begin="zoomplus.mouseover" end="zoomplus.mouseout"/>
                        </use>
                        <path d="M-4,0h8M0,-4v8" fill="none" stroke="white" stroke-width="1.5" pointer-events="none"/>
                </g>
                <g id="zoomMin">
                        <use xlink:href="#rim" fill="#404040">
                                <set attributeName="fill" to="#808080" begin="zoomminus.mouseover" end="zoomminus.mouseout"/>
                        </use>
                        <path d="M-4,0h8" fill="none" stroke="white" stroke-width="1.5" pointer-events="none"/>
                </g>
                <g id="dirArrow">
                        <path fill="none" stroke="white" stroke-width="1.5" d="M0,-3.0v7 M-2.5,-0.5L0,-3.0L2.5,-0.5"/>
                </g>
               <g id="resetDef">
                       <use xlink:href="#rim2" fill="#404040">
                               <set attributeName="fill" to="#808080" begin="reset.mouseover" end="reset.mouseout"/>
                       </use>
               </g>
        </defs>

<script type="text/javascript">
var viewWidth = 1509;
var viewHeight = 431;
var sectionId = 'dynsection-0';
</script>
<script xlink:href="svgpan.js"/>
<svg id="graph" class="graph">
<g id="viewport">
<title>irioCoreCpp.h</title>
<!-- Node1 -->
<g id="node1" class="node">
<title>Node1</title>
<g id="a_node1"><a xlink:title=" ">
<polygon fill="#bfbfbf" stroke="black" points="1124.5,-403.5 1124.5,-422.5 1207.5,-422.5 1207.5,-403.5 1124.5,-403.5"/>
<text text-anchor="middle" x="1166" y="-410.5" font-family="Helvetica,sans-Serif" font-size="10.00">irioCoreCpp.h</text>
</a>
</g>
</g>
<!-- Node2 -->
<g id="node2" class="node">
<title>Node2</title>
<g id="a_node2"><a xlink:title=" ">
<polygon fill="none" stroke="#bfbfbf" points="85,-56.5 85,-75.5 143,-75.5 143,-56.5 85,-56.5"/>
<text text-anchor="middle" x="114" y="-63.5" font-family="Helvetica,sans-Serif" font-size="10.00">memory</text>
</a>
</g>
</g>
<!-- Node1&#45;&gt;Node2 -->
<g id="edge1" class="edge">
<title>Node1&#45;&gt;Node2</title>
<path fill="none" stroke="midnightblue" d="M1124.41,-411.4C941.13,-408.6 210.28,-395.72 112,-367 56.76,-350.86 0,-359.55 0,-302 0,-302 0,-302 0,-182.5 0,-133.7 52.19,-98.06 85.95,-80.11"/>
<polygon fill="midnightblue" stroke="midnightblue" points="87.61,-83.19 94.92,-75.52 84.42,-76.96 87.61,-83.19"/>
</g>
<!-- Node3 -->
<g id="node3" class="node">
<title>Node3</title>
<g id="a_node3"><a xlink:title=" ">
<polygon fill="none" stroke="#bfbfbf" points="180,-112.5 180,-131.5 224,-131.5 224,-112.5 180,-112.5"/>
<text text-anchor="middle" x="202" y="-119.5" font-family="Helvetica,sans-Serif" font-size="10.00">string</text>
</a>
</g>
</g>
<!-- Node1&#45;&gt;Node3 -->
<g id="edge2" class="edge">
<title>Node1&#45;&gt;Node3</title>
<path fill="none" stroke="midnightblue" d="M1124.18,-412.4C920.04,-413.79 38,-413.36 38,-302 38,-302 38,-302 38,-244 38,-179.06 122.29,-145.04 170.02,-130.99"/>
<polygon fill="midnightblue" stroke="midnightblue" points="171.2,-134.29 179.88,-128.21 169.31,-127.55 171.2,-134.29"/>
</g>
<!-- Node4 -->
<g id="node4" class="node">
<title>Node4</title>
<g id="a_node4"><a xlink:title=" ">
<polygon fill="none" stroke="#bfbfbf" points="1455.5,-347.5 1455.5,-366.5 1500.5,-366.5 1500.5,-347.5 1455.5,-347.5"/>
<text text-anchor="middle" x="1478" y="-354.5" font-family="Helvetica,sans-Serif" font-size="10.00">utility</text>
</a>
</g>
</g>
<!-- Node1&#45;&gt;Node4 -->
<g id="edge3" class="edge">
<title>Node1&#45;&gt;Node4</title>
<path fill="none" stroke="midnightblue" d="M1207.64,-406.2C1261.67,-398.44 1358.74,-383.71 1441,-367 1442.46,-366.7 1443.94,-366.39 1445.45,-366.06"/>
<polygon fill="midnightblue" stroke="midnightblue" points="1446.4,-369.44 1455.36,-363.8 1444.83,-362.61 1446.4,-369.44"/>
</g>
<!-- Node5 -->
<g id="node5" class="node">
<title>Node5</title>
<g id="a_node5"><a xlink:href="platforms_8h.html" target="_top" xlink:title=" ">
<polygon fill="none" stroke="black" points="1209.5,-56.5 1209.5,-75.5 1282.5,-75.5 1282.5,-56.5 1209.5,-56.5"/>
<text text-anchor="middle" x="1246" y="-63.5" font-family="Helvetica,sans-Serif" font-size="10.00">platforms.h</text>
</a>
</g>
</g>
<!-- Node1&#45;&gt;Node5 -->
<g id="edge4" class="edge">
<title>Node1&#45;&gt;Node5</title>
<path fill="none" stroke="midnightblue" d="M1207.68,-409.76C1272.23,-403.8 1389,-381.97 1389,-302 1389,-302 1389,-302 1389,-182.5 1389,-128.32 1326.11,-95.2 1283.74,-79.04"/>
<polygon fill="midnightblue" stroke="midnightblue" points="1284.85,-75.72 1274.25,-75.57 1282.44,-82.29 1284.85,-75.72"/>
</g>
<!-- Node9 -->
<g id="node9" class="node">
<title>Node9</title>
<g id="a_node9"><a xlink:href="profilesTypes_8h.html" target="_top" xlink:title=" ">
<polygon fill="none" stroke="black" points="1102.5,-56.5 1102.5,-75.5 1191.5,-75.5 1191.5,-56.5 1102.5,-56.5"/>
<text text-anchor="middle" x="1147" y="-63.5" font-family="Helvetica,sans-Serif" font-size="10.00">profilesTypes.h</text>
</a>
</g>
</g>
<!-- Node1&#45;&gt;Node9 -->
<g id="edge8" class="edge">
<title>Node1&#45;&gt;Node9</title>
<path fill="none" stroke="midnightblue" d="M1207.62,-410.27C1268.86,-406.74 1378.66,-396.4 1403,-367 1496.04,-254.64 1256.88,-121.5 1174.04,-80"/>
<polygon fill="midnightblue" stroke="midnightblue" points="1175.48,-76.81 1164.96,-75.51 1172.37,-83.09 1175.48,-76.81"/>
</g>
<!-- Node10 -->
<g id="node10" class="node">
<title>Node10</title>
<g id="a_node10"><a xlink:href="terminals_8h.html" target="_top" xlink:title=" ">
<polygon fill="none" stroke="black" points="863,-347.5 863,-366.5 985,-366.5 985,-347.5 863,-347.5"/>
<text text-anchor="middle" x="924" y="-354.5" font-family="Helvetica,sans-Serif" font-size="10.00">terminals/terminals.h</text>
</a>
</g>
</g>
<!-- Node1&#45;&gt;Node10 -->
<g id="edge10" class="edge">
<title>Node1&#45;&gt;Node10</title>
<path fill="none" stroke="midnightblue" d="M1127.65,-403.44C1085.53,-394.04 1017.79,-378.93 972.13,-368.74"/>
<polygon fill="midnightblue" stroke="midnightblue" points="972.69,-365.28 962.17,-366.52 971.16,-372.11 972.69,-365.28"/>
</g>
<!-- Node6 -->
<g id="node6" class="node">
<title>Node6</title>
<g id="a_node6"><a xlink:title=" ">
<polygon fill="none" stroke="#bfbfbf" points="1204,-0.5 1204,-19.5 1260,-19.5 1260,-0.5 1204,-0.5"/>
<text text-anchor="middle" x="1232" y="-7.5" font-family="Helvetica,sans-Serif" font-size="10.00">stddef.h</text>
</a>
</g>
</g>
<!-- Node5&#45;&gt;Node6 -->
<g id="edge5" class="edge">
<title>Node5&#45;&gt;Node6</title>
<path fill="none" stroke="midnightblue" d="M1243.69,-56.08C1241.83,-48.93 1239.16,-38.64 1236.85,-29.69"/>
<polygon fill="midnightblue" stroke="midnightblue" points="1240.17,-28.55 1234.27,-19.75 1233.39,-30.31 1240.17,-28.55"/>
</g>
<!-- Node7 -->
<g id="node7" class="node">
<title>Node7</title>
<g id="a_node7"><a xlink:title=" ">
<polygon fill="none" stroke="#bfbfbf" points="1278.5,-0.5 1278.5,-19.5 1331.5,-19.5 1331.5,-0.5 1278.5,-0.5"/>
<text text-anchor="middle" x="1305" y="-7.5" font-family="Helvetica,sans-Serif" font-size="10.00">stdint.h</text>
</a>
</g>
</g>
<!-- Node5&#45;&gt;Node7 -->
<g id="edge6" class="edge">
<title>Node5&#45;&gt;Node7</title>
<path fill="none" stroke="midnightblue" d="M1255.48,-56.32C1264.2,-48.34 1277.34,-36.31 1287.9,-26.65"/>
<polygon fill="midnightblue" stroke="midnightblue" points="1290.33,-29.17 1295.35,-19.83 1285.61,-24 1290.33,-29.17"/>
</g>
<!-- Node8 -->
<g id="node8" class="node">
<title>Node8</title>
<g id="a_node8"><a xlink:title=" ">
<polygon fill="none" stroke="#bfbfbf" points="1122,-0.5 1122,-19.5 1172,-19.5 1172,-0.5 1122,-0.5"/>
<text text-anchor="middle" x="1147" y="-7.5" font-family="Helvetica,sans-Serif" font-size="10.00">cstdint</text>
</a>
</g>
</g>
<!-- Node5&#45;&gt;Node8 -->
<g id="edge7" class="edge">
<title>Node5&#45;&gt;Node8</title>
<path fill="none" stroke="midnightblue" d="M1230.09,-56.32C1214.36,-47.74 1190.06,-34.49 1171.79,-24.52"/>
<polygon fill="midnightblue" stroke="midnightblue" points="1173.32,-21.37 1162.87,-19.65 1169.97,-27.52 1173.32,-21.37"/>
</g>
<!-- Node9&#45;&gt;Node8 -->
<g id="edge9" class="edge">
<title>Node9&#45;&gt;Node8</title>
<path fill="none" stroke="midnightblue" d="M1147,-56.08C1147,-49.01 1147,-38.86 1147,-29.99"/>
<polygon fill="midnightblue" stroke="midnightblue" points="1150.5,-29.75 1147,-19.75 1143.5,-29.75 1150.5,-29.75"/>
</g>
<!-- Node11 -->
<g id="node11" class="node">
<title>Node11</title>
<g id="a_node11"><a xlink:href="terminalsAnalog_8h.html" target="_top" xlink:title=" ">
<polygon fill="none" stroke="black" points="651.5,-291.5 651.5,-310.5 806.5,-310.5 806.5,-291.5 651.5,-291.5"/>
<text text-anchor="middle" x="729" y="-298.5" font-family="Helvetica,sans-Serif" font-size="10.00">terminals/terminalsAnalog.h</text>
</a>
</g>
</g>
<!-- Node10&#45;&gt;Node11 -->
<g id="edge11" class="edge">
<title>Node10&#45;&gt;Node11</title>
<path fill="none" stroke="midnightblue" d="M893.1,-347.44C859.73,-338.2 806.41,-323.44 769.65,-313.26"/>
<polygon fill="midnightblue" stroke="midnightblue" points="770.33,-309.81 759.75,-310.52 768.46,-316.56 770.33,-309.81"/>
</g>
<!-- Node19 -->
<g id="node19" class="node">
<title>Node19</title>
<g id="a_node19"><a xlink:href="terminalsDigital_8h.html" target="_top" xlink:title=" ">
<polygon fill="none" stroke="black" points="1207,-235.5 1207,-254.5 1361,-254.5 1361,-235.5 1207,-235.5"/>
<text text-anchor="middle" x="1284" y="-242.5" font-family="Helvetica,sans-Serif" font-size="10.00">terminals/terminalsDigital.h</text>
</a>
</g>
</g>
<!-- Node10&#45;&gt;Node19 -->
<g id="edge22" class="edge">
<title>Node10&#45;&gt;Node19</title>
<path fill="none" stroke="midnightblue" d="M985.16,-353.67C1093.35,-348.92 1309.3,-336.35 1332,-311 1346.69,-294.6 1325.32,-273.87 1306.59,-260.29"/>
<polygon fill="midnightblue" stroke="midnightblue" points="1308.53,-257.38 1298.31,-254.6 1304.56,-263.15 1308.53,-257.38"/>
</g>
<!-- Node20 -->
<g id="node20" class="node">
<title>Node20</title>
<g id="a_node20"><a xlink:href="terminalsAuxAnalog_8h.html" target="_top" xlink:title=" ">
<polygon fill="none" stroke="black" points="939,-235.5 939,-254.5 1113,-254.5 1113,-235.5 939,-235.5"/>
<text text-anchor="middle" x="1026" y="-242.5" font-family="Helvetica,sans-Serif" font-size="10.00">terminals/terminalsAuxAnalog.h</text>
</a>
</g>
</g>
<!-- Node10&#45;&gt;Node20 -->
<g id="edge24" class="edge">
<title>Node10&#45;&gt;Node20</title>
<path fill="none" stroke="midnightblue" d="M927.65,-347.24C933.48,-333.98 945.9,-308.51 962,-291 973.32,-278.69 988.55,-267.81 1001.32,-259.84"/>
<polygon fill="midnightblue" stroke="midnightblue" points="1003.32,-262.72 1010.09,-254.56 999.71,-256.72 1003.32,-262.72"/>
</g>
<!-- Node21 -->
<g id="node21" class="node">
<title>Node21</title>
<g id="a_node21"><a xlink:href="terminalsAuxDigital_8h.html" target="_top" xlink:title=" ">
<polygon fill="none" stroke="black" points="971.5,-291.5 971.5,-310.5 1144.5,-310.5 1144.5,-291.5 971.5,-291.5"/>
<text text-anchor="middle" x="1058" y="-298.5" font-family="Helvetica,sans-Serif" font-size="10.00">terminals/terminalsAuxDigital.h</text>
</a>
</g>
</g>
<!-- Node10&#45;&gt;Node21 -->
<g id="edge26" class="edge">
<title>Node10&#45;&gt;Node21</title>
<path fill="none" stroke="midnightblue" d="M945.23,-347.44C967.38,-338.52 1002.32,-324.44 1027.44,-314.32"/>
<polygon fill="midnightblue" stroke="midnightblue" points="1028.9,-317.5 1036.87,-310.52 1026.28,-311.01 1028.9,-317.5"/>
</g>
<!-- Node22 -->
<g id="node22" class="node">
<title>Node22</title>
<g id="a_node22"><a xlink:href="terminalsFlexRIO_8h.html" target="_top" xlink:title=" ">
<polygon fill="none" stroke="black" points="1163,-291.5 1163,-310.5 1323,-310.5 1323,-291.5 1163,-291.5"/>
<text text-anchor="middle" x="1243" y="-298.5" font-family="Helvetica,sans-Serif" font-size="10.00">terminals/terminalsFlexRIO.h</text>
</a>
</g>
</g>
<!-- Node10&#45;&gt;Node22 -->
<g id="edge28" class="edge">
<title>Node10&#45;&gt;Node22</title>
<path fill="none" stroke="midnightblue" d="M974.55,-347.44C1031.01,-337.89 1122.37,-322.42 1182.57,-312.23"/>
<polygon fill="midnightblue" stroke="midnightblue" points="1183.41,-315.64 1192.69,-310.52 1182.25,-308.73 1183.41,-315.64"/>
</g>
<!-- Node23 -->
<g id="node23" class="node">
<title>Node23</title>
<g id="a_node23"><a xlink:href="terminalsCRIO_8h.html" target="_top" xlink:title=" ">
<polygon fill="none" stroke="black" points="891,-174 891,-193 1037,-193 1037,-174 891,-174"/>
<text text-anchor="middle" x="964" y="-181" font-family="Helvetica,sans-Serif" font-size="10.00">terminals/terminalsCRIO.h</text>
</a>
</g>
</g>
<!-- Node10&#45;&gt;Node23 -->
<g id="edge30" class="edge">
<title>Node10&#45;&gt;Node23</title>
<path fill="none" stroke="midnightblue" d="M922.86,-347.2C920.57,-326.83 916.66,-275.12 930,-235 934.15,-222.54 942.28,-210.27 949.55,-200.95"/>
<polygon fill="midnightblue" stroke="midnightblue" points="952.44,-202.95 956.1,-193.01 947.04,-198.49 952.44,-202.95"/>
</g>
<!-- Node24 -->
<g id="node24" class="node">
<title>Node24</title>
<g id="a_node24"><a xlink:href="terminalsSignalGeneration_8h.html" target="_top" xlink:title=" ">
<polygon fill="none" stroke="black" points="729.5,-168.5 729.5,-198.5 872.5,-198.5 872.5,-168.5 729.5,-168.5"/>
<text text-anchor="start" x="737.5" y="-186.5" font-family="Helvetica,sans-Serif" font-size="10.00">terminals/terminalsSignal</text>
<text text-anchor="middle" x="801" y="-175.5" font-family="Helvetica,sans-Serif" font-size="10.00">Generation.h</text>
</a>
</g>
</g>
<!-- Node10&#45;&gt;Node24 -->
<g id="edge33" class="edge">
<title>Node10&#45;&gt;Node24</title>
<path fill="none" stroke="midnightblue" d="M917.73,-347.26C899.29,-321.54 844.77,-245.53 817.26,-207.18"/>
<polygon fill="midnightblue" stroke="midnightblue" points="819.87,-204.81 811.2,-198.72 814.18,-208.89 819.87,-204.81"/>
</g>
<!-- Node25 -->
<g id="node25" class="node">
<title>Node25</title>
<g id="a_node25"><a xlink:href="terminalsDMADAQCPU_8h.html" target="_top" xlink:title=" ">
<polygon fill="none" stroke="black" points="152.5,-291.5 152.5,-310.5 339.5,-310.5 339.5,-291.5 152.5,-291.5"/>
<text text-anchor="middle" x="246" y="-298.5" font-family="Helvetica,sans-Serif" font-size="10.00">terminals/terminalsDMADAQCPU.h</text>
</a>
</g>
</g>
<!-- Node10&#45;&gt;Node25 -->
<g id="edge36" class="edge">
<title>Node10&#45;&gt;Node25</title>
<path fill="none" stroke="midnightblue" d="M862.94,-351.14C746.83,-341.89 493.08,-321.68 349.81,-310.27"/>
<polygon fill="midnightblue" stroke="midnightblue" points="349.94,-306.77 339.69,-309.46 349.38,-313.75 349.94,-306.77"/>
</g>
<!-- Node29 -->
<g id="node29" class="node">
<title>Node29</title>
<g id="a_node29"><a xlink:href="terminalsDMAIMAQCPU_8h.html" target="_top" xlink:title=" ">
<polygon fill="none" stroke="black" points="426.5,-291.5 426.5,-310.5 617.5,-310.5 617.5,-291.5 426.5,-291.5"/>
<text text-anchor="middle" x="522" y="-298.5" font-family="Helvetica,sans-Serif" font-size="10.00">terminals/terminalsDMAIMAQCPU.h</text>
</a>
</g>
</g>
<!-- Node10&#45;&gt;Node29 -->
<g id="edge44" class="edge">
<title>Node10&#45;&gt;Node29</title>
<path fill="none" stroke="midnightblue" d="M862.94,-347.8C791.16,-338.16 672.1,-322.16 595.36,-311.85"/>
<polygon fill="midnightblue" stroke="midnightblue" points="595.67,-308.36 585.29,-310.5 594.74,-315.3 595.67,-308.36"/>
</g>
<!-- Node12 -->
<g id="node12" class="node">
<title>Node12</title>
<g id="a_node12"><a xlink:href="terminalsBase_8h.html" target="_top" xlink:title=" ">
<polygon fill="none" stroke="black" points="1011,-112.5 1011,-131.5 1157,-131.5 1157,-112.5 1011,-112.5"/>
<text text-anchor="middle" x="1084" y="-119.5" font-family="Helvetica,sans-Serif" font-size="10.00">terminals/terminalsBase.h</text>
</a>
</g>
</g>
<!-- Node11&#45;&gt;Node12 -->
<g id="edge12" class="edge">
<title>Node11&#45;&gt;Node12</title>
<path fill="none" stroke="midnightblue" d="M754.99,-291.49C793.26,-278.97 867.07,-254.94 930,-235 981.46,-218.69 1004.85,-233.94 1046,-199 1063.62,-184.04 1073.9,-158.92 1079.23,-141.69"/>
<polygon fill="midnightblue" stroke="midnightblue" points="1082.71,-142.26 1082.05,-131.68 1075.97,-140.36 1082.71,-142.26"/>
</g>
<!-- Node13 -->
<g id="node13" class="node">
<title>Node13</title>
<g id="a_node13"><a xlink:href="modules_8h.html" target="_top" xlink:title=" ">
<polygon fill="none" stroke="black" points="615,-235.5 615,-254.5 683,-254.5 683,-235.5 615,-235.5"/>
<text text-anchor="middle" x="649" y="-242.5" font-family="Helvetica,sans-Serif" font-size="10.00">modules.h</text>
</a>
</g>
</g>
<!-- Node11&#45;&gt;Node13 -->
<g id="edge15" class="edge">
<title>Node11&#45;&gt;Node13</title>
<path fill="none" stroke="midnightblue" d="M716.15,-291.32C703.78,-282.98 684.87,-270.21 670.26,-260.35"/>
<polygon fill="midnightblue" stroke="midnightblue" points="672.07,-257.35 661.82,-254.65 668.15,-263.15 672.07,-257.35"/>
</g>
<!-- Node12&#45;&gt;Node2 -->
<g id="edge13" class="edge">
<title>Node12&#45;&gt;Node2</title>
<path fill="none" stroke="midnightblue" d="M1010.69,-116.92C817.79,-106.18 300.81,-77.4 153.61,-69.2"/>
<polygon fill="midnightblue" stroke="midnightblue" points="153.44,-65.69 143.26,-68.63 153.05,-72.68 153.44,-65.69"/>
</g>
<!-- Node12&#45;&gt;Node5 -->
<g id="edge14" class="edge">
<title>Node12&#45;&gt;Node5</title>
<path fill="none" stroke="midnightblue" d="M1109.67,-112.44C1136.92,-103.36 1180.18,-88.94 1210.65,-78.78"/>
<polygon fill="midnightblue" stroke="midnightblue" points="1212.07,-82 1220.45,-75.52 1209.86,-75.36 1212.07,-82"/>
</g>
<!-- Node14 -->
<g id="node14" class="node">
<title>Node14</title>
<g id="a_node14"><a xlink:title=" ">
<polygon fill="none" stroke="#bfbfbf" points="677.5,-112.5 677.5,-131.5 724.5,-131.5 724.5,-112.5 677.5,-112.5"/>
<text text-anchor="middle" x="701" y="-119.5" font-family="Helvetica,sans-Serif" font-size="10.00">vector</text>
</a>
</g>
</g>
<!-- Node13&#45;&gt;Node14 -->
<g id="edge16" class="edge">
<title>Node13&#45;&gt;Node14</title>
<path fill="none" stroke="midnightblue" d="M656.66,-235.3C663.89,-226.64 674.58,-212.72 681,-199 689.66,-180.5 695.03,-157.66 698,-141.87"/>
<polygon fill="midnightblue" stroke="midnightblue" points="701.48,-142.24 699.74,-131.78 694.59,-141.04 701.48,-142.24"/>
</g>
<!-- Node15 -->
<g id="node15" class="node">
<title>Node15</title>
<g id="a_node15"><a xlink:title=" ">
<polygon fill="none" stroke="#bfbfbf" points="514.5,-174 514.5,-193 607.5,-193 607.5,-174 514.5,-174"/>
<text text-anchor="middle" x="561" y="-181" font-family="Helvetica,sans-Serif" font-size="10.00">unordered_map</text>
</a>
</g>
</g>
<!-- Node13&#45;&gt;Node15 -->
<g id="edge17" class="edge">
<title>Node13&#45;&gt;Node15</title>
<path fill="none" stroke="midnightblue" d="M636.39,-235.48C622.28,-225.93 599.17,-210.31 582.25,-198.87"/>
<polygon fill="midnightblue" stroke="midnightblue" points="583.83,-195.71 573.58,-193.01 579.91,-201.51 583.83,-195.71"/>
</g>
<!-- Node16 -->
<g id="node16" class="node">
<title>Node16</title>
<g id="a_node16"><a xlink:title=" ">
<polygon fill="none" stroke="#bfbfbf" points="625.5,-174 625.5,-193 672.5,-193 672.5,-174 625.5,-174"/>
<text text-anchor="middle" x="649" y="-181" font-family="Helvetica,sans-Serif" font-size="10.00">cmath</text>
</a>
</g>
</g>
<!-- Node13&#45;&gt;Node16 -->
<g id="edge18" class="edge">
<title>Node13&#45;&gt;Node16</title>
<path fill="none" stroke="midnightblue" d="M649,-235.48C649,-227.08 649,-213.98 649,-203.16"/>
<polygon fill="midnightblue" stroke="midnightblue" points="652.5,-203.01 649,-193.01 645.5,-203.01 652.5,-203.01"/>
</g>
<!-- Node17 -->
<g id="node17" class="node">
<title>Node17</title>
<g id="a_node17"><a xlink:href="errorsIrio_8h.html" target="_top" xlink:title=" ">
<polygon fill="none" stroke="black" points="180,-174 180,-193 250,-193 250,-174 180,-174"/>
<text text-anchor="middle" x="215" y="-181" font-family="Helvetica,sans-Serif" font-size="10.00">errorsIrio.h</text>
</a>
</g>
</g>
<!-- Node13&#45;&gt;Node17 -->
<g id="edge19" class="edge">
<title>Node13&#45;&gt;Node17</title>
<path fill="none" stroke="midnightblue" d="M614.76,-240.95C532.71,-233.5 326.65,-213.89 259,-199 255.33,-198.19 251.53,-197.2 247.77,-196.11"/>
<polygon fill="midnightblue" stroke="midnightblue" points="248.63,-192.71 238.05,-193.07 246.55,-199.39 248.63,-192.71"/>
</g>
<!-- Node17&#45;&gt;Node3 -->
<g id="edge21" class="edge">
<title>Node17&#45;&gt;Node3</title>
<path fill="none" stroke="midnightblue" d="M213.14,-173.98C211.28,-165.49 208.38,-152.2 206,-141.32"/>
<polygon fill="midnightblue" stroke="midnightblue" points="209.41,-140.53 203.86,-131.51 202.57,-142.03 209.41,-140.53"/>
</g>
<!-- Node18 -->
<g id="node18" class="node">
<title>Node18</title>
<g id="a_node18"><a xlink:title=" ">
<polygon fill="none" stroke="#bfbfbf" points="242.5,-112.5 242.5,-131.5 307.5,-131.5 307.5,-112.5 242.5,-112.5"/>
<text text-anchor="middle" x="275" y="-119.5" font-family="Helvetica,sans-Serif" font-size="10.00">stdexcept</text>
</a>
</g>
</g>
<!-- Node17&#45;&gt;Node18 -->
<g id="edge20" class="edge">
<title>Node17&#45;&gt;Node18</title>
<path fill="none" stroke="midnightblue" d="M223.6,-173.98C232.86,-164.78 247.82,-149.96 259.21,-138.66"/>
<polygon fill="midnightblue" stroke="midnightblue" points="261.78,-141.04 266.42,-131.51 256.85,-136.07 261.78,-141.04"/>
</g>
<!-- Node19&#45;&gt;Node12 -->
<g id="edge23" class="edge">
<title>Node19&#45;&gt;Node12</title>
<path fill="none" stroke="midnightblue" d="M1275.65,-235.48C1260.38,-220.3 1226.47,-188.23 1193,-168 1170.21,-154.22 1142.44,-142.83 1120.63,-134.95"/>
<polygon fill="midnightblue" stroke="midnightblue" points="1121.66,-131.61 1111.07,-131.59 1119.34,-138.21 1121.66,-131.61"/>
</g>
<!-- Node20&#45;&gt;Node12 -->
<g id="edge25" class="edge">
<title>Node20&#45;&gt;Node12</title>
<path fill="none" stroke="midnightblue" d="M1041.8,-235.41C1054.29,-227.67 1070.91,-215.07 1079,-199 1087.99,-181.13 1088.1,-157.84 1086.69,-141.78"/>
<polygon fill="midnightblue" stroke="midnightblue" points="1090.13,-141.07 1085.49,-131.54 1083.18,-141.88 1090.13,-141.07"/>
</g>
<!-- Node21&#45;&gt;Node12 -->
<g id="edge27" class="edge">
<title>Node21&#45;&gt;Node12</title>
<path fill="none" stroke="midnightblue" d="M1079.48,-291.36C1094.39,-284.09 1113.11,-272.12 1122,-255 1141.97,-216.55 1114.45,-166.19 1096.8,-140.19"/>
<polygon fill="midnightblue" stroke="midnightblue" points="1099.48,-137.92 1090.84,-131.78 1093.76,-141.97 1099.48,-137.92"/>
</g>
<!-- Node22&#45;&gt;Node12 -->
<g id="edge29" class="edge">
<title>Node22&#45;&gt;Node12</title>
<path fill="none" stroke="midnightblue" d="M1233.62,-291.42C1224.22,-282.63 1209.52,-268.41 1198,-255 1166.72,-218.59 1166.23,-203.57 1134,-168 1124.42,-157.42 1112.59,-146.69 1102.84,-138.36"/>
<polygon fill="midnightblue" stroke="midnightblue" points="1104.84,-135.46 1094.93,-131.72 1100.34,-140.83 1104.84,-135.46"/>
</g>
<!-- Node23&#45;&gt;Node12 -->
<g id="edge32" class="edge">
<title>Node23&#45;&gt;Node12</title>
<path fill="none" stroke="midnightblue" d="M981.19,-173.98C1001.24,-164.03 1034.6,-147.49 1057.86,-135.96"/>
<polygon fill="midnightblue" stroke="midnightblue" points="1059.43,-139.09 1066.84,-131.51 1056.32,-132.82 1059.43,-139.09"/>
</g>
<!-- Node23&#45;&gt;Node14 -->
<g id="edge31" class="edge">
<title>Node23&#45;&gt;Node14</title>
<path fill="none" stroke="midnightblue" d="M926.32,-173.98C874.87,-162.34 783.44,-141.65 734.35,-130.55"/>
<polygon fill="midnightblue" stroke="midnightblue" points="735.08,-127.12 724.55,-128.33 733.53,-133.95 735.08,-127.12"/>
</g>
<!-- Node24&#45;&gt;Node12 -->
<g id="edge35" class="edge">
<title>Node24&#45;&gt;Node12</title>
<path fill="none" stroke="midnightblue" d="M867.71,-168.47C918.56,-157.78 987.49,-143.29 1033.74,-133.57"/>
<polygon fill="midnightblue" stroke="midnightblue" points="1034.48,-136.99 1043.54,-131.51 1033.03,-130.14 1034.48,-136.99"/>
</g>
<!-- Node24&#45;&gt;Node14 -->
<g id="edge34" class="edge">
<title>Node24&#45;&gt;Node14</title>
<path fill="none" stroke="midnightblue" d="M777.3,-168.4C761.27,-158.86 740.2,-146.32 724.26,-136.84"/>
<polygon fill="midnightblue" stroke="midnightblue" points="725.93,-133.76 715.55,-131.66 722.36,-139.78 725.93,-133.76"/>
</g>
<!-- Node26 -->
<g id="node26" class="node">
<title>Node26</title>
<g id="a_node26"><a xlink:href="terminalsDMADAQ_8h.html" target="_top" xlink:title=" ">
<polygon fill="none" stroke="black" points="154.5,-235.5 154.5,-254.5 321.5,-254.5 321.5,-235.5 154.5,-235.5"/>
<text text-anchor="middle" x="238" y="-242.5" font-family="Helvetica,sans-Serif" font-size="10.00">terminals/terminalsDMADAQ.h</text>
</a>
</g>
</g>
<!-- Node25&#45;&gt;Node26 -->
<g id="edge37" class="edge">
<title>Node25&#45;&gt;Node26</title>
<path fill="none" stroke="midnightblue" d="M244.68,-291.08C243.62,-283.93 242.09,-273.64 240.77,-264.69"/>
<polygon fill="midnightblue" stroke="midnightblue" points="244.22,-264.13 239.3,-254.75 237.3,-265.16 244.22,-264.13"/>
</g>
<!-- Node26&#45;&gt;Node2 -->
<g id="edge38" class="edge">
<title>Node26&#45;&gt;Node2</title>
<path fill="none" stroke="midnightblue" d="M157.79,-235.47C135.51,-228.97 113.69,-217.87 100,-199 75.27,-164.93 92.96,-112.28 105.12,-84.9"/>
<polygon fill="midnightblue" stroke="midnightblue" points="108.34,-86.28 109.42,-75.74 102,-83.31 108.34,-86.28"/>
</g>
<!-- Node27 -->
<g id="node27" class="node">
<title>Node27</title>
<g id="a_node27"><a xlink:href="terminalsDMACommon_8h.html" target="_top" xlink:title=" ">
<polygon fill="none" stroke="black" points="268.5,-174 268.5,-193 457.5,-193 457.5,-174 268.5,-174"/>
<text text-anchor="middle" x="363" y="-181" font-family="Helvetica,sans-Serif" font-size="10.00">terminals/terminalsDMACommon.h</text>
</a>
</g>
</g>
<!-- Node26&#45;&gt;Node27 -->
<g id="edge39" class="edge">
<title>Node26&#45;&gt;Node27</title>
<path fill="none" stroke="midnightblue" d="M255.91,-235.48C276.89,-225.49 311.85,-208.85 336.09,-197.31"/>
<polygon fill="midnightblue" stroke="midnightblue" points="337.6,-200.47 345.12,-193.01 334.59,-194.15 337.6,-200.47"/>
</g>
<!-- Node27&#45;&gt;Node2 -->
<g id="edge41" class="edge">
<title>Node27&#45;&gt;Node2</title>
<path fill="none" stroke="midnightblue" d="M378.16,-173.78C399.91,-160.21 435.43,-133.37 417,-112 383.4,-73.04 227.51,-67.27 153.37,-66.77"/>
<polygon fill="midnightblue" stroke="midnightblue" points="153.06,-63.27 143.05,-66.73 153.04,-70.27 153.06,-63.27"/>
</g>
<!-- Node27&#45;&gt;Node12 -->
<g id="edge42" class="edge">
<title>Node27&#45;&gt;Node12</title>
<path fill="none" stroke="midnightblue" d="M442.95,-173.99C463.19,-171.94 484.88,-169.81 505,-168 681.26,-152.15 888,-136.88 1000.57,-128.85"/>
<polygon fill="midnightblue" stroke="midnightblue" points="1001.11,-132.32 1010.83,-128.12 1000.61,-125.34 1001.11,-132.32"/>
</g>
<!-- Node27&#45;&gt;Node14 -->
<g id="edge40" class="edge">
<title>Node27&#45;&gt;Node14</title>
<path fill="none" stroke="midnightblue" d="M411.43,-173.98C480.82,-161.76 606.82,-139.58 667.1,-128.97"/>
<polygon fill="midnightblue" stroke="midnightblue" points="667.98,-132.37 677.22,-127.19 666.76,-125.47 667.98,-132.37"/>
</g>
<!-- Node28 -->
<g id="node28" class="node">
<title>Node28</title>
<g id="a_node28"><a xlink:href="frameTypes_8h.html" target="_top" xlink:title=" ">
<polygon fill="none" stroke="black" points="325.5,-112.5 325.5,-131.5 408.5,-131.5 408.5,-112.5 325.5,-112.5"/>
<text text-anchor="middle" x="367" y="-119.5" font-family="Helvetica,sans-Serif" font-size="10.00">frameTypes.h</text>
</a>
</g>
</g>
<!-- Node27&#45;&gt;Node28 -->
<g id="edge43" class="edge">
<title>Node27&#45;&gt;Node28</title>
<path fill="none" stroke="midnightblue" d="M363.57,-173.98C364.14,-165.58 365.02,-152.48 365.75,-141.66"/>
<polygon fill="midnightblue" stroke="midnightblue" points="369.25,-141.72 366.43,-131.51 362.26,-141.25 369.25,-141.72"/>
</g>
<!-- Node30 -->
<g id="node30" class="node">
<title>Node30</title>
<g id="a_node30"><a xlink:href="terminalsDMAIMAQ_8h.html" target="_top" xlink:title=" ">
<polygon fill="none" stroke="black" points="339.5,-235.5 339.5,-254.5 510.5,-254.5 510.5,-235.5 339.5,-235.5"/>
<text text-anchor="middle" x="425" y="-242.5" font-family="Helvetica,sans-Serif" font-size="10.00">terminals/terminalsDMAIMAQ.h</text>
</a>
</g>
</g>
<!-- Node29&#45;&gt;Node30 -->
<g id="edge45" class="edge">
<title>Node29&#45;&gt;Node30</title>
<path fill="none" stroke="midnightblue" d="M506.42,-291.32C491,-282.74 467.19,-269.49 449.29,-259.52"/>
<polygon fill="midnightblue" stroke="midnightblue" points="450.99,-256.46 440.55,-254.65 447.58,-262.58 450.99,-256.46"/>
</g>
<!-- Node30&#45;&gt;Node2 -->
<g id="edge46" class="edge">
<title>Node30&#45;&gt;Node2</title>
<path fill="none" stroke="midnightblue" d="M346.18,-235.48C270.16,-226.56 164.51,-212.07 150,-199 117.74,-169.93 113.2,-115.07 113.23,-86.07"/>
<polygon fill="midnightblue" stroke="midnightblue" points="116.74,-85.76 113.45,-75.69 109.74,-85.62 116.74,-85.76"/>
</g>
<!-- Node30&#45;&gt;Node14 -->
<g id="edge47" class="edge">
<title>Node30&#45;&gt;Node14</title>
<path fill="none" stroke="midnightblue" d="M432.89,-235.45C449.57,-217.53 488.29,-176.97 505,-168 557.24,-139.95 626.42,-129.31 667.08,-125.33"/>
<polygon fill="midnightblue" stroke="midnightblue" points="667.62,-128.8 677.27,-124.41 666.99,-121.82 667.62,-128.8"/>
</g>
<!-- Node30&#45;&gt;Node27 -->
<g id="edge48" class="edge">
<title>Node30&#45;&gt;Node27</title>
<path fill="none" stroke="midnightblue" d="M416.12,-235.48C406.54,-226.28 391.09,-211.46 379.31,-200.16"/>
<polygon fill="midnightblue" stroke="midnightblue" points="381.51,-197.41 371.87,-193.01 376.66,-202.46 381.51,-197.41"/>
</g>
<!-- Node31 -->
<g id="node31" class="node">
<title>Node31</title>
<g id="a_node31"><a xlink:href="imaqTypes_8h.html" target="_top" xlink:title=" ">
<polygon fill="none" stroke="black" points="674,-56.5 674,-75.5 752,-75.5 752,-56.5 674,-56.5"/>
<text text-anchor="middle" x="713" y="-63.5" font-family="Helvetica,sans-Serif" font-size="10.00">imaqTypes.h</text>
</a>
</g>
</g>
<!-- Node30&#45;&gt;Node31 -->
<g id="edge49" class="edge">
<title>Node30&#45;&gt;Node31</title>
<path fill="none" stroke="midnightblue" d="M348.83,-235.47C278.25,-226.79 182.47,-212.68 171,-199 146.16,-169.37 144.81,-140.45 171,-112 204,-76.14 536.26,-68.85 663.65,-67.38"/>
<polygon fill="midnightblue" stroke="midnightblue" points="663.93,-70.87 673.89,-67.26 663.86,-63.87 663.93,-70.87"/>
</g>
<!-- Node31&#45;&gt;Node8 -->
<g id="edge50" class="edge">
<title>Node31&#45;&gt;Node8</title>
<path fill="none" stroke="midnightblue" d="M752.28,-60.11C836.15,-49.68 1031.61,-25.36 1111.76,-15.38"/>
<polygon fill="midnightblue" stroke="midnightblue" points="1112.34,-18.84 1121.84,-14.13 1111.48,-11.89 1112.34,-18.84"/>
</g>
</g>
</svg>
        <g id="navigator" transform="translate(0 0)" fill="#404254">
                <rect fill="#f2f5e9" fill-opacity="0.5" stroke="#606060" stroke-width=".5" x="0" y="0" width="60" height="60"/>
                <use id="zoomplus" xlink:href="#zoomPlus" x="17" y="9" onmousedown="handleZoom(evt,'in')"/>
                <use id="zoomminus" xlink:href="#zoomMin" x="42" y="9" onmousedown="handleZoom(evt,'out')"/>
                <use id="reset" xlink:href="#resetDef" x="30" y="36" onmousedown="handleReset()"/>
                <g id="arrowUp" xlink:href="#dirArrow" transform="translate(30 24)" onmousedown="handlePan(0,-1)">
                  <use xlink:href="#rim" fill="#404040">
                        <set attributeName="fill" to="#808080" begin="arrowUp.mouseover" end="arrowUp.mouseout"/>
                  </use>
                  <path fill="none" stroke="white" stroke-width="1.5" d="M0,-3.0v7 M-2.5,-0.5L0,-3.0L2.5,-0.5"/>
                </g>
                <g id="arrowRight" xlink:href="#dirArrow" transform="rotate(90) translate(36 -43)" onmousedown="handlePan(1,0)">
                  <use xlink:href="#rim" fill="#404040">
                        <set attributeName="fill" to="#808080" begin="arrowRight.mouseover" end="arrowRight.mouseout"/>
                  </use>
                  <path fill="none" stroke="white" stroke-width="1.5" d="M0,-3.0v7 M-2.5,-0.5L0,-3.0L2.5,-0.5"/>
                </g>
                <g id="arrowDown" xlink:href="#dirArrow" transform="rotate(180) translate(-30 -48)" onmousedown="handlePan(0,1)">
                  <use xlink:href="#rim" fill="#404040">
                        <set attributeName="fill" to="#808080" begin="arrowDown.mouseover" end="arrowDown.mouseout"/>
                  </use>
                  <path fill="none" stroke="white" stroke-width="1.5" d="M0,-3.0v7 M-2.5,-0.5L0,-3.0L2.5,-0.5"/>
                </g>
                <g id="arrowLeft" xlink:href="#dirArrow" transform="rotate(270) translate(-36 17)" onmousedown="handlePan(-1,0)">
                  <use xlink:href="#rim" fill="#404040">
                        <set attributeName="fill" to="#808080" begin="arrowLeft.mouseover" end="arrowLeft.mouseout"/>
                  </use>
                  <path fill="none" stroke="white" stroke-width="1.5" d="M0,-3.0v7 M-2.5,-0.5L0,-3.0L2.5,-0.5"/>
                </g>
        </g>
        <svg viewBox="0 0 15 15" width="100%" height="30px" preserveAspectRatio="xMaxYMin meet">
         <g id="arrow_out" transform="scale(0.3 0.3)">
          <a xlink:href="irioCoreCpp_8h__incl_org.svg" target="_base">
           <rect id="button" ry="5" rx="5" y="6" x="6" height="38" width="38"
                fill="#f2f5e9" fill-opacity="0.5" stroke="#606060" stroke-width="1.0"/>
           <path id="arrow"
             d="M 11.500037,31.436501 C 11.940474,20.09759 22.043105,11.32322 32.158766,21.979434 L 37.068811,17.246167 C 37.068811,17.246167 37.088388,32 37.088388,32 L 22.160133,31.978069 C 22.160133,31.978069 26.997745,27.140456 26.997745,27.140456 C 18.528582,18.264221 13.291696,25.230495 11.500037,31.436501 z"
             style="fill:#404040;"/>
          </a>
         </g>
        </svg>
</svg>
