<?xml version="1.0" encoding="UTF-8" standalone="no"?>
<!DOCTYPE svg PUBLIC "-//W3C//DTD SVG 1.1//EN"
 "http://www.w3.org/Graphics/SVG/1.1/DTD/svg11.dtd">
<!-- Generated by graphviz version 2.43.0 (0)
 -->
<!-- Title: irioDataTypes.h Pages: 1 -->
<svg width="1062pt" height="84pt"
 viewBox="0.00 0.00 1061.50 84.00" xmlns="http://www.w3.org/2000/svg" xmlns:xlink="http://www.w3.org/1999/xlink">
<g id="graph0" class="graph" transform="scale(1 1) rotate(0) translate(4 80)">
<title>irioDataTypes.h</title>
<!-- Node1 -->
<g id="node1" class="node">
<title>Node1</title>
<g id="a_node1"><a xlink:title=" ">
<polygon fill="#bfbfbf" stroke="black" points="439.5,-56.5 439.5,-75.5 531.5,-75.5 531.5,-56.5 439.5,-56.5"/>
<text text-anchor="middle" x="485.5" y="-63.5" font-family="Helvetica,sans-Serif" font-size="10.00">irioDataTypes.h</text>
</a>
</g>
</g>
<!-- Node2 -->
<g id="node2" class="node">
<title>Node2</title>
<g id="a_node2"><a xlink:href="irioDriver_8h.html" target="_top" xlink:title=" ">
<polygon fill="none" stroke="black" points="0,-0.5 0,-19.5 71,-19.5 71,-0.5 0,-0.5"/>
<text text-anchor="middle" x="35.5" y="-7.5" font-family="Helvetica,sans-Serif" font-size="10.00">irioDriver.h</text>
</a>
</g>
</g>
<!-- Node1&#45;&gt;Node2 -->
<g id="edge1" class="edge">
<title>Node1&#45;&gt;Node2</title>
<path fill="none" stroke="midnightblue" d="M429.33,-60.31C350.96,-53.42 204.44,-39.24 80.5,-20 77.51,-19.54 74.41,-19.01 71.31,-18.45"/>
<polygon fill="midnightblue" stroke="midnightblue" points="429.21,-63.81 439.47,-61.2 429.81,-56.84 429.21,-63.81"/>
</g>
<!-- Node3 -->
<g id="node3" class="node">
<title>Node3</title>
<g id="a_node3"><a xlink:href="irioError_8h.html" target="_top" xlink:title=" ">
<polygon fill="none" stroke="black" points="89.5,-0.5 89.5,-19.5 153.5,-19.5 153.5,-0.5 89.5,-0.5"/>
<text text-anchor="middle" x="121.5" y="-7.5" font-family="Helvetica,sans-Serif" font-size="10.00">irioError.h</text>
</a>
</g>
</g>
<!-- Node1&#45;&gt;Node3 -->
<g id="edge2" class="edge">
<title>Node1&#45;&gt;Node3</title>
<path fill="none" stroke="midnightblue" d="M429.35,-58.52C364.75,-50.75 255.61,-36.68 162.5,-20 159.63,-19.49 156.66,-18.91 153.68,-18.31"/>
<polygon fill="midnightblue" stroke="midnightblue" points="428.98,-62 439.32,-59.71 429.81,-55.05 428.98,-62"/>
</g>
<!-- Node4 -->
<g id="node4" class="node">
<title>Node4</title>
<g id="a_node4"><a xlink:href="irioHandlerAnalog_8h.html" target="_top" xlink:title=" ">
<polygon fill="none" stroke="black" points="172,-0.5 172,-19.5 285,-19.5 285,-0.5 172,-0.5"/>
<text text-anchor="middle" x="228.5" y="-7.5" font-family="Helvetica,sans-Serif" font-size="10.00">irioHandlerAnalog.h</text>
</a>
</g>
</g>
<!-- Node1&#45;&gt;Node4 -->
<g id="edge3" class="edge">
<title>Node1&#45;&gt;Node4</title>
<path fill="none" stroke="midnightblue" d="M434.79,-54.35C386.22,-44.14 313.88,-28.94 269.03,-19.52"/>
<polygon fill="midnightblue" stroke="midnightblue" points="434.27,-57.81 444.78,-56.44 435.71,-50.96 434.27,-57.81"/>
</g>
<!-- Node5 -->
<g id="node5" class="node">
<title>Node5</title>
<g id="a_node5"><a xlink:href="irioHandlerDigital_8h.html" target="_top" xlink:title=" ">
<polygon fill="none" stroke="black" points="303.5,-0.5 303.5,-19.5 415.5,-19.5 415.5,-0.5 303.5,-0.5"/>
<text text-anchor="middle" x="359.5" y="-7.5" font-family="Helvetica,sans-Serif" font-size="10.00">irioHandlerDigital.h</text>
</a>
</g>
</g>
<!-- Node1&#45;&gt;Node5 -->
<g id="edge4" class="edge">
<title>Node1&#45;&gt;Node5</title>
<path fill="none" stroke="midnightblue" d="M456.34,-52.5C432.72,-42.38 400.07,-28.39 379.37,-19.52"/>
<polygon fill="midnightblue" stroke="midnightblue" points="454.96,-55.72 465.53,-56.44 457.72,-49.29 454.96,-55.72"/>
</g>
<!-- Node6 -->
<g id="node6" class="node">
<title>Node6</title>
<g id="a_node6"><a xlink:href="irioHandlerDMA_8h.html" target="_top" xlink:title=" ">
<polygon fill="none" stroke="black" points="434,-0.5 434,-19.5 537,-19.5 537,-0.5 434,-0.5"/>
<text text-anchor="middle" x="485.5" y="-7.5" font-family="Helvetica,sans-Serif" font-size="10.00">irioHandlerDMA.h</text>
</a>
</g>
</g>
<!-- Node1&#45;&gt;Node6 -->
<g id="edge5" class="edge">
<title>Node1&#45;&gt;Node6</title>
<path fill="none" stroke="midnightblue" d="M485.5,-45.8C485.5,-36.91 485.5,-26.78 485.5,-19.75"/>
<polygon fill="midnightblue" stroke="midnightblue" points="482,-46.08 485.5,-56.08 489,-46.08 482,-46.08"/>
</g>
<!-- Node7 -->
<g id="node7" class="node">
<title>Node7</title>
<g id="a_node7"><a xlink:href="irioHandlerDMAGPU_8h.html" target="_top" xlink:title=" ">
<polygon fill="none" stroke="black" points="555.5,-0.5 555.5,-19.5 679.5,-19.5 679.5,-0.5 555.5,-0.5"/>
<text text-anchor="middle" x="617.5" y="-7.5" font-family="Helvetica,sans-Serif" font-size="10.00">irioHandlerDMAGPU.h</text>
</a>
</g>
</g>
<!-- Node1&#45;&gt;Node7 -->
<g id="edge6" class="edge">
<title>Node1&#45;&gt;Node7</title>
<path fill="none" stroke="midnightblue" d="M515.72,-52.64C540.49,-42.5 574.9,-28.43 596.68,-19.52"/>
<polygon fill="midnightblue" stroke="midnightblue" points="514.35,-49.42 506.42,-56.44 517,-55.9 514.35,-49.42"/>
</g>
<!-- Node8 -->
<g id="node8" class="node">
<title>Node8</title>
<g id="a_node8"><a xlink:href="irioHandlerImage_8h.html" target="_top" xlink:title=" ">
<polygon fill="none" stroke="black" points="697.5,-0.5 697.5,-19.5 807.5,-19.5 807.5,-0.5 697.5,-0.5"/>
<text text-anchor="middle" x="752.5" y="-7.5" font-family="Helvetica,sans-Serif" font-size="10.00">irioHandlerImage.h</text>
</a>
</g>
</g>
<!-- Node1&#45;&gt;Node8 -->
<g id="edge7" class="edge">
<title>Node1&#45;&gt;Node8</title>
<path fill="none" stroke="midnightblue" d="M537.86,-54.41C588.32,-44.2 663.7,-28.96 710.39,-19.52"/>
<polygon fill="midnightblue" stroke="midnightblue" points="536.91,-51.03 527.81,-56.44 538.3,-57.89 536.91,-51.03"/>
</g>
<!-- Node9 -->
<g id="node9" class="node">
<title>Node9</title>
<g id="a_node9"><a xlink:href="irioHandlerSG_8h.html" target="_top" xlink:title=" ">
<polygon fill="none" stroke="black" points="826,-0.5 826,-19.5 919,-19.5 919,-0.5 826,-0.5"/>
<text text-anchor="middle" x="872.5" y="-7.5" font-family="Helvetica,sans-Serif" font-size="10.00">irioHandlerSG.h</text>
</a>
</g>
</g>
<!-- Node1&#45;&gt;Node9 -->
<g id="edge8" class="edge">
<title>Node1&#45;&gt;Node9</title>
<path fill="none" stroke="midnightblue" d="M541.77,-57.77C607.68,-49.21 720.12,-34.29 816.5,-20 819.52,-19.55 822.63,-19.08 825.76,-18.6"/>
<polygon fill="midnightblue" stroke="midnightblue" points="541.07,-54.33 531.6,-59.09 541.97,-61.28 541.07,-54.33"/>
</g>
<!-- Node10 -->
<g id="node10" class="node">
<title>Node10</title>
<g id="a_node10"><a xlink:href="irioResourceFinder_8h.html" target="_top" xlink:title=" ">
<polygon fill="none" stroke="black" points="937.5,-0.5 937.5,-19.5 1053.5,-19.5 1053.5,-0.5 937.5,-0.5"/>
<text text-anchor="middle" x="995.5" y="-7.5" font-family="Helvetica,sans-Serif" font-size="10.00">irioResourceFinder.h</text>
</a>
</g>
</g>
<!-- Node1&#45;&gt;Node10 -->
<g id="edge9" class="edge">
<title>Node1&#45;&gt;Node10</title>
<path fill="none" stroke="midnightblue" d="M541.91,-59.86C626.15,-52.05 789.76,-36.36 928.5,-20 931.41,-19.66 934.4,-19.29 937.41,-18.92"/>
<polygon fill="midnightblue" stroke="midnightblue" points="541.43,-56.39 531.79,-60.79 542.07,-63.36 541.43,-56.39"/>
</g>
</g>
</svg>
