<?xml version="1.0" encoding="UTF-8" standalone="no"?>
<!DOCTYPE svg PUBLIC "-//W3C//DTD SVG 1.1//EN"
 "http://www.w3.org/Graphics/SVG/1.1/DTD/svg11.dtd">
<!-- Generated by graphviz version 2.43.0 (0)
 -->
<!-- Title: irioHandlerSG.h Pages: 1 -->
<svg width="155pt" height="140pt"
 viewBox="0.00 0.00 154.50 140.00" xmlns="http://www.w3.org/2000/svg" xmlns:xlink="http://www.w3.org/1999/xlink">
<g id="graph0" class="graph" transform="scale(1 1) rotate(0) translate(4 136)">
<title>irioHandlerSG.h</title>
<!-- Node1 -->
<g id="node1" class="node">
<title>Node1</title>
<g id="a_node1"><a xlink:title=" ">
<polygon fill="#bfbfbf" stroke="black" points="36.5,-112.5 36.5,-131.5 129.5,-131.5 129.5,-112.5 36.5,-112.5"/>
<text text-anchor="middle" x="83" y="-119.5" font-family="Helvetica,sans-Serif" font-size="10.00">irioHandlerSG.h</text>
</a>
</g>
</g>
<!-- Node2 -->
<g id="node2" class="node">
<title>Node2</title>
<g id="a_node2"><a xlink:href="irioDataTypes_8h.html" target="_top" xlink:title=" ">
<polygon fill="none" stroke="black" points="0,-56.5 0,-75.5 92,-75.5 92,-56.5 0,-56.5"/>
<text text-anchor="middle" x="46" y="-63.5" font-family="Helvetica,sans-Serif" font-size="10.00">irioDataTypes.h</text>
</a>
</g>
</g>
<!-- Node1&#45;&gt;Node2 -->
<g id="edge1" class="edge">
<title>Node1&#45;&gt;Node2</title>
<path fill="none" stroke="midnightblue" d="M76.89,-112.08C71.72,-104.53 64.15,-93.49 57.81,-84.23"/>
<polygon fill="midnightblue" stroke="midnightblue" points="60.54,-82.02 52,-75.75 54.76,-85.98 60.54,-82.02"/>
</g>
<!-- Node4 -->
<g id="node4" class="node">
<title>Node4</title>
<g id="a_node4"><a xlink:title=" ">
<polygon fill="none" stroke="#bfbfbf" points="93.5,-0.5 93.5,-19.5 146.5,-19.5 146.5,-0.5 93.5,-0.5"/>
<text text-anchor="middle" x="120" y="-7.5" font-family="Helvetica,sans-Serif" font-size="10.00">stdint.h</text>
</a>
</g>
</g>
<!-- Node1&#45;&gt;Node4 -->
<g id="edge4" class="edge">
<title>Node1&#45;&gt;Node4</title>
<path fill="none" stroke="midnightblue" d="M86.7,-112.47C90.52,-103.48 96.55,-88.88 101,-76 106.34,-60.55 111.48,-42.7 115.07,-29.62"/>
<polygon fill="midnightblue" stroke="midnightblue" points="118.46,-30.48 117.69,-19.92 111.7,-28.66 118.46,-30.48"/>
</g>
<!-- Node3 -->
<g id="node3" class="node">
<title>Node3</title>
<g id="a_node3"><a xlink:title=" ">
<polygon fill="none" stroke="#bfbfbf" points="15,-0.5 15,-19.5 75,-19.5 75,-0.5 15,-0.5"/>
<text text-anchor="middle" x="45" y="-7.5" font-family="Helvetica,sans-Serif" font-size="10.00">NiFpga.h</text>
</a>
</g>
</g>
<!-- Node2&#45;&gt;Node3 -->
<g id="edge2" class="edge">
<title>Node2&#45;&gt;Node3</title>
<path fill="none" stroke="midnightblue" d="M45.83,-56.08C45.7,-49.01 45.52,-38.86 45.35,-29.99"/>
<polygon fill="midnightblue" stroke="midnightblue" points="48.85,-29.68 45.16,-19.75 41.85,-29.81 48.85,-29.68"/>
</g>
<!-- Node2&#45;&gt;Node4 -->
<g id="edge3" class="edge">
<title>Node2&#45;&gt;Node4</title>
<path fill="none" stroke="midnightblue" d="M57.89,-56.32C69.15,-48.11 86.29,-35.6 99.71,-25.81"/>
<polygon fill="midnightblue" stroke="midnightblue" points="101.88,-28.56 107.89,-19.83 97.75,-22.9 101.88,-28.56"/>
</g>
</g>
</svg>
