<?xml version="1.0" encoding="UTF-8" standalone="no"?>
<!DOCTYPE svg PUBLIC "-//W3C//DTD SVG 1.1//EN"
 "http://www.w3.org/Graphics/SVG/1.1/DTD/svg11.dtd">
<!-- Generated by graphviz version 2.43.0 (0)
 -->
<!-- Title: parserManager.h Pages: 1 -->
<!--zoomable 308 -->
<svg id="main" version="1.1" xmlns="http://www.w3.org/2000/svg" xmlns:xlink="http://www.w3.org/1999/xlink" xml:space="preserve" onload="init(evt)">
<style type="text/css"><![CDATA[
.edge:hover path { stroke: red; }
.edge:hover polygon { stroke: red; fill: red; }
]]></style>
<script type="text/javascript"><![CDATA[
var edges = document.getElementsByTagName('g');
if (edges && edges.length) {
  for (var i=0;i<edges.length;i++) {
    if (edges[i].id.substr(0,4)=='edge') {
      edges[i].setAttribute('class','edge');
    }
  }
}
]]></script>
        <defs>
                <circle id="rim" cx="0" cy="0" r="7"/>
                <circle id="rim2" cx="0" cy="0" r="3.5"/>
                <g id="zoomPlus">
                        <use xlink:href="#rim" fill="#404040">
                                <set attributeName="fill" to="#808080" begin="zoomplus.mouseover" end="zoomplus.mouseout"/>
                        </use>
                        <path d="M-4,0h8M0,-4v8" fill="none" stroke="white" stroke-width="1.5" pointer-events="none"/>
                </g>
                <g id="zoomMin">
                        <use xlink:href="#rim" fill="#404040">
                                <set attributeName="fill" to="#808080" begin="zoomminus.mouseover" end="zoomminus.mouseout"/>
                        </use>
                        <path d="M-4,0h8" fill="none" stroke="white" stroke-width="1.5" pointer-events="none"/>
                </g>
                <g id="dirArrow">
                        <path fill="none" stroke="white" stroke-width="1.5" d="M0,-3.0v7 M-2.5,-0.5L0,-3.0L2.5,-0.5"/>
                </g>
               <g id="resetDef">
                       <use xlink:href="#rim2" fill="#404040">
                               <set attributeName="fill" to="#808080" begin="reset.mouseover" end="reset.mouseout"/>
                       </use>
               </g>
        </defs>

<script type="text/javascript">
var viewWidth = 692;
var viewHeight = 308;
var sectionId = 'dynsection-0';
</script>
<script xlink:href="svgpan.js"/>
<svg id="graph" class="graph">
<g id="viewport">
<title>parserManager.h</title>
<!-- Node1 -->
<g id="node1" class="node">
<title>Node1</title>
<g id="a_node1"><a xlink:title=" ">
<polygon fill="#bfbfbf" stroke="black" points="393.28,-280.5 393.28,-299.5 491.28,-299.5 491.28,-280.5 393.28,-280.5"/>
<text text-anchor="middle" x="442.28" y="-287.5" font-family="Helvetica,sans-Serif" font-size="10.00">parserManager.h</text>
</a>
</g>
</g>
<!-- Node2 -->
<g id="node2" class="node">
<title>Node2</title>
<g id="a_node2"><a xlink:title=" ">
<polygon fill="none" stroke="#bfbfbf" points="71.78,-168.5 71.78,-187.5 118.78,-187.5 118.78,-168.5 71.78,-168.5"/>
<text text-anchor="middle" x="95.28" y="-175.5" font-family="Helvetica,sans-Serif" font-size="10.00">vector</text>
</a>
</g>
</g>
<!-- Node1&#45;&gt;Node2 -->
<g id="edge1" class="edge">
<title>Node1&#45;&gt;Node2</title>
<path fill="none" stroke="midnightblue" d="M393.04,-281.77C349.92,-274.66 285.95,-262.21 232.28,-244 191.2,-230.07 146.25,-207.14 119.43,-192.57"/>
<polygon fill="midnightblue" stroke="midnightblue" points="120.85,-189.36 110.4,-187.62 117.48,-195.5 120.85,-189.36"/>
</g>
<!-- Node3 -->
<g id="node3" class="node">
<title>Node3</title>
<g id="a_node3"><a xlink:title=" ">
<polygon fill="none" stroke="#bfbfbf" points="167.28,-0.5 167.28,-19.5 211.28,-19.5 211.28,-0.5 167.28,-0.5"/>
<text text-anchor="middle" x="189.28" y="-7.5" font-family="Helvetica,sans-Serif" font-size="10.00">string</text>
</a>
</g>
</g>
<!-- Node1&#45;&gt;Node3 -->
<g id="edge2" class="edge">
<title>Node1&#45;&gt;Node3</title>
<path fill="none" stroke="midnightblue" d="M442.28,-280.44C442.28,-261.94 442.28,-216.81 442.28,-179 442.28,-179 442.28,-179 442.28,-121 442.28,-25.75 289.61,-12.11 221.46,-10.76"/>
<polygon fill="midnightblue" stroke="midnightblue" points="221.33,-7.26 211.29,-10.64 221.25,-14.26 221.33,-7.26"/>
</g>
<!-- Node4 -->
<g id="node4" class="node">
<title>Node4</title>
<g id="a_node4"><a xlink:title=" ">
<polygon fill="none" stroke="#bfbfbf" points="320.78,-168.5 320.78,-187.5 413.78,-187.5 413.78,-168.5 320.78,-168.5"/>
<text text-anchor="middle" x="367.28" y="-175.5" font-family="Helvetica,sans-Serif" font-size="10.00">unordered_map</text>
</a>
</g>
</g>
<!-- Node1&#45;&gt;Node4 -->
<g id="edge3" class="edge">
<title>Node1&#45;&gt;Node4</title>
<path fill="none" stroke="midnightblue" d="M436.39,-280.37C424.02,-262.22 395.1,-219.8 378.86,-195.99"/>
<polygon fill="midnightblue" stroke="midnightblue" points="381.66,-193.88 373.14,-187.59 375.88,-197.83 381.66,-193.88"/>
</g>
<!-- Node5 -->
<g id="node5" class="node">
<title>Node5</title>
<g id="a_node5"><a xlink:title=" ">
<polygon fill="none" stroke="#bfbfbf" points="470.28,-224.5 470.28,-243.5 502.28,-243.5 502.28,-224.5 470.28,-224.5"/>
<text text-anchor="middle" x="486.28" y="-231.5" font-family="Helvetica,sans-Serif" font-size="10.00">set</text>
</a>
</g>
</g>
<!-- Node1&#45;&gt;Node5 -->
<g id="edge4" class="edge">
<title>Node1&#45;&gt;Node5</title>
<path fill="none" stroke="midnightblue" d="M449.54,-280.08C455.82,-272.38 465.07,-261.03 472.71,-251.65"/>
<polygon fill="midnightblue" stroke="midnightblue" points="475.54,-253.71 479.15,-243.75 470.12,-249.29 475.54,-253.71"/>
</g>
<!-- Node6 -->
<g id="node6" class="node">
<title>Node6</title>
<g id="a_node6"><a xlink:title=" ">
<polygon fill="none" stroke="#bfbfbf" points="520.28,-224.5 520.28,-243.5 606.28,-243.5 606.28,-224.5 520.28,-224.5"/>
<text text-anchor="middle" x="563.28" y="-231.5" font-family="Helvetica,sans-Serif" font-size="10.00">unordered_set</text>
</a>
</g>
</g>
<!-- Node1&#45;&gt;Node6 -->
<g id="edge5" class="edge">
<title>Node1&#45;&gt;Node6</title>
<path fill="none" stroke="midnightblue" d="M461.45,-280.44C481.19,-271.64 512.16,-257.81 534.77,-247.72"/>
<polygon fill="midnightblue" stroke="midnightblue" points="536.49,-250.79 544.2,-243.52 533.64,-244.4 536.49,-250.79"/>
</g>
<!-- Node7 -->
<g id="node7" class="node">
<title>Node7</title>
<g id="a_node7"><a xlink:title=" ">
<polygon fill="none" stroke="#bfbfbf" points="624.28,-224.5 624.28,-243.5 684.28,-243.5 684.28,-224.5 624.28,-224.5"/>
<text text-anchor="middle" x="654.28" y="-231.5" font-family="Helvetica,sans-Serif" font-size="10.00">iostream</text>
</a>
</g>
</g>
<!-- Node1&#45;&gt;Node7 -->
<g id="edge6" class="edge">
<title>Node1&#45;&gt;Node7</title>
<path fill="none" stroke="midnightblue" d="M475.87,-280.44C513.46,-270.87 574.33,-255.36 614.33,-245.18"/>
<polygon fill="midnightblue" stroke="midnightblue" points="615.44,-248.5 624.27,-242.64 613.72,-241.72 615.44,-248.5"/>
</g>
<!-- Node8 -->
<g id="node8" class="node">
<title>Node8</title>
<g id="a_node8"><a xlink:href="bfp_8h.html" target="_top" xlink:title=" ">
<polygon fill="none" stroke="black" points="241.78,-224.5 241.78,-243.5 282.78,-243.5 282.78,-224.5 241.78,-224.5"/>
<text text-anchor="middle" x="262.28" y="-231.5" font-family="Helvetica,sans-Serif" font-size="10.00">bfp.h</text>
</a>
</g>
</g>
<!-- Node1&#45;&gt;Node8 -->
<g id="edge7" class="edge">
<title>Node1&#45;&gt;Node8</title>
<path fill="none" stroke="midnightblue" d="M413.76,-280.44C380.7,-270.53 326.44,-254.25 292.62,-244.1"/>
<polygon fill="midnightblue" stroke="midnightblue" points="293.41,-240.69 282.83,-241.16 291.4,-247.39 293.41,-240.69"/>
</g>
<!-- Node8&#45;&gt;Node2 -->
<g id="edge8" class="edge">
<title>Node8&#45;&gt;Node2</title>
<path fill="none" stroke="midnightblue" d="M241.47,-226.27C213.26,-217.15 162.55,-200.75 128.9,-189.87"/>
<polygon fill="midnightblue" stroke="midnightblue" points="129.64,-186.43 119.05,-186.69 127.49,-193.09 129.64,-186.43"/>
</g>
<!-- Node8&#45;&gt;Node3 -->
<g id="edge10" class="edge">
<title>Node8&#45;&gt;Node3</title>
<path fill="none" stroke="midnightblue" d="M265.01,-224.49C267.73,-215.52 271.72,-200.94 273.28,-188 279.13,-139.44 255.96,-61.77 252.28,-56 243.78,-42.69 229.82,-32.12 217.19,-24.57"/>
<polygon fill="midnightblue" stroke="midnightblue" points="218.77,-21.45 208.33,-19.62 215.35,-27.56 218.77,-21.45"/>
</g>
<!-- Node8&#45;&gt;Node4 -->
<g id="edge9" class="edge">
<title>Node8&#45;&gt;Node4</title>
<path fill="none" stroke="midnightblue" d="M279.15,-224.32C295.99,-215.66 322.08,-202.24 341.52,-192.25"/>
<polygon fill="midnightblue" stroke="midnightblue" points="343.16,-195.34 350.45,-187.65 339.96,-189.12 343.16,-195.34"/>
</g>
<!-- Node9 -->
<g id="node9" class="node">
<title>Node9</title>
<g id="a_node9"><a xlink:href="register_8h.html" target="_top" xlink:title=" ">
<polygon fill="none" stroke="black" points="202.28,-168.5 202.28,-187.5 264.28,-187.5 264.28,-168.5 202.28,-168.5"/>
<text text-anchor="middle" x="233.28" y="-175.5" font-family="Helvetica,sans-Serif" font-size="10.00">register.h</text>
</a>
</g>
</g>
<!-- Node8&#45;&gt;Node9 -->
<g id="edge11" class="edge">
<title>Node8&#45;&gt;Node9</title>
<path fill="none" stroke="midnightblue" d="M257.49,-224.08C253.52,-216.69 247.75,-205.95 242.84,-196.81"/>
<polygon fill="midnightblue" stroke="midnightblue" points="245.79,-194.91 237.98,-187.75 239.63,-198.22 245.79,-194.91"/>
</g>
<!-- Node14 -->
<g id="node14" class="node">
<title>Node14</title>
<g id="a_node14"><a xlink:href="dma_8h.html" target="_top" xlink:title=" ">
<polygon fill="none" stroke="black" points="136.78,-168.5 136.78,-187.5 183.78,-187.5 183.78,-168.5 136.78,-168.5"/>
<text text-anchor="middle" x="160.28" y="-175.5" font-family="Helvetica,sans-Serif" font-size="10.00">dma.h</text>
</a>
</g>
</g>
<!-- Node8&#45;&gt;Node14 -->
<g id="edge19" class="edge">
<title>Node8&#45;&gt;Node14</title>
<path fill="none" stroke="midnightblue" d="M245.89,-224.32C229.61,-215.7 204.41,-202.36 185.56,-192.39"/>
<polygon fill="midnightblue" stroke="midnightblue" points="187.1,-189.24 176.63,-187.65 183.83,-195.43 187.1,-189.24"/>
</g>
<!-- Node9&#45;&gt;Node3 -->
<g id="edge12" class="edge">
<title>Node9&#45;&gt;Node3</title>
<path fill="none" stroke="midnightblue" d="M235.7,-168.34C240.98,-147.84 251.73,-95.12 235.28,-56 230.25,-44.05 220.33,-33.69 210.99,-25.93"/>
<polygon fill="midnightblue" stroke="midnightblue" points="213.12,-23.15 203.06,-19.81 208.84,-28.69 213.12,-23.15"/>
</g>
<!-- Node10 -->
<g id="node10" class="node">
<title>Node10</title>
<g id="a_node10"><a xlink:href="resource_8h.html" target="_top" xlink:title=" ">
<polygon fill="none" stroke="black" points="62.28,-112.5 62.28,-131.5 130.28,-131.5 130.28,-112.5 62.28,-112.5"/>
<text text-anchor="middle" x="96.28" y="-119.5" font-family="Helvetica,sans-Serif" font-size="10.00">resource.h</text>
</a>
</g>
</g>
<!-- Node9&#45;&gt;Node10 -->
<g id="edge13" class="edge">
<title>Node9&#45;&gt;Node10</title>
<path fill="none" stroke="midnightblue" d="M211.57,-168.44C188.92,-159.52 153.21,-145.44 127.53,-135.32"/>
<polygon fill="midnightblue" stroke="midnightblue" points="128.47,-131.93 117.88,-131.52 125.9,-138.44 128.47,-131.93"/>
</g>
<!-- Node13 -->
<g id="node13" class="node">
<title>Node13</title>
<g id="a_node13"><a xlink:title=" ">
<polygon fill="none" stroke="#bfbfbf" points="148.78,-112.5 148.78,-131.5 225.78,-131.5 225.78,-112.5 148.78,-112.5"/>
<text text-anchor="middle" x="187.28" y="-119.5" font-family="Helvetica,sans-Serif" font-size="10.00">pugixml.hpp</text>
</a>
</g>
</g>
<!-- Node9&#45;&gt;Node13 -->
<g id="edge18" class="edge">
<title>Node9&#45;&gt;Node13</title>
<path fill="none" stroke="midnightblue" d="M225.68,-168.08C219.05,-160.3 209.26,-148.8 201.22,-139.37"/>
<polygon fill="midnightblue" stroke="midnightblue" points="203.88,-137.09 194.73,-131.75 198.55,-141.63 203.88,-137.09"/>
</g>
<!-- Node10&#45;&gt;Node3 -->
<g id="edge14" class="edge">
<title>Node10&#45;&gt;Node3</title>
<path fill="none" stroke="midnightblue" d="M101.92,-112.24C110.33,-99.41 126.92,-74.99 143.28,-56 152.21,-45.63 163.13,-34.88 172.08,-26.49"/>
<polygon fill="midnightblue" stroke="midnightblue" points="174.66,-28.88 179.65,-19.53 169.92,-23.73 174.66,-28.88"/>
</g>
<!-- Node11 -->
<g id="node11" class="node">
<title>Node11</title>
<g id="a_node11"><a xlink:href="fpgatypes_8h.html" target="_top" xlink:title=" ">
<polygon fill="none" stroke="black" points="152.28,-56.5 152.28,-75.5 226.28,-75.5 226.28,-56.5 152.28,-56.5"/>
<text text-anchor="middle" x="189.28" y="-63.5" font-family="Helvetica,sans-Serif" font-size="10.00">fpgatypes.h</text>
</a>
</g>
</g>
<!-- Node10&#45;&gt;Node11 -->
<g id="edge15" class="edge">
<title>Node10&#45;&gt;Node11</title>
<path fill="none" stroke="midnightblue" d="M111.22,-112.32C125.86,-103.82 148.41,-90.73 165.52,-80.8"/>
<polygon fill="midnightblue" stroke="midnightblue" points="167.48,-83.7 174.37,-75.65 163.97,-77.65 167.48,-83.7"/>
</g>
<!-- Node12 -->
<g id="node12" class="node">
<title>Node12</title>
<g id="a_node12"><a xlink:href="elemtypes_8h.html" target="_top" xlink:title=" ">
<polygon fill="none" stroke="black" points="18.78,-56.5 18.78,-75.5 95.78,-75.5 95.78,-56.5 18.78,-56.5"/>
<text text-anchor="middle" x="57.28" y="-63.5" font-family="Helvetica,sans-Serif" font-size="10.00">elemtypes.h</text>
</a>
</g>
</g>
<!-- Node10&#45;&gt;Node12 -->
<g id="edge16" class="edge">
<title>Node10&#45;&gt;Node12</title>
<path fill="none" stroke="midnightblue" d="M89.84,-112.08C84.33,-104.46 76.25,-93.26 69.51,-83.94"/>
<polygon fill="midnightblue" stroke="midnightblue" points="72.29,-81.81 63.6,-75.75 66.62,-85.91 72.29,-81.81"/>
</g>
<!-- Node12&#45;&gt;Node3 -->
<g id="edge17" class="edge">
<title>Node12&#45;&gt;Node3</title>
<path fill="none" stroke="midnightblue" d="M78.19,-56.44C100.01,-47.52 134.43,-33.44 159.17,-23.32"/>
<polygon fill="midnightblue" stroke="midnightblue" points="160.53,-26.54 168.46,-19.52 157.88,-20.06 160.53,-26.54"/>
</g>
<!-- Node14&#45;&gt;Node3 -->
<g id="edge20" class="edge">
<title>Node14&#45;&gt;Node3</title>
<path fill="none" stroke="midnightblue" d="M136.61,-170.01C84.51,-153.46 -32.28,-109.22 9.28,-56 27.26,-32.98 110.11,-19.99 156.89,-14.37"/>
<polygon fill="midnightblue" stroke="midnightblue" points="157.58,-17.82 167.12,-13.19 156.78,-10.86 157.58,-17.82"/>
</g>
<!-- Node14&#45;&gt;Node10 -->
<g id="edge22" class="edge">
<title>Node14&#45;&gt;Node10</title>
<path fill="none" stroke="midnightblue" d="M150,-168.32C140.44,-160.26 126,-148.08 114.49,-138.37"/>
<polygon fill="midnightblue" stroke="midnightblue" points="116.65,-135.61 106.75,-131.83 112.13,-140.96 116.65,-135.61"/>
</g>
<!-- Node14&#45;&gt;Node13 -->
<g id="edge21" class="edge">
<title>Node14&#45;&gt;Node13</title>
<path fill="none" stroke="midnightblue" d="M164.74,-168.08C168.43,-160.69 173.8,-149.95 178.37,-140.81"/>
<polygon fill="midnightblue" stroke="midnightblue" points="181.56,-142.26 182.9,-131.75 175.3,-139.13 181.56,-142.26"/>
</g>
</g>
</svg>
        <g id="navigator" transform="translate(0 0)" fill="#404254">
                <rect fill="#f2f5e9" fill-opacity="0.5" stroke="#606060" stroke-width=".5" x="0" y="0" width="60" height="60"/>
                <use id="zoomplus" xlink:href="#zoomPlus" x="17" y="9" onmousedown="handleZoom(evt,'in')"/>
                <use id="zoomminus" xlink:href="#zoomMin" x="42" y="9" onmousedown="handleZoom(evt,'out')"/>
                <use id="reset" xlink:href="#resetDef" x="30" y="36" onmousedown="handleReset()"/>
                <g id="arrowUp" xlink:href="#dirArrow" transform="translate(30 24)" onmousedown="handlePan(0,-1)">
                  <use xlink:href="#rim" fill="#404040">
                        <set attributeName="fill" to="#808080" begin="arrowUp.mouseover" end="arrowUp.mouseout"/>
                  </use>
                  <path fill="none" stroke="white" stroke-width="1.5" d="M0,-3.0v7 M-2.5,-0.5L0,-3.0L2.5,-0.5"/>
                </g>
                <g id="arrowRight" xlink:href="#dirArrow" transform="rotate(90) translate(36 -43)" onmousedown="handlePan(1,0)">
                  <use xlink:href="#rim" fill="#404040">
                        <set attributeName="fill" to="#808080" begin="arrowRight.mouseover" end="arrowRight.mouseout"/>
                  </use>
                  <path fill="none" stroke="white" stroke-width="1.5" d="M0,-3.0v7 M-2.5,-0.5L0,-3.0L2.5,-0.5"/>
                </g>
                <g id="arrowDown" xlink:href="#dirArrow" transform="rotate(180) translate(-30 -48)" onmousedown="handlePan(0,1)">
                  <use xlink:href="#rim" fill="#404040">
                        <set attributeName="fill" to="#808080" begin="arrowDown.mouseover" end="arrowDown.mouseout"/>
                  </use>
                  <path fill="none" stroke="white" stroke-width="1.5" d="M0,-3.0v7 M-2.5,-0.5L0,-3.0L2.5,-0.5"/>
                </g>
                <g id="arrowLeft" xlink:href="#dirArrow" transform="rotate(270) translate(-36 17)" onmousedown="handlePan(-1,0)">
                  <use xlink:href="#rim" fill="#404040">
                        <set attributeName="fill" to="#808080" begin="arrowLeft.mouseover" end="arrowLeft.mouseout"/>
                  </use>
                  <path fill="none" stroke="white" stroke-width="1.5" d="M0,-3.0v7 M-2.5,-0.5L0,-3.0L2.5,-0.5"/>
                </g>
        </g>
        <svg viewBox="0 0 15 15" width="100%" height="30px" preserveAspectRatio="xMaxYMin meet">
         <g id="arrow_out" transform="scale(0.3 0.3)">
          <a xlink:href="parserManager_8h__incl_org.svg" target="_base">
           <rect id="button" ry="5" rx="5" y="6" x="6" height="38" width="38"
                fill="#f2f5e9" fill-opacity="0.5" stroke="#606060" stroke-width="1.0"/>
           <path id="arrow"
             d="M 11.500037,31.436501 C 11.940474,20.09759 22.043105,11.32322 32.158766,21.979434 L 37.068811,17.246167 C 37.068811,17.246167 37.088388,32 37.088388,32 L 22.160133,31.978069 C 22.160133,31.978069 26.997745,27.140456 26.997745,27.140456 C 18.528582,18.264221 13.291696,25.230495 11.500037,31.436501 z"
             style="fill:#404040;"/>
          </a>
         </g>
        </svg>
</svg>
