<?xml version="1.0" encoding="UTF-8" standalone="no"?>
<!DOCTYPE svg PUBLIC "-//W3C//DTD SVG 1.1//EN"
 "http://www.w3.org/Graphics/SVG/1.1/DTD/svg11.dtd">
<!-- Generated by graphviz version 2.43.0 (0)
 -->
<!-- Title: platforms.h Pages: 1 -->
<!--zoomable 532 -->
<svg id="main" version="1.1" xmlns="http://www.w3.org/2000/svg" xmlns:xlink="http://www.w3.org/1999/xlink" xml:space="preserve" onload="init(evt)">
<style type="text/css"><![CDATA[
.edge:hover path { stroke: red; }
.edge:hover polygon { stroke: red; fill: red; }
]]></style>
<script type="text/javascript"><![CDATA[
var edges = document.getElementsByTagName('g');
if (edges && edges.length) {
  for (var i=0;i<edges.length;i++) {
    if (edges[i].id.substr(0,4)=='edge') {
      edges[i].setAttribute('class','edge');
    }
  }
}
]]></script>
        <defs>
                <circle id="rim" cx="0" cy="0" r="7"/>
                <circle id="rim2" cx="0" cy="0" r="3.5"/>
                <g id="zoomPlus">
                        <use xlink:href="#rim" fill="#404040">
                                <set attributeName="fill" to="#808080" begin="zoomplus.mouseover" end="zoomplus.mouseout"/>
                        </use>
                        <path d="M-4,0h8M0,-4v8" fill="none" stroke="white" stroke-width="1.5" pointer-events="none"/>
                </g>
                <g id="zoomMin">
                        <use xlink:href="#rim" fill="#404040">
                                <set attributeName="fill" to="#808080" begin="zoomminus.mouseover" end="zoomminus.mouseout"/>
                        </use>
                        <path d="M-4,0h8" fill="none" stroke="white" stroke-width="1.5" pointer-events="none"/>
                </g>
                <g id="dirArrow">
                        <path fill="none" stroke="white" stroke-width="1.5" d="M0,-3.0v7 M-2.5,-0.5L0,-3.0L2.5,-0.5"/>
                </g>
               <g id="resetDef">
                       <use xlink:href="#rim2" fill="#404040">
                               <set attributeName="fill" to="#808080" begin="reset.mouseover" end="reset.mouseout"/>
                       </use>
               </g>
        </defs>

<script type="text/javascript">
var viewWidth = 1023;
var viewHeight = 532;
var sectionId = 'dynsection-1';
</script>
<script xlink:href="svgpan.js"/>
<svg id="graph" class="graph">
<g id="viewport">
<title>platforms.h</title>
<!-- Node1 -->
<g id="node1" class="node">
<title>Node1</title>
<g id="a_node1"><a xlink:title=" ">
<polygon fill="#bfbfbf" stroke="black" points="227.5,-504.5 227.5,-523.5 300.5,-523.5 300.5,-504.5 227.5,-504.5"/>
<text text-anchor="middle" x="264" y="-511.5" font-family="Helvetica,sans-Serif" font-size="10.00">platforms.h</text>
</a>
</g>
</g>
<!-- Node2 -->
<g id="node2" class="node">
<title>Node2</title>
<g id="a_node2"><a xlink:href="irioCoreCpp_8h.html" target="_top" xlink:title=" ">
<polygon fill="none" stroke="black" points="249.5,-168.5 249.5,-187.5 332.5,-187.5 332.5,-168.5 249.5,-168.5"/>
<text text-anchor="middle" x="291" y="-175.5" font-family="Helvetica,sans-Serif" font-size="10.00">irioCoreCpp.h</text>
</a>
</g>
</g>
<!-- Node1&#45;&gt;Node2 -->
<g id="edge1" class="edge">
<title>Node1&#45;&gt;Node2</title>
<path fill="none" stroke="midnightblue" d="M217.24,-510.55C151.06,-504.28 38,-482.01 38,-403 38,-403 38,-403 38,-289 38,-198 177.36,-181.48 249.22,-179.02"/>
<polygon fill="midnightblue" stroke="midnightblue" points="217.18,-514.06 227.44,-511.43 217.77,-507.08 217.18,-514.06"/>
</g>
<!-- Node3 -->
<g id="node3" class="node">
<title>Node3</title>
<g id="a_node3"><a xlink:href="profileCPUDAQ_8h.html" target="_top" xlink:title=" ">
<polygon fill="none" stroke="black" points="684,-112.5 684,-131.5 782,-131.5 782,-112.5 684,-112.5"/>
<text text-anchor="middle" x="733" y="-119.5" font-family="Helvetica,sans-Serif" font-size="10.00">profileCPUDAQ.h</text>
</a>
</g>
</g>
<!-- Node1&#45;&gt;Node3 -->
<g id="edge2" class="edge">
<title>Node1&#45;&gt;Node3</title>
<path fill="none" stroke="midnightblue" d="M311.01,-511.09C475.46,-503.81 1015,-474.48 1015,-403 1015,-403 1015,-403 1015,-233 1015,-183.4 861.7,-147.15 781.16,-131.52"/>
<polygon fill="midnightblue" stroke="midnightblue" points="310.57,-507.61 300.73,-511.54 310.87,-514.6 310.57,-507.61"/>
</g>
<!-- Node7 -->
<g id="node7" class="node">
<title>Node7</title>
<g id="a_node7"><a xlink:href="profileCPUIMAQ_8h.html" target="_top" xlink:title=" ">
<polygon fill="none" stroke="black" points="351.5,-112.5 351.5,-131.5 454.5,-131.5 454.5,-112.5 351.5,-112.5"/>
<text text-anchor="middle" x="403" y="-119.5" font-family="Helvetica,sans-Serif" font-size="10.00">profileCPUIMAQ.h</text>
</a>
</g>
</g>
<!-- Node1&#45;&gt;Node7 -->
<g id="edge7" class="edge">
<title>Node1&#45;&gt;Node7</title>
<path fill="none" stroke="midnightblue" d="M217.04,-513.58C141.16,-511.78 0,-495.95 0,-403 0,-403 0,-403 0,-233 0,-161.02 242.3,-134.53 351.14,-126.26"/>
<polygon fill="midnightblue" stroke="midnightblue" points="217.24,-517.08 227.29,-513.74 217.35,-510.08 217.24,-517.08"/>
</g>
<!-- Node9 -->
<g id="node9" class="node">
<title>Node9</title>
<g id="a_node9"><a xlink:href="terminalsBase_8h.html" target="_top" xlink:title=" ">
<polygon fill="none" stroke="black" points="467,-448.5 467,-467.5 563,-467.5 563,-448.5 467,-448.5"/>
<text text-anchor="middle" x="515" y="-455.5" font-family="Helvetica,sans-Serif" font-size="10.00">terminalsBase.h</text>
</a>
</g>
</g>
<!-- Node1&#45;&gt;Node9 -->
<g id="edge10" class="edge">
<title>Node1&#45;&gt;Node9</title>
<path fill="none" stroke="midnightblue" d="M310.76,-502.94C358.12,-492.75 430.56,-477.17 475.23,-467.56"/>
<polygon fill="midnightblue" stroke="midnightblue" points="309.81,-499.57 300.77,-505.09 311.28,-506.41 309.81,-499.57"/>
</g>
<!-- Node4 -->
<g id="node4" class="node">
<title>Node4</title>
<g id="a_node4"><a xlink:href="profileCPUDAQcRIO_8h.html" target="_top" xlink:title=" ">
<polygon fill="none" stroke="black" points="659.5,-56.5 659.5,-75.5 780.5,-75.5 780.5,-56.5 659.5,-56.5"/>
<text text-anchor="middle" x="720" y="-63.5" font-family="Helvetica,sans-Serif" font-size="10.00">profileCPUDAQcRIO.h</text>
</a>
</g>
</g>
<!-- Node3&#45;&gt;Node4 -->
<g id="edge3" class="edge">
<title>Node3&#45;&gt;Node4</title>
<path fill="none" stroke="midnightblue" d="M728.45,-102.1C726.29,-93.14 723.82,-82.86 722.11,-75.75"/>
<polygon fill="midnightblue" stroke="midnightblue" points="725.11,-103.18 730.85,-112.08 731.92,-101.54 725.11,-103.18"/>
</g>
<!-- Node6 -->
<g id="node6" class="node">
<title>Node6</title>
<g id="a_node6"><a xlink:href="profileCPUDAQFlexRIO_8h.html" target="_top" xlink:title=" ">
<polygon fill="none" stroke="black" points="504.5,-56.5 504.5,-75.5 641.5,-75.5 641.5,-56.5 504.5,-56.5"/>
<text text-anchor="middle" x="573" y="-63.5" font-family="Helvetica,sans-Serif" font-size="10.00">profileCPUDAQFlexRIO.h</text>
</a>
</g>
</g>
<!-- Node3&#45;&gt;Node6 -->
<g id="edge5" class="edge">
<title>Node3&#45;&gt;Node6</title>
<path fill="none" stroke="midnightblue" d="M697.95,-109.17C667.83,-99 625.1,-84.59 598.23,-75.52"/>
<polygon fill="midnightblue" stroke="midnightblue" points="697.05,-112.56 707.65,-112.44 699.29,-105.93 697.05,-112.56"/>
</g>
<!-- Node5 -->
<g id="node5" class="node">
<title>Node5</title>
<g id="a_node5"><a xlink:href="profiles_8h.html" target="_top" xlink:title=" ">
<polygon fill="none" stroke="black" points="542,-0.5 542,-19.5 604,-19.5 604,-0.5 542,-0.5"/>
<text text-anchor="middle" x="573" y="-7.5" font-family="Helvetica,sans-Serif" font-size="10.00">profiles.h</text>
</a>
</g>
</g>
<!-- Node4&#45;&gt;Node5 -->
<g id="edge4" class="edge">
<title>Node4&#45;&gt;Node5</title>
<path fill="none" stroke="midnightblue" d="M687.08,-52.91C659.44,-42.75 620.66,-28.51 596.18,-19.52"/>
<polygon fill="midnightblue" stroke="midnightblue" points="686.11,-56.28 696.71,-56.44 688.53,-49.71 686.11,-56.28"/>
</g>
<!-- Node6&#45;&gt;Node5 -->
<g id="edge6" class="edge">
<title>Node6&#45;&gt;Node5</title>
<path fill="none" stroke="midnightblue" d="M573,-45.8C573,-36.91 573,-26.78 573,-19.75"/>
<polygon fill="midnightblue" stroke="midnightblue" points="569.5,-46.08 573,-56.08 576.5,-46.08 569.5,-46.08"/>
</g>
<!-- Node8 -->
<g id="node8" class="node">
<title>Node8</title>
<g id="a_node8"><a xlink:href="profileCPUIMAQFlexRIO_8h.html" target="_top" xlink:title=" ">
<polygon fill="none" stroke="black" points="345.5,-56.5 345.5,-75.5 486.5,-75.5 486.5,-56.5 345.5,-56.5"/>
<text text-anchor="middle" x="416" y="-63.5" font-family="Helvetica,sans-Serif" font-size="10.00">profileCPUIMAQFlexRIO.h</text>
</a>
</g>
</g>
<!-- Node7&#45;&gt;Node8 -->
<g id="edge8" class="edge">
<title>Node7&#45;&gt;Node8</title>
<path fill="none" stroke="midnightblue" d="M407.55,-102.1C409.71,-93.14 412.18,-82.86 413.89,-75.75"/>
<polygon fill="midnightblue" stroke="midnightblue" points="404.08,-101.54 405.15,-112.08 410.89,-103.18 404.08,-101.54"/>
</g>
<!-- Node8&#45;&gt;Node5 -->
<g id="edge9" class="edge">
<title>Node8&#45;&gt;Node5</title>
<path fill="none" stroke="midnightblue" d="M450.39,-53.17C479.95,-43 521.87,-28.59 548.24,-19.52"/>
<polygon fill="midnightblue" stroke="midnightblue" points="449.2,-49.88 440.88,-56.44 451.47,-56.5 449.2,-49.88"/>
</g>
<!-- Node10 -->
<g id="node10" class="node">
<title>Node10</title>
<g id="a_node10"><a xlink:href="terminalsAnalog_8h.html" target="_top" xlink:title=" ">
<polygon fill="none" stroke="black" points="862,-336.5 862,-355.5 968,-355.5 968,-336.5 862,-336.5"/>
<text text-anchor="middle" x="915" y="-343.5" font-family="Helvetica,sans-Serif" font-size="10.00">terminalsAnalog.h</text>
</a>
</g>
</g>
<!-- Node9&#45;&gt;Node10 -->
<g id="edge11" class="edge">
<title>Node9&#45;&gt;Node10</title>
<path fill="none" stroke="midnightblue" d="M573.46,-455.34C687.92,-451.48 932.68,-440.02 958,-412 974.51,-393.73 945.81,-368.58 927.84,-355.57"/>
<polygon fill="midnightblue" stroke="midnightblue" points="573.01,-451.85 563.13,-455.68 573.24,-458.85 573.01,-451.85"/>
</g>
<!-- Node15 -->
<g id="node15" class="node">
<title>Node15</title>
<g id="a_node15"><a xlink:href="terminalsAuxAnalog_8h.html" target="_top" xlink:title=" ">
<polygon fill="none" stroke="black" points="66.5,-280.5 66.5,-299.5 191.5,-299.5 191.5,-280.5 66.5,-280.5"/>
<text text-anchor="middle" x="129" y="-287.5" font-family="Helvetica,sans-Serif" font-size="10.00">terminalsAuxAnalog.h</text>
</a>
</g>
</g>
<!-- Node9&#45;&gt;Node15 -->
<g id="edge22" class="edge">
<title>Node9&#45;&gt;Node15</title>
<path fill="none" stroke="midnightblue" d="M456.31,-455.46C379.93,-450.38 246.62,-430.55 165,-356 147.47,-339.99 136.54,-313.42 131.78,-299.73"/>
<polygon fill="midnightblue" stroke="midnightblue" points="456.51,-458.98 466.7,-456.09 456.92,-451.99 456.51,-458.98"/>
</g>
<!-- Node16 -->
<g id="node16" class="node">
<title>Node16</title>
<g id="a_node16"><a xlink:href="terminalsAuxDigital_8h.html" target="_top" xlink:title=" ">
<polygon fill="none" stroke="black" points="450.5,-336.5 450.5,-355.5 573.5,-355.5 573.5,-336.5 450.5,-336.5"/>
<text text-anchor="middle" x="512" y="-343.5" font-family="Helvetica,sans-Serif" font-size="10.00">terminalsAuxDigital.h</text>
</a>
</g>
</g>
<!-- Node9&#45;&gt;Node16 -->
<g id="edge24" class="edge">
<title>Node9&#45;&gt;Node16</title>
<path fill="none" stroke="midnightblue" d="M507.95,-438.74C505.19,-430.67 502.37,-421 501,-412 497.94,-391.86 504.45,-368.3 508.71,-355.82"/>
<polygon fill="midnightblue" stroke="midnightblue" points="504.69,-440.02 511.4,-448.22 511.27,-437.63 504.69,-440.02"/>
</g>
<!-- Node17 -->
<g id="node17" class="node">
<title>Node17</title>
<g id="a_node17"><a xlink:href="terminalsCRIO_8h.html" target="_top" xlink:title=" ">
<polygon fill="none" stroke="black" points="563,-280.5 563,-299.5 659,-299.5 659,-280.5 563,-280.5"/>
<text text-anchor="middle" x="611" y="-287.5" font-family="Helvetica,sans-Serif" font-size="10.00">terminalsCRIO.h</text>
</a>
</g>
</g>
<!-- Node9&#45;&gt;Node17 -->
<g id="edge26" class="edge">
<title>Node9&#45;&gt;Node17</title>
<path fill="none" stroke="midnightblue" d="M517.28,-438.03C519.67,-424.27 524.48,-405.74 534,-392 549.19,-370.08 565.37,-376.84 582,-356 596.03,-338.42 604.77,-312.98 608.65,-299.75"/>
<polygon fill="midnightblue" stroke="midnightblue" points="513.77,-437.85 515.79,-448.26 520.7,-438.87 513.77,-437.85"/>
</g>
<!-- Node18 -->
<g id="node18" class="node">
<title>Node18</title>
<g id="a_node18"><a xlink:href="terminalsDigital_8h.html" target="_top" xlink:title=" ">
<polygon fill="none" stroke="black" points="543,-392.5 543,-411.5 647,-411.5 647,-392.5 543,-392.5"/>
<text text-anchor="middle" x="595" y="-399.5" font-family="Helvetica,sans-Serif" font-size="10.00">terminalsDigital.h</text>
</a>
</g>
</g>
<!-- Node9&#45;&gt;Node18 -->
<g id="edge28" class="edge">
<title>Node9&#45;&gt;Node18</title>
<path fill="none" stroke="midnightblue" d="M536.3,-442.62C550.92,-432.76 569.83,-419.99 582.18,-411.65"/>
<polygon fill="midnightblue" stroke="midnightblue" points="534.18,-439.83 527.85,-448.32 538.1,-445.63 534.18,-439.83"/>
</g>
<!-- Node19 -->
<g id="node19" class="node">
<title>Node19</title>
<g id="a_node19"><a xlink:href="terminalsDMACommon_8h.html" target="_top" xlink:title=" ">
<polygon fill="none" stroke="black" points="301,-392.5 301,-411.5 441,-411.5 441,-392.5 301,-392.5"/>
<text text-anchor="middle" x="371" y="-399.5" font-family="Helvetica,sans-Serif" font-size="10.00">terminalsDMACommon.h</text>
</a>
</g>
</g>
<!-- Node9&#45;&gt;Node19 -->
<g id="edge30" class="edge">
<title>Node9&#45;&gt;Node19</title>
<path fill="none" stroke="midnightblue" d="M482.75,-444.91C455.68,-434.75 417.68,-420.51 393.71,-411.52"/>
<polygon fill="midnightblue" stroke="midnightblue" points="481.59,-448.21 492.18,-448.44 484.05,-441.66 481.59,-448.21"/>
</g>
<!-- Node24 -->
<g id="node24" class="node">
<title>Node24</title>
<g id="a_node24"><a xlink:href="terminalsFlexRIO_8h.html" target="_top" xlink:title=" ">
<polygon fill="none" stroke="black" points="665,-392.5 665,-411.5 775,-411.5 775,-392.5 665,-392.5"/>
<text text-anchor="middle" x="720" y="-399.5" font-family="Helvetica,sans-Serif" font-size="10.00">terminalsFlexRIO.h</text>
</a>
</g>
</g>
<!-- Node9&#45;&gt;Node24 -->
<g id="edge37" class="edge">
<title>Node9&#45;&gt;Node24</title>
<path fill="none" stroke="midnightblue" d="M557.41,-445.83C596.11,-435.63 652.49,-420.78 687.67,-411.52"/>
<polygon fill="midnightblue" stroke="midnightblue" points="556.26,-442.51 547.48,-448.44 558.04,-449.28 556.26,-442.51"/>
</g>
<!-- Node25 -->
<g id="node25" class="node">
<title>Node25</title>
<g id="a_node25"><a xlink:href="terminalsSignalGeneration_8h.html" target="_top" xlink:title=" ">
<polygon fill="none" stroke="black" points="793,-392.5 793,-411.5 949,-411.5 949,-392.5 793,-392.5"/>
<text text-anchor="middle" x="871" y="-399.5" font-family="Helvetica,sans-Serif" font-size="10.00">terminalsSignalGeneration.h</text>
</a>
</g>
</g>
<!-- Node9&#45;&gt;Node25 -->
<g id="edge39" class="edge">
<title>Node9&#45;&gt;Node25</title>
<path fill="none" stroke="midnightblue" d="M572.95,-448.21C639.69,-438.09 748.62,-421.56 814.67,-411.54"/>
<polygon fill="midnightblue" stroke="midnightblue" points="572.37,-444.76 563.01,-449.72 573.42,-451.68 572.37,-444.76"/>
</g>
<!-- Node11 -->
<g id="node11" class="node">
<title>Node11</title>
<g id="a_node11"><a xlink:href="terminals_8h.html" target="_top" xlink:title=" ">
<polygon fill="none" stroke="black" points="537,-224.5 537,-243.5 609,-243.5 609,-224.5 537,-224.5"/>
<text text-anchor="middle" x="573" y="-231.5" font-family="Helvetica,sans-Serif" font-size="10.00">terminals.h</text>
</a>
</g>
</g>
<!-- Node10&#45;&gt;Node11 -->
<g id="edge12" class="edge">
<title>Node10&#45;&gt;Node11</title>
<path fill="none" stroke="midnightblue" d="M895.82,-330.26C875.41,-315.3 841.62,-292.62 809,-280 741.32,-253.81 656.61,-242.43 609.3,-237.83"/>
<polygon fill="midnightblue" stroke="midnightblue" points="893.85,-333.15 903.96,-336.33 898.04,-327.54 893.85,-333.15"/>
</g>
<!-- Node11&#45;&gt;Node2 -->
<g id="edge13" class="edge">
<title>Node11&#45;&gt;Node2</title>
<path fill="none" stroke="midnightblue" d="M527.04,-224.2C473.18,-213.88 384.71,-196.94 332.74,-186.99"/>
<polygon fill="midnightblue" stroke="midnightblue" points="526.52,-227.66 537,-226.11 527.83,-220.79 526.52,-227.66"/>
</g>
<!-- Node12 -->
<g id="node12" class="node">
<title>Node12</title>
<g id="a_node12"><a xlink:href="profileBase_8h.html" target="_top" xlink:title=" ">
<polygon fill="none" stroke="black" points="533,-168.5 533,-187.5 613,-187.5 613,-168.5 533,-168.5"/>
<text text-anchor="middle" x="573" y="-175.5" font-family="Helvetica,sans-Serif" font-size="10.00">profileBase.h</text>
</a>
</g>
</g>
<!-- Node11&#45;&gt;Node12 -->
<g id="edge14" class="edge">
<title>Node11&#45;&gt;Node12</title>
<path fill="none" stroke="midnightblue" d="M573,-213.8C573,-204.91 573,-194.78 573,-187.75"/>
<polygon fill="midnightblue" stroke="midnightblue" points="569.5,-214.08 573,-224.08 576.5,-214.08 569.5,-214.08"/>
</g>
<!-- Node12&#45;&gt;Node3 -->
<g id="edge15" class="edge">
<title>Node12&#45;&gt;Node3</title>
<path fill="none" stroke="midnightblue" d="M608.05,-165.17C638.17,-155 680.9,-140.59 707.77,-131.52"/>
<polygon fill="midnightblue" stroke="midnightblue" points="606.71,-161.93 598.35,-168.44 608.95,-168.56 606.71,-161.93"/>
</g>
<!-- Node12&#45;&gt;Node7 -->
<g id="edge16" class="edge">
<title>Node12&#45;&gt;Node7</title>
<path fill="none" stroke="midnightblue" d="M536.18,-165.3C504.15,-155.13 458.48,-140.62 429.81,-131.52"/>
<polygon fill="midnightblue" stroke="midnightblue" points="535.47,-168.75 546.06,-168.44 537.59,-162.08 535.47,-168.75"/>
</g>
<!-- Node13 -->
<g id="node13" class="node">
<title>Node13</title>
<g id="a_node13"><a xlink:href="profileCRIO_8h.html" target="_top" xlink:title=" ">
<polygon fill="none" stroke="black" points="586,-112.5 586,-131.5 666,-131.5 666,-112.5 586,-112.5"/>
<text text-anchor="middle" x="626" y="-119.5" font-family="Helvetica,sans-Serif" font-size="10.00">profileCRIO.h</text>
</a>
</g>
</g>
<!-- Node12&#45;&gt;Node13 -->
<g id="edge17" class="edge">
<title>Node12&#45;&gt;Node13</title>
<path fill="none" stroke="midnightblue" d="M588.98,-160.72C598.32,-151.2 609.75,-139.56 617.41,-131.75"/>
<polygon fill="midnightblue" stroke="midnightblue" points="586.26,-158.49 581.75,-168.08 591.25,-163.4 586.26,-158.49"/>
</g>
<!-- Node14 -->
<g id="node14" class="node">
<title>Node14</title>
<g id="a_node14"><a xlink:href="profileFlexRIO_8h.html" target="_top" xlink:title=" ">
<polygon fill="none" stroke="black" points="472.5,-112.5 472.5,-131.5 567.5,-131.5 567.5,-112.5 472.5,-112.5"/>
<text text-anchor="middle" x="520" y="-119.5" font-family="Helvetica,sans-Serif" font-size="10.00">profileFlexRIO.h</text>
</a>
</g>
</g>
<!-- Node12&#45;&gt;Node14 -->
<g id="edge19" class="edge">
<title>Node12&#45;&gt;Node14</title>
<path fill="none" stroke="midnightblue" d="M557.02,-160.72C547.68,-151.2 536.25,-139.56 528.59,-131.75"/>
<polygon fill="midnightblue" stroke="midnightblue" points="554.75,-163.4 564.25,-168.08 559.74,-158.49 554.75,-163.4"/>
</g>
<!-- Node13&#45;&gt;Node4 -->
<g id="edge18" class="edge">
<title>Node13&#45;&gt;Node4</title>
<path fill="none" stroke="midnightblue" d="M650.06,-107.18C667.36,-97.24 690.15,-84.15 704.93,-75.65"/>
<polygon fill="midnightblue" stroke="midnightblue" points="648.03,-104.31 641.1,-112.32 651.52,-110.38 648.03,-104.31"/>
</g>
<!-- Node14&#45;&gt;Node6 -->
<g id="edge20" class="edge">
<title>Node14&#45;&gt;Node6</title>
<path fill="none" stroke="midnightblue" d="M535.98,-104.72C545.32,-95.2 556.75,-83.56 564.41,-75.75"/>
<polygon fill="midnightblue" stroke="midnightblue" points="533.26,-102.49 528.75,-112.08 538.25,-107.4 533.26,-102.49"/>
</g>
<!-- Node14&#45;&gt;Node8 -->
<g id="edge21" class="edge">
<title>Node14&#45;&gt;Node8</title>
<path fill="none" stroke="midnightblue" d="M494.17,-107.59C474.94,-97.61 449.26,-84.27 432.67,-75.65"/>
<polygon fill="midnightblue" stroke="midnightblue" points="492.8,-110.82 503.29,-112.32 496.03,-104.61 492.8,-110.82"/>
</g>
<!-- Node15&#45;&gt;Node11 -->
<g id="edge23" class="edge">
<title>Node15&#45;&gt;Node11</title>
<path fill="none" stroke="midnightblue" d="M201.79,-279.78C331.04,-263.82 472.11,-246.98 536.98,-239.27"/>
<polygon fill="midnightblue" stroke="midnightblue" points="201.21,-276.33 191.72,-281.03 202.07,-283.28 201.21,-276.33"/>
</g>
<!-- Node16&#45;&gt;Node11 -->
<g id="edge25" class="edge">
<title>Node16&#45;&gt;Node11</title>
<path fill="none" stroke="midnightblue" d="M521.8,-327.32C535.09,-303.37 558.28,-261.55 568.24,-243.59"/>
<polygon fill="midnightblue" stroke="midnightblue" points="518.58,-325.93 516.79,-336.37 524.7,-329.32 518.58,-325.93"/>
</g>
<!-- Node17&#45;&gt;Node11 -->
<g id="edge27" class="edge">
<title>Node17&#45;&gt;Node11</title>
<path fill="none" stroke="midnightblue" d="M598.94,-271.86C592.36,-262.5 584.49,-251.33 579.16,-243.75"/>
<polygon fill="midnightblue" stroke="midnightblue" points="596.11,-273.92 604.73,-280.08 601.83,-269.89 596.11,-273.92"/>
</g>
<!-- Node18&#45;&gt;Node11 -->
<g id="edge29" class="edge">
<title>Node18&#45;&gt;Node11</title>
<path fill="none" stroke="midnightblue" d="M615.31,-386.33C644.42,-363.44 692,-317.93 668,-280 655.12,-259.64 630.26,-248.32 609.21,-242.12"/>
<polygon fill="midnightblue" stroke="midnightblue" points="613.15,-383.57 607.31,-392.41 617.39,-389.14 613.15,-383.57"/>
</g>
<!-- Node20 -->
<g id="node20" class="node">
<title>Node20</title>
<g id="a_node20"><a xlink:href="terminalsDMADAQ_8h.html" target="_top" xlink:title=" ">
<polygon fill="none" stroke="black" points="174.5,-336.5 174.5,-355.5 291.5,-355.5 291.5,-336.5 174.5,-336.5"/>
<text text-anchor="middle" x="233" y="-343.5" font-family="Helvetica,sans-Serif" font-size="10.00">terminalsDMADAQ.h</text>
</a>
</g>
</g>
<!-- Node19&#45;&gt;Node20 -->
<g id="edge31" class="edge">
<title>Node19&#45;&gt;Node20</title>
<path fill="none" stroke="midnightblue" d="M339.75,-388.77C313.83,-378.63 277.64,-364.47 254.76,-355.52"/>
<polygon fill="midnightblue" stroke="midnightblue" points="338.55,-392.06 349.13,-392.44 341.1,-385.54 338.55,-392.06"/>
</g>
<!-- Node22 -->
<g id="node22" class="node">
<title>Node22</title>
<g id="a_node22"><a xlink:href="terminalsDMAIMAQ_8h.html" target="_top" xlink:title=" ">
<polygon fill="none" stroke="black" points="310,-336.5 310,-355.5 432,-355.5 432,-336.5 310,-336.5"/>
<text text-anchor="middle" x="371" y="-343.5" font-family="Helvetica,sans-Serif" font-size="10.00">terminalsDMAIMAQ.h</text>
</a>
</g>
</g>
<!-- Node19&#45;&gt;Node22 -->
<g id="edge34" class="edge">
<title>Node19&#45;&gt;Node22</title>
<path fill="none" stroke="midnightblue" d="M371,-381.8C371,-372.91 371,-362.78 371,-355.75"/>
<polygon fill="midnightblue" stroke="midnightblue" points="367.5,-382.08 371,-392.08 374.5,-382.08 367.5,-382.08"/>
</g>
<!-- Node21 -->
<g id="node21" class="node">
<title>Node21</title>
<g id="a_node21"><a xlink:href="terminalsDMADAQCPU_8h.html" target="_top" xlink:title=" ">
<polygon fill="none" stroke="black" points="209.5,-280.5 209.5,-299.5 346.5,-299.5 346.5,-280.5 209.5,-280.5"/>
<text text-anchor="middle" x="278" y="-287.5" font-family="Helvetica,sans-Serif" font-size="10.00">terminalsDMADAQCPU.h</text>
</a>
</g>
</g>
<!-- Node20&#45;&gt;Node21 -->
<g id="edge32" class="edge">
<title>Node20&#45;&gt;Node21</title>
<path fill="none" stroke="midnightblue" d="M247.05,-328.14C254.89,-318.74 264.33,-307.4 270.71,-299.75"/>
<polygon fill="midnightblue" stroke="midnightblue" points="244.14,-326.16 240.43,-336.08 249.52,-330.64 244.14,-326.16"/>
</g>
<!-- Node21&#45;&gt;Node11 -->
<g id="edge33" class="edge">
<title>Node21&#45;&gt;Node11</title>
<path fill="none" stroke="midnightblue" d="M334.75,-278.61C394.33,-267.71 486.23,-250.88 536.7,-241.64"/>
<polygon fill="midnightblue" stroke="midnightblue" points="333.95,-275.2 324.74,-280.44 335.21,-282.09 333.95,-275.2"/>
</g>
<!-- Node23 -->
<g id="node23" class="node">
<title>Node23</title>
<g id="a_node23"><a xlink:href="terminalsDMAIMAQCPU_8h.html" target="_top" xlink:title=" ">
<polygon fill="none" stroke="black" points="365,-280.5 365,-299.5 507,-299.5 507,-280.5 365,-280.5"/>
<text text-anchor="middle" x="436" y="-287.5" font-family="Helvetica,sans-Serif" font-size="10.00">terminalsDMAIMAQCPU.h</text>
</a>
</g>
</g>
<!-- Node22&#45;&gt;Node23 -->
<g id="edge35" class="edge">
<title>Node22&#45;&gt;Node23</title>
<path fill="none" stroke="midnightblue" d="M389.27,-329.82C400.92,-320.15 415.6,-307.95 425.37,-299.83"/>
<polygon fill="midnightblue" stroke="midnightblue" points="386.9,-327.24 381.44,-336.32 391.37,-332.63 386.9,-327.24"/>
</g>
<!-- Node23&#45;&gt;Node11 -->
<g id="edge36" class="edge">
<title>Node23&#45;&gt;Node11</title>
<path fill="none" stroke="midnightblue" d="M467.02,-276.77C492.76,-266.63 528.69,-252.47 551.39,-243.52"/>
<polygon fill="midnightblue" stroke="midnightblue" points="465.73,-273.52 457.71,-280.44 468.29,-280.03 465.73,-273.52"/>
</g>
<!-- Node24&#45;&gt;Node11 -->
<g id="edge38" class="edge">
<title>Node24&#45;&gt;Node11</title>
<path fill="none" stroke="midnightblue" d="M719.7,-382.44C718.31,-356.4 712.07,-308.96 686,-280 666.15,-257.95 634.05,-246.55 609.13,-240.75"/>
<polygon fill="midnightblue" stroke="midnightblue" points="716.21,-382.59 720.05,-392.47 723.2,-382.35 716.21,-382.59"/>
</g>
<!-- Node25&#45;&gt;Node11 -->
<g id="edge40" class="edge">
<title>Node25&#45;&gt;Node11</title>
<path fill="none" stroke="midnightblue" d="M853.91,-385.53C825.36,-360.37 765.31,-310.34 707,-280 675.11,-263.4 635.83,-251.07 608.07,-243.55"/>
<polygon fill="midnightblue" stroke="midnightblue" points="851.93,-388.45 861.73,-392.49 856.59,-383.23 851.93,-388.45"/>
</g>
</g>
</svg>
        <g id="navigator" transform="translate(0 0)" fill="#404254">
                <rect fill="#f2f5e9" fill-opacity="0.5" stroke="#606060" stroke-width=".5" x="0" y="0" width="60" height="60"/>
                <use id="zoomplus" xlink:href="#zoomPlus" x="17" y="9" onmousedown="handleZoom(evt,'in')"/>
                <use id="zoomminus" xlink:href="#zoomMin" x="42" y="9" onmousedown="handleZoom(evt,'out')"/>
                <use id="reset" xlink:href="#resetDef" x="30" y="36" onmousedown="handleReset()"/>
                <g id="arrowUp" xlink:href="#dirArrow" transform="translate(30 24)" onmousedown="handlePan(0,-1)">
                  <use xlink:href="#rim" fill="#404040">
                        <set attributeName="fill" to="#808080" begin="arrowUp.mouseover" end="arrowUp.mouseout"/>
                  </use>
                  <path fill="none" stroke="white" stroke-width="1.5" d="M0,-3.0v7 M-2.5,-0.5L0,-3.0L2.5,-0.5"/>
                </g>
                <g id="arrowRight" xlink:href="#dirArrow" transform="rotate(90) translate(36 -43)" onmousedown="handlePan(1,0)">
                  <use xlink:href="#rim" fill="#404040">
                        <set attributeName="fill" to="#808080" begin="arrowRight.mouseover" end="arrowRight.mouseout"/>
                  </use>
                  <path fill="none" stroke="white" stroke-width="1.5" d="M0,-3.0v7 M-2.5,-0.5L0,-3.0L2.5,-0.5"/>
                </g>
                <g id="arrowDown" xlink:href="#dirArrow" transform="rotate(180) translate(-30 -48)" onmousedown="handlePan(0,1)">
                  <use xlink:href="#rim" fill="#404040">
                        <set attributeName="fill" to="#808080" begin="arrowDown.mouseover" end="arrowDown.mouseout"/>
                  </use>
                  <path fill="none" stroke="white" stroke-width="1.5" d="M0,-3.0v7 M-2.5,-0.5L0,-3.0L2.5,-0.5"/>
                </g>
                <g id="arrowLeft" xlink:href="#dirArrow" transform="rotate(270) translate(-36 17)" onmousedown="handlePan(-1,0)">
                  <use xlink:href="#rim" fill="#404040">
                        <set attributeName="fill" to="#808080" begin="arrowLeft.mouseover" end="arrowLeft.mouseout"/>
                  </use>
                  <path fill="none" stroke="white" stroke-width="1.5" d="M0,-3.0v7 M-2.5,-0.5L0,-3.0L2.5,-0.5"/>
                </g>
        </g>
        <svg viewBox="0 0 15 15" width="100%" height="30px" preserveAspectRatio="xMaxYMin meet">
         <g id="arrow_out" transform="scale(0.3 0.3)">
          <a xlink:href="platforms_8h__dep__incl_org.svg" target="_base">
           <rect id="button" ry="5" rx="5" y="6" x="6" height="38" width="38"
                fill="#f2f5e9" fill-opacity="0.5" stroke="#606060" stroke-width="1.0"/>
           <path id="arrow"
             d="M 11.500037,31.436501 C 11.940474,20.09759 22.043105,11.32322 32.158766,21.979434 L 37.068811,17.246167 C 37.068811,17.246167 37.088388,32 37.088388,32 L 22.160133,31.978069 C 22.160133,31.978069 26.997745,27.140456 26.997745,27.140456 C 18.528582,18.264221 13.291696,25.230495 11.500037,31.436501 z"
             style="fill:#404040;"/>
          </a>
         </g>
        </svg>
</svg>
