<?xml version="1.0" encoding="UTF-8" standalone="no"?>
<!DOCTYPE svg PUBLIC "-//W3C//DTD SVG 1.1//EN"
 "http://www.w3.org/Graphics/SVG/1.1/DTD/svg11.dtd">
<!-- Generated by graphviz version 2.43.0 (0)
 -->
<!-- Title: profileBase.h Pages: 1 -->
<svg width="1535pt" height="431pt"
 viewBox="0.00 0.00 1535.00 431.00" xmlns="http://www.w3.org/2000/svg" xmlns:xlink="http://www.w3.org/1999/xlink">
<g id="graph0" class="graph" transform="scale(1 1) rotate(0) translate(4 427)">
<title>profileBase.h</title>
<!-- Node1 -->
<g id="node1" class="node">
<title>Node1</title>
<g id="a_node1"><a xlink:title=" ">
<polygon fill="#bfbfbf" stroke="black" points="822.5,-403.5 822.5,-422.5 902.5,-422.5 902.5,-403.5 822.5,-403.5"/>
<text text-anchor="middle" x="862.5" y="-410.5" font-family="Helvetica,sans-Serif" font-size="10.00">profileBase.h</text>
</a>
</g>
</g>
<!-- Node2 -->
<g id="node2" class="node">
<title>Node2</title>
<g id="a_node2"><a xlink:title=" ">
<polygon fill="none" stroke="#bfbfbf" points="58,-347.5 58,-366.5 123,-366.5 123,-347.5 58,-347.5"/>
<text text-anchor="middle" x="90.5" y="-354.5" font-family="Helvetica,sans-Serif" font-size="10.00">typeindex</text>
</a>
</g>
</g>
<!-- Node1&#45;&gt;Node2 -->
<g id="edge1" class="edge">
<title>Node1&#45;&gt;Node2</title>
<path fill="none" stroke="midnightblue" d="M822.25,-411.3C712.19,-408.98 397.12,-399.78 137.5,-367 136.03,-366.81 134.54,-366.61 133.04,-366.39"/>
<polygon fill="midnightblue" stroke="midnightblue" points="133.46,-362.92 123.03,-364.78 132.35,-369.83 133.46,-362.92"/>
</g>
<!-- Node3 -->
<g id="node3" class="node">
<title>Node3</title>
<g id="a_node3"><a xlink:title=" ">
<polygon fill="none" stroke="#bfbfbf" points="0,-174 0,-193 93,-193 93,-174 0,-174"/>
<text text-anchor="middle" x="46.5" y="-181" font-family="Helvetica,sans-Serif" font-size="10.00">unordered_map</text>
</a>
</g>
</g>
<!-- Node1&#45;&gt;Node3 -->
<g id="edge2" class="edge">
<title>Node1&#45;&gt;Node3</title>
<path fill="none" stroke="midnightblue" d="M822.46,-408.98C695.54,-398.96 303.79,-364.33 189.5,-311 133.12,-284.69 82.55,-228.96 59.57,-201.1"/>
<polygon fill="midnightblue" stroke="midnightblue" points="62.12,-198.68 53.11,-193.1 56.67,-203.08 62.12,-198.68"/>
</g>
<!-- Node4 -->
<g id="node4" class="node">
<title>Node4</title>
<g id="a_node4"><a xlink:title=" ">
<polygon fill="none" stroke="#bfbfbf" points="1329.5,-56.5 1329.5,-75.5 1387.5,-75.5 1387.5,-56.5 1329.5,-56.5"/>
<text text-anchor="middle" x="1358.5" y="-63.5" font-family="Helvetica,sans-Serif" font-size="10.00">memory</text>
</a>
</g>
</g>
<!-- Node1&#45;&gt;Node4 -->
<g id="edge3" class="edge">
<title>Node1&#45;&gt;Node4</title>
<path fill="none" stroke="midnightblue" d="M902.79,-409.07C1039.38,-398.59 1476.5,-360.48 1476.5,-302 1476.5,-302 1476.5,-302 1476.5,-182.5 1476.5,-133.11 1423.05,-97.88 1388.09,-80.13"/>
<polygon fill="midnightblue" stroke="midnightblue" points="1389.31,-76.82 1378.78,-75.58 1386.24,-83.12 1389.31,-76.82"/>
</g>
<!-- Node5 -->
<g id="node5" class="node">
<title>Node5</title>
<g id="a_node5"><a xlink:href="terminals_8h.html" target="_top" xlink:title=" ">
<polygon fill="none" stroke="black" points="801.5,-347.5 801.5,-366.5 923.5,-366.5 923.5,-347.5 801.5,-347.5"/>
<text text-anchor="middle" x="862.5" y="-354.5" font-family="Helvetica,sans-Serif" font-size="10.00">terminals/terminals.h</text>
</a>
</g>
</g>
<!-- Node1&#45;&gt;Node5 -->
<g id="edge4" class="edge">
<title>Node1&#45;&gt;Node5</title>
<path fill="none" stroke="midnightblue" d="M862.5,-403.08C862.5,-396.01 862.5,-385.86 862.5,-376.99"/>
<polygon fill="midnightblue" stroke="midnightblue" points="866,-376.75 862.5,-366.75 859,-376.75 866,-376.75"/>
</g>
<!-- Node31 -->
<g id="node31" class="node">
<title>Node31</title>
<g id="a_node31"><a xlink:href="profilesTypes_8h.html" target="_top" xlink:title=" ">
<polygon fill="none" stroke="black" points="1438,-56.5 1438,-75.5 1527,-75.5 1527,-56.5 1438,-56.5"/>
<text text-anchor="middle" x="1482.5" y="-63.5" font-family="Helvetica,sans-Serif" font-size="10.00">profilesTypes.h</text>
</a>
</g>
</g>
<!-- Node1&#45;&gt;Node31 -->
<g id="edge48" class="edge">
<title>Node1&#45;&gt;Node31</title>
<path fill="none" stroke="midnightblue" d="M902.71,-412.02C986.57,-411.26 1185.78,-405.18 1347.5,-367 1425.02,-348.7 1514.5,-381.65 1514.5,-302 1514.5,-302 1514.5,-302 1514.5,-182.5 1514.5,-146.93 1500.23,-107.37 1490.75,-85"/>
<polygon fill="midnightblue" stroke="midnightblue" points="1493.91,-83.5 1486.68,-75.76 1487.51,-86.32 1493.91,-83.5"/>
</g>
<!-- Node6 -->
<g id="node6" class="node">
<title>Node6</title>
<g id="a_node6"><a xlink:href="terminalsAnalog_8h.html" target="_top" xlink:title=" ">
<polygon fill="none" stroke="black" points="198,-291.5 198,-310.5 353,-310.5 353,-291.5 198,-291.5"/>
<text text-anchor="middle" x="275.5" y="-298.5" font-family="Helvetica,sans-Serif" font-size="10.00">terminals/terminalsAnalog.h</text>
</a>
</g>
</g>
<!-- Node5&#45;&gt;Node6 -->
<g id="edge5" class="edge">
<title>Node5&#45;&gt;Node6</title>
<path fill="none" stroke="midnightblue" d="M801.34,-350.37C696.91,-340.77 483.85,-321.17 363.46,-310.09"/>
<polygon fill="midnightblue" stroke="midnightblue" points="363.45,-306.58 353.17,-309.15 362.81,-313.55 363.45,-306.58"/>
</g>
<!-- Node18 -->
<g id="node18" class="node">
<title>Node18</title>
<g id="a_node18"><a xlink:href="terminalsDigital_8h.html" target="_top" xlink:title=" ">
<polygon fill="none" stroke="black" points="495.5,-235.5 495.5,-254.5 649.5,-254.5 649.5,-235.5 495.5,-235.5"/>
<text text-anchor="middle" x="572.5" y="-242.5" font-family="Helvetica,sans-Serif" font-size="10.00">terminals/terminalsDigital.h</text>
</a>
</g>
</g>
<!-- Node5&#45;&gt;Node18 -->
<g id="edge19" class="edge">
<title>Node5&#45;&gt;Node18</title>
<path fill="none" stroke="midnightblue" d="M801.48,-354.35C728.48,-351.03 612.34,-341.04 582.5,-311 570.69,-299.11 569.14,-279.49 569.96,-264.91"/>
<polygon fill="midnightblue" stroke="midnightblue" points="573.48,-264.84 570.98,-254.54 566.52,-264.15 573.48,-264.84"/>
</g>
<!-- Node19 -->
<g id="node19" class="node">
<title>Node19</title>
<g id="a_node19"><a xlink:href="terminalsAuxAnalog_8h.html" target="_top" xlink:title=" ">
<polygon fill="none" stroke="black" points="303.5,-235.5 303.5,-254.5 477.5,-254.5 477.5,-235.5 303.5,-235.5"/>
<text text-anchor="middle" x="390.5" y="-242.5" font-family="Helvetica,sans-Serif" font-size="10.00">terminals/terminalsAuxAnalog.h</text>
</a>
</g>
</g>
<!-- Node5&#45;&gt;Node19 -->
<g id="edge21" class="edge">
<title>Node5&#45;&gt;Node19</title>
<path fill="none" stroke="midnightblue" d="M801.33,-350.29C741.16,-343.83 647.03,-331.45 567.5,-311 513.83,-297.2 453.74,-273.23 419.19,-258.57"/>
<polygon fill="midnightblue" stroke="midnightblue" points="420.31,-255.24 409.74,-254.52 417.55,-261.68 420.31,-255.24"/>
</g>
<!-- Node20 -->
<g id="node20" class="node">
<title>Node20</title>
<g id="a_node20"><a xlink:href="terminalsAuxDigital_8h.html" target="_top" xlink:title=" ">
<polygon fill="none" stroke="black" points="591,-291.5 591,-310.5 764,-310.5 764,-291.5 591,-291.5"/>
<text text-anchor="middle" x="677.5" y="-298.5" font-family="Helvetica,sans-Serif" font-size="10.00">terminals/terminalsAuxDigital.h</text>
</a>
</g>
</g>
<!-- Node5&#45;&gt;Node20 -->
<g id="edge23" class="edge">
<title>Node5&#45;&gt;Node20</title>
<path fill="none" stroke="midnightblue" d="M833.19,-347.44C801.66,-338.24 751.37,-323.56 716.51,-313.39"/>
<polygon fill="midnightblue" stroke="midnightblue" points="717.26,-309.96 706.68,-310.52 715.3,-316.68 717.26,-309.96"/>
</g>
<!-- Node21 -->
<g id="node21" class="node">
<title>Node21</title>
<g id="a_node21"><a xlink:href="terminalsFlexRIO_8h.html" target="_top" xlink:title=" ">
<polygon fill="none" stroke="black" points="782.5,-291.5 782.5,-310.5 942.5,-310.5 942.5,-291.5 782.5,-291.5"/>
<text text-anchor="middle" x="862.5" y="-298.5" font-family="Helvetica,sans-Serif" font-size="10.00">terminals/terminalsFlexRIO.h</text>
</a>
</g>
</g>
<!-- Node5&#45;&gt;Node21 -->
<g id="edge25" class="edge">
<title>Node5&#45;&gt;Node21</title>
<path fill="none" stroke="midnightblue" d="M862.5,-347.08C862.5,-340.01 862.5,-329.86 862.5,-320.99"/>
<polygon fill="midnightblue" stroke="midnightblue" points="866,-320.75 862.5,-310.75 859,-320.75 866,-320.75"/>
</g>
<!-- Node22 -->
<g id="node22" class="node">
<title>Node22</title>
<g id="a_node22"><a xlink:href="terminalsCRIO_8h.html" target="_top" xlink:title=" ">
<polygon fill="none" stroke="black" points="780.5,-174 780.5,-193 926.5,-193 926.5,-174 780.5,-174"/>
<text text-anchor="middle" x="853.5" y="-181" font-family="Helvetica,sans-Serif" font-size="10.00">terminals/terminalsCRIO.h</text>
</a>
</g>
</g>
<!-- Node5&#45;&gt;Node22 -->
<g id="edge27" class="edge">
<title>Node5&#45;&gt;Node22</title>
<path fill="none" stroke="midnightblue" d="M899.2,-347.35C918.33,-340.77 940.07,-329.58 951.5,-311 956.16,-303.43 954.73,-299.28 951.5,-291 936.05,-251.39 898.2,-217.61 874.32,-199.26"/>
<polygon fill="midnightblue" stroke="midnightblue" points="876.33,-196.39 866.22,-193.22 872.14,-202 876.33,-196.39"/>
</g>
<!-- Node23 -->
<g id="node23" class="node">
<title>Node23</title>
<g id="a_node23"><a xlink:href="terminalsSignalGeneration_8h.html" target="_top" xlink:title=" ">
<polygon fill="none" stroke="black" points="945,-168.5 945,-198.5 1088,-198.5 1088,-168.5 945,-168.5"/>
<text text-anchor="start" x="953" y="-186.5" font-family="Helvetica,sans-Serif" font-size="10.00">terminals/terminalsSignal</text>
<text text-anchor="middle" x="1016.5" y="-175.5" font-family="Helvetica,sans-Serif" font-size="10.00">Generation.h</text>
</a>
</g>
</g>
<!-- Node5&#45;&gt;Node23 -->
<g id="edge30" class="edge">
<title>Node5&#45;&gt;Node23</title>
<path fill="none" stroke="midnightblue" d="M900.1,-347.46C921.96,-340.78 948.64,-329.44 966.5,-311 994.2,-282.4 1007.1,-236.59 1012.68,-208.66"/>
<polygon fill="midnightblue" stroke="midnightblue" points="1016.17,-209.03 1014.54,-198.56 1009.29,-207.76 1016.17,-209.03"/>
</g>
<!-- Node24 -->
<g id="node24" class="node">
<title>Node24</title>
<g id="a_node24"><a xlink:href="terminalsDMADAQCPU_8h.html" target="_top" xlink:title=" ">
<polygon fill="none" stroke="black" points="1248,-291.5 1248,-310.5 1435,-310.5 1435,-291.5 1248,-291.5"/>
<text text-anchor="middle" x="1341.5" y="-298.5" font-family="Helvetica,sans-Serif" font-size="10.00">terminals/terminalsDMADAQCPU.h</text>
</a>
</g>
</g>
<!-- Node5&#45;&gt;Node24 -->
<g id="edge33" class="edge">
<title>Node5&#45;&gt;Node24</title>
<path fill="none" stroke="midnightblue" d="M923.65,-349.11C1007.85,-339.61 1159.89,-322.47 1255.51,-311.69"/>
<polygon fill="midnightblue" stroke="midnightblue" points="1256.19,-315.14 1265.73,-310.54 1255.4,-308.18 1256.19,-315.14"/>
</g>
<!-- Node28 -->
<g id="node28" class="node">
<title>Node28</title>
<g id="a_node28"><a xlink:href="terminalsDMAIMAQCPU_8h.html" target="_top" xlink:title=" ">
<polygon fill="none" stroke="black" points="1039,-291.5 1039,-310.5 1230,-310.5 1230,-291.5 1039,-291.5"/>
<text text-anchor="middle" x="1134.5" y="-298.5" font-family="Helvetica,sans-Serif" font-size="10.00">terminals/terminalsDMAIMAQCPU.h</text>
</a>
</g>
</g>
<!-- Node5&#45;&gt;Node28 -->
<g id="edge41" class="edge">
<title>Node5&#45;&gt;Node28</title>
<path fill="none" stroke="midnightblue" d="M905.6,-347.44C953.35,-337.96 1030.36,-322.67 1081.69,-312.48"/>
<polygon fill="midnightblue" stroke="midnightblue" points="1082.48,-315.9 1091.6,-310.52 1081.11,-309.03 1082.48,-315.9"/>
</g>
<!-- Node7 -->
<g id="node7" class="node">
<title>Node7</title>
<g id="a_node7"><a xlink:href="terminalsBase_8h.html" target="_top" xlink:title=" ">
<polygon fill="none" stroke="black" points="711.5,-112.5 711.5,-131.5 857.5,-131.5 857.5,-112.5 711.5,-112.5"/>
<text text-anchor="middle" x="784.5" y="-119.5" font-family="Helvetica,sans-Serif" font-size="10.00">terminals/terminalsBase.h</text>
</a>
</g>
</g>
<!-- Node6&#45;&gt;Node7 -->
<g id="edge6" class="edge">
<title>Node6&#45;&gt;Node7</title>
<path fill="none" stroke="midnightblue" d="M275.54,-291.11C276.11,-277.21 279.25,-250.34 294.5,-235 350.74,-178.41 576.64,-145.52 701.13,-131.34"/>
<polygon fill="midnightblue" stroke="midnightblue" points="701.84,-134.79 711.39,-130.19 701.06,-127.83 701.84,-134.79"/>
</g>
<!-- Node12 -->
<g id="node12" class="node">
<title>Node12</title>
<g id="a_node12"><a xlink:href="modules_8h.html" target="_top" xlink:title=" ">
<polygon fill="none" stroke="black" points="179.5,-235.5 179.5,-254.5 247.5,-254.5 247.5,-235.5 179.5,-235.5"/>
<text text-anchor="middle" x="213.5" y="-242.5" font-family="Helvetica,sans-Serif" font-size="10.00">modules.h</text>
</a>
</g>
</g>
<!-- Node6&#45;&gt;Node12 -->
<g id="edge12" class="edge">
<title>Node6&#45;&gt;Node12</title>
<path fill="none" stroke="midnightblue" d="M265.54,-291.32C256.37,-283.34 242.56,-271.31 231.47,-261.65"/>
<polygon fill="midnightblue" stroke="midnightblue" points="233.48,-258.76 223.64,-254.83 228.88,-264.04 233.48,-258.76"/>
</g>
<!-- Node7&#45;&gt;Node4 -->
<g id="edge7" class="edge">
<title>Node7&#45;&gt;Node4</title>
<path fill="none" stroke="midnightblue" d="M857.78,-114.11C980.71,-102.54 1224.34,-79.62 1319.31,-70.69"/>
<polygon fill="midnightblue" stroke="midnightblue" points="1319.72,-74.16 1329.35,-69.74 1319.06,-67.19 1319.72,-74.16"/>
</g>
<!-- Node8 -->
<g id="node8" class="node">
<title>Node8</title>
<g id="a_node8"><a xlink:href="platforms_8h.html" target="_top" xlink:title=" ">
<polygon fill="none" stroke="black" points="908,-56.5 908,-75.5 981,-75.5 981,-56.5 908,-56.5"/>
<text text-anchor="middle" x="944.5" y="-63.5" font-family="Helvetica,sans-Serif" font-size="10.00">platforms.h</text>
</a>
</g>
</g>
<!-- Node7&#45;&gt;Node8 -->
<g id="edge8" class="edge">
<title>Node7&#45;&gt;Node8</title>
<path fill="none" stroke="midnightblue" d="M809.85,-112.44C836.77,-103.36 879.5,-88.94 909.59,-78.78"/>
<polygon fill="midnightblue" stroke="midnightblue" points="910.91,-82.03 919.27,-75.52 908.67,-75.4 910.91,-82.03"/>
</g>
<!-- Node9 -->
<g id="node9" class="node">
<title>Node9</title>
<g id="a_node9"><a xlink:title=" ">
<polygon fill="none" stroke="#bfbfbf" points="892.5,-0.5 892.5,-19.5 948.5,-19.5 948.5,-0.5 892.5,-0.5"/>
<text text-anchor="middle" x="920.5" y="-7.5" font-family="Helvetica,sans-Serif" font-size="10.00">stddef.h</text>
</a>
</g>
</g>
<!-- Node8&#45;&gt;Node9 -->
<g id="edge9" class="edge">
<title>Node8&#45;&gt;Node9</title>
<path fill="none" stroke="midnightblue" d="M940.54,-56.08C937.29,-48.77 932.58,-38.18 928.55,-29.1"/>
<polygon fill="midnightblue" stroke="midnightblue" points="931.65,-27.47 924.39,-19.75 925.25,-30.31 931.65,-27.47"/>
</g>
<!-- Node10 -->
<g id="node10" class="node">
<title>Node10</title>
<g id="a_node10"><a xlink:title=" ">
<polygon fill="none" stroke="#bfbfbf" points="967,-0.5 967,-19.5 1020,-19.5 1020,-0.5 967,-0.5"/>
<text text-anchor="middle" x="993.5" y="-7.5" font-family="Helvetica,sans-Serif" font-size="10.00">stdint.h</text>
</a>
</g>
</g>
<!-- Node8&#45;&gt;Node10 -->
<g id="edge10" class="edge">
<title>Node8&#45;&gt;Node10</title>
<path fill="none" stroke="midnightblue" d="M952.59,-56.08C959.66,-48.3 970.09,-36.8 978.65,-27.37"/>
<polygon fill="midnightblue" stroke="midnightblue" points="981.43,-29.51 985.56,-19.75 976.25,-24.8 981.43,-29.51"/>
</g>
<!-- Node11 -->
<g id="node11" class="node">
<title>Node11</title>
<g id="a_node11"><a xlink:title=" ">
<polygon fill="none" stroke="#bfbfbf" points="1129.5,-0.5 1129.5,-19.5 1179.5,-19.5 1179.5,-0.5 1129.5,-0.5"/>
<text text-anchor="middle" x="1154.5" y="-7.5" font-family="Helvetica,sans-Serif" font-size="10.00">cstdint</text>
</a>
</g>
</g>
<!-- Node8&#45;&gt;Node11 -->
<g id="edge11" class="edge">
<title>Node8&#45;&gt;Node11</title>
<path fill="none" stroke="midnightblue" d="M977.78,-56.44C1016.5,-46.49 1080.16,-30.12 1119.58,-19.98"/>
<polygon fill="midnightblue" stroke="midnightblue" points="1120.48,-23.36 1129.29,-17.48 1118.73,-16.58 1120.48,-23.36"/>
</g>
<!-- Node12&#45;&gt;Node3 -->
<g id="edge14" class="edge">
<title>Node12&#45;&gt;Node3</title>
<path fill="none" stroke="midnightblue" d="M189.57,-235.48C160.8,-225.22 112.34,-207.96 79.9,-196.4"/>
<polygon fill="midnightblue" stroke="midnightblue" points="80.98,-193.07 70.38,-193.01 78.63,-199.66 80.98,-193.07"/>
</g>
<!-- Node13 -->
<g id="node13" class="node">
<title>Node13</title>
<g id="a_node13"><a xlink:title=" ">
<polygon fill="none" stroke="#bfbfbf" points="993,-112.5 993,-131.5 1040,-131.5 1040,-112.5 993,-112.5"/>
<text text-anchor="middle" x="1016.5" y="-119.5" font-family="Helvetica,sans-Serif" font-size="10.00">vector</text>
</a>
</g>
</g>
<!-- Node12&#45;&gt;Node13 -->
<g id="edge13" class="edge">
<title>Node12&#45;&gt;Node13</title>
<path fill="none" stroke="midnightblue" d="M247.75,-238.84C379.36,-219.01 851.76,-147.82 982.66,-128.1"/>
<polygon fill="midnightblue" stroke="midnightblue" points="983.51,-131.51 992.88,-126.56 982.47,-124.59 983.51,-131.51"/>
</g>
<!-- Node14 -->
<g id="node14" class="node">
<title>Node14</title>
<g id="a_node14"><a xlink:title=" ">
<polygon fill="none" stroke="#bfbfbf" points="200,-174 200,-193 247,-193 247,-174 200,-174"/>
<text text-anchor="middle" x="223.5" y="-181" font-family="Helvetica,sans-Serif" font-size="10.00">cmath</text>
</a>
</g>
</g>
<!-- Node12&#45;&gt;Node14 -->
<g id="edge15" class="edge">
<title>Node12&#45;&gt;Node14</title>
<path fill="none" stroke="midnightblue" d="M214.93,-235.48C216.34,-227.08 218.55,-213.98 220.36,-203.16"/>
<polygon fill="midnightblue" stroke="midnightblue" points="223.86,-203.45 222.07,-193.01 216.96,-202.29 223.86,-203.45"/>
</g>
<!-- Node15 -->
<g id="node15" class="node">
<title>Node15</title>
<g id="a_node15"><a xlink:href="errorsIrio_8h.html" target="_top" xlink:title=" ">
<polygon fill="none" stroke="black" points="111.5,-174 111.5,-193 181.5,-193 181.5,-174 111.5,-174"/>
<text text-anchor="middle" x="146.5" y="-181" font-family="Helvetica,sans-Serif" font-size="10.00">errorsIrio.h</text>
</a>
</g>
</g>
<!-- Node12&#45;&gt;Node15 -->
<g id="edge16" class="edge">
<title>Node12&#45;&gt;Node15</title>
<path fill="none" stroke="midnightblue" d="M203.9,-235.48C193.45,-226.2 176.53,-211.17 163.76,-199.83"/>
<polygon fill="midnightblue" stroke="midnightblue" points="165.88,-197.03 156.08,-193.01 161.23,-202.27 165.88,-197.03"/>
</g>
<!-- Node16 -->
<g id="node16" class="node">
<title>Node16</title>
<g id="a_node16"><a xlink:title=" ">
<polygon fill="none" stroke="#bfbfbf" points="77,-112.5 77,-131.5 142,-131.5 142,-112.5 77,-112.5"/>
<text text-anchor="middle" x="109.5" y="-119.5" font-family="Helvetica,sans-Serif" font-size="10.00">stdexcept</text>
</a>
</g>
</g>
<!-- Node15&#45;&gt;Node16 -->
<g id="edge17" class="edge">
<title>Node15&#45;&gt;Node16</title>
<path fill="none" stroke="midnightblue" d="M141.2,-173.98C135.76,-165.23 127.14,-151.37 120.26,-140.31"/>
<polygon fill="midnightblue" stroke="midnightblue" points="123.04,-138.15 114.79,-131.51 117.1,-141.85 123.04,-138.15"/>
</g>
<!-- Node17 -->
<g id="node17" class="node">
<title>Node17</title>
<g id="a_node17"><a xlink:title=" ">
<polygon fill="none" stroke="#bfbfbf" points="160.5,-112.5 160.5,-131.5 204.5,-131.5 204.5,-112.5 160.5,-112.5"/>
<text text-anchor="middle" x="182.5" y="-119.5" font-family="Helvetica,sans-Serif" font-size="10.00">string</text>
</a>
</g>
</g>
<!-- Node15&#45;&gt;Node17 -->
<g id="edge18" class="edge">
<title>Node15&#45;&gt;Node17</title>
<path fill="none" stroke="midnightblue" d="M151.66,-173.98C156.95,-165.23 165.34,-151.37 172.03,-140.31"/>
<polygon fill="midnightblue" stroke="midnightblue" points="175.17,-141.88 177.35,-131.51 169.18,-138.25 175.17,-141.88"/>
</g>
<!-- Node18&#45;&gt;Node7 -->
<g id="edge20" class="edge">
<title>Node18&#45;&gt;Node7</title>
<path fill="none" stroke="midnightblue" d="M580.67,-235.35C595.61,-219.95 628.92,-187.55 662.5,-168 687.62,-153.37 718.33,-142.08 742.66,-134.46"/>
<polygon fill="midnightblue" stroke="midnightblue" points="743.77,-137.78 752.32,-131.52 741.73,-131.08 743.77,-137.78"/>
</g>
<!-- Node19&#45;&gt;Node7 -->
<g id="edge22" class="edge">
<title>Node19&#45;&gt;Node7</title>
<path fill="none" stroke="midnightblue" d="M414.42,-235.4C455.5,-220.77 542.19,-190.42 616.5,-168 658.15,-155.43 706.14,-142.75 740.14,-134.07"/>
<polygon fill="midnightblue" stroke="midnightblue" points="741.39,-137.37 750.22,-131.51 739.66,-130.58 741.39,-137.37"/>
</g>
<!-- Node20&#45;&gt;Node7 -->
<g id="edge24" class="edge">
<title>Node20&#45;&gt;Node7</title>
<path fill="none" stroke="midnightblue" d="M682.66,-291.46C699.22,-264.08 751.22,-178.05 773.83,-140.65"/>
<polygon fill="midnightblue" stroke="midnightblue" points="776.96,-142.24 779.14,-131.87 770.97,-138.62 776.96,-142.24"/>
</g>
<!-- Node21&#45;&gt;Node7 -->
<g id="edge26" class="edge">
<title>Node21&#45;&gt;Node7</title>
<path fill="none" stroke="midnightblue" d="M850.35,-291.42C829.47,-275.85 787.49,-240.64 771.5,-199 764.25,-180.12 770.09,-157.04 776.09,-141.31"/>
<polygon fill="midnightblue" stroke="midnightblue" points="779.47,-142.3 780.11,-131.73 773.01,-139.59 779.47,-142.3"/>
</g>
<!-- Node22&#45;&gt;Node7 -->
<g id="edge29" class="edge">
<title>Node22&#45;&gt;Node7</title>
<path fill="none" stroke="midnightblue" d="M843.61,-173.98C832.85,-164.7 815.43,-149.67 802.28,-138.33"/>
<polygon fill="midnightblue" stroke="midnightblue" points="804.23,-135.39 794.37,-131.51 799.66,-140.69 804.23,-135.39"/>
</g>
<!-- Node22&#45;&gt;Node13 -->
<g id="edge28" class="edge">
<title>Node22&#45;&gt;Node13</title>
<path fill="none" stroke="midnightblue" d="M876.85,-173.98C904.81,-163.77 951.83,-146.61 983.49,-135.05"/>
<polygon fill="midnightblue" stroke="midnightblue" points="985,-138.23 993.19,-131.51 982.6,-131.65 985,-138.23"/>
</g>
<!-- Node23&#45;&gt;Node7 -->
<g id="edge32" class="edge">
<title>Node23&#45;&gt;Node7</title>
<path fill="none" stroke="midnightblue" d="M961.81,-168.47C920.74,-157.94 865.27,-143.72 827.38,-134"/>
<polygon fill="midnightblue" stroke="midnightblue" points="828.22,-130.6 817.67,-131.51 826.48,-137.38 828.22,-130.6"/>
</g>
<!-- Node23&#45;&gt;Node13 -->
<g id="edge31" class="edge">
<title>Node23&#45;&gt;Node13</title>
<path fill="none" stroke="midnightblue" d="M1016.5,-168.4C1016.5,-160.47 1016.5,-150.46 1016.5,-141.86"/>
<polygon fill="midnightblue" stroke="midnightblue" points="1020,-141.66 1016.5,-131.66 1013,-141.66 1020,-141.66"/>
</g>
<!-- Node25 -->
<g id="node25" class="node">
<title>Node25</title>
<g id="a_node25"><a xlink:href="terminalsDMADAQ_8h.html" target="_top" xlink:title=" ">
<polygon fill="none" stroke="black" points="1258,-235.5 1258,-254.5 1425,-254.5 1425,-235.5 1258,-235.5"/>
<text text-anchor="middle" x="1341.5" y="-242.5" font-family="Helvetica,sans-Serif" font-size="10.00">terminals/terminalsDMADAQ.h</text>
</a>
</g>
</g>
<!-- Node24&#45;&gt;Node25 -->
<g id="edge34" class="edge">
<title>Node24&#45;&gt;Node25</title>
<path fill="none" stroke="midnightblue" d="M1341.5,-291.08C1341.5,-284.01 1341.5,-273.86 1341.5,-264.99"/>
<polygon fill="midnightblue" stroke="midnightblue" points="1345,-264.75 1341.5,-254.75 1338,-264.75 1345,-264.75"/>
</g>
<!-- Node25&#45;&gt;Node4 -->
<g id="edge35" class="edge">
<title>Node25&#45;&gt;Node4</title>
<path fill="none" stroke="midnightblue" d="M1370.62,-235.44C1388.14,-228.62 1409.02,-217.14 1419.5,-199 1442.74,-158.76 1401.02,-108.14 1375.74,-82.87"/>
<polygon fill="midnightblue" stroke="midnightblue" points="1377.84,-80.03 1368.22,-75.61 1372.98,-85.07 1377.84,-80.03"/>
</g>
<!-- Node26 -->
<g id="node26" class="node">
<title>Node26</title>
<g id="a_node26"><a xlink:href="terminalsDMACommon_8h.html" target="_top" xlink:title=" ">
<polygon fill="none" stroke="black" points="1221,-174 1221,-193 1410,-193 1410,-174 1221,-174"/>
<text text-anchor="middle" x="1315.5" y="-181" font-family="Helvetica,sans-Serif" font-size="10.00">terminals/terminalsDMACommon.h</text>
</a>
</g>
</g>
<!-- Node25&#45;&gt;Node26 -->
<g id="edge36" class="edge">
<title>Node25&#45;&gt;Node26</title>
<path fill="none" stroke="midnightblue" d="M1337.77,-235.48C1334.03,-226.9 1328.14,-213.43 1323.36,-202.48"/>
<polygon fill="midnightblue" stroke="midnightblue" points="1326.43,-200.77 1319.22,-193.01 1320.02,-203.57 1326.43,-200.77"/>
</g>
<!-- Node26&#45;&gt;Node4 -->
<g id="edge38" class="edge">
<title>Node26&#45;&gt;Node4</title>
<path fill="none" stroke="midnightblue" d="M1320.19,-173.75C1325.37,-163.82 1333.76,-147.06 1339.5,-132 1345.39,-116.55 1350.54,-98.46 1353.99,-85.29"/>
<polygon fill="midnightblue" stroke="midnightblue" points="1357.39,-86.11 1356.46,-75.56 1350.61,-84.39 1357.39,-86.11"/>
</g>
<!-- Node26&#45;&gt;Node7 -->
<g id="edge39" class="edge">
<title>Node26&#45;&gt;Node7</title>
<path fill="none" stroke="midnightblue" d="M1239.42,-173.98C1140.9,-162.94 969.76,-143.76 867.82,-132.34"/>
<polygon fill="midnightblue" stroke="midnightblue" points="868.2,-128.86 857.88,-131.22 867.42,-135.81 868.2,-128.86"/>
</g>
<!-- Node26&#45;&gt;Node13 -->
<g id="edge37" class="edge">
<title>Node26&#45;&gt;Node13</title>
<path fill="none" stroke="midnightblue" d="M1272.66,-173.98C1212.59,-162.02 1104.57,-140.53 1050,-129.67"/>
<polygon fill="midnightblue" stroke="midnightblue" points="1050.63,-126.22 1040.14,-127.7 1049.27,-133.09 1050.63,-126.22"/>
</g>
<!-- Node27 -->
<g id="node27" class="node">
<title>Node27</title>
<g id="a_node27"><a xlink:href="frameTypes_8h.html" target="_top" xlink:title=" ">
<polygon fill="none" stroke="black" points="1247,-112.5 1247,-131.5 1330,-131.5 1330,-112.5 1247,-112.5"/>
<text text-anchor="middle" x="1288.5" y="-119.5" font-family="Helvetica,sans-Serif" font-size="10.00">frameTypes.h</text>
</a>
</g>
</g>
<!-- Node26&#45;&gt;Node27 -->
<g id="edge40" class="edge">
<title>Node26&#45;&gt;Node27</title>
<path fill="none" stroke="midnightblue" d="M1311.63,-173.98C1307.7,-165.32 1301.5,-151.65 1296.51,-140.65"/>
<polygon fill="midnightblue" stroke="midnightblue" points="1299.68,-139.17 1292.36,-131.51 1293.31,-142.06 1299.68,-139.17"/>
</g>
<!-- Node29 -->
<g id="node29" class="node">
<title>Node29</title>
<g id="a_node29"><a xlink:href="terminalsDMAIMAQ_8h.html" target="_top" xlink:title=" ">
<polygon fill="none" stroke="black" points="1069,-235.5 1069,-254.5 1240,-254.5 1240,-235.5 1069,-235.5"/>
<text text-anchor="middle" x="1154.5" y="-242.5" font-family="Helvetica,sans-Serif" font-size="10.00">terminals/terminalsDMAIMAQ.h</text>
</a>
</g>
</g>
<!-- Node28&#45;&gt;Node29 -->
<g id="edge42" class="edge">
<title>Node28&#45;&gt;Node29</title>
<path fill="none" stroke="midnightblue" d="M1137.8,-291.08C1140.48,-283.85 1144.35,-273.41 1147.69,-264.4"/>
<polygon fill="midnightblue" stroke="midnightblue" points="1151.07,-265.34 1151.26,-254.75 1144.5,-262.91 1151.07,-265.34"/>
</g>
<!-- Node29&#45;&gt;Node4 -->
<g id="edge43" class="edge">
<title>Node29&#45;&gt;Node4</title>
<path fill="none" stroke="midnightblue" d="M1157.75,-235.24C1166.86,-211.86 1194.83,-147.42 1238.5,-112 1261.97,-92.97 1294.3,-81.47 1319.49,-74.86"/>
<polygon fill="midnightblue" stroke="midnightblue" points="1320.59,-78.19 1329.46,-72.4 1318.91,-71.4 1320.59,-78.19"/>
</g>
<!-- Node29&#45;&gt;Node13 -->
<g id="edge44" class="edge">
<title>Node29&#45;&gt;Node13</title>
<path fill="none" stroke="midnightblue" d="M1149.52,-235.08C1140.65,-219.81 1120.87,-188.38 1097.5,-168 1082.3,-154.74 1062.56,-143.68 1046.37,-135.83"/>
<polygon fill="midnightblue" stroke="midnightblue" points="1047.85,-132.66 1037.31,-131.6 1044.88,-139 1047.85,-132.66"/>
</g>
<!-- Node29&#45;&gt;Node26 -->
<g id="edge45" class="edge">
<title>Node29&#45;&gt;Node26</title>
<path fill="none" stroke="midnightblue" d="M1177.57,-235.48C1205.18,-225.27 1251.62,-208.11 1282.9,-196.55"/>
<polygon fill="midnightblue" stroke="midnightblue" points="1284.31,-199.76 1292.48,-193.01 1281.88,-193.19 1284.31,-199.76"/>
</g>
<!-- Node30 -->
<g id="node30" class="node">
<title>Node30</title>
<g id="a_node30"><a xlink:href="imaqTypes_8h.html" target="_top" xlink:title=" ">
<polygon fill="none" stroke="black" points="1115.5,-56.5 1115.5,-75.5 1193.5,-75.5 1193.5,-56.5 1115.5,-56.5"/>
<text text-anchor="middle" x="1154.5" y="-63.5" font-family="Helvetica,sans-Serif" font-size="10.00">imaqTypes.h</text>
</a>
</g>
</g>
<!-- Node29&#45;&gt;Node30 -->
<g id="edge46" class="edge">
<title>Node29&#45;&gt;Node30</title>
<path fill="none" stroke="midnightblue" d="M1154.5,-235.46C1154.5,-208.43 1154.5,-124.24 1154.5,-86.11"/>
<polygon fill="midnightblue" stroke="midnightblue" points="1158,-85.87 1154.5,-75.87 1151,-85.87 1158,-85.87"/>
</g>
<!-- Node30&#45;&gt;Node11 -->
<g id="edge47" class="edge">
<title>Node30&#45;&gt;Node11</title>
<path fill="none" stroke="midnightblue" d="M1154.5,-56.08C1154.5,-49.01 1154.5,-38.86 1154.5,-29.99"/>
<polygon fill="midnightblue" stroke="midnightblue" points="1158,-29.75 1154.5,-19.75 1151,-29.75 1158,-29.75"/>
</g>
<!-- Node31&#45;&gt;Node11 -->
<g id="edge49" class="edge">
<title>Node31&#45;&gt;Node11</title>
<path fill="none" stroke="midnightblue" d="M1437.92,-57.66C1371.99,-46.81 1249.82,-26.69 1189.74,-16.8"/>
<polygon fill="midnightblue" stroke="midnightblue" points="1190.05,-13.3 1179.61,-15.13 1188.91,-20.21 1190.05,-13.3"/>
</g>
</g>
</svg>
