<?xml version="1.0" encoding="UTF-8" standalone="no"?>
<!DOCTYPE svg PUBLIC "-//W3C//DTD SVG 1.1//EN"
 "http://www.w3.org/Graphics/SVG/1.1/DTD/svg11.dtd">
<!-- Generated by graphviz version 2.43.0 (0)
 -->
<!-- Title: profileCPUDAQ.h Pages: 1 -->
<svg width="1339pt" height="487pt"
 viewBox="0.00 0.00 1338.62 487.00" xmlns="http://www.w3.org/2000/svg" xmlns:xlink="http://www.w3.org/1999/xlink">
<g id="graph0" class="graph" transform="scale(1 1) rotate(0) translate(4 483)">
<title>profileCPUDAQ.h</title>
<!-- Node1 -->
<g id="node1" class="node">
<title>Node1</title>
<g id="a_node1"><a xlink:title=" ">
<polygon fill="#bfbfbf" stroke="black" points="280.12,-459.5 280.12,-478.5 378.12,-478.5 378.12,-459.5 280.12,-459.5"/>
<text text-anchor="middle" x="329.12" y="-466.5" font-family="Helvetica,sans-Serif" font-size="10.00">profileCPUDAQ.h</text>
</a>
</g>
</g>
<!-- Node2 -->
<g id="node2" class="node">
<title>Node2</title>
<g id="a_node2"><a xlink:href="profileBase_8h.html" target="_top" xlink:title=" ">
<polygon fill="none" stroke="black" points="658.62,-403.5 658.62,-422.5 777.62,-422.5 777.62,-403.5 658.62,-403.5"/>
<text text-anchor="middle" x="718.12" y="-410.5" font-family="Helvetica,sans-Serif" font-size="10.00">profiles/profileBase.h</text>
</a>
</g>
</g>
<!-- Node1&#45;&gt;Node2 -->
<g id="edge1" class="edge">
<title>Node1&#45;&gt;Node2</title>
<path fill="none" stroke="midnightblue" d="M378.39,-461.16C446.68,-451.68 570.45,-434.5 648.25,-423.7"/>
<polygon fill="midnightblue" stroke="midnightblue" points="649.02,-427.13 658.44,-422.28 648.06,-420.19 649.02,-427.13"/>
</g>
<!-- Node9 -->
<g id="node9" class="node">
<title>Node9</title>
<g id="a_node9"><a xlink:href="platforms_8h.html" target="_top" xlink:title=" ">
<polygon fill="none" stroke="black" points="472.62,-56.5 472.62,-75.5 545.62,-75.5 545.62,-56.5 472.62,-56.5"/>
<text text-anchor="middle" x="509.12" y="-63.5" font-family="Helvetica,sans-Serif" font-size="10.00">platforms.h</text>
</a>
</g>
</g>
<!-- Node1&#45;&gt;Node9 -->
<g id="edge51" class="edge">
<title>Node1&#45;&gt;Node9</title>
<path fill="none" stroke="midnightblue" d="M279.87,-461.95C188.09,-449.3 0.12,-416.27 0.12,-358 0.12,-358 0.12,-358 0.12,-182.5 0.12,-149.4 -1.87,-132.49 24.12,-112 58.05,-85.25 346.91,-72.53 462.04,-68.49"/>
<polygon fill="midnightblue" stroke="midnightblue" points="462.43,-71.98 472.3,-68.14 462.19,-64.98 462.43,-71.98"/>
</g>
<!-- Node3 -->
<g id="node3" class="node">
<title>Node3</title>
<g id="a_node3"><a xlink:title=" ">
<polygon fill="none" stroke="#bfbfbf" points="741.62,-347.5 741.62,-366.5 806.62,-366.5 806.62,-347.5 741.62,-347.5"/>
<text text-anchor="middle" x="774.12" y="-354.5" font-family="Helvetica,sans-Serif" font-size="10.00">typeindex</text>
</a>
</g>
</g>
<!-- Node2&#45;&gt;Node3 -->
<g id="edge2" class="edge">
<title>Node2&#45;&gt;Node3</title>
<path fill="none" stroke="midnightblue" d="M727.12,-403.32C735.32,-395.42 747.63,-383.55 757.6,-373.94"/>
<polygon fill="midnightblue" stroke="midnightblue" points="760.19,-376.29 764.96,-366.83 755.34,-371.26 760.19,-376.29"/>
</g>
<!-- Node4 -->
<g id="node4" class="node">
<title>Node4</title>
<g id="a_node4"><a xlink:title=" ">
<polygon fill="none" stroke="#bfbfbf" points="158.62,-174 158.62,-193 251.62,-193 251.62,-174 158.62,-174"/>
<text text-anchor="middle" x="205.12" y="-181" font-family="Helvetica,sans-Serif" font-size="10.00">unordered_map</text>
</a>
</g>
</g>
<!-- Node2&#45;&gt;Node4 -->
<g id="edge3" class="edge">
<title>Node2&#45;&gt;Node4</title>
<path fill="none" stroke="midnightblue" d="M658.27,-406.38C545.94,-394.69 309.41,-364.31 249.12,-311 217.43,-282.98 208.56,-230.89 206.08,-203.1"/>
<polygon fill="midnightblue" stroke="midnightblue" points="209.58,-202.85 205.38,-193.12 202.59,-203.35 209.58,-202.85"/>
</g>
<!-- Node5 -->
<g id="node5" class="node">
<title>Node5</title>
<g id="a_node5"><a xlink:title=" ">
<polygon fill="none" stroke="#bfbfbf" points="1120.12,-56.5 1120.12,-75.5 1178.12,-75.5 1178.12,-56.5 1120.12,-56.5"/>
<text text-anchor="middle" x="1149.12" y="-63.5" font-family="Helvetica,sans-Serif" font-size="10.00">memory</text>
</a>
</g>
</g>
<!-- Node2&#45;&gt;Node5 -->
<g id="edge4" class="edge">
<title>Node2&#45;&gt;Node5</title>
<path fill="none" stroke="midnightblue" d="M777.83,-412.59C920.82,-412.39 1271.12,-401.72 1271.12,-302 1271.12,-302 1271.12,-302 1271.12,-182.5 1271.12,-132.16 1215.68,-97.21 1179.55,-79.77"/>
<polygon fill="midnightblue" stroke="midnightblue" points="1180.92,-76.54 1170.38,-75.51 1177.97,-82.89 1180.92,-76.54"/>
</g>
<!-- Node6 -->
<g id="node6" class="node">
<title>Node6</title>
<g id="a_node6"><a xlink:href="terminals_8h.html" target="_top" xlink:title=" ">
<polygon fill="none" stroke="black" points="601.12,-347.5 601.12,-366.5 723.12,-366.5 723.12,-347.5 601.12,-347.5"/>
<text text-anchor="middle" x="662.12" y="-354.5" font-family="Helvetica,sans-Serif" font-size="10.00">terminals/terminals.h</text>
</a>
</g>
</g>
<!-- Node2&#45;&gt;Node6 -->
<g id="edge5" class="edge">
<title>Node2&#45;&gt;Node6</title>
<path fill="none" stroke="midnightblue" d="M709.13,-403.32C700.93,-395.42 688.62,-383.55 678.65,-373.94"/>
<polygon fill="midnightblue" stroke="midnightblue" points="680.91,-371.26 671.29,-366.83 676.05,-376.29 680.91,-371.26"/>
</g>
<!-- Node32 -->
<g id="node32" class="node">
<title>Node32</title>
<g id="a_node32"><a xlink:href="profilesTypes_8h.html" target="_top" xlink:title=" ">
<polygon fill="none" stroke="black" points="1241.62,-56.5 1241.62,-75.5 1330.62,-75.5 1330.62,-56.5 1241.62,-56.5"/>
<text text-anchor="middle" x="1286.12" y="-63.5" font-family="Helvetica,sans-Serif" font-size="10.00">profilesTypes.h</text>
</a>
</g>
</g>
<!-- Node2&#45;&gt;Node32 -->
<g id="edge49" class="edge">
<title>Node2&#45;&gt;Node32</title>
<path fill="none" stroke="midnightblue" d="M777.9,-411.21C895.07,-408.95 1150.54,-400.23 1231.12,-367 1272.84,-349.8 1309.12,-347.13 1309.12,-302 1309.12,-302 1309.12,-302 1309.12,-182.5 1309.12,-147.53 1298.86,-107.74 1292.05,-85.17"/>
<polygon fill="midnightblue" stroke="midnightblue" points="1295.37,-84.07 1289.04,-75.58 1288.69,-86.17 1295.37,-84.07"/>
</g>
<!-- Node7 -->
<g id="node7" class="node">
<title>Node7</title>
<g id="a_node7"><a xlink:href="terminalsAnalog_8h.html" target="_top" xlink:title=" ">
<polygon fill="none" stroke="black" points="474.62,-291.5 474.62,-310.5 629.62,-310.5 629.62,-291.5 474.62,-291.5"/>
<text text-anchor="middle" x="552.12" y="-298.5" font-family="Helvetica,sans-Serif" font-size="10.00">terminals/terminalsAnalog.h</text>
</a>
</g>
</g>
<!-- Node6&#45;&gt;Node7 -->
<g id="edge6" class="edge">
<title>Node6&#45;&gt;Node7</title>
<path fill="none" stroke="midnightblue" d="M644.45,-347.32C626.73,-338.62 599.22,-325.12 578.84,-315.11"/>
<polygon fill="midnightblue" stroke="midnightblue" points="580.27,-311.92 569.75,-310.65 577.19,-318.2 580.27,-311.92"/>
</g>
<!-- Node19 -->
<g id="node19" class="node">
<title>Node19</title>
<g id="a_node19"><a xlink:href="terminalsDigital_8h.html" target="_top" xlink:title=" ">
<polygon fill="none" stroke="black" points="279.12,-235.5 279.12,-254.5 433.12,-254.5 433.12,-235.5 279.12,-235.5"/>
<text text-anchor="middle" x="356.12" y="-242.5" font-family="Helvetica,sans-Serif" font-size="10.00">terminals/terminalsDigital.h</text>
</a>
</g>
</g>
<!-- Node6&#45;&gt;Node19 -->
<g id="edge20" class="edge">
<title>Node6&#45;&gt;Node19</title>
<path fill="none" stroke="midnightblue" d="M603.68,-347.44C563.95,-340.45 510.71,-328.79 466.12,-311 448.43,-303.94 404.97,-277.1 378.28,-260.19"/>
<polygon fill="midnightblue" stroke="midnightblue" points="379.92,-257.09 369.6,-254.68 376.16,-263 379.92,-257.09"/>
</g>
<!-- Node20 -->
<g id="node20" class="node">
<title>Node20</title>
<g id="a_node20"><a xlink:href="terminalsAuxAnalog_8h.html" target="_top" xlink:title=" ">
<polygon fill="none" stroke="black" points="575.12,-235.5 575.12,-254.5 749.12,-254.5 749.12,-235.5 575.12,-235.5"/>
<text text-anchor="middle" x="662.12" y="-242.5" font-family="Helvetica,sans-Serif" font-size="10.00">terminals/terminalsAuxAnalog.h</text>
</a>
</g>
</g>
<!-- Node6&#45;&gt;Node20 -->
<g id="edge22" class="edge">
<title>Node6&#45;&gt;Node20</title>
<path fill="none" stroke="midnightblue" d="M662.12,-347.37C662.12,-329.62 662.12,-288.67 662.12,-264.6"/>
<polygon fill="midnightblue" stroke="midnightblue" points="665.62,-264.59 662.12,-254.59 658.62,-264.59 665.62,-264.59"/>
</g>
<!-- Node21 -->
<g id="node21" class="node">
<title>Node21</title>
<g id="a_node21"><a xlink:href="terminalsAuxDigital_8h.html" target="_top" xlink:title=" ">
<polygon fill="none" stroke="black" points="28.62,-291.5 28.62,-310.5 201.62,-310.5 201.62,-291.5 28.62,-291.5"/>
<text text-anchor="middle" x="115.12" y="-298.5" font-family="Helvetica,sans-Serif" font-size="10.00">terminals/terminalsAuxDigital.h</text>
</a>
</g>
</g>
<!-- Node6&#45;&gt;Node21 -->
<g id="edge24" class="edge">
<title>Node6&#45;&gt;Node21</title>
<path fill="none" stroke="midnightblue" d="M600.97,-349.96C506.39,-340.63 323.83,-322.6 211.42,-311.51"/>
<polygon fill="midnightblue" stroke="midnightblue" points="211.73,-308.02 201.43,-310.52 211.04,-314.99 211.73,-308.02"/>
</g>
<!-- Node22 -->
<g id="node22" class="node">
<title>Node22</title>
<g id="a_node22"><a xlink:href="terminalsFlexRIO_8h.html" target="_top" xlink:title=" ">
<polygon fill="none" stroke="black" points="258.12,-291.5 258.12,-310.5 418.12,-310.5 418.12,-291.5 258.12,-291.5"/>
<text text-anchor="middle" x="338.12" y="-298.5" font-family="Helvetica,sans-Serif" font-size="10.00">terminals/terminalsFlexRIO.h</text>
</a>
</g>
</g>
<!-- Node6&#45;&gt;Node22 -->
<g id="edge26" class="edge">
<title>Node6&#45;&gt;Node22</title>
<path fill="none" stroke="midnightblue" d="M610.79,-347.44C553.32,-337.87 460.26,-322.36 399.12,-312.17"/>
<polygon fill="midnightblue" stroke="midnightblue" points="399.66,-308.71 389.22,-310.52 398.51,-315.61 399.66,-308.71"/>
</g>
<!-- Node23 -->
<g id="node23" class="node">
<title>Node23</title>
<g id="a_node23"><a xlink:href="terminalsCRIO_8h.html" target="_top" xlink:title=" ">
<polygon fill="none" stroke="black" points="737.12,-174 737.12,-193 883.12,-193 883.12,-174 737.12,-174"/>
<text text-anchor="middle" x="810.12" y="-181" font-family="Helvetica,sans-Serif" font-size="10.00">terminals/terminalsCRIO.h</text>
</a>
</g>
</g>
<!-- Node6&#45;&gt;Node23 -->
<g id="edge28" class="edge">
<title>Node6&#45;&gt;Node23</title>
<path fill="none" stroke="midnightblue" d="M692.7,-347.36C712.67,-340.37 738.1,-328.72 755.12,-311 785.02,-279.86 800.08,-229.86 806.38,-202.99"/>
<polygon fill="midnightblue" stroke="midnightblue" points="809.85,-203.54 808.56,-193.02 803.01,-202.04 809.85,-203.54"/>
</g>
<!-- Node24 -->
<g id="node24" class="node">
<title>Node24</title>
<g id="a_node24"><a xlink:href="terminalsSignalGeneration_8h.html" target="_top" xlink:title=" ">
<polygon fill="none" stroke="black" points="575.62,-168.5 575.62,-198.5 718.62,-198.5 718.62,-168.5 575.62,-168.5"/>
<text text-anchor="start" x="583.62" y="-186.5" font-family="Helvetica,sans-Serif" font-size="10.00">terminals/terminalsSignal</text>
<text text-anchor="middle" x="647.12" y="-175.5" font-family="Helvetica,sans-Serif" font-size="10.00">Generation.h</text>
</a>
</g>
</g>
<!-- Node6&#45;&gt;Node24 -->
<g id="edge31" class="edge">
<title>Node6&#45;&gt;Node24</title>
<path fill="none" stroke="midnightblue" d="M678.32,-347.49C712.6,-328.34 787.08,-279.98 758.12,-235 748.74,-220.42 733.99,-209.99 718.28,-202.56"/>
<polygon fill="midnightblue" stroke="midnightblue" points="719.51,-199.29 708.95,-198.53 716.73,-205.71 719.51,-199.29"/>
</g>
<!-- Node25 -->
<g id="node25" class="node">
<title>Node25</title>
<g id="a_node25"><a xlink:href="terminalsDMADAQCPU_8h.html" target="_top" xlink:title=" ">
<polygon fill="none" stroke="black" points="1052.62,-291.5 1052.62,-310.5 1239.62,-310.5 1239.62,-291.5 1052.62,-291.5"/>
<text text-anchor="middle" x="1146.12" y="-298.5" font-family="Helvetica,sans-Serif" font-size="10.00">terminals/terminalsDMADAQCPU.h</text>
</a>
</g>
</g>
<!-- Node6&#45;&gt;Node25 -->
<g id="edge34" class="edge">
<title>Node6&#45;&gt;Node25</title>
<path fill="none" stroke="midnightblue" d="M723.31,-348.18C726.63,-347.77 729.92,-347.38 733.12,-347 843.26,-334.02 970.07,-320.4 1053.81,-311.59"/>
<polygon fill="midnightblue" stroke="midnightblue" points="1054.22,-315.07 1063.8,-310.54 1053.49,-308.1 1054.22,-315.07"/>
</g>
<!-- Node29 -->
<g id="node29" class="node">
<title>Node29</title>
<g id="a_node29"><a xlink:href="terminalsDMAIMAQCPU_8h.html" target="_top" xlink:title=" ">
<polygon fill="none" stroke="black" points="843.62,-291.5 843.62,-310.5 1034.62,-310.5 1034.62,-291.5 843.62,-291.5"/>
<text text-anchor="middle" x="939.12" y="-298.5" font-family="Helvetica,sans-Serif" font-size="10.00">terminals/terminalsDMAIMAQCPU.h</text>
</a>
</g>
</g>
<!-- Node6&#45;&gt;Node29 -->
<g id="edge42" class="edge">
<title>Node6&#45;&gt;Node29</title>
<path fill="none" stroke="midnightblue" d="M706.02,-347.44C754.64,-337.96 833.07,-322.67 885.35,-312.48"/>
<polygon fill="midnightblue" stroke="midnightblue" points="886.29,-315.87 895.44,-310.52 884.95,-308.99 886.29,-315.87"/>
</g>
<!-- Node8 -->
<g id="node8" class="node">
<title>Node8</title>
<g id="a_node8"><a xlink:href="terminalsBase_8h.html" target="_top" xlink:title=" ">
<polygon fill="none" stroke="black" points="436.12,-112.5 436.12,-131.5 582.12,-131.5 582.12,-112.5 436.12,-112.5"/>
<text text-anchor="middle" x="509.12" y="-119.5" font-family="Helvetica,sans-Serif" font-size="10.00">terminals/terminalsBase.h</text>
</a>
</g>
</g>
<!-- Node7&#45;&gt;Node8 -->
<g id="edge7" class="edge">
<title>Node7&#45;&gt;Node8</title>
<path fill="none" stroke="midnightblue" d="M550.05,-291.46C543.45,-264.31 522.85,-179.51 513.65,-141.62"/>
<polygon fill="midnightblue" stroke="midnightblue" points="517.04,-140.76 511.28,-131.87 510.24,-142.41 517.04,-140.76"/>
</g>
<!-- Node13 -->
<g id="node13" class="node">
<title>Node13</title>
<g id="a_node13"><a xlink:href="modules_8h.html" target="_top" xlink:title=" ">
<polygon fill="none" stroke="black" points="451.12,-235.5 451.12,-254.5 519.12,-254.5 519.12,-235.5 451.12,-235.5"/>
<text text-anchor="middle" x="485.12" y="-242.5" font-family="Helvetica,sans-Serif" font-size="10.00">modules.h</text>
</a>
</g>
</g>
<!-- Node7&#45;&gt;Node13 -->
<g id="edge13" class="edge">
<title>Node7&#45;&gt;Node13</title>
<path fill="none" stroke="midnightblue" d="M541.36,-291.32C531.36,-283.26 516.24,-271.08 504.19,-261.37"/>
<polygon fill="midnightblue" stroke="midnightblue" points="506.07,-258.38 496.09,-254.83 501.67,-263.83 506.07,-258.38"/>
</g>
<!-- Node8&#45;&gt;Node5 -->
<g id="edge8" class="edge">
<title>Node8&#45;&gt;Node5</title>
<path fill="none" stroke="midnightblue" d="M582.23,-114.83C718.1,-103.37 1005.24,-79.14 1109.9,-70.31"/>
<polygon fill="midnightblue" stroke="midnightblue" points="1110.35,-73.78 1120.02,-69.46 1109.76,-66.81 1110.35,-73.78"/>
</g>
<!-- Node8&#45;&gt;Node9 -->
<g id="edge9" class="edge">
<title>Node8&#45;&gt;Node9</title>
<path fill="none" stroke="midnightblue" d="M509.12,-112.08C509.12,-105.01 509.12,-94.86 509.12,-85.99"/>
<polygon fill="midnightblue" stroke="midnightblue" points="512.62,-85.75 509.12,-75.75 505.62,-85.75 512.62,-85.75"/>
</g>
<!-- Node10 -->
<g id="node10" class="node">
<title>Node10</title>
<g id="a_node10"><a xlink:title=" ">
<polygon fill="none" stroke="#bfbfbf" points="445.12,-0.5 445.12,-19.5 501.12,-19.5 501.12,-0.5 445.12,-0.5"/>
<text text-anchor="middle" x="473.12" y="-7.5" font-family="Helvetica,sans-Serif" font-size="10.00">stddef.h</text>
</a>
</g>
</g>
<!-- Node9&#45;&gt;Node10 -->
<g id="edge10" class="edge">
<title>Node9&#45;&gt;Node10</title>
<path fill="none" stroke="midnightblue" d="M503.18,-56.08C498.15,-48.53 490.79,-37.49 484.61,-28.23"/>
<polygon fill="midnightblue" stroke="midnightblue" points="487.42,-26.13 478.96,-19.75 481.59,-30.01 487.42,-26.13"/>
</g>
<!-- Node11 -->
<g id="node11" class="node">
<title>Node11</title>
<g id="a_node11"><a xlink:title=" ">
<polygon fill="none" stroke="#bfbfbf" points="519.62,-0.5 519.62,-19.5 572.62,-19.5 572.62,-0.5 519.62,-0.5"/>
<text text-anchor="middle" x="546.12" y="-7.5" font-family="Helvetica,sans-Serif" font-size="10.00">stdint.h</text>
</a>
</g>
</g>
<!-- Node9&#45;&gt;Node11 -->
<g id="edge11" class="edge">
<title>Node9&#45;&gt;Node11</title>
<path fill="none" stroke="midnightblue" d="M515.23,-56.08C520.41,-48.53 527.97,-37.49 534.32,-28.23"/>
<polygon fill="midnightblue" stroke="midnightblue" points="537.36,-29.98 540.13,-19.75 531.59,-26.02 537.36,-29.98"/>
</g>
<!-- Node12 -->
<g id="node12" class="node">
<title>Node12</title>
<g id="a_node12"><a xlink:title=" ">
<polygon fill="none" stroke="#bfbfbf" points="924.12,-0.5 924.12,-19.5 974.12,-19.5 974.12,-0.5 924.12,-0.5"/>
<text text-anchor="middle" x="949.12" y="-7.5" font-family="Helvetica,sans-Serif" font-size="10.00">cstdint</text>
</a>
</g>
</g>
<!-- Node9&#45;&gt;Node12 -->
<g id="edge12" class="edge">
<title>Node9&#45;&gt;Node12</title>
<path fill="none" stroke="midnightblue" d="M545.88,-60.49C629.28,-50.25 831.95,-25.38 913.88,-15.32"/>
<polygon fill="midnightblue" stroke="midnightblue" points="914.44,-18.78 923.94,-14.09 913.59,-11.83 914.44,-18.78"/>
</g>
<!-- Node13&#45;&gt;Node4 -->
<g id="edge15" class="edge">
<title>Node13&#45;&gt;Node4</title>
<path fill="none" stroke="midnightblue" d="M451.07,-236.76C402.13,-226.36 311.57,-207.12 255.05,-195.11"/>
<polygon fill="midnightblue" stroke="midnightblue" points="255.77,-191.68 245.26,-193.03 254.31,-198.53 255.77,-191.68"/>
</g>
<!-- Node14 -->
<g id="node14" class="node">
<title>Node14</title>
<g id="a_node14"><a xlink:title=" ">
<polygon fill="none" stroke="#bfbfbf" points="786.62,-112.5 786.62,-131.5 833.62,-131.5 833.62,-112.5 786.62,-112.5"/>
<text text-anchor="middle" x="810.12" y="-119.5" font-family="Helvetica,sans-Serif" font-size="10.00">vector</text>
</a>
</g>
</g>
<!-- Node13&#45;&gt;Node14 -->
<g id="edge14" class="edge">
<title>Node13&#45;&gt;Node14</title>
<path fill="none" stroke="midnightblue" d="M491.69,-235.26C504.35,-219.11 533.82,-184.72 567.12,-168 635.89,-133.48 727.57,-125.24 776.3,-123.4"/>
<polygon fill="midnightblue" stroke="midnightblue" points="776.43,-126.9 786.31,-123.09 776.21,-119.9 776.43,-126.9"/>
</g>
<!-- Node15 -->
<g id="node15" class="node">
<title>Node15</title>
<g id="a_node15"><a xlink:title=" ">
<polygon fill="none" stroke="#bfbfbf" points="395.62,-174 395.62,-193 442.62,-193 442.62,-174 395.62,-174"/>
<text text-anchor="middle" x="419.12" y="-181" font-family="Helvetica,sans-Serif" font-size="10.00">cmath</text>
</a>
</g>
</g>
<!-- Node13&#45;&gt;Node15 -->
<g id="edge16" class="edge">
<title>Node13&#45;&gt;Node15</title>
<path fill="none" stroke="midnightblue" d="M475.67,-235.48C465.38,-226.2 448.71,-211.17 436.13,-199.83"/>
<polygon fill="midnightblue" stroke="midnightblue" points="438.33,-197.11 428.56,-193.01 433.65,-202.3 438.33,-197.11"/>
</g>
<!-- Node16 -->
<g id="node16" class="node">
<title>Node16</title>
<g id="a_node16"><a xlink:href="errorsIrio_8h.html" target="_top" xlink:title=" ">
<polygon fill="none" stroke="black" points="32.12,-174 32.12,-193 102.12,-193 102.12,-174 32.12,-174"/>
<text text-anchor="middle" x="67.12" y="-181" font-family="Helvetica,sans-Serif" font-size="10.00">errorsIrio.h</text>
</a>
</g>
</g>
<!-- Node13&#45;&gt;Node16 -->
<g id="edge17" class="edge">
<title>Node13&#45;&gt;Node16</title>
<path fill="none" stroke="midnightblue" d="M450.91,-236.57C447.94,-236.01 444.98,-235.47 442.12,-235 313.13,-213.59 279.46,-218.26 150.12,-199 137.8,-197.17 124.5,-194.95 112.22,-192.8"/>
<polygon fill="midnightblue" stroke="midnightblue" points="112.65,-189.33 102.2,-191.03 111.43,-196.22 112.65,-189.33"/>
</g>
<!-- Node17 -->
<g id="node17" class="node">
<title>Node17</title>
<g id="a_node17"><a xlink:title=" ">
<polygon fill="none" stroke="#bfbfbf" points="33.62,-112.5 33.62,-131.5 98.62,-131.5 98.62,-112.5 33.62,-112.5"/>
<text text-anchor="middle" x="66.12" y="-119.5" font-family="Helvetica,sans-Serif" font-size="10.00">stdexcept</text>
</a>
</g>
</g>
<!-- Node16&#45;&gt;Node17 -->
<g id="edge18" class="edge">
<title>Node16&#45;&gt;Node17</title>
<path fill="none" stroke="midnightblue" d="M66.98,-173.98C66.84,-165.58 66.62,-152.48 66.44,-141.66"/>
<polygon fill="midnightblue" stroke="midnightblue" points="69.94,-141.45 66.27,-131.51 62.94,-141.57 69.94,-141.45"/>
</g>
<!-- Node18 -->
<g id="node18" class="node">
<title>Node18</title>
<g id="a_node18"><a xlink:title=" ">
<polygon fill="none" stroke="#bfbfbf" points="117.12,-112.5 117.12,-131.5 161.12,-131.5 161.12,-112.5 117.12,-112.5"/>
<text text-anchor="middle" x="139.12" y="-119.5" font-family="Helvetica,sans-Serif" font-size="10.00">string</text>
</a>
</g>
</g>
<!-- Node16&#45;&gt;Node18 -->
<g id="edge19" class="edge">
<title>Node16&#45;&gt;Node18</title>
<path fill="none" stroke="midnightblue" d="M77.44,-173.98C88.78,-164.61 107.2,-149.38 120.96,-138.01"/>
<polygon fill="midnightblue" stroke="midnightblue" points="123.35,-140.58 128.83,-131.51 118.89,-135.18 123.35,-140.58"/>
</g>
<!-- Node19&#45;&gt;Node8 -->
<g id="edge21" class="edge">
<title>Node19&#45;&gt;Node8</title>
<path fill="none" stroke="midnightblue" d="M357.36,-235.2C360.01,-219.57 367.66,-186.82 387.12,-168 404.16,-151.54 427.72,-141.01 449.61,-134.32"/>
<polygon fill="midnightblue" stroke="midnightblue" points="450.85,-137.6 459.51,-131.51 448.94,-130.87 450.85,-137.6"/>
</g>
<!-- Node20&#45;&gt;Node8 -->
<g id="edge23" class="edge">
<title>Node20&#45;&gt;Node8</title>
<path fill="none" stroke="midnightblue" d="M635.63,-235.35C615.44,-227.88 587.69,-215.65 567.12,-199 546.64,-182.41 529.25,-157.15 518.99,-140.37"/>
<polygon fill="midnightblue" stroke="midnightblue" points="521.91,-138.42 513.82,-131.59 515.88,-141.98 521.91,-138.42"/>
</g>
<!-- Node21&#45;&gt;Node8 -->
<g id="edge25" class="edge">
<title>Node21&#45;&gt;Node8</title>
<path fill="none" stroke="midnightblue" d="M114.44,-291.24C113.09,-267.31 112.99,-200.45 150.12,-168 189.96,-133.19 332.79,-124.71 425.83,-122.98"/>
<polygon fill="midnightblue" stroke="midnightblue" points="426.14,-126.47 436.08,-122.81 426.02,-119.47 426.14,-126.47"/>
</g>
<!-- Node22&#45;&gt;Node8 -->
<g id="edge27" class="edge">
<title>Node22&#45;&gt;Node8</title>
<path fill="none" stroke="midnightblue" d="M316.4,-291.48C292.01,-280.51 257.4,-259.86 270.12,-235 301.17,-174.37 376.75,-146.39 434.67,-133.58"/>
<polygon fill="midnightblue" stroke="midnightblue" points="435.47,-136.99 444.53,-131.51 434.03,-130.14 435.47,-136.99"/>
</g>
<!-- Node23&#45;&gt;Node8 -->
<g id="edge30" class="edge">
<title>Node23&#45;&gt;Node8</title>
<path fill="none" stroke="midnightblue" d="M767,-173.98C713.02,-163.3 620.59,-145.03 562.29,-133.51"/>
<polygon fill="midnightblue" stroke="midnightblue" points="562.66,-130.01 552.17,-131.51 561.3,-136.88 562.66,-130.01"/>
</g>
<!-- Node23&#45;&gt;Node14 -->
<g id="edge29" class="edge">
<title>Node23&#45;&gt;Node14</title>
<path fill="none" stroke="midnightblue" d="M810.12,-173.98C810.12,-165.58 810.12,-152.48 810.12,-141.66"/>
<polygon fill="midnightblue" stroke="midnightblue" points="813.62,-141.51 810.12,-131.51 806.62,-141.51 813.62,-141.51"/>
</g>
<!-- Node24&#45;&gt;Node8 -->
<g id="edge33" class="edge">
<title>Node24&#45;&gt;Node8</title>
<path fill="none" stroke="midnightblue" d="M614.42,-168.4C591.37,-158.46 560.76,-145.26 538.49,-135.66"/>
<polygon fill="midnightblue" stroke="midnightblue" points="539.77,-132.4 529.2,-131.66 537,-138.83 539.77,-132.4"/>
</g>
<!-- Node24&#45;&gt;Node14 -->
<g id="edge32" class="edge">
<title>Node24&#45;&gt;Node14</title>
<path fill="none" stroke="midnightblue" d="M685.75,-168.4C713.47,-158.28 750.43,-144.79 776.84,-135.15"/>
<polygon fill="midnightblue" stroke="midnightblue" points="778.21,-138.37 786.41,-131.66 775.81,-131.8 778.21,-138.37"/>
</g>
<!-- Node26 -->
<g id="node26" class="node">
<title>Node26</title>
<g id="a_node26"><a xlink:href="terminalsDMADAQ_8h.html" target="_top" xlink:title=" ">
<polygon fill="none" stroke="black" points="1062.62,-235.5 1062.62,-254.5 1229.62,-254.5 1229.62,-235.5 1062.62,-235.5"/>
<text text-anchor="middle" x="1146.12" y="-242.5" font-family="Helvetica,sans-Serif" font-size="10.00">terminals/terminalsDMADAQ.h</text>
</a>
</g>
</g>
<!-- Node25&#45;&gt;Node26 -->
<g id="edge35" class="edge">
<title>Node25&#45;&gt;Node26</title>
<path fill="none" stroke="midnightblue" d="M1146.12,-291.08C1146.12,-284.01 1146.12,-273.86 1146.12,-264.99"/>
<polygon fill="midnightblue" stroke="midnightblue" points="1149.62,-264.75 1146.12,-254.75 1142.62,-264.75 1149.62,-264.75"/>
</g>
<!-- Node26&#45;&gt;Node5 -->
<g id="edge36" class="edge">
<title>Node26&#45;&gt;Node5</title>
<path fill="none" stroke="midnightblue" d="M1169.58,-235.41C1185.29,-228.28 1204.74,-216.46 1214.12,-199 1236.37,-157.6 1193.08,-107.54 1166.95,-82.64"/>
<polygon fill="midnightblue" stroke="midnightblue" points="1169.21,-79.96 1159.49,-75.76 1164.47,-85.11 1169.21,-79.96"/>
</g>
<!-- Node27 -->
<g id="node27" class="node">
<title>Node27</title>
<g id="a_node27"><a xlink:href="terminalsDMACommon_8h.html" target="_top" xlink:title=" ">
<polygon fill="none" stroke="black" points="1015.62,-174 1015.62,-193 1204.62,-193 1204.62,-174 1015.62,-174"/>
<text text-anchor="middle" x="1110.12" y="-181" font-family="Helvetica,sans-Serif" font-size="10.00">terminals/terminalsDMACommon.h</text>
</a>
</g>
</g>
<!-- Node26&#45;&gt;Node27 -->
<g id="edge37" class="edge">
<title>Node26&#45;&gt;Node27</title>
<path fill="none" stroke="midnightblue" d="M1140.97,-235.48C1135.67,-226.73 1127.29,-212.87 1120.6,-201.81"/>
<polygon fill="midnightblue" stroke="midnightblue" points="1123.44,-199.75 1115.27,-193.01 1117.46,-203.38 1123.44,-199.75"/>
</g>
<!-- Node27&#45;&gt;Node5 -->
<g id="edge39" class="edge">
<title>Node27&#45;&gt;Node5</title>
<path fill="none" stroke="midnightblue" d="M1113.92,-173.65C1118.14,-163.64 1125.04,-146.81 1130.12,-132 1135.43,-116.54 1140.58,-98.69 1144.18,-85.62"/>
<polygon fill="midnightblue" stroke="midnightblue" points="1147.57,-86.48 1146.8,-75.91 1140.81,-84.65 1147.57,-86.48"/>
</g>
<!-- Node27&#45;&gt;Node8 -->
<g id="edge40" class="edge">
<title>Node27&#45;&gt;Node8</title>
<path fill="none" stroke="midnightblue" d="M1024.02,-173.98C908.86,-162.57 706.06,-142.5 592.37,-131.24"/>
<polygon fill="midnightblue" stroke="midnightblue" points="592.62,-127.75 582.33,-130.25 591.93,-134.72 592.62,-127.75"/>
</g>
<!-- Node27&#45;&gt;Node14 -->
<g id="edge38" class="edge">
<title>Node27&#45;&gt;Node14</title>
<path fill="none" stroke="midnightblue" d="M1067.14,-173.98C1006.87,-162.02 898.49,-140.53 843.74,-129.67"/>
<polygon fill="midnightblue" stroke="midnightblue" points="844.34,-126.22 833.85,-127.7 842.97,-133.08 844.34,-126.22"/>
</g>
<!-- Node28 -->
<g id="node28" class="node">
<title>Node28</title>
<g id="a_node28"><a xlink:href="frameTypes_8h.html" target="_top" xlink:title=" ">
<polygon fill="none" stroke="black" points="1037.62,-112.5 1037.62,-131.5 1120.62,-131.5 1120.62,-112.5 1037.62,-112.5"/>
<text text-anchor="middle" x="1079.12" y="-119.5" font-family="Helvetica,sans-Serif" font-size="10.00">frameTypes.h</text>
</a>
</g>
</g>
<!-- Node27&#45;&gt;Node28 -->
<g id="edge41" class="edge">
<title>Node27&#45;&gt;Node28</title>
<path fill="none" stroke="midnightblue" d="M1105.68,-173.98C1101.17,-165.32 1094.05,-151.65 1088.32,-140.65"/>
<polygon fill="midnightblue" stroke="midnightblue" points="1091.28,-138.76 1083.56,-131.51 1085.07,-141.99 1091.28,-138.76"/>
</g>
<!-- Node30 -->
<g id="node30" class="node">
<title>Node30</title>
<g id="a_node30"><a xlink:href="terminalsDMAIMAQ_8h.html" target="_top" xlink:title=" ">
<polygon fill="none" stroke="black" points="863.62,-235.5 863.62,-254.5 1034.62,-254.5 1034.62,-235.5 863.62,-235.5"/>
<text text-anchor="middle" x="949.12" y="-242.5" font-family="Helvetica,sans-Serif" font-size="10.00">terminals/terminalsDMAIMAQ.h</text>
</a>
</g>
</g>
<!-- Node29&#45;&gt;Node30 -->
<g id="edge43" class="edge">
<title>Node29&#45;&gt;Node30</title>
<path fill="none" stroke="midnightblue" d="M940.78,-291.08C942.1,-283.93 944.01,-273.64 945.66,-264.69"/>
<polygon fill="midnightblue" stroke="midnightblue" points="949.12,-265.22 947.5,-254.75 942.24,-263.95 949.12,-265.22"/>
</g>
<!-- Node30&#45;&gt;Node5 -->
<g id="edge44" class="edge">
<title>Node30&#45;&gt;Node5</title>
<path fill="none" stroke="midnightblue" d="M952.1,-235.24C960.47,-211.86 986.43,-147.41 1029.12,-112 1052.38,-92.71 1084.73,-81.23 1109.98,-74.69"/>
<polygon fill="midnightblue" stroke="midnightblue" points="1111.08,-78.03 1119.97,-72.26 1109.43,-71.22 1111.08,-78.03"/>
</g>
<!-- Node30&#45;&gt;Node14 -->
<g id="edge45" class="edge">
<title>Node30&#45;&gt;Node14</title>
<path fill="none" stroke="midnightblue" d="M944.15,-235.06C935.31,-219.78 915.55,-188.32 892.12,-168 876.74,-154.66 856.76,-143.59 840.37,-135.77"/>
<polygon fill="midnightblue" stroke="midnightblue" points="841.74,-132.55 831.19,-131.55 838.82,-138.91 841.74,-132.55"/>
</g>
<!-- Node30&#45;&gt;Node27 -->
<g id="edge46" class="edge">
<title>Node30&#45;&gt;Node27</title>
<path fill="none" stroke="midnightblue" d="M972.19,-235.48C999.81,-225.27 1046.24,-208.11 1077.52,-196.55"/>
<polygon fill="midnightblue" stroke="midnightblue" points="1078.93,-199.76 1087.1,-193.01 1076.51,-193.19 1078.93,-199.76"/>
</g>
<!-- Node31 -->
<g id="node31" class="node">
<title>Node31</title>
<g id="a_node31"><a xlink:href="imaqTypes_8h.html" target="_top" xlink:title=" ">
<polygon fill="none" stroke="black" points="910.12,-56.5 910.12,-75.5 988.12,-75.5 988.12,-56.5 910.12,-56.5"/>
<text text-anchor="middle" x="949.12" y="-63.5" font-family="Helvetica,sans-Serif" font-size="10.00">imaqTypes.h</text>
</a>
</g>
</g>
<!-- Node30&#45;&gt;Node31 -->
<g id="edge47" class="edge">
<title>Node30&#45;&gt;Node31</title>
<path fill="none" stroke="midnightblue" d="M949.12,-235.46C949.12,-208.43 949.12,-124.24 949.12,-86.11"/>
<polygon fill="midnightblue" stroke="midnightblue" points="952.62,-85.87 949.12,-75.87 945.62,-85.87 952.62,-85.87"/>
</g>
<!-- Node31&#45;&gt;Node12 -->
<g id="edge48" class="edge">
<title>Node31&#45;&gt;Node12</title>
<path fill="none" stroke="midnightblue" d="M949.12,-56.08C949.12,-49.01 949.12,-38.86 949.12,-29.99"/>
<polygon fill="midnightblue" stroke="midnightblue" points="952.62,-29.75 949.12,-19.75 945.62,-29.75 952.62,-29.75"/>
</g>
<!-- Node32&#45;&gt;Node12 -->
<g id="edge50" class="edge">
<title>Node32&#45;&gt;Node12</title>
<path fill="none" stroke="midnightblue" d="M1241.37,-57.83C1173.5,-46.95 1045.94,-26.51 984.27,-16.63"/>
<polygon fill="midnightblue" stroke="midnightblue" points="984.68,-13.15 974.25,-15.03 983.57,-20.06 984.68,-13.15"/>
</g>
</g>
</svg>
