<?xml version="1.0" encoding="UTF-8" standalone="no"?>
<!DOCTYPE svg PUBLIC "-//W3C//DTD SVG 1.1//EN"
 "http://www.w3.org/Graphics/SVG/1.1/DTD/svg11.dtd">
<!-- Generated by graphviz version 2.43.0 (0)
 -->
<!-- Title: profiles.h Pages: 1 -->
<svg width="1316pt" height="610pt"
 viewBox="0.00 0.00 1315.92 610.00" xmlns="http://www.w3.org/2000/svg" xmlns:xlink="http://www.w3.org/1999/xlink">
<g id="graph0" class="graph" transform="scale(1 1) rotate(0) translate(4 606)">
<title>profiles.h</title>
<!-- Node1 -->
<g id="node1" class="node">
<title>Node1</title>
<g id="a_node1"><a xlink:title=" ">
<polygon fill="#bfbfbf" stroke="black" points="916,-582.5 916,-601.5 978,-601.5 978,-582.5 916,-582.5"/>
<text text-anchor="middle" x="947" y="-589.5" font-family="Helvetica,sans-Serif" font-size="10.00">profiles.h</text>
</a>
</g>
</g>
<!-- Node2 -->
<g id="node2" class="node">
<title>Node2</title>
<g id="a_node2"><a xlink:href="profileCPUDAQFlexRIO_8h.html" target="_top" xlink:title=" ">
<polygon fill="none" stroke="black" points="872.5,-515.5 872.5,-545.5 1021.5,-545.5 1021.5,-515.5 872.5,-515.5"/>
<text text-anchor="start" x="880.5" y="-533.5" font-family="Helvetica,sans-Serif" font-size="10.00">profiles/profileCPUDAQFlex</text>
<text text-anchor="middle" x="947" y="-522.5" font-family="Helvetica,sans-Serif" font-size="10.00">RIO.h</text>
</a>
</g>
</g>
<!-- Node1&#45;&gt;Node2 -->
<g id="edge1" class="edge">
<title>Node1&#45;&gt;Node2</title>
<path fill="none" stroke="midnightblue" d="M947,-582.48C947,-575.47 947,-565.19 947,-555.7"/>
<polygon fill="midnightblue" stroke="midnightblue" points="950.5,-555.52 947,-545.52 943.5,-555.52 950.5,-555.52"/>
</g>
<!-- Node36 -->
<g id="node36" class="node">
<title>Node36</title>
<g id="a_node36"><a xlink:href="profileCPUDAQcRIO_8h.html" target="_top" xlink:title=" ">
<polygon fill="none" stroke="black" points="1040,-521 1040,-540 1200,-540 1200,-521 1040,-521"/>
<text text-anchor="middle" x="1120" y="-528" font-family="Helvetica,sans-Serif" font-size="10.00">profiles/profileCPUDAQcRIO.h</text>
</a>
</g>
</g>
<!-- Node1&#45;&gt;Node36 -->
<g id="edge56" class="edge">
<title>Node1&#45;&gt;Node36</title>
<path fill="none" stroke="midnightblue" d="M971.79,-582.48C1001.59,-572.22 1051.79,-554.96 1085.4,-543.4"/>
<polygon fill="midnightblue" stroke="midnightblue" points="1086.94,-546.57 1095.26,-540.01 1084.66,-539.95 1086.94,-546.57"/>
</g>
<!-- Node38 -->
<g id="node38" class="node">
<title>Node38</title>
<g id="a_node38"><a xlink:href="profileCPUIMAQFlexRIO_8h.html" target="_top" xlink:title=" ">
<polygon fill="none" stroke="black" points="700,-515.5 700,-545.5 854,-545.5 854,-515.5 700,-515.5"/>
<text text-anchor="start" x="708" y="-533.5" font-family="Helvetica,sans-Serif" font-size="10.00">profiles/profileCPUIMAQFlex</text>
<text text-anchor="middle" x="777" y="-522.5" font-family="Helvetica,sans-Serif" font-size="10.00">RIO.h</text>
</a>
</g>
</g>
<!-- Node1&#45;&gt;Node38 -->
<g id="edge60" class="edge">
<title>Node1&#45;&gt;Node38</title>
<path fill="none" stroke="midnightblue" d="M922.64,-582.48C897.68,-573.74 858.16,-559.91 826.59,-548.86"/>
<polygon fill="midnightblue" stroke="midnightblue" points="827.66,-545.52 817.07,-545.52 825.35,-552.13 827.66,-545.52"/>
</g>
<!-- Node3 -->
<g id="node3" class="node">
<title>Node3</title>
<g id="a_node3"><a xlink:href="profileCPUDAQ_8h.html" target="_top" xlink:title=" ">
<polygon fill="none" stroke="black" points="962.5,-459.5 962.5,-478.5 1099.5,-478.5 1099.5,-459.5 962.5,-459.5"/>
<text text-anchor="middle" x="1031" y="-466.5" font-family="Helvetica,sans-Serif" font-size="10.00">profiles/profileCPUDAQ.h</text>
</a>
</g>
</g>
<!-- Node2&#45;&gt;Node3 -->
<g id="edge2" class="edge">
<title>Node2&#45;&gt;Node3</title>
<path fill="none" stroke="midnightblue" d="M966.91,-515.4C979.99,-506.13 997.08,-494.03 1010.32,-484.65"/>
<polygon fill="midnightblue" stroke="midnightblue" points="1012.64,-487.29 1018.78,-478.66 1008.59,-481.58 1012.64,-487.29"/>
</g>
<!-- Node35 -->
<g id="node35" class="node">
<title>Node35</title>
<g id="a_node35"><a xlink:href="profileFlexRIO_8h.html" target="_top" xlink:title=" ">
<polygon fill="none" stroke="black" points="810,-459.5 810,-478.5 944,-478.5 944,-459.5 810,-459.5"/>
<text text-anchor="middle" x="877" y="-466.5" font-family="Helvetica,sans-Serif" font-size="10.00">profiles/profileFlexRIO.h</text>
</a>
</g>
</g>
<!-- Node2&#45;&gt;Node35 -->
<g id="edge54" class="edge">
<title>Node2&#45;&gt;Node35</title>
<path fill="none" stroke="midnightblue" d="M930.41,-515.4C919.71,-506.31 905.81,-494.49 894.87,-485.19"/>
<polygon fill="midnightblue" stroke="midnightblue" points="897.07,-482.47 887.19,-478.66 892.54,-487.8 897.07,-482.47"/>
</g>
<!-- Node4 -->
<g id="node4" class="node">
<title>Node4</title>
<g id="a_node4"><a xlink:href="profileBase_8h.html" target="_top" xlink:title=" ">
<polygon fill="none" stroke="black" points="894.5,-403.5 894.5,-422.5 1013.5,-422.5 1013.5,-403.5 894.5,-403.5"/>
<text text-anchor="middle" x="954" y="-410.5" font-family="Helvetica,sans-Serif" font-size="10.00">profiles/profileBase.h</text>
</a>
</g>
</g>
<!-- Node3&#45;&gt;Node4 -->
<g id="edge3" class="edge">
<title>Node3&#45;&gt;Node4</title>
<path fill="none" stroke="midnightblue" d="M1018.63,-459.32C1006.84,-451.06 988.87,-438.45 974.86,-428.63"/>
<polygon fill="midnightblue" stroke="midnightblue" points="976.54,-425.53 966.34,-422.65 972.52,-431.26 976.54,-425.53"/>
</g>
<!-- Node11 -->
<g id="node11" class="node">
<title>Node11</title>
<g id="a_node11"><a xlink:href="platforms_8h.html" target="_top" xlink:title=" ">
<polygon fill="none" stroke="black" points="763.5,-56.5 763.5,-75.5 836.5,-75.5 836.5,-56.5 763.5,-56.5"/>
<text text-anchor="middle" x="800" y="-63.5" font-family="Helvetica,sans-Serif" font-size="10.00">platforms.h</text>
</a>
</g>
</g>
<!-- Node3&#45;&gt;Node11 -->
<g id="edge53" class="edge">
<title>Node3&#45;&gt;Node11</title>
<path fill="none" stroke="midnightblue" d="M1076.55,-459.48C1154.47,-443.6 1305,-406.63 1305,-358 1305,-358 1305,-358 1305,-182.5 1305,-169.19 1333.44,-159.34 1208,-112 1059.84,-56.08 1008.08,-97.76 846.88,-75.94"/>
<polygon fill="midnightblue" stroke="midnightblue" points="847,-72.42 836.6,-74.48 846.01,-79.35 847,-72.42"/>
</g>
<!-- Node5 -->
<g id="node5" class="node">
<title>Node5</title>
<g id="a_node5"><a xlink:title=" ">
<polygon fill="none" stroke="#bfbfbf" points="921.5,-347.5 921.5,-366.5 986.5,-366.5 986.5,-347.5 921.5,-347.5"/>
<text text-anchor="middle" x="954" y="-354.5" font-family="Helvetica,sans-Serif" font-size="10.00">typeindex</text>
</a>
</g>
</g>
<!-- Node4&#45;&gt;Node5 -->
<g id="edge4" class="edge">
<title>Node4&#45;&gt;Node5</title>
<path fill="none" stroke="midnightblue" d="M954,-403.08C954,-396.01 954,-385.86 954,-376.99"/>
<polygon fill="midnightblue" stroke="midnightblue" points="957.5,-376.75 954,-366.75 950.5,-376.75 957.5,-376.75"/>
</g>
<!-- Node6 -->
<g id="node6" class="node">
<title>Node6</title>
<g id="a_node6"><a xlink:title=" ">
<polygon fill="none" stroke="#bfbfbf" points="1183.5,-174 1183.5,-193 1276.5,-193 1276.5,-174 1183.5,-174"/>
<text text-anchor="middle" x="1230" y="-181" font-family="Helvetica,sans-Serif" font-size="10.00">unordered_map</text>
</a>
</g>
</g>
<!-- Node4&#45;&gt;Node6 -->
<g id="edge5" class="edge">
<title>Node4&#45;&gt;Node6</title>
<path fill="none" stroke="midnightblue" d="M1004.31,-403.46C1057.93,-391.77 1141.74,-365.65 1191,-311 1218.73,-280.23 1226.75,-230.08 1229.06,-203.09"/>
<polygon fill="midnightblue" stroke="midnightblue" points="1232.56,-203.28 1229.75,-193.07 1225.57,-202.81 1232.56,-203.28"/>
</g>
<!-- Node7 -->
<g id="node7" class="node">
<title>Node7</title>
<g id="a_node7"><a xlink:title=" ">
<polygon fill="none" stroke="#bfbfbf" points="164,-56.5 164,-75.5 222,-75.5 222,-56.5 164,-56.5"/>
<text text-anchor="middle" x="193" y="-63.5" font-family="Helvetica,sans-Serif" font-size="10.00">memory</text>
</a>
</g>
</g>
<!-- Node4&#45;&gt;Node7 -->
<g id="edge6" class="edge">
<title>Node4&#45;&gt;Node7</title>
<path fill="none" stroke="midnightblue" d="M894.25,-411.12C690.87,-407.36 38,-388.54 38,-302 38,-302 38,-302 38,-182.5 38,-124.66 108.26,-92.35 154.17,-77.41"/>
<polygon fill="midnightblue" stroke="midnightblue" points="155.34,-80.71 163.85,-74.4 153.26,-74.03 155.34,-80.71"/>
</g>
<!-- Node8 -->
<g id="node8" class="node">
<title>Node8</title>
<g id="a_node8"><a xlink:href="terminals_8h.html" target="_top" xlink:title=" ">
<polygon fill="none" stroke="black" points="548,-347.5 548,-366.5 670,-366.5 670,-347.5 548,-347.5"/>
<text text-anchor="middle" x="609" y="-354.5" font-family="Helvetica,sans-Serif" font-size="10.00">terminals/terminals.h</text>
</a>
</g>
</g>
<!-- Node4&#45;&gt;Node8 -->
<g id="edge7" class="edge">
<title>Node4&#45;&gt;Node8</title>
<path fill="none" stroke="midnightblue" d="M899.33,-403.44C838.01,-393.85 738.64,-378.29 673.55,-368.1"/>
<polygon fill="midnightblue" stroke="midnightblue" points="673.83,-364.61 663.41,-366.52 672.75,-371.52 673.83,-364.61"/>
</g>
<!-- Node34 -->
<g id="node34" class="node">
<title>Node34</title>
<g id="a_node34"><a xlink:href="profilesTypes_8h.html" target="_top" xlink:title=" ">
<polygon fill="none" stroke="black" points="1122.5,-56.5 1122.5,-75.5 1211.5,-75.5 1211.5,-56.5 1122.5,-56.5"/>
<text text-anchor="middle" x="1167" y="-63.5" font-family="Helvetica,sans-Serif" font-size="10.00">profilesTypes.h</text>
</a>
</g>
</g>
<!-- Node4&#45;&gt;Node34 -->
<g id="edge51" class="edge">
<title>Node4&#45;&gt;Node34</title>
<path fill="none" stroke="midnightblue" d="M1013.73,-405.3C1052.7,-399.19 1103.79,-387.8 1145,-367 1232.02,-323.07 1257.66,-292.27 1286,-199 1302.36,-145.16 1235.01,-101.04 1194.92,-80.11"/>
<polygon fill="midnightblue" stroke="midnightblue" points="1196.37,-76.92 1185.87,-75.53 1193.21,-83.17 1196.37,-76.92"/>
</g>
<!-- Node9 -->
<g id="node9" class="node">
<title>Node9</title>
<g id="a_node9"><a xlink:href="terminalsAnalog_8h.html" target="_top" xlink:title=" ">
<polygon fill="none" stroke="black" points="1026.5,-291.5 1026.5,-310.5 1181.5,-310.5 1181.5,-291.5 1026.5,-291.5"/>
<text text-anchor="middle" x="1104" y="-298.5" font-family="Helvetica,sans-Serif" font-size="10.00">terminals/terminalsAnalog.h</text>
</a>
</g>
</g>
<!-- Node8&#45;&gt;Node9 -->
<g id="edge8" class="edge">
<title>Node8&#45;&gt;Node9</title>
<path fill="none" stroke="midnightblue" d="M670.19,-349.32C757.1,-339.84 916.73,-322.43 1016.24,-311.57"/>
<polygon fill="midnightblue" stroke="midnightblue" points="1016.71,-315.04 1026.27,-310.48 1015.95,-308.08 1016.71,-315.04"/>
</g>
<!-- Node21 -->
<g id="node21" class="node">
<title>Node21</title>
<g id="a_node21"><a xlink:href="terminalsDigital_8h.html" target="_top" xlink:title=" ">
<polygon fill="none" stroke="black" points="551,-235.5 551,-254.5 705,-254.5 705,-235.5 551,-235.5"/>
<text text-anchor="middle" x="628" y="-242.5" font-family="Helvetica,sans-Serif" font-size="10.00">terminals/terminalsDigital.h</text>
</a>
</g>
</g>
<!-- Node8&#45;&gt;Node21 -->
<g id="edge22" class="edge">
<title>Node8&#45;&gt;Node21</title>
<path fill="none" stroke="midnightblue" d="M609.05,-347.09C609.27,-334.48 610.21,-310.79 614,-291 615.71,-282.06 618.58,-272.39 621.28,-264.32"/>
<polygon fill="midnightblue" stroke="midnightblue" points="624.6,-265.41 624.61,-254.81 618,-263.09 624.6,-265.41"/>
</g>
<!-- Node22 -->
<g id="node22" class="node">
<title>Node22</title>
<g id="a_node22"><a xlink:href="terminalsAuxAnalog_8h.html" target="_top" xlink:title=" ">
<polygon fill="none" stroke="black" points="723,-235.5 723,-254.5 897,-254.5 897,-235.5 723,-235.5"/>
<text text-anchor="middle" x="810" y="-242.5" font-family="Helvetica,sans-Serif" font-size="10.00">terminals/terminalsAuxAnalog.h</text>
</a>
</g>
</g>
<!-- Node8&#45;&gt;Node22 -->
<g id="edge24" class="edge">
<title>Node8&#45;&gt;Node22</title>
<path fill="none" stroke="midnightblue" d="M611.65,-347.4C616.4,-333.42 627.73,-305.82 647,-291 669.18,-273.95 697.43,-263.35 724.16,-256.77"/>
<polygon fill="midnightblue" stroke="midnightblue" points="724.97,-260.18 733.93,-254.53 723.4,-253.36 724.97,-260.18"/>
</g>
<!-- Node23 -->
<g id="node23" class="node">
<title>Node23</title>
<g id="a_node23"><a xlink:href="terminalsAuxDigital_8h.html" target="_top" xlink:title=" ">
<polygon fill="none" stroke="black" points="656.5,-291.5 656.5,-310.5 829.5,-310.5 829.5,-291.5 656.5,-291.5"/>
<text text-anchor="middle" x="743" y="-298.5" font-family="Helvetica,sans-Serif" font-size="10.00">terminals/terminalsAuxDigital.h</text>
</a>
</g>
</g>
<!-- Node8&#45;&gt;Node23 -->
<g id="edge26" class="edge">
<title>Node8&#45;&gt;Node23</title>
<path fill="none" stroke="midnightblue" d="M630.23,-347.44C652.38,-338.52 687.32,-324.44 712.44,-314.32"/>
<polygon fill="midnightblue" stroke="midnightblue" points="713.9,-317.5 721.87,-310.52 711.28,-311.01 713.9,-317.5"/>
</g>
<!-- Node24 -->
<g id="node24" class="node">
<title>Node24</title>
<g id="a_node24"><a xlink:href="terminalsFlexRIO_8h.html" target="_top" xlink:title=" ">
<polygon fill="none" stroke="black" points="848,-291.5 848,-310.5 1008,-310.5 1008,-291.5 848,-291.5"/>
<text text-anchor="middle" x="928" y="-298.5" font-family="Helvetica,sans-Serif" font-size="10.00">terminals/terminalsFlexRIO.h</text>
</a>
</g>
</g>
<!-- Node8&#45;&gt;Node24 -->
<g id="edge28" class="edge">
<title>Node8&#45;&gt;Node24</title>
<path fill="none" stroke="midnightblue" d="M659.55,-347.44C716.01,-337.89 807.37,-322.42 867.57,-312.23"/>
<polygon fill="midnightblue" stroke="midnightblue" points="868.41,-315.64 877.69,-310.52 867.25,-308.73 868.41,-315.64"/>
</g>
<!-- Node25 -->
<g id="node25" class="node">
<title>Node25</title>
<g id="a_node25"><a xlink:href="terminalsCRIO_8h.html" target="_top" xlink:title=" ">
<polygon fill="none" stroke="black" points="464,-174 464,-193 610,-193 610,-174 464,-174"/>
<text text-anchor="middle" x="537" y="-181" font-family="Helvetica,sans-Serif" font-size="10.00">terminals/terminalsCRIO.h</text>
</a>
</g>
</g>
<!-- Node8&#45;&gt;Node25 -->
<g id="edge30" class="edge">
<title>Node8&#45;&gt;Node25</title>
<path fill="none" stroke="midnightblue" d="M570.08,-347.41C550,-340.88 527.04,-329.71 514,-311 494.64,-283.23 500.52,-267.77 509,-235 512.09,-223.06 518.67,-210.94 524.68,-201.56"/>
<polygon fill="midnightblue" stroke="midnightblue" points="527.63,-203.45 530.35,-193.21 521.84,-199.52 527.63,-203.45"/>
</g>
<!-- Node26 -->
<g id="node26" class="node">
<title>Node26</title>
<g id="a_node26"><a xlink:href="terminalsSignalGeneration_8h.html" target="_top" xlink:title=" ">
<polygon fill="none" stroke="black" points="628.5,-168.5 628.5,-198.5 771.5,-198.5 771.5,-168.5 628.5,-168.5"/>
<text text-anchor="start" x="636.5" y="-186.5" font-family="Helvetica,sans-Serif" font-size="10.00">terminals/terminalsSignal</text>
<text text-anchor="middle" x="700" y="-175.5" font-family="Helvetica,sans-Serif" font-size="10.00">Generation.h</text>
</a>
</g>
</g>
<!-- Node8&#45;&gt;Node26 -->
<g id="edge33" class="edge">
<title>Node8&#45;&gt;Node26</title>
<path fill="none" stroke="midnightblue" d="M597.5,-347.35C571.65,-326.86 513.4,-274.17 542,-235 551.89,-221.45 585.5,-209.78 619.19,-201.08"/>
<polygon fill="midnightblue" stroke="midnightblue" points="620.3,-204.41 629.15,-198.59 618.6,-197.62 620.3,-204.41"/>
</g>
<!-- Node27 -->
<g id="node27" class="node">
<title>Node27</title>
<g id="a_node27"><a xlink:href="terminalsDMADAQCPU_8h.html" target="_top" xlink:title=" ">
<polygon fill="none" stroke="black" points="65.5,-291.5 65.5,-310.5 252.5,-310.5 252.5,-291.5 65.5,-291.5"/>
<text text-anchor="middle" x="159" y="-298.5" font-family="Helvetica,sans-Serif" font-size="10.00">terminals/terminalsDMADAQCPU.h</text>
</a>
</g>
</g>
<!-- Node8&#45;&gt;Node27 -->
<g id="edge36" class="edge">
<title>Node8&#45;&gt;Node27</title>
<path fill="none" stroke="midnightblue" d="M547.84,-348.66C468.13,-339.1 328.49,-322.34 240.03,-311.72"/>
<polygon fill="midnightblue" stroke="midnightblue" points="240.38,-308.24 230.04,-310.52 239.55,-315.19 240.38,-308.24"/>
</g>
<!-- Node31 -->
<g id="node31" class="node">
<title>Node31</title>
<g id="a_node31"><a xlink:href="terminalsDMAIMAQCPU_8h.html" target="_top" xlink:title=" ">
<polygon fill="none" stroke="black" points="270.5,-291.5 270.5,-310.5 461.5,-310.5 461.5,-291.5 270.5,-291.5"/>
<text text-anchor="middle" x="366" y="-298.5" font-family="Helvetica,sans-Serif" font-size="10.00">terminals/terminalsDMAIMAQCPU.h</text>
</a>
</g>
</g>
<!-- Node8&#45;&gt;Node31 -->
<g id="edge44" class="edge">
<title>Node8&#45;&gt;Node31</title>
<path fill="none" stroke="midnightblue" d="M570.5,-347.44C528.19,-338.04 460.18,-322.93 414.33,-312.74"/>
<polygon fill="midnightblue" stroke="midnightblue" points="414.85,-309.27 404.32,-310.52 413.33,-316.1 414.85,-309.27"/>
</g>
<!-- Node10 -->
<g id="node10" class="node">
<title>Node10</title>
<g id="a_node10"><a xlink:href="terminalsBase_8h.html" target="_top" xlink:title=" ">
<polygon fill="none" stroke="black" points="727,-112.5 727,-131.5 873,-131.5 873,-112.5 727,-112.5"/>
<text text-anchor="middle" x="800" y="-119.5" font-family="Helvetica,sans-Serif" font-size="10.00">terminals/terminalsBase.h</text>
</a>
</g>
</g>
<!-- Node9&#45;&gt;Node10 -->
<g id="edge9" class="edge">
<title>Node9&#45;&gt;Node10</title>
<path fill="none" stroke="midnightblue" d="M1094.65,-291.47C1069.27,-268.67 996.25,-205.52 926,-168 899.14,-153.65 866.75,-142.2 841.53,-134.44"/>
<polygon fill="midnightblue" stroke="midnightblue" points="842.48,-131.07 831.9,-131.54 840.47,-137.77 842.48,-131.07"/>
</g>
<!-- Node15 -->
<g id="node15" class="node">
<title>Node15</title>
<g id="a_node15"><a xlink:href="modules_8h.html" target="_top" xlink:title=" ">
<polygon fill="none" stroke="black" points="1070,-235.5 1070,-254.5 1138,-254.5 1138,-235.5 1070,-235.5"/>
<text text-anchor="middle" x="1104" y="-242.5" font-family="Helvetica,sans-Serif" font-size="10.00">modules.h</text>
</a>
</g>
</g>
<!-- Node9&#45;&gt;Node15 -->
<g id="edge15" class="edge">
<title>Node9&#45;&gt;Node15</title>
<path fill="none" stroke="midnightblue" d="M1104,-291.08C1104,-284.01 1104,-273.86 1104,-264.99"/>
<polygon fill="midnightblue" stroke="midnightblue" points="1107.5,-264.75 1104,-254.75 1100.5,-264.75 1107.5,-264.75"/>
</g>
<!-- Node10&#45;&gt;Node7 -->
<g id="edge10" class="edge">
<title>Node10&#45;&gt;Node7</title>
<path fill="none" stroke="midnightblue" d="M726.78,-114.49C597.33,-102.97 332.29,-79.39 232.32,-70.5"/>
<polygon fill="midnightblue" stroke="midnightblue" points="232.34,-66.99 222.07,-69.59 231.72,-73.96 232.34,-66.99"/>
</g>
<!-- Node10&#45;&gt;Node11 -->
<g id="edge11" class="edge">
<title>Node10&#45;&gt;Node11</title>
<path fill="none" stroke="midnightblue" d="M800,-112.08C800,-105.01 800,-94.86 800,-85.99"/>
<polygon fill="midnightblue" stroke="midnightblue" points="803.5,-85.75 800,-75.75 796.5,-85.75 803.5,-85.75"/>
</g>
<!-- Node12 -->
<g id="node12" class="node">
<title>Node12</title>
<g id="a_node12"><a xlink:title=" ">
<polygon fill="none" stroke="#bfbfbf" points="784,-0.5 784,-19.5 840,-19.5 840,-0.5 784,-0.5"/>
<text text-anchor="middle" x="812" y="-7.5" font-family="Helvetica,sans-Serif" font-size="10.00">stddef.h</text>
</a>
</g>
</g>
<!-- Node11&#45;&gt;Node12 -->
<g id="edge12" class="edge">
<title>Node11&#45;&gt;Node12</title>
<path fill="none" stroke="midnightblue" d="M801.98,-56.08C803.57,-48.93 805.86,-38.64 807.85,-29.69"/>
<polygon fill="midnightblue" stroke="midnightblue" points="811.3,-30.27 810.06,-19.75 804.47,-28.75 811.3,-30.27"/>
</g>
<!-- Node13 -->
<g id="node13" class="node">
<title>Node13</title>
<g id="a_node13"><a xlink:title=" ">
<polygon fill="none" stroke="#bfbfbf" points="712.5,-0.5 712.5,-19.5 765.5,-19.5 765.5,-0.5 712.5,-0.5"/>
<text text-anchor="middle" x="739" y="-7.5" font-family="Helvetica,sans-Serif" font-size="10.00">stdint.h</text>
</a>
</g>
</g>
<!-- Node11&#45;&gt;Node13 -->
<g id="edge13" class="edge">
<title>Node11&#45;&gt;Node13</title>
<path fill="none" stroke="midnightblue" d="M790.2,-56.32C781.18,-48.34 767.59,-36.31 756.68,-26.65"/>
<polygon fill="midnightblue" stroke="midnightblue" points="758.79,-23.84 748.98,-19.83 754.15,-29.08 758.79,-23.84"/>
</g>
<!-- Node14 -->
<g id="node14" class="node">
<title>Node14</title>
<g id="a_node14"><a xlink:title=" ">
<polygon fill="none" stroke="#bfbfbf" points="869,-0.5 869,-19.5 919,-19.5 919,-0.5 869,-0.5"/>
<text text-anchor="middle" x="894" y="-7.5" font-family="Helvetica,sans-Serif" font-size="10.00">cstdint</text>
</a>
</g>
</g>
<!-- Node11&#45;&gt;Node14 -->
<g id="edge14" class="edge">
<title>Node11&#45;&gt;Node14</title>
<path fill="none" stroke="midnightblue" d="M815.1,-56.32C829.9,-47.82 852.69,-34.73 869.98,-24.8"/>
<polygon fill="midnightblue" stroke="midnightblue" points="872.01,-27.67 878.93,-19.65 868.52,-21.6 872.01,-27.67"/>
</g>
<!-- Node15&#45;&gt;Node6 -->
<g id="edge17" class="edge">
<title>Node15&#45;&gt;Node6</title>
<path fill="none" stroke="midnightblue" d="M1122.05,-235.48C1143.2,-225.49 1178.44,-208.85 1202.88,-197.31"/>
<polygon fill="midnightblue" stroke="midnightblue" points="1204.43,-200.44 1211.98,-193.01 1201.44,-194.11 1204.43,-200.44"/>
</g>
<!-- Node16 -->
<g id="node16" class="node">
<title>Node16</title>
<g id="a_node16"><a xlink:title=" ">
<polygon fill="none" stroke="#bfbfbf" points="513.5,-112.5 513.5,-131.5 560.5,-131.5 560.5,-112.5 513.5,-112.5"/>
<text text-anchor="middle" x="537" y="-119.5" font-family="Helvetica,sans-Serif" font-size="10.00">vector</text>
</a>
</g>
</g>
<!-- Node15&#45;&gt;Node16 -->
<g id="edge16" class="edge">
<title>Node15&#45;&gt;Node16</title>
<path fill="none" stroke="midnightblue" d="M1070.07,-235.48C1011.21,-220.83 886.31,-190.3 780,-168 705.44,-152.36 617.4,-136.77 570.45,-128.68"/>
<polygon fill="midnightblue" stroke="midnightblue" points="570.98,-125.22 560.53,-126.98 569.79,-132.12 570.98,-125.22"/>
</g>
<!-- Node17 -->
<g id="node17" class="node">
<title>Node17</title>
<g id="a_node17"><a xlink:title=" ">
<polygon fill="none" stroke="#bfbfbf" points="1029.5,-174 1029.5,-193 1076.5,-193 1076.5,-174 1029.5,-174"/>
<text text-anchor="middle" x="1053" y="-181" font-family="Helvetica,sans-Serif" font-size="10.00">cmath</text>
</a>
</g>
</g>
<!-- Node15&#45;&gt;Node17 -->
<g id="edge18" class="edge">
<title>Node15&#45;&gt;Node17</title>
<path fill="none" stroke="midnightblue" d="M1096.69,-235.48C1088.97,-226.46 1076.59,-212.02 1066.98,-200.81"/>
<polygon fill="midnightblue" stroke="midnightblue" points="1069.46,-198.32 1060.29,-193.01 1064.14,-202.88 1069.46,-198.32"/>
</g>
<!-- Node18 -->
<g id="node18" class="node">
<title>Node18</title>
<g id="a_node18"><a xlink:href="errorsIrio_8h.html" target="_top" xlink:title=" ">
<polygon fill="none" stroke="black" points="1095,-174 1095,-193 1165,-193 1165,-174 1095,-174"/>
<text text-anchor="middle" x="1130" y="-181" font-family="Helvetica,sans-Serif" font-size="10.00">errorsIrio.h</text>
</a>
</g>
</g>
<!-- Node15&#45;&gt;Node18 -->
<g id="edge19" class="edge">
<title>Node15&#45;&gt;Node18</title>
<path fill="none" stroke="midnightblue" d="M1107.73,-235.48C1111.47,-226.9 1117.36,-213.43 1122.14,-202.48"/>
<polygon fill="midnightblue" stroke="midnightblue" points="1125.48,-203.57 1126.28,-193.01 1119.07,-200.77 1125.48,-203.57"/>
</g>
<!-- Node19 -->
<g id="node19" class="node">
<title>Node19</title>
<g id="a_node19"><a xlink:title=" ">
<polygon fill="none" stroke="#bfbfbf" points="1133.5,-112.5 1133.5,-131.5 1198.5,-131.5 1198.5,-112.5 1133.5,-112.5"/>
<text text-anchor="middle" x="1166" y="-119.5" font-family="Helvetica,sans-Serif" font-size="10.00">stdexcept</text>
</a>
</g>
</g>
<!-- Node18&#45;&gt;Node19 -->
<g id="edge20" class="edge">
<title>Node18&#45;&gt;Node19</title>
<path fill="none" stroke="midnightblue" d="M1135.16,-173.98C1140.45,-165.23 1148.84,-151.37 1155.53,-140.31"/>
<polygon fill="midnightblue" stroke="midnightblue" points="1158.67,-141.88 1160.85,-131.51 1152.68,-138.25 1158.67,-141.88"/>
</g>
<!-- Node20 -->
<g id="node20" class="node">
<title>Node20</title>
<g id="a_node20"><a xlink:title=" ">
<polygon fill="none" stroke="#bfbfbf" points="1071,-112.5 1071,-131.5 1115,-131.5 1115,-112.5 1071,-112.5"/>
<text text-anchor="middle" x="1093" y="-119.5" font-family="Helvetica,sans-Serif" font-size="10.00">string</text>
</a>
</g>
</g>
<!-- Node18&#45;&gt;Node20 -->
<g id="edge21" class="edge">
<title>Node18&#45;&gt;Node20</title>
<path fill="none" stroke="midnightblue" d="M1124.7,-173.98C1119.26,-165.23 1110.64,-151.37 1103.76,-140.31"/>
<polygon fill="midnightblue" stroke="midnightblue" points="1106.54,-138.15 1098.29,-131.51 1100.6,-141.85 1106.54,-138.15"/>
</g>
<!-- Node21&#45;&gt;Node10 -->
<g id="edge23" class="edge">
<title>Node21&#45;&gt;Node10</title>
<path fill="none" stroke="midnightblue" d="M705.23,-236.71C732.08,-230.5 760.36,-219.25 780,-199 794.74,-183.8 798.96,-159.1 800,-142"/>
<polygon fill="midnightblue" stroke="midnightblue" points="803.51,-141.69 800.3,-131.59 796.51,-141.49 803.51,-141.69"/>
</g>
<!-- Node22&#45;&gt;Node10 -->
<g id="edge25" class="edge">
<title>Node22&#45;&gt;Node10</title>
<path fill="none" stroke="midnightblue" d="M811.64,-235.05C813.99,-220.78 817.65,-192.04 814,-168 812.63,-159 809.81,-149.33 807.05,-141.26"/>
<polygon fill="midnightblue" stroke="midnightblue" points="810.31,-139.98 803.6,-131.78 803.73,-142.37 810.31,-139.98"/>
</g>
<!-- Node23&#45;&gt;Node10 -->
<g id="edge27" class="edge">
<title>Node23&#45;&gt;Node10</title>
<path fill="none" stroke="midnightblue" d="M801.52,-291.43C842.87,-284.04 893.15,-271.88 906,-255 939.53,-210.96 866.36,-160.28 825.33,-136.56"/>
<polygon fill="midnightblue" stroke="midnightblue" points="826.83,-133.39 816.4,-131.53 823.39,-139.48 826.83,-133.39"/>
</g>
<!-- Node24&#45;&gt;Node10 -->
<g id="edge29" class="edge">
<title>Node24&#45;&gt;Node10</title>
<path fill="none" stroke="midnightblue" d="M929.1,-291.26C931.52,-267.94 934.71,-203.61 902,-168 887.44,-152.15 866.28,-141.58 847,-134.69"/>
<polygon fill="midnightblue" stroke="midnightblue" points="848.03,-131.34 837.43,-131.51 845.82,-137.98 848.03,-131.34"/>
</g>
<!-- Node25&#45;&gt;Node10 -->
<g id="edge32" class="edge">
<title>Node25&#45;&gt;Node10</title>
<path fill="none" stroke="midnightblue" d="M574.68,-173.98C621.55,-163.37 701.61,-145.26 752.6,-133.72"/>
<polygon fill="midnightblue" stroke="midnightblue" points="753.41,-137.13 762.39,-131.51 751.86,-130.3 753.41,-137.13"/>
</g>
<!-- Node25&#45;&gt;Node16 -->
<g id="edge31" class="edge">
<title>Node25&#45;&gt;Node16</title>
<path fill="none" stroke="midnightblue" d="M537,-173.98C537,-165.58 537,-152.48 537,-141.66"/>
<polygon fill="midnightblue" stroke="midnightblue" points="540.5,-141.51 537,-131.51 533.5,-141.51 540.5,-141.51"/>
</g>
<!-- Node26&#45;&gt;Node10 -->
<g id="edge35" class="edge">
<title>Node26&#45;&gt;Node10</title>
<path fill="none" stroke="midnightblue" d="M723.7,-168.4C739.73,-158.86 760.8,-146.32 776.74,-136.84"/>
<polygon fill="midnightblue" stroke="midnightblue" points="778.64,-139.78 785.45,-131.66 775.07,-133.76 778.64,-139.78"/>
</g>
<!-- Node26&#45;&gt;Node16 -->
<g id="edge34" class="edge">
<title>Node26&#45;&gt;Node16</title>
<path fill="none" stroke="midnightblue" d="M661.37,-168.4C633.66,-158.28 596.69,-144.79 570.28,-135.15"/>
<polygon fill="midnightblue" stroke="midnightblue" points="571.31,-131.8 560.72,-131.66 568.91,-138.37 571.31,-131.8"/>
</g>
<!-- Node28 -->
<g id="node28" class="node">
<title>Node28</title>
<g id="a_node28"><a xlink:href="terminalsDMADAQ_8h.html" target="_top" xlink:title=" ">
<polygon fill="none" stroke="black" points="75.5,-235.5 75.5,-254.5 242.5,-254.5 242.5,-235.5 75.5,-235.5"/>
<text text-anchor="middle" x="159" y="-242.5" font-family="Helvetica,sans-Serif" font-size="10.00">terminals/terminalsDMADAQ.h</text>
</a>
</g>
</g>
<!-- Node27&#45;&gt;Node28 -->
<g id="edge37" class="edge">
<title>Node27&#45;&gt;Node28</title>
<path fill="none" stroke="midnightblue" d="M159,-291.08C159,-284.01 159,-273.86 159,-264.99"/>
<polygon fill="midnightblue" stroke="midnightblue" points="162.5,-264.75 159,-254.75 155.5,-264.75 162.5,-264.75"/>
</g>
<!-- Node28&#45;&gt;Node7 -->
<g id="edge38" class="edge">
<title>Node28&#45;&gt;Node7</title>
<path fill="none" stroke="midnightblue" d="M152.11,-235.32C145.73,-226.68 136.69,-212.77 133,-199 129.43,-185.69 129.35,-181.29 133,-168 141.95,-135.4 164.46,-102.68 179.22,-83.65"/>
<polygon fill="midnightblue" stroke="midnightblue" points="182.07,-85.7 185.57,-75.7 176.6,-81.33 182.07,-85.7"/>
</g>
<!-- Node29 -->
<g id="node29" class="node">
<title>Node29</title>
<g id="a_node29"><a xlink:href="terminalsDMACommon_8h.html" target="_top" xlink:title=" ">
<polygon fill="none" stroke="black" points="142.5,-174 142.5,-193 331.5,-193 331.5,-174 142.5,-174"/>
<text text-anchor="middle" x="237" y="-181" font-family="Helvetica,sans-Serif" font-size="10.00">terminals/terminalsDMACommon.h</text>
</a>
</g>
</g>
<!-- Node28&#45;&gt;Node29 -->
<g id="edge39" class="edge">
<title>Node28&#45;&gt;Node29</title>
<path fill="none" stroke="midnightblue" d="M170.18,-235.48C182.57,-226.02 202.79,-210.6 217.75,-199.19"/>
<polygon fill="midnightblue" stroke="midnightblue" points="220.02,-201.86 225.85,-193.01 215.77,-196.29 220.02,-201.86"/>
</g>
<!-- Node29&#45;&gt;Node7 -->
<g id="edge41" class="edge">
<title>Node29&#45;&gt;Node7</title>
<path fill="none" stroke="midnightblue" d="M232.09,-173.77C226.66,-163.87 217.9,-147.13 212,-132 205.99,-116.6 200.85,-98.5 197.44,-85.32"/>
<polygon fill="midnightblue" stroke="midnightblue" points="200.82,-84.42 195,-75.57 194.03,-86.12 200.82,-84.42"/>
</g>
<!-- Node29&#45;&gt;Node10 -->
<g id="edge42" class="edge">
<title>Node29&#45;&gt;Node10</title>
<path fill="none" stroke="midnightblue" d="M317.66,-173.98C423.7,-162.77 609.07,-143.18 716.5,-131.82"/>
<polygon fill="midnightblue" stroke="midnightblue" points="717.07,-135.28 726.65,-130.75 716.34,-128.32 717.07,-135.28"/>
</g>
<!-- Node29&#45;&gt;Node16 -->
<g id="edge40" class="edge">
<title>Node29&#45;&gt;Node16</title>
<path fill="none" stroke="midnightblue" d="M279.98,-173.98C340.26,-162.02 448.63,-140.53 503.39,-129.67"/>
<polygon fill="midnightblue" stroke="midnightblue" points="504.15,-133.08 513.28,-127.7 502.79,-126.22 504.15,-133.08"/>
</g>
<!-- Node30 -->
<g id="node30" class="node">
<title>Node30</title>
<g id="a_node30"><a xlink:href="frameTypes_8h.html" target="_top" xlink:title=" ">
<polygon fill="none" stroke="black" points="221.5,-112.5 221.5,-131.5 304.5,-131.5 304.5,-112.5 221.5,-112.5"/>
<text text-anchor="middle" x="263" y="-119.5" font-family="Helvetica,sans-Serif" font-size="10.00">frameTypes.h</text>
</a>
</g>
</g>
<!-- Node29&#45;&gt;Node30 -->
<g id="edge43" class="edge">
<title>Node29&#45;&gt;Node30</title>
<path fill="none" stroke="midnightblue" d="M240.73,-173.98C244.47,-165.4 250.36,-151.93 255.14,-140.98"/>
<polygon fill="midnightblue" stroke="midnightblue" points="258.48,-142.07 259.28,-131.51 252.07,-139.27 258.48,-142.07"/>
</g>
<!-- Node32 -->
<g id="node32" class="node">
<title>Node32</title>
<g id="a_node32"><a xlink:href="terminalsDMAIMAQ_8h.html" target="_top" xlink:title=" ">
<polygon fill="none" stroke="black" points="280.5,-235.5 280.5,-254.5 451.5,-254.5 451.5,-235.5 280.5,-235.5"/>
<text text-anchor="middle" x="366" y="-242.5" font-family="Helvetica,sans-Serif" font-size="10.00">terminals/terminalsDMAIMAQ.h</text>
</a>
</g>
</g>
<!-- Node31&#45;&gt;Node32 -->
<g id="edge45" class="edge">
<title>Node31&#45;&gt;Node32</title>
<path fill="none" stroke="midnightblue" d="M366,-291.08C366,-284.01 366,-273.86 366,-264.99"/>
<polygon fill="midnightblue" stroke="midnightblue" points="369.5,-264.75 366,-254.75 362.5,-264.75 369.5,-264.75"/>
</g>
<!-- Node32&#45;&gt;Node7 -->
<g id="edge46" class="edge">
<title>Node32&#45;&gt;Node7</title>
<path fill="none" stroke="midnightblue" d="M365.11,-235.47C362.21,-212.13 350.93,-146.64 313,-112 290.45,-91.4 257.58,-79.95 231.94,-73.77"/>
<polygon fill="midnightblue" stroke="midnightblue" points="232.67,-70.35 222.15,-71.57 231.14,-77.18 232.67,-70.35"/>
</g>
<!-- Node32&#45;&gt;Node16 -->
<g id="edge47" class="edge">
<title>Node32&#45;&gt;Node16</title>
<path fill="none" stroke="midnightblue" d="M374.85,-235.36C390.3,-220.52 423.57,-189.71 455,-168 472.43,-155.97 493.38,-144.52 509.74,-136.18"/>
<polygon fill="midnightblue" stroke="midnightblue" points="511.41,-139.25 518.78,-131.65 508.27,-133 511.41,-139.25"/>
</g>
<!-- Node32&#45;&gt;Node29 -->
<g id="edge48" class="edge">
<title>Node32&#45;&gt;Node29</title>
<path fill="none" stroke="midnightblue" d="M347.52,-235.48C325.87,-225.49 289.79,-208.85 264.77,-197.31"/>
<polygon fill="midnightblue" stroke="midnightblue" points="265.99,-194.02 255.45,-193.01 263.06,-200.38 265.99,-194.02"/>
</g>
<!-- Node33 -->
<g id="node33" class="node">
<title>Node33</title>
<g id="a_node33"><a xlink:href="imaqTypes_8h.html" target="_top" xlink:title=" ">
<polygon fill="none" stroke="black" points="855,-56.5 855,-75.5 933,-75.5 933,-56.5 855,-56.5"/>
<text text-anchor="middle" x="894" y="-63.5" font-family="Helvetica,sans-Serif" font-size="10.00">imaqTypes.h</text>
</a>
</g>
</g>
<!-- Node32&#45;&gt;Node33 -->
<g id="edge49" class="edge">
<title>Node32&#45;&gt;Node33</title>
<path fill="none" stroke="midnightblue" d="M369.82,-235.12C376.68,-219.93 392.35,-188.6 413,-168 446.62,-134.46 459.05,-127.32 504,-112 648.25,-62.84 694.17,-97.78 845,-76 845.1,-75.99 845.2,-75.97 845.31,-75.96"/>
<polygon fill="midnightblue" stroke="midnightblue" points="845.66,-79.44 855,-74.44 844.57,-72.53 845.66,-79.44"/>
</g>
<!-- Node33&#45;&gt;Node14 -->
<g id="edge50" class="edge">
<title>Node33&#45;&gt;Node14</title>
<path fill="none" stroke="midnightblue" d="M894,-56.08C894,-49.01 894,-38.86 894,-29.99"/>
<polygon fill="midnightblue" stroke="midnightblue" points="897.5,-29.75 894,-19.75 890.5,-29.75 897.5,-29.75"/>
</g>
<!-- Node34&#45;&gt;Node14 -->
<g id="edge52" class="edge">
<title>Node34&#45;&gt;Node14</title>
<path fill="none" stroke="midnightblue" d="M1123.74,-56.44C1069.84,-45.78 978.79,-27.77 929.03,-17.93"/>
<polygon fill="midnightblue" stroke="midnightblue" points="929.56,-14.47 919.07,-15.96 928.2,-21.33 929.56,-14.47"/>
</g>
<!-- Node35&#45;&gt;Node4 -->
<g id="edge55" class="edge">
<title>Node35&#45;&gt;Node4</title>
<path fill="none" stroke="midnightblue" d="M889.37,-459.32C901.16,-451.06 919.13,-438.45 933.14,-428.63"/>
<polygon fill="midnightblue" stroke="midnightblue" points="935.48,-431.26 941.66,-422.65 931.46,-425.53 935.48,-431.26"/>
</g>
<!-- Node36&#45;&gt;Node3 -->
<g id="edge57" class="edge">
<title>Node36&#45;&gt;Node3</title>
<path fill="none" stroke="midnightblue" d="M1107.25,-520.98C1092.97,-511.43 1069.6,-495.81 1052.49,-484.37"/>
<polygon fill="midnightblue" stroke="midnightblue" points="1053.99,-481.16 1043.73,-478.51 1050.1,-486.98 1053.99,-481.16"/>
</g>
<!-- Node37 -->
<g id="node37" class="node">
<title>Node37</title>
<g id="a_node37"><a xlink:href="profileCRIO_8h.html" target="_top" xlink:title=" ">
<polygon fill="none" stroke="black" points="1117.5,-459.5 1117.5,-478.5 1236.5,-478.5 1236.5,-459.5 1117.5,-459.5"/>
<text text-anchor="middle" x="1177" y="-466.5" font-family="Helvetica,sans-Serif" font-size="10.00">profiles/profileCRIO.h</text>
</a>
</g>
</g>
<!-- Node36&#45;&gt;Node37 -->
<g id="edge58" class="edge">
<title>Node36&#45;&gt;Node37</title>
<path fill="none" stroke="midnightblue" d="M1128.17,-520.98C1136.89,-511.87 1150.9,-497.24 1161.69,-485.98"/>
<polygon fill="midnightblue" stroke="midnightblue" points="1164.46,-488.15 1168.85,-478.51 1159.4,-483.31 1164.46,-488.15"/>
</g>
<!-- Node37&#45;&gt;Node4 -->
<g id="edge59" class="edge">
<title>Node37&#45;&gt;Node4</title>
<path fill="none" stroke="midnightblue" d="M1141.66,-459.44C1103.09,-450.1 1041.22,-435.12 999.15,-424.93"/>
<polygon fill="midnightblue" stroke="midnightblue" points="999.71,-421.47 989.17,-422.52 998.07,-428.27 999.71,-421.47"/>
</g>
<!-- Node38&#45;&gt;Node35 -->
<g id="edge61" class="edge">
<title>Node38&#45;&gt;Node35</title>
<path fill="none" stroke="midnightblue" d="M800.7,-515.4C816.73,-505.86 837.8,-493.32 853.74,-483.84"/>
<polygon fill="midnightblue" stroke="midnightblue" points="855.64,-486.78 862.45,-478.66 852.07,-480.76 855.64,-486.78"/>
</g>
<!-- Node39 -->
<g id="node39" class="node">
<title>Node39</title>
<g id="a_node39"><a xlink:href="profileCPUIMAQ_8h.html" target="_top" xlink:title=" ">
<polygon fill="none" stroke="black" points="650,-459.5 650,-478.5 792,-478.5 792,-459.5 650,-459.5"/>
<text text-anchor="middle" x="721" y="-466.5" font-family="Helvetica,sans-Serif" font-size="10.00">profiles/profileCPUIMAQ.h</text>
</a>
</g>
</g>
<!-- Node38&#45;&gt;Node39 -->
<g id="edge62" class="edge">
<title>Node38&#45;&gt;Node39</title>
<path fill="none" stroke="midnightblue" d="M763.73,-515.4C755.42,-506.58 744.7,-495.18 736.08,-486.02"/>
<polygon fill="midnightblue" stroke="midnightblue" points="738.55,-483.54 729.15,-478.66 733.45,-488.34 738.55,-483.54"/>
</g>
<!-- Node39&#45;&gt;Node4 -->
<g id="edge63" class="edge">
<title>Node39&#45;&gt;Node4</title>
<path fill="none" stroke="midnightblue" d="M757.92,-459.44C798.4,-450.06 863.42,-434.99 907.38,-424.8"/>
<polygon fill="midnightblue" stroke="midnightblue" points="908.3,-428.18 917.25,-422.52 906.72,-421.36 908.3,-428.18"/>
</g>
<!-- Node39&#45;&gt;Node11 -->
<g id="edge64" class="edge">
<title>Node39&#45;&gt;Node11</title>
<path fill="none" stroke="midnightblue" d="M649.89,-464.55C468,-454.78 0,-423.29 0,-358 0,-358 0,-358 0,-300 0,-174.07 93.55,-154.77 212,-112 311.3,-76.14 632.23,-68.85 753.24,-67.38"/>
<polygon fill="midnightblue" stroke="midnightblue" points="753.34,-70.87 763.3,-67.26 753.26,-63.88 753.34,-70.87"/>
</g>
</g>
</svg>
