<?xml version="1.0" encoding="UTF-8" standalone="no"?>
<!DOCTYPE svg PUBLIC "-//W3C//DTD SVG 1.1//EN"
 "http://www.w3.org/Graphics/SVG/1.1/DTD/svg11.dtd">
<!-- Generated by graphviz version 2.43.0 (0)
 -->
<!-- Title: profileCPUDAQ.h Pages: 1 -->
<svg width="284pt" height="140pt"
 viewBox="0.00 0.00 284.00 140.00" xmlns="http://www.w3.org/2000/svg" xmlns:xlink="http://www.w3.org/1999/xlink">
<g id="graph0" class="graph" transform="scale(1 1) rotate(0) translate(4 136)">
<title>profileCPUDAQ.h</title>
<!-- Node1 -->
<g id="node1" class="node">
<title>Node1</title>
<g id="a_node1"><a xlink:title=" ">
<polygon fill="#bfbfbf" stroke="black" points="84.5,-112.5 84.5,-131.5 182.5,-131.5 182.5,-112.5 84.5,-112.5"/>
<text text-anchor="middle" x="133.5" y="-119.5" font-family="Helvetica,sans-Serif" font-size="10.00">profileCPUDAQ.h</text>
</a>
</g>
</g>
<!-- Node2 -->
<g id="node2" class="node">
<title>Node2</title>
<g id="a_node2"><a xlink:href="profileCPUDAQcRIO_8h.html" target="_top" xlink:title=" ">
<polygon fill="none" stroke="black" points="0,-56.5 0,-75.5 121,-75.5 121,-56.5 0,-56.5"/>
<text text-anchor="middle" x="60.5" y="-63.5" font-family="Helvetica,sans-Serif" font-size="10.00">profileCPUDAQcRIO.h</text>
</a>
</g>
</g>
<!-- Node1&#45;&gt;Node2 -->
<g id="edge1" class="edge">
<title>Node1&#45;&gt;Node2</title>
<path fill="none" stroke="midnightblue" d="M113.36,-106.1C100.22,-96.38 83.52,-84.03 72.44,-75.83"/>
<polygon fill="midnightblue" stroke="midnightblue" points="111.65,-109.19 121.77,-112.32 115.81,-103.56 111.65,-109.19"/>
</g>
<!-- Node4 -->
<g id="node4" class="node">
<title>Node4</title>
<g id="a_node4"><a xlink:href="profileCPUDAQFlexRIO_8h.html" target="_top" xlink:title=" ">
<polygon fill="none" stroke="black" points="139,-56.5 139,-75.5 276,-75.5 276,-56.5 139,-56.5"/>
<text text-anchor="middle" x="207.5" y="-63.5" font-family="Helvetica,sans-Serif" font-size="10.00">profileCPUDAQFlexRIO.h</text>
</a>
</g>
</g>
<!-- Node1&#45;&gt;Node4 -->
<g id="edge3" class="edge">
<title>Node1&#45;&gt;Node4</title>
<path fill="none" stroke="midnightblue" d="M153.53,-106.38C166.91,-96.62 184.06,-84.11 195.39,-75.83"/>
<polygon fill="midnightblue" stroke="midnightblue" points="151.4,-103.6 145.39,-112.32 155.53,-109.26 151.4,-103.6"/>
</g>
<!-- Node3 -->
<g id="node3" class="node">
<title>Node3</title>
<g id="a_node3"><a xlink:href="profiles_8h.html" target="_top" xlink:title=" ">
<polygon fill="none" stroke="black" points="102.5,-0.5 102.5,-19.5 164.5,-19.5 164.5,-0.5 102.5,-0.5"/>
<text text-anchor="middle" x="133.5" y="-7.5" font-family="Helvetica,sans-Serif" font-size="10.00">profiles.h</text>
</a>
</g>
</g>
<!-- Node2&#45;&gt;Node3 -->
<g id="edge2" class="edge">
<title>Node2&#45;&gt;Node3</title>
<path fill="none" stroke="midnightblue" d="M80.64,-50.1C93.78,-40.38 110.48,-28.03 121.56,-19.83"/>
<polygon fill="midnightblue" stroke="midnightblue" points="78.19,-47.56 72.23,-56.32 82.35,-53.19 78.19,-47.56"/>
</g>
<!-- Node4&#45;&gt;Node3 -->
<g id="edge4" class="edge">
<title>Node4&#45;&gt;Node3</title>
<path fill="none" stroke="midnightblue" d="M187.47,-50.38C174.09,-40.62 156.94,-28.11 145.61,-19.83"/>
<polygon fill="midnightblue" stroke="midnightblue" points="185.47,-53.26 195.61,-56.32 189.6,-47.6 185.47,-53.26"/>
</g>
</g>
</svg>
