<?xml version="1.0" encoding="UTF-8" standalone="no"?>
<!DOCTYPE svg PUBLIC "-//W3C//DTD SVG 1.1//EN"
 "http://www.w3.org/Graphics/SVG/1.1/DTD/svg11.dtd">
<!-- Generated by graphviz version 2.43.0 (0)
 -->
<!-- Title: register.h Pages: 1 -->
<svg width="228pt" height="196pt"
 viewBox="0.00 0.00 227.50 196.00" xmlns="http://www.w3.org/2000/svg" xmlns:xlink="http://www.w3.org/1999/xlink">
<g id="graph0" class="graph" transform="scale(1 1) rotate(0) translate(4 192)">
<title>register.h</title>
<!-- Node1 -->
<g id="node1" class="node">
<title>Node1</title>
<g id="a_node1"><a xlink:title=" ">
<polygon fill="#bfbfbf" stroke="black" points="35,-168.5 35,-187.5 97,-187.5 97,-168.5 35,-168.5"/>
<text text-anchor="middle" x="66" y="-175.5" font-family="Helvetica,sans-Serif" font-size="10.00">register.h</text>
</a>
</g>
</g>
<!-- Node2 -->
<g id="node2" class="node">
<title>Node2</title>
<g id="a_node2"><a xlink:title=" ">
<polygon fill="none" stroke="#bfbfbf" points="0,-0.5 0,-19.5 44,-19.5 44,-0.5 0,-0.5"/>
<text text-anchor="middle" x="22" y="-7.5" font-family="Helvetica,sans-Serif" font-size="10.00">string</text>
</a>
</g>
</g>
<!-- Node1&#45;&gt;Node2 -->
<g id="edge1" class="edge">
<title>Node1&#45;&gt;Node2</title>
<path fill="none" stroke="midnightblue" d="M53.53,-168.29C43.18,-160.23 29.18,-147.22 23,-132 9.23,-98.05 13.75,-54.21 18.04,-29.7"/>
<polygon fill="midnightblue" stroke="midnightblue" points="21.53,-30.11 19.98,-19.63 14.65,-28.79 21.53,-30.11"/>
</g>
<!-- Node3 -->
<g id="node3" class="node">
<title>Node3</title>
<g id="a_node3"><a xlink:href="resource_8h.html" target="_top" xlink:title=" ">
<polygon fill="none" stroke="black" points="32,-112.5 32,-131.5 100,-131.5 100,-112.5 32,-112.5"/>
<text text-anchor="middle" x="66" y="-119.5" font-family="Helvetica,sans-Serif" font-size="10.00">resource.h</text>
</a>
</g>
</g>
<!-- Node1&#45;&gt;Node3 -->
<g id="edge2" class="edge">
<title>Node1&#45;&gt;Node3</title>
<path fill="none" stroke="midnightblue" d="M66,-168.08C66,-161.01 66,-150.86 66,-141.99"/>
<polygon fill="midnightblue" stroke="midnightblue" points="69.5,-141.75 66,-131.75 62.5,-141.75 69.5,-141.75"/>
</g>
<!-- Node6 -->
<g id="node6" class="node">
<title>Node6</title>
<g id="a_node6"><a xlink:title=" ">
<polygon fill="none" stroke="#bfbfbf" points="118.5,-112.5 118.5,-131.5 195.5,-131.5 195.5,-112.5 118.5,-112.5"/>
<text text-anchor="middle" x="157" y="-119.5" font-family="Helvetica,sans-Serif" font-size="10.00">pugixml.hpp</text>
</a>
</g>
</g>
<!-- Node1&#45;&gt;Node6 -->
<g id="edge7" class="edge">
<title>Node1&#45;&gt;Node6</title>
<path fill="none" stroke="midnightblue" d="M80.62,-168.32C94.95,-159.82 117.01,-146.73 133.75,-136.8"/>
<polygon fill="midnightblue" stroke="midnightblue" points="135.6,-139.77 142.42,-131.65 132.03,-133.75 135.6,-139.77"/>
</g>
<!-- Node3&#45;&gt;Node2 -->
<g id="edge3" class="edge">
<title>Node3&#45;&gt;Node2</title>
<path fill="none" stroke="midnightblue" d="M60.42,-112.33C54.9,-103.47 46.51,-89.19 41,-76 34.63,-60.74 29.52,-42.64 26.22,-29.41"/>
<polygon fill="midnightblue" stroke="midnightblue" points="29.6,-28.53 23.87,-19.62 22.8,-30.16 29.6,-28.53"/>
</g>
<!-- Node4 -->
<g id="node4" class="node">
<title>Node4</title>
<g id="a_node4"><a xlink:href="fpgatypes_8h.html" target="_top" xlink:title=" ">
<polygon fill="none" stroke="black" points="50,-56.5 50,-75.5 124,-75.5 124,-56.5 50,-56.5"/>
<text text-anchor="middle" x="87" y="-63.5" font-family="Helvetica,sans-Serif" font-size="10.00">fpgatypes.h</text>
</a>
</g>
</g>
<!-- Node3&#45;&gt;Node4 -->
<g id="edge4" class="edge">
<title>Node3&#45;&gt;Node4</title>
<path fill="none" stroke="midnightblue" d="M69.47,-112.08C72.31,-104.77 76.43,-94.18 79.96,-85.1"/>
<polygon fill="midnightblue" stroke="midnightblue" points="83.23,-86.34 83.6,-75.75 76.71,-83.8 83.23,-86.34"/>
</g>
<!-- Node5 -->
<g id="node5" class="node">
<title>Node5</title>
<g id="a_node5"><a xlink:href="elemtypes_8h.html" target="_top" xlink:title=" ">
<polygon fill="none" stroke="black" points="142.5,-56.5 142.5,-75.5 219.5,-75.5 219.5,-56.5 142.5,-56.5"/>
<text text-anchor="middle" x="181" y="-63.5" font-family="Helvetica,sans-Serif" font-size="10.00">elemtypes.h</text>
</a>
</g>
</g>
<!-- Node3&#45;&gt;Node5 -->
<g id="edge5" class="edge">
<title>Node3&#45;&gt;Node5</title>
<path fill="none" stroke="midnightblue" d="M84.22,-112.44C102.9,-103.68 132.16,-89.94 153.62,-79.86"/>
<polygon fill="midnightblue" stroke="midnightblue" points="155.3,-82.93 162.86,-75.52 152.32,-76.6 155.3,-82.93"/>
</g>
<!-- Node5&#45;&gt;Node2 -->
<g id="edge6" class="edge">
<title>Node5&#45;&gt;Node2</title>
<path fill="none" stroke="midnightblue" d="M155.81,-56.44C128.11,-47.04 83.58,-31.91 53.58,-21.72"/>
<polygon fill="midnightblue" stroke="midnightblue" points="54.6,-18.37 44,-18.47 52.35,-25 54.6,-18.37"/>
</g>
</g>
</svg>
