<?xml version="1.0" encoding="UTF-8" standalone="no"?>
<!DOCTYPE svg PUBLIC "-//W3C//DTD SVG 1.1//EN"
 "http://www.w3.org/Graphics/SVG/1.1/DTD/svg11.dtd">
<!-- Generated by graphviz version 2.43.0 (0)
 -->
<!-- Title: resource.h Pages: 1 -->
<svg width="189pt" height="140pt"
 viewBox="0.00 0.00 189.25 140.00" xmlns="http://www.w3.org/2000/svg" xmlns:xlink="http://www.w3.org/1999/xlink">
<g id="graph0" class="graph" transform="scale(1 1) rotate(0) translate(4 136)">
<title>resource.h</title>
<!-- Node1 -->
<g id="node1" class="node">
<title>Node1</title>
<g id="a_node1"><a xlink:title=" ">
<polygon fill="#bfbfbf" stroke="black" points="14.75,-112.5 14.75,-131.5 82.75,-131.5 82.75,-112.5 14.75,-112.5"/>
<text text-anchor="middle" x="48.75" y="-119.5" font-family="Helvetica,sans-Serif" font-size="10.00">resource.h</text>
</a>
</g>
</g>
<!-- Node2 -->
<g id="node2" class="node">
<title>Node2</title>
<g id="a_node2"><a xlink:title=" ">
<polygon fill="none" stroke="#bfbfbf" points="40.75,-0.5 40.75,-19.5 84.75,-19.5 84.75,-0.5 40.75,-0.5"/>
<text text-anchor="middle" x="62.75" y="-7.5" font-family="Helvetica,sans-Serif" font-size="10.00">string</text>
</a>
</g>
</g>
<!-- Node1&#45;&gt;Node2 -->
<g id="edge1" class="edge">
<title>Node1&#45;&gt;Node2</title>
<path fill="none" stroke="midnightblue" d="M34.89,-112.3C17.69,-100.32 -8.13,-77.76 2.75,-56 9.48,-42.54 22.36,-32.07 34.46,-24.62"/>
<polygon fill="midnightblue" stroke="midnightblue" points="36.48,-27.5 43.45,-19.52 33.03,-21.41 36.48,-27.5"/>
</g>
<!-- Node3 -->
<g id="node3" class="node">
<title>Node3</title>
<g id="a_node3"><a xlink:href="fpgatypes_8h.html" target="_top" xlink:title=" ">
<polygon fill="none" stroke="black" points="11.75,-56.5 11.75,-75.5 85.75,-75.5 85.75,-56.5 11.75,-56.5"/>
<text text-anchor="middle" x="48.75" y="-63.5" font-family="Helvetica,sans-Serif" font-size="10.00">fpgatypes.h</text>
</a>
</g>
</g>
<!-- Node1&#45;&gt;Node3 -->
<g id="edge2" class="edge">
<title>Node1&#45;&gt;Node3</title>
<path fill="none" stroke="midnightblue" d="M48.75,-112.08C48.75,-105.01 48.75,-94.86 48.75,-85.99"/>
<polygon fill="midnightblue" stroke="midnightblue" points="52.25,-85.75 48.75,-75.75 45.25,-85.75 52.25,-85.75"/>
</g>
<!-- Node4 -->
<g id="node4" class="node">
<title>Node4</title>
<g id="a_node4"><a xlink:href="elemtypes_8h.html" target="_top" xlink:title=" ">
<polygon fill="none" stroke="black" points="104.25,-56.5 104.25,-75.5 181.25,-75.5 181.25,-56.5 104.25,-56.5"/>
<text text-anchor="middle" x="142.75" y="-63.5" font-family="Helvetica,sans-Serif" font-size="10.00">elemtypes.h</text>
</a>
</g>
</g>
<!-- Node1&#45;&gt;Node4 -->
<g id="edge3" class="edge">
<title>Node1&#45;&gt;Node4</title>
<path fill="none" stroke="midnightblue" d="M63.85,-112.32C78.65,-103.82 101.44,-90.73 118.73,-80.8"/>
<polygon fill="midnightblue" stroke="midnightblue" points="120.76,-83.67 127.68,-75.65 117.27,-77.6 120.76,-83.67"/>
</g>
<!-- Node4&#45;&gt;Node2 -->
<g id="edge4" class="edge">
<title>Node4&#45;&gt;Node2</title>
<path fill="none" stroke="midnightblue" d="M129.9,-56.32C117.53,-47.98 98.62,-35.21 84.01,-25.35"/>
<polygon fill="midnightblue" stroke="midnightblue" points="85.82,-22.35 75.57,-19.65 81.9,-28.15 85.82,-22.35"/>
</g>
</g>
</svg>
