<?xml version="1.0" encoding="UTF-8" standalone="no"?>
<!DOCTYPE svg PUBLIC "-//W3C//DTD SVG 1.1//EN"
 "http://www.w3.org/Graphics/SVG/1.1/DTD/svg11.dtd">
<!-- Generated by graphviz version 2.43.0 (0)
 -->
<!-- Title: terminalsDMADAQCPU.h Pages: 1 -->
<svg width="410pt" height="308pt"
 viewBox="0.00 0.00 410.00 308.00" xmlns="http://www.w3.org/2000/svg" xmlns:xlink="http://www.w3.org/1999/xlink">
<g id="graph0" class="graph" transform="scale(1 1) rotate(0) translate(4 304)">
<title>terminalsDMADAQCPU.h</title>
<!-- Node1 -->
<g id="node1" class="node">
<title>Node1</title>
<g id="a_node1"><a xlink:title=" ">
<polygon fill="#bfbfbf" stroke="black" points="15,-280.5 15,-299.5 152,-299.5 152,-280.5 15,-280.5"/>
<text text-anchor="middle" x="83.5" y="-287.5" font-family="Helvetica,sans-Serif" font-size="10.00">terminalsDMADAQCPU.h</text>
</a>
</g>
</g>
<!-- Node2 -->
<g id="node2" class="node">
<title>Node2</title>
<g id="a_node2"><a xlink:href="terminalsDMADAQ_8h.html" target="_top" xlink:title=" ">
<polygon fill="none" stroke="black" points="0,-224.5 0,-243.5 167,-243.5 167,-224.5 0,-224.5"/>
<text text-anchor="middle" x="83.5" y="-231.5" font-family="Helvetica,sans-Serif" font-size="10.00">terminals/terminalsDMADAQ.h</text>
</a>
</g>
</g>
<!-- Node1&#45;&gt;Node2 -->
<g id="edge1" class="edge">
<title>Node1&#45;&gt;Node2</title>
<path fill="none" stroke="midnightblue" d="M83.5,-280.08C83.5,-273.01 83.5,-262.86 83.5,-253.99"/>
<polygon fill="midnightblue" stroke="midnightblue" points="87,-253.75 83.5,-243.75 80,-253.75 87,-253.75"/>
</g>
<!-- Node3 -->
<g id="node3" class="node">
<title>Node3</title>
<g id="a_node3"><a xlink:title=" ">
<polygon fill="none" stroke="#bfbfbf" points="31.5,-56.5 31.5,-75.5 89.5,-75.5 89.5,-56.5 31.5,-56.5"/>
<text text-anchor="middle" x="60.5" y="-63.5" font-family="Helvetica,sans-Serif" font-size="10.00">memory</text>
</a>
</g>
</g>
<!-- Node2&#45;&gt;Node3 -->
<g id="edge2" class="edge">
<title>Node2&#45;&gt;Node3</title>
<path fill="none" stroke="midnightblue" d="M71.29,-224.24C61.15,-216.14 47.46,-203.11 41.5,-188 27.78,-153.19 41.9,-109.07 52.07,-84.88"/>
<polygon fill="midnightblue" stroke="midnightblue" points="55.35,-86.11 56.22,-75.55 48.96,-83.26 55.35,-86.11"/>
</g>
<!-- Node4 -->
<g id="node4" class="node">
<title>Node4</title>
<g id="a_node4"><a xlink:href="terminalsDMACommon_8h.html" target="_top" xlink:title=" ">
<polygon fill="none" stroke="black" points="51,-168.5 51,-187.5 240,-187.5 240,-168.5 51,-168.5"/>
<text text-anchor="middle" x="145.5" y="-175.5" font-family="Helvetica,sans-Serif" font-size="10.00">terminals/terminalsDMACommon.h</text>
</a>
</g>
</g>
<!-- Node2&#45;&gt;Node4 -->
<g id="edge3" class="edge">
<title>Node2&#45;&gt;Node4</title>
<path fill="none" stroke="midnightblue" d="M93.46,-224.32C102.63,-216.34 116.44,-204.31 127.53,-194.65"/>
<polygon fill="midnightblue" stroke="midnightblue" points="130.12,-197.04 135.36,-187.83 125.52,-191.76 130.12,-197.04"/>
</g>
<!-- Node4&#45;&gt;Node3 -->
<g id="edge5" class="edge">
<title>Node4&#45;&gt;Node3</title>
<path fill="none" stroke="midnightblue" d="M126.31,-168.44C111.47,-160.88 91.48,-148.49 79.5,-132 69.67,-118.48 64.9,-99.92 62.6,-86.1"/>
<polygon fill="midnightblue" stroke="midnightblue" points="66.02,-85.25 61.19,-75.81 59.08,-86.2 66.02,-85.25"/>
</g>
<!-- Node5 -->
<g id="node5" class="node">
<title>Node5</title>
<g id="a_node5"><a xlink:title=" ">
<polygon fill="none" stroke="#bfbfbf" points="89,-112.5 89,-131.5 136,-131.5 136,-112.5 89,-112.5"/>
<text text-anchor="middle" x="112.5" y="-119.5" font-family="Helvetica,sans-Serif" font-size="10.00">vector</text>
</a>
</g>
</g>
<!-- Node4&#45;&gt;Node5 -->
<g id="edge4" class="edge">
<title>Node4&#45;&gt;Node5</title>
<path fill="none" stroke="midnightblue" d="M140.05,-168.08C135.49,-160.61 128.83,-149.72 123.21,-140.52"/>
<polygon fill="midnightblue" stroke="midnightblue" points="126.05,-138.46 117.85,-131.75 120.08,-142.11 126.05,-138.46"/>
</g>
<!-- Node6 -->
<g id="node6" class="node">
<title>Node6</title>
<g id="a_node6"><a xlink:href="terminalsBase_8h.html" target="_top" xlink:title=" ">
<polygon fill="none" stroke="black" points="154.5,-112.5 154.5,-131.5 300.5,-131.5 300.5,-112.5 154.5,-112.5"/>
<text text-anchor="middle" x="227.5" y="-119.5" font-family="Helvetica,sans-Serif" font-size="10.00">terminals/terminalsBase.h</text>
</a>
</g>
</g>
<!-- Node4&#45;&gt;Node6 -->
<g id="edge6" class="edge">
<title>Node4&#45;&gt;Node6</title>
<path fill="none" stroke="midnightblue" d="M158.67,-168.32C171.35,-159.98 190.73,-147.21 205.71,-137.35"/>
<polygon fill="midnightblue" stroke="midnightblue" points="207.93,-140.08 214.36,-131.65 204.08,-134.23 207.93,-140.08"/>
</g>
<!-- Node11 -->
<g id="node11" class="node">
<title>Node11</title>
<g id="a_node11"><a xlink:href="frameTypes_8h.html" target="_top" xlink:title=" ">
<polygon fill="none" stroke="black" points="319,-112.5 319,-131.5 402,-131.5 402,-112.5 319,-112.5"/>
<text text-anchor="middle" x="360.5" y="-119.5" font-family="Helvetica,sans-Serif" font-size="10.00">frameTypes.h</text>
</a>
</g>
</g>
<!-- Node4&#45;&gt;Node11 -->
<g id="edge12" class="edge">
<title>Node4&#45;&gt;Node11</title>
<path fill="none" stroke="midnightblue" d="M179.57,-168.44C216.68,-159.12 276.16,-144.18 316.71,-134"/>
<polygon fill="midnightblue" stroke="midnightblue" points="317.75,-137.35 326.59,-131.52 316.04,-130.56 317.75,-137.35"/>
</g>
<!-- Node6&#45;&gt;Node3 -->
<g id="edge7" class="edge">
<title>Node6&#45;&gt;Node3</title>
<path fill="none" stroke="midnightblue" d="M201.04,-112.44C172.82,-103.32 127.96,-88.81 96.53,-78.65"/>
<polygon fill="midnightblue" stroke="midnightblue" points="97.43,-75.26 86.84,-75.52 95.28,-81.92 97.43,-75.26"/>
</g>
<!-- Node7 -->
<g id="node7" class="node">
<title>Node7</title>
<g id="a_node7"><a xlink:href="platforms_8h.html" target="_top" xlink:title=" ">
<polygon fill="none" stroke="black" points="191,-56.5 191,-75.5 264,-75.5 264,-56.5 191,-56.5"/>
<text text-anchor="middle" x="227.5" y="-63.5" font-family="Helvetica,sans-Serif" font-size="10.00">platforms.h</text>
</a>
</g>
</g>
<!-- Node6&#45;&gt;Node7 -->
<g id="edge8" class="edge">
<title>Node6&#45;&gt;Node7</title>
<path fill="none" stroke="midnightblue" d="M227.5,-112.08C227.5,-105.01 227.5,-94.86 227.5,-85.99"/>
<polygon fill="midnightblue" stroke="midnightblue" points="231,-85.75 227.5,-75.75 224,-85.75 231,-85.75"/>
</g>
<!-- Node8 -->
<g id="node8" class="node">
<title>Node8</title>
<g id="a_node8"><a xlink:title=" ">
<polygon fill="none" stroke="#bfbfbf" points="126.5,-0.5 126.5,-19.5 182.5,-19.5 182.5,-0.5 126.5,-0.5"/>
<text text-anchor="middle" x="154.5" y="-7.5" font-family="Helvetica,sans-Serif" font-size="10.00">stddef.h</text>
</a>
</g>
</g>
<!-- Node7&#45;&gt;Node8 -->
<g id="edge9" class="edge">
<title>Node7&#45;&gt;Node8</title>
<path fill="none" stroke="midnightblue" d="M215.77,-56.32C204.66,-48.11 187.76,-35.6 174.52,-25.81"/>
<polygon fill="midnightblue" stroke="midnightblue" points="176.56,-22.97 166.44,-19.83 172.4,-28.59 176.56,-22.97"/>
</g>
<!-- Node9 -->
<g id="node9" class="node">
<title>Node9</title>
<g id="a_node9"><a xlink:title=" ">
<polygon fill="none" stroke="#bfbfbf" points="201,-0.5 201,-19.5 254,-19.5 254,-0.5 201,-0.5"/>
<text text-anchor="middle" x="227.5" y="-7.5" font-family="Helvetica,sans-Serif" font-size="10.00">stdint.h</text>
</a>
</g>
</g>
<!-- Node7&#45;&gt;Node9 -->
<g id="edge10" class="edge">
<title>Node7&#45;&gt;Node9</title>
<path fill="none" stroke="midnightblue" d="M227.5,-56.08C227.5,-49.01 227.5,-38.86 227.5,-29.99"/>
<polygon fill="midnightblue" stroke="midnightblue" points="231,-29.75 227.5,-19.75 224,-29.75 231,-29.75"/>
</g>
<!-- Node10 -->
<g id="node10" class="node">
<title>Node10</title>
<g id="a_node10"><a xlink:title=" ">
<polygon fill="none" stroke="#bfbfbf" points="272.5,-0.5 272.5,-19.5 322.5,-19.5 322.5,-0.5 272.5,-0.5"/>
<text text-anchor="middle" x="297.5" y="-7.5" font-family="Helvetica,sans-Serif" font-size="10.00">cstdint</text>
</a>
</g>
</g>
<!-- Node7&#45;&gt;Node10 -->
<g id="edge11" class="edge">
<title>Node7&#45;&gt;Node10</title>
<path fill="none" stroke="midnightblue" d="M238.75,-56.32C249.3,-48.18 265.3,-35.84 277.94,-26.09"/>
<polygon fill="midnightblue" stroke="midnightblue" points="280.27,-28.71 286.05,-19.83 275.99,-23.17 280.27,-28.71"/>
</g>
</g>
</svg>
