<?xml version="1.0" encoding="UTF-8" standalone="no"?>
<!DOCTYPE svg PUBLIC "-//W3C//DTD SVG 1.1//EN"
 "http://www.w3.org/Graphics/SVG/1.1/DTD/svg11.dtd">
<!-- Generated by graphviz version 2.43.0 (0)
 -->
<!-- Title: terminalsBase.h Pages: 1 -->
<svg width="216pt" height="140pt"
 viewBox="0.00 0.00 216.00 140.00" xmlns="http://www.w3.org/2000/svg" xmlns:xlink="http://www.w3.org/1999/xlink">
<g id="graph0" class="graph" transform="scale(1 1) rotate(0) translate(4 136)">
<title>terminalsBase.h</title>
<!-- Node1 -->
<g id="node1" class="node">
<title>Node1</title>
<g id="a_node1"><a xlink:title=" ">
<polygon fill="#bfbfbf" stroke="black" points="23,-112.5 23,-131.5 119,-131.5 119,-112.5 23,-112.5"/>
<text text-anchor="middle" x="71" y="-119.5" font-family="Helvetica,sans-Serif" font-size="10.00">terminalsBase.h</text>
</a>
</g>
</g>
<!-- Node2 -->
<g id="node2" class="node">
<title>Node2</title>
<g id="a_node2"><a xlink:title=" ">
<polygon fill="none" stroke="#bfbfbf" points="0,-56.5 0,-75.5 58,-75.5 58,-56.5 0,-56.5"/>
<text text-anchor="middle" x="29" y="-63.5" font-family="Helvetica,sans-Serif" font-size="10.00">memory</text>
</a>
</g>
</g>
<!-- Node1&#45;&gt;Node2 -->
<g id="edge1" class="edge">
<title>Node1&#45;&gt;Node2</title>
<path fill="none" stroke="midnightblue" d="M64.06,-112.08C58.07,-104.38 49.25,-93.03 41.95,-83.65"/>
<polygon fill="midnightblue" stroke="midnightblue" points="44.71,-81.5 35.81,-75.75 39.18,-85.79 44.71,-81.5"/>
</g>
<!-- Node3 -->
<g id="node3" class="node">
<title>Node3</title>
<g id="a_node3"><a xlink:href="platforms_8h.html" target="_top" xlink:title=" ">
<polygon fill="none" stroke="black" points="76.5,-56.5 76.5,-75.5 149.5,-75.5 149.5,-56.5 76.5,-56.5"/>
<text text-anchor="middle" x="113" y="-63.5" font-family="Helvetica,sans-Serif" font-size="10.00">platforms.h</text>
</a>
</g>
</g>
<!-- Node1&#45;&gt;Node3 -->
<g id="edge2" class="edge">
<title>Node1&#45;&gt;Node3</title>
<path fill="none" stroke="midnightblue" d="M77.94,-112.08C83.93,-104.38 92.75,-93.03 100.05,-83.65"/>
<polygon fill="midnightblue" stroke="midnightblue" points="102.82,-85.79 106.19,-75.75 97.29,-81.5 102.82,-85.79"/>
</g>
<!-- Node4 -->
<g id="node4" class="node">
<title>Node4</title>
<g id="a_node4"><a xlink:title=" ">
<polygon fill="none" stroke="#bfbfbf" points="12,-0.5 12,-19.5 68,-19.5 68,-0.5 12,-0.5"/>
<text text-anchor="middle" x="40" y="-7.5" font-family="Helvetica,sans-Serif" font-size="10.00">stddef.h</text>
</a>
</g>
</g>
<!-- Node3&#45;&gt;Node4 -->
<g id="edge3" class="edge">
<title>Node3&#45;&gt;Node4</title>
<path fill="none" stroke="midnightblue" d="M101.27,-56.32C90.16,-48.11 73.26,-35.6 60.02,-25.81"/>
<polygon fill="midnightblue" stroke="midnightblue" points="62.06,-22.97 51.94,-19.83 57.9,-28.59 62.06,-22.97"/>
</g>
<!-- Node5 -->
<g id="node5" class="node">
<title>Node5</title>
<g id="a_node5"><a xlink:title=" ">
<polygon fill="none" stroke="#bfbfbf" points="86.5,-0.5 86.5,-19.5 139.5,-19.5 139.5,-0.5 86.5,-0.5"/>
<text text-anchor="middle" x="113" y="-7.5" font-family="Helvetica,sans-Serif" font-size="10.00">stdint.h</text>
</a>
</g>
</g>
<!-- Node3&#45;&gt;Node5 -->
<g id="edge4" class="edge">
<title>Node3&#45;&gt;Node5</title>
<path fill="none" stroke="midnightblue" d="M113,-56.08C113,-49.01 113,-38.86 113,-29.99"/>
<polygon fill="midnightblue" stroke="midnightblue" points="116.5,-29.75 113,-19.75 109.5,-29.75 116.5,-29.75"/>
</g>
<!-- Node6 -->
<g id="node6" class="node">
<title>Node6</title>
<g id="a_node6"><a xlink:title=" ">
<polygon fill="none" stroke="#bfbfbf" points="158,-0.5 158,-19.5 208,-19.5 208,-0.5 158,-0.5"/>
<text text-anchor="middle" x="183" y="-7.5" font-family="Helvetica,sans-Serif" font-size="10.00">cstdint</text>
</a>
</g>
</g>
<!-- Node3&#45;&gt;Node6 -->
<g id="edge5" class="edge">
<title>Node3&#45;&gt;Node6</title>
<path fill="none" stroke="midnightblue" d="M124.25,-56.32C134.8,-48.18 150.8,-35.84 163.44,-26.09"/>
<polygon fill="midnightblue" stroke="midnightblue" points="165.77,-28.71 171.55,-19.83 161.49,-23.17 165.77,-28.71"/>
</g>
</g>
</svg>
