<?xml version="1.0" encoding="UTF-8" standalone="no"?>
<!DOCTYPE svg PUBLIC "-//W3C//DTD SVG 1.1//EN"
 "http://www.w3.org/Graphics/SVG/1.1/DTD/svg11.dtd">
<!-- Generated by graphviz version 2.43.0 (0)
 -->
<!-- Title: terminals.h Pages: 1 -->
<!--zoomable 375 -->
<svg id="main" version="1.1" xmlns="http://www.w3.org/2000/svg" xmlns:xlink="http://www.w3.org/1999/xlink" xml:space="preserve" onload="init(evt)">
<style type="text/css"><![CDATA[
.edge:hover path { stroke: red; }
.edge:hover polygon { stroke: red; fill: red; }
]]></style>
<script type="text/javascript"><![CDATA[
var edges = document.getElementsByTagName('g');
if (edges && edges.length) {
  for (var i=0;i<edges.length;i++) {
    if (edges[i].id.substr(0,4)=='edge') {
      edges[i].setAttribute('class','edge');
    }
  }
}
]]></script>
        <defs>
                <circle id="rim" cx="0" cy="0" r="7"/>
                <circle id="rim2" cx="0" cy="0" r="3.5"/>
                <g id="zoomPlus">
                        <use xlink:href="#rim" fill="#404040">
                                <set attributeName="fill" to="#808080" begin="zoomplus.mouseover" end="zoomplus.mouseout"/>
                        </use>
                        <path d="M-4,0h8M0,-4v8" fill="none" stroke="white" stroke-width="1.5" pointer-events="none"/>
                </g>
                <g id="zoomMin">
                        <use xlink:href="#rim" fill="#404040">
                                <set attributeName="fill" to="#808080" begin="zoomminus.mouseover" end="zoomminus.mouseout"/>
                        </use>
                        <path d="M-4,0h8" fill="none" stroke="white" stroke-width="1.5" pointer-events="none"/>
                </g>
                <g id="dirArrow">
                        <path fill="none" stroke="white" stroke-width="1.5" d="M0,-3.0v7 M-2.5,-0.5L0,-3.0L2.5,-0.5"/>
                </g>
               <g id="resetDef">
                       <use xlink:href="#rim2" fill="#404040">
                               <set attributeName="fill" to="#808080" begin="reset.mouseover" end="reset.mouseout"/>
                       </use>
               </g>
        </defs>

<script type="text/javascript">
var viewWidth = 1247;
var viewHeight = 375;
var sectionId = 'dynsection-0';
</script>
<script xlink:href="svgpan.js"/>
<svg id="graph" class="graph">
<g id="viewport">
<title>terminals.h</title>
<!-- Node1 -->
<g id="node1" class="node">
<title>Node1</title>
<g id="a_node1"><a xlink:title=" ">
<polygon fill="#bfbfbf" stroke="black" points="625.5,-347.5 625.5,-366.5 697.5,-366.5 697.5,-347.5 625.5,-347.5"/>
<text text-anchor="middle" x="661.5" y="-354.5" font-family="Helvetica,sans-Serif" font-size="10.00">terminals.h</text>
</a>
</g>
</g>
<!-- Node2 -->
<g id="node2" class="node">
<title>Node2</title>
<g id="a_node2"><a xlink:href="terminalsAnalog_8h.html" target="_top" xlink:title=" ">
<polygon fill="none" stroke="black" points="191,-235.5 191,-254.5 346,-254.5 346,-235.5 191,-235.5"/>
<text text-anchor="middle" x="268.5" y="-242.5" font-family="Helvetica,sans-Serif" font-size="10.00">terminals/terminalsAnalog.h</text>
</a>
</g>
</g>
<!-- Node1&#45;&gt;Node2 -->
<g id="edge1" class="edge">
<title>Node1&#45;&gt;Node2</title>
<path fill="none" stroke="midnightblue" d="M625.12,-352.91C574.3,-347.88 479.6,-335.85 402.5,-311 361.73,-297.86 317.62,-274.51 291.56,-259.66"/>
<polygon fill="midnightblue" stroke="midnightblue" points="293.22,-256.58 282.81,-254.61 289.72,-262.64 293.22,-256.58"/>
</g>
<!-- Node16 -->
<g id="node16" class="node">
<title>Node16</title>
<g id="a_node16"><a xlink:href="terminalsDigital_8h.html" target="_top" xlink:title=" ">
<polygon fill="none" stroke="black" points="402.5,-235.5 402.5,-254.5 556.5,-254.5 556.5,-235.5 402.5,-235.5"/>
<text text-anchor="middle" x="479.5" y="-242.5" font-family="Helvetica,sans-Serif" font-size="10.00">terminals/terminalsDigital.h</text>
</a>
</g>
</g>
<!-- Node1&#45;&gt;Node16 -->
<g id="edge15" class="edge">
<title>Node1&#45;&gt;Node16</title>
<path fill="none" stroke="midnightblue" d="M652.13,-347.13C637.64,-333.73 608.52,-308.09 580.5,-291 558.95,-277.86 532.89,-266.34 512.65,-258.25"/>
<polygon fill="midnightblue" stroke="midnightblue" points="513.8,-254.95 503.22,-254.56 511.25,-261.47 513.8,-254.95"/>
</g>
<!-- Node17 -->
<g id="node17" class="node">
<title>Node17</title>
<g id="a_node17"><a xlink:href="terminalsAuxAnalog_8h.html" target="_top" xlink:title=" ">
<polygon fill="none" stroke="black" points="574.5,-235.5 574.5,-254.5 748.5,-254.5 748.5,-235.5 574.5,-235.5"/>
<text text-anchor="middle" x="661.5" y="-242.5" font-family="Helvetica,sans-Serif" font-size="10.00">terminals/terminalsAuxAnalog.h</text>
</a>
</g>
</g>
<!-- Node1&#45;&gt;Node17 -->
<g id="edge17" class="edge">
<title>Node1&#45;&gt;Node17</title>
<path fill="none" stroke="midnightblue" d="M661.5,-347.37C661.5,-329.62 661.5,-288.67 661.5,-264.6"/>
<polygon fill="midnightblue" stroke="midnightblue" points="665,-264.59 661.5,-254.59 658,-264.59 665,-264.59"/>
</g>
<!-- Node18 -->
<g id="node18" class="node">
<title>Node18</title>
<g id="a_node18"><a xlink:href="terminalsAuxDigital_8h.html" target="_top" xlink:title=" ">
<polygon fill="none" stroke="black" points="85,-291.5 85,-310.5 258,-310.5 258,-291.5 85,-291.5"/>
<text text-anchor="middle" x="171.5" y="-298.5" font-family="Helvetica,sans-Serif" font-size="10.00">terminals/terminalsAuxDigital.h</text>
</a>
</g>
</g>
<!-- Node1&#45;&gt;Node18 -->
<g id="edge19" class="edge">
<title>Node1&#45;&gt;Node18</title>
<path fill="none" stroke="midnightblue" d="M625.47,-352.03C548.85,-343.59 367.86,-323.64 258.96,-311.64"/>
<polygon fill="midnightblue" stroke="midnightblue" points="259.3,-308.16 248.98,-310.54 258.54,-315.11 259.3,-308.16"/>
</g>
<!-- Node19 -->
<g id="node19" class="node">
<title>Node19</title>
<g id="a_node19"><a xlink:href="terminalsFlexRIO_8h.html" target="_top" xlink:title=" ">
<polygon fill="none" stroke="black" points="411.5,-291.5 411.5,-310.5 571.5,-310.5 571.5,-291.5 411.5,-291.5"/>
<text text-anchor="middle" x="491.5" y="-298.5" font-family="Helvetica,sans-Serif" font-size="10.00">terminals/terminalsFlexRIO.h</text>
</a>
</g>
</g>
<!-- Node1&#45;&gt;Node19 -->
<g id="edge21" class="edge">
<title>Node1&#45;&gt;Node19</title>
<path fill="none" stroke="midnightblue" d="M634.56,-347.44C605.84,-338.32 560.17,-323.81 528.18,-313.65"/>
<polygon fill="midnightblue" stroke="midnightblue" points="528.9,-310.21 518.31,-310.52 526.78,-316.88 528.9,-310.21"/>
</g>
<!-- Node20 -->
<g id="node20" class="node">
<title>Node20</title>
<g id="a_node20"><a xlink:href="terminalsCRIO_8h.html" target="_top" xlink:title=" ">
<polygon fill="none" stroke="black" points="664.5,-174 664.5,-193 810.5,-193 810.5,-174 664.5,-174"/>
<text text-anchor="middle" x="737.5" y="-181" font-family="Helvetica,sans-Serif" font-size="10.00">terminals/terminalsCRIO.h</text>
</a>
</g>
</g>
<!-- Node1&#45;&gt;Node20 -->
<g id="edge23" class="edge">
<title>Node1&#45;&gt;Node20</title>
<path fill="none" stroke="midnightblue" d="M697.74,-354.31C728.06,-350.75 769.62,-340.39 790.5,-311 810.06,-283.46 803.8,-266.05 790.5,-235 784.28,-220.48 771.6,-208.15 760.21,-199.31"/>
<polygon fill="midnightblue" stroke="midnightblue" points="762.02,-196.3 751.87,-193.25 757.9,-201.96 762.02,-196.3"/>
</g>
<!-- Node21 -->
<g id="node21" class="node">
<title>Node21</title>
<g id="a_node21"><a xlink:href="terminalsSignalGeneration_8h.html" target="_top" xlink:title=" ">
<polygon fill="none" stroke="black" points="503,-168.5 503,-198.5 646,-198.5 646,-168.5 503,-168.5"/>
<text text-anchor="start" x="511" y="-186.5" font-family="Helvetica,sans-Serif" font-size="10.00">terminals/terminalsSignal</text>
<text text-anchor="middle" x="574.5" y="-175.5" font-family="Helvetica,sans-Serif" font-size="10.00">Generation.h</text>
</a>
</g>
</g>
<!-- Node1&#45;&gt;Node21 -->
<g id="edge26" class="edge">
<title>Node1&#45;&gt;Node21</title>
<path fill="none" stroke="midnightblue" d="M677.67,-347.44C712.74,-327.77 790.07,-277.78 757.5,-235 750.58,-225.91 697.48,-211.86 650.26,-200.88"/>
<polygon fill="midnightblue" stroke="midnightblue" points="650.82,-197.42 640.29,-198.59 649.25,-204.24 650.82,-197.42"/>
</g>
<!-- Node22 -->
<g id="node22" class="node">
<title>Node22</title>
<g id="a_node22"><a xlink:href="terminalsDMADAQCPU_8h.html" target="_top" xlink:title=" ">
<polygon fill="none" stroke="black" points="1052,-291.5 1052,-310.5 1239,-310.5 1239,-291.5 1052,-291.5"/>
<text text-anchor="middle" x="1145.5" y="-298.5" font-family="Helvetica,sans-Serif" font-size="10.00">terminals/terminalsDMADAQCPU.h</text>
</a>
</g>
</g>
<!-- Node1&#45;&gt;Node22 -->
<g id="edge29" class="edge">
<title>Node1&#45;&gt;Node22</title>
<path fill="none" stroke="midnightblue" d="M697.88,-351.94C774.02,-343.45 951.96,-323.59 1059.14,-311.63"/>
<polygon fill="midnightblue" stroke="midnightblue" points="1059.74,-315.09 1069.29,-310.5 1058.96,-308.13 1059.74,-315.09"/>
</g>
<!-- Node26 -->
<g id="node26" class="node">
<title>Node26</title>
<g id="a_node26"><a xlink:href="terminalsDMAIMAQCPU_8h.html" target="_top" xlink:title=" ">
<polygon fill="none" stroke="black" points="843,-291.5 843,-310.5 1034,-310.5 1034,-291.5 843,-291.5"/>
<text text-anchor="middle" x="938.5" y="-298.5" font-family="Helvetica,sans-Serif" font-size="10.00">terminals/terminalsDMAIMAQCPU.h</text>
</a>
</g>
</g>
<!-- Node1&#45;&gt;Node26 -->
<g id="edge37" class="edge">
<title>Node1&#45;&gt;Node26</title>
<path fill="none" stroke="midnightblue" d="M697.71,-348.94C745.34,-339.66 829.44,-323.26 884.57,-312.51"/>
<polygon fill="midnightblue" stroke="midnightblue" points="885.36,-315.92 894.51,-310.58 884.02,-309.05 885.36,-315.92"/>
</g>
<!-- Node3 -->
<g id="node3" class="node">
<title>Node3</title>
<g id="a_node3"><a xlink:href="terminalsBase_8h.html" target="_top" xlink:title=" ">
<polygon fill="none" stroke="black" points="451.5,-112.5 451.5,-131.5 597.5,-131.5 597.5,-112.5 451.5,-112.5"/>
<text text-anchor="middle" x="524.5" y="-119.5" font-family="Helvetica,sans-Serif" font-size="10.00">terminals/terminalsBase.h</text>
</a>
</g>
</g>
<!-- Node2&#45;&gt;Node3 -->
<g id="edge2" class="edge">
<title>Node2&#45;&gt;Node3</title>
<path fill="none" stroke="midnightblue" d="M276.49,-235.32C291.46,-219.57 325.39,-186.24 360.5,-168 392.06,-151.6 430.23,-140.67 461.81,-133.7"/>
<polygon fill="midnightblue" stroke="midnightblue" points="462.76,-137.07 471.81,-131.57 461.3,-130.23 462.76,-137.07"/>
</g>
<!-- Node9 -->
<g id="node9" class="node">
<title>Node9</title>
<g id="a_node9"><a xlink:href="modules_8h.html" target="_top" xlink:title=" ">
<polygon fill="none" stroke="black" points="66.5,-174 66.5,-193 134.5,-193 134.5,-174 66.5,-174"/>
<text text-anchor="middle" x="100.5" y="-181" font-family="Helvetica,sans-Serif" font-size="10.00">modules.h</text>
</a>
</g>
</g>
<!-- Node2&#45;&gt;Node9 -->
<g id="edge8" class="edge">
<title>Node2&#45;&gt;Node9</title>
<path fill="none" stroke="midnightblue" d="M244.43,-235.48C215.49,-225.22 166.74,-207.96 134.1,-196.4"/>
<polygon fill="midnightblue" stroke="midnightblue" points="135.12,-193.05 124.53,-193.01 132.78,-199.65 135.12,-193.05"/>
</g>
<!-- Node4 -->
<g id="node4" class="node">
<title>Node4</title>
<g id="a_node4"><a xlink:title=" ">
<polygon fill="none" stroke="#bfbfbf" points="947.5,-56.5 947.5,-75.5 1005.5,-75.5 1005.5,-56.5 947.5,-56.5"/>
<text text-anchor="middle" x="976.5" y="-63.5" font-family="Helvetica,sans-Serif" font-size="10.00">memory</text>
</a>
</g>
</g>
<!-- Node3&#45;&gt;Node4 -->
<g id="edge3" class="edge">
<title>Node3&#45;&gt;Node4</title>
<path fill="none" stroke="midnightblue" d="M596.12,-112.44C692.65,-100.91 861.14,-80.78 937.23,-71.69"/>
<polygon fill="midnightblue" stroke="midnightblue" points="937.82,-75.15 947.33,-70.48 936.99,-68.2 937.82,-75.15"/>
</g>
<!-- Node5 -->
<g id="node5" class="node">
<title>Node5</title>
<g id="a_node5"><a xlink:href="platforms_8h.html" target="_top" xlink:title=" ">
<polygon fill="none" stroke="black" points="617,-56.5 617,-75.5 690,-75.5 690,-56.5 617,-56.5"/>
<text text-anchor="middle" x="653.5" y="-63.5" font-family="Helvetica,sans-Serif" font-size="10.00">platforms.h</text>
</a>
</g>
</g>
<!-- Node3&#45;&gt;Node5 -->
<g id="edge4" class="edge">
<title>Node3&#45;&gt;Node5</title>
<path fill="none" stroke="midnightblue" d="M544.94,-112.44C566.17,-103.56 599.6,-89.56 623.75,-79.45"/>
<polygon fill="midnightblue" stroke="midnightblue" points="625.28,-82.61 633.16,-75.52 622.58,-76.15 625.28,-82.61"/>
</g>
<!-- Node6 -->
<g id="node6" class="node">
<title>Node6</title>
<g id="a_node6"><a xlink:title=" ">
<polygon fill="none" stroke="#bfbfbf" points="661.5,-0.5 661.5,-19.5 717.5,-19.5 717.5,-0.5 661.5,-0.5"/>
<text text-anchor="middle" x="689.5" y="-7.5" font-family="Helvetica,sans-Serif" font-size="10.00">stddef.h</text>
</a>
</g>
</g>
<!-- Node5&#45;&gt;Node6 -->
<g id="edge5" class="edge">
<title>Node5&#45;&gt;Node6</title>
<path fill="none" stroke="midnightblue" d="M659.44,-56.08C664.48,-48.53 671.84,-37.49 678.01,-28.23"/>
<polygon fill="midnightblue" stroke="midnightblue" points="681.03,-30.01 683.67,-19.75 675.21,-26.13 681.03,-30.01"/>
</g>
<!-- Node7 -->
<g id="node7" class="node">
<title>Node7</title>
<g id="a_node7"><a xlink:title=" ">
<polygon fill="none" stroke="#bfbfbf" points="590,-0.5 590,-19.5 643,-19.5 643,-0.5 590,-0.5"/>
<text text-anchor="middle" x="616.5" y="-7.5" font-family="Helvetica,sans-Serif" font-size="10.00">stdint.h</text>
</a>
</g>
</g>
<!-- Node5&#45;&gt;Node7 -->
<g id="edge6" class="edge">
<title>Node5&#45;&gt;Node7</title>
<path fill="none" stroke="midnightblue" d="M647.39,-56.08C642.22,-48.53 634.65,-37.49 628.31,-28.23"/>
<polygon fill="midnightblue" stroke="midnightblue" points="631.04,-26.02 622.5,-19.75 625.26,-29.98 631.04,-26.02"/>
</g>
<!-- Node8 -->
<g id="node8" class="node">
<title>Node8</title>
<g id="a_node8"><a xlink:title=" ">
<polygon fill="none" stroke="#bfbfbf" points="927.5,-0.5 927.5,-19.5 977.5,-19.5 977.5,-0.5 927.5,-0.5"/>
<text text-anchor="middle" x="952.5" y="-7.5" font-family="Helvetica,sans-Serif" font-size="10.00">cstdint</text>
</a>
</g>
</g>
<!-- Node5&#45;&gt;Node8 -->
<g id="edge7" class="edge">
<title>Node5&#45;&gt;Node8</title>
<path fill="none" stroke="midnightblue" d="M690.16,-58.38C748.15,-47.91 860.29,-27.65 917.33,-17.35"/>
<polygon fill="midnightblue" stroke="midnightblue" points="918.09,-20.77 927.31,-15.55 916.85,-13.88 918.09,-20.77"/>
</g>
<!-- Node10 -->
<g id="node10" class="node">
<title>Node10</title>
<g id="a_node10"><a xlink:title=" ">
<polygon fill="none" stroke="#bfbfbf" points="714,-112.5 714,-131.5 761,-131.5 761,-112.5 714,-112.5"/>
<text text-anchor="middle" x="737.5" y="-119.5" font-family="Helvetica,sans-Serif" font-size="10.00">vector</text>
</a>
</g>
</g>
<!-- Node9&#45;&gt;Node10 -->
<g id="edge9" class="edge">
<title>Node9&#45;&gt;Node10</title>
<path fill="none" stroke="midnightblue" d="M134.75,-179.3C245.54,-168.95 593.41,-136.46 703.64,-126.16"/>
<polygon fill="midnightblue" stroke="midnightblue" points="704.22,-129.62 713.85,-125.21 703.56,-122.65 704.22,-129.62"/>
</g>
<!-- Node11 -->
<g id="node11" class="node">
<title>Node11</title>
<g id="a_node11"><a xlink:title=" ">
<polygon fill="none" stroke="#bfbfbf" points="154,-112.5 154,-131.5 247,-131.5 247,-112.5 154,-112.5"/>
<text text-anchor="middle" x="200.5" y="-119.5" font-family="Helvetica,sans-Serif" font-size="10.00">unordered_map</text>
</a>
</g>
</g>
<!-- Node9&#45;&gt;Node11 -->
<g id="edge10" class="edge">
<title>Node9&#45;&gt;Node11</title>
<path fill="none" stroke="midnightblue" d="M114.83,-173.98C131.16,-164.25 158.1,-148.23 177.41,-136.74"/>
<polygon fill="midnightblue" stroke="midnightblue" points="179.39,-139.63 186.2,-131.51 175.82,-133.61 179.39,-139.63"/>
</g>
<!-- Node12 -->
<g id="node12" class="node">
<title>Node12</title>
<g id="a_node12"><a xlink:title=" ">
<polygon fill="none" stroke="#bfbfbf" points="0,-112.5 0,-131.5 47,-131.5 47,-112.5 0,-112.5"/>
<text text-anchor="middle" x="23.5" y="-119.5" font-family="Helvetica,sans-Serif" font-size="10.00">cmath</text>
</a>
</g>
</g>
<!-- Node9&#45;&gt;Node12 -->
<g id="edge11" class="edge">
<title>Node9&#45;&gt;Node12</title>
<path fill="none" stroke="midnightblue" d="M89.47,-173.98C77.23,-164.52 57.27,-149.1 42.51,-137.69"/>
<polygon fill="midnightblue" stroke="midnightblue" points="44.56,-134.85 34.51,-131.51 40.28,-140.39 44.56,-134.85"/>
</g>
<!-- Node13 -->
<g id="node13" class="node">
<title>Node13</title>
<g id="a_node13"><a xlink:href="errorsIrio_8h.html" target="_top" xlink:title=" ">
<polygon fill="none" stroke="black" points="65.5,-112.5 65.5,-131.5 135.5,-131.5 135.5,-112.5 65.5,-112.5"/>
<text text-anchor="middle" x="100.5" y="-119.5" font-family="Helvetica,sans-Serif" font-size="10.00">errorsIrio.h</text>
</a>
</g>
</g>
<!-- Node9&#45;&gt;Node13 -->
<g id="edge12" class="edge">
<title>Node9&#45;&gt;Node13</title>
<path fill="none" stroke="midnightblue" d="M100.5,-173.98C100.5,-165.58 100.5,-152.48 100.5,-141.66"/>
<polygon fill="midnightblue" stroke="midnightblue" points="104,-141.51 100.5,-131.51 97,-141.51 104,-141.51"/>
</g>
<!-- Node14 -->
<g id="node14" class="node">
<title>Node14</title>
<g id="a_node14"><a xlink:title=" ">
<polygon fill="none" stroke="#bfbfbf" points="104,-56.5 104,-75.5 169,-75.5 169,-56.5 104,-56.5"/>
<text text-anchor="middle" x="136.5" y="-63.5" font-family="Helvetica,sans-Serif" font-size="10.00">stdexcept</text>
</a>
</g>
</g>
<!-- Node13&#45;&gt;Node14 -->
<g id="edge13" class="edge">
<title>Node13&#45;&gt;Node14</title>
<path fill="none" stroke="midnightblue" d="M106.44,-112.08C111.48,-104.53 118.84,-93.49 125.01,-84.23"/>
<polygon fill="midnightblue" stroke="midnightblue" points="128.03,-86.01 130.67,-75.75 122.21,-82.13 128.03,-86.01"/>
</g>
<!-- Node15 -->
<g id="node15" class="node">
<title>Node15</title>
<g id="a_node15"><a xlink:title=" ">
<polygon fill="none" stroke="#bfbfbf" points="41.5,-56.5 41.5,-75.5 85.5,-75.5 85.5,-56.5 41.5,-56.5"/>
<text text-anchor="middle" x="63.5" y="-63.5" font-family="Helvetica,sans-Serif" font-size="10.00">string</text>
</a>
</g>
</g>
<!-- Node13&#45;&gt;Node15 -->
<g id="edge14" class="edge">
<title>Node13&#45;&gt;Node15</title>
<path fill="none" stroke="midnightblue" d="M94.39,-112.08C89.22,-104.53 81.65,-93.49 75.31,-84.23"/>
<polygon fill="midnightblue" stroke="midnightblue" points="78.04,-82.02 69.5,-75.75 72.26,-85.98 78.04,-82.02"/>
</g>
<!-- Node16&#45;&gt;Node3 -->
<g id="edge16" class="edge">
<title>Node16&#45;&gt;Node3</title>
<path fill="none" stroke="midnightblue" d="M473.4,-235.1C464.15,-220.4 448.84,-190.45 460.5,-168 467.65,-154.23 481.17,-143.78 493.95,-136.44"/>
<polygon fill="midnightblue" stroke="midnightblue" points="495.82,-139.41 503.02,-131.64 492.54,-133.23 495.82,-139.41"/>
</g>
<!-- Node17&#45;&gt;Node3 -->
<g id="edge18" class="edge">
<title>Node17&#45;&gt;Node3</title>
<path fill="none" stroke="midnightblue" d="M600.68,-235.47C558.49,-228.17 507.6,-216.1 494.5,-199 480.69,-180.97 495.88,-155.77 509.21,-139.42"/>
<polygon fill="midnightblue" stroke="midnightblue" points="511.94,-141.61 515.84,-131.76 506.65,-137.03 511.94,-141.61"/>
</g>
<!-- Node18&#45;&gt;Node3 -->
<g id="edge20" class="edge">
<title>Node18&#45;&gt;Node3</title>
<path fill="none" stroke="midnightblue" d="M170.47,-291.07C169.41,-277.59 169.34,-251.85 181.5,-235 219.78,-181.98 250.87,-189.87 312.5,-168 358.2,-151.79 411.61,-140.49 453.39,-133.27"/>
<polygon fill="midnightblue" stroke="midnightblue" points="454.2,-136.69 463.48,-131.57 453.04,-129.78 454.2,-136.69"/>
</g>
<!-- Node19&#45;&gt;Node3 -->
<g id="edge22" class="edge">
<title>Node19&#45;&gt;Node3</title>
<path fill="none" stroke="midnightblue" d="M448.43,-291.49C428.1,-285.07 405.68,-273.99 393.5,-255 388.7,-247.52 390.4,-243.33 393.5,-235 411.29,-187.28 463.33,-153.51 496.21,-136.23"/>
<polygon fill="midnightblue" stroke="midnightblue" points="498.01,-139.24 505.34,-131.6 494.84,-133 498.01,-139.24"/>
</g>
<!-- Node20&#45;&gt;Node3 -->
<g id="edge25" class="edge">
<title>Node20&#45;&gt;Node3</title>
<path fill="none" stroke="midnightblue" d="M706.98,-173.98C669.58,-163.53 606.07,-145.79 564.71,-134.23"/>
<polygon fill="midnightblue" stroke="midnightblue" points="565.53,-130.83 554.96,-131.51 563.65,-137.57 565.53,-130.83"/>
</g>
<!-- Node20&#45;&gt;Node10 -->
<g id="edge24" class="edge">
<title>Node20&#45;&gt;Node10</title>
<path fill="none" stroke="midnightblue" d="M737.5,-173.98C737.5,-165.58 737.5,-152.48 737.5,-141.66"/>
<polygon fill="midnightblue" stroke="midnightblue" points="741,-141.51 737.5,-131.51 734,-141.51 741,-141.51"/>
</g>
<!-- Node21&#45;&gt;Node3 -->
<g id="edge28" class="edge">
<title>Node21&#45;&gt;Node3</title>
<path fill="none" stroke="midnightblue" d="M562.65,-168.4C555.39,-159.75 546.05,-148.64 538.43,-139.58"/>
<polygon fill="midnightblue" stroke="midnightblue" points="540.89,-137.06 531.78,-131.66 535.53,-141.57 540.89,-137.06"/>
</g>
<!-- Node21&#45;&gt;Node10 -->
<g id="edge27" class="edge">
<title>Node21&#45;&gt;Node10</title>
<path fill="none" stroke="midnightblue" d="M613.13,-168.4C640.84,-158.28 677.81,-144.79 704.22,-135.15"/>
<polygon fill="midnightblue" stroke="midnightblue" points="705.59,-138.37 713.78,-131.66 703.19,-131.8 705.59,-138.37"/>
</g>
<!-- Node23 -->
<g id="node23" class="node">
<title>Node23</title>
<g id="a_node23"><a xlink:href="terminalsDMADAQ_8h.html" target="_top" xlink:title=" ">
<polygon fill="none" stroke="black" points="1052,-235.5 1052,-254.5 1219,-254.5 1219,-235.5 1052,-235.5"/>
<text text-anchor="middle" x="1135.5" y="-242.5" font-family="Helvetica,sans-Serif" font-size="10.00">terminals/terminalsDMADAQ.h</text>
</a>
</g>
</g>
<!-- Node22&#45;&gt;Node23 -->
<g id="edge30" class="edge">
<title>Node22&#45;&gt;Node23</title>
<path fill="none" stroke="midnightblue" d="M1143.85,-291.08C1142.52,-283.93 1140.62,-273.64 1138.96,-264.69"/>
<polygon fill="midnightblue" stroke="midnightblue" points="1142.38,-263.95 1137.12,-254.75 1135.5,-265.22 1142.38,-263.95"/>
</g>
<!-- Node23&#45;&gt;Node4 -->
<g id="edge31" class="edge">
<title>Node23&#45;&gt;Node4</title>
<path fill="none" stroke="midnightblue" d="M1134.51,-235.35C1131.43,-212.25 1119.99,-148.43 1084.5,-112 1065.98,-92.99 1038.23,-81.66 1015.5,-75.13"/>
<polygon fill="midnightblue" stroke="midnightblue" points="1016.34,-71.73 1005.78,-72.53 1014.54,-78.49 1016.34,-71.73"/>
</g>
<!-- Node24 -->
<g id="node24" class="node">
<title>Node24</title>
<g id="a_node24"><a xlink:href="terminalsDMACommon_8h.html" target="_top" xlink:title=" ">
<polygon fill="none" stroke="black" points="867,-174 867,-193 1056,-193 1056,-174 867,-174"/>
<text text-anchor="middle" x="961.5" y="-181" font-family="Helvetica,sans-Serif" font-size="10.00">terminals/terminalsDMACommon.h</text>
</a>
</g>
</g>
<!-- Node23&#45;&gt;Node24 -->
<g id="edge32" class="edge">
<title>Node23&#45;&gt;Node24</title>
<path fill="none" stroke="midnightblue" d="M1110.57,-235.48C1080.46,-225.18 1029.67,-207.81 995.86,-196.25"/>
<polygon fill="midnightblue" stroke="midnightblue" points="996.98,-192.93 986.38,-193.01 994.71,-199.56 996.98,-192.93"/>
</g>
<!-- Node24&#45;&gt;Node3 -->
<g id="edge35" class="edge">
<title>Node24&#45;&gt;Node3</title>
<path fill="none" stroke="midnightblue" d="M898.89,-173.98C819.06,-163.11 681.31,-144.35 597,-132.87"/>
<polygon fill="midnightblue" stroke="midnightblue" points="597.38,-129.39 587,-131.51 596.43,-136.33 597.38,-129.39"/>
</g>
<!-- Node24&#45;&gt;Node4 -->
<g id="edge34" class="edge">
<title>Node24&#45;&gt;Node4</title>
<path fill="none" stroke="midnightblue" d="M961.26,-173.76C961.04,-160.38 961.13,-134.04 964.5,-112 965.86,-103.1 968.31,-93.42 970.64,-85.34"/>
<polygon fill="midnightblue" stroke="midnightblue" points="974.07,-86.09 973.63,-75.51 967.37,-84.05 974.07,-86.09"/>
</g>
<!-- Node24&#45;&gt;Node10 -->
<g id="edge33" class="edge">
<title>Node24&#45;&gt;Node10</title>
<path fill="none" stroke="midnightblue" d="M929.41,-173.98C887.39,-162.81 814.05,-143.33 771.23,-131.96"/>
<polygon fill="midnightblue" stroke="midnightblue" points="771.86,-128.51 761.3,-129.32 770.07,-135.27 771.86,-128.51"/>
</g>
<!-- Node25 -->
<g id="node25" class="node">
<title>Node25</title>
<g id="a_node25"><a xlink:href="frameTypes_8h.html" target="_top" xlink:title=" ">
<polygon fill="none" stroke="black" points="973,-112.5 973,-131.5 1056,-131.5 1056,-112.5 973,-112.5"/>
<text text-anchor="middle" x="1014.5" y="-119.5" font-family="Helvetica,sans-Serif" font-size="10.00">frameTypes.h</text>
</a>
</g>
</g>
<!-- Node24&#45;&gt;Node25 -->
<g id="edge36" class="edge">
<title>Node24&#45;&gt;Node25</title>
<path fill="none" stroke="midnightblue" d="M969.09,-173.98C977.2,-164.87 990.23,-150.24 1000.26,-138.98"/>
<polygon fill="midnightblue" stroke="midnightblue" points="1002.88,-141.3 1006.92,-131.51 997.66,-136.65 1002.88,-141.3"/>
</g>
<!-- Node27 -->
<g id="node27" class="node">
<title>Node27</title>
<g id="a_node27"><a xlink:href="terminalsDMAIMAQ_8h.html" target="_top" xlink:title=" ">
<polygon fill="none" stroke="black" points="863,-235.5 863,-254.5 1034,-254.5 1034,-235.5 863,-235.5"/>
<text text-anchor="middle" x="948.5" y="-242.5" font-family="Helvetica,sans-Serif" font-size="10.00">terminals/terminalsDMAIMAQ.h</text>
</a>
</g>
</g>
<!-- Node26&#45;&gt;Node27 -->
<g id="edge38" class="edge">
<title>Node26&#45;&gt;Node27</title>
<path fill="none" stroke="midnightblue" d="M940.15,-291.08C941.48,-283.93 943.38,-273.64 945.04,-264.69"/>
<polygon fill="midnightblue" stroke="midnightblue" points="948.5,-265.22 946.88,-254.75 941.62,-263.95 948.5,-265.22"/>
</g>
<!-- Node27&#45;&gt;Node4 -->
<g id="edge39" class="edge">
<title>Node27&#45;&gt;Node4</title>
<path fill="none" stroke="midnightblue" d="M1008.18,-235.43C1029.93,-229.1 1052.38,-218.11 1065.5,-199 1087.39,-167.13 1085.75,-144.94 1065.5,-112 1054.51,-94.12 1033.97,-83.09 1015.39,-76.42"/>
<polygon fill="midnightblue" stroke="midnightblue" points="1016.23,-73.01 1005.63,-73.24 1014.05,-79.66 1016.23,-73.01"/>
</g>
<!-- Node27&#45;&gt;Node10 -->
<g id="edge40" class="edge">
<title>Node27&#45;&gt;Node10</title>
<path fill="none" stroke="midnightblue" d="M928.55,-235.47C909.87,-227.16 881.48,-213.65 858.5,-199 839.83,-187.1 837.94,-180.26 819.5,-168 801.75,-156.2 780.65,-144.67 764.3,-136.24"/>
<polygon fill="midnightblue" stroke="midnightblue" points="765.78,-133.07 755.28,-131.65 762.61,-139.3 765.78,-133.07"/>
</g>
<!-- Node27&#45;&gt;Node24 -->
<g id="edge41" class="edge">
<title>Node27&#45;&gt;Node24</title>
<path fill="none" stroke="midnightblue" d="M950.36,-235.48C952.22,-226.99 955.12,-213.7 957.5,-202.82"/>
<polygon fill="midnightblue" stroke="midnightblue" points="960.93,-203.53 959.64,-193.01 954.09,-202.03 960.93,-203.53"/>
</g>
<!-- Node28 -->
<g id="node28" class="node">
<title>Node28</title>
<g id="a_node28"><a xlink:href="imaqTypes_8h.html" target="_top" xlink:title=" ">
<polygon fill="none" stroke="black" points="1088.5,-56.5 1088.5,-75.5 1166.5,-75.5 1166.5,-56.5 1088.5,-56.5"/>
<text text-anchor="middle" x="1127.5" y="-63.5" font-family="Helvetica,sans-Serif" font-size="10.00">imaqTypes.h</text>
</a>
</g>
</g>
<!-- Node27&#45;&gt;Node28 -->
<g id="edge42" class="edge">
<title>Node27&#45;&gt;Node28</title>
<path fill="none" stroke="midnightblue" d="M1015.44,-235.44C1040.61,-229.11 1067.66,-218.11 1086.5,-199 1117.15,-167.91 1124.94,-114.34 1126.89,-85.95"/>
<polygon fill="midnightblue" stroke="midnightblue" points="1130.39,-85.93 1127.4,-75.77 1123.4,-85.58 1130.39,-85.93"/>
</g>
<!-- Node28&#45;&gt;Node8 -->
<g id="edge43" class="edge">
<title>Node28&#45;&gt;Node8</title>
<path fill="none" stroke="midnightblue" d="M1099.77,-56.44C1069.29,-47.04 1020.27,-31.91 987.24,-21.72"/>
<polygon fill="midnightblue" stroke="midnightblue" points="988.14,-18.33 977.55,-18.73 986.07,-25.02 988.14,-18.33"/>
</g>
</g>
</svg>
        <g id="navigator" transform="translate(0 0)" fill="#404254">
                <rect fill="#f2f5e9" fill-opacity="0.5" stroke="#606060" stroke-width=".5" x="0" y="0" width="60" height="60"/>
                <use id="zoomplus" xlink:href="#zoomPlus" x="17" y="9" onmousedown="handleZoom(evt,'in')"/>
                <use id="zoomminus" xlink:href="#zoomMin" x="42" y="9" onmousedown="handleZoom(evt,'out')"/>
                <use id="reset" xlink:href="#resetDef" x="30" y="36" onmousedown="handleReset()"/>
                <g id="arrowUp" xlink:href="#dirArrow" transform="translate(30 24)" onmousedown="handlePan(0,-1)">
                  <use xlink:href="#rim" fill="#404040">
                        <set attributeName="fill" to="#808080" begin="arrowUp.mouseover" end="arrowUp.mouseout"/>
                  </use>
                  <path fill="none" stroke="white" stroke-width="1.5" d="M0,-3.0v7 M-2.5,-0.5L0,-3.0L2.5,-0.5"/>
                </g>
                <g id="arrowRight" xlink:href="#dirArrow" transform="rotate(90) translate(36 -43)" onmousedown="handlePan(1,0)">
                  <use xlink:href="#rim" fill="#404040">
                        <set attributeName="fill" to="#808080" begin="arrowRight.mouseover" end="arrowRight.mouseout"/>
                  </use>
                  <path fill="none" stroke="white" stroke-width="1.5" d="M0,-3.0v7 M-2.5,-0.5L0,-3.0L2.5,-0.5"/>
                </g>
                <g id="arrowDown" xlink:href="#dirArrow" transform="rotate(180) translate(-30 -48)" onmousedown="handlePan(0,1)">
                  <use xlink:href="#rim" fill="#404040">
                        <set attributeName="fill" to="#808080" begin="arrowDown.mouseover" end="arrowDown.mouseout"/>
                  </use>
                  <path fill="none" stroke="white" stroke-width="1.5" d="M0,-3.0v7 M-2.5,-0.5L0,-3.0L2.5,-0.5"/>
                </g>
                <g id="arrowLeft" xlink:href="#dirArrow" transform="rotate(270) translate(-36 17)" onmousedown="handlePan(-1,0)">
                  <use xlink:href="#rim" fill="#404040">
                        <set attributeName="fill" to="#808080" begin="arrowLeft.mouseover" end="arrowLeft.mouseout"/>
                  </use>
                  <path fill="none" stroke="white" stroke-width="1.5" d="M0,-3.0v7 M-2.5,-0.5L0,-3.0L2.5,-0.5"/>
                </g>
        </g>
        <svg viewBox="0 0 15 15" width="100%" height="30px" preserveAspectRatio="xMaxYMin meet">
         <g id="arrow_out" transform="scale(0.3 0.3)">
          <a xlink:href="terminals_8h__incl_org.svg" target="_base">
           <rect id="button" ry="5" rx="5" y="6" x="6" height="38" width="38"
                fill="#f2f5e9" fill-opacity="0.5" stroke="#606060" stroke-width="1.0"/>
           <path id="arrow"
             d="M 11.500037,31.436501 C 11.940474,20.09759 22.043105,11.32322 32.158766,21.979434 L 37.068811,17.246167 C 37.068811,17.246167 37.088388,32 37.088388,32 L 22.160133,31.978069 C 22.160133,31.978069 26.997745,27.140456 26.997745,27.140456 C 18.528582,18.264221 13.291696,25.230495 11.500037,31.436501 z"
             style="fill:#404040;"/>
          </a>
         </g>
        </svg>
</svg>
