<?xml version="1.0" encoding="UTF-8" standalone="no"?>
<!DOCTYPE svg PUBLIC "-//W3C//DTD SVG 1.1//EN"
 "http://www.w3.org/Graphics/SVG/1.1/DTD/svg11.dtd">
<!-- Generated by graphviz version 2.43.0 (0)
 -->
<!-- Title: terminalsBase.h Pages: 1 -->
<!--zoomable 476 -->
<svg id="main" version="1.1" xmlns="http://www.w3.org/2000/svg" xmlns:xlink="http://www.w3.org/1999/xlink" xml:space="preserve" onload="init(evt)">
<style type="text/css"><![CDATA[
.edge:hover path { stroke: red; }
.edge:hover polygon { stroke: red; fill: red; }
]]></style>
<script type="text/javascript"><![CDATA[
var edges = document.getElementsByTagName('g');
if (edges && edges.length) {
  for (var i=0;i<edges.length;i++) {
    if (edges[i].id.substr(0,4)=='edge') {
      edges[i].setAttribute('class','edge');
    }
  }
}
]]></script>
        <defs>
                <circle id="rim" cx="0" cy="0" r="7"/>
                <circle id="rim2" cx="0" cy="0" r="3.5"/>
                <g id="zoomPlus">
                        <use xlink:href="#rim" fill="#404040">
                                <set attributeName="fill" to="#808080" begin="zoomplus.mouseover" end="zoomplus.mouseout"/>
                        </use>
                        <path d="M-4,0h8M0,-4v8" fill="none" stroke="white" stroke-width="1.5" pointer-events="none"/>
                </g>
                <g id="zoomMin">
                        <use xlink:href="#rim" fill="#404040">
                                <set attributeName="fill" to="#808080" begin="zoomminus.mouseover" end="zoomminus.mouseout"/>
                        </use>
                        <path d="M-4,0h8" fill="none" stroke="white" stroke-width="1.5" pointer-events="none"/>
                </g>
                <g id="dirArrow">
                        <path fill="none" stroke="white" stroke-width="1.5" d="M0,-3.0v7 M-2.5,-0.5L0,-3.0L2.5,-0.5"/>
                </g>
               <g id="resetDef">
                       <use xlink:href="#rim2" fill="#404040">
                               <set attributeName="fill" to="#808080" begin="reset.mouseover" end="reset.mouseout"/>
                       </use>
               </g>
        </defs>

<script type="text/javascript">
var viewWidth = 910;
var viewHeight = 476;
var sectionId = 'dynsection-1';
</script>
<script xlink:href="svgpan.js"/>
<svg id="graph" class="graph">
<g id="viewport">
<title>terminalsBase.h</title>
<!-- Node1 -->
<g id="node1" class="node">
<title>Node1</title>
<g id="a_node1"><a xlink:title=" ">
<polygon fill="#bfbfbf" stroke="black" points="302,-448.5 302,-467.5 398,-467.5 398,-448.5 302,-448.5"/>
<text text-anchor="middle" x="350" y="-455.5" font-family="Helvetica,sans-Serif" font-size="10.00">terminalsBase.h</text>
</a>
</g>
</g>
<!-- Node2 -->
<g id="node2" class="node">
<title>Node2</title>
<g id="a_node2"><a xlink:href="terminalsAnalog_8h.html" target="_top" xlink:title=" ">
<polygon fill="none" stroke="black" points="0,-336.5 0,-355.5 106,-355.5 106,-336.5 0,-336.5"/>
<text text-anchor="middle" x="53" y="-343.5" font-family="Helvetica,sans-Serif" font-size="10.00">terminalsAnalog.h</text>
</a>
</g>
</g>
<!-- Node1&#45;&gt;Node2 -->
<g id="edge1" class="edge">
<title>Node1&#45;&gt;Node2</title>
<path fill="none" stroke="midnightblue" d="M291.57,-454.74C243.17,-450.78 173.86,-440.16 120,-412 93.29,-398.03 70.02,-370.05 59.3,-355.79"/>
<polygon fill="midnightblue" stroke="midnightblue" points="291.33,-458.23 301.57,-455.49 291.85,-451.25 291.33,-458.23"/>
</g>
<!-- Node14 -->
<g id="node14" class="node">
<title>Node14</title>
<g id="a_node14"><a xlink:href="terminalsAuxAnalog_8h.html" target="_top" xlink:title=" ">
<polygon fill="none" stroke="black" points="81.5,-280.5 81.5,-299.5 206.5,-299.5 206.5,-280.5 81.5,-280.5"/>
<text text-anchor="middle" x="144" y="-287.5" font-family="Helvetica,sans-Serif" font-size="10.00">terminalsAuxAnalog.h</text>
</a>
</g>
</g>
<!-- Node1&#45;&gt;Node14 -->
<g id="edge18" class="edge">
<title>Node1&#45;&gt;Node14</title>
<path fill="none" stroke="midnightblue" d="M300.87,-445.68C254.88,-432.36 188.13,-405.49 153,-356 141,-339.09 141.51,-313.37 142.81,-299.92"/>
<polygon fill="midnightblue" stroke="midnightblue" points="300.07,-449.09 310.64,-448.39 301.94,-442.34 300.07,-449.09"/>
</g>
<!-- Node15 -->
<g id="node15" class="node">
<title>Node15</title>
<g id="a_node15"><a xlink:href="terminalsAuxDigital_8h.html" target="_top" xlink:title=" ">
<polygon fill="none" stroke="black" points="162.5,-336.5 162.5,-355.5 285.5,-355.5 285.5,-336.5 162.5,-336.5"/>
<text text-anchor="middle" x="224" y="-343.5" font-family="Helvetica,sans-Serif" font-size="10.00">terminalsAuxDigital.h</text>
</a>
</g>
</g>
<!-- Node1&#45;&gt;Node15 -->
<g id="edge20" class="edge">
<title>Node1&#45;&gt;Node15</title>
<path fill="none" stroke="midnightblue" d="M331.81,-442.14C321.26,-433.46 307.78,-422.22 296,-412 273.1,-392.14 246.81,-368.07 233.22,-355.53"/>
<polygon fill="midnightblue" stroke="midnightblue" points="329.6,-444.85 339.55,-448.49 334.04,-439.44 329.6,-444.85"/>
</g>
<!-- Node16 -->
<g id="node16" class="node">
<title>Node16</title>
<g id="a_node16"><a xlink:href="terminalsCRIO_8h.html" target="_top" xlink:title=" ">
<polygon fill="none" stroke="black" points="263,-280.5 263,-299.5 359,-299.5 359,-280.5 263,-280.5"/>
<text text-anchor="middle" x="311" y="-287.5" font-family="Helvetica,sans-Serif" font-size="10.00">terminalsCRIO.h</text>
</a>
</g>
</g>
<!-- Node1&#45;&gt;Node16 -->
<g id="edge22" class="edge">
<title>Node1&#45;&gt;Node16</title>
<path fill="none" stroke="midnightblue" d="M340.37,-439.46C336.29,-431.32 331.82,-421.39 329,-412 316.71,-371.12 312.62,-319.84 311.43,-299.69"/>
<polygon fill="midnightblue" stroke="midnightblue" points="337.28,-441.11 345.03,-448.33 343.48,-437.85 337.28,-441.11"/>
</g>
<!-- Node17 -->
<g id="node17" class="node">
<title>Node17</title>
<g id="a_node17"><a xlink:href="terminalsDigital_8h.html" target="_top" xlink:title=" ">
<polygon fill="none" stroke="black" points="338,-392.5 338,-411.5 442,-411.5 442,-392.5 338,-392.5"/>
<text text-anchor="middle" x="390" y="-399.5" font-family="Helvetica,sans-Serif" font-size="10.00">terminalsDigital.h</text>
</a>
</g>
</g>
<!-- Node1&#45;&gt;Node17 -->
<g id="edge24" class="edge">
<title>Node1&#45;&gt;Node17</title>
<path fill="none" stroke="midnightblue" d="M362.7,-439.86C369.63,-430.5 377.91,-419.33 383.52,-411.75"/>
<polygon fill="midnightblue" stroke="midnightblue" points="359.75,-437.96 356.61,-448.08 365.37,-442.13 359.75,-437.96"/>
</g>
<!-- Node18 -->
<g id="node18" class="node">
<title>Node18</title>
<g id="a_node18"><a xlink:href="terminalsDMACommon_8h.html" target="_top" xlink:title=" ">
<polygon fill="none" stroke="black" points="460,-392.5 460,-411.5 600,-411.5 600,-392.5 460,-392.5"/>
<text text-anchor="middle" x="530" y="-399.5" font-family="Helvetica,sans-Serif" font-size="10.00">terminalsDMACommon.h</text>
</a>
</g>
</g>
<!-- Node1&#45;&gt;Node18 -->
<g id="edge26" class="edge">
<title>Node1&#45;&gt;Node18</title>
<path fill="none" stroke="midnightblue" d="M388.11,-445.57C422.06,-435.38 470.99,-420.7 501.61,-411.52"/>
<polygon fill="midnightblue" stroke="midnightblue" points="387.09,-442.22 378.52,-448.44 389.11,-448.92 387.09,-442.22"/>
</g>
<!-- Node23 -->
<g id="node23" class="node">
<title>Node23</title>
<g id="a_node23"><a xlink:href="terminalsFlexRIO_8h.html" target="_top" xlink:title=" ">
<polygon fill="none" stroke="black" points="618,-392.5 618,-411.5 728,-411.5 728,-392.5 618,-392.5"/>
<text text-anchor="middle" x="673" y="-399.5" font-family="Helvetica,sans-Serif" font-size="10.00">terminalsFlexRIO.h</text>
</a>
</g>
</g>
<!-- Node1&#45;&gt;Node23 -->
<g id="edge33" class="edge">
<title>Node1&#45;&gt;Node23</title>
<path fill="none" stroke="midnightblue" d="M408.23,-447.26C469.2,-437.07 563.98,-421.23 622.06,-411.52"/>
<polygon fill="midnightblue" stroke="midnightblue" points="407.29,-443.87 398.01,-448.97 408.45,-450.78 407.29,-443.87"/>
</g>
<!-- Node24 -->
<g id="node24" class="node">
<title>Node24</title>
<g id="a_node24"><a xlink:href="terminalsSignalGeneration_8h.html" target="_top" xlink:title=" ">
<polygon fill="none" stroke="black" points="746,-392.5 746,-411.5 902,-411.5 902,-392.5 746,-392.5"/>
<text text-anchor="middle" x="824" y="-399.5" font-family="Helvetica,sans-Serif" font-size="10.00">terminalsSignalGeneration.h</text>
</a>
</g>
</g>
<!-- Node1&#45;&gt;Node24 -->
<g id="edge35" class="edge">
<title>Node1&#45;&gt;Node24</title>
<path fill="none" stroke="midnightblue" d="M408.14,-450.38C493.95,-440.6 654.52,-422.31 749.06,-411.54"/>
<polygon fill="midnightblue" stroke="midnightblue" points="407.6,-446.92 398.06,-451.53 408.39,-453.87 407.6,-446.92"/>
</g>
<!-- Node3 -->
<g id="node3" class="node">
<title>Node3</title>
<g id="a_node3"><a xlink:href="terminals_8h.html" target="_top" xlink:title=" ">
<polygon fill="none" stroke="black" points="351,-224.5 351,-243.5 423,-243.5 423,-224.5 351,-224.5"/>
<text text-anchor="middle" x="387" y="-231.5" font-family="Helvetica,sans-Serif" font-size="10.00">terminals.h</text>
</a>
</g>
</g>
<!-- Node2&#45;&gt;Node3 -->
<g id="edge2" class="edge">
<title>Node2&#45;&gt;Node3</title>
<path fill="none" stroke="midnightblue" d="M53.27,-326.21C54.54,-311.4 58.83,-291.41 72,-280 113.07,-244.41 277.07,-236.94 350.79,-235.4"/>
<polygon fill="midnightblue" stroke="midnightblue" points="49.76,-326.13 52.78,-336.29 56.76,-326.47 49.76,-326.13"/>
</g>
<!-- Node4 -->
<g id="node4" class="node">
<title>Node4</title>
<g id="a_node4"><a xlink:href="irioCoreCpp_8h.html" target="_top" xlink:title=" ">
<polygon fill="none" stroke="black" points="295.5,-168.5 295.5,-187.5 378.5,-187.5 378.5,-168.5 295.5,-168.5"/>
<text text-anchor="middle" x="337" y="-175.5" font-family="Helvetica,sans-Serif" font-size="10.00">irioCoreCpp.h</text>
</a>
</g>
</g>
<!-- Node3&#45;&gt;Node4 -->
<g id="edge3" class="edge">
<title>Node3&#45;&gt;Node4</title>
<path fill="none" stroke="midnightblue" d="M371.92,-216.72C363.11,-207.2 352.33,-195.56 345.1,-187.75"/>
<polygon fill="midnightblue" stroke="midnightblue" points="369.38,-219.12 378.74,-224.08 374.52,-214.37 369.38,-219.12"/>
</g>
<!-- Node5 -->
<g id="node5" class="node">
<title>Node5</title>
<g id="a_node5"><a xlink:href="profileBase_8h.html" target="_top" xlink:title=" ">
<polygon fill="none" stroke="black" points="397,-168.5 397,-187.5 477,-187.5 477,-168.5 397,-168.5"/>
<text text-anchor="middle" x="437" y="-175.5" font-family="Helvetica,sans-Serif" font-size="10.00">profileBase.h</text>
</a>
</g>
</g>
<!-- Node3&#45;&gt;Node5 -->
<g id="edge4" class="edge">
<title>Node3&#45;&gt;Node5</title>
<path fill="none" stroke="midnightblue" d="M402.08,-216.72C410.89,-207.2 421.67,-195.56 428.9,-187.75"/>
<polygon fill="midnightblue" stroke="midnightblue" points="399.48,-214.37 395.26,-224.08 404.62,-219.12 399.48,-214.37"/>
</g>
<!-- Node6 -->
<g id="node6" class="node">
<title>Node6</title>
<g id="a_node6"><a xlink:href="profileCPUDAQ_8h.html" target="_top" xlink:title=" ">
<polygon fill="none" stroke="black" points="331,-112.5 331,-131.5 429,-131.5 429,-112.5 331,-112.5"/>
<text text-anchor="middle" x="380" y="-119.5" font-family="Helvetica,sans-Serif" font-size="10.00">profileCPUDAQ.h</text>
</a>
</g>
</g>
<!-- Node5&#45;&gt;Node6 -->
<g id="edge5" class="edge">
<title>Node5&#45;&gt;Node6</title>
<path fill="none" stroke="midnightblue" d="M420.38,-161.25C410.27,-151.67 397.72,-139.79 389.32,-131.83"/>
<polygon fill="midnightblue" stroke="midnightblue" points="418.18,-163.99 427.84,-168.32 422.99,-158.91 418.18,-163.99"/>
</g>
<!-- Node10 -->
<g id="node10" class="node">
<title>Node10</title>
<g id="a_node10"><a xlink:href="profileCPUIMAQ_8h.html" target="_top" xlink:title=" ">
<polygon fill="none" stroke="black" points="560.5,-112.5 560.5,-131.5 663.5,-131.5 663.5,-112.5 560.5,-112.5"/>
<text text-anchor="middle" x="612" y="-119.5" font-family="Helvetica,sans-Serif" font-size="10.00">profileCPUIMAQ.h</text>
</a>
</g>
</g>
<!-- Node5&#45;&gt;Node10 -->
<g id="edge10" class="edge">
<title>Node5&#45;&gt;Node10</title>
<path fill="none" stroke="midnightblue" d="M474.47,-165.44C507.47,-155.26 554.76,-140.66 584.4,-131.52"/>
<polygon fill="midnightblue" stroke="midnightblue" points="473.25,-162.15 464.73,-168.44 475.32,-168.84 473.25,-162.15"/>
</g>
<!-- Node12 -->
<g id="node12" class="node">
<title>Node12</title>
<g id="a_node12"><a xlink:href="profileCRIO_8h.html" target="_top" xlink:title=" ">
<polygon fill="none" stroke="black" points="233,-112.5 233,-131.5 313,-131.5 313,-112.5 233,-112.5"/>
<text text-anchor="middle" x="273" y="-119.5" font-family="Helvetica,sans-Serif" font-size="10.00">profileCRIO.h</text>
</a>
</g>
</g>
<!-- Node5&#45;&gt;Node12 -->
<g id="edge13" class="edge">
<title>Node5&#45;&gt;Node12</title>
<path fill="none" stroke="midnightblue" d="M401.48,-165.3C370.58,-155.13 326.53,-140.62 298.86,-131.52"/>
<polygon fill="midnightblue" stroke="midnightblue" points="400.42,-168.64 411.01,-168.44 402.61,-161.99 400.42,-168.64"/>
</g>
<!-- Node13 -->
<g id="node13" class="node">
<title>Node13</title>
<g id="a_node13"><a xlink:href="profileFlexRIO_8h.html" target="_top" xlink:title=" ">
<polygon fill="none" stroke="black" points="447.5,-112.5 447.5,-131.5 542.5,-131.5 542.5,-112.5 447.5,-112.5"/>
<text text-anchor="middle" x="495" y="-119.5" font-family="Helvetica,sans-Serif" font-size="10.00">profileFlexRIO.h</text>
</a>
</g>
</g>
<!-- Node5&#45;&gt;Node13 -->
<g id="edge15" class="edge">
<title>Node5&#45;&gt;Node13</title>
<path fill="none" stroke="midnightblue" d="M453.91,-161.25C464.2,-151.67 476.97,-139.79 485.51,-131.83"/>
<polygon fill="midnightblue" stroke="midnightblue" points="451.25,-158.95 446.32,-168.32 456.02,-164.07 451.25,-158.95"/>
</g>
<!-- Node7 -->
<g id="node7" class="node">
<title>Node7</title>
<g id="a_node7"><a xlink:href="profileCPUDAQcRIO_8h.html" target="_top" xlink:title=" ">
<polygon fill="none" stroke="black" points="229.5,-56.5 229.5,-75.5 350.5,-75.5 350.5,-56.5 229.5,-56.5"/>
<text text-anchor="middle" x="290" y="-63.5" font-family="Helvetica,sans-Serif" font-size="10.00">profileCPUDAQcRIO.h</text>
</a>
</g>
</g>
<!-- Node6&#45;&gt;Node7 -->
<g id="edge6" class="edge">
<title>Node6&#45;&gt;Node7</title>
<path fill="none" stroke="midnightblue" d="M356.96,-107.18C340.4,-97.24 318.58,-84.15 304.42,-75.65"/>
<polygon fill="midnightblue" stroke="midnightblue" points="355.16,-110.18 365.54,-112.32 358.77,-104.18 355.16,-110.18"/>
</g>
<!-- Node9 -->
<g id="node9" class="node">
<title>Node9</title>
<g id="a_node9"><a xlink:href="profileCPUDAQFlexRIO_8h.html" target="_top" xlink:title=" ">
<polygon fill="none" stroke="black" points="368.5,-56.5 368.5,-75.5 505.5,-75.5 505.5,-56.5 368.5,-56.5"/>
<text text-anchor="middle" x="437" y="-63.5" font-family="Helvetica,sans-Serif" font-size="10.00">profileCPUDAQFlexRIO.h</text>
</a>
</g>
</g>
<!-- Node6&#45;&gt;Node9 -->
<g id="edge8" class="edge">
<title>Node6&#45;&gt;Node9</title>
<path fill="none" stroke="midnightblue" d="M396.62,-105.25C406.73,-95.67 419.28,-83.79 427.68,-75.83"/>
<polygon fill="midnightblue" stroke="midnightblue" points="394.01,-102.91 389.16,-112.32 398.82,-107.99 394.01,-102.91"/>
</g>
<!-- Node8 -->
<g id="node8" class="node">
<title>Node8</title>
<g id="a_node8"><a xlink:href="profiles_8h.html" target="_top" xlink:title=" ">
<polygon fill="none" stroke="black" points="406,-0.5 406,-19.5 468,-19.5 468,-0.5 406,-0.5"/>
<text text-anchor="middle" x="437" y="-7.5" font-family="Helvetica,sans-Serif" font-size="10.00">profiles.h</text>
</a>
</g>
</g>
<!-- Node7&#45;&gt;Node8 -->
<g id="edge7" class="edge">
<title>Node7&#45;&gt;Node8</title>
<path fill="none" stroke="midnightblue" d="M322.92,-52.91C350.56,-42.75 389.34,-28.51 413.82,-19.52"/>
<polygon fill="midnightblue" stroke="midnightblue" points="321.47,-49.71 313.29,-56.44 323.89,-56.28 321.47,-49.71"/>
</g>
<!-- Node9&#45;&gt;Node8 -->
<g id="edge9" class="edge">
<title>Node9&#45;&gt;Node8</title>
<path fill="none" stroke="midnightblue" d="M437,-45.8C437,-36.91 437,-26.78 437,-19.75"/>
<polygon fill="midnightblue" stroke="midnightblue" points="433.5,-46.08 437,-56.08 440.5,-46.08 433.5,-46.08"/>
</g>
<!-- Node11 -->
<g id="node11" class="node">
<title>Node11</title>
<g id="a_node11"><a xlink:href="profileCPUIMAQFlexRIO_8h.html" target="_top" xlink:title=" ">
<polygon fill="none" stroke="black" points="523.5,-56.5 523.5,-75.5 664.5,-75.5 664.5,-56.5 523.5,-56.5"/>
<text text-anchor="middle" x="594" y="-63.5" font-family="Helvetica,sans-Serif" font-size="10.00">profileCPUIMAQFlexRIO.h</text>
</a>
</g>
</g>
<!-- Node10&#45;&gt;Node11 -->
<g id="edge11" class="edge">
<title>Node10&#45;&gt;Node11</title>
<path fill="none" stroke="midnightblue" d="M605.8,-102.4C602.79,-93.36 599.31,-82.94 596.92,-75.75"/>
<polygon fill="midnightblue" stroke="midnightblue" points="602.54,-103.7 609.03,-112.08 609.19,-101.49 602.54,-103.7"/>
</g>
<!-- Node11&#45;&gt;Node8 -->
<g id="edge12" class="edge">
<title>Node11&#45;&gt;Node8</title>
<path fill="none" stroke="midnightblue" d="M559.61,-53.17C530.05,-43 488.13,-28.59 461.76,-19.52"/>
<polygon fill="midnightblue" stroke="midnightblue" points="558.53,-56.5 569.12,-56.44 560.8,-49.88 558.53,-56.5"/>
</g>
<!-- Node12&#45;&gt;Node7 -->
<g id="edge14" class="edge">
<title>Node12&#45;&gt;Node7</title>
<path fill="none" stroke="midnightblue" d="M278.86,-102.4C281.7,-93.36 284.98,-82.94 287.25,-75.75"/>
<polygon fill="midnightblue" stroke="midnightblue" points="275.47,-101.49 275.81,-112.08 282.15,-103.6 275.47,-101.49"/>
</g>
<!-- Node13&#45;&gt;Node9 -->
<g id="edge16" class="edge">
<title>Node13&#45;&gt;Node9</title>
<path fill="none" stroke="midnightblue" d="M478.09,-105.25C467.8,-95.67 455.03,-83.79 446.49,-75.83"/>
<polygon fill="midnightblue" stroke="midnightblue" points="475.98,-108.07 485.68,-112.32 480.75,-102.95 475.98,-108.07"/>
</g>
<!-- Node13&#45;&gt;Node11 -->
<g id="edge17" class="edge">
<title>Node13&#45;&gt;Node11</title>
<path fill="none" stroke="midnightblue" d="M519.84,-107.45C538.11,-97.48 562.42,-84.23 578.13,-75.65"/>
<polygon fill="midnightblue" stroke="midnightblue" points="518.01,-104.46 510.91,-112.32 521.36,-110.61 518.01,-104.46"/>
</g>
<!-- Node14&#45;&gt;Node3 -->
<g id="edge19" class="edge">
<title>Node14&#45;&gt;Node3</title>
<path fill="none" stroke="midnightblue" d="M192.38,-278.25C239.03,-267.88 308.56,-252.43 350.66,-243.08"/>
<polygon fill="midnightblue" stroke="midnightblue" points="191.51,-274.86 182.5,-280.44 193.03,-281.69 191.51,-274.86"/>
</g>
<!-- Node15&#45;&gt;Node3 -->
<g id="edge21" class="edge">
<title>Node15&#45;&gt;Node3</title>
<path fill="none" stroke="midnightblue" d="M228.33,-326.22C232.58,-311.73 240.45,-292.18 254,-280 281.01,-255.72 321.63,-244.46 350.87,-239.29"/>
<polygon fill="midnightblue" stroke="midnightblue" points="224.89,-325.54 225.75,-336.1 231.66,-327.3 224.89,-325.54"/>
</g>
<!-- Node16&#45;&gt;Node3 -->
<g id="edge23" class="edge">
<title>Node16&#45;&gt;Node3</title>
<path fill="none" stroke="midnightblue" d="M331.58,-274.38C345.31,-264.62 362.93,-252.11 374.57,-243.83"/>
<polygon fill="midnightblue" stroke="midnightblue" points="329.34,-271.68 323.21,-280.32 333.39,-277.38 329.34,-271.68"/>
</g>
<!-- Node17&#45;&gt;Node3 -->
<g id="edge25" class="edge">
<title>Node17&#45;&gt;Node3</title>
<path fill="none" stroke="midnightblue" d="M389.66,-381.93C389,-345.92 387.62,-269.23 387.15,-243.57"/>
<polygon fill="midnightblue" stroke="midnightblue" points="386.16,-382.14 389.84,-392.08 393.16,-382.01 386.16,-382.14"/>
</g>
<!-- Node19 -->
<g id="node19" class="node">
<title>Node19</title>
<g id="a_node19"><a xlink:href="terminalsDMADAQ_8h.html" target="_top" xlink:title=" ">
<polygon fill="none" stroke="black" points="430.5,-336.5 430.5,-355.5 547.5,-355.5 547.5,-336.5 430.5,-336.5"/>
<text text-anchor="middle" x="489" y="-343.5" font-family="Helvetica,sans-Serif" font-size="10.00">terminalsDMADAQ.h</text>
</a>
</g>
</g>
<!-- Node18&#45;&gt;Node19 -->
<g id="edge27" class="edge">
<title>Node18&#45;&gt;Node19</title>
<path fill="none" stroke="midnightblue" d="M516.98,-383.86C509.88,-374.5 501.4,-363.33 495.64,-355.75"/>
<polygon fill="midnightblue" stroke="midnightblue" points="514.39,-386.24 523.23,-392.08 519.97,-382 514.39,-386.24"/>
</g>
<!-- Node21 -->
<g id="node21" class="node">
<title>Node21</title>
<g id="a_node21"><a xlink:href="terminalsDMAIMAQ_8h.html" target="_top" xlink:title=" ">
<polygon fill="none" stroke="black" points="576,-336.5 576,-355.5 698,-355.5 698,-336.5 576,-336.5"/>
<text text-anchor="middle" x="637" y="-343.5" font-family="Helvetica,sans-Serif" font-size="10.00">terminalsDMAIMAQ.h</text>
</a>
</g>
</g>
<!-- Node18&#45;&gt;Node21 -->
<g id="edge30" class="edge">
<title>Node18&#45;&gt;Node21</title>
<path fill="none" stroke="midnightblue" d="M556.3,-387.73C576.11,-377.73 602.71,-364.31 619.85,-355.65"/>
<polygon fill="midnightblue" stroke="midnightblue" points="554.54,-384.69 547.19,-392.32 557.7,-390.94 554.54,-384.69"/>
</g>
<!-- Node20 -->
<g id="node20" class="node">
<title>Node20</title>
<g id="a_node20"><a xlink:href="terminalsDMADAQCPU_8h.html" target="_top" xlink:title=" ">
<polygon fill="none" stroke="black" points="415.5,-280.5 415.5,-299.5 552.5,-299.5 552.5,-280.5 415.5,-280.5"/>
<text text-anchor="middle" x="484" y="-287.5" font-family="Helvetica,sans-Serif" font-size="10.00">terminalsDMADAQCPU.h</text>
</a>
</g>
</g>
<!-- Node19&#45;&gt;Node20 -->
<g id="edge28" class="edge">
<title>Node19&#45;&gt;Node20</title>
<path fill="none" stroke="midnightblue" d="M487.25,-326.1C486.42,-317.14 485.47,-306.86 484.81,-299.75"/>
<polygon fill="midnightblue" stroke="midnightblue" points="483.77,-326.45 488.17,-336.08 490.74,-325.8 483.77,-326.45"/>
</g>
<!-- Node20&#45;&gt;Node3 -->
<g id="edge29" class="edge">
<title>Node20&#45;&gt;Node3</title>
<path fill="none" stroke="midnightblue" d="M459.66,-275.45C441.76,-265.48 417.95,-252.23 402.55,-243.65"/>
<polygon fill="midnightblue" stroke="midnightblue" points="457.98,-278.52 468.42,-280.32 461.38,-272.4 457.98,-278.52"/>
</g>
<!-- Node22 -->
<g id="node22" class="node">
<title>Node22</title>
<g id="a_node22"><a xlink:href="terminalsDMAIMAQCPU_8h.html" target="_top" xlink:title=" ">
<polygon fill="none" stroke="black" points="571,-280.5 571,-299.5 713,-299.5 713,-280.5 571,-280.5"/>
<text text-anchor="middle" x="642" y="-287.5" font-family="Helvetica,sans-Serif" font-size="10.00">terminalsDMAIMAQCPU.h</text>
</a>
</g>
</g>
<!-- Node21&#45;&gt;Node22 -->
<g id="edge31" class="edge">
<title>Node21&#45;&gt;Node22</title>
<path fill="none" stroke="midnightblue" d="M638.75,-326.1C639.58,-317.14 640.53,-306.86 641.19,-299.75"/>
<polygon fill="midnightblue" stroke="midnightblue" points="635.26,-325.8 637.83,-336.08 642.23,-326.45 635.26,-325.8"/>
</g>
<!-- Node22&#45;&gt;Node3 -->
<g id="edge32" class="edge">
<title>Node22&#45;&gt;Node3</title>
<path fill="none" stroke="midnightblue" d="M591.7,-278.35C541.99,-267.82 467.17,-251.98 423.09,-242.64"/>
<polygon fill="midnightblue" stroke="midnightblue" points="591.09,-281.8 601.59,-280.44 592.54,-274.95 591.09,-281.8"/>
</g>
<!-- Node23&#45;&gt;Node3 -->
<g id="edge34" class="edge">
<title>Node23&#45;&gt;Node3</title>
<path fill="none" stroke="midnightblue" d="M689.23,-384.83C712.42,-359.78 749.35,-311.27 722,-280 683.46,-235.94 501.54,-233.22 423.12,-234.17"/>
<polygon fill="midnightblue" stroke="midnightblue" points="686.41,-382.72 682.01,-392.36 691.46,-387.56 686.41,-382.72"/>
</g>
<!-- Node24&#45;&gt;Node3 -->
<g id="edge36" class="edge">
<title>Node24&#45;&gt;Node3</title>
<path fill="none" stroke="midnightblue" d="M817.26,-382.9C806.04,-355.54 780.74,-304.25 741,-280 688.19,-247.76 502.27,-238.44 423.11,-235.89"/>
<polygon fill="midnightblue" stroke="midnightblue" points="814.08,-384.38 820.99,-392.42 820.6,-381.83 814.08,-384.38"/>
</g>
</g>
</svg>
        <g id="navigator" transform="translate(0 0)" fill="#404254">
                <rect fill="#f2f5e9" fill-opacity="0.5" stroke="#606060" stroke-width=".5" x="0" y="0" width="60" height="60"/>
                <use id="zoomplus" xlink:href="#zoomPlus" x="17" y="9" onmousedown="handleZoom(evt,'in')"/>
                <use id="zoomminus" xlink:href="#zoomMin" x="42" y="9" onmousedown="handleZoom(evt,'out')"/>
                <use id="reset" xlink:href="#resetDef" x="30" y="36" onmousedown="handleReset()"/>
                <g id="arrowUp" xlink:href="#dirArrow" transform="translate(30 24)" onmousedown="handlePan(0,-1)">
                  <use xlink:href="#rim" fill="#404040">
                        <set attributeName="fill" to="#808080" begin="arrowUp.mouseover" end="arrowUp.mouseout"/>
                  </use>
                  <path fill="none" stroke="white" stroke-width="1.5" d="M0,-3.0v7 M-2.5,-0.5L0,-3.0L2.5,-0.5"/>
                </g>
                <g id="arrowRight" xlink:href="#dirArrow" transform="rotate(90) translate(36 -43)" onmousedown="handlePan(1,0)">
                  <use xlink:href="#rim" fill="#404040">
                        <set attributeName="fill" to="#808080" begin="arrowRight.mouseover" end="arrowRight.mouseout"/>
                  </use>
                  <path fill="none" stroke="white" stroke-width="1.5" d="M0,-3.0v7 M-2.5,-0.5L0,-3.0L2.5,-0.5"/>
                </g>
                <g id="arrowDown" xlink:href="#dirArrow" transform="rotate(180) translate(-30 -48)" onmousedown="handlePan(0,1)">
                  <use xlink:href="#rim" fill="#404040">
                        <set attributeName="fill" to="#808080" begin="arrowDown.mouseover" end="arrowDown.mouseout"/>
                  </use>
                  <path fill="none" stroke="white" stroke-width="1.5" d="M0,-3.0v7 M-2.5,-0.5L0,-3.0L2.5,-0.5"/>
                </g>
                <g id="arrowLeft" xlink:href="#dirArrow" transform="rotate(270) translate(-36 17)" onmousedown="handlePan(-1,0)">
                  <use xlink:href="#rim" fill="#404040">
                        <set attributeName="fill" to="#808080" begin="arrowLeft.mouseover" end="arrowLeft.mouseout"/>
                  </use>
                  <path fill="none" stroke="white" stroke-width="1.5" d="M0,-3.0v7 M-2.5,-0.5L0,-3.0L2.5,-0.5"/>
                </g>
        </g>
        <svg viewBox="0 0 15 15" width="100%" height="30px" preserveAspectRatio="xMaxYMin meet">
         <g id="arrow_out" transform="scale(0.3 0.3)">
          <a xlink:href="terminalsBase_8h__dep__incl_org.svg" target="_base">
           <rect id="button" ry="5" rx="5" y="6" x="6" height="38" width="38"
                fill="#f2f5e9" fill-opacity="0.5" stroke="#606060" stroke-width="1.0"/>
           <path id="arrow"
             d="M 11.500037,31.436501 C 11.940474,20.09759 22.043105,11.32322 32.158766,21.979434 L 37.068811,17.246167 C 37.068811,17.246167 37.088388,32 37.088388,32 L 22.160133,31.978069 C 22.160133,31.978069 26.997745,27.140456 26.997745,27.140456 C 18.528582,18.264221 13.291696,25.230495 11.500037,31.436501 z"
             style="fill:#404040;"/>
          </a>
         </g>
        </svg>
</svg>
