<?xml version="1.0" encoding="UTF-8" standalone="no"?>
<!DOCTYPE svg PUBLIC "-//W3C//DTD SVG 1.1//EN"
 "http://www.w3.org/Graphics/SVG/1.1/DTD/svg11.dtd">
<!-- Generated by graphviz version 2.43.0 (0)
 -->
<!-- Title: terminalsDMAIMAQCPU.h Pages: 1 -->
<svg width="398pt" height="308pt"
 viewBox="0.00 0.00 397.97 308.00" xmlns="http://www.w3.org/2000/svg" xmlns:xlink="http://www.w3.org/1999/xlink">
<g id="graph0" class="graph" transform="scale(1 1) rotate(0) translate(4 304)">
<title>terminalsDMAIMAQCPU.h</title>
<!-- Node1 -->
<g id="node1" class="node">
<title>Node1</title>
<g id="a_node1"><a xlink:title=" ">
<polygon fill="#bfbfbf" stroke="black" points="25.97,-280.5 25.97,-299.5 167.97,-299.5 167.97,-280.5 25.97,-280.5"/>
<text text-anchor="middle" x="96.97" y="-287.5" font-family="Helvetica,sans-Serif" font-size="10.00">terminalsDMAIMAQCPU.h</text>
</a>
</g>
</g>
<!-- Node2 -->
<g id="node2" class="node">
<title>Node2</title>
<g id="a_node2"><a xlink:href="terminalsDMAIMAQ_8h.html" target="_top" xlink:title=" ">
<polygon fill="none" stroke="black" points="11.47,-224.5 11.47,-243.5 182.47,-243.5 182.47,-224.5 11.47,-224.5"/>
<text text-anchor="middle" x="96.97" y="-231.5" font-family="Helvetica,sans-Serif" font-size="10.00">terminals/terminalsDMAIMAQ.h</text>
</a>
</g>
</g>
<!-- Node1&#45;&gt;Node2 -->
<g id="edge1" class="edge">
<title>Node1&#45;&gt;Node2</title>
<path fill="none" stroke="midnightblue" d="M96.97,-280.08C96.97,-273.01 96.97,-262.86 96.97,-253.99"/>
<polygon fill="midnightblue" stroke="midnightblue" points="100.47,-253.75 96.97,-243.75 93.47,-253.75 100.47,-253.75"/>
</g>
<!-- Node3 -->
<g id="node3" class="node">
<title>Node3</title>
<g id="a_node3"><a xlink:title=" ">
<polygon fill="none" stroke="#bfbfbf" points="58.97,-56.5 58.97,-75.5 116.97,-75.5 116.97,-56.5 58.97,-56.5"/>
<text text-anchor="middle" x="87.97" y="-63.5" font-family="Helvetica,sans-Serif" font-size="10.00">memory</text>
</a>
</g>
</g>
<!-- Node2&#45;&gt;Node3 -->
<g id="edge2" class="edge">
<title>Node2&#45;&gt;Node3</title>
<path fill="none" stroke="midnightblue" d="M83.51,-224.48C60.97,-209.25 16.71,-174.89 2.97,-132 0.26,-123.54 -1.61,-119.62 2.97,-112 13.14,-95.1 32.03,-84.22 49.42,-77.39"/>
<polygon fill="midnightblue" stroke="midnightblue" points="50.62,-80.68 58.86,-74.01 48.26,-74.09 50.62,-80.68"/>
</g>
<!-- Node4 -->
<g id="node4" class="node">
<title>Node4</title>
<g id="a_node4"><a xlink:title=" ">
<polygon fill="none" stroke="#bfbfbf" points="12.47,-112.5 12.47,-131.5 59.47,-131.5 59.47,-112.5 12.47,-112.5"/>
<text text-anchor="middle" x="35.97" y="-119.5" font-family="Helvetica,sans-Serif" font-size="10.00">vector</text>
</a>
</g>
</g>
<!-- Node2&#45;&gt;Node4 -->
<g id="edge3" class="edge">
<title>Node2&#45;&gt;Node4</title>
<path fill="none" stroke="midnightblue" d="M86.53,-224.4C77.01,-216.03 63.22,-202.49 54.97,-188 46.79,-173.63 41.86,-155.44 39.08,-141.95"/>
<polygon fill="midnightblue" stroke="midnightblue" points="42.49,-141.12 37.23,-131.92 35.61,-142.39 42.49,-141.12"/>
</g>
<!-- Node5 -->
<g id="node5" class="node">
<title>Node5</title>
<g id="a_node5"><a xlink:href="terminalsDMACommon_8h.html" target="_top" xlink:title=" ">
<polygon fill="none" stroke="black" points="64.47,-168.5 64.47,-187.5 253.47,-187.5 253.47,-168.5 64.47,-168.5"/>
<text text-anchor="middle" x="158.97" y="-175.5" font-family="Helvetica,sans-Serif" font-size="10.00">terminals/terminalsDMACommon.h</text>
</a>
</g>
</g>
<!-- Node2&#45;&gt;Node5 -->
<g id="edge4" class="edge">
<title>Node2&#45;&gt;Node5</title>
<path fill="none" stroke="midnightblue" d="M106.93,-224.32C116.1,-216.34 129.91,-204.31 141,-194.65"/>
<polygon fill="midnightblue" stroke="midnightblue" points="143.59,-197.04 148.83,-187.83 138.99,-191.76 143.59,-197.04"/>
</g>
<!-- Node12 -->
<g id="node12" class="node">
<title>Node12</title>
<g id="a_node12"><a xlink:href="imaqTypes_8h.html" target="_top" xlink:title=" ">
<polygon fill="none" stroke="black" points="311.97,-168.5 311.97,-187.5 389.97,-187.5 389.97,-168.5 311.97,-168.5"/>
<text text-anchor="middle" x="350.97" y="-175.5" font-family="Helvetica,sans-Serif" font-size="10.00">imaqTypes.h</text>
</a>
</g>
</g>
<!-- Node2&#45;&gt;Node12 -->
<g id="edge14" class="edge">
<title>Node2&#45;&gt;Node12</title>
<path fill="none" stroke="midnightblue" d="M137.22,-224.44C181.88,-214.95 253.97,-199.62 301.9,-189.43"/>
<polygon fill="midnightblue" stroke="midnightblue" points="302.69,-192.84 311.75,-187.34 301.24,-186 302.69,-192.84"/>
</g>
<!-- Node5&#45;&gt;Node3 -->
<g id="edge6" class="edge">
<title>Node5&#45;&gt;Node3</title>
<path fill="none" stroke="midnightblue" d="M145.05,-168.31C133.27,-160.27 116.78,-147.27 106.97,-132 97.94,-117.93 93.08,-99.44 90.54,-85.78"/>
<polygon fill="midnightblue" stroke="midnightblue" points="93.95,-84.96 88.92,-75.64 87.04,-86.07 93.95,-84.96"/>
</g>
<!-- Node5&#45;&gt;Node4 -->
<g id="edge5" class="edge">
<title>Node5&#45;&gt;Node4</title>
<path fill="none" stroke="midnightblue" d="M139.48,-168.44C119.33,-159.6 87.65,-145.69 64.64,-135.59"/>
<polygon fill="midnightblue" stroke="midnightblue" points="65.93,-132.33 55.37,-131.52 63.12,-138.74 65.93,-132.33"/>
</g>
<!-- Node6 -->
<g id="node6" class="node">
<title>Node6</title>
<g id="a_node6"><a xlink:href="terminalsBase_8h.html" target="_top" xlink:title=" ">
<polygon fill="none" stroke="black" points="115.97,-112.5 115.97,-131.5 261.97,-131.5 261.97,-112.5 115.97,-112.5"/>
<text text-anchor="middle" x="188.97" y="-119.5" font-family="Helvetica,sans-Serif" font-size="10.00">terminals/terminalsBase.h</text>
</a>
</g>
</g>
<!-- Node5&#45;&gt;Node6 -->
<g id="edge7" class="edge">
<title>Node5&#45;&gt;Node6</title>
<path fill="none" stroke="midnightblue" d="M163.92,-168.08C168.07,-160.61 174.12,-149.72 179.24,-140.52"/>
<polygon fill="midnightblue" stroke="midnightblue" points="182.31,-142.19 184.11,-131.75 176.19,-138.79 182.31,-142.19"/>
</g>
<!-- Node11 -->
<g id="node11" class="node">
<title>Node11</title>
<g id="a_node11"><a xlink:href="frameTypes_8h.html" target="_top" xlink:title=" ">
<polygon fill="none" stroke="black" points="280.47,-112.5 280.47,-131.5 363.47,-131.5 363.47,-112.5 280.47,-112.5"/>
<text text-anchor="middle" x="321.97" y="-119.5" font-family="Helvetica,sans-Serif" font-size="10.00">frameTypes.h</text>
</a>
</g>
</g>
<!-- Node5&#45;&gt;Node11 -->
<g id="edge13" class="edge">
<title>Node5&#45;&gt;Node11</title>
<path fill="none" stroke="midnightblue" d="M184.8,-168.44C212.22,-159.36 255.75,-144.94 286.4,-134.78"/>
<polygon fill="midnightblue" stroke="midnightblue" points="287.87,-137.98 296.26,-131.52 285.67,-131.34 287.87,-137.98"/>
</g>
<!-- Node6&#45;&gt;Node3 -->
<g id="edge8" class="edge">
<title>Node6&#45;&gt;Node3</title>
<path fill="none" stroke="midnightblue" d="M172.74,-112.32C156.62,-103.7 131.67,-90.36 113.01,-80.39"/>
<polygon fill="midnightblue" stroke="midnightblue" points="114.63,-77.28 104.16,-75.65 111.33,-83.46 114.63,-77.28"/>
</g>
<!-- Node7 -->
<g id="node7" class="node">
<title>Node7</title>
<g id="a_node7"><a xlink:href="platforms_8h.html" target="_top" xlink:title=" ">
<polygon fill="none" stroke="black" points="182.47,-56.5 182.47,-75.5 255.47,-75.5 255.47,-56.5 182.47,-56.5"/>
<text text-anchor="middle" x="218.97" y="-63.5" font-family="Helvetica,sans-Serif" font-size="10.00">platforms.h</text>
</a>
</g>
</g>
<!-- Node6&#45;&gt;Node7 -->
<g id="edge9" class="edge">
<title>Node6&#45;&gt;Node7</title>
<path fill="none" stroke="midnightblue" d="M193.92,-112.08C198.07,-104.61 204.12,-93.72 209.24,-84.52"/>
<polygon fill="midnightblue" stroke="midnightblue" points="212.31,-86.19 214.11,-75.75 206.19,-82.79 212.31,-86.19"/>
</g>
<!-- Node8 -->
<g id="node8" class="node">
<title>Node8</title>
<g id="a_node8"><a xlink:title=" ">
<polygon fill="none" stroke="#bfbfbf" points="154.97,-0.5 154.97,-19.5 210.97,-19.5 210.97,-0.5 154.97,-0.5"/>
<text text-anchor="middle" x="182.97" y="-7.5" font-family="Helvetica,sans-Serif" font-size="10.00">stddef.h</text>
</a>
</g>
</g>
<!-- Node7&#45;&gt;Node8 -->
<g id="edge10" class="edge">
<title>Node7&#45;&gt;Node8</title>
<path fill="none" stroke="midnightblue" d="M213.03,-56.08C207.99,-48.53 200.63,-37.49 194.46,-28.23"/>
<polygon fill="midnightblue" stroke="midnightblue" points="197.26,-26.13 188.8,-19.75 191.44,-30.01 197.26,-26.13"/>
</g>
<!-- Node9 -->
<g id="node9" class="node">
<title>Node9</title>
<g id="a_node9"><a xlink:title=" ">
<polygon fill="none" stroke="#bfbfbf" points="229.47,-0.5 229.47,-19.5 282.47,-19.5 282.47,-0.5 229.47,-0.5"/>
<text text-anchor="middle" x="255.97" y="-7.5" font-family="Helvetica,sans-Serif" font-size="10.00">stdint.h</text>
</a>
</g>
</g>
<!-- Node7&#45;&gt;Node9 -->
<g id="edge11" class="edge">
<title>Node7&#45;&gt;Node9</title>
<path fill="none" stroke="midnightblue" d="M225.08,-56.08C230.25,-48.53 237.82,-37.49 244.17,-28.23"/>
<polygon fill="midnightblue" stroke="midnightblue" points="247.21,-29.98 249.97,-19.75 241.43,-26.02 247.21,-29.98"/>
</g>
<!-- Node10 -->
<g id="node10" class="node">
<title>Node10</title>
<g id="a_node10"><a xlink:title=" ">
<polygon fill="none" stroke="#bfbfbf" points="333.97,-0.5 333.97,-19.5 383.97,-19.5 383.97,-0.5 333.97,-0.5"/>
<text text-anchor="middle" x="358.97" y="-7.5" font-family="Helvetica,sans-Serif" font-size="10.00">cstdint</text>
</a>
</g>
</g>
<!-- Node7&#45;&gt;Node10 -->
<g id="edge12" class="edge">
<title>Node7&#45;&gt;Node10</title>
<path fill="none" stroke="midnightblue" d="M241.15,-56.44C264.4,-47.48 301.12,-33.31 327.39,-23.18"/>
<polygon fill="midnightblue" stroke="midnightblue" points="328.82,-26.38 336.89,-19.52 326.3,-19.85 328.82,-26.38"/>
</g>
<!-- Node12&#45;&gt;Node10 -->
<g id="edge15" class="edge">
<title>Node12&#45;&gt;Node10</title>
<path fill="none" stroke="midnightblue" d="M356.61,-168.48C362.02,-159.74 369.83,-145.56 372.97,-132 381.24,-96.25 371.87,-53.37 364.97,-29.45"/>
<polygon fill="midnightblue" stroke="midnightblue" points="368.23,-28.16 361.96,-19.62 361.54,-30.21 368.23,-28.16"/>
</g>
</g>
</svg>
