<?xml version="1.0" encoding="UTF-8" standalone="no"?>
<!DOCTYPE svg PUBLIC "-//W3C//DTD SVG 1.1//EN"
 "http://www.w3.org/Graphics/SVG/1.1/DTD/svg11.dtd">
<!-- Generated by graphviz version 2.43.0 (0)
 -->
<!-- Title: terminalsDMACommon.h Pages: 1 -->
<svg width="359pt" height="196pt"
 viewBox="0.00 0.00 359.00 196.00" xmlns="http://www.w3.org/2000/svg" xmlns:xlink="http://www.w3.org/1999/xlink">
<g id="graph0" class="graph" transform="scale(1 1) rotate(0) translate(4 192)">
<title>terminalsDMACommon.h</title>
<!-- Node1 -->
<g id="node1" class="node">
<title>Node1</title>
<g id="a_node1"><a xlink:title=" ">
<polygon fill="#bfbfbf" stroke="black" points="55.5,-168.5 55.5,-187.5 195.5,-187.5 195.5,-168.5 55.5,-168.5"/>
<text text-anchor="middle" x="125.5" y="-175.5" font-family="Helvetica,sans-Serif" font-size="10.00">terminalsDMACommon.h</text>
</a>
</g>
</g>
<!-- Node2 -->
<g id="node2" class="node">
<title>Node2</title>
<g id="a_node2"><a xlink:title=" ">
<polygon fill="none" stroke="#bfbfbf" points="0,-112.5 0,-131.5 47,-131.5 47,-112.5 0,-112.5"/>
<text text-anchor="middle" x="23.5" y="-119.5" font-family="Helvetica,sans-Serif" font-size="10.00">vector</text>
</a>
</g>
</g>
<!-- Node1&#45;&gt;Node2 -->
<g id="edge1" class="edge">
<title>Node1&#45;&gt;Node2</title>
<path fill="none" stroke="midnightblue" d="M109.11,-168.32C92.83,-159.7 67.63,-146.36 48.78,-136.39"/>
<polygon fill="midnightblue" stroke="midnightblue" points="50.32,-133.24 39.85,-131.65 47.05,-139.43 50.32,-133.24"/>
</g>
<!-- Node3 -->
<g id="node3" class="node">
<title>Node3</title>
<g id="a_node3"><a xlink:title=" ">
<polygon fill="none" stroke="#bfbfbf" points="55.5,-56.5 55.5,-75.5 113.5,-75.5 113.5,-56.5 55.5,-56.5"/>
<text text-anchor="middle" x="84.5" y="-63.5" font-family="Helvetica,sans-Serif" font-size="10.00">memory</text>
</a>
</g>
</g>
<!-- Node1&#45;&gt;Node3 -->
<g id="edge2" class="edge">
<title>Node1&#45;&gt;Node3</title>
<path fill="none" stroke="midnightblue" d="M117.78,-168.39C110.54,-159.81 100.03,-145.93 94.5,-132 88.63,-117.23 86.19,-99.3 85.18,-86.02"/>
<polygon fill="midnightblue" stroke="midnightblue" points="88.66,-85.53 84.62,-75.73 81.67,-85.91 88.66,-85.53"/>
</g>
<!-- Node4 -->
<g id="node4" class="node">
<title>Node4</title>
<g id="a_node4"><a xlink:href="terminalsBase_8h.html" target="_top" xlink:title=" ">
<polygon fill="none" stroke="black" points="103.5,-112.5 103.5,-131.5 249.5,-131.5 249.5,-112.5 103.5,-112.5"/>
<text text-anchor="middle" x="176.5" y="-119.5" font-family="Helvetica,sans-Serif" font-size="10.00">terminals/terminalsBase.h</text>
</a>
</g>
</g>
<!-- Node1&#45;&gt;Node4 -->
<g id="edge3" class="edge">
<title>Node1&#45;&gt;Node4</title>
<path fill="none" stroke="midnightblue" d="M133.92,-168.08C141.35,-160.22 152.35,-148.57 161.31,-139.08"/>
<polygon fill="midnightblue" stroke="midnightblue" points="163.91,-141.42 168.24,-131.75 158.82,-136.62 163.91,-141.42"/>
</g>
<!-- Node9 -->
<g id="node9" class="node">
<title>Node9</title>
<g id="a_node9"><a xlink:href="frameTypes_8h.html" target="_top" xlink:title=" ">
<polygon fill="none" stroke="black" points="268,-112.5 268,-131.5 351,-131.5 351,-112.5 268,-112.5"/>
<text text-anchor="middle" x="309.5" y="-119.5" font-family="Helvetica,sans-Serif" font-size="10.00">frameTypes.h</text>
</a>
</g>
</g>
<!-- Node1&#45;&gt;Node9 -->
<g id="edge9" class="edge">
<title>Node1&#45;&gt;Node9</title>
<path fill="none" stroke="midnightblue" d="M154.66,-168.44C186.01,-159.24 236.03,-144.56 270.7,-134.39"/>
<polygon fill="midnightblue" stroke="midnightblue" points="271.87,-137.69 280.48,-131.52 269.9,-130.97 271.87,-137.69"/>
</g>
<!-- Node4&#45;&gt;Node3 -->
<g id="edge4" class="edge">
<title>Node4&#45;&gt;Node3</title>
<path fill="none" stroke="midnightblue" d="M161.72,-112.32C147.23,-103.82 124.93,-90.73 108.01,-80.8"/>
<polygon fill="midnightblue" stroke="midnightblue" points="109.64,-77.7 99.24,-75.65 106.1,-83.74 109.64,-77.7"/>
</g>
<!-- Node5 -->
<g id="node5" class="node">
<title>Node5</title>
<g id="a_node5"><a xlink:href="platforms_8h.html" target="_top" xlink:title=" ">
<polygon fill="none" stroke="black" points="140,-56.5 140,-75.5 213,-75.5 213,-56.5 140,-56.5"/>
<text text-anchor="middle" x="176.5" y="-63.5" font-family="Helvetica,sans-Serif" font-size="10.00">platforms.h</text>
</a>
</g>
</g>
<!-- Node4&#45;&gt;Node5 -->
<g id="edge5" class="edge">
<title>Node4&#45;&gt;Node5</title>
<path fill="none" stroke="midnightblue" d="M176.5,-112.08C176.5,-105.01 176.5,-94.86 176.5,-85.99"/>
<polygon fill="midnightblue" stroke="midnightblue" points="180,-85.75 176.5,-75.75 173,-85.75 180,-85.75"/>
</g>
<!-- Node6 -->
<g id="node6" class="node">
<title>Node6</title>
<g id="a_node6"><a xlink:title=" ">
<polygon fill="none" stroke="#bfbfbf" points="75.5,-0.5 75.5,-19.5 131.5,-19.5 131.5,-0.5 75.5,-0.5"/>
<text text-anchor="middle" x="103.5" y="-7.5" font-family="Helvetica,sans-Serif" font-size="10.00">stddef.h</text>
</a>
</g>
</g>
<!-- Node5&#45;&gt;Node6 -->
<g id="edge6" class="edge">
<title>Node5&#45;&gt;Node6</title>
<path fill="none" stroke="midnightblue" d="M164.77,-56.32C153.66,-48.11 136.76,-35.6 123.52,-25.81"/>
<polygon fill="midnightblue" stroke="midnightblue" points="125.56,-22.97 115.44,-19.83 121.4,-28.59 125.56,-22.97"/>
</g>
<!-- Node7 -->
<g id="node7" class="node">
<title>Node7</title>
<g id="a_node7"><a xlink:title=" ">
<polygon fill="none" stroke="#bfbfbf" points="150,-0.5 150,-19.5 203,-19.5 203,-0.5 150,-0.5"/>
<text text-anchor="middle" x="176.5" y="-7.5" font-family="Helvetica,sans-Serif" font-size="10.00">stdint.h</text>
</a>
</g>
</g>
<!-- Node5&#45;&gt;Node7 -->
<g id="edge7" class="edge">
<title>Node5&#45;&gt;Node7</title>
<path fill="none" stroke="midnightblue" d="M176.5,-56.08C176.5,-49.01 176.5,-38.86 176.5,-29.99"/>
<polygon fill="midnightblue" stroke="midnightblue" points="180,-29.75 176.5,-19.75 173,-29.75 180,-29.75"/>
</g>
<!-- Node8 -->
<g id="node8" class="node">
<title>Node8</title>
<g id="a_node8"><a xlink:title=" ">
<polygon fill="none" stroke="#bfbfbf" points="221.5,-0.5 221.5,-19.5 271.5,-19.5 271.5,-0.5 221.5,-0.5"/>
<text text-anchor="middle" x="246.5" y="-7.5" font-family="Helvetica,sans-Serif" font-size="10.00">cstdint</text>
</a>
</g>
</g>
<!-- Node5&#45;&gt;Node8 -->
<g id="edge8" class="edge">
<title>Node5&#45;&gt;Node8</title>
<path fill="none" stroke="midnightblue" d="M187.75,-56.32C198.3,-48.18 214.3,-35.84 226.94,-26.09"/>
<polygon fill="midnightblue" stroke="midnightblue" points="229.27,-28.71 235.05,-19.83 224.99,-23.17 229.27,-28.71"/>
</g>
</g>
</svg>
