<?xml version="1.0" encoding="UTF-8" standalone="no"?>
<!DOCTYPE svg PUBLIC "-//W3C//DTD SVG 1.1//EN"
 "http://www.w3.org/Graphics/SVG/1.1/DTD/svg11.dtd">
<!-- Generated by graphviz version 2.43.0 (0)
 -->
<!-- Title: utils.h Pages: 1 -->
<svg width="718pt" height="308pt"
 viewBox="0.00 0.00 717.50 308.00" xmlns="http://www.w3.org/2000/svg" xmlns:xlink="http://www.w3.org/1999/xlink">
<g id="graph0" class="graph" transform="scale(1 1) rotate(0) translate(4 304)">
<title>utils.h</title>
<!-- Node1 -->
<g id="node1" class="node">
<title>Node1</title>
<g id="a_node1"><a xlink:title=" ">
<polygon fill="#bfbfbf" stroke="black" points="421,-280.5 421,-299.5 468,-299.5 468,-280.5 421,-280.5"/>
<text text-anchor="middle" x="444.5" y="-287.5" font-family="Helvetica,sans-Serif" font-size="10.00">utils.h</text>
</a>
</g>
</g>
<!-- Node2 -->
<g id="node2" class="node">
<title>Node2</title>
<g id="a_node2"><a xlink:title=" ">
<polygon fill="none" stroke="#bfbfbf" points="0,-168.5 0,-187.5 47,-187.5 47,-168.5 0,-168.5"/>
<text text-anchor="middle" x="23.5" y="-175.5" font-family="Helvetica,sans-Serif" font-size="10.00">vector</text>
</a>
</g>
</g>
<!-- Node1&#45;&gt;Node2 -->
<g id="edge1" class="edge">
<title>Node1&#45;&gt;Node2</title>
<path fill="none" stroke="midnightblue" d="M420.97,-286.85C374.08,-282.17 265.99,-269.38 178.5,-244 131.46,-230.36 79.48,-206.66 49.25,-191.96"/>
<polygon fill="midnightblue" stroke="midnightblue" points="50.76,-188.8 40.24,-187.53 47.67,-195.08 50.76,-188.8"/>
</g>
<!-- Node3 -->
<g id="node3" class="node">
<title>Node3</title>
<g id="a_node3"><a xlink:title=" ">
<polygon fill="none" stroke="#bfbfbf" points="225.5,-0.5 225.5,-19.5 269.5,-19.5 269.5,-0.5 225.5,-0.5"/>
<text text-anchor="middle" x="247.5" y="-7.5" font-family="Helvetica,sans-Serif" font-size="10.00">string</text>
</a>
</g>
</g>
<!-- Node1&#45;&gt;Node3 -->
<g id="edge2" class="edge">
<title>Node1&#45;&gt;Node3</title>
<path fill="none" stroke="midnightblue" d="M459.86,-280.31C486.27,-264.09 537.5,-226.51 537.5,-179 537.5,-179 537.5,-179 537.5,-121 537.5,-66.36 355.23,-29.22 279.69,-16.17"/>
<polygon fill="midnightblue" stroke="midnightblue" points="280.22,-12.71 269.77,-14.49 279.05,-19.61 280.22,-12.71"/>
</g>
<!-- Node4 -->
<g id="node4" class="node">
<title>Node4</title>
<g id="a_node4"><a xlink:title=" ">
<polygon fill="none" stroke="#bfbfbf" points="294,-168.5 294,-187.5 387,-187.5 387,-168.5 294,-168.5"/>
<text text-anchor="middle" x="340.5" y="-175.5" font-family="Helvetica,sans-Serif" font-size="10.00">unordered_map</text>
</a>
</g>
</g>
<!-- Node1&#45;&gt;Node4 -->
<g id="edge3" class="edge">
<title>Node1&#45;&gt;Node4</title>
<path fill="none" stroke="midnightblue" d="M435.99,-280.44C427.07,-271.44 412.69,-256.83 400.5,-244 384.91,-227.59 367.38,-208.53 355.31,-195.31"/>
<polygon fill="midnightblue" stroke="midnightblue" points="357.89,-192.94 348.57,-187.91 352.72,-197.66 357.89,-192.94"/>
</g>
<!-- Node5 -->
<g id="node5" class="node">
<title>Node5</title>
<g id="a_node5"><a xlink:title=" ">
<polygon fill="none" stroke="#bfbfbf" points="566,-224.5 566,-243.5 631,-243.5 631,-224.5 566,-224.5"/>
<text text-anchor="middle" x="598.5" y="-231.5" font-family="Helvetica,sans-Serif" font-size="10.00">functional</text>
</a>
</g>
</g>
<!-- Node1&#45;&gt;Node5 -->
<g id="edge4" class="edge">
<title>Node1&#45;&gt;Node5</title>
<path fill="none" stroke="midnightblue" d="M468.23,-280.68C493.96,-271.66 535.27,-257.17 564.46,-246.93"/>
<polygon fill="midnightblue" stroke="midnightblue" points="565.96,-250.12 574.24,-243.51 563.64,-243.51 565.96,-250.12"/>
</g>
<!-- Node6 -->
<g id="node6" class="node">
<title>Node6</title>
<g id="a_node6"><a xlink:title=" ">
<polygon fill="none" stroke="#bfbfbf" points="649.5,-224.5 649.5,-243.5 709.5,-243.5 709.5,-224.5 649.5,-224.5"/>
<text text-anchor="middle" x="679.5" y="-231.5" font-family="Helvetica,sans-Serif" font-size="10.00">NiFpga.h</text>
</a>
</g>
</g>
<!-- Node1&#45;&gt;Node6 -->
<g id="edge5" class="edge">
<title>Node1&#45;&gt;Node6</title>
<path fill="none" stroke="midnightblue" d="M468.03,-283.61C503.11,-275.56 571.44,-259.89 639.27,-244.28"/>
<polygon fill="midnightblue" stroke="midnightblue" points="640.31,-247.63 649.27,-241.98 638.74,-240.81 640.31,-247.63"/>
</g>
<!-- Node7 -->
<g id="node7" class="node">
<title>Node7</title>
<g id="a_node7"><a xlink:href="bfp_8h.html" target="_top" xlink:title=" ">
<polygon fill="none" stroke="black" points="188,-224.5 188,-243.5 229,-243.5 229,-224.5 188,-224.5"/>
<text text-anchor="middle" x="208.5" y="-231.5" font-family="Helvetica,sans-Serif" font-size="10.00">bfp.h</text>
</a>
</g>
</g>
<!-- Node1&#45;&gt;Node7 -->
<g id="edge6" class="edge">
<title>Node1&#45;&gt;Node7</title>
<path fill="none" stroke="midnightblue" d="M420.57,-283.53C377.43,-273.65 286.68,-252.89 239.1,-242"/>
<polygon fill="midnightblue" stroke="midnightblue" points="239.61,-238.53 229.08,-239.71 238.05,-245.35 239.61,-238.53"/>
</g>
<!-- Node14 -->
<g id="node14" class="node">
<title>Node14</title>
<g id="a_node14"><a xlink:href="errorsIrio_8h.html" target="_top" xlink:title=" ">
<polygon fill="none" stroke="black" points="409.5,-224.5 409.5,-243.5 479.5,-243.5 479.5,-224.5 409.5,-224.5"/>
<text text-anchor="middle" x="444.5" y="-231.5" font-family="Helvetica,sans-Serif" font-size="10.00">errorsIrio.h</text>
</a>
</g>
</g>
<!-- Node1&#45;&gt;Node14 -->
<g id="edge22" class="edge">
<title>Node1&#45;&gt;Node14</title>
<path fill="none" stroke="midnightblue" d="M444.5,-280.08C444.5,-273.01 444.5,-262.86 444.5,-253.99"/>
<polygon fill="midnightblue" stroke="midnightblue" points="448,-253.75 444.5,-243.75 441,-253.75 448,-253.75"/>
</g>
<!-- Node7&#45;&gt;Node2 -->
<g id="edge7" class="edge">
<title>Node7&#45;&gt;Node2</title>
<path fill="none" stroke="midnightblue" d="M187.99,-227.01C156.21,-217.74 94.76,-199.8 56.63,-188.67"/>
<polygon fill="midnightblue" stroke="midnightblue" points="57.58,-185.3 47,-185.86 55.62,-192.02 57.58,-185.3"/>
</g>
<!-- Node7&#45;&gt;Node3 -->
<g id="edge9" class="edge">
<title>Node7&#45;&gt;Node3</title>
<path fill="none" stroke="midnightblue" d="M187.81,-224.97C171.87,-217.71 150.58,-205.46 138.5,-188 104.78,-139.26 85.24,-104.36 119.5,-56 141.06,-25.57 184.91,-15.57 215.24,-12.36"/>
<polygon fill="midnightblue" stroke="midnightblue" points="215.68,-15.84 225.34,-11.49 215.08,-8.86 215.68,-15.84"/>
</g>
<!-- Node7&#45;&gt;Node4 -->
<g id="edge8" class="edge">
<title>Node7&#45;&gt;Node4</title>
<path fill="none" stroke="midnightblue" d="M229.12,-224.56C250.89,-215.66 285.41,-201.54 310.26,-191.37"/>
<polygon fill="midnightblue" stroke="midnightblue" points="311.65,-194.58 319.58,-187.56 309,-188.1 311.65,-194.58"/>
</g>
<!-- Node8 -->
<g id="node8" class="node">
<title>Node8</title>
<g id="a_node8"><a xlink:href="register_8h.html" target="_top" xlink:title=" ">
<polygon fill="none" stroke="black" points="213.5,-168.5 213.5,-187.5 275.5,-187.5 275.5,-168.5 213.5,-168.5"/>
<text text-anchor="middle" x="244.5" y="-175.5" font-family="Helvetica,sans-Serif" font-size="10.00">register.h</text>
</a>
</g>
</g>
<!-- Node7&#45;&gt;Node8 -->
<g id="edge10" class="edge">
<title>Node7&#45;&gt;Node8</title>
<path fill="none" stroke="midnightblue" d="M214.44,-224.08C219.48,-216.53 226.84,-205.49 233.01,-196.23"/>
<polygon fill="midnightblue" stroke="midnightblue" points="236.03,-198.01 238.67,-187.75 230.21,-194.13 236.03,-198.01"/>
</g>
<!-- Node13 -->
<g id="node13" class="node">
<title>Node13</title>
<g id="a_node13"><a xlink:href="dma_8h.html" target="_top" xlink:title=" ">
<polygon fill="none" stroke="black" points="148,-168.5 148,-187.5 195,-187.5 195,-168.5 148,-168.5"/>
<text text-anchor="middle" x="171.5" y="-175.5" font-family="Helvetica,sans-Serif" font-size="10.00">dma.h</text>
</a>
</g>
</g>
<!-- Node7&#45;&gt;Node13 -->
<g id="edge18" class="edge">
<title>Node7&#45;&gt;Node13</title>
<path fill="none" stroke="midnightblue" d="M202.39,-224.08C197.22,-216.53 189.65,-205.49 183.31,-196.23"/>
<polygon fill="midnightblue" stroke="midnightblue" points="186.04,-194.02 177.5,-187.75 180.26,-197.98 186.04,-194.02"/>
</g>
<!-- Node8&#45;&gt;Node3 -->
<g id="edge11" class="edge">
<title>Node8&#45;&gt;Node3</title>
<path fill="none" stroke="midnightblue" d="M264.32,-168.48C304.77,-149.86 390.43,-103.4 358.5,-56 341.04,-30.08 305.82,-19.08 279.72,-14.42"/>
<polygon fill="midnightblue" stroke="midnightblue" points="279.93,-10.92 269.51,-12.83 278.86,-17.83 279.93,-10.92"/>
</g>
<!-- Node9 -->
<g id="node9" class="node">
<title>Node9</title>
<g id="a_node9"><a xlink:href="resource_8h.html" target="_top" xlink:title=" ">
<polygon fill="none" stroke="black" points="146.5,-112.5 146.5,-131.5 214.5,-131.5 214.5,-112.5 146.5,-112.5"/>
<text text-anchor="middle" x="180.5" y="-119.5" font-family="Helvetica,sans-Serif" font-size="10.00">resource.h</text>
</a>
</g>
</g>
<!-- Node8&#45;&gt;Node9 -->
<g id="edge12" class="edge">
<title>Node8&#45;&gt;Node9</title>
<path fill="none" stroke="midnightblue" d="M234.22,-168.32C224.66,-160.26 210.22,-148.08 198.72,-138.37"/>
<polygon fill="midnightblue" stroke="midnightblue" points="200.87,-135.61 190.97,-131.83 196.36,-140.96 200.87,-135.61"/>
</g>
<!-- Node12 -->
<g id="node12" class="node">
<title>Node12</title>
<g id="a_node12"><a xlink:title=" ">
<polygon fill="none" stroke="#bfbfbf" points="233,-112.5 233,-131.5 310,-131.5 310,-112.5 233,-112.5"/>
<text text-anchor="middle" x="271.5" y="-119.5" font-family="Helvetica,sans-Serif" font-size="10.00">pugixml.hpp</text>
</a>
</g>
</g>
<!-- Node8&#45;&gt;Node12 -->
<g id="edge17" class="edge">
<title>Node8&#45;&gt;Node12</title>
<path fill="none" stroke="midnightblue" d="M248.96,-168.08C252.65,-160.69 258.02,-149.95 262.59,-140.81"/>
<polygon fill="midnightblue" stroke="midnightblue" points="265.78,-142.26 267.12,-131.75 259.52,-139.13 265.78,-142.26"/>
</g>
<!-- Node9&#45;&gt;Node3 -->
<g id="edge13" class="edge">
<title>Node9&#45;&gt;Node3</title>
<path fill="none" stroke="midnightblue" d="M192.59,-112.31C203.21,-104.08 218.37,-90.81 227.5,-76 236.32,-61.71 241.51,-43.24 244.38,-29.65"/>
<polygon fill="midnightblue" stroke="midnightblue" points="247.87,-30.04 246.28,-19.57 240.99,-28.75 247.87,-30.04"/>
</g>
<!-- Node10 -->
<g id="node10" class="node">
<title>Node10</title>
<g id="a_node10"><a xlink:href="fpgatypes_8h.html" target="_top" xlink:title=" ">
<polygon fill="none" stroke="black" points="275.5,-56.5 275.5,-75.5 349.5,-75.5 349.5,-56.5 275.5,-56.5"/>
<text text-anchor="middle" x="312.5" y="-63.5" font-family="Helvetica,sans-Serif" font-size="10.00">fpgatypes.h</text>
</a>
</g>
</g>
<!-- Node9&#45;&gt;Node10 -->
<g id="edge14" class="edge">
<title>Node9&#45;&gt;Node10</title>
<path fill="none" stroke="midnightblue" d="M201.42,-112.44C223.24,-103.52 257.65,-89.44 282.39,-79.32"/>
<polygon fill="midnightblue" stroke="midnightblue" points="283.75,-82.54 291.68,-75.52 281.1,-76.06 283.75,-82.54"/>
</g>
<!-- Node11 -->
<g id="node11" class="node">
<title>Node11</title>
<g id="a_node11"><a xlink:href="elemtypes_8h.html" target="_top" xlink:title=" ">
<polygon fill="none" stroke="black" points="142,-56.5 142,-75.5 219,-75.5 219,-56.5 142,-56.5"/>
<text text-anchor="middle" x="180.5" y="-63.5" font-family="Helvetica,sans-Serif" font-size="10.00">elemtypes.h</text>
</a>
</g>
</g>
<!-- Node9&#45;&gt;Node11 -->
<g id="edge15" class="edge">
<title>Node9&#45;&gt;Node11</title>
<path fill="none" stroke="midnightblue" d="M180.5,-112.08C180.5,-105.01 180.5,-94.86 180.5,-85.99"/>
<polygon fill="midnightblue" stroke="midnightblue" points="184,-85.75 180.5,-75.75 177,-85.75 184,-85.75"/>
</g>
<!-- Node11&#45;&gt;Node3 -->
<g id="edge16" class="edge">
<title>Node11&#45;&gt;Node3</title>
<path fill="none" stroke="midnightblue" d="M191.26,-56.32C201.27,-48.26 216.39,-36.08 228.43,-26.37"/>
<polygon fill="midnightblue" stroke="midnightblue" points="230.95,-28.83 236.54,-19.83 226.56,-23.38 230.95,-28.83"/>
</g>
<!-- Node13&#45;&gt;Node3 -->
<g id="edge19" class="edge">
<title>Node13&#45;&gt;Node3</title>
<path fill="none" stroke="midnightblue" d="M162.5,-168.29C154.42,-159.84 143,-146.25 137.5,-132 125.32,-100.42 113.42,-83.96 132.5,-56 150.85,-29.11 187.89,-18.29 214.99,-13.93"/>
<polygon fill="midnightblue" stroke="midnightblue" points="215.77,-17.36 225.2,-12.52 214.81,-10.43 215.77,-17.36"/>
</g>
<!-- Node13&#45;&gt;Node9 -->
<g id="edge21" class="edge">
<title>Node13&#45;&gt;Node9</title>
<path fill="none" stroke="midnightblue" d="M172.99,-168.08C174.18,-160.93 175.89,-150.64 177.38,-141.69"/>
<polygon fill="midnightblue" stroke="midnightblue" points="180.85,-142.19 179.04,-131.75 173.95,-141.04 180.85,-142.19"/>
</g>
<!-- Node13&#45;&gt;Node12 -->
<g id="edge20" class="edge">
<title>Node13&#45;&gt;Node12</title>
<path fill="none" stroke="midnightblue" d="M187.57,-168.32C203.46,-159.74 228.01,-146.49 246.46,-136.52"/>
<polygon fill="midnightblue" stroke="midnightblue" points="248.34,-139.49 255.47,-131.65 245.01,-133.33 248.34,-139.49"/>
</g>
<!-- Node14&#45;&gt;Node3 -->
<g id="edge24" class="edge">
<title>Node14&#45;&gt;Node3</title>
<path fill="none" stroke="midnightblue" d="M442.15,-224.11C433.46,-191.77 402.26,-80.97 376.5,-56 350.11,-30.42 308.4,-19.32 279.58,-14.54"/>
<polygon fill="midnightblue" stroke="midnightblue" points="280.01,-11.07 269.61,-13.05 278.98,-17.99 280.01,-11.07"/>
</g>
<!-- Node15 -->
<g id="node15" class="node">
<title>Node15</title>
<g id="a_node15"><a xlink:title=" ">
<polygon fill="none" stroke="#bfbfbf" points="444,-168.5 444,-187.5 509,-187.5 509,-168.5 444,-168.5"/>
<text text-anchor="middle" x="476.5" y="-175.5" font-family="Helvetica,sans-Serif" font-size="10.00">stdexcept</text>
</a>
</g>
</g>
<!-- Node14&#45;&gt;Node15 -->
<g id="edge23" class="edge">
<title>Node14&#45;&gt;Node15</title>
<path fill="none" stroke="midnightblue" d="M449.78,-224.08C454.21,-216.61 460.66,-205.72 466.12,-196.52"/>
<polygon fill="midnightblue" stroke="midnightblue" points="469.23,-198.14 471.31,-187.75 463.21,-194.57 469.23,-198.14"/>
</g>
</g>
</svg>
